M48
; DRILL file KiCad 10.0.4 date 2026-08-20T15:25:36
; FORMAT={-:-/ absolute / metric / decimal}
; #@! TF.CreationDate,2026-08-20T15:25:36-04:00
; #@! TF.GenerationSoftware,Kicad,Pcbnew,10.0.4
; #@! TF.FileFunction,Plated,1,4,PTH
FMAT,2
METRIC
; #@! TA.AperFunction,Plated,PTH,ViaDrill
T1C0.500
; #@! TA.AperFunction,Plated,PTH,ComponentDrill
T2C0.600
; #@! TA.AperFunction,Plated,PTH,ComponentDrill
T3C0.700
; #@! TA.AperFunction,Plated,PTH,ComponentDrill
T4C0.762
; #@! TA.AperFunction,Plated,PTH,ComponentDrill
T5C0.800
; #@! TA.AperFunction,Plated,PTH,ComponentDrill
T6C0.900
; #@! TA.AperFunction,Plated,PTH,ComponentDrill
T7C0.950
; #@! TA.AperFunction,Plated,PTH,ComponentDrill
T8C1.000
; #@! TA.AperFunction,Plated,PTH,ComponentDrill
T9C1.300
; #@! TA.AperFunction,Plated,PTH,ComponentDrill
T10C1.500
; #@! TA.AperFunction,Plated,PTH,ComponentDrill
T11C2.740
; #@! TA.AperFunction,Plated,PTH,ComponentDrill
T12C2.800
%
G90
G05
T1
X143.2Y-99.6
X161.25Y-79.25
X171.7Y-102.8
X173.1Y-101.2
X183.9Y-79.0
X186.55Y-83.35
X187.6Y-66.0
X188.65Y-83.45
T3
X145.195Y-103.0
X145.235Y-98.25
X149.75Y-55.94
X149.75Y-63.56
X152.71Y-61.0
X152.815Y-103.0
X152.855Y-98.25
X157.79Y-61.0
X197.94Y-58.75
X197.94Y-64.25
X199.07Y-93.02
X199.07Y-100.64
X204.32Y-93.02
X204.32Y-100.64
X205.56Y-58.75
X205.56Y-64.25
T4
X150.26Y-68.98
X150.26Y-71.52
X150.26Y-74.06
X150.26Y-76.6
X150.26Y-79.14
X150.26Y-81.68
X150.26Y-84.22
X150.26Y-86.76
X165.26Y-68.98
X165.26Y-71.52
X165.26Y-74.06
X165.26Y-76.6
X165.26Y-79.14
X165.26Y-81.68
X165.26Y-84.22
X165.26Y-86.76
X196.74Y-68.72
X196.74Y-71.26
X196.74Y-73.8
X196.74Y-76.34
X196.74Y-78.88
X196.74Y-81.42
X196.74Y-83.96
X196.74Y-86.5
X211.74Y-68.72
X211.74Y-71.26
X211.74Y-73.8
X211.74Y-76.34
X211.74Y-78.88
X211.74Y-81.42
X211.74Y-83.96
X211.74Y-86.5
T5
X163.25Y-57.0
X163.25Y-59.0
X163.25Y-61.0
X164.6Y-50.775
X169.6Y-50.775
X169.636Y-102.917
X169.636Y-105.457
X169.636Y-107.997
X169.64Y-54.66
X169.64Y-57.2
X169.64Y-59.74
X169.64Y-62.28
X169.64Y-64.82
X169.64Y-67.36
X169.64Y-69.9
X169.64Y-72.44
X169.64Y-74.98
X169.64Y-77.52
X169.64Y-80.06
X169.64Y-82.6
X169.64Y-85.14
X169.64Y-87.68
X169.64Y-90.22
X169.64Y-92.76
X169.64Y-95.3
X169.64Y-97.84
X169.64Y-100.38
X192.5Y-54.66
X192.5Y-57.2
X192.5Y-59.74
X192.5Y-62.28
X192.5Y-64.82
X192.5Y-67.36
X192.5Y-69.9
X192.5Y-72.44
X192.5Y-74.98
X192.5Y-77.52
X192.5Y-80.06
X192.5Y-82.6
X192.5Y-85.14
X192.5Y-87.68
X192.5Y-90.22
X192.5Y-92.76
X192.5Y-95.3
X192.5Y-97.84
X192.5Y-100.38
X192.5Y-102.92
X192.5Y-105.46
X192.5Y-108.0
T6
X155.23Y-55.75
X157.77Y-55.75
T7
X138.75Y-95.75
X138.75Y-98.25
X138.75Y-100.75
X138.75Y-103.25
X198.25Y-50.25
X200.75Y-50.25
X203.25Y-50.25
X205.75Y-50.25
X212.32Y-91.0
X212.32Y-93.5
X212.32Y-96.0
X212.32Y-98.5
T8
X143.4Y-120.2
X145.94Y-120.2
X148.48Y-120.2
X151.02Y-120.2
X153.56Y-120.2
X156.1Y-120.2
X158.64Y-120.2
X161.18Y-120.2
T9
X140.827Y-70.75
X140.827Y-75.75
X140.827Y-83.75
X140.827Y-88.75
X149.75Y-128.172
X154.75Y-128.172
X221.672Y-70.75
X221.672Y-75.75
X221.672Y-83.75
X221.672Y-88.75
T10
X163.25Y-54.9
X163.25Y-63.1
T11
X203.1Y-104.5
X203.1Y-132.5
X221.1Y-104.5
X221.1Y-132.5
T12
X171.2Y-126.05
X178.4Y-126.05
T2
X154.58Y-93.929G85X153.68Y-93.929
G05
X162.2Y-90.5G85X161.3Y-90.5
G05
X217.83Y-65.179G85X216.93Y-65.179
G05
X225.45Y-61.75G85X224.55Y-61.75
G05
M30
