%TF.GenerationSoftware,KiCad,Pcbnew,10.0.4*%
%TF.CreationDate,2026-08-20T15:23:10-04:00*%
%TF.ProjectId,Training_Robot,54726169-6e69-46e6-975f-526f626f742e,rev?*%
%TF.SameCoordinates,Original*%
%TF.FileFunction,Legend,Top*%
%TF.FilePolarity,Positive*%
%FSLAX46Y46*%
G04 Gerber Fmt 4.6, Leading zero omitted, Abs format (unit mm)*
G04 Created by KiCad (PCBNEW 10.0.4) date 2026-08-20 15:23:10*
%MOMM*%
%LPD*%
G01*
G04 APERTURE LIST*
G04 Aperture macros list*
%AMRoundRect*
0 Rectangle with rounded corners*
0 $1 Rounding radius*
0 $2 $3 $4 $5 $6 $7 $8 $9 X,Y pos of 4 corners*
0 Add a 4 corners polygon primitive as box body*
4,1,4,$2,$3,$4,$5,$6,$7,$8,$9,$2,$3,0*
0 Add four circle primitives for the rounded corners*
1,1,$1+$1,$2,$3*
1,1,$1+$1,$4,$5*
1,1,$1+$1,$6,$7*
1,1,$1+$1,$8,$9*
0 Add four rect primitives between the rounded corners*
20,1,$1+$1,$2,$3,$4,$5,0*
20,1,$1+$1,$4,$5,$6,$7,0*
20,1,$1+$1,$6,$7,$8,$9,0*
20,1,$1+$1,$8,$9,$2,$3,0*%
G04 Aperture macros list end*
%ADD10C,0.100000*%
%ADD11C,0.150000*%
%ADD12C,0.120000*%
%ADD13C,0.200000*%
%ADD14RoundRect,0.165000X0.385000X0.885000X-0.385000X0.885000X-0.385000X-0.885000X0.385000X-0.885000X0*%
%ADD15RoundRect,0.495000X1.155000X1.155000X-1.155000X1.155000X-1.155000X-1.155000X1.155000X-1.155000X0*%
%ADD16RoundRect,0.645000X1.505000X1.505000X-1.505000X1.505000X-1.505000X-1.505000X1.505000X-1.505000X0*%
%ADD17RoundRect,0.165000X0.835000X0.385000X-0.835000X0.385000X-0.835000X-0.385000X0.835000X-0.385000X0*%
%ADD18C,1.400000*%
%ADD19C,1.524000*%
%ADD20RoundRect,0.250000X-0.725000X0.600000X-0.725000X-0.600000X0.725000X-0.600000X0.725000X0.600000X0*%
%ADD21O,1.950000X1.700000*%
%ADD22C,4.500000*%
%ADD23RoundRect,0.250000X-1.050000X1.050000X-1.050000X-1.050000X1.050000X-1.050000X1.050000X1.050000X0*%
%ADD24C,2.600000*%
%ADD25RoundRect,0.250000X-1.050000X-1.050000X1.050000X-1.050000X1.050000X1.050000X-1.050000X1.050000X0*%
%ADD26R,2.000000X1.200000*%
%ADD27O,2.000000X1.200000*%
%ADD28O,3.500000X2.200000*%
%ADD29R,2.500000X1.500000*%
%ADD30O,2.500000X1.500000*%
%ADD31RoundRect,0.250000X1.050000X-1.050000X1.050000X1.050000X-1.050000X1.050000X-1.050000X-1.050000X0*%
%ADD32C,1.600000*%
%ADD33RoundRect,0.250000X-0.600000X-0.725000X0.600000X-0.725000X0.600000X0.725000X-0.600000X0.725000X0*%
%ADD34O,1.700000X1.950000*%
%ADD35C,3.500000*%
%ADD36R,3.500000X3.500000*%
%ADD37R,1.800000X1.800000*%
%ADD38C,1.800000*%
%ADD39R,1.700000X1.700000*%
%ADD40C,1.700000*%
%ADD41RoundRect,0.250000X0.725000X-0.600000X0.725000X0.600000X-0.725000X0.600000X-0.725000X-0.600000X0*%
G04 APERTURE END LIST*
D10*
X170266666Y-121507419D02*
X170266666Y-122221704D01*
X170266666Y-122221704D02*
X170219047Y-122364561D01*
X170219047Y-122364561D02*
X170123809Y-122459800D01*
X170123809Y-122459800D02*
X169980952Y-122507419D01*
X169980952Y-122507419D02*
X169885714Y-122507419D01*
X171171428Y-121840752D02*
X171171428Y-122507419D01*
X170933333Y-121459800D02*
X170695238Y-122174085D01*
X170695238Y-122174085D02*
X171314285Y-122174085D01*
X157666666Y-96333609D02*
X157333333Y-96333609D01*
X157333333Y-96857419D02*
X157333333Y-95857419D01*
X157333333Y-95857419D02*
X157809523Y-95857419D01*
X158142857Y-95952657D02*
X158190476Y-95905038D01*
X158190476Y-95905038D02*
X158285714Y-95857419D01*
X158285714Y-95857419D02*
X158523809Y-95857419D01*
X158523809Y-95857419D02*
X158619047Y-95905038D01*
X158619047Y-95905038D02*
X158666666Y-95952657D01*
X158666666Y-95952657D02*
X158714285Y-96047895D01*
X158714285Y-96047895D02*
X158714285Y-96143133D01*
X158714285Y-96143133D02*
X158666666Y-96285990D01*
X158666666Y-96285990D02*
X158095238Y-96857419D01*
X158095238Y-96857419D02*
X158714285Y-96857419D01*
X220866666Y-59133609D02*
X220533333Y-59133609D01*
X220533333Y-59657419D02*
X220533333Y-58657419D01*
X220533333Y-58657419D02*
X221009523Y-58657419D01*
X221914285Y-59657419D02*
X221342857Y-59657419D01*
X221628571Y-59657419D02*
X221628571Y-58657419D01*
X221628571Y-58657419D02*
X221533333Y-58800276D01*
X221533333Y-58800276D02*
X221438095Y-58895514D01*
X221438095Y-58895514D02*
X221342857Y-58943133D01*
D11*
X148878333Y-96784819D02*
X148545000Y-96308628D01*
X148306905Y-96784819D02*
X148306905Y-95784819D01*
X148306905Y-95784819D02*
X148687857Y-95784819D01*
X148687857Y-95784819D02*
X148783095Y-95832438D01*
X148783095Y-95832438D02*
X148830714Y-95880057D01*
X148830714Y-95880057D02*
X148878333Y-95975295D01*
X148878333Y-95975295D02*
X148878333Y-96118152D01*
X148878333Y-96118152D02*
X148830714Y-96213390D01*
X148830714Y-96213390D02*
X148783095Y-96261009D01*
X148783095Y-96261009D02*
X148687857Y-96308628D01*
X148687857Y-96308628D02*
X148306905Y-96308628D01*
X149211667Y-95784819D02*
X149830714Y-95784819D01*
X149830714Y-95784819D02*
X149497381Y-96165771D01*
X149497381Y-96165771D02*
X149640238Y-96165771D01*
X149640238Y-96165771D02*
X149735476Y-96213390D01*
X149735476Y-96213390D02*
X149783095Y-96261009D01*
X149783095Y-96261009D02*
X149830714Y-96356247D01*
X149830714Y-96356247D02*
X149830714Y-96594342D01*
X149830714Y-96594342D02*
X149783095Y-96689580D01*
X149783095Y-96689580D02*
X149735476Y-96737200D01*
X149735476Y-96737200D02*
X149640238Y-96784819D01*
X149640238Y-96784819D02*
X149354524Y-96784819D01*
X149354524Y-96784819D02*
X149259286Y-96737200D01*
X149259286Y-96737200D02*
X149211667Y-96689580D01*
D10*
X203988095Y-76574990D02*
X203988095Y-77384513D01*
X203988095Y-77384513D02*
X204035714Y-77479751D01*
X204035714Y-77479751D02*
X204083333Y-77527371D01*
X204083333Y-77527371D02*
X204178571Y-77574990D01*
X204178571Y-77574990D02*
X204369047Y-77574990D01*
X204369047Y-77574990D02*
X204464285Y-77527371D01*
X204464285Y-77527371D02*
X204511904Y-77479751D01*
X204511904Y-77479751D02*
X204559523Y-77384513D01*
X204559523Y-77384513D02*
X204559523Y-76574990D01*
X205559523Y-77574990D02*
X204988095Y-77574990D01*
X205273809Y-77574990D02*
X205273809Y-76574990D01*
X205273809Y-76574990D02*
X205178571Y-76717847D01*
X205178571Y-76717847D02*
X205083333Y-76813085D01*
X205083333Y-76813085D02*
X204988095Y-76860704D01*
D11*
X206854819Y-94933333D02*
X207569104Y-94933333D01*
X207569104Y-94933333D02*
X207711961Y-94980952D01*
X207711961Y-94980952D02*
X207807200Y-95076190D01*
X207807200Y-95076190D02*
X207854819Y-95219047D01*
X207854819Y-95219047D02*
X207854819Y-95314285D01*
X206854819Y-94552380D02*
X206854819Y-93933333D01*
X206854819Y-93933333D02*
X207235771Y-94266666D01*
X207235771Y-94266666D02*
X207235771Y-94123809D01*
X207235771Y-94123809D02*
X207283390Y-94028571D01*
X207283390Y-94028571D02*
X207331009Y-93980952D01*
X207331009Y-93980952D02*
X207426247Y-93933333D01*
X207426247Y-93933333D02*
X207664342Y-93933333D01*
X207664342Y-93933333D02*
X207759580Y-93980952D01*
X207759580Y-93980952D02*
X207807200Y-94028571D01*
X207807200Y-94028571D02*
X207854819Y-94123809D01*
X207854819Y-94123809D02*
X207854819Y-94409523D01*
X207854819Y-94409523D02*
X207807200Y-94504761D01*
X207807200Y-94504761D02*
X207759580Y-94552380D01*
X151238095Y-106004819D02*
X151238095Y-105004819D01*
X151238095Y-105481009D02*
X151809523Y-105481009D01*
X151809523Y-106004819D02*
X151809523Y-105004819D01*
X152761904Y-105004819D02*
X152285714Y-105004819D01*
X152285714Y-105004819D02*
X152238095Y-105481009D01*
X152238095Y-105481009D02*
X152285714Y-105433390D01*
X152285714Y-105433390D02*
X152380952Y-105385771D01*
X152380952Y-105385771D02*
X152619047Y-105385771D01*
X152619047Y-105385771D02*
X152714285Y-105433390D01*
X152714285Y-105433390D02*
X152761904Y-105481009D01*
X152761904Y-105481009D02*
X152809523Y-105576247D01*
X152809523Y-105576247D02*
X152809523Y-105814342D01*
X152809523Y-105814342D02*
X152761904Y-105909580D01*
X152761904Y-105909580D02*
X152714285Y-105957200D01*
X152714285Y-105957200D02*
X152619047Y-106004819D01*
X152619047Y-106004819D02*
X152380952Y-106004819D01*
X152380952Y-106004819D02*
X152285714Y-105957200D01*
X152285714Y-105957200D02*
X152238095Y-105909580D01*
X148254819Y-59916666D02*
X147778628Y-60249999D01*
X148254819Y-60488094D02*
X147254819Y-60488094D01*
X147254819Y-60488094D02*
X147254819Y-60107142D01*
X147254819Y-60107142D02*
X147302438Y-60011904D01*
X147302438Y-60011904D02*
X147350057Y-59964285D01*
X147350057Y-59964285D02*
X147445295Y-59916666D01*
X147445295Y-59916666D02*
X147588152Y-59916666D01*
X147588152Y-59916666D02*
X147683390Y-59964285D01*
X147683390Y-59964285D02*
X147731009Y-60011904D01*
X147731009Y-60011904D02*
X147778628Y-60107142D01*
X147778628Y-60107142D02*
X147778628Y-60488094D01*
X147350057Y-59535713D02*
X147302438Y-59488094D01*
X147302438Y-59488094D02*
X147254819Y-59392856D01*
X147254819Y-59392856D02*
X147254819Y-59154761D01*
X147254819Y-59154761D02*
X147302438Y-59059523D01*
X147302438Y-59059523D02*
X147350057Y-59011904D01*
X147350057Y-59011904D02*
X147445295Y-58964285D01*
X147445295Y-58964285D02*
X147540533Y-58964285D01*
X147540533Y-58964285D02*
X147683390Y-59011904D01*
X147683390Y-59011904D02*
X148254819Y-59583332D01*
X148254819Y-59583332D02*
X148254819Y-58964285D01*
X147602319Y-87059523D02*
X146602319Y-87059523D01*
X146602319Y-87059523D02*
X147316604Y-86726190D01*
X147316604Y-86726190D02*
X146602319Y-86392857D01*
X146602319Y-86392857D02*
X147602319Y-86392857D01*
X146602319Y-86011904D02*
X146602319Y-85392857D01*
X146602319Y-85392857D02*
X146983271Y-85726190D01*
X146983271Y-85726190D02*
X146983271Y-85583333D01*
X146983271Y-85583333D02*
X147030890Y-85488095D01*
X147030890Y-85488095D02*
X147078509Y-85440476D01*
X147078509Y-85440476D02*
X147173747Y-85392857D01*
X147173747Y-85392857D02*
X147411842Y-85392857D01*
X147411842Y-85392857D02*
X147507080Y-85440476D01*
X147507080Y-85440476D02*
X147554700Y-85488095D01*
X147554700Y-85488095D02*
X147602319Y-85583333D01*
X147602319Y-85583333D02*
X147602319Y-85869047D01*
X147602319Y-85869047D02*
X147554700Y-85964285D01*
X147554700Y-85964285D02*
X147507080Y-86011904D01*
X158466666Y-127654819D02*
X158466666Y-128369104D01*
X158466666Y-128369104D02*
X158419047Y-128511961D01*
X158419047Y-128511961D02*
X158323809Y-128607200D01*
X158323809Y-128607200D02*
X158180952Y-128654819D01*
X158180952Y-128654819D02*
X158085714Y-128654819D01*
X159419047Y-127654819D02*
X158942857Y-127654819D01*
X158942857Y-127654819D02*
X158895238Y-128131009D01*
X158895238Y-128131009D02*
X158942857Y-128083390D01*
X158942857Y-128083390D02*
X159038095Y-128035771D01*
X159038095Y-128035771D02*
X159276190Y-128035771D01*
X159276190Y-128035771D02*
X159371428Y-128083390D01*
X159371428Y-128083390D02*
X159419047Y-128131009D01*
X159419047Y-128131009D02*
X159466666Y-128226247D01*
X159466666Y-128226247D02*
X159466666Y-128464342D01*
X159466666Y-128464342D02*
X159419047Y-128559580D01*
X159419047Y-128559580D02*
X159371428Y-128607200D01*
X159371428Y-128607200D02*
X159276190Y-128654819D01*
X159276190Y-128654819D02*
X159038095Y-128654819D01*
X159038095Y-128654819D02*
X158942857Y-128607200D01*
X158942857Y-128607200D02*
X158895238Y-128559580D01*
X197654819Y-96966666D02*
X197178628Y-97299999D01*
X197654819Y-97538094D02*
X196654819Y-97538094D01*
X196654819Y-97538094D02*
X196654819Y-97157142D01*
X196654819Y-97157142D02*
X196702438Y-97061904D01*
X196702438Y-97061904D02*
X196750057Y-97014285D01*
X196750057Y-97014285D02*
X196845295Y-96966666D01*
X196845295Y-96966666D02*
X196988152Y-96966666D01*
X196988152Y-96966666D02*
X197083390Y-97014285D01*
X197083390Y-97014285D02*
X197131009Y-97061904D01*
X197131009Y-97061904D02*
X197178628Y-97157142D01*
X197178628Y-97157142D02*
X197178628Y-97538094D01*
X197083390Y-96395237D02*
X197035771Y-96490475D01*
X197035771Y-96490475D02*
X196988152Y-96538094D01*
X196988152Y-96538094D02*
X196892914Y-96585713D01*
X196892914Y-96585713D02*
X196845295Y-96585713D01*
X196845295Y-96585713D02*
X196750057Y-96538094D01*
X196750057Y-96538094D02*
X196702438Y-96490475D01*
X196702438Y-96490475D02*
X196654819Y-96395237D01*
X196654819Y-96395237D02*
X196654819Y-96204761D01*
X196654819Y-96204761D02*
X196702438Y-96109523D01*
X196702438Y-96109523D02*
X196750057Y-96061904D01*
X196750057Y-96061904D02*
X196845295Y-96014285D01*
X196845295Y-96014285D02*
X196892914Y-96014285D01*
X196892914Y-96014285D02*
X196988152Y-96061904D01*
X196988152Y-96061904D02*
X197035771Y-96109523D01*
X197035771Y-96109523D02*
X197083390Y-96204761D01*
X197083390Y-96204761D02*
X197083390Y-96395237D01*
X197083390Y-96395237D02*
X197131009Y-96490475D01*
X197131009Y-96490475D02*
X197178628Y-96538094D01*
X197178628Y-96538094D02*
X197273866Y-96585713D01*
X197273866Y-96585713D02*
X197464342Y-96585713D01*
X197464342Y-96585713D02*
X197559580Y-96538094D01*
X197559580Y-96538094D02*
X197607200Y-96490475D01*
X197607200Y-96490475D02*
X197654819Y-96395237D01*
X197654819Y-96395237D02*
X197654819Y-96204761D01*
X197654819Y-96204761D02*
X197607200Y-96109523D01*
X197607200Y-96109523D02*
X197559580Y-96061904D01*
X197559580Y-96061904D02*
X197464342Y-96014285D01*
X197464342Y-96014285D02*
X197273866Y-96014285D01*
X197273866Y-96014285D02*
X197178628Y-96061904D01*
X197178628Y-96061904D02*
X197131009Y-96109523D01*
X197131009Y-96109523D02*
X197083390Y-96204761D01*
X202854819Y-96996666D02*
X202378628Y-97329999D01*
X202854819Y-97568094D02*
X201854819Y-97568094D01*
X201854819Y-97568094D02*
X201854819Y-97187142D01*
X201854819Y-97187142D02*
X201902438Y-97091904D01*
X201902438Y-97091904D02*
X201950057Y-97044285D01*
X201950057Y-97044285D02*
X202045295Y-96996666D01*
X202045295Y-96996666D02*
X202188152Y-96996666D01*
X202188152Y-96996666D02*
X202283390Y-97044285D01*
X202283390Y-97044285D02*
X202331009Y-97091904D01*
X202331009Y-97091904D02*
X202378628Y-97187142D01*
X202378628Y-97187142D02*
X202378628Y-97568094D01*
X201854819Y-96663332D02*
X201854819Y-95996666D01*
X201854819Y-95996666D02*
X202854819Y-96425237D01*
X180838095Y-52054819D02*
X180838095Y-52864342D01*
X180838095Y-52864342D02*
X180885714Y-52959580D01*
X180885714Y-52959580D02*
X180933333Y-53007200D01*
X180933333Y-53007200D02*
X181028571Y-53054819D01*
X181028571Y-53054819D02*
X181219047Y-53054819D01*
X181219047Y-53054819D02*
X181314285Y-53007200D01*
X181314285Y-53007200D02*
X181361904Y-52959580D01*
X181361904Y-52959580D02*
X181409523Y-52864342D01*
X181409523Y-52864342D02*
X181409523Y-52054819D01*
X181790476Y-52054819D02*
X182409523Y-52054819D01*
X182409523Y-52054819D02*
X182076190Y-52435771D01*
X182076190Y-52435771D02*
X182219047Y-52435771D01*
X182219047Y-52435771D02*
X182314285Y-52483390D01*
X182314285Y-52483390D02*
X182361904Y-52531009D01*
X182361904Y-52531009D02*
X182409523Y-52626247D01*
X182409523Y-52626247D02*
X182409523Y-52864342D01*
X182409523Y-52864342D02*
X182361904Y-52959580D01*
X182361904Y-52959580D02*
X182314285Y-53007200D01*
X182314285Y-53007200D02*
X182219047Y-53054819D01*
X182219047Y-53054819D02*
X181933333Y-53054819D01*
X181933333Y-53054819D02*
X181838095Y-53007200D01*
X181838095Y-53007200D02*
X181790476Y-52959580D01*
X180997329Y-91287946D02*
X180997329Y-90954613D01*
X181521139Y-90811756D02*
X181521139Y-91287946D01*
X181521139Y-91287946D02*
X180521139Y-91287946D01*
X180521139Y-91287946D02*
X180521139Y-90811756D01*
X181473520Y-90430803D02*
X181521139Y-90287946D01*
X181521139Y-90287946D02*
X181521139Y-90049851D01*
X181521139Y-90049851D02*
X181473520Y-89954613D01*
X181473520Y-89954613D02*
X181425900Y-89906994D01*
X181425900Y-89906994D02*
X181330662Y-89859375D01*
X181330662Y-89859375D02*
X181235424Y-89859375D01*
X181235424Y-89859375D02*
X181140186Y-89906994D01*
X181140186Y-89906994D02*
X181092567Y-89954613D01*
X181092567Y-89954613D02*
X181044948Y-90049851D01*
X181044948Y-90049851D02*
X180997329Y-90240327D01*
X180997329Y-90240327D02*
X180949710Y-90335565D01*
X180949710Y-90335565D02*
X180902091Y-90383184D01*
X180902091Y-90383184D02*
X180806853Y-90430803D01*
X180806853Y-90430803D02*
X180711615Y-90430803D01*
X180711615Y-90430803D02*
X180616377Y-90383184D01*
X180616377Y-90383184D02*
X180568758Y-90335565D01*
X180568758Y-90335565D02*
X180521139Y-90240327D01*
X180521139Y-90240327D02*
X180521139Y-90002232D01*
X180521139Y-90002232D02*
X180568758Y-89859375D01*
X181521139Y-89430803D02*
X180521139Y-89430803D01*
X180521139Y-89430803D02*
X180521139Y-89049851D01*
X180521139Y-89049851D02*
X180568758Y-88954613D01*
X180568758Y-88954613D02*
X180616377Y-88906994D01*
X180616377Y-88906994D02*
X180711615Y-88859375D01*
X180711615Y-88859375D02*
X180854472Y-88859375D01*
X180854472Y-88859375D02*
X180949710Y-88906994D01*
X180949710Y-88906994D02*
X180997329Y-88954613D01*
X180997329Y-88954613D02*
X181044948Y-89049851D01*
X181044948Y-89049851D02*
X181044948Y-89430803D01*
X180521139Y-88526041D02*
X180521139Y-87906994D01*
X180521139Y-87906994D02*
X180902091Y-88240327D01*
X180902091Y-88240327D02*
X180902091Y-88097470D01*
X180902091Y-88097470D02*
X180949710Y-88002232D01*
X180949710Y-88002232D02*
X180997329Y-87954613D01*
X180997329Y-87954613D02*
X181092567Y-87906994D01*
X181092567Y-87906994D02*
X181330662Y-87906994D01*
X181330662Y-87906994D02*
X181425900Y-87954613D01*
X181425900Y-87954613D02*
X181473520Y-88002232D01*
X181473520Y-88002232D02*
X181521139Y-88097470D01*
X181521139Y-88097470D02*
X181521139Y-88383184D01*
X181521139Y-88383184D02*
X181473520Y-88478422D01*
X181473520Y-88478422D02*
X181425900Y-88526041D01*
X180616377Y-87526041D02*
X180568758Y-87478422D01*
X180568758Y-87478422D02*
X180521139Y-87383184D01*
X180521139Y-87383184D02*
X180521139Y-87145089D01*
X180521139Y-87145089D02*
X180568758Y-87049851D01*
X180568758Y-87049851D02*
X180616377Y-87002232D01*
X180616377Y-87002232D02*
X180711615Y-86954613D01*
X180711615Y-86954613D02*
X180806853Y-86954613D01*
X180806853Y-86954613D02*
X180949710Y-87002232D01*
X180949710Y-87002232D02*
X181521139Y-87573660D01*
X181521139Y-87573660D02*
X181521139Y-86954613D01*
X181140186Y-86526041D02*
X181140186Y-85764137D01*
X181473520Y-85335565D02*
X181521139Y-85192708D01*
X181521139Y-85192708D02*
X181521139Y-84954613D01*
X181521139Y-84954613D02*
X181473520Y-84859375D01*
X181473520Y-84859375D02*
X181425900Y-84811756D01*
X181425900Y-84811756D02*
X181330662Y-84764137D01*
X181330662Y-84764137D02*
X181235424Y-84764137D01*
X181235424Y-84764137D02*
X181140186Y-84811756D01*
X181140186Y-84811756D02*
X181092567Y-84859375D01*
X181092567Y-84859375D02*
X181044948Y-84954613D01*
X181044948Y-84954613D02*
X180997329Y-85145089D01*
X180997329Y-85145089D02*
X180949710Y-85240327D01*
X180949710Y-85240327D02*
X180902091Y-85287946D01*
X180902091Y-85287946D02*
X180806853Y-85335565D01*
X180806853Y-85335565D02*
X180711615Y-85335565D01*
X180711615Y-85335565D02*
X180616377Y-85287946D01*
X180616377Y-85287946D02*
X180568758Y-85240327D01*
X180568758Y-85240327D02*
X180521139Y-85145089D01*
X180521139Y-85145089D02*
X180521139Y-84906994D01*
X180521139Y-84906994D02*
X180568758Y-84764137D01*
X180521139Y-84430803D02*
X180521139Y-83811756D01*
X180521139Y-83811756D02*
X180902091Y-84145089D01*
X180902091Y-84145089D02*
X180902091Y-84002232D01*
X180902091Y-84002232D02*
X180949710Y-83906994D01*
X180949710Y-83906994D02*
X180997329Y-83859375D01*
X180997329Y-83859375D02*
X181092567Y-83811756D01*
X181092567Y-83811756D02*
X181330662Y-83811756D01*
X181330662Y-83811756D02*
X181425900Y-83859375D01*
X181425900Y-83859375D02*
X181473520Y-83906994D01*
X181473520Y-83906994D02*
X181521139Y-84002232D01*
X181521139Y-84002232D02*
X181521139Y-84287946D01*
X181521139Y-84287946D02*
X181473520Y-84383184D01*
X181473520Y-84383184D02*
X181425900Y-84430803D01*
X181140186Y-83383184D02*
X181140186Y-82621280D01*
X181521139Y-82145089D02*
X180521139Y-82145089D01*
X180521139Y-82145089D02*
X180521139Y-81906994D01*
X180521139Y-81906994D02*
X180568758Y-81764137D01*
X180568758Y-81764137D02*
X180663996Y-81668899D01*
X180663996Y-81668899D02*
X180759234Y-81621280D01*
X180759234Y-81621280D02*
X180949710Y-81573661D01*
X180949710Y-81573661D02*
X181092567Y-81573661D01*
X181092567Y-81573661D02*
X181283043Y-81621280D01*
X181283043Y-81621280D02*
X181378281Y-81668899D01*
X181378281Y-81668899D02*
X181473520Y-81764137D01*
X181473520Y-81764137D02*
X181521139Y-81906994D01*
X181521139Y-81906994D02*
X181521139Y-82145089D01*
X181473520Y-80764137D02*
X181521139Y-80859375D01*
X181521139Y-80859375D02*
X181521139Y-81049851D01*
X181521139Y-81049851D02*
X181473520Y-81145089D01*
X181473520Y-81145089D02*
X181378281Y-81192708D01*
X181378281Y-81192708D02*
X180997329Y-81192708D01*
X180997329Y-81192708D02*
X180902091Y-81145089D01*
X180902091Y-81145089D02*
X180854472Y-81049851D01*
X180854472Y-81049851D02*
X180854472Y-80859375D01*
X180854472Y-80859375D02*
X180902091Y-80764137D01*
X180902091Y-80764137D02*
X180997329Y-80716518D01*
X180997329Y-80716518D02*
X181092567Y-80716518D01*
X181092567Y-80716518D02*
X181187805Y-81192708D01*
X180854472Y-80383184D02*
X181521139Y-80145089D01*
X181521139Y-80145089D02*
X180854472Y-79906994D01*
X181521139Y-79526041D02*
X180521139Y-79526041D01*
X181521139Y-78954613D02*
X180949710Y-79383184D01*
X180521139Y-78954613D02*
X181092567Y-79526041D01*
X181521139Y-78526041D02*
X180854472Y-78526041D01*
X180521139Y-78526041D02*
X180568758Y-78573660D01*
X180568758Y-78573660D02*
X180616377Y-78526041D01*
X180616377Y-78526041D02*
X180568758Y-78478422D01*
X180568758Y-78478422D02*
X180521139Y-78526041D01*
X180521139Y-78526041D02*
X180616377Y-78526041D01*
X180854472Y-78192708D02*
X180854472Y-77811756D01*
X180521139Y-78049851D02*
X181378281Y-78049851D01*
X181378281Y-78049851D02*
X181473520Y-78002232D01*
X181473520Y-78002232D02*
X181521139Y-77906994D01*
X181521139Y-77906994D02*
X181521139Y-77811756D01*
X181425900Y-76906994D02*
X181473520Y-76954613D01*
X181473520Y-76954613D02*
X181521139Y-77097470D01*
X181521139Y-77097470D02*
X181521139Y-77192708D01*
X181521139Y-77192708D02*
X181473520Y-77335565D01*
X181473520Y-77335565D02*
X181378281Y-77430803D01*
X181378281Y-77430803D02*
X181283043Y-77478422D01*
X181283043Y-77478422D02*
X181092567Y-77526041D01*
X181092567Y-77526041D02*
X180949710Y-77526041D01*
X180949710Y-77526041D02*
X180759234Y-77478422D01*
X180759234Y-77478422D02*
X180663996Y-77430803D01*
X180663996Y-77430803D02*
X180568758Y-77335565D01*
X180568758Y-77335565D02*
X180521139Y-77192708D01*
X180521139Y-77192708D02*
X180521139Y-77097470D01*
X180521139Y-77097470D02*
X180568758Y-76954613D01*
X180568758Y-76954613D02*
X180616377Y-76906994D01*
X171151541Y-54114819D02*
X171770588Y-54114819D01*
X171770588Y-54114819D02*
X171437255Y-54495771D01*
X171437255Y-54495771D02*
X171580112Y-54495771D01*
X171580112Y-54495771D02*
X171675350Y-54543390D01*
X171675350Y-54543390D02*
X171722969Y-54591009D01*
X171722969Y-54591009D02*
X171770588Y-54686247D01*
X171770588Y-54686247D02*
X171770588Y-54924342D01*
X171770588Y-54924342D02*
X171722969Y-55019580D01*
X171722969Y-55019580D02*
X171675350Y-55067200D01*
X171675350Y-55067200D02*
X171580112Y-55114819D01*
X171580112Y-55114819D02*
X171294398Y-55114819D01*
X171294398Y-55114819D02*
X171199160Y-55067200D01*
X171199160Y-55067200D02*
X171151541Y-55019580D01*
X172056303Y-54114819D02*
X172389636Y-55114819D01*
X172389636Y-55114819D02*
X172722969Y-54114819D01*
X172961065Y-54114819D02*
X173580112Y-54114819D01*
X173580112Y-54114819D02*
X173246779Y-54495771D01*
X173246779Y-54495771D02*
X173389636Y-54495771D01*
X173389636Y-54495771D02*
X173484874Y-54543390D01*
X173484874Y-54543390D02*
X173532493Y-54591009D01*
X173532493Y-54591009D02*
X173580112Y-54686247D01*
X173580112Y-54686247D02*
X173580112Y-54924342D01*
X173580112Y-54924342D02*
X173532493Y-55019580D01*
X173532493Y-55019580D02*
X173484874Y-55067200D01*
X173484874Y-55067200D02*
X173389636Y-55114819D01*
X173389636Y-55114819D02*
X173103922Y-55114819D01*
X173103922Y-55114819D02*
X173008684Y-55067200D01*
X173008684Y-55067200D02*
X172961065Y-55019580D01*
X171151541Y-56654819D02*
X171770588Y-56654819D01*
X171770588Y-56654819D02*
X171437255Y-57035771D01*
X171437255Y-57035771D02*
X171580112Y-57035771D01*
X171580112Y-57035771D02*
X171675350Y-57083390D01*
X171675350Y-57083390D02*
X171722969Y-57131009D01*
X171722969Y-57131009D02*
X171770588Y-57226247D01*
X171770588Y-57226247D02*
X171770588Y-57464342D01*
X171770588Y-57464342D02*
X171722969Y-57559580D01*
X171722969Y-57559580D02*
X171675350Y-57607200D01*
X171675350Y-57607200D02*
X171580112Y-57654819D01*
X171580112Y-57654819D02*
X171294398Y-57654819D01*
X171294398Y-57654819D02*
X171199160Y-57607200D01*
X171199160Y-57607200D02*
X171151541Y-57559580D01*
X172056303Y-56654819D02*
X172389636Y-57654819D01*
X172389636Y-57654819D02*
X172722969Y-56654819D01*
X172961065Y-56654819D02*
X173580112Y-56654819D01*
X173580112Y-56654819D02*
X173246779Y-57035771D01*
X173246779Y-57035771D02*
X173389636Y-57035771D01*
X173389636Y-57035771D02*
X173484874Y-57083390D01*
X173484874Y-57083390D02*
X173532493Y-57131009D01*
X173532493Y-57131009D02*
X173580112Y-57226247D01*
X173580112Y-57226247D02*
X173580112Y-57464342D01*
X173580112Y-57464342D02*
X173532493Y-57559580D01*
X173532493Y-57559580D02*
X173484874Y-57607200D01*
X173484874Y-57607200D02*
X173389636Y-57654819D01*
X173389636Y-57654819D02*
X173103922Y-57654819D01*
X173103922Y-57654819D02*
X173008684Y-57607200D01*
X173008684Y-57607200D02*
X172961065Y-57559580D01*
X171770588Y-61782438D02*
X171675350Y-61734819D01*
X171675350Y-61734819D02*
X171532493Y-61734819D01*
X171532493Y-61734819D02*
X171389636Y-61782438D01*
X171389636Y-61782438D02*
X171294398Y-61877676D01*
X171294398Y-61877676D02*
X171246779Y-61972914D01*
X171246779Y-61972914D02*
X171199160Y-62163390D01*
X171199160Y-62163390D02*
X171199160Y-62306247D01*
X171199160Y-62306247D02*
X171246779Y-62496723D01*
X171246779Y-62496723D02*
X171294398Y-62591961D01*
X171294398Y-62591961D02*
X171389636Y-62687200D01*
X171389636Y-62687200D02*
X171532493Y-62734819D01*
X171532493Y-62734819D02*
X171627731Y-62734819D01*
X171627731Y-62734819D02*
X171770588Y-62687200D01*
X171770588Y-62687200D02*
X171818207Y-62639580D01*
X171818207Y-62639580D02*
X171818207Y-62306247D01*
X171818207Y-62306247D02*
X171627731Y-62306247D01*
X172246779Y-62734819D02*
X172246779Y-61734819D01*
X172246779Y-61734819D02*
X172627731Y-61734819D01*
X172627731Y-61734819D02*
X172722969Y-61782438D01*
X172722969Y-61782438D02*
X172770588Y-61830057D01*
X172770588Y-61830057D02*
X172818207Y-61925295D01*
X172818207Y-61925295D02*
X172818207Y-62068152D01*
X172818207Y-62068152D02*
X172770588Y-62163390D01*
X172770588Y-62163390D02*
X172722969Y-62211009D01*
X172722969Y-62211009D02*
X172627731Y-62258628D01*
X172627731Y-62258628D02*
X172246779Y-62258628D01*
X173246779Y-62734819D02*
X173246779Y-61734819D01*
X173913445Y-61734819D02*
X174103921Y-61734819D01*
X174103921Y-61734819D02*
X174199159Y-61782438D01*
X174199159Y-61782438D02*
X174294397Y-61877676D01*
X174294397Y-61877676D02*
X174342016Y-62068152D01*
X174342016Y-62068152D02*
X174342016Y-62401485D01*
X174342016Y-62401485D02*
X174294397Y-62591961D01*
X174294397Y-62591961D02*
X174199159Y-62687200D01*
X174199159Y-62687200D02*
X174103921Y-62734819D01*
X174103921Y-62734819D02*
X173913445Y-62734819D01*
X173913445Y-62734819D02*
X173818207Y-62687200D01*
X173818207Y-62687200D02*
X173722969Y-62591961D01*
X173722969Y-62591961D02*
X173675350Y-62401485D01*
X173675350Y-62401485D02*
X173675350Y-62068152D01*
X173675350Y-62068152D02*
X173722969Y-61877676D01*
X173722969Y-61877676D02*
X173818207Y-61782438D01*
X173818207Y-61782438D02*
X173913445Y-61734819D01*
X175199159Y-62068152D02*
X175199159Y-62734819D01*
X174961064Y-61687200D02*
X174722969Y-62401485D01*
X174722969Y-62401485D02*
X175342016Y-62401485D01*
X171770588Y-64322438D02*
X171675350Y-64274819D01*
X171675350Y-64274819D02*
X171532493Y-64274819D01*
X171532493Y-64274819D02*
X171389636Y-64322438D01*
X171389636Y-64322438D02*
X171294398Y-64417676D01*
X171294398Y-64417676D02*
X171246779Y-64512914D01*
X171246779Y-64512914D02*
X171199160Y-64703390D01*
X171199160Y-64703390D02*
X171199160Y-64846247D01*
X171199160Y-64846247D02*
X171246779Y-65036723D01*
X171246779Y-65036723D02*
X171294398Y-65131961D01*
X171294398Y-65131961D02*
X171389636Y-65227200D01*
X171389636Y-65227200D02*
X171532493Y-65274819D01*
X171532493Y-65274819D02*
X171627731Y-65274819D01*
X171627731Y-65274819D02*
X171770588Y-65227200D01*
X171770588Y-65227200D02*
X171818207Y-65179580D01*
X171818207Y-65179580D02*
X171818207Y-64846247D01*
X171818207Y-64846247D02*
X171627731Y-64846247D01*
X172246779Y-65274819D02*
X172246779Y-64274819D01*
X172246779Y-64274819D02*
X172627731Y-64274819D01*
X172627731Y-64274819D02*
X172722969Y-64322438D01*
X172722969Y-64322438D02*
X172770588Y-64370057D01*
X172770588Y-64370057D02*
X172818207Y-64465295D01*
X172818207Y-64465295D02*
X172818207Y-64608152D01*
X172818207Y-64608152D02*
X172770588Y-64703390D01*
X172770588Y-64703390D02*
X172722969Y-64751009D01*
X172722969Y-64751009D02*
X172627731Y-64798628D01*
X172627731Y-64798628D02*
X172246779Y-64798628D01*
X173246779Y-65274819D02*
X173246779Y-64274819D01*
X173913445Y-64274819D02*
X174103921Y-64274819D01*
X174103921Y-64274819D02*
X174199159Y-64322438D01*
X174199159Y-64322438D02*
X174294397Y-64417676D01*
X174294397Y-64417676D02*
X174342016Y-64608152D01*
X174342016Y-64608152D02*
X174342016Y-64941485D01*
X174342016Y-64941485D02*
X174294397Y-65131961D01*
X174294397Y-65131961D02*
X174199159Y-65227200D01*
X174199159Y-65227200D02*
X174103921Y-65274819D01*
X174103921Y-65274819D02*
X173913445Y-65274819D01*
X173913445Y-65274819D02*
X173818207Y-65227200D01*
X173818207Y-65227200D02*
X173722969Y-65131961D01*
X173722969Y-65131961D02*
X173675350Y-64941485D01*
X173675350Y-64941485D02*
X173675350Y-64608152D01*
X173675350Y-64608152D02*
X173722969Y-64417676D01*
X173722969Y-64417676D02*
X173818207Y-64322438D01*
X173818207Y-64322438D02*
X173913445Y-64274819D01*
X175246778Y-64274819D02*
X174770588Y-64274819D01*
X174770588Y-64274819D02*
X174722969Y-64751009D01*
X174722969Y-64751009D02*
X174770588Y-64703390D01*
X174770588Y-64703390D02*
X174865826Y-64655771D01*
X174865826Y-64655771D02*
X175103921Y-64655771D01*
X175103921Y-64655771D02*
X175199159Y-64703390D01*
X175199159Y-64703390D02*
X175246778Y-64751009D01*
X175246778Y-64751009D02*
X175294397Y-64846247D01*
X175294397Y-64846247D02*
X175294397Y-65084342D01*
X175294397Y-65084342D02*
X175246778Y-65179580D01*
X175246778Y-65179580D02*
X175199159Y-65227200D01*
X175199159Y-65227200D02*
X175103921Y-65274819D01*
X175103921Y-65274819D02*
X174865826Y-65274819D01*
X174865826Y-65274819D02*
X174770588Y-65227200D01*
X174770588Y-65227200D02*
X174722969Y-65179580D01*
X171770588Y-66862438D02*
X171675350Y-66814819D01*
X171675350Y-66814819D02*
X171532493Y-66814819D01*
X171532493Y-66814819D02*
X171389636Y-66862438D01*
X171389636Y-66862438D02*
X171294398Y-66957676D01*
X171294398Y-66957676D02*
X171246779Y-67052914D01*
X171246779Y-67052914D02*
X171199160Y-67243390D01*
X171199160Y-67243390D02*
X171199160Y-67386247D01*
X171199160Y-67386247D02*
X171246779Y-67576723D01*
X171246779Y-67576723D02*
X171294398Y-67671961D01*
X171294398Y-67671961D02*
X171389636Y-67767200D01*
X171389636Y-67767200D02*
X171532493Y-67814819D01*
X171532493Y-67814819D02*
X171627731Y-67814819D01*
X171627731Y-67814819D02*
X171770588Y-67767200D01*
X171770588Y-67767200D02*
X171818207Y-67719580D01*
X171818207Y-67719580D02*
X171818207Y-67386247D01*
X171818207Y-67386247D02*
X171627731Y-67386247D01*
X172246779Y-67814819D02*
X172246779Y-66814819D01*
X172246779Y-66814819D02*
X172627731Y-66814819D01*
X172627731Y-66814819D02*
X172722969Y-66862438D01*
X172722969Y-66862438D02*
X172770588Y-66910057D01*
X172770588Y-66910057D02*
X172818207Y-67005295D01*
X172818207Y-67005295D02*
X172818207Y-67148152D01*
X172818207Y-67148152D02*
X172770588Y-67243390D01*
X172770588Y-67243390D02*
X172722969Y-67291009D01*
X172722969Y-67291009D02*
X172627731Y-67338628D01*
X172627731Y-67338628D02*
X172246779Y-67338628D01*
X173246779Y-67814819D02*
X173246779Y-66814819D01*
X173913445Y-66814819D02*
X174103921Y-66814819D01*
X174103921Y-66814819D02*
X174199159Y-66862438D01*
X174199159Y-66862438D02*
X174294397Y-66957676D01*
X174294397Y-66957676D02*
X174342016Y-67148152D01*
X174342016Y-67148152D02*
X174342016Y-67481485D01*
X174342016Y-67481485D02*
X174294397Y-67671961D01*
X174294397Y-67671961D02*
X174199159Y-67767200D01*
X174199159Y-67767200D02*
X174103921Y-67814819D01*
X174103921Y-67814819D02*
X173913445Y-67814819D01*
X173913445Y-67814819D02*
X173818207Y-67767200D01*
X173818207Y-67767200D02*
X173722969Y-67671961D01*
X173722969Y-67671961D02*
X173675350Y-67481485D01*
X173675350Y-67481485D02*
X173675350Y-67148152D01*
X173675350Y-67148152D02*
X173722969Y-66957676D01*
X173722969Y-66957676D02*
X173818207Y-66862438D01*
X173818207Y-66862438D02*
X173913445Y-66814819D01*
X175199159Y-66814819D02*
X175008683Y-66814819D01*
X175008683Y-66814819D02*
X174913445Y-66862438D01*
X174913445Y-66862438D02*
X174865826Y-66910057D01*
X174865826Y-66910057D02*
X174770588Y-67052914D01*
X174770588Y-67052914D02*
X174722969Y-67243390D01*
X174722969Y-67243390D02*
X174722969Y-67624342D01*
X174722969Y-67624342D02*
X174770588Y-67719580D01*
X174770588Y-67719580D02*
X174818207Y-67767200D01*
X174818207Y-67767200D02*
X174913445Y-67814819D01*
X174913445Y-67814819D02*
X175103921Y-67814819D01*
X175103921Y-67814819D02*
X175199159Y-67767200D01*
X175199159Y-67767200D02*
X175246778Y-67719580D01*
X175246778Y-67719580D02*
X175294397Y-67624342D01*
X175294397Y-67624342D02*
X175294397Y-67386247D01*
X175294397Y-67386247D02*
X175246778Y-67291009D01*
X175246778Y-67291009D02*
X175199159Y-67243390D01*
X175199159Y-67243390D02*
X175103921Y-67195771D01*
X175103921Y-67195771D02*
X174913445Y-67195771D01*
X174913445Y-67195771D02*
X174818207Y-67243390D01*
X174818207Y-67243390D02*
X174770588Y-67291009D01*
X174770588Y-67291009D02*
X174722969Y-67386247D01*
X171770588Y-69402438D02*
X171675350Y-69354819D01*
X171675350Y-69354819D02*
X171532493Y-69354819D01*
X171532493Y-69354819D02*
X171389636Y-69402438D01*
X171389636Y-69402438D02*
X171294398Y-69497676D01*
X171294398Y-69497676D02*
X171246779Y-69592914D01*
X171246779Y-69592914D02*
X171199160Y-69783390D01*
X171199160Y-69783390D02*
X171199160Y-69926247D01*
X171199160Y-69926247D02*
X171246779Y-70116723D01*
X171246779Y-70116723D02*
X171294398Y-70211961D01*
X171294398Y-70211961D02*
X171389636Y-70307200D01*
X171389636Y-70307200D02*
X171532493Y-70354819D01*
X171532493Y-70354819D02*
X171627731Y-70354819D01*
X171627731Y-70354819D02*
X171770588Y-70307200D01*
X171770588Y-70307200D02*
X171818207Y-70259580D01*
X171818207Y-70259580D02*
X171818207Y-69926247D01*
X171818207Y-69926247D02*
X171627731Y-69926247D01*
X172246779Y-70354819D02*
X172246779Y-69354819D01*
X172246779Y-69354819D02*
X172627731Y-69354819D01*
X172627731Y-69354819D02*
X172722969Y-69402438D01*
X172722969Y-69402438D02*
X172770588Y-69450057D01*
X172770588Y-69450057D02*
X172818207Y-69545295D01*
X172818207Y-69545295D02*
X172818207Y-69688152D01*
X172818207Y-69688152D02*
X172770588Y-69783390D01*
X172770588Y-69783390D02*
X172722969Y-69831009D01*
X172722969Y-69831009D02*
X172627731Y-69878628D01*
X172627731Y-69878628D02*
X172246779Y-69878628D01*
X173246779Y-70354819D02*
X173246779Y-69354819D01*
X173913445Y-69354819D02*
X174103921Y-69354819D01*
X174103921Y-69354819D02*
X174199159Y-69402438D01*
X174199159Y-69402438D02*
X174294397Y-69497676D01*
X174294397Y-69497676D02*
X174342016Y-69688152D01*
X174342016Y-69688152D02*
X174342016Y-70021485D01*
X174342016Y-70021485D02*
X174294397Y-70211961D01*
X174294397Y-70211961D02*
X174199159Y-70307200D01*
X174199159Y-70307200D02*
X174103921Y-70354819D01*
X174103921Y-70354819D02*
X173913445Y-70354819D01*
X173913445Y-70354819D02*
X173818207Y-70307200D01*
X173818207Y-70307200D02*
X173722969Y-70211961D01*
X173722969Y-70211961D02*
X173675350Y-70021485D01*
X173675350Y-70021485D02*
X173675350Y-69688152D01*
X173675350Y-69688152D02*
X173722969Y-69497676D01*
X173722969Y-69497676D02*
X173818207Y-69402438D01*
X173818207Y-69402438D02*
X173913445Y-69354819D01*
X174675350Y-69354819D02*
X175342016Y-69354819D01*
X175342016Y-69354819D02*
X174913445Y-70354819D01*
X171770588Y-71942438D02*
X171675350Y-71894819D01*
X171675350Y-71894819D02*
X171532493Y-71894819D01*
X171532493Y-71894819D02*
X171389636Y-71942438D01*
X171389636Y-71942438D02*
X171294398Y-72037676D01*
X171294398Y-72037676D02*
X171246779Y-72132914D01*
X171246779Y-72132914D02*
X171199160Y-72323390D01*
X171199160Y-72323390D02*
X171199160Y-72466247D01*
X171199160Y-72466247D02*
X171246779Y-72656723D01*
X171246779Y-72656723D02*
X171294398Y-72751961D01*
X171294398Y-72751961D02*
X171389636Y-72847200D01*
X171389636Y-72847200D02*
X171532493Y-72894819D01*
X171532493Y-72894819D02*
X171627731Y-72894819D01*
X171627731Y-72894819D02*
X171770588Y-72847200D01*
X171770588Y-72847200D02*
X171818207Y-72799580D01*
X171818207Y-72799580D02*
X171818207Y-72466247D01*
X171818207Y-72466247D02*
X171627731Y-72466247D01*
X172246779Y-72894819D02*
X172246779Y-71894819D01*
X172246779Y-71894819D02*
X172627731Y-71894819D01*
X172627731Y-71894819D02*
X172722969Y-71942438D01*
X172722969Y-71942438D02*
X172770588Y-71990057D01*
X172770588Y-71990057D02*
X172818207Y-72085295D01*
X172818207Y-72085295D02*
X172818207Y-72228152D01*
X172818207Y-72228152D02*
X172770588Y-72323390D01*
X172770588Y-72323390D02*
X172722969Y-72371009D01*
X172722969Y-72371009D02*
X172627731Y-72418628D01*
X172627731Y-72418628D02*
X172246779Y-72418628D01*
X173246779Y-72894819D02*
X173246779Y-71894819D01*
X173913445Y-71894819D02*
X174103921Y-71894819D01*
X174103921Y-71894819D02*
X174199159Y-71942438D01*
X174199159Y-71942438D02*
X174294397Y-72037676D01*
X174294397Y-72037676D02*
X174342016Y-72228152D01*
X174342016Y-72228152D02*
X174342016Y-72561485D01*
X174342016Y-72561485D02*
X174294397Y-72751961D01*
X174294397Y-72751961D02*
X174199159Y-72847200D01*
X174199159Y-72847200D02*
X174103921Y-72894819D01*
X174103921Y-72894819D02*
X173913445Y-72894819D01*
X173913445Y-72894819D02*
X173818207Y-72847200D01*
X173818207Y-72847200D02*
X173722969Y-72751961D01*
X173722969Y-72751961D02*
X173675350Y-72561485D01*
X173675350Y-72561485D02*
X173675350Y-72228152D01*
X173675350Y-72228152D02*
X173722969Y-72037676D01*
X173722969Y-72037676D02*
X173818207Y-71942438D01*
X173818207Y-71942438D02*
X173913445Y-71894819D01*
X175294397Y-72894819D02*
X174722969Y-72894819D01*
X175008683Y-72894819D02*
X175008683Y-71894819D01*
X175008683Y-71894819D02*
X174913445Y-72037676D01*
X174913445Y-72037676D02*
X174818207Y-72132914D01*
X174818207Y-72132914D02*
X174722969Y-72180533D01*
X176199159Y-71894819D02*
X175722969Y-71894819D01*
X175722969Y-71894819D02*
X175675350Y-72371009D01*
X175675350Y-72371009D02*
X175722969Y-72323390D01*
X175722969Y-72323390D02*
X175818207Y-72275771D01*
X175818207Y-72275771D02*
X176056302Y-72275771D01*
X176056302Y-72275771D02*
X176151540Y-72323390D01*
X176151540Y-72323390D02*
X176199159Y-72371009D01*
X176199159Y-72371009D02*
X176246778Y-72466247D01*
X176246778Y-72466247D02*
X176246778Y-72704342D01*
X176246778Y-72704342D02*
X176199159Y-72799580D01*
X176199159Y-72799580D02*
X176151540Y-72847200D01*
X176151540Y-72847200D02*
X176056302Y-72894819D01*
X176056302Y-72894819D02*
X175818207Y-72894819D01*
X175818207Y-72894819D02*
X175722969Y-72847200D01*
X175722969Y-72847200D02*
X175675350Y-72799580D01*
X171770588Y-74482438D02*
X171675350Y-74434819D01*
X171675350Y-74434819D02*
X171532493Y-74434819D01*
X171532493Y-74434819D02*
X171389636Y-74482438D01*
X171389636Y-74482438D02*
X171294398Y-74577676D01*
X171294398Y-74577676D02*
X171246779Y-74672914D01*
X171246779Y-74672914D02*
X171199160Y-74863390D01*
X171199160Y-74863390D02*
X171199160Y-75006247D01*
X171199160Y-75006247D02*
X171246779Y-75196723D01*
X171246779Y-75196723D02*
X171294398Y-75291961D01*
X171294398Y-75291961D02*
X171389636Y-75387200D01*
X171389636Y-75387200D02*
X171532493Y-75434819D01*
X171532493Y-75434819D02*
X171627731Y-75434819D01*
X171627731Y-75434819D02*
X171770588Y-75387200D01*
X171770588Y-75387200D02*
X171818207Y-75339580D01*
X171818207Y-75339580D02*
X171818207Y-75006247D01*
X171818207Y-75006247D02*
X171627731Y-75006247D01*
X172246779Y-75434819D02*
X172246779Y-74434819D01*
X172246779Y-74434819D02*
X172627731Y-74434819D01*
X172627731Y-74434819D02*
X172722969Y-74482438D01*
X172722969Y-74482438D02*
X172770588Y-74530057D01*
X172770588Y-74530057D02*
X172818207Y-74625295D01*
X172818207Y-74625295D02*
X172818207Y-74768152D01*
X172818207Y-74768152D02*
X172770588Y-74863390D01*
X172770588Y-74863390D02*
X172722969Y-74911009D01*
X172722969Y-74911009D02*
X172627731Y-74958628D01*
X172627731Y-74958628D02*
X172246779Y-74958628D01*
X173246779Y-75434819D02*
X173246779Y-74434819D01*
X173913445Y-74434819D02*
X174103921Y-74434819D01*
X174103921Y-74434819D02*
X174199159Y-74482438D01*
X174199159Y-74482438D02*
X174294397Y-74577676D01*
X174294397Y-74577676D02*
X174342016Y-74768152D01*
X174342016Y-74768152D02*
X174342016Y-75101485D01*
X174342016Y-75101485D02*
X174294397Y-75291961D01*
X174294397Y-75291961D02*
X174199159Y-75387200D01*
X174199159Y-75387200D02*
X174103921Y-75434819D01*
X174103921Y-75434819D02*
X173913445Y-75434819D01*
X173913445Y-75434819D02*
X173818207Y-75387200D01*
X173818207Y-75387200D02*
X173722969Y-75291961D01*
X173722969Y-75291961D02*
X173675350Y-75101485D01*
X173675350Y-75101485D02*
X173675350Y-74768152D01*
X173675350Y-74768152D02*
X173722969Y-74577676D01*
X173722969Y-74577676D02*
X173818207Y-74482438D01*
X173818207Y-74482438D02*
X173913445Y-74434819D01*
X175294397Y-75434819D02*
X174722969Y-75434819D01*
X175008683Y-75434819D02*
X175008683Y-74434819D01*
X175008683Y-74434819D02*
X174913445Y-74577676D01*
X174913445Y-74577676D02*
X174818207Y-74672914D01*
X174818207Y-74672914D02*
X174722969Y-74720533D01*
X176151540Y-74434819D02*
X175961064Y-74434819D01*
X175961064Y-74434819D02*
X175865826Y-74482438D01*
X175865826Y-74482438D02*
X175818207Y-74530057D01*
X175818207Y-74530057D02*
X175722969Y-74672914D01*
X175722969Y-74672914D02*
X175675350Y-74863390D01*
X175675350Y-74863390D02*
X175675350Y-75244342D01*
X175675350Y-75244342D02*
X175722969Y-75339580D01*
X175722969Y-75339580D02*
X175770588Y-75387200D01*
X175770588Y-75387200D02*
X175865826Y-75434819D01*
X175865826Y-75434819D02*
X176056302Y-75434819D01*
X176056302Y-75434819D02*
X176151540Y-75387200D01*
X176151540Y-75387200D02*
X176199159Y-75339580D01*
X176199159Y-75339580D02*
X176246778Y-75244342D01*
X176246778Y-75244342D02*
X176246778Y-75006247D01*
X176246778Y-75006247D02*
X176199159Y-74911009D01*
X176199159Y-74911009D02*
X176151540Y-74863390D01*
X176151540Y-74863390D02*
X176056302Y-74815771D01*
X176056302Y-74815771D02*
X175865826Y-74815771D01*
X175865826Y-74815771D02*
X175770588Y-74863390D01*
X175770588Y-74863390D02*
X175722969Y-74911009D01*
X175722969Y-74911009D02*
X175675350Y-75006247D01*
X171770588Y-77022438D02*
X171675350Y-76974819D01*
X171675350Y-76974819D02*
X171532493Y-76974819D01*
X171532493Y-76974819D02*
X171389636Y-77022438D01*
X171389636Y-77022438D02*
X171294398Y-77117676D01*
X171294398Y-77117676D02*
X171246779Y-77212914D01*
X171246779Y-77212914D02*
X171199160Y-77403390D01*
X171199160Y-77403390D02*
X171199160Y-77546247D01*
X171199160Y-77546247D02*
X171246779Y-77736723D01*
X171246779Y-77736723D02*
X171294398Y-77831961D01*
X171294398Y-77831961D02*
X171389636Y-77927200D01*
X171389636Y-77927200D02*
X171532493Y-77974819D01*
X171532493Y-77974819D02*
X171627731Y-77974819D01*
X171627731Y-77974819D02*
X171770588Y-77927200D01*
X171770588Y-77927200D02*
X171818207Y-77879580D01*
X171818207Y-77879580D02*
X171818207Y-77546247D01*
X171818207Y-77546247D02*
X171627731Y-77546247D01*
X172246779Y-77974819D02*
X172246779Y-76974819D01*
X172246779Y-76974819D02*
X172627731Y-76974819D01*
X172627731Y-76974819D02*
X172722969Y-77022438D01*
X172722969Y-77022438D02*
X172770588Y-77070057D01*
X172770588Y-77070057D02*
X172818207Y-77165295D01*
X172818207Y-77165295D02*
X172818207Y-77308152D01*
X172818207Y-77308152D02*
X172770588Y-77403390D01*
X172770588Y-77403390D02*
X172722969Y-77451009D01*
X172722969Y-77451009D02*
X172627731Y-77498628D01*
X172627731Y-77498628D02*
X172246779Y-77498628D01*
X173246779Y-77974819D02*
X173246779Y-76974819D01*
X173913445Y-76974819D02*
X174103921Y-76974819D01*
X174103921Y-76974819D02*
X174199159Y-77022438D01*
X174199159Y-77022438D02*
X174294397Y-77117676D01*
X174294397Y-77117676D02*
X174342016Y-77308152D01*
X174342016Y-77308152D02*
X174342016Y-77641485D01*
X174342016Y-77641485D02*
X174294397Y-77831961D01*
X174294397Y-77831961D02*
X174199159Y-77927200D01*
X174199159Y-77927200D02*
X174103921Y-77974819D01*
X174103921Y-77974819D02*
X173913445Y-77974819D01*
X173913445Y-77974819D02*
X173818207Y-77927200D01*
X173818207Y-77927200D02*
X173722969Y-77831961D01*
X173722969Y-77831961D02*
X173675350Y-77641485D01*
X173675350Y-77641485D02*
X173675350Y-77308152D01*
X173675350Y-77308152D02*
X173722969Y-77117676D01*
X173722969Y-77117676D02*
X173818207Y-77022438D01*
X173818207Y-77022438D02*
X173913445Y-76974819D01*
X175294397Y-77974819D02*
X174722969Y-77974819D01*
X175008683Y-77974819D02*
X175008683Y-76974819D01*
X175008683Y-76974819D02*
X174913445Y-77117676D01*
X174913445Y-77117676D02*
X174818207Y-77212914D01*
X174818207Y-77212914D02*
X174722969Y-77260533D01*
X175627731Y-76974819D02*
X176294397Y-76974819D01*
X176294397Y-76974819D02*
X175865826Y-77974819D01*
X171770588Y-79562438D02*
X171675350Y-79514819D01*
X171675350Y-79514819D02*
X171532493Y-79514819D01*
X171532493Y-79514819D02*
X171389636Y-79562438D01*
X171389636Y-79562438D02*
X171294398Y-79657676D01*
X171294398Y-79657676D02*
X171246779Y-79752914D01*
X171246779Y-79752914D02*
X171199160Y-79943390D01*
X171199160Y-79943390D02*
X171199160Y-80086247D01*
X171199160Y-80086247D02*
X171246779Y-80276723D01*
X171246779Y-80276723D02*
X171294398Y-80371961D01*
X171294398Y-80371961D02*
X171389636Y-80467200D01*
X171389636Y-80467200D02*
X171532493Y-80514819D01*
X171532493Y-80514819D02*
X171627731Y-80514819D01*
X171627731Y-80514819D02*
X171770588Y-80467200D01*
X171770588Y-80467200D02*
X171818207Y-80419580D01*
X171818207Y-80419580D02*
X171818207Y-80086247D01*
X171818207Y-80086247D02*
X171627731Y-80086247D01*
X172246779Y-80514819D02*
X172246779Y-79514819D01*
X172246779Y-79514819D02*
X172627731Y-79514819D01*
X172627731Y-79514819D02*
X172722969Y-79562438D01*
X172722969Y-79562438D02*
X172770588Y-79610057D01*
X172770588Y-79610057D02*
X172818207Y-79705295D01*
X172818207Y-79705295D02*
X172818207Y-79848152D01*
X172818207Y-79848152D02*
X172770588Y-79943390D01*
X172770588Y-79943390D02*
X172722969Y-79991009D01*
X172722969Y-79991009D02*
X172627731Y-80038628D01*
X172627731Y-80038628D02*
X172246779Y-80038628D01*
X173246779Y-80514819D02*
X173246779Y-79514819D01*
X173913445Y-79514819D02*
X174103921Y-79514819D01*
X174103921Y-79514819D02*
X174199159Y-79562438D01*
X174199159Y-79562438D02*
X174294397Y-79657676D01*
X174294397Y-79657676D02*
X174342016Y-79848152D01*
X174342016Y-79848152D02*
X174342016Y-80181485D01*
X174342016Y-80181485D02*
X174294397Y-80371961D01*
X174294397Y-80371961D02*
X174199159Y-80467200D01*
X174199159Y-80467200D02*
X174103921Y-80514819D01*
X174103921Y-80514819D02*
X173913445Y-80514819D01*
X173913445Y-80514819D02*
X173818207Y-80467200D01*
X173818207Y-80467200D02*
X173722969Y-80371961D01*
X173722969Y-80371961D02*
X173675350Y-80181485D01*
X173675350Y-80181485D02*
X173675350Y-79848152D01*
X173675350Y-79848152D02*
X173722969Y-79657676D01*
X173722969Y-79657676D02*
X173818207Y-79562438D01*
X173818207Y-79562438D02*
X173913445Y-79514819D01*
X175294397Y-80514819D02*
X174722969Y-80514819D01*
X175008683Y-80514819D02*
X175008683Y-79514819D01*
X175008683Y-79514819D02*
X174913445Y-79657676D01*
X174913445Y-79657676D02*
X174818207Y-79752914D01*
X174818207Y-79752914D02*
X174722969Y-79800533D01*
X175865826Y-79943390D02*
X175770588Y-79895771D01*
X175770588Y-79895771D02*
X175722969Y-79848152D01*
X175722969Y-79848152D02*
X175675350Y-79752914D01*
X175675350Y-79752914D02*
X175675350Y-79705295D01*
X175675350Y-79705295D02*
X175722969Y-79610057D01*
X175722969Y-79610057D02*
X175770588Y-79562438D01*
X175770588Y-79562438D02*
X175865826Y-79514819D01*
X175865826Y-79514819D02*
X176056302Y-79514819D01*
X176056302Y-79514819D02*
X176151540Y-79562438D01*
X176151540Y-79562438D02*
X176199159Y-79610057D01*
X176199159Y-79610057D02*
X176246778Y-79705295D01*
X176246778Y-79705295D02*
X176246778Y-79752914D01*
X176246778Y-79752914D02*
X176199159Y-79848152D01*
X176199159Y-79848152D02*
X176151540Y-79895771D01*
X176151540Y-79895771D02*
X176056302Y-79943390D01*
X176056302Y-79943390D02*
X175865826Y-79943390D01*
X175865826Y-79943390D02*
X175770588Y-79991009D01*
X175770588Y-79991009D02*
X175722969Y-80038628D01*
X175722969Y-80038628D02*
X175675350Y-80133866D01*
X175675350Y-80133866D02*
X175675350Y-80324342D01*
X175675350Y-80324342D02*
X175722969Y-80419580D01*
X175722969Y-80419580D02*
X175770588Y-80467200D01*
X175770588Y-80467200D02*
X175865826Y-80514819D01*
X175865826Y-80514819D02*
X176056302Y-80514819D01*
X176056302Y-80514819D02*
X176151540Y-80467200D01*
X176151540Y-80467200D02*
X176199159Y-80419580D01*
X176199159Y-80419580D02*
X176246778Y-80324342D01*
X176246778Y-80324342D02*
X176246778Y-80133866D01*
X176246778Y-80133866D02*
X176199159Y-80038628D01*
X176199159Y-80038628D02*
X176151540Y-79991009D01*
X176151540Y-79991009D02*
X176056302Y-79943390D01*
X171770588Y-82102438D02*
X171675350Y-82054819D01*
X171675350Y-82054819D02*
X171532493Y-82054819D01*
X171532493Y-82054819D02*
X171389636Y-82102438D01*
X171389636Y-82102438D02*
X171294398Y-82197676D01*
X171294398Y-82197676D02*
X171246779Y-82292914D01*
X171246779Y-82292914D02*
X171199160Y-82483390D01*
X171199160Y-82483390D02*
X171199160Y-82626247D01*
X171199160Y-82626247D02*
X171246779Y-82816723D01*
X171246779Y-82816723D02*
X171294398Y-82911961D01*
X171294398Y-82911961D02*
X171389636Y-83007200D01*
X171389636Y-83007200D02*
X171532493Y-83054819D01*
X171532493Y-83054819D02*
X171627731Y-83054819D01*
X171627731Y-83054819D02*
X171770588Y-83007200D01*
X171770588Y-83007200D02*
X171818207Y-82959580D01*
X171818207Y-82959580D02*
X171818207Y-82626247D01*
X171818207Y-82626247D02*
X171627731Y-82626247D01*
X172246779Y-83054819D02*
X172246779Y-82054819D01*
X172246779Y-82054819D02*
X172627731Y-82054819D01*
X172627731Y-82054819D02*
X172722969Y-82102438D01*
X172722969Y-82102438D02*
X172770588Y-82150057D01*
X172770588Y-82150057D02*
X172818207Y-82245295D01*
X172818207Y-82245295D02*
X172818207Y-82388152D01*
X172818207Y-82388152D02*
X172770588Y-82483390D01*
X172770588Y-82483390D02*
X172722969Y-82531009D01*
X172722969Y-82531009D02*
X172627731Y-82578628D01*
X172627731Y-82578628D02*
X172246779Y-82578628D01*
X173246779Y-83054819D02*
X173246779Y-82054819D01*
X173913445Y-82054819D02*
X174103921Y-82054819D01*
X174103921Y-82054819D02*
X174199159Y-82102438D01*
X174199159Y-82102438D02*
X174294397Y-82197676D01*
X174294397Y-82197676D02*
X174342016Y-82388152D01*
X174342016Y-82388152D02*
X174342016Y-82721485D01*
X174342016Y-82721485D02*
X174294397Y-82911961D01*
X174294397Y-82911961D02*
X174199159Y-83007200D01*
X174199159Y-83007200D02*
X174103921Y-83054819D01*
X174103921Y-83054819D02*
X173913445Y-83054819D01*
X173913445Y-83054819D02*
X173818207Y-83007200D01*
X173818207Y-83007200D02*
X173722969Y-82911961D01*
X173722969Y-82911961D02*
X173675350Y-82721485D01*
X173675350Y-82721485D02*
X173675350Y-82388152D01*
X173675350Y-82388152D02*
X173722969Y-82197676D01*
X173722969Y-82197676D02*
X173818207Y-82102438D01*
X173818207Y-82102438D02*
X173913445Y-82054819D01*
X174913445Y-82483390D02*
X174818207Y-82435771D01*
X174818207Y-82435771D02*
X174770588Y-82388152D01*
X174770588Y-82388152D02*
X174722969Y-82292914D01*
X174722969Y-82292914D02*
X174722969Y-82245295D01*
X174722969Y-82245295D02*
X174770588Y-82150057D01*
X174770588Y-82150057D02*
X174818207Y-82102438D01*
X174818207Y-82102438D02*
X174913445Y-82054819D01*
X174913445Y-82054819D02*
X175103921Y-82054819D01*
X175103921Y-82054819D02*
X175199159Y-82102438D01*
X175199159Y-82102438D02*
X175246778Y-82150057D01*
X175246778Y-82150057D02*
X175294397Y-82245295D01*
X175294397Y-82245295D02*
X175294397Y-82292914D01*
X175294397Y-82292914D02*
X175246778Y-82388152D01*
X175246778Y-82388152D02*
X175199159Y-82435771D01*
X175199159Y-82435771D02*
X175103921Y-82483390D01*
X175103921Y-82483390D02*
X174913445Y-82483390D01*
X174913445Y-82483390D02*
X174818207Y-82531009D01*
X174818207Y-82531009D02*
X174770588Y-82578628D01*
X174770588Y-82578628D02*
X174722969Y-82673866D01*
X174722969Y-82673866D02*
X174722969Y-82864342D01*
X174722969Y-82864342D02*
X174770588Y-82959580D01*
X174770588Y-82959580D02*
X174818207Y-83007200D01*
X174818207Y-83007200D02*
X174913445Y-83054819D01*
X174913445Y-83054819D02*
X175103921Y-83054819D01*
X175103921Y-83054819D02*
X175199159Y-83007200D01*
X175199159Y-83007200D02*
X175246778Y-82959580D01*
X175246778Y-82959580D02*
X175294397Y-82864342D01*
X175294397Y-82864342D02*
X175294397Y-82673866D01*
X175294397Y-82673866D02*
X175246778Y-82578628D01*
X175246778Y-82578628D02*
X175199159Y-82531009D01*
X175199159Y-82531009D02*
X175103921Y-82483390D01*
X171770588Y-84642438D02*
X171675350Y-84594819D01*
X171675350Y-84594819D02*
X171532493Y-84594819D01*
X171532493Y-84594819D02*
X171389636Y-84642438D01*
X171389636Y-84642438D02*
X171294398Y-84737676D01*
X171294398Y-84737676D02*
X171246779Y-84832914D01*
X171246779Y-84832914D02*
X171199160Y-85023390D01*
X171199160Y-85023390D02*
X171199160Y-85166247D01*
X171199160Y-85166247D02*
X171246779Y-85356723D01*
X171246779Y-85356723D02*
X171294398Y-85451961D01*
X171294398Y-85451961D02*
X171389636Y-85547200D01*
X171389636Y-85547200D02*
X171532493Y-85594819D01*
X171532493Y-85594819D02*
X171627731Y-85594819D01*
X171627731Y-85594819D02*
X171770588Y-85547200D01*
X171770588Y-85547200D02*
X171818207Y-85499580D01*
X171818207Y-85499580D02*
X171818207Y-85166247D01*
X171818207Y-85166247D02*
X171627731Y-85166247D01*
X172246779Y-85594819D02*
X172246779Y-84594819D01*
X172246779Y-84594819D02*
X172627731Y-84594819D01*
X172627731Y-84594819D02*
X172722969Y-84642438D01*
X172722969Y-84642438D02*
X172770588Y-84690057D01*
X172770588Y-84690057D02*
X172818207Y-84785295D01*
X172818207Y-84785295D02*
X172818207Y-84928152D01*
X172818207Y-84928152D02*
X172770588Y-85023390D01*
X172770588Y-85023390D02*
X172722969Y-85071009D01*
X172722969Y-85071009D02*
X172627731Y-85118628D01*
X172627731Y-85118628D02*
X172246779Y-85118628D01*
X173246779Y-85594819D02*
X173246779Y-84594819D01*
X173913445Y-84594819D02*
X174103921Y-84594819D01*
X174103921Y-84594819D02*
X174199159Y-84642438D01*
X174199159Y-84642438D02*
X174294397Y-84737676D01*
X174294397Y-84737676D02*
X174342016Y-84928152D01*
X174342016Y-84928152D02*
X174342016Y-85261485D01*
X174342016Y-85261485D02*
X174294397Y-85451961D01*
X174294397Y-85451961D02*
X174199159Y-85547200D01*
X174199159Y-85547200D02*
X174103921Y-85594819D01*
X174103921Y-85594819D02*
X173913445Y-85594819D01*
X173913445Y-85594819D02*
X173818207Y-85547200D01*
X173818207Y-85547200D02*
X173722969Y-85451961D01*
X173722969Y-85451961D02*
X173675350Y-85261485D01*
X173675350Y-85261485D02*
X173675350Y-84928152D01*
X173675350Y-84928152D02*
X173722969Y-84737676D01*
X173722969Y-84737676D02*
X173818207Y-84642438D01*
X173818207Y-84642438D02*
X173913445Y-84594819D01*
X174675350Y-84594819D02*
X175294397Y-84594819D01*
X175294397Y-84594819D02*
X174961064Y-84975771D01*
X174961064Y-84975771D02*
X175103921Y-84975771D01*
X175103921Y-84975771D02*
X175199159Y-85023390D01*
X175199159Y-85023390D02*
X175246778Y-85071009D01*
X175246778Y-85071009D02*
X175294397Y-85166247D01*
X175294397Y-85166247D02*
X175294397Y-85404342D01*
X175294397Y-85404342D02*
X175246778Y-85499580D01*
X175246778Y-85499580D02*
X175199159Y-85547200D01*
X175199159Y-85547200D02*
X175103921Y-85594819D01*
X175103921Y-85594819D02*
X174818207Y-85594819D01*
X174818207Y-85594819D02*
X174722969Y-85547200D01*
X174722969Y-85547200D02*
X174675350Y-85499580D01*
X171770588Y-87182438D02*
X171675350Y-87134819D01*
X171675350Y-87134819D02*
X171532493Y-87134819D01*
X171532493Y-87134819D02*
X171389636Y-87182438D01*
X171389636Y-87182438D02*
X171294398Y-87277676D01*
X171294398Y-87277676D02*
X171246779Y-87372914D01*
X171246779Y-87372914D02*
X171199160Y-87563390D01*
X171199160Y-87563390D02*
X171199160Y-87706247D01*
X171199160Y-87706247D02*
X171246779Y-87896723D01*
X171246779Y-87896723D02*
X171294398Y-87991961D01*
X171294398Y-87991961D02*
X171389636Y-88087200D01*
X171389636Y-88087200D02*
X171532493Y-88134819D01*
X171532493Y-88134819D02*
X171627731Y-88134819D01*
X171627731Y-88134819D02*
X171770588Y-88087200D01*
X171770588Y-88087200D02*
X171818207Y-88039580D01*
X171818207Y-88039580D02*
X171818207Y-87706247D01*
X171818207Y-87706247D02*
X171627731Y-87706247D01*
X172246779Y-88134819D02*
X172246779Y-87134819D01*
X172246779Y-87134819D02*
X172627731Y-87134819D01*
X172627731Y-87134819D02*
X172722969Y-87182438D01*
X172722969Y-87182438D02*
X172770588Y-87230057D01*
X172770588Y-87230057D02*
X172818207Y-87325295D01*
X172818207Y-87325295D02*
X172818207Y-87468152D01*
X172818207Y-87468152D02*
X172770588Y-87563390D01*
X172770588Y-87563390D02*
X172722969Y-87611009D01*
X172722969Y-87611009D02*
X172627731Y-87658628D01*
X172627731Y-87658628D02*
X172246779Y-87658628D01*
X173246779Y-88134819D02*
X173246779Y-87134819D01*
X173913445Y-87134819D02*
X174103921Y-87134819D01*
X174103921Y-87134819D02*
X174199159Y-87182438D01*
X174199159Y-87182438D02*
X174294397Y-87277676D01*
X174294397Y-87277676D02*
X174342016Y-87468152D01*
X174342016Y-87468152D02*
X174342016Y-87801485D01*
X174342016Y-87801485D02*
X174294397Y-87991961D01*
X174294397Y-87991961D02*
X174199159Y-88087200D01*
X174199159Y-88087200D02*
X174103921Y-88134819D01*
X174103921Y-88134819D02*
X173913445Y-88134819D01*
X173913445Y-88134819D02*
X173818207Y-88087200D01*
X173818207Y-88087200D02*
X173722969Y-87991961D01*
X173722969Y-87991961D02*
X173675350Y-87801485D01*
X173675350Y-87801485D02*
X173675350Y-87468152D01*
X173675350Y-87468152D02*
X173722969Y-87277676D01*
X173722969Y-87277676D02*
X173818207Y-87182438D01*
X173818207Y-87182438D02*
X173913445Y-87134819D01*
X175199159Y-87468152D02*
X175199159Y-88134819D01*
X174961064Y-87087200D02*
X174722969Y-87801485D01*
X174722969Y-87801485D02*
X175342016Y-87801485D01*
X176151540Y-87134819D02*
X175961064Y-87134819D01*
X175961064Y-87134819D02*
X175865826Y-87182438D01*
X175865826Y-87182438D02*
X175818207Y-87230057D01*
X175818207Y-87230057D02*
X175722969Y-87372914D01*
X175722969Y-87372914D02*
X175675350Y-87563390D01*
X175675350Y-87563390D02*
X175675350Y-87944342D01*
X175675350Y-87944342D02*
X175722969Y-88039580D01*
X175722969Y-88039580D02*
X175770588Y-88087200D01*
X175770588Y-88087200D02*
X175865826Y-88134819D01*
X175865826Y-88134819D02*
X176056302Y-88134819D01*
X176056302Y-88134819D02*
X176151540Y-88087200D01*
X176151540Y-88087200D02*
X176199159Y-88039580D01*
X176199159Y-88039580D02*
X176246778Y-87944342D01*
X176246778Y-87944342D02*
X176246778Y-87706247D01*
X176246778Y-87706247D02*
X176199159Y-87611009D01*
X176199159Y-87611009D02*
X176151540Y-87563390D01*
X176151540Y-87563390D02*
X176056302Y-87515771D01*
X176056302Y-87515771D02*
X175865826Y-87515771D01*
X175865826Y-87515771D02*
X175770588Y-87563390D01*
X175770588Y-87563390D02*
X175722969Y-87611009D01*
X175722969Y-87611009D02*
X175675350Y-87706247D01*
X171770588Y-89722438D02*
X171675350Y-89674819D01*
X171675350Y-89674819D02*
X171532493Y-89674819D01*
X171532493Y-89674819D02*
X171389636Y-89722438D01*
X171389636Y-89722438D02*
X171294398Y-89817676D01*
X171294398Y-89817676D02*
X171246779Y-89912914D01*
X171246779Y-89912914D02*
X171199160Y-90103390D01*
X171199160Y-90103390D02*
X171199160Y-90246247D01*
X171199160Y-90246247D02*
X171246779Y-90436723D01*
X171246779Y-90436723D02*
X171294398Y-90531961D01*
X171294398Y-90531961D02*
X171389636Y-90627200D01*
X171389636Y-90627200D02*
X171532493Y-90674819D01*
X171532493Y-90674819D02*
X171627731Y-90674819D01*
X171627731Y-90674819D02*
X171770588Y-90627200D01*
X171770588Y-90627200D02*
X171818207Y-90579580D01*
X171818207Y-90579580D02*
X171818207Y-90246247D01*
X171818207Y-90246247D02*
X171627731Y-90246247D01*
X172246779Y-90674819D02*
X172246779Y-89674819D01*
X172246779Y-89674819D02*
X172627731Y-89674819D01*
X172627731Y-89674819D02*
X172722969Y-89722438D01*
X172722969Y-89722438D02*
X172770588Y-89770057D01*
X172770588Y-89770057D02*
X172818207Y-89865295D01*
X172818207Y-89865295D02*
X172818207Y-90008152D01*
X172818207Y-90008152D02*
X172770588Y-90103390D01*
X172770588Y-90103390D02*
X172722969Y-90151009D01*
X172722969Y-90151009D02*
X172627731Y-90198628D01*
X172627731Y-90198628D02*
X172246779Y-90198628D01*
X173246779Y-90674819D02*
X173246779Y-89674819D01*
X173913445Y-89674819D02*
X174103921Y-89674819D01*
X174103921Y-89674819D02*
X174199159Y-89722438D01*
X174199159Y-89722438D02*
X174294397Y-89817676D01*
X174294397Y-89817676D02*
X174342016Y-90008152D01*
X174342016Y-90008152D02*
X174342016Y-90341485D01*
X174342016Y-90341485D02*
X174294397Y-90531961D01*
X174294397Y-90531961D02*
X174199159Y-90627200D01*
X174199159Y-90627200D02*
X174103921Y-90674819D01*
X174103921Y-90674819D02*
X173913445Y-90674819D01*
X173913445Y-90674819D02*
X173818207Y-90627200D01*
X173818207Y-90627200D02*
X173722969Y-90531961D01*
X173722969Y-90531961D02*
X173675350Y-90341485D01*
X173675350Y-90341485D02*
X173675350Y-90008152D01*
X173675350Y-90008152D02*
X173722969Y-89817676D01*
X173722969Y-89817676D02*
X173818207Y-89722438D01*
X173818207Y-89722438D02*
X173913445Y-89674819D01*
X174818207Y-90674819D02*
X175008683Y-90674819D01*
X175008683Y-90674819D02*
X175103921Y-90627200D01*
X175103921Y-90627200D02*
X175151540Y-90579580D01*
X175151540Y-90579580D02*
X175246778Y-90436723D01*
X175246778Y-90436723D02*
X175294397Y-90246247D01*
X175294397Y-90246247D02*
X175294397Y-89865295D01*
X175294397Y-89865295D02*
X175246778Y-89770057D01*
X175246778Y-89770057D02*
X175199159Y-89722438D01*
X175199159Y-89722438D02*
X175103921Y-89674819D01*
X175103921Y-89674819D02*
X174913445Y-89674819D01*
X174913445Y-89674819D02*
X174818207Y-89722438D01*
X174818207Y-89722438D02*
X174770588Y-89770057D01*
X174770588Y-89770057D02*
X174722969Y-89865295D01*
X174722969Y-89865295D02*
X174722969Y-90103390D01*
X174722969Y-90103390D02*
X174770588Y-90198628D01*
X174770588Y-90198628D02*
X174818207Y-90246247D01*
X174818207Y-90246247D02*
X174913445Y-90293866D01*
X174913445Y-90293866D02*
X175103921Y-90293866D01*
X175103921Y-90293866D02*
X175199159Y-90246247D01*
X175199159Y-90246247D02*
X175246778Y-90198628D01*
X175246778Y-90198628D02*
X175294397Y-90103390D01*
X171770588Y-92262438D02*
X171675350Y-92214819D01*
X171675350Y-92214819D02*
X171532493Y-92214819D01*
X171532493Y-92214819D02*
X171389636Y-92262438D01*
X171389636Y-92262438D02*
X171294398Y-92357676D01*
X171294398Y-92357676D02*
X171246779Y-92452914D01*
X171246779Y-92452914D02*
X171199160Y-92643390D01*
X171199160Y-92643390D02*
X171199160Y-92786247D01*
X171199160Y-92786247D02*
X171246779Y-92976723D01*
X171246779Y-92976723D02*
X171294398Y-93071961D01*
X171294398Y-93071961D02*
X171389636Y-93167200D01*
X171389636Y-93167200D02*
X171532493Y-93214819D01*
X171532493Y-93214819D02*
X171627731Y-93214819D01*
X171627731Y-93214819D02*
X171770588Y-93167200D01*
X171770588Y-93167200D02*
X171818207Y-93119580D01*
X171818207Y-93119580D02*
X171818207Y-92786247D01*
X171818207Y-92786247D02*
X171627731Y-92786247D01*
X172246779Y-93214819D02*
X172246779Y-92214819D01*
X172246779Y-92214819D02*
X172627731Y-92214819D01*
X172627731Y-92214819D02*
X172722969Y-92262438D01*
X172722969Y-92262438D02*
X172770588Y-92310057D01*
X172770588Y-92310057D02*
X172818207Y-92405295D01*
X172818207Y-92405295D02*
X172818207Y-92548152D01*
X172818207Y-92548152D02*
X172770588Y-92643390D01*
X172770588Y-92643390D02*
X172722969Y-92691009D01*
X172722969Y-92691009D02*
X172627731Y-92738628D01*
X172627731Y-92738628D02*
X172246779Y-92738628D01*
X173246779Y-93214819D02*
X173246779Y-92214819D01*
X173913445Y-92214819D02*
X174103921Y-92214819D01*
X174103921Y-92214819D02*
X174199159Y-92262438D01*
X174199159Y-92262438D02*
X174294397Y-92357676D01*
X174294397Y-92357676D02*
X174342016Y-92548152D01*
X174342016Y-92548152D02*
X174342016Y-92881485D01*
X174342016Y-92881485D02*
X174294397Y-93071961D01*
X174294397Y-93071961D02*
X174199159Y-93167200D01*
X174199159Y-93167200D02*
X174103921Y-93214819D01*
X174103921Y-93214819D02*
X173913445Y-93214819D01*
X173913445Y-93214819D02*
X173818207Y-93167200D01*
X173818207Y-93167200D02*
X173722969Y-93071961D01*
X173722969Y-93071961D02*
X173675350Y-92881485D01*
X173675350Y-92881485D02*
X173675350Y-92548152D01*
X173675350Y-92548152D02*
X173722969Y-92357676D01*
X173722969Y-92357676D02*
X173818207Y-92262438D01*
X173818207Y-92262438D02*
X173913445Y-92214819D01*
X175294397Y-93214819D02*
X174722969Y-93214819D01*
X175008683Y-93214819D02*
X175008683Y-92214819D01*
X175008683Y-92214819D02*
X174913445Y-92357676D01*
X174913445Y-92357676D02*
X174818207Y-92452914D01*
X174818207Y-92452914D02*
X174722969Y-92500533D01*
X175913445Y-92214819D02*
X176008683Y-92214819D01*
X176008683Y-92214819D02*
X176103921Y-92262438D01*
X176103921Y-92262438D02*
X176151540Y-92310057D01*
X176151540Y-92310057D02*
X176199159Y-92405295D01*
X176199159Y-92405295D02*
X176246778Y-92595771D01*
X176246778Y-92595771D02*
X176246778Y-92833866D01*
X176246778Y-92833866D02*
X176199159Y-93024342D01*
X176199159Y-93024342D02*
X176151540Y-93119580D01*
X176151540Y-93119580D02*
X176103921Y-93167200D01*
X176103921Y-93167200D02*
X176008683Y-93214819D01*
X176008683Y-93214819D02*
X175913445Y-93214819D01*
X175913445Y-93214819D02*
X175818207Y-93167200D01*
X175818207Y-93167200D02*
X175770588Y-93119580D01*
X175770588Y-93119580D02*
X175722969Y-93024342D01*
X175722969Y-93024342D02*
X175675350Y-92833866D01*
X175675350Y-92833866D02*
X175675350Y-92595771D01*
X175675350Y-92595771D02*
X175722969Y-92405295D01*
X175722969Y-92405295D02*
X175770588Y-92310057D01*
X175770588Y-92310057D02*
X175818207Y-92262438D01*
X175818207Y-92262438D02*
X175913445Y-92214819D01*
X171770588Y-94802438D02*
X171675350Y-94754819D01*
X171675350Y-94754819D02*
X171532493Y-94754819D01*
X171532493Y-94754819D02*
X171389636Y-94802438D01*
X171389636Y-94802438D02*
X171294398Y-94897676D01*
X171294398Y-94897676D02*
X171246779Y-94992914D01*
X171246779Y-94992914D02*
X171199160Y-95183390D01*
X171199160Y-95183390D02*
X171199160Y-95326247D01*
X171199160Y-95326247D02*
X171246779Y-95516723D01*
X171246779Y-95516723D02*
X171294398Y-95611961D01*
X171294398Y-95611961D02*
X171389636Y-95707200D01*
X171389636Y-95707200D02*
X171532493Y-95754819D01*
X171532493Y-95754819D02*
X171627731Y-95754819D01*
X171627731Y-95754819D02*
X171770588Y-95707200D01*
X171770588Y-95707200D02*
X171818207Y-95659580D01*
X171818207Y-95659580D02*
X171818207Y-95326247D01*
X171818207Y-95326247D02*
X171627731Y-95326247D01*
X172246779Y-95754819D02*
X172246779Y-94754819D01*
X172246779Y-94754819D02*
X172627731Y-94754819D01*
X172627731Y-94754819D02*
X172722969Y-94802438D01*
X172722969Y-94802438D02*
X172770588Y-94850057D01*
X172770588Y-94850057D02*
X172818207Y-94945295D01*
X172818207Y-94945295D02*
X172818207Y-95088152D01*
X172818207Y-95088152D02*
X172770588Y-95183390D01*
X172770588Y-95183390D02*
X172722969Y-95231009D01*
X172722969Y-95231009D02*
X172627731Y-95278628D01*
X172627731Y-95278628D02*
X172246779Y-95278628D01*
X173246779Y-95754819D02*
X173246779Y-94754819D01*
X173913445Y-94754819D02*
X174103921Y-94754819D01*
X174103921Y-94754819D02*
X174199159Y-94802438D01*
X174199159Y-94802438D02*
X174294397Y-94897676D01*
X174294397Y-94897676D02*
X174342016Y-95088152D01*
X174342016Y-95088152D02*
X174342016Y-95421485D01*
X174342016Y-95421485D02*
X174294397Y-95611961D01*
X174294397Y-95611961D02*
X174199159Y-95707200D01*
X174199159Y-95707200D02*
X174103921Y-95754819D01*
X174103921Y-95754819D02*
X173913445Y-95754819D01*
X173913445Y-95754819D02*
X173818207Y-95707200D01*
X173818207Y-95707200D02*
X173722969Y-95611961D01*
X173722969Y-95611961D02*
X173675350Y-95421485D01*
X173675350Y-95421485D02*
X173675350Y-95088152D01*
X173675350Y-95088152D02*
X173722969Y-94897676D01*
X173722969Y-94897676D02*
X173818207Y-94802438D01*
X173818207Y-94802438D02*
X173913445Y-94754819D01*
X175294397Y-95754819D02*
X174722969Y-95754819D01*
X175008683Y-95754819D02*
X175008683Y-94754819D01*
X175008683Y-94754819D02*
X174913445Y-94897676D01*
X174913445Y-94897676D02*
X174818207Y-94992914D01*
X174818207Y-94992914D02*
X174722969Y-95040533D01*
X176246778Y-95754819D02*
X175675350Y-95754819D01*
X175961064Y-95754819D02*
X175961064Y-94754819D01*
X175961064Y-94754819D02*
X175865826Y-94897676D01*
X175865826Y-94897676D02*
X175770588Y-94992914D01*
X175770588Y-94992914D02*
X175675350Y-95040533D01*
X171770588Y-97342438D02*
X171675350Y-97294819D01*
X171675350Y-97294819D02*
X171532493Y-97294819D01*
X171532493Y-97294819D02*
X171389636Y-97342438D01*
X171389636Y-97342438D02*
X171294398Y-97437676D01*
X171294398Y-97437676D02*
X171246779Y-97532914D01*
X171246779Y-97532914D02*
X171199160Y-97723390D01*
X171199160Y-97723390D02*
X171199160Y-97866247D01*
X171199160Y-97866247D02*
X171246779Y-98056723D01*
X171246779Y-98056723D02*
X171294398Y-98151961D01*
X171294398Y-98151961D02*
X171389636Y-98247200D01*
X171389636Y-98247200D02*
X171532493Y-98294819D01*
X171532493Y-98294819D02*
X171627731Y-98294819D01*
X171627731Y-98294819D02*
X171770588Y-98247200D01*
X171770588Y-98247200D02*
X171818207Y-98199580D01*
X171818207Y-98199580D02*
X171818207Y-97866247D01*
X171818207Y-97866247D02*
X171627731Y-97866247D01*
X172246779Y-98294819D02*
X172246779Y-97294819D01*
X172246779Y-97294819D02*
X172627731Y-97294819D01*
X172627731Y-97294819D02*
X172722969Y-97342438D01*
X172722969Y-97342438D02*
X172770588Y-97390057D01*
X172770588Y-97390057D02*
X172818207Y-97485295D01*
X172818207Y-97485295D02*
X172818207Y-97628152D01*
X172818207Y-97628152D02*
X172770588Y-97723390D01*
X172770588Y-97723390D02*
X172722969Y-97771009D01*
X172722969Y-97771009D02*
X172627731Y-97818628D01*
X172627731Y-97818628D02*
X172246779Y-97818628D01*
X173246779Y-98294819D02*
X173246779Y-97294819D01*
X173913445Y-97294819D02*
X174103921Y-97294819D01*
X174103921Y-97294819D02*
X174199159Y-97342438D01*
X174199159Y-97342438D02*
X174294397Y-97437676D01*
X174294397Y-97437676D02*
X174342016Y-97628152D01*
X174342016Y-97628152D02*
X174342016Y-97961485D01*
X174342016Y-97961485D02*
X174294397Y-98151961D01*
X174294397Y-98151961D02*
X174199159Y-98247200D01*
X174199159Y-98247200D02*
X174103921Y-98294819D01*
X174103921Y-98294819D02*
X173913445Y-98294819D01*
X173913445Y-98294819D02*
X173818207Y-98247200D01*
X173818207Y-98247200D02*
X173722969Y-98151961D01*
X173722969Y-98151961D02*
X173675350Y-97961485D01*
X173675350Y-97961485D02*
X173675350Y-97628152D01*
X173675350Y-97628152D02*
X173722969Y-97437676D01*
X173722969Y-97437676D02*
X173818207Y-97342438D01*
X173818207Y-97342438D02*
X173913445Y-97294819D01*
X175294397Y-98294819D02*
X174722969Y-98294819D01*
X175008683Y-98294819D02*
X175008683Y-97294819D01*
X175008683Y-97294819D02*
X174913445Y-97437676D01*
X174913445Y-97437676D02*
X174818207Y-97532914D01*
X174818207Y-97532914D02*
X174722969Y-97580533D01*
X175675350Y-97390057D02*
X175722969Y-97342438D01*
X175722969Y-97342438D02*
X175818207Y-97294819D01*
X175818207Y-97294819D02*
X176056302Y-97294819D01*
X176056302Y-97294819D02*
X176151540Y-97342438D01*
X176151540Y-97342438D02*
X176199159Y-97390057D01*
X176199159Y-97390057D02*
X176246778Y-97485295D01*
X176246778Y-97485295D02*
X176246778Y-97580533D01*
X176246778Y-97580533D02*
X176199159Y-97723390D01*
X176199159Y-97723390D02*
X175627731Y-98294819D01*
X175627731Y-98294819D02*
X176246778Y-98294819D01*
X171770588Y-99882438D02*
X171675350Y-99834819D01*
X171675350Y-99834819D02*
X171532493Y-99834819D01*
X171532493Y-99834819D02*
X171389636Y-99882438D01*
X171389636Y-99882438D02*
X171294398Y-99977676D01*
X171294398Y-99977676D02*
X171246779Y-100072914D01*
X171246779Y-100072914D02*
X171199160Y-100263390D01*
X171199160Y-100263390D02*
X171199160Y-100406247D01*
X171199160Y-100406247D02*
X171246779Y-100596723D01*
X171246779Y-100596723D02*
X171294398Y-100691961D01*
X171294398Y-100691961D02*
X171389636Y-100787200D01*
X171389636Y-100787200D02*
X171532493Y-100834819D01*
X171532493Y-100834819D02*
X171627731Y-100834819D01*
X171627731Y-100834819D02*
X171770588Y-100787200D01*
X171770588Y-100787200D02*
X171818207Y-100739580D01*
X171818207Y-100739580D02*
X171818207Y-100406247D01*
X171818207Y-100406247D02*
X171627731Y-100406247D01*
X172246779Y-100834819D02*
X172246779Y-99834819D01*
X172246779Y-99834819D02*
X172627731Y-99834819D01*
X172627731Y-99834819D02*
X172722969Y-99882438D01*
X172722969Y-99882438D02*
X172770588Y-99930057D01*
X172770588Y-99930057D02*
X172818207Y-100025295D01*
X172818207Y-100025295D02*
X172818207Y-100168152D01*
X172818207Y-100168152D02*
X172770588Y-100263390D01*
X172770588Y-100263390D02*
X172722969Y-100311009D01*
X172722969Y-100311009D02*
X172627731Y-100358628D01*
X172627731Y-100358628D02*
X172246779Y-100358628D01*
X173246779Y-100834819D02*
X173246779Y-99834819D01*
X173913445Y-99834819D02*
X174103921Y-99834819D01*
X174103921Y-99834819D02*
X174199159Y-99882438D01*
X174199159Y-99882438D02*
X174294397Y-99977676D01*
X174294397Y-99977676D02*
X174342016Y-100168152D01*
X174342016Y-100168152D02*
X174342016Y-100501485D01*
X174342016Y-100501485D02*
X174294397Y-100691961D01*
X174294397Y-100691961D02*
X174199159Y-100787200D01*
X174199159Y-100787200D02*
X174103921Y-100834819D01*
X174103921Y-100834819D02*
X173913445Y-100834819D01*
X173913445Y-100834819D02*
X173818207Y-100787200D01*
X173818207Y-100787200D02*
X173722969Y-100691961D01*
X173722969Y-100691961D02*
X173675350Y-100501485D01*
X173675350Y-100501485D02*
X173675350Y-100168152D01*
X173675350Y-100168152D02*
X173722969Y-99977676D01*
X173722969Y-99977676D02*
X173818207Y-99882438D01*
X173818207Y-99882438D02*
X173913445Y-99834819D01*
X175294397Y-100834819D02*
X174722969Y-100834819D01*
X175008683Y-100834819D02*
X175008683Y-99834819D01*
X175008683Y-99834819D02*
X174913445Y-99977676D01*
X174913445Y-99977676D02*
X174818207Y-100072914D01*
X174818207Y-100072914D02*
X174722969Y-100120533D01*
X175627731Y-99834819D02*
X176246778Y-99834819D01*
X176246778Y-99834819D02*
X175913445Y-100215771D01*
X175913445Y-100215771D02*
X176056302Y-100215771D01*
X176056302Y-100215771D02*
X176151540Y-100263390D01*
X176151540Y-100263390D02*
X176199159Y-100311009D01*
X176199159Y-100311009D02*
X176246778Y-100406247D01*
X176246778Y-100406247D02*
X176246778Y-100644342D01*
X176246778Y-100644342D02*
X176199159Y-100739580D01*
X176199159Y-100739580D02*
X176151540Y-100787200D01*
X176151540Y-100787200D02*
X176056302Y-100834819D01*
X176056302Y-100834819D02*
X175770588Y-100834819D01*
X175770588Y-100834819D02*
X175675350Y-100787200D01*
X175675350Y-100787200D02*
X175627731Y-100739580D01*
X171770588Y-102422438D02*
X171675350Y-102374819D01*
X171675350Y-102374819D02*
X171532493Y-102374819D01*
X171532493Y-102374819D02*
X171389636Y-102422438D01*
X171389636Y-102422438D02*
X171294398Y-102517676D01*
X171294398Y-102517676D02*
X171246779Y-102612914D01*
X171246779Y-102612914D02*
X171199160Y-102803390D01*
X171199160Y-102803390D02*
X171199160Y-102946247D01*
X171199160Y-102946247D02*
X171246779Y-103136723D01*
X171246779Y-103136723D02*
X171294398Y-103231961D01*
X171294398Y-103231961D02*
X171389636Y-103327200D01*
X171389636Y-103327200D02*
X171532493Y-103374819D01*
X171532493Y-103374819D02*
X171627731Y-103374819D01*
X171627731Y-103374819D02*
X171770588Y-103327200D01*
X171770588Y-103327200D02*
X171818207Y-103279580D01*
X171818207Y-103279580D02*
X171818207Y-102946247D01*
X171818207Y-102946247D02*
X171627731Y-102946247D01*
X172246779Y-103374819D02*
X172246779Y-102374819D01*
X172246779Y-102374819D02*
X172627731Y-102374819D01*
X172627731Y-102374819D02*
X172722969Y-102422438D01*
X172722969Y-102422438D02*
X172770588Y-102470057D01*
X172770588Y-102470057D02*
X172818207Y-102565295D01*
X172818207Y-102565295D02*
X172818207Y-102708152D01*
X172818207Y-102708152D02*
X172770588Y-102803390D01*
X172770588Y-102803390D02*
X172722969Y-102851009D01*
X172722969Y-102851009D02*
X172627731Y-102898628D01*
X172627731Y-102898628D02*
X172246779Y-102898628D01*
X173246779Y-103374819D02*
X173246779Y-102374819D01*
X173913445Y-102374819D02*
X174103921Y-102374819D01*
X174103921Y-102374819D02*
X174199159Y-102422438D01*
X174199159Y-102422438D02*
X174294397Y-102517676D01*
X174294397Y-102517676D02*
X174342016Y-102708152D01*
X174342016Y-102708152D02*
X174342016Y-103041485D01*
X174342016Y-103041485D02*
X174294397Y-103231961D01*
X174294397Y-103231961D02*
X174199159Y-103327200D01*
X174199159Y-103327200D02*
X174103921Y-103374819D01*
X174103921Y-103374819D02*
X173913445Y-103374819D01*
X173913445Y-103374819D02*
X173818207Y-103327200D01*
X173818207Y-103327200D02*
X173722969Y-103231961D01*
X173722969Y-103231961D02*
X173675350Y-103041485D01*
X173675350Y-103041485D02*
X173675350Y-102708152D01*
X173675350Y-102708152D02*
X173722969Y-102517676D01*
X173722969Y-102517676D02*
X173818207Y-102422438D01*
X173818207Y-102422438D02*
X173913445Y-102374819D01*
X175294397Y-103374819D02*
X174722969Y-103374819D01*
X175008683Y-103374819D02*
X175008683Y-102374819D01*
X175008683Y-102374819D02*
X174913445Y-102517676D01*
X174913445Y-102517676D02*
X174818207Y-102612914D01*
X174818207Y-102612914D02*
X174722969Y-102660533D01*
X176151540Y-102708152D02*
X176151540Y-103374819D01*
X175913445Y-102327200D02*
X175675350Y-103041485D01*
X175675350Y-103041485D02*
X176294397Y-103041485D01*
X171973289Y-104912099D02*
X171497099Y-104912099D01*
X171497099Y-104912099D02*
X171449480Y-105388289D01*
X171449480Y-105388289D02*
X171497099Y-105340670D01*
X171497099Y-105340670D02*
X171592337Y-105293051D01*
X171592337Y-105293051D02*
X171830432Y-105293051D01*
X171830432Y-105293051D02*
X171925670Y-105340670D01*
X171925670Y-105340670D02*
X171973289Y-105388289D01*
X171973289Y-105388289D02*
X172020908Y-105483527D01*
X172020908Y-105483527D02*
X172020908Y-105721622D01*
X172020908Y-105721622D02*
X171973289Y-105816860D01*
X171973289Y-105816860D02*
X171925670Y-105864480D01*
X171925670Y-105864480D02*
X171830432Y-105912099D01*
X171830432Y-105912099D02*
X171592337Y-105912099D01*
X171592337Y-105912099D02*
X171497099Y-105864480D01*
X171497099Y-105864480D02*
X171449480Y-105816860D01*
X172306623Y-104912099D02*
X172639956Y-105912099D01*
X172639956Y-105912099D02*
X172973289Y-104912099D01*
X172020908Y-107499718D02*
X171925670Y-107452099D01*
X171925670Y-107452099D02*
X171782813Y-107452099D01*
X171782813Y-107452099D02*
X171639956Y-107499718D01*
X171639956Y-107499718D02*
X171544718Y-107594956D01*
X171544718Y-107594956D02*
X171497099Y-107690194D01*
X171497099Y-107690194D02*
X171449480Y-107880670D01*
X171449480Y-107880670D02*
X171449480Y-108023527D01*
X171449480Y-108023527D02*
X171497099Y-108214003D01*
X171497099Y-108214003D02*
X171544718Y-108309241D01*
X171544718Y-108309241D02*
X171639956Y-108404480D01*
X171639956Y-108404480D02*
X171782813Y-108452099D01*
X171782813Y-108452099D02*
X171878051Y-108452099D01*
X171878051Y-108452099D02*
X172020908Y-108404480D01*
X172020908Y-108404480D02*
X172068527Y-108356860D01*
X172068527Y-108356860D02*
X172068527Y-108023527D01*
X172068527Y-108023527D02*
X171878051Y-108023527D01*
X172497099Y-108452099D02*
X172497099Y-107452099D01*
X172497099Y-107452099D02*
X173068527Y-108452099D01*
X173068527Y-108452099D02*
X173068527Y-107452099D01*
X173544718Y-108452099D02*
X173544718Y-107452099D01*
X173544718Y-107452099D02*
X173782813Y-107452099D01*
X173782813Y-107452099D02*
X173925670Y-107499718D01*
X173925670Y-107499718D02*
X174020908Y-107594956D01*
X174020908Y-107594956D02*
X174068527Y-107690194D01*
X174068527Y-107690194D02*
X174116146Y-107880670D01*
X174116146Y-107880670D02*
X174116146Y-108023527D01*
X174116146Y-108023527D02*
X174068527Y-108214003D01*
X174068527Y-108214003D02*
X174020908Y-108309241D01*
X174020908Y-108309241D02*
X173925670Y-108404480D01*
X173925670Y-108404480D02*
X173782813Y-108452099D01*
X173782813Y-108452099D02*
X173544718Y-108452099D01*
X171141921Y-59668289D02*
X171475254Y-59668289D01*
X171618111Y-60192099D02*
X171141921Y-60192099D01*
X171141921Y-60192099D02*
X171141921Y-59192099D01*
X171141921Y-59192099D02*
X171618111Y-59192099D01*
X172046683Y-60192099D02*
X172046683Y-59192099D01*
X172046683Y-59192099D02*
X172618111Y-60192099D01*
X172618111Y-60192099D02*
X172618111Y-59192099D01*
X173808587Y-59144480D02*
X172951445Y-60430194D01*
X174713349Y-60192099D02*
X174380016Y-59715908D01*
X174141921Y-60192099D02*
X174141921Y-59192099D01*
X174141921Y-59192099D02*
X174522873Y-59192099D01*
X174522873Y-59192099D02*
X174618111Y-59239718D01*
X174618111Y-59239718D02*
X174665730Y-59287337D01*
X174665730Y-59287337D02*
X174713349Y-59382575D01*
X174713349Y-59382575D02*
X174713349Y-59525432D01*
X174713349Y-59525432D02*
X174665730Y-59620670D01*
X174665730Y-59620670D02*
X174618111Y-59668289D01*
X174618111Y-59668289D02*
X174522873Y-59715908D01*
X174522873Y-59715908D02*
X174141921Y-59715908D01*
X175141921Y-59668289D02*
X175475254Y-59668289D01*
X175618111Y-60192099D02*
X175141921Y-60192099D01*
X175141921Y-60192099D02*
X175141921Y-59192099D01*
X175141921Y-59192099D02*
X175618111Y-59192099D01*
X175999064Y-60144480D02*
X176141921Y-60192099D01*
X176141921Y-60192099D02*
X176380016Y-60192099D01*
X176380016Y-60192099D02*
X176475254Y-60144480D01*
X176475254Y-60144480D02*
X176522873Y-60096860D01*
X176522873Y-60096860D02*
X176570492Y-60001622D01*
X176570492Y-60001622D02*
X176570492Y-59906384D01*
X176570492Y-59906384D02*
X176522873Y-59811146D01*
X176522873Y-59811146D02*
X176475254Y-59763527D01*
X176475254Y-59763527D02*
X176380016Y-59715908D01*
X176380016Y-59715908D02*
X176189540Y-59668289D01*
X176189540Y-59668289D02*
X176094302Y-59620670D01*
X176094302Y-59620670D02*
X176046683Y-59573051D01*
X176046683Y-59573051D02*
X175999064Y-59477813D01*
X175999064Y-59477813D02*
X175999064Y-59382575D01*
X175999064Y-59382575D02*
X176046683Y-59287337D01*
X176046683Y-59287337D02*
X176094302Y-59239718D01*
X176094302Y-59239718D02*
X176189540Y-59192099D01*
X176189540Y-59192099D02*
X176427635Y-59192099D01*
X176427635Y-59192099D02*
X176570492Y-59239718D01*
X176999064Y-59668289D02*
X177332397Y-59668289D01*
X177475254Y-60192099D02*
X176999064Y-60192099D01*
X176999064Y-60192099D02*
X176999064Y-59192099D01*
X176999064Y-59192099D02*
X177475254Y-59192099D01*
X177760969Y-59192099D02*
X178332397Y-59192099D01*
X178046683Y-60192099D02*
X178046683Y-59192099D01*
X188845601Y-54162438D02*
X188750363Y-54114819D01*
X188750363Y-54114819D02*
X188607506Y-54114819D01*
X188607506Y-54114819D02*
X188464649Y-54162438D01*
X188464649Y-54162438D02*
X188369411Y-54257676D01*
X188369411Y-54257676D02*
X188321792Y-54352914D01*
X188321792Y-54352914D02*
X188274173Y-54543390D01*
X188274173Y-54543390D02*
X188274173Y-54686247D01*
X188274173Y-54686247D02*
X188321792Y-54876723D01*
X188321792Y-54876723D02*
X188369411Y-54971961D01*
X188369411Y-54971961D02*
X188464649Y-55067200D01*
X188464649Y-55067200D02*
X188607506Y-55114819D01*
X188607506Y-55114819D02*
X188702744Y-55114819D01*
X188702744Y-55114819D02*
X188845601Y-55067200D01*
X188845601Y-55067200D02*
X188893220Y-55019580D01*
X188893220Y-55019580D02*
X188893220Y-54686247D01*
X188893220Y-54686247D02*
X188702744Y-54686247D01*
X189321792Y-55114819D02*
X189321792Y-54114819D01*
X189321792Y-54114819D02*
X189893220Y-55114819D01*
X189893220Y-55114819D02*
X189893220Y-54114819D01*
X190369411Y-55114819D02*
X190369411Y-54114819D01*
X190369411Y-54114819D02*
X190607506Y-54114819D01*
X190607506Y-54114819D02*
X190750363Y-54162438D01*
X190750363Y-54162438D02*
X190845601Y-54257676D01*
X190845601Y-54257676D02*
X190893220Y-54352914D01*
X190893220Y-54352914D02*
X190940839Y-54543390D01*
X190940839Y-54543390D02*
X190940839Y-54686247D01*
X190940839Y-54686247D02*
X190893220Y-54876723D01*
X190893220Y-54876723D02*
X190845601Y-54971961D01*
X190845601Y-54971961D02*
X190750363Y-55067200D01*
X190750363Y-55067200D02*
X190607506Y-55114819D01*
X190607506Y-55114819D02*
X190369411Y-55114819D01*
X180702744Y-56702438D02*
X180607506Y-56654819D01*
X180607506Y-56654819D02*
X180464649Y-56654819D01*
X180464649Y-56654819D02*
X180321792Y-56702438D01*
X180321792Y-56702438D02*
X180226554Y-56797676D01*
X180226554Y-56797676D02*
X180178935Y-56892914D01*
X180178935Y-56892914D02*
X180131316Y-57083390D01*
X180131316Y-57083390D02*
X180131316Y-57226247D01*
X180131316Y-57226247D02*
X180178935Y-57416723D01*
X180178935Y-57416723D02*
X180226554Y-57511961D01*
X180226554Y-57511961D02*
X180321792Y-57607200D01*
X180321792Y-57607200D02*
X180464649Y-57654819D01*
X180464649Y-57654819D02*
X180559887Y-57654819D01*
X180559887Y-57654819D02*
X180702744Y-57607200D01*
X180702744Y-57607200D02*
X180750363Y-57559580D01*
X180750363Y-57559580D02*
X180750363Y-57226247D01*
X180750363Y-57226247D02*
X180559887Y-57226247D01*
X181178935Y-57654819D02*
X181178935Y-56654819D01*
X181178935Y-56654819D02*
X181559887Y-56654819D01*
X181559887Y-56654819D02*
X181655125Y-56702438D01*
X181655125Y-56702438D02*
X181702744Y-56750057D01*
X181702744Y-56750057D02*
X181750363Y-56845295D01*
X181750363Y-56845295D02*
X181750363Y-56988152D01*
X181750363Y-56988152D02*
X181702744Y-57083390D01*
X181702744Y-57083390D02*
X181655125Y-57131009D01*
X181655125Y-57131009D02*
X181559887Y-57178628D01*
X181559887Y-57178628D02*
X181178935Y-57178628D01*
X182178935Y-57654819D02*
X182178935Y-56654819D01*
X182845601Y-56654819D02*
X183036077Y-56654819D01*
X183036077Y-56654819D02*
X183131315Y-56702438D01*
X183131315Y-56702438D02*
X183226553Y-56797676D01*
X183226553Y-56797676D02*
X183274172Y-56988152D01*
X183274172Y-56988152D02*
X183274172Y-57321485D01*
X183274172Y-57321485D02*
X183226553Y-57511961D01*
X183226553Y-57511961D02*
X183131315Y-57607200D01*
X183131315Y-57607200D02*
X183036077Y-57654819D01*
X183036077Y-57654819D02*
X182845601Y-57654819D01*
X182845601Y-57654819D02*
X182750363Y-57607200D01*
X182750363Y-57607200D02*
X182655125Y-57511961D01*
X182655125Y-57511961D02*
X182607506Y-57321485D01*
X182607506Y-57321485D02*
X182607506Y-56988152D01*
X182607506Y-56988152D02*
X182655125Y-56797676D01*
X182655125Y-56797676D02*
X182750363Y-56702438D01*
X182750363Y-56702438D02*
X182845601Y-56654819D01*
X184131315Y-56988152D02*
X184131315Y-57654819D01*
X183893220Y-56607200D02*
X183655125Y-57321485D01*
X183655125Y-57321485D02*
X184274172Y-57321485D01*
X184559887Y-56654819D02*
X185178934Y-56654819D01*
X185178934Y-56654819D02*
X184845601Y-57035771D01*
X184845601Y-57035771D02*
X184988458Y-57035771D01*
X184988458Y-57035771D02*
X185083696Y-57083390D01*
X185083696Y-57083390D02*
X185131315Y-57131009D01*
X185131315Y-57131009D02*
X185178934Y-57226247D01*
X185178934Y-57226247D02*
X185178934Y-57464342D01*
X185178934Y-57464342D02*
X185131315Y-57559580D01*
X185131315Y-57559580D02*
X185083696Y-57607200D01*
X185083696Y-57607200D02*
X184988458Y-57654819D01*
X184988458Y-57654819D02*
X184702744Y-57654819D01*
X184702744Y-57654819D02*
X184607506Y-57607200D01*
X184607506Y-57607200D02*
X184559887Y-57559580D01*
X186321791Y-56607200D02*
X185464649Y-57892914D01*
X186655125Y-56654819D02*
X186655125Y-57464342D01*
X186655125Y-57464342D02*
X186702744Y-57559580D01*
X186702744Y-57559580D02*
X186750363Y-57607200D01*
X186750363Y-57607200D02*
X186845601Y-57654819D01*
X186845601Y-57654819D02*
X187036077Y-57654819D01*
X187036077Y-57654819D02*
X187131315Y-57607200D01*
X187131315Y-57607200D02*
X187178934Y-57559580D01*
X187178934Y-57559580D02*
X187226553Y-57464342D01*
X187226553Y-57464342D02*
X187226553Y-56654819D01*
X187893220Y-56654819D02*
X187988458Y-56654819D01*
X187988458Y-56654819D02*
X188083696Y-56702438D01*
X188083696Y-56702438D02*
X188131315Y-56750057D01*
X188131315Y-56750057D02*
X188178934Y-56845295D01*
X188178934Y-56845295D02*
X188226553Y-57035771D01*
X188226553Y-57035771D02*
X188226553Y-57273866D01*
X188226553Y-57273866D02*
X188178934Y-57464342D01*
X188178934Y-57464342D02*
X188131315Y-57559580D01*
X188131315Y-57559580D02*
X188083696Y-57607200D01*
X188083696Y-57607200D02*
X187988458Y-57654819D01*
X187988458Y-57654819D02*
X187893220Y-57654819D01*
X187893220Y-57654819D02*
X187797982Y-57607200D01*
X187797982Y-57607200D02*
X187750363Y-57559580D01*
X187750363Y-57559580D02*
X187702744Y-57464342D01*
X187702744Y-57464342D02*
X187655125Y-57273866D01*
X187655125Y-57273866D02*
X187655125Y-57035771D01*
X187655125Y-57035771D02*
X187702744Y-56845295D01*
X187702744Y-56845295D02*
X187750363Y-56750057D01*
X187750363Y-56750057D02*
X187797982Y-56702438D01*
X187797982Y-56702438D02*
X187893220Y-56654819D01*
X188512268Y-56654819D02*
X189083696Y-56654819D01*
X188797982Y-57654819D02*
X188797982Y-56654819D01*
X189321792Y-56654819D02*
X189988458Y-57654819D01*
X189988458Y-56654819D02*
X189321792Y-57654819D01*
X190369411Y-57654819D02*
X190369411Y-56654819D01*
X190369411Y-56654819D02*
X190607506Y-56654819D01*
X190607506Y-56654819D02*
X190750363Y-56702438D01*
X190750363Y-56702438D02*
X190845601Y-56797676D01*
X190845601Y-56797676D02*
X190893220Y-56892914D01*
X190893220Y-56892914D02*
X190940839Y-57083390D01*
X190940839Y-57083390D02*
X190940839Y-57226247D01*
X190940839Y-57226247D02*
X190893220Y-57416723D01*
X190893220Y-57416723D02*
X190845601Y-57511961D01*
X190845601Y-57511961D02*
X190750363Y-57607200D01*
X190750363Y-57607200D02*
X190607506Y-57654819D01*
X190607506Y-57654819D02*
X190369411Y-57654819D01*
X180464649Y-59242438D02*
X180369411Y-59194819D01*
X180369411Y-59194819D02*
X180226554Y-59194819D01*
X180226554Y-59194819D02*
X180083697Y-59242438D01*
X180083697Y-59242438D02*
X179988459Y-59337676D01*
X179988459Y-59337676D02*
X179940840Y-59432914D01*
X179940840Y-59432914D02*
X179893221Y-59623390D01*
X179893221Y-59623390D02*
X179893221Y-59766247D01*
X179893221Y-59766247D02*
X179940840Y-59956723D01*
X179940840Y-59956723D02*
X179988459Y-60051961D01*
X179988459Y-60051961D02*
X180083697Y-60147200D01*
X180083697Y-60147200D02*
X180226554Y-60194819D01*
X180226554Y-60194819D02*
X180321792Y-60194819D01*
X180321792Y-60194819D02*
X180464649Y-60147200D01*
X180464649Y-60147200D02*
X180512268Y-60099580D01*
X180512268Y-60099580D02*
X180512268Y-59766247D01*
X180512268Y-59766247D02*
X180321792Y-59766247D01*
X180940840Y-60194819D02*
X180940840Y-59194819D01*
X180940840Y-59194819D02*
X181321792Y-59194819D01*
X181321792Y-59194819D02*
X181417030Y-59242438D01*
X181417030Y-59242438D02*
X181464649Y-59290057D01*
X181464649Y-59290057D02*
X181512268Y-59385295D01*
X181512268Y-59385295D02*
X181512268Y-59528152D01*
X181512268Y-59528152D02*
X181464649Y-59623390D01*
X181464649Y-59623390D02*
X181417030Y-59671009D01*
X181417030Y-59671009D02*
X181321792Y-59718628D01*
X181321792Y-59718628D02*
X180940840Y-59718628D01*
X181940840Y-60194819D02*
X181940840Y-59194819D01*
X182607506Y-59194819D02*
X182797982Y-59194819D01*
X182797982Y-59194819D02*
X182893220Y-59242438D01*
X182893220Y-59242438D02*
X182988458Y-59337676D01*
X182988458Y-59337676D02*
X183036077Y-59528152D01*
X183036077Y-59528152D02*
X183036077Y-59861485D01*
X183036077Y-59861485D02*
X182988458Y-60051961D01*
X182988458Y-60051961D02*
X182893220Y-60147200D01*
X182893220Y-60147200D02*
X182797982Y-60194819D01*
X182797982Y-60194819D02*
X182607506Y-60194819D01*
X182607506Y-60194819D02*
X182512268Y-60147200D01*
X182512268Y-60147200D02*
X182417030Y-60051961D01*
X182417030Y-60051961D02*
X182369411Y-59861485D01*
X182369411Y-59861485D02*
X182369411Y-59528152D01*
X182369411Y-59528152D02*
X182417030Y-59337676D01*
X182417030Y-59337676D02*
X182512268Y-59242438D01*
X182512268Y-59242438D02*
X182607506Y-59194819D01*
X183893220Y-59528152D02*
X183893220Y-60194819D01*
X183655125Y-59147200D02*
X183417030Y-59861485D01*
X183417030Y-59861485D02*
X184036077Y-59861485D01*
X184845601Y-59528152D02*
X184845601Y-60194819D01*
X184607506Y-59147200D02*
X184369411Y-59861485D01*
X184369411Y-59861485D02*
X184988458Y-59861485D01*
X186083696Y-59147200D02*
X185226554Y-60432914D01*
X186417030Y-59194819D02*
X186417030Y-60004342D01*
X186417030Y-60004342D02*
X186464649Y-60099580D01*
X186464649Y-60099580D02*
X186512268Y-60147200D01*
X186512268Y-60147200D02*
X186607506Y-60194819D01*
X186607506Y-60194819D02*
X186797982Y-60194819D01*
X186797982Y-60194819D02*
X186893220Y-60147200D01*
X186893220Y-60147200D02*
X186940839Y-60099580D01*
X186940839Y-60099580D02*
X186988458Y-60004342D01*
X186988458Y-60004342D02*
X186988458Y-59194819D01*
X187655125Y-59194819D02*
X187750363Y-59194819D01*
X187750363Y-59194819D02*
X187845601Y-59242438D01*
X187845601Y-59242438D02*
X187893220Y-59290057D01*
X187893220Y-59290057D02*
X187940839Y-59385295D01*
X187940839Y-59385295D02*
X187988458Y-59575771D01*
X187988458Y-59575771D02*
X187988458Y-59813866D01*
X187988458Y-59813866D02*
X187940839Y-60004342D01*
X187940839Y-60004342D02*
X187893220Y-60099580D01*
X187893220Y-60099580D02*
X187845601Y-60147200D01*
X187845601Y-60147200D02*
X187750363Y-60194819D01*
X187750363Y-60194819D02*
X187655125Y-60194819D01*
X187655125Y-60194819D02*
X187559887Y-60147200D01*
X187559887Y-60147200D02*
X187512268Y-60099580D01*
X187512268Y-60099580D02*
X187464649Y-60004342D01*
X187464649Y-60004342D02*
X187417030Y-59813866D01*
X187417030Y-59813866D02*
X187417030Y-59575771D01*
X187417030Y-59575771D02*
X187464649Y-59385295D01*
X187464649Y-59385295D02*
X187512268Y-59290057D01*
X187512268Y-59290057D02*
X187559887Y-59242438D01*
X187559887Y-59242438D02*
X187655125Y-59194819D01*
X188988458Y-60194819D02*
X188655125Y-59718628D01*
X188417030Y-60194819D02*
X188417030Y-59194819D01*
X188417030Y-59194819D02*
X188797982Y-59194819D01*
X188797982Y-59194819D02*
X188893220Y-59242438D01*
X188893220Y-59242438D02*
X188940839Y-59290057D01*
X188940839Y-59290057D02*
X188988458Y-59385295D01*
X188988458Y-59385295D02*
X188988458Y-59528152D01*
X188988458Y-59528152D02*
X188940839Y-59623390D01*
X188940839Y-59623390D02*
X188893220Y-59671009D01*
X188893220Y-59671009D02*
X188797982Y-59718628D01*
X188797982Y-59718628D02*
X188417030Y-59718628D01*
X189321792Y-59194819D02*
X189988458Y-60194819D01*
X189988458Y-59194819D02*
X189321792Y-60194819D01*
X190369411Y-60194819D02*
X190369411Y-59194819D01*
X190369411Y-59194819D02*
X190607506Y-59194819D01*
X190607506Y-59194819D02*
X190750363Y-59242438D01*
X190750363Y-59242438D02*
X190845601Y-59337676D01*
X190845601Y-59337676D02*
X190893220Y-59432914D01*
X190893220Y-59432914D02*
X190940839Y-59623390D01*
X190940839Y-59623390D02*
X190940839Y-59766247D01*
X190940839Y-59766247D02*
X190893220Y-59956723D01*
X190893220Y-59956723D02*
X190845601Y-60051961D01*
X190845601Y-60051961D02*
X190750363Y-60147200D01*
X190750363Y-60147200D02*
X190607506Y-60194819D01*
X190607506Y-60194819D02*
X190369411Y-60194819D01*
X187417030Y-61782438D02*
X187321792Y-61734819D01*
X187321792Y-61734819D02*
X187178935Y-61734819D01*
X187178935Y-61734819D02*
X187036078Y-61782438D01*
X187036078Y-61782438D02*
X186940840Y-61877676D01*
X186940840Y-61877676D02*
X186893221Y-61972914D01*
X186893221Y-61972914D02*
X186845602Y-62163390D01*
X186845602Y-62163390D02*
X186845602Y-62306247D01*
X186845602Y-62306247D02*
X186893221Y-62496723D01*
X186893221Y-62496723D02*
X186940840Y-62591961D01*
X186940840Y-62591961D02*
X187036078Y-62687200D01*
X187036078Y-62687200D02*
X187178935Y-62734819D01*
X187178935Y-62734819D02*
X187274173Y-62734819D01*
X187274173Y-62734819D02*
X187417030Y-62687200D01*
X187417030Y-62687200D02*
X187464649Y-62639580D01*
X187464649Y-62639580D02*
X187464649Y-62306247D01*
X187464649Y-62306247D02*
X187274173Y-62306247D01*
X187893221Y-62734819D02*
X187893221Y-61734819D01*
X187893221Y-61734819D02*
X188274173Y-61734819D01*
X188274173Y-61734819D02*
X188369411Y-61782438D01*
X188369411Y-61782438D02*
X188417030Y-61830057D01*
X188417030Y-61830057D02*
X188464649Y-61925295D01*
X188464649Y-61925295D02*
X188464649Y-62068152D01*
X188464649Y-62068152D02*
X188417030Y-62163390D01*
X188417030Y-62163390D02*
X188369411Y-62211009D01*
X188369411Y-62211009D02*
X188274173Y-62258628D01*
X188274173Y-62258628D02*
X187893221Y-62258628D01*
X188893221Y-62734819D02*
X188893221Y-61734819D01*
X189559887Y-61734819D02*
X189750363Y-61734819D01*
X189750363Y-61734819D02*
X189845601Y-61782438D01*
X189845601Y-61782438D02*
X189940839Y-61877676D01*
X189940839Y-61877676D02*
X189988458Y-62068152D01*
X189988458Y-62068152D02*
X189988458Y-62401485D01*
X189988458Y-62401485D02*
X189940839Y-62591961D01*
X189940839Y-62591961D02*
X189845601Y-62687200D01*
X189845601Y-62687200D02*
X189750363Y-62734819D01*
X189750363Y-62734819D02*
X189559887Y-62734819D01*
X189559887Y-62734819D02*
X189464649Y-62687200D01*
X189464649Y-62687200D02*
X189369411Y-62591961D01*
X189369411Y-62591961D02*
X189321792Y-62401485D01*
X189321792Y-62401485D02*
X189321792Y-62068152D01*
X189321792Y-62068152D02*
X189369411Y-61877676D01*
X189369411Y-61877676D02*
X189464649Y-61782438D01*
X189464649Y-61782438D02*
X189559887Y-61734819D01*
X190940839Y-62734819D02*
X190369411Y-62734819D01*
X190655125Y-62734819D02*
X190655125Y-61734819D01*
X190655125Y-61734819D02*
X190559887Y-61877676D01*
X190559887Y-61877676D02*
X190464649Y-61972914D01*
X190464649Y-61972914D02*
X190369411Y-62020533D01*
X187417030Y-64322438D02*
X187321792Y-64274819D01*
X187321792Y-64274819D02*
X187178935Y-64274819D01*
X187178935Y-64274819D02*
X187036078Y-64322438D01*
X187036078Y-64322438D02*
X186940840Y-64417676D01*
X186940840Y-64417676D02*
X186893221Y-64512914D01*
X186893221Y-64512914D02*
X186845602Y-64703390D01*
X186845602Y-64703390D02*
X186845602Y-64846247D01*
X186845602Y-64846247D02*
X186893221Y-65036723D01*
X186893221Y-65036723D02*
X186940840Y-65131961D01*
X186940840Y-65131961D02*
X187036078Y-65227200D01*
X187036078Y-65227200D02*
X187178935Y-65274819D01*
X187178935Y-65274819D02*
X187274173Y-65274819D01*
X187274173Y-65274819D02*
X187417030Y-65227200D01*
X187417030Y-65227200D02*
X187464649Y-65179580D01*
X187464649Y-65179580D02*
X187464649Y-64846247D01*
X187464649Y-64846247D02*
X187274173Y-64846247D01*
X187893221Y-65274819D02*
X187893221Y-64274819D01*
X187893221Y-64274819D02*
X188274173Y-64274819D01*
X188274173Y-64274819D02*
X188369411Y-64322438D01*
X188369411Y-64322438D02*
X188417030Y-64370057D01*
X188417030Y-64370057D02*
X188464649Y-64465295D01*
X188464649Y-64465295D02*
X188464649Y-64608152D01*
X188464649Y-64608152D02*
X188417030Y-64703390D01*
X188417030Y-64703390D02*
X188369411Y-64751009D01*
X188369411Y-64751009D02*
X188274173Y-64798628D01*
X188274173Y-64798628D02*
X187893221Y-64798628D01*
X188893221Y-65274819D02*
X188893221Y-64274819D01*
X189559887Y-64274819D02*
X189750363Y-64274819D01*
X189750363Y-64274819D02*
X189845601Y-64322438D01*
X189845601Y-64322438D02*
X189940839Y-64417676D01*
X189940839Y-64417676D02*
X189988458Y-64608152D01*
X189988458Y-64608152D02*
X189988458Y-64941485D01*
X189988458Y-64941485D02*
X189940839Y-65131961D01*
X189940839Y-65131961D02*
X189845601Y-65227200D01*
X189845601Y-65227200D02*
X189750363Y-65274819D01*
X189750363Y-65274819D02*
X189559887Y-65274819D01*
X189559887Y-65274819D02*
X189464649Y-65227200D01*
X189464649Y-65227200D02*
X189369411Y-65131961D01*
X189369411Y-65131961D02*
X189321792Y-64941485D01*
X189321792Y-64941485D02*
X189321792Y-64608152D01*
X189321792Y-64608152D02*
X189369411Y-64417676D01*
X189369411Y-64417676D02*
X189464649Y-64322438D01*
X189464649Y-64322438D02*
X189559887Y-64274819D01*
X190369411Y-64370057D02*
X190417030Y-64322438D01*
X190417030Y-64322438D02*
X190512268Y-64274819D01*
X190512268Y-64274819D02*
X190750363Y-64274819D01*
X190750363Y-64274819D02*
X190845601Y-64322438D01*
X190845601Y-64322438D02*
X190893220Y-64370057D01*
X190893220Y-64370057D02*
X190940839Y-64465295D01*
X190940839Y-64465295D02*
X190940839Y-64560533D01*
X190940839Y-64560533D02*
X190893220Y-64703390D01*
X190893220Y-64703390D02*
X190321792Y-65274819D01*
X190321792Y-65274819D02*
X190940839Y-65274819D01*
X181417030Y-66862438D02*
X181321792Y-66814819D01*
X181321792Y-66814819D02*
X181178935Y-66814819D01*
X181178935Y-66814819D02*
X181036078Y-66862438D01*
X181036078Y-66862438D02*
X180940840Y-66957676D01*
X180940840Y-66957676D02*
X180893221Y-67052914D01*
X180893221Y-67052914D02*
X180845602Y-67243390D01*
X180845602Y-67243390D02*
X180845602Y-67386247D01*
X180845602Y-67386247D02*
X180893221Y-67576723D01*
X180893221Y-67576723D02*
X180940840Y-67671961D01*
X180940840Y-67671961D02*
X181036078Y-67767200D01*
X181036078Y-67767200D02*
X181178935Y-67814819D01*
X181178935Y-67814819D02*
X181274173Y-67814819D01*
X181274173Y-67814819D02*
X181417030Y-67767200D01*
X181417030Y-67767200D02*
X181464649Y-67719580D01*
X181464649Y-67719580D02*
X181464649Y-67386247D01*
X181464649Y-67386247D02*
X181274173Y-67386247D01*
X181893221Y-67814819D02*
X181893221Y-66814819D01*
X181893221Y-66814819D02*
X182274173Y-66814819D01*
X182274173Y-66814819D02*
X182369411Y-66862438D01*
X182369411Y-66862438D02*
X182417030Y-66910057D01*
X182417030Y-66910057D02*
X182464649Y-67005295D01*
X182464649Y-67005295D02*
X182464649Y-67148152D01*
X182464649Y-67148152D02*
X182417030Y-67243390D01*
X182417030Y-67243390D02*
X182369411Y-67291009D01*
X182369411Y-67291009D02*
X182274173Y-67338628D01*
X182274173Y-67338628D02*
X181893221Y-67338628D01*
X182893221Y-67814819D02*
X182893221Y-66814819D01*
X183559887Y-66814819D02*
X183750363Y-66814819D01*
X183750363Y-66814819D02*
X183845601Y-66862438D01*
X183845601Y-66862438D02*
X183940839Y-66957676D01*
X183940839Y-66957676D02*
X183988458Y-67148152D01*
X183988458Y-67148152D02*
X183988458Y-67481485D01*
X183988458Y-67481485D02*
X183940839Y-67671961D01*
X183940839Y-67671961D02*
X183845601Y-67767200D01*
X183845601Y-67767200D02*
X183750363Y-67814819D01*
X183750363Y-67814819D02*
X183559887Y-67814819D01*
X183559887Y-67814819D02*
X183464649Y-67767200D01*
X183464649Y-67767200D02*
X183369411Y-67671961D01*
X183369411Y-67671961D02*
X183321792Y-67481485D01*
X183321792Y-67481485D02*
X183321792Y-67148152D01*
X183321792Y-67148152D02*
X183369411Y-66957676D01*
X183369411Y-66957676D02*
X183464649Y-66862438D01*
X183464649Y-66862438D02*
X183559887Y-66814819D01*
X184845601Y-67148152D02*
X184845601Y-67814819D01*
X184607506Y-66767200D02*
X184369411Y-67481485D01*
X184369411Y-67481485D02*
X184988458Y-67481485D01*
X185321792Y-66910057D02*
X185369411Y-66862438D01*
X185369411Y-66862438D02*
X185464649Y-66814819D01*
X185464649Y-66814819D02*
X185702744Y-66814819D01*
X185702744Y-66814819D02*
X185797982Y-66862438D01*
X185797982Y-66862438D02*
X185845601Y-66910057D01*
X185845601Y-66910057D02*
X185893220Y-67005295D01*
X185893220Y-67005295D02*
X185893220Y-67100533D01*
X185893220Y-67100533D02*
X185845601Y-67243390D01*
X185845601Y-67243390D02*
X185274173Y-67814819D01*
X185274173Y-67814819D02*
X185893220Y-67814819D01*
X187036077Y-66767200D02*
X186178935Y-68052914D01*
X187369411Y-67814819D02*
X187369411Y-66814819D01*
X187369411Y-66814819D02*
X187702744Y-67529104D01*
X187702744Y-67529104D02*
X188036077Y-66814819D01*
X188036077Y-66814819D02*
X188036077Y-67814819D01*
X188369411Y-66814819D02*
X188940839Y-66814819D01*
X188655125Y-67814819D02*
X188655125Y-66814819D01*
X189274173Y-67814819D02*
X189274173Y-66814819D01*
X189274173Y-66814819D02*
X189607506Y-67529104D01*
X189607506Y-67529104D02*
X189940839Y-66814819D01*
X189940839Y-66814819D02*
X189940839Y-67814819D01*
X190369411Y-67767200D02*
X190512268Y-67814819D01*
X190512268Y-67814819D02*
X190750363Y-67814819D01*
X190750363Y-67814819D02*
X190845601Y-67767200D01*
X190845601Y-67767200D02*
X190893220Y-67719580D01*
X190893220Y-67719580D02*
X190940839Y-67624342D01*
X190940839Y-67624342D02*
X190940839Y-67529104D01*
X190940839Y-67529104D02*
X190893220Y-67433866D01*
X190893220Y-67433866D02*
X190845601Y-67386247D01*
X190845601Y-67386247D02*
X190750363Y-67338628D01*
X190750363Y-67338628D02*
X190559887Y-67291009D01*
X190559887Y-67291009D02*
X190464649Y-67243390D01*
X190464649Y-67243390D02*
X190417030Y-67195771D01*
X190417030Y-67195771D02*
X190369411Y-67100533D01*
X190369411Y-67100533D02*
X190369411Y-67005295D01*
X190369411Y-67005295D02*
X190417030Y-66910057D01*
X190417030Y-66910057D02*
X190464649Y-66862438D01*
X190464649Y-66862438D02*
X190559887Y-66814819D01*
X190559887Y-66814819D02*
X190797982Y-66814819D01*
X190797982Y-66814819D02*
X190940839Y-66862438D01*
X182036078Y-69402438D02*
X181940840Y-69354819D01*
X181940840Y-69354819D02*
X181797983Y-69354819D01*
X181797983Y-69354819D02*
X181655126Y-69402438D01*
X181655126Y-69402438D02*
X181559888Y-69497676D01*
X181559888Y-69497676D02*
X181512269Y-69592914D01*
X181512269Y-69592914D02*
X181464650Y-69783390D01*
X181464650Y-69783390D02*
X181464650Y-69926247D01*
X181464650Y-69926247D02*
X181512269Y-70116723D01*
X181512269Y-70116723D02*
X181559888Y-70211961D01*
X181559888Y-70211961D02*
X181655126Y-70307200D01*
X181655126Y-70307200D02*
X181797983Y-70354819D01*
X181797983Y-70354819D02*
X181893221Y-70354819D01*
X181893221Y-70354819D02*
X182036078Y-70307200D01*
X182036078Y-70307200D02*
X182083697Y-70259580D01*
X182083697Y-70259580D02*
X182083697Y-69926247D01*
X182083697Y-69926247D02*
X181893221Y-69926247D01*
X182512269Y-70354819D02*
X182512269Y-69354819D01*
X182512269Y-69354819D02*
X182893221Y-69354819D01*
X182893221Y-69354819D02*
X182988459Y-69402438D01*
X182988459Y-69402438D02*
X183036078Y-69450057D01*
X183036078Y-69450057D02*
X183083697Y-69545295D01*
X183083697Y-69545295D02*
X183083697Y-69688152D01*
X183083697Y-69688152D02*
X183036078Y-69783390D01*
X183036078Y-69783390D02*
X182988459Y-69831009D01*
X182988459Y-69831009D02*
X182893221Y-69878628D01*
X182893221Y-69878628D02*
X182512269Y-69878628D01*
X183512269Y-70354819D02*
X183512269Y-69354819D01*
X184178935Y-69354819D02*
X184369411Y-69354819D01*
X184369411Y-69354819D02*
X184464649Y-69402438D01*
X184464649Y-69402438D02*
X184559887Y-69497676D01*
X184559887Y-69497676D02*
X184607506Y-69688152D01*
X184607506Y-69688152D02*
X184607506Y-70021485D01*
X184607506Y-70021485D02*
X184559887Y-70211961D01*
X184559887Y-70211961D02*
X184464649Y-70307200D01*
X184464649Y-70307200D02*
X184369411Y-70354819D01*
X184369411Y-70354819D02*
X184178935Y-70354819D01*
X184178935Y-70354819D02*
X184083697Y-70307200D01*
X184083697Y-70307200D02*
X183988459Y-70211961D01*
X183988459Y-70211961D02*
X183940840Y-70021485D01*
X183940840Y-70021485D02*
X183940840Y-69688152D01*
X183940840Y-69688152D02*
X183988459Y-69497676D01*
X183988459Y-69497676D02*
X184083697Y-69402438D01*
X184083697Y-69402438D02*
X184178935Y-69354819D01*
X185464649Y-69688152D02*
X185464649Y-70354819D01*
X185226554Y-69307200D02*
X184988459Y-70021485D01*
X184988459Y-70021485D02*
X185607506Y-70021485D01*
X186512268Y-70354819D02*
X185940840Y-70354819D01*
X186226554Y-70354819D02*
X186226554Y-69354819D01*
X186226554Y-69354819D02*
X186131316Y-69497676D01*
X186131316Y-69497676D02*
X186036078Y-69592914D01*
X186036078Y-69592914D02*
X185940840Y-69640533D01*
X187655125Y-69307200D02*
X186797983Y-70592914D01*
X187988459Y-70354819D02*
X187988459Y-69354819D01*
X187988459Y-69354819D02*
X188321792Y-70069104D01*
X188321792Y-70069104D02*
X188655125Y-69354819D01*
X188655125Y-69354819D02*
X188655125Y-70354819D01*
X188988459Y-69354819D02*
X189559887Y-69354819D01*
X189274173Y-70354819D02*
X189274173Y-69354819D01*
X189893221Y-70354819D02*
X189893221Y-69354819D01*
X189893221Y-69354819D02*
X190131316Y-69354819D01*
X190131316Y-69354819D02*
X190274173Y-69402438D01*
X190274173Y-69402438D02*
X190369411Y-69497676D01*
X190369411Y-69497676D02*
X190417030Y-69592914D01*
X190417030Y-69592914D02*
X190464649Y-69783390D01*
X190464649Y-69783390D02*
X190464649Y-69926247D01*
X190464649Y-69926247D02*
X190417030Y-70116723D01*
X190417030Y-70116723D02*
X190369411Y-70211961D01*
X190369411Y-70211961D02*
X190274173Y-70307200D01*
X190274173Y-70307200D02*
X190131316Y-70354819D01*
X190131316Y-70354819D02*
X189893221Y-70354819D01*
X190893221Y-70354819D02*
X190893221Y-69354819D01*
X181464649Y-71942438D02*
X181369411Y-71894819D01*
X181369411Y-71894819D02*
X181226554Y-71894819D01*
X181226554Y-71894819D02*
X181083697Y-71942438D01*
X181083697Y-71942438D02*
X180988459Y-72037676D01*
X180988459Y-72037676D02*
X180940840Y-72132914D01*
X180940840Y-72132914D02*
X180893221Y-72323390D01*
X180893221Y-72323390D02*
X180893221Y-72466247D01*
X180893221Y-72466247D02*
X180940840Y-72656723D01*
X180940840Y-72656723D02*
X180988459Y-72751961D01*
X180988459Y-72751961D02*
X181083697Y-72847200D01*
X181083697Y-72847200D02*
X181226554Y-72894819D01*
X181226554Y-72894819D02*
X181321792Y-72894819D01*
X181321792Y-72894819D02*
X181464649Y-72847200D01*
X181464649Y-72847200D02*
X181512268Y-72799580D01*
X181512268Y-72799580D02*
X181512268Y-72466247D01*
X181512268Y-72466247D02*
X181321792Y-72466247D01*
X181940840Y-72894819D02*
X181940840Y-71894819D01*
X181940840Y-71894819D02*
X182321792Y-71894819D01*
X182321792Y-71894819D02*
X182417030Y-71942438D01*
X182417030Y-71942438D02*
X182464649Y-71990057D01*
X182464649Y-71990057D02*
X182512268Y-72085295D01*
X182512268Y-72085295D02*
X182512268Y-72228152D01*
X182512268Y-72228152D02*
X182464649Y-72323390D01*
X182464649Y-72323390D02*
X182417030Y-72371009D01*
X182417030Y-72371009D02*
X182321792Y-72418628D01*
X182321792Y-72418628D02*
X181940840Y-72418628D01*
X182940840Y-72894819D02*
X182940840Y-71894819D01*
X183607506Y-71894819D02*
X183797982Y-71894819D01*
X183797982Y-71894819D02*
X183893220Y-71942438D01*
X183893220Y-71942438D02*
X183988458Y-72037676D01*
X183988458Y-72037676D02*
X184036077Y-72228152D01*
X184036077Y-72228152D02*
X184036077Y-72561485D01*
X184036077Y-72561485D02*
X183988458Y-72751961D01*
X183988458Y-72751961D02*
X183893220Y-72847200D01*
X183893220Y-72847200D02*
X183797982Y-72894819D01*
X183797982Y-72894819D02*
X183607506Y-72894819D01*
X183607506Y-72894819D02*
X183512268Y-72847200D01*
X183512268Y-72847200D02*
X183417030Y-72751961D01*
X183417030Y-72751961D02*
X183369411Y-72561485D01*
X183369411Y-72561485D02*
X183369411Y-72228152D01*
X183369411Y-72228152D02*
X183417030Y-72037676D01*
X183417030Y-72037676D02*
X183512268Y-71942438D01*
X183512268Y-71942438D02*
X183607506Y-71894819D01*
X184893220Y-72228152D02*
X184893220Y-72894819D01*
X184655125Y-71847200D02*
X184417030Y-72561485D01*
X184417030Y-72561485D02*
X185036077Y-72561485D01*
X185607506Y-71894819D02*
X185702744Y-71894819D01*
X185702744Y-71894819D02*
X185797982Y-71942438D01*
X185797982Y-71942438D02*
X185845601Y-71990057D01*
X185845601Y-71990057D02*
X185893220Y-72085295D01*
X185893220Y-72085295D02*
X185940839Y-72275771D01*
X185940839Y-72275771D02*
X185940839Y-72513866D01*
X185940839Y-72513866D02*
X185893220Y-72704342D01*
X185893220Y-72704342D02*
X185845601Y-72799580D01*
X185845601Y-72799580D02*
X185797982Y-72847200D01*
X185797982Y-72847200D02*
X185702744Y-72894819D01*
X185702744Y-72894819D02*
X185607506Y-72894819D01*
X185607506Y-72894819D02*
X185512268Y-72847200D01*
X185512268Y-72847200D02*
X185464649Y-72799580D01*
X185464649Y-72799580D02*
X185417030Y-72704342D01*
X185417030Y-72704342D02*
X185369411Y-72513866D01*
X185369411Y-72513866D02*
X185369411Y-72275771D01*
X185369411Y-72275771D02*
X185417030Y-72085295D01*
X185417030Y-72085295D02*
X185464649Y-71990057D01*
X185464649Y-71990057D02*
X185512268Y-71942438D01*
X185512268Y-71942438D02*
X185607506Y-71894819D01*
X187083696Y-71847200D02*
X186226554Y-73132914D01*
X187417030Y-72894819D02*
X187417030Y-71894819D01*
X187417030Y-71894819D02*
X187750363Y-72609104D01*
X187750363Y-72609104D02*
X188083696Y-71894819D01*
X188083696Y-71894819D02*
X188083696Y-72894819D01*
X188417030Y-71894819D02*
X188988458Y-71894819D01*
X188702744Y-72894819D02*
X188702744Y-71894819D01*
X189321792Y-72894819D02*
X189321792Y-71894819D01*
X189321792Y-71894819D02*
X189559887Y-71894819D01*
X189559887Y-71894819D02*
X189702744Y-71942438D01*
X189702744Y-71942438D02*
X189797982Y-72037676D01*
X189797982Y-72037676D02*
X189845601Y-72132914D01*
X189845601Y-72132914D02*
X189893220Y-72323390D01*
X189893220Y-72323390D02*
X189893220Y-72466247D01*
X189893220Y-72466247D02*
X189845601Y-72656723D01*
X189845601Y-72656723D02*
X189797982Y-72751961D01*
X189797982Y-72751961D02*
X189702744Y-72847200D01*
X189702744Y-72847200D02*
X189559887Y-72894819D01*
X189559887Y-72894819D02*
X189321792Y-72894819D01*
X190512268Y-71894819D02*
X190702744Y-71894819D01*
X190702744Y-71894819D02*
X190797982Y-71942438D01*
X190797982Y-71942438D02*
X190893220Y-72037676D01*
X190893220Y-72037676D02*
X190940839Y-72228152D01*
X190940839Y-72228152D02*
X190940839Y-72561485D01*
X190940839Y-72561485D02*
X190893220Y-72751961D01*
X190893220Y-72751961D02*
X190797982Y-72847200D01*
X190797982Y-72847200D02*
X190702744Y-72894819D01*
X190702744Y-72894819D02*
X190512268Y-72894819D01*
X190512268Y-72894819D02*
X190417030Y-72847200D01*
X190417030Y-72847200D02*
X190321792Y-72751961D01*
X190321792Y-72751961D02*
X190274173Y-72561485D01*
X190274173Y-72561485D02*
X190274173Y-72228152D01*
X190274173Y-72228152D02*
X190321792Y-72037676D01*
X190321792Y-72037676D02*
X190417030Y-71942438D01*
X190417030Y-71942438D02*
X190512268Y-71894819D01*
X181512268Y-74482438D02*
X181417030Y-74434819D01*
X181417030Y-74434819D02*
X181274173Y-74434819D01*
X181274173Y-74434819D02*
X181131316Y-74482438D01*
X181131316Y-74482438D02*
X181036078Y-74577676D01*
X181036078Y-74577676D02*
X180988459Y-74672914D01*
X180988459Y-74672914D02*
X180940840Y-74863390D01*
X180940840Y-74863390D02*
X180940840Y-75006247D01*
X180940840Y-75006247D02*
X180988459Y-75196723D01*
X180988459Y-75196723D02*
X181036078Y-75291961D01*
X181036078Y-75291961D02*
X181131316Y-75387200D01*
X181131316Y-75387200D02*
X181274173Y-75434819D01*
X181274173Y-75434819D02*
X181369411Y-75434819D01*
X181369411Y-75434819D02*
X181512268Y-75387200D01*
X181512268Y-75387200D02*
X181559887Y-75339580D01*
X181559887Y-75339580D02*
X181559887Y-75006247D01*
X181559887Y-75006247D02*
X181369411Y-75006247D01*
X181988459Y-75434819D02*
X181988459Y-74434819D01*
X181988459Y-74434819D02*
X182369411Y-74434819D01*
X182369411Y-74434819D02*
X182464649Y-74482438D01*
X182464649Y-74482438D02*
X182512268Y-74530057D01*
X182512268Y-74530057D02*
X182559887Y-74625295D01*
X182559887Y-74625295D02*
X182559887Y-74768152D01*
X182559887Y-74768152D02*
X182512268Y-74863390D01*
X182512268Y-74863390D02*
X182464649Y-74911009D01*
X182464649Y-74911009D02*
X182369411Y-74958628D01*
X182369411Y-74958628D02*
X181988459Y-74958628D01*
X182988459Y-75434819D02*
X182988459Y-74434819D01*
X183655125Y-74434819D02*
X183845601Y-74434819D01*
X183845601Y-74434819D02*
X183940839Y-74482438D01*
X183940839Y-74482438D02*
X184036077Y-74577676D01*
X184036077Y-74577676D02*
X184083696Y-74768152D01*
X184083696Y-74768152D02*
X184083696Y-75101485D01*
X184083696Y-75101485D02*
X184036077Y-75291961D01*
X184036077Y-75291961D02*
X183940839Y-75387200D01*
X183940839Y-75387200D02*
X183845601Y-75434819D01*
X183845601Y-75434819D02*
X183655125Y-75434819D01*
X183655125Y-75434819D02*
X183559887Y-75387200D01*
X183559887Y-75387200D02*
X183464649Y-75291961D01*
X183464649Y-75291961D02*
X183417030Y-75101485D01*
X183417030Y-75101485D02*
X183417030Y-74768152D01*
X183417030Y-74768152D02*
X183464649Y-74577676D01*
X183464649Y-74577676D02*
X183559887Y-74482438D01*
X183559887Y-74482438D02*
X183655125Y-74434819D01*
X184417030Y-74434819D02*
X185036077Y-74434819D01*
X185036077Y-74434819D02*
X184702744Y-74815771D01*
X184702744Y-74815771D02*
X184845601Y-74815771D01*
X184845601Y-74815771D02*
X184940839Y-74863390D01*
X184940839Y-74863390D02*
X184988458Y-74911009D01*
X184988458Y-74911009D02*
X185036077Y-75006247D01*
X185036077Y-75006247D02*
X185036077Y-75244342D01*
X185036077Y-75244342D02*
X184988458Y-75339580D01*
X184988458Y-75339580D02*
X184940839Y-75387200D01*
X184940839Y-75387200D02*
X184845601Y-75434819D01*
X184845601Y-75434819D02*
X184559887Y-75434819D01*
X184559887Y-75434819D02*
X184464649Y-75387200D01*
X184464649Y-75387200D02*
X184417030Y-75339580D01*
X185512268Y-75434819D02*
X185702744Y-75434819D01*
X185702744Y-75434819D02*
X185797982Y-75387200D01*
X185797982Y-75387200D02*
X185845601Y-75339580D01*
X185845601Y-75339580D02*
X185940839Y-75196723D01*
X185940839Y-75196723D02*
X185988458Y-75006247D01*
X185988458Y-75006247D02*
X185988458Y-74625295D01*
X185988458Y-74625295D02*
X185940839Y-74530057D01*
X185940839Y-74530057D02*
X185893220Y-74482438D01*
X185893220Y-74482438D02*
X185797982Y-74434819D01*
X185797982Y-74434819D02*
X185607506Y-74434819D01*
X185607506Y-74434819D02*
X185512268Y-74482438D01*
X185512268Y-74482438D02*
X185464649Y-74530057D01*
X185464649Y-74530057D02*
X185417030Y-74625295D01*
X185417030Y-74625295D02*
X185417030Y-74863390D01*
X185417030Y-74863390D02*
X185464649Y-74958628D01*
X185464649Y-74958628D02*
X185512268Y-75006247D01*
X185512268Y-75006247D02*
X185607506Y-75053866D01*
X185607506Y-75053866D02*
X185797982Y-75053866D01*
X185797982Y-75053866D02*
X185893220Y-75006247D01*
X185893220Y-75006247D02*
X185940839Y-74958628D01*
X185940839Y-74958628D02*
X185988458Y-74863390D01*
X187131315Y-74387200D02*
X186274173Y-75672914D01*
X187464649Y-75434819D02*
X187464649Y-74434819D01*
X187464649Y-74434819D02*
X187797982Y-75149104D01*
X187797982Y-75149104D02*
X188131315Y-74434819D01*
X188131315Y-74434819D02*
X188131315Y-75434819D01*
X188464649Y-74434819D02*
X189036077Y-74434819D01*
X188750363Y-75434819D02*
X188750363Y-74434819D01*
X189940839Y-75339580D02*
X189893220Y-75387200D01*
X189893220Y-75387200D02*
X189750363Y-75434819D01*
X189750363Y-75434819D02*
X189655125Y-75434819D01*
X189655125Y-75434819D02*
X189512268Y-75387200D01*
X189512268Y-75387200D02*
X189417030Y-75291961D01*
X189417030Y-75291961D02*
X189369411Y-75196723D01*
X189369411Y-75196723D02*
X189321792Y-75006247D01*
X189321792Y-75006247D02*
X189321792Y-74863390D01*
X189321792Y-74863390D02*
X189369411Y-74672914D01*
X189369411Y-74672914D02*
X189417030Y-74577676D01*
X189417030Y-74577676D02*
X189512268Y-74482438D01*
X189512268Y-74482438D02*
X189655125Y-74434819D01*
X189655125Y-74434819D02*
X189750363Y-74434819D01*
X189750363Y-74434819D02*
X189893220Y-74482438D01*
X189893220Y-74482438D02*
X189940839Y-74530057D01*
X190369411Y-75434819D02*
X190369411Y-74434819D01*
X190940839Y-75434819D02*
X190512268Y-74863390D01*
X190940839Y-74434819D02*
X190369411Y-75006247D01*
X186464649Y-77022438D02*
X186369411Y-76974819D01*
X186369411Y-76974819D02*
X186226554Y-76974819D01*
X186226554Y-76974819D02*
X186083697Y-77022438D01*
X186083697Y-77022438D02*
X185988459Y-77117676D01*
X185988459Y-77117676D02*
X185940840Y-77212914D01*
X185940840Y-77212914D02*
X185893221Y-77403390D01*
X185893221Y-77403390D02*
X185893221Y-77546247D01*
X185893221Y-77546247D02*
X185940840Y-77736723D01*
X185940840Y-77736723D02*
X185988459Y-77831961D01*
X185988459Y-77831961D02*
X186083697Y-77927200D01*
X186083697Y-77927200D02*
X186226554Y-77974819D01*
X186226554Y-77974819D02*
X186321792Y-77974819D01*
X186321792Y-77974819D02*
X186464649Y-77927200D01*
X186464649Y-77927200D02*
X186512268Y-77879580D01*
X186512268Y-77879580D02*
X186512268Y-77546247D01*
X186512268Y-77546247D02*
X186321792Y-77546247D01*
X186940840Y-77974819D02*
X186940840Y-76974819D01*
X186940840Y-76974819D02*
X187321792Y-76974819D01*
X187321792Y-76974819D02*
X187417030Y-77022438D01*
X187417030Y-77022438D02*
X187464649Y-77070057D01*
X187464649Y-77070057D02*
X187512268Y-77165295D01*
X187512268Y-77165295D02*
X187512268Y-77308152D01*
X187512268Y-77308152D02*
X187464649Y-77403390D01*
X187464649Y-77403390D02*
X187417030Y-77451009D01*
X187417030Y-77451009D02*
X187321792Y-77498628D01*
X187321792Y-77498628D02*
X186940840Y-77498628D01*
X187940840Y-77974819D02*
X187940840Y-76974819D01*
X188607506Y-76974819D02*
X188797982Y-76974819D01*
X188797982Y-76974819D02*
X188893220Y-77022438D01*
X188893220Y-77022438D02*
X188988458Y-77117676D01*
X188988458Y-77117676D02*
X189036077Y-77308152D01*
X189036077Y-77308152D02*
X189036077Y-77641485D01*
X189036077Y-77641485D02*
X188988458Y-77831961D01*
X188988458Y-77831961D02*
X188893220Y-77927200D01*
X188893220Y-77927200D02*
X188797982Y-77974819D01*
X188797982Y-77974819D02*
X188607506Y-77974819D01*
X188607506Y-77974819D02*
X188512268Y-77927200D01*
X188512268Y-77927200D02*
X188417030Y-77831961D01*
X188417030Y-77831961D02*
X188369411Y-77641485D01*
X188369411Y-77641485D02*
X188369411Y-77308152D01*
X188369411Y-77308152D02*
X188417030Y-77117676D01*
X188417030Y-77117676D02*
X188512268Y-77022438D01*
X188512268Y-77022438D02*
X188607506Y-76974819D01*
X189369411Y-76974819D02*
X189988458Y-76974819D01*
X189988458Y-76974819D02*
X189655125Y-77355771D01*
X189655125Y-77355771D02*
X189797982Y-77355771D01*
X189797982Y-77355771D02*
X189893220Y-77403390D01*
X189893220Y-77403390D02*
X189940839Y-77451009D01*
X189940839Y-77451009D02*
X189988458Y-77546247D01*
X189988458Y-77546247D02*
X189988458Y-77784342D01*
X189988458Y-77784342D02*
X189940839Y-77879580D01*
X189940839Y-77879580D02*
X189893220Y-77927200D01*
X189893220Y-77927200D02*
X189797982Y-77974819D01*
X189797982Y-77974819D02*
X189512268Y-77974819D01*
X189512268Y-77974819D02*
X189417030Y-77927200D01*
X189417030Y-77927200D02*
X189369411Y-77879580D01*
X190559887Y-77403390D02*
X190464649Y-77355771D01*
X190464649Y-77355771D02*
X190417030Y-77308152D01*
X190417030Y-77308152D02*
X190369411Y-77212914D01*
X190369411Y-77212914D02*
X190369411Y-77165295D01*
X190369411Y-77165295D02*
X190417030Y-77070057D01*
X190417030Y-77070057D02*
X190464649Y-77022438D01*
X190464649Y-77022438D02*
X190559887Y-76974819D01*
X190559887Y-76974819D02*
X190750363Y-76974819D01*
X190750363Y-76974819D02*
X190845601Y-77022438D01*
X190845601Y-77022438D02*
X190893220Y-77070057D01*
X190893220Y-77070057D02*
X190940839Y-77165295D01*
X190940839Y-77165295D02*
X190940839Y-77212914D01*
X190940839Y-77212914D02*
X190893220Y-77308152D01*
X190893220Y-77308152D02*
X190845601Y-77355771D01*
X190845601Y-77355771D02*
X190750363Y-77403390D01*
X190750363Y-77403390D02*
X190559887Y-77403390D01*
X190559887Y-77403390D02*
X190464649Y-77451009D01*
X190464649Y-77451009D02*
X190417030Y-77498628D01*
X190417030Y-77498628D02*
X190369411Y-77593866D01*
X190369411Y-77593866D02*
X190369411Y-77784342D01*
X190369411Y-77784342D02*
X190417030Y-77879580D01*
X190417030Y-77879580D02*
X190464649Y-77927200D01*
X190464649Y-77927200D02*
X190559887Y-77974819D01*
X190559887Y-77974819D02*
X190750363Y-77974819D01*
X190750363Y-77974819D02*
X190845601Y-77927200D01*
X190845601Y-77927200D02*
X190893220Y-77879580D01*
X190893220Y-77879580D02*
X190940839Y-77784342D01*
X190940839Y-77784342D02*
X190940839Y-77593866D01*
X190940839Y-77593866D02*
X190893220Y-77498628D01*
X190893220Y-77498628D02*
X190845601Y-77451009D01*
X190845601Y-77451009D02*
X190750363Y-77403390D01*
X186464649Y-79562438D02*
X186369411Y-79514819D01*
X186369411Y-79514819D02*
X186226554Y-79514819D01*
X186226554Y-79514819D02*
X186083697Y-79562438D01*
X186083697Y-79562438D02*
X185988459Y-79657676D01*
X185988459Y-79657676D02*
X185940840Y-79752914D01*
X185940840Y-79752914D02*
X185893221Y-79943390D01*
X185893221Y-79943390D02*
X185893221Y-80086247D01*
X185893221Y-80086247D02*
X185940840Y-80276723D01*
X185940840Y-80276723D02*
X185988459Y-80371961D01*
X185988459Y-80371961D02*
X186083697Y-80467200D01*
X186083697Y-80467200D02*
X186226554Y-80514819D01*
X186226554Y-80514819D02*
X186321792Y-80514819D01*
X186321792Y-80514819D02*
X186464649Y-80467200D01*
X186464649Y-80467200D02*
X186512268Y-80419580D01*
X186512268Y-80419580D02*
X186512268Y-80086247D01*
X186512268Y-80086247D02*
X186321792Y-80086247D01*
X186940840Y-80514819D02*
X186940840Y-79514819D01*
X186940840Y-79514819D02*
X187321792Y-79514819D01*
X187321792Y-79514819D02*
X187417030Y-79562438D01*
X187417030Y-79562438D02*
X187464649Y-79610057D01*
X187464649Y-79610057D02*
X187512268Y-79705295D01*
X187512268Y-79705295D02*
X187512268Y-79848152D01*
X187512268Y-79848152D02*
X187464649Y-79943390D01*
X187464649Y-79943390D02*
X187417030Y-79991009D01*
X187417030Y-79991009D02*
X187321792Y-80038628D01*
X187321792Y-80038628D02*
X186940840Y-80038628D01*
X187940840Y-80514819D02*
X187940840Y-79514819D01*
X188607506Y-79514819D02*
X188797982Y-79514819D01*
X188797982Y-79514819D02*
X188893220Y-79562438D01*
X188893220Y-79562438D02*
X188988458Y-79657676D01*
X188988458Y-79657676D02*
X189036077Y-79848152D01*
X189036077Y-79848152D02*
X189036077Y-80181485D01*
X189036077Y-80181485D02*
X188988458Y-80371961D01*
X188988458Y-80371961D02*
X188893220Y-80467200D01*
X188893220Y-80467200D02*
X188797982Y-80514819D01*
X188797982Y-80514819D02*
X188607506Y-80514819D01*
X188607506Y-80514819D02*
X188512268Y-80467200D01*
X188512268Y-80467200D02*
X188417030Y-80371961D01*
X188417030Y-80371961D02*
X188369411Y-80181485D01*
X188369411Y-80181485D02*
X188369411Y-79848152D01*
X188369411Y-79848152D02*
X188417030Y-79657676D01*
X188417030Y-79657676D02*
X188512268Y-79562438D01*
X188512268Y-79562438D02*
X188607506Y-79514819D01*
X189369411Y-79514819D02*
X189988458Y-79514819D01*
X189988458Y-79514819D02*
X189655125Y-79895771D01*
X189655125Y-79895771D02*
X189797982Y-79895771D01*
X189797982Y-79895771D02*
X189893220Y-79943390D01*
X189893220Y-79943390D02*
X189940839Y-79991009D01*
X189940839Y-79991009D02*
X189988458Y-80086247D01*
X189988458Y-80086247D02*
X189988458Y-80324342D01*
X189988458Y-80324342D02*
X189940839Y-80419580D01*
X189940839Y-80419580D02*
X189893220Y-80467200D01*
X189893220Y-80467200D02*
X189797982Y-80514819D01*
X189797982Y-80514819D02*
X189512268Y-80514819D01*
X189512268Y-80514819D02*
X189417030Y-80467200D01*
X189417030Y-80467200D02*
X189369411Y-80419580D01*
X190321792Y-79514819D02*
X190988458Y-79514819D01*
X190988458Y-79514819D02*
X190559887Y-80514819D01*
X186464649Y-82102438D02*
X186369411Y-82054819D01*
X186369411Y-82054819D02*
X186226554Y-82054819D01*
X186226554Y-82054819D02*
X186083697Y-82102438D01*
X186083697Y-82102438D02*
X185988459Y-82197676D01*
X185988459Y-82197676D02*
X185940840Y-82292914D01*
X185940840Y-82292914D02*
X185893221Y-82483390D01*
X185893221Y-82483390D02*
X185893221Y-82626247D01*
X185893221Y-82626247D02*
X185940840Y-82816723D01*
X185940840Y-82816723D02*
X185988459Y-82911961D01*
X185988459Y-82911961D02*
X186083697Y-83007200D01*
X186083697Y-83007200D02*
X186226554Y-83054819D01*
X186226554Y-83054819D02*
X186321792Y-83054819D01*
X186321792Y-83054819D02*
X186464649Y-83007200D01*
X186464649Y-83007200D02*
X186512268Y-82959580D01*
X186512268Y-82959580D02*
X186512268Y-82626247D01*
X186512268Y-82626247D02*
X186321792Y-82626247D01*
X186940840Y-83054819D02*
X186940840Y-82054819D01*
X186940840Y-82054819D02*
X187321792Y-82054819D01*
X187321792Y-82054819D02*
X187417030Y-82102438D01*
X187417030Y-82102438D02*
X187464649Y-82150057D01*
X187464649Y-82150057D02*
X187512268Y-82245295D01*
X187512268Y-82245295D02*
X187512268Y-82388152D01*
X187512268Y-82388152D02*
X187464649Y-82483390D01*
X187464649Y-82483390D02*
X187417030Y-82531009D01*
X187417030Y-82531009D02*
X187321792Y-82578628D01*
X187321792Y-82578628D02*
X186940840Y-82578628D01*
X187940840Y-83054819D02*
X187940840Y-82054819D01*
X188607506Y-82054819D02*
X188797982Y-82054819D01*
X188797982Y-82054819D02*
X188893220Y-82102438D01*
X188893220Y-82102438D02*
X188988458Y-82197676D01*
X188988458Y-82197676D02*
X189036077Y-82388152D01*
X189036077Y-82388152D02*
X189036077Y-82721485D01*
X189036077Y-82721485D02*
X188988458Y-82911961D01*
X188988458Y-82911961D02*
X188893220Y-83007200D01*
X188893220Y-83007200D02*
X188797982Y-83054819D01*
X188797982Y-83054819D02*
X188607506Y-83054819D01*
X188607506Y-83054819D02*
X188512268Y-83007200D01*
X188512268Y-83007200D02*
X188417030Y-82911961D01*
X188417030Y-82911961D02*
X188369411Y-82721485D01*
X188369411Y-82721485D02*
X188369411Y-82388152D01*
X188369411Y-82388152D02*
X188417030Y-82197676D01*
X188417030Y-82197676D02*
X188512268Y-82102438D01*
X188512268Y-82102438D02*
X188607506Y-82054819D01*
X189369411Y-82054819D02*
X189988458Y-82054819D01*
X189988458Y-82054819D02*
X189655125Y-82435771D01*
X189655125Y-82435771D02*
X189797982Y-82435771D01*
X189797982Y-82435771D02*
X189893220Y-82483390D01*
X189893220Y-82483390D02*
X189940839Y-82531009D01*
X189940839Y-82531009D02*
X189988458Y-82626247D01*
X189988458Y-82626247D02*
X189988458Y-82864342D01*
X189988458Y-82864342D02*
X189940839Y-82959580D01*
X189940839Y-82959580D02*
X189893220Y-83007200D01*
X189893220Y-83007200D02*
X189797982Y-83054819D01*
X189797982Y-83054819D02*
X189512268Y-83054819D01*
X189512268Y-83054819D02*
X189417030Y-83007200D01*
X189417030Y-83007200D02*
X189369411Y-82959580D01*
X190845601Y-82054819D02*
X190655125Y-82054819D01*
X190655125Y-82054819D02*
X190559887Y-82102438D01*
X190559887Y-82102438D02*
X190512268Y-82150057D01*
X190512268Y-82150057D02*
X190417030Y-82292914D01*
X190417030Y-82292914D02*
X190369411Y-82483390D01*
X190369411Y-82483390D02*
X190369411Y-82864342D01*
X190369411Y-82864342D02*
X190417030Y-82959580D01*
X190417030Y-82959580D02*
X190464649Y-83007200D01*
X190464649Y-83007200D02*
X190559887Y-83054819D01*
X190559887Y-83054819D02*
X190750363Y-83054819D01*
X190750363Y-83054819D02*
X190845601Y-83007200D01*
X190845601Y-83007200D02*
X190893220Y-82959580D01*
X190893220Y-82959580D02*
X190940839Y-82864342D01*
X190940839Y-82864342D02*
X190940839Y-82626247D01*
X190940839Y-82626247D02*
X190893220Y-82531009D01*
X190893220Y-82531009D02*
X190845601Y-82483390D01*
X190845601Y-82483390D02*
X190750363Y-82435771D01*
X190750363Y-82435771D02*
X190559887Y-82435771D01*
X190559887Y-82435771D02*
X190464649Y-82483390D01*
X190464649Y-82483390D02*
X190417030Y-82531009D01*
X190417030Y-82531009D02*
X190369411Y-82626247D01*
X186464649Y-84642438D02*
X186369411Y-84594819D01*
X186369411Y-84594819D02*
X186226554Y-84594819D01*
X186226554Y-84594819D02*
X186083697Y-84642438D01*
X186083697Y-84642438D02*
X185988459Y-84737676D01*
X185988459Y-84737676D02*
X185940840Y-84832914D01*
X185940840Y-84832914D02*
X185893221Y-85023390D01*
X185893221Y-85023390D02*
X185893221Y-85166247D01*
X185893221Y-85166247D02*
X185940840Y-85356723D01*
X185940840Y-85356723D02*
X185988459Y-85451961D01*
X185988459Y-85451961D02*
X186083697Y-85547200D01*
X186083697Y-85547200D02*
X186226554Y-85594819D01*
X186226554Y-85594819D02*
X186321792Y-85594819D01*
X186321792Y-85594819D02*
X186464649Y-85547200D01*
X186464649Y-85547200D02*
X186512268Y-85499580D01*
X186512268Y-85499580D02*
X186512268Y-85166247D01*
X186512268Y-85166247D02*
X186321792Y-85166247D01*
X186940840Y-85594819D02*
X186940840Y-84594819D01*
X186940840Y-84594819D02*
X187321792Y-84594819D01*
X187321792Y-84594819D02*
X187417030Y-84642438D01*
X187417030Y-84642438D02*
X187464649Y-84690057D01*
X187464649Y-84690057D02*
X187512268Y-84785295D01*
X187512268Y-84785295D02*
X187512268Y-84928152D01*
X187512268Y-84928152D02*
X187464649Y-85023390D01*
X187464649Y-85023390D02*
X187417030Y-85071009D01*
X187417030Y-85071009D02*
X187321792Y-85118628D01*
X187321792Y-85118628D02*
X186940840Y-85118628D01*
X187940840Y-85594819D02*
X187940840Y-84594819D01*
X188607506Y-84594819D02*
X188797982Y-84594819D01*
X188797982Y-84594819D02*
X188893220Y-84642438D01*
X188893220Y-84642438D02*
X188988458Y-84737676D01*
X188988458Y-84737676D02*
X189036077Y-84928152D01*
X189036077Y-84928152D02*
X189036077Y-85261485D01*
X189036077Y-85261485D02*
X188988458Y-85451961D01*
X188988458Y-85451961D02*
X188893220Y-85547200D01*
X188893220Y-85547200D02*
X188797982Y-85594819D01*
X188797982Y-85594819D02*
X188607506Y-85594819D01*
X188607506Y-85594819D02*
X188512268Y-85547200D01*
X188512268Y-85547200D02*
X188417030Y-85451961D01*
X188417030Y-85451961D02*
X188369411Y-85261485D01*
X188369411Y-85261485D02*
X188369411Y-84928152D01*
X188369411Y-84928152D02*
X188417030Y-84737676D01*
X188417030Y-84737676D02*
X188512268Y-84642438D01*
X188512268Y-84642438D02*
X188607506Y-84594819D01*
X189369411Y-84594819D02*
X189988458Y-84594819D01*
X189988458Y-84594819D02*
X189655125Y-84975771D01*
X189655125Y-84975771D02*
X189797982Y-84975771D01*
X189797982Y-84975771D02*
X189893220Y-85023390D01*
X189893220Y-85023390D02*
X189940839Y-85071009D01*
X189940839Y-85071009D02*
X189988458Y-85166247D01*
X189988458Y-85166247D02*
X189988458Y-85404342D01*
X189988458Y-85404342D02*
X189940839Y-85499580D01*
X189940839Y-85499580D02*
X189893220Y-85547200D01*
X189893220Y-85547200D02*
X189797982Y-85594819D01*
X189797982Y-85594819D02*
X189512268Y-85594819D01*
X189512268Y-85594819D02*
X189417030Y-85547200D01*
X189417030Y-85547200D02*
X189369411Y-85499580D01*
X190893220Y-84594819D02*
X190417030Y-84594819D01*
X190417030Y-84594819D02*
X190369411Y-85071009D01*
X190369411Y-85071009D02*
X190417030Y-85023390D01*
X190417030Y-85023390D02*
X190512268Y-84975771D01*
X190512268Y-84975771D02*
X190750363Y-84975771D01*
X190750363Y-84975771D02*
X190845601Y-85023390D01*
X190845601Y-85023390D02*
X190893220Y-85071009D01*
X190893220Y-85071009D02*
X190940839Y-85166247D01*
X190940839Y-85166247D02*
X190940839Y-85404342D01*
X190940839Y-85404342D02*
X190893220Y-85499580D01*
X190893220Y-85499580D02*
X190845601Y-85547200D01*
X190845601Y-85547200D02*
X190750363Y-85594819D01*
X190750363Y-85594819D02*
X190512268Y-85594819D01*
X190512268Y-85594819D02*
X190417030Y-85547200D01*
X190417030Y-85547200D02*
X190369411Y-85499580D01*
X187417030Y-87182438D02*
X187321792Y-87134819D01*
X187321792Y-87134819D02*
X187178935Y-87134819D01*
X187178935Y-87134819D02*
X187036078Y-87182438D01*
X187036078Y-87182438D02*
X186940840Y-87277676D01*
X186940840Y-87277676D02*
X186893221Y-87372914D01*
X186893221Y-87372914D02*
X186845602Y-87563390D01*
X186845602Y-87563390D02*
X186845602Y-87706247D01*
X186845602Y-87706247D02*
X186893221Y-87896723D01*
X186893221Y-87896723D02*
X186940840Y-87991961D01*
X186940840Y-87991961D02*
X187036078Y-88087200D01*
X187036078Y-88087200D02*
X187178935Y-88134819D01*
X187178935Y-88134819D02*
X187274173Y-88134819D01*
X187274173Y-88134819D02*
X187417030Y-88087200D01*
X187417030Y-88087200D02*
X187464649Y-88039580D01*
X187464649Y-88039580D02*
X187464649Y-87706247D01*
X187464649Y-87706247D02*
X187274173Y-87706247D01*
X187893221Y-88134819D02*
X187893221Y-87134819D01*
X187893221Y-87134819D02*
X188274173Y-87134819D01*
X188274173Y-87134819D02*
X188369411Y-87182438D01*
X188369411Y-87182438D02*
X188417030Y-87230057D01*
X188417030Y-87230057D02*
X188464649Y-87325295D01*
X188464649Y-87325295D02*
X188464649Y-87468152D01*
X188464649Y-87468152D02*
X188417030Y-87563390D01*
X188417030Y-87563390D02*
X188369411Y-87611009D01*
X188369411Y-87611009D02*
X188274173Y-87658628D01*
X188274173Y-87658628D02*
X187893221Y-87658628D01*
X188893221Y-88134819D02*
X188893221Y-87134819D01*
X189559887Y-87134819D02*
X189750363Y-87134819D01*
X189750363Y-87134819D02*
X189845601Y-87182438D01*
X189845601Y-87182438D02*
X189940839Y-87277676D01*
X189940839Y-87277676D02*
X189988458Y-87468152D01*
X189988458Y-87468152D02*
X189988458Y-87801485D01*
X189988458Y-87801485D02*
X189940839Y-87991961D01*
X189940839Y-87991961D02*
X189845601Y-88087200D01*
X189845601Y-88087200D02*
X189750363Y-88134819D01*
X189750363Y-88134819D02*
X189559887Y-88134819D01*
X189559887Y-88134819D02*
X189464649Y-88087200D01*
X189464649Y-88087200D02*
X189369411Y-87991961D01*
X189369411Y-87991961D02*
X189321792Y-87801485D01*
X189321792Y-87801485D02*
X189321792Y-87468152D01*
X189321792Y-87468152D02*
X189369411Y-87277676D01*
X189369411Y-87277676D02*
X189464649Y-87182438D01*
X189464649Y-87182438D02*
X189559887Y-87134819D01*
X190607506Y-87134819D02*
X190702744Y-87134819D01*
X190702744Y-87134819D02*
X190797982Y-87182438D01*
X190797982Y-87182438D02*
X190845601Y-87230057D01*
X190845601Y-87230057D02*
X190893220Y-87325295D01*
X190893220Y-87325295D02*
X190940839Y-87515771D01*
X190940839Y-87515771D02*
X190940839Y-87753866D01*
X190940839Y-87753866D02*
X190893220Y-87944342D01*
X190893220Y-87944342D02*
X190845601Y-88039580D01*
X190845601Y-88039580D02*
X190797982Y-88087200D01*
X190797982Y-88087200D02*
X190702744Y-88134819D01*
X190702744Y-88134819D02*
X190607506Y-88134819D01*
X190607506Y-88134819D02*
X190512268Y-88087200D01*
X190512268Y-88087200D02*
X190464649Y-88039580D01*
X190464649Y-88039580D02*
X190417030Y-87944342D01*
X190417030Y-87944342D02*
X190369411Y-87753866D01*
X190369411Y-87753866D02*
X190369411Y-87515771D01*
X190369411Y-87515771D02*
X190417030Y-87325295D01*
X190417030Y-87325295D02*
X190464649Y-87230057D01*
X190464649Y-87230057D02*
X190512268Y-87182438D01*
X190512268Y-87182438D02*
X190607506Y-87134819D01*
X186464649Y-89722438D02*
X186369411Y-89674819D01*
X186369411Y-89674819D02*
X186226554Y-89674819D01*
X186226554Y-89674819D02*
X186083697Y-89722438D01*
X186083697Y-89722438D02*
X185988459Y-89817676D01*
X185988459Y-89817676D02*
X185940840Y-89912914D01*
X185940840Y-89912914D02*
X185893221Y-90103390D01*
X185893221Y-90103390D02*
X185893221Y-90246247D01*
X185893221Y-90246247D02*
X185940840Y-90436723D01*
X185940840Y-90436723D02*
X185988459Y-90531961D01*
X185988459Y-90531961D02*
X186083697Y-90627200D01*
X186083697Y-90627200D02*
X186226554Y-90674819D01*
X186226554Y-90674819D02*
X186321792Y-90674819D01*
X186321792Y-90674819D02*
X186464649Y-90627200D01*
X186464649Y-90627200D02*
X186512268Y-90579580D01*
X186512268Y-90579580D02*
X186512268Y-90246247D01*
X186512268Y-90246247D02*
X186321792Y-90246247D01*
X186940840Y-90674819D02*
X186940840Y-89674819D01*
X186940840Y-89674819D02*
X187321792Y-89674819D01*
X187321792Y-89674819D02*
X187417030Y-89722438D01*
X187417030Y-89722438D02*
X187464649Y-89770057D01*
X187464649Y-89770057D02*
X187512268Y-89865295D01*
X187512268Y-89865295D02*
X187512268Y-90008152D01*
X187512268Y-90008152D02*
X187464649Y-90103390D01*
X187464649Y-90103390D02*
X187417030Y-90151009D01*
X187417030Y-90151009D02*
X187321792Y-90198628D01*
X187321792Y-90198628D02*
X186940840Y-90198628D01*
X187940840Y-90674819D02*
X187940840Y-89674819D01*
X188607506Y-89674819D02*
X188797982Y-89674819D01*
X188797982Y-89674819D02*
X188893220Y-89722438D01*
X188893220Y-89722438D02*
X188988458Y-89817676D01*
X188988458Y-89817676D02*
X189036077Y-90008152D01*
X189036077Y-90008152D02*
X189036077Y-90341485D01*
X189036077Y-90341485D02*
X188988458Y-90531961D01*
X188988458Y-90531961D02*
X188893220Y-90627200D01*
X188893220Y-90627200D02*
X188797982Y-90674819D01*
X188797982Y-90674819D02*
X188607506Y-90674819D01*
X188607506Y-90674819D02*
X188512268Y-90627200D01*
X188512268Y-90627200D02*
X188417030Y-90531961D01*
X188417030Y-90531961D02*
X188369411Y-90341485D01*
X188369411Y-90341485D02*
X188369411Y-90008152D01*
X188369411Y-90008152D02*
X188417030Y-89817676D01*
X188417030Y-89817676D02*
X188512268Y-89722438D01*
X188512268Y-89722438D02*
X188607506Y-89674819D01*
X189893220Y-90008152D02*
X189893220Y-90674819D01*
X189655125Y-89627200D02*
X189417030Y-90341485D01*
X189417030Y-90341485D02*
X190036077Y-90341485D01*
X190893220Y-89674819D02*
X190417030Y-89674819D01*
X190417030Y-89674819D02*
X190369411Y-90151009D01*
X190369411Y-90151009D02*
X190417030Y-90103390D01*
X190417030Y-90103390D02*
X190512268Y-90055771D01*
X190512268Y-90055771D02*
X190750363Y-90055771D01*
X190750363Y-90055771D02*
X190845601Y-90103390D01*
X190845601Y-90103390D02*
X190893220Y-90151009D01*
X190893220Y-90151009D02*
X190940839Y-90246247D01*
X190940839Y-90246247D02*
X190940839Y-90484342D01*
X190940839Y-90484342D02*
X190893220Y-90579580D01*
X190893220Y-90579580D02*
X190845601Y-90627200D01*
X190845601Y-90627200D02*
X190750363Y-90674819D01*
X190750363Y-90674819D02*
X190512268Y-90674819D01*
X190512268Y-90674819D02*
X190417030Y-90627200D01*
X190417030Y-90627200D02*
X190369411Y-90579580D01*
X186464649Y-92262438D02*
X186369411Y-92214819D01*
X186369411Y-92214819D02*
X186226554Y-92214819D01*
X186226554Y-92214819D02*
X186083697Y-92262438D01*
X186083697Y-92262438D02*
X185988459Y-92357676D01*
X185988459Y-92357676D02*
X185940840Y-92452914D01*
X185940840Y-92452914D02*
X185893221Y-92643390D01*
X185893221Y-92643390D02*
X185893221Y-92786247D01*
X185893221Y-92786247D02*
X185940840Y-92976723D01*
X185940840Y-92976723D02*
X185988459Y-93071961D01*
X185988459Y-93071961D02*
X186083697Y-93167200D01*
X186083697Y-93167200D02*
X186226554Y-93214819D01*
X186226554Y-93214819D02*
X186321792Y-93214819D01*
X186321792Y-93214819D02*
X186464649Y-93167200D01*
X186464649Y-93167200D02*
X186512268Y-93119580D01*
X186512268Y-93119580D02*
X186512268Y-92786247D01*
X186512268Y-92786247D02*
X186321792Y-92786247D01*
X186940840Y-93214819D02*
X186940840Y-92214819D01*
X186940840Y-92214819D02*
X187321792Y-92214819D01*
X187321792Y-92214819D02*
X187417030Y-92262438D01*
X187417030Y-92262438D02*
X187464649Y-92310057D01*
X187464649Y-92310057D02*
X187512268Y-92405295D01*
X187512268Y-92405295D02*
X187512268Y-92548152D01*
X187512268Y-92548152D02*
X187464649Y-92643390D01*
X187464649Y-92643390D02*
X187417030Y-92691009D01*
X187417030Y-92691009D02*
X187321792Y-92738628D01*
X187321792Y-92738628D02*
X186940840Y-92738628D01*
X187940840Y-93214819D02*
X187940840Y-92214819D01*
X188607506Y-92214819D02*
X188797982Y-92214819D01*
X188797982Y-92214819D02*
X188893220Y-92262438D01*
X188893220Y-92262438D02*
X188988458Y-92357676D01*
X188988458Y-92357676D02*
X189036077Y-92548152D01*
X189036077Y-92548152D02*
X189036077Y-92881485D01*
X189036077Y-92881485D02*
X188988458Y-93071961D01*
X188988458Y-93071961D02*
X188893220Y-93167200D01*
X188893220Y-93167200D02*
X188797982Y-93214819D01*
X188797982Y-93214819D02*
X188607506Y-93214819D01*
X188607506Y-93214819D02*
X188512268Y-93167200D01*
X188512268Y-93167200D02*
X188417030Y-93071961D01*
X188417030Y-93071961D02*
X188369411Y-92881485D01*
X188369411Y-92881485D02*
X188369411Y-92548152D01*
X188369411Y-92548152D02*
X188417030Y-92357676D01*
X188417030Y-92357676D02*
X188512268Y-92262438D01*
X188512268Y-92262438D02*
X188607506Y-92214819D01*
X189893220Y-92548152D02*
X189893220Y-93214819D01*
X189655125Y-92167200D02*
X189417030Y-92881485D01*
X189417030Y-92881485D02*
X190036077Y-92881485D01*
X190559887Y-92643390D02*
X190464649Y-92595771D01*
X190464649Y-92595771D02*
X190417030Y-92548152D01*
X190417030Y-92548152D02*
X190369411Y-92452914D01*
X190369411Y-92452914D02*
X190369411Y-92405295D01*
X190369411Y-92405295D02*
X190417030Y-92310057D01*
X190417030Y-92310057D02*
X190464649Y-92262438D01*
X190464649Y-92262438D02*
X190559887Y-92214819D01*
X190559887Y-92214819D02*
X190750363Y-92214819D01*
X190750363Y-92214819D02*
X190845601Y-92262438D01*
X190845601Y-92262438D02*
X190893220Y-92310057D01*
X190893220Y-92310057D02*
X190940839Y-92405295D01*
X190940839Y-92405295D02*
X190940839Y-92452914D01*
X190940839Y-92452914D02*
X190893220Y-92548152D01*
X190893220Y-92548152D02*
X190845601Y-92595771D01*
X190845601Y-92595771D02*
X190750363Y-92643390D01*
X190750363Y-92643390D02*
X190559887Y-92643390D01*
X190559887Y-92643390D02*
X190464649Y-92691009D01*
X190464649Y-92691009D02*
X190417030Y-92738628D01*
X190417030Y-92738628D02*
X190369411Y-92833866D01*
X190369411Y-92833866D02*
X190369411Y-93024342D01*
X190369411Y-93024342D02*
X190417030Y-93119580D01*
X190417030Y-93119580D02*
X190464649Y-93167200D01*
X190464649Y-93167200D02*
X190559887Y-93214819D01*
X190559887Y-93214819D02*
X190750363Y-93214819D01*
X190750363Y-93214819D02*
X190845601Y-93167200D01*
X190845601Y-93167200D02*
X190893220Y-93119580D01*
X190893220Y-93119580D02*
X190940839Y-93024342D01*
X190940839Y-93024342D02*
X190940839Y-92833866D01*
X190940839Y-92833866D02*
X190893220Y-92738628D01*
X190893220Y-92738628D02*
X190845601Y-92691009D01*
X190845601Y-92691009D02*
X190750363Y-92643390D01*
X186464649Y-94802438D02*
X186369411Y-94754819D01*
X186369411Y-94754819D02*
X186226554Y-94754819D01*
X186226554Y-94754819D02*
X186083697Y-94802438D01*
X186083697Y-94802438D02*
X185988459Y-94897676D01*
X185988459Y-94897676D02*
X185940840Y-94992914D01*
X185940840Y-94992914D02*
X185893221Y-95183390D01*
X185893221Y-95183390D02*
X185893221Y-95326247D01*
X185893221Y-95326247D02*
X185940840Y-95516723D01*
X185940840Y-95516723D02*
X185988459Y-95611961D01*
X185988459Y-95611961D02*
X186083697Y-95707200D01*
X186083697Y-95707200D02*
X186226554Y-95754819D01*
X186226554Y-95754819D02*
X186321792Y-95754819D01*
X186321792Y-95754819D02*
X186464649Y-95707200D01*
X186464649Y-95707200D02*
X186512268Y-95659580D01*
X186512268Y-95659580D02*
X186512268Y-95326247D01*
X186512268Y-95326247D02*
X186321792Y-95326247D01*
X186940840Y-95754819D02*
X186940840Y-94754819D01*
X186940840Y-94754819D02*
X187321792Y-94754819D01*
X187321792Y-94754819D02*
X187417030Y-94802438D01*
X187417030Y-94802438D02*
X187464649Y-94850057D01*
X187464649Y-94850057D02*
X187512268Y-94945295D01*
X187512268Y-94945295D02*
X187512268Y-95088152D01*
X187512268Y-95088152D02*
X187464649Y-95183390D01*
X187464649Y-95183390D02*
X187417030Y-95231009D01*
X187417030Y-95231009D02*
X187321792Y-95278628D01*
X187321792Y-95278628D02*
X186940840Y-95278628D01*
X187940840Y-95754819D02*
X187940840Y-94754819D01*
X188607506Y-94754819D02*
X188797982Y-94754819D01*
X188797982Y-94754819D02*
X188893220Y-94802438D01*
X188893220Y-94802438D02*
X188988458Y-94897676D01*
X188988458Y-94897676D02*
X189036077Y-95088152D01*
X189036077Y-95088152D02*
X189036077Y-95421485D01*
X189036077Y-95421485D02*
X188988458Y-95611961D01*
X188988458Y-95611961D02*
X188893220Y-95707200D01*
X188893220Y-95707200D02*
X188797982Y-95754819D01*
X188797982Y-95754819D02*
X188607506Y-95754819D01*
X188607506Y-95754819D02*
X188512268Y-95707200D01*
X188512268Y-95707200D02*
X188417030Y-95611961D01*
X188417030Y-95611961D02*
X188369411Y-95421485D01*
X188369411Y-95421485D02*
X188369411Y-95088152D01*
X188369411Y-95088152D02*
X188417030Y-94897676D01*
X188417030Y-94897676D02*
X188512268Y-94802438D01*
X188512268Y-94802438D02*
X188607506Y-94754819D01*
X189893220Y-95088152D02*
X189893220Y-95754819D01*
X189655125Y-94707200D02*
X189417030Y-95421485D01*
X189417030Y-95421485D02*
X190036077Y-95421485D01*
X190321792Y-94754819D02*
X190988458Y-94754819D01*
X190988458Y-94754819D02*
X190559887Y-95754819D01*
X186464649Y-97342438D02*
X186369411Y-97294819D01*
X186369411Y-97294819D02*
X186226554Y-97294819D01*
X186226554Y-97294819D02*
X186083697Y-97342438D01*
X186083697Y-97342438D02*
X185988459Y-97437676D01*
X185988459Y-97437676D02*
X185940840Y-97532914D01*
X185940840Y-97532914D02*
X185893221Y-97723390D01*
X185893221Y-97723390D02*
X185893221Y-97866247D01*
X185893221Y-97866247D02*
X185940840Y-98056723D01*
X185940840Y-98056723D02*
X185988459Y-98151961D01*
X185988459Y-98151961D02*
X186083697Y-98247200D01*
X186083697Y-98247200D02*
X186226554Y-98294819D01*
X186226554Y-98294819D02*
X186321792Y-98294819D01*
X186321792Y-98294819D02*
X186464649Y-98247200D01*
X186464649Y-98247200D02*
X186512268Y-98199580D01*
X186512268Y-98199580D02*
X186512268Y-97866247D01*
X186512268Y-97866247D02*
X186321792Y-97866247D01*
X186940840Y-98294819D02*
X186940840Y-97294819D01*
X186940840Y-97294819D02*
X187321792Y-97294819D01*
X187321792Y-97294819D02*
X187417030Y-97342438D01*
X187417030Y-97342438D02*
X187464649Y-97390057D01*
X187464649Y-97390057D02*
X187512268Y-97485295D01*
X187512268Y-97485295D02*
X187512268Y-97628152D01*
X187512268Y-97628152D02*
X187464649Y-97723390D01*
X187464649Y-97723390D02*
X187417030Y-97771009D01*
X187417030Y-97771009D02*
X187321792Y-97818628D01*
X187321792Y-97818628D02*
X186940840Y-97818628D01*
X187940840Y-98294819D02*
X187940840Y-97294819D01*
X188607506Y-97294819D02*
X188797982Y-97294819D01*
X188797982Y-97294819D02*
X188893220Y-97342438D01*
X188893220Y-97342438D02*
X188988458Y-97437676D01*
X188988458Y-97437676D02*
X189036077Y-97628152D01*
X189036077Y-97628152D02*
X189036077Y-97961485D01*
X189036077Y-97961485D02*
X188988458Y-98151961D01*
X188988458Y-98151961D02*
X188893220Y-98247200D01*
X188893220Y-98247200D02*
X188797982Y-98294819D01*
X188797982Y-98294819D02*
X188607506Y-98294819D01*
X188607506Y-98294819D02*
X188512268Y-98247200D01*
X188512268Y-98247200D02*
X188417030Y-98151961D01*
X188417030Y-98151961D02*
X188369411Y-97961485D01*
X188369411Y-97961485D02*
X188369411Y-97628152D01*
X188369411Y-97628152D02*
X188417030Y-97437676D01*
X188417030Y-97437676D02*
X188512268Y-97342438D01*
X188512268Y-97342438D02*
X188607506Y-97294819D01*
X189417030Y-97390057D02*
X189464649Y-97342438D01*
X189464649Y-97342438D02*
X189559887Y-97294819D01*
X189559887Y-97294819D02*
X189797982Y-97294819D01*
X189797982Y-97294819D02*
X189893220Y-97342438D01*
X189893220Y-97342438D02*
X189940839Y-97390057D01*
X189940839Y-97390057D02*
X189988458Y-97485295D01*
X189988458Y-97485295D02*
X189988458Y-97580533D01*
X189988458Y-97580533D02*
X189940839Y-97723390D01*
X189940839Y-97723390D02*
X189369411Y-98294819D01*
X189369411Y-98294819D02*
X189988458Y-98294819D01*
X190940839Y-98294819D02*
X190369411Y-98294819D01*
X190655125Y-98294819D02*
X190655125Y-97294819D01*
X190655125Y-97294819D02*
X190559887Y-97437676D01*
X190559887Y-97437676D02*
X190464649Y-97532914D01*
X190464649Y-97532914D02*
X190369411Y-97580533D01*
X186464649Y-99882438D02*
X186369411Y-99834819D01*
X186369411Y-99834819D02*
X186226554Y-99834819D01*
X186226554Y-99834819D02*
X186083697Y-99882438D01*
X186083697Y-99882438D02*
X185988459Y-99977676D01*
X185988459Y-99977676D02*
X185940840Y-100072914D01*
X185940840Y-100072914D02*
X185893221Y-100263390D01*
X185893221Y-100263390D02*
X185893221Y-100406247D01*
X185893221Y-100406247D02*
X185940840Y-100596723D01*
X185940840Y-100596723D02*
X185988459Y-100691961D01*
X185988459Y-100691961D02*
X186083697Y-100787200D01*
X186083697Y-100787200D02*
X186226554Y-100834819D01*
X186226554Y-100834819D02*
X186321792Y-100834819D01*
X186321792Y-100834819D02*
X186464649Y-100787200D01*
X186464649Y-100787200D02*
X186512268Y-100739580D01*
X186512268Y-100739580D02*
X186512268Y-100406247D01*
X186512268Y-100406247D02*
X186321792Y-100406247D01*
X186940840Y-100834819D02*
X186940840Y-99834819D01*
X186940840Y-99834819D02*
X187321792Y-99834819D01*
X187321792Y-99834819D02*
X187417030Y-99882438D01*
X187417030Y-99882438D02*
X187464649Y-99930057D01*
X187464649Y-99930057D02*
X187512268Y-100025295D01*
X187512268Y-100025295D02*
X187512268Y-100168152D01*
X187512268Y-100168152D02*
X187464649Y-100263390D01*
X187464649Y-100263390D02*
X187417030Y-100311009D01*
X187417030Y-100311009D02*
X187321792Y-100358628D01*
X187321792Y-100358628D02*
X186940840Y-100358628D01*
X187940840Y-100834819D02*
X187940840Y-99834819D01*
X188607506Y-99834819D02*
X188797982Y-99834819D01*
X188797982Y-99834819D02*
X188893220Y-99882438D01*
X188893220Y-99882438D02*
X188988458Y-99977676D01*
X188988458Y-99977676D02*
X189036077Y-100168152D01*
X189036077Y-100168152D02*
X189036077Y-100501485D01*
X189036077Y-100501485D02*
X188988458Y-100691961D01*
X188988458Y-100691961D02*
X188893220Y-100787200D01*
X188893220Y-100787200D02*
X188797982Y-100834819D01*
X188797982Y-100834819D02*
X188607506Y-100834819D01*
X188607506Y-100834819D02*
X188512268Y-100787200D01*
X188512268Y-100787200D02*
X188417030Y-100691961D01*
X188417030Y-100691961D02*
X188369411Y-100501485D01*
X188369411Y-100501485D02*
X188369411Y-100168152D01*
X188369411Y-100168152D02*
X188417030Y-99977676D01*
X188417030Y-99977676D02*
X188512268Y-99882438D01*
X188512268Y-99882438D02*
X188607506Y-99834819D01*
X189417030Y-99930057D02*
X189464649Y-99882438D01*
X189464649Y-99882438D02*
X189559887Y-99834819D01*
X189559887Y-99834819D02*
X189797982Y-99834819D01*
X189797982Y-99834819D02*
X189893220Y-99882438D01*
X189893220Y-99882438D02*
X189940839Y-99930057D01*
X189940839Y-99930057D02*
X189988458Y-100025295D01*
X189988458Y-100025295D02*
X189988458Y-100120533D01*
X189988458Y-100120533D02*
X189940839Y-100263390D01*
X189940839Y-100263390D02*
X189369411Y-100834819D01*
X189369411Y-100834819D02*
X189988458Y-100834819D01*
X190607506Y-99834819D02*
X190702744Y-99834819D01*
X190702744Y-99834819D02*
X190797982Y-99882438D01*
X190797982Y-99882438D02*
X190845601Y-99930057D01*
X190845601Y-99930057D02*
X190893220Y-100025295D01*
X190893220Y-100025295D02*
X190940839Y-100215771D01*
X190940839Y-100215771D02*
X190940839Y-100453866D01*
X190940839Y-100453866D02*
X190893220Y-100644342D01*
X190893220Y-100644342D02*
X190845601Y-100739580D01*
X190845601Y-100739580D02*
X190797982Y-100787200D01*
X190797982Y-100787200D02*
X190702744Y-100834819D01*
X190702744Y-100834819D02*
X190607506Y-100834819D01*
X190607506Y-100834819D02*
X190512268Y-100787200D01*
X190512268Y-100787200D02*
X190464649Y-100739580D01*
X190464649Y-100739580D02*
X190417030Y-100644342D01*
X190417030Y-100644342D02*
X190369411Y-100453866D01*
X190369411Y-100453866D02*
X190369411Y-100215771D01*
X190369411Y-100215771D02*
X190417030Y-100025295D01*
X190417030Y-100025295D02*
X190464649Y-99930057D01*
X190464649Y-99930057D02*
X190512268Y-99882438D01*
X190512268Y-99882438D02*
X190607506Y-99834819D01*
X186464649Y-102422438D02*
X186369411Y-102374819D01*
X186369411Y-102374819D02*
X186226554Y-102374819D01*
X186226554Y-102374819D02*
X186083697Y-102422438D01*
X186083697Y-102422438D02*
X185988459Y-102517676D01*
X185988459Y-102517676D02*
X185940840Y-102612914D01*
X185940840Y-102612914D02*
X185893221Y-102803390D01*
X185893221Y-102803390D02*
X185893221Y-102946247D01*
X185893221Y-102946247D02*
X185940840Y-103136723D01*
X185940840Y-103136723D02*
X185988459Y-103231961D01*
X185988459Y-103231961D02*
X186083697Y-103327200D01*
X186083697Y-103327200D02*
X186226554Y-103374819D01*
X186226554Y-103374819D02*
X186321792Y-103374819D01*
X186321792Y-103374819D02*
X186464649Y-103327200D01*
X186464649Y-103327200D02*
X186512268Y-103279580D01*
X186512268Y-103279580D02*
X186512268Y-102946247D01*
X186512268Y-102946247D02*
X186321792Y-102946247D01*
X186940840Y-103374819D02*
X186940840Y-102374819D01*
X186940840Y-102374819D02*
X187321792Y-102374819D01*
X187321792Y-102374819D02*
X187417030Y-102422438D01*
X187417030Y-102422438D02*
X187464649Y-102470057D01*
X187464649Y-102470057D02*
X187512268Y-102565295D01*
X187512268Y-102565295D02*
X187512268Y-102708152D01*
X187512268Y-102708152D02*
X187464649Y-102803390D01*
X187464649Y-102803390D02*
X187417030Y-102851009D01*
X187417030Y-102851009D02*
X187321792Y-102898628D01*
X187321792Y-102898628D02*
X186940840Y-102898628D01*
X187940840Y-103374819D02*
X187940840Y-102374819D01*
X188607506Y-102374819D02*
X188797982Y-102374819D01*
X188797982Y-102374819D02*
X188893220Y-102422438D01*
X188893220Y-102422438D02*
X188988458Y-102517676D01*
X188988458Y-102517676D02*
X189036077Y-102708152D01*
X189036077Y-102708152D02*
X189036077Y-103041485D01*
X189036077Y-103041485D02*
X188988458Y-103231961D01*
X188988458Y-103231961D02*
X188893220Y-103327200D01*
X188893220Y-103327200D02*
X188797982Y-103374819D01*
X188797982Y-103374819D02*
X188607506Y-103374819D01*
X188607506Y-103374819D02*
X188512268Y-103327200D01*
X188512268Y-103327200D02*
X188417030Y-103231961D01*
X188417030Y-103231961D02*
X188369411Y-103041485D01*
X188369411Y-103041485D02*
X188369411Y-102708152D01*
X188369411Y-102708152D02*
X188417030Y-102517676D01*
X188417030Y-102517676D02*
X188512268Y-102422438D01*
X188512268Y-102422438D02*
X188607506Y-102374819D01*
X189988458Y-103374819D02*
X189417030Y-103374819D01*
X189702744Y-103374819D02*
X189702744Y-102374819D01*
X189702744Y-102374819D02*
X189607506Y-102517676D01*
X189607506Y-102517676D02*
X189512268Y-102612914D01*
X189512268Y-102612914D02*
X189417030Y-102660533D01*
X190464649Y-103374819D02*
X190655125Y-103374819D01*
X190655125Y-103374819D02*
X190750363Y-103327200D01*
X190750363Y-103327200D02*
X190797982Y-103279580D01*
X190797982Y-103279580D02*
X190893220Y-103136723D01*
X190893220Y-103136723D02*
X190940839Y-102946247D01*
X190940839Y-102946247D02*
X190940839Y-102565295D01*
X190940839Y-102565295D02*
X190893220Y-102470057D01*
X190893220Y-102470057D02*
X190845601Y-102422438D01*
X190845601Y-102422438D02*
X190750363Y-102374819D01*
X190750363Y-102374819D02*
X190559887Y-102374819D01*
X190559887Y-102374819D02*
X190464649Y-102422438D01*
X190464649Y-102422438D02*
X190417030Y-102470057D01*
X190417030Y-102470057D02*
X190369411Y-102565295D01*
X190369411Y-102565295D02*
X190369411Y-102803390D01*
X190369411Y-102803390D02*
X190417030Y-102898628D01*
X190417030Y-102898628D02*
X190464649Y-102946247D01*
X190464649Y-102946247D02*
X190559887Y-102993866D01*
X190559887Y-102993866D02*
X190750363Y-102993866D01*
X190750363Y-102993866D02*
X190845601Y-102946247D01*
X190845601Y-102946247D02*
X190893220Y-102898628D01*
X190893220Y-102898628D02*
X190940839Y-102803390D01*
X188845601Y-104962438D02*
X188750363Y-104914819D01*
X188750363Y-104914819D02*
X188607506Y-104914819D01*
X188607506Y-104914819D02*
X188464649Y-104962438D01*
X188464649Y-104962438D02*
X188369411Y-105057676D01*
X188369411Y-105057676D02*
X188321792Y-105152914D01*
X188321792Y-105152914D02*
X188274173Y-105343390D01*
X188274173Y-105343390D02*
X188274173Y-105486247D01*
X188274173Y-105486247D02*
X188321792Y-105676723D01*
X188321792Y-105676723D02*
X188369411Y-105771961D01*
X188369411Y-105771961D02*
X188464649Y-105867200D01*
X188464649Y-105867200D02*
X188607506Y-105914819D01*
X188607506Y-105914819D02*
X188702744Y-105914819D01*
X188702744Y-105914819D02*
X188845601Y-105867200D01*
X188845601Y-105867200D02*
X188893220Y-105819580D01*
X188893220Y-105819580D02*
X188893220Y-105486247D01*
X188893220Y-105486247D02*
X188702744Y-105486247D01*
X189321792Y-105914819D02*
X189321792Y-104914819D01*
X189321792Y-104914819D02*
X189893220Y-105914819D01*
X189893220Y-105914819D02*
X189893220Y-104914819D01*
X190369411Y-105914819D02*
X190369411Y-104914819D01*
X190369411Y-104914819D02*
X190607506Y-104914819D01*
X190607506Y-104914819D02*
X190750363Y-104962438D01*
X190750363Y-104962438D02*
X190845601Y-105057676D01*
X190845601Y-105057676D02*
X190893220Y-105152914D01*
X190893220Y-105152914D02*
X190940839Y-105343390D01*
X190940839Y-105343390D02*
X190940839Y-105486247D01*
X190940839Y-105486247D02*
X190893220Y-105676723D01*
X190893220Y-105676723D02*
X190845601Y-105771961D01*
X190845601Y-105771961D02*
X190750363Y-105867200D01*
X190750363Y-105867200D02*
X190607506Y-105914819D01*
X190607506Y-105914819D02*
X190369411Y-105914819D01*
X188845601Y-107502438D02*
X188750363Y-107454819D01*
X188750363Y-107454819D02*
X188607506Y-107454819D01*
X188607506Y-107454819D02*
X188464649Y-107502438D01*
X188464649Y-107502438D02*
X188369411Y-107597676D01*
X188369411Y-107597676D02*
X188321792Y-107692914D01*
X188321792Y-107692914D02*
X188274173Y-107883390D01*
X188274173Y-107883390D02*
X188274173Y-108026247D01*
X188274173Y-108026247D02*
X188321792Y-108216723D01*
X188321792Y-108216723D02*
X188369411Y-108311961D01*
X188369411Y-108311961D02*
X188464649Y-108407200D01*
X188464649Y-108407200D02*
X188607506Y-108454819D01*
X188607506Y-108454819D02*
X188702744Y-108454819D01*
X188702744Y-108454819D02*
X188845601Y-108407200D01*
X188845601Y-108407200D02*
X188893220Y-108359580D01*
X188893220Y-108359580D02*
X188893220Y-108026247D01*
X188893220Y-108026247D02*
X188702744Y-108026247D01*
X189321792Y-108454819D02*
X189321792Y-107454819D01*
X189321792Y-107454819D02*
X189893220Y-108454819D01*
X189893220Y-108454819D02*
X189893220Y-107454819D01*
X190369411Y-108454819D02*
X190369411Y-107454819D01*
X190369411Y-107454819D02*
X190607506Y-107454819D01*
X190607506Y-107454819D02*
X190750363Y-107502438D01*
X190750363Y-107502438D02*
X190845601Y-107597676D01*
X190845601Y-107597676D02*
X190893220Y-107692914D01*
X190893220Y-107692914D02*
X190940839Y-107883390D01*
X190940839Y-107883390D02*
X190940839Y-108026247D01*
X190940839Y-108026247D02*
X190893220Y-108216723D01*
X190893220Y-108216723D02*
X190845601Y-108311961D01*
X190845601Y-108311961D02*
X190750363Y-108407200D01*
X190750363Y-108407200D02*
X190607506Y-108454819D01*
X190607506Y-108454819D02*
X190369411Y-108454819D01*
X201633333Y-57254819D02*
X201300000Y-56778628D01*
X201061905Y-57254819D02*
X201061905Y-56254819D01*
X201061905Y-56254819D02*
X201442857Y-56254819D01*
X201442857Y-56254819D02*
X201538095Y-56302438D01*
X201538095Y-56302438D02*
X201585714Y-56350057D01*
X201585714Y-56350057D02*
X201633333Y-56445295D01*
X201633333Y-56445295D02*
X201633333Y-56588152D01*
X201633333Y-56588152D02*
X201585714Y-56683390D01*
X201585714Y-56683390D02*
X201538095Y-56731009D01*
X201538095Y-56731009D02*
X201442857Y-56778628D01*
X201442857Y-56778628D02*
X201061905Y-56778628D01*
X202538095Y-56254819D02*
X202061905Y-56254819D01*
X202061905Y-56254819D02*
X202014286Y-56731009D01*
X202014286Y-56731009D02*
X202061905Y-56683390D01*
X202061905Y-56683390D02*
X202157143Y-56635771D01*
X202157143Y-56635771D02*
X202395238Y-56635771D01*
X202395238Y-56635771D02*
X202490476Y-56683390D01*
X202490476Y-56683390D02*
X202538095Y-56731009D01*
X202538095Y-56731009D02*
X202585714Y-56826247D01*
X202585714Y-56826247D02*
X202585714Y-57064342D01*
X202585714Y-57064342D02*
X202538095Y-57159580D01*
X202538095Y-57159580D02*
X202490476Y-57207200D01*
X202490476Y-57207200D02*
X202395238Y-57254819D01*
X202395238Y-57254819D02*
X202157143Y-57254819D01*
X202157143Y-57254819D02*
X202061905Y-57207200D01*
X202061905Y-57207200D02*
X202014286Y-57159580D01*
X139038095Y-59004819D02*
X139038095Y-58004819D01*
X139038095Y-58481009D02*
X139609523Y-58481009D01*
X139609523Y-59004819D02*
X139609523Y-58004819D01*
X140609523Y-59004819D02*
X140038095Y-59004819D01*
X140323809Y-59004819D02*
X140323809Y-58004819D01*
X140323809Y-58004819D02*
X140228571Y-58147676D01*
X140228571Y-58147676D02*
X140133333Y-58242914D01*
X140133333Y-58242914D02*
X140038095Y-58290533D01*
X160667200Y-58343332D02*
X160714819Y-58200475D01*
X160714819Y-58200475D02*
X160714819Y-57962380D01*
X160714819Y-57962380D02*
X160667200Y-57867142D01*
X160667200Y-57867142D02*
X160619580Y-57819523D01*
X160619580Y-57819523D02*
X160524342Y-57771904D01*
X160524342Y-57771904D02*
X160429104Y-57771904D01*
X160429104Y-57771904D02*
X160333866Y-57819523D01*
X160333866Y-57819523D02*
X160286247Y-57867142D01*
X160286247Y-57867142D02*
X160238628Y-57962380D01*
X160238628Y-57962380D02*
X160191009Y-58152856D01*
X160191009Y-58152856D02*
X160143390Y-58248094D01*
X160143390Y-58248094D02*
X160095771Y-58295713D01*
X160095771Y-58295713D02*
X160000533Y-58343332D01*
X160000533Y-58343332D02*
X159905295Y-58343332D01*
X159905295Y-58343332D02*
X159810057Y-58295713D01*
X159810057Y-58295713D02*
X159762438Y-58248094D01*
X159762438Y-58248094D02*
X159714819Y-58152856D01*
X159714819Y-58152856D02*
X159714819Y-57914761D01*
X159714819Y-57914761D02*
X159762438Y-57771904D01*
X159714819Y-57438570D02*
X160714819Y-57200475D01*
X160714819Y-57200475D02*
X160000533Y-57009999D01*
X160000533Y-57009999D02*
X160714819Y-56819523D01*
X160714819Y-56819523D02*
X159714819Y-56581428D01*
X160714819Y-55676666D02*
X160714819Y-56248094D01*
X160714819Y-55962380D02*
X159714819Y-55962380D01*
X159714819Y-55962380D02*
X159857676Y-56057618D01*
X159857676Y-56057618D02*
X159952914Y-56152856D01*
X159952914Y-56152856D02*
X160000533Y-56248094D01*
X139038095Y-135054819D02*
X139038095Y-134054819D01*
X139038095Y-134531009D02*
X139609523Y-134531009D01*
X139609523Y-135054819D02*
X139609523Y-134054819D01*
X139990476Y-134054819D02*
X140609523Y-134054819D01*
X140609523Y-134054819D02*
X140276190Y-134435771D01*
X140276190Y-134435771D02*
X140419047Y-134435771D01*
X140419047Y-134435771D02*
X140514285Y-134483390D01*
X140514285Y-134483390D02*
X140561904Y-134531009D01*
X140561904Y-134531009D02*
X140609523Y-134626247D01*
X140609523Y-134626247D02*
X140609523Y-134864342D01*
X140609523Y-134864342D02*
X140561904Y-134959580D01*
X140561904Y-134959580D02*
X140514285Y-135007200D01*
X140514285Y-135007200D02*
X140419047Y-135054819D01*
X140419047Y-135054819D02*
X140133333Y-135054819D01*
X140133333Y-135054819D02*
X140038095Y-135007200D01*
X140038095Y-135007200D02*
X139990476Y-134959580D01*
X148838333Y-101654819D02*
X148505000Y-101178628D01*
X148266905Y-101654819D02*
X148266905Y-100654819D01*
X148266905Y-100654819D02*
X148647857Y-100654819D01*
X148647857Y-100654819D02*
X148743095Y-100702438D01*
X148743095Y-100702438D02*
X148790714Y-100750057D01*
X148790714Y-100750057D02*
X148838333Y-100845295D01*
X148838333Y-100845295D02*
X148838333Y-100988152D01*
X148838333Y-100988152D02*
X148790714Y-101083390D01*
X148790714Y-101083390D02*
X148743095Y-101131009D01*
X148743095Y-101131009D02*
X148647857Y-101178628D01*
X148647857Y-101178628D02*
X148266905Y-101178628D01*
X149695476Y-100988152D02*
X149695476Y-101654819D01*
X149457381Y-100607200D02*
X149219286Y-101321485D01*
X149219286Y-101321485D02*
X149838333Y-101321485D01*
X155083333Y-59534819D02*
X154750000Y-59058628D01*
X154511905Y-59534819D02*
X154511905Y-58534819D01*
X154511905Y-58534819D02*
X154892857Y-58534819D01*
X154892857Y-58534819D02*
X154988095Y-58582438D01*
X154988095Y-58582438D02*
X155035714Y-58630057D01*
X155035714Y-58630057D02*
X155083333Y-58725295D01*
X155083333Y-58725295D02*
X155083333Y-58868152D01*
X155083333Y-58868152D02*
X155035714Y-58963390D01*
X155035714Y-58963390D02*
X154988095Y-59011009D01*
X154988095Y-59011009D02*
X154892857Y-59058628D01*
X154892857Y-59058628D02*
X154511905Y-59058628D01*
X156035714Y-59534819D02*
X155464286Y-59534819D01*
X155750000Y-59534819D02*
X155750000Y-58534819D01*
X155750000Y-58534819D02*
X155654762Y-58677676D01*
X155654762Y-58677676D02*
X155559524Y-58772914D01*
X155559524Y-58772914D02*
X155464286Y-58820533D01*
X215807319Y-87059523D02*
X214807319Y-87059523D01*
X214807319Y-87059523D02*
X215521604Y-86726190D01*
X215521604Y-86726190D02*
X214807319Y-86392857D01*
X214807319Y-86392857D02*
X215807319Y-86392857D01*
X215140652Y-85488095D02*
X215807319Y-85488095D01*
X214759700Y-85726190D02*
X215473985Y-85964285D01*
X215473985Y-85964285D02*
X215473985Y-85345238D01*
X166933333Y-53334580D02*
X166885714Y-53382200D01*
X166885714Y-53382200D02*
X166742857Y-53429819D01*
X166742857Y-53429819D02*
X166647619Y-53429819D01*
X166647619Y-53429819D02*
X166504762Y-53382200D01*
X166504762Y-53382200D02*
X166409524Y-53286961D01*
X166409524Y-53286961D02*
X166361905Y-53191723D01*
X166361905Y-53191723D02*
X166314286Y-53001247D01*
X166314286Y-53001247D02*
X166314286Y-52858390D01*
X166314286Y-52858390D02*
X166361905Y-52667914D01*
X166361905Y-52667914D02*
X166409524Y-52572676D01*
X166409524Y-52572676D02*
X166504762Y-52477438D01*
X166504762Y-52477438D02*
X166647619Y-52429819D01*
X166647619Y-52429819D02*
X166742857Y-52429819D01*
X166742857Y-52429819D02*
X166885714Y-52477438D01*
X166885714Y-52477438D02*
X166933333Y-52525057D01*
X167885714Y-53429819D02*
X167314286Y-53429819D01*
X167600000Y-53429819D02*
X167600000Y-52429819D01*
X167600000Y-52429819D02*
X167504762Y-52572676D01*
X167504762Y-52572676D02*
X167409524Y-52667914D01*
X167409524Y-52667914D02*
X167314286Y-52715533D01*
X215288095Y-59004819D02*
X215288095Y-58004819D01*
X215288095Y-58481009D02*
X215859523Y-58481009D01*
X215859523Y-59004819D02*
X215859523Y-58004819D01*
X216288095Y-58100057D02*
X216335714Y-58052438D01*
X216335714Y-58052438D02*
X216430952Y-58004819D01*
X216430952Y-58004819D02*
X216669047Y-58004819D01*
X216669047Y-58004819D02*
X216764285Y-58052438D01*
X216764285Y-58052438D02*
X216811904Y-58100057D01*
X216811904Y-58100057D02*
X216859523Y-58195295D01*
X216859523Y-58195295D02*
X216859523Y-58290533D01*
X216859523Y-58290533D02*
X216811904Y-58433390D01*
X216811904Y-58433390D02*
X216240476Y-59004819D01*
X216240476Y-59004819D02*
X216859523Y-59004819D01*
X215807319Y-74059523D02*
X214807319Y-74059523D01*
X214807319Y-74059523D02*
X215521604Y-73726190D01*
X215521604Y-73726190D02*
X214807319Y-73392857D01*
X214807319Y-73392857D02*
X215807319Y-73392857D01*
X214902557Y-72964285D02*
X214854938Y-72916666D01*
X214854938Y-72916666D02*
X214807319Y-72821428D01*
X214807319Y-72821428D02*
X214807319Y-72583333D01*
X214807319Y-72583333D02*
X214854938Y-72488095D01*
X214854938Y-72488095D02*
X214902557Y-72440476D01*
X214902557Y-72440476D02*
X214997795Y-72392857D01*
X214997795Y-72392857D02*
X215093033Y-72392857D01*
X215093033Y-72392857D02*
X215235890Y-72440476D01*
X215235890Y-72440476D02*
X215807319Y-73011904D01*
X215807319Y-73011904D02*
X215807319Y-72392857D01*
X193916666Y-49704819D02*
X193916666Y-50419104D01*
X193916666Y-50419104D02*
X193869047Y-50561961D01*
X193869047Y-50561961D02*
X193773809Y-50657200D01*
X193773809Y-50657200D02*
X193630952Y-50704819D01*
X193630952Y-50704819D02*
X193535714Y-50704819D01*
X194345238Y-49800057D02*
X194392857Y-49752438D01*
X194392857Y-49752438D02*
X194488095Y-49704819D01*
X194488095Y-49704819D02*
X194726190Y-49704819D01*
X194726190Y-49704819D02*
X194821428Y-49752438D01*
X194821428Y-49752438D02*
X194869047Y-49800057D01*
X194869047Y-49800057D02*
X194916666Y-49895295D01*
X194916666Y-49895295D02*
X194916666Y-49990533D01*
X194916666Y-49990533D02*
X194869047Y-50133390D01*
X194869047Y-50133390D02*
X194297619Y-50704819D01*
X194297619Y-50704819D02*
X194916666Y-50704819D01*
D10*
X212057419Y-119261904D02*
X212866942Y-119261904D01*
X212866942Y-119261904D02*
X212962180Y-119214285D01*
X212962180Y-119214285D02*
X213009800Y-119166666D01*
X213009800Y-119166666D02*
X213057419Y-119071428D01*
X213057419Y-119071428D02*
X213057419Y-118880952D01*
X213057419Y-118880952D02*
X213009800Y-118785714D01*
X213009800Y-118785714D02*
X212962180Y-118738095D01*
X212962180Y-118738095D02*
X212866942Y-118690476D01*
X212866942Y-118690476D02*
X212057419Y-118690476D01*
X212390752Y-117785714D02*
X213057419Y-117785714D01*
X212009800Y-118023809D02*
X212724085Y-118261904D01*
X212724085Y-118261904D02*
X212724085Y-117642857D01*
D11*
X155761905Y-53244819D02*
X155761905Y-52244819D01*
X155761905Y-52244819D02*
X156000000Y-52244819D01*
X156000000Y-52244819D02*
X156142857Y-52292438D01*
X156142857Y-52292438D02*
X156238095Y-52387676D01*
X156238095Y-52387676D02*
X156285714Y-52482914D01*
X156285714Y-52482914D02*
X156333333Y-52673390D01*
X156333333Y-52673390D02*
X156333333Y-52816247D01*
X156333333Y-52816247D02*
X156285714Y-53006723D01*
X156285714Y-53006723D02*
X156238095Y-53101961D01*
X156238095Y-53101961D02*
X156142857Y-53197200D01*
X156142857Y-53197200D02*
X156000000Y-53244819D01*
X156000000Y-53244819D02*
X155761905Y-53244819D01*
X157285714Y-53244819D02*
X156714286Y-53244819D01*
X157000000Y-53244819D02*
X157000000Y-52244819D01*
X157000000Y-52244819D02*
X156904762Y-52387676D01*
X156904762Y-52387676D02*
X156809524Y-52482914D01*
X156809524Y-52482914D02*
X156714286Y-52530533D01*
X152456666Y-116954819D02*
X152456666Y-117669104D01*
X152456666Y-117669104D02*
X152409047Y-117811961D01*
X152409047Y-117811961D02*
X152313809Y-117907200D01*
X152313809Y-117907200D02*
X152170952Y-117954819D01*
X152170952Y-117954819D02*
X152075714Y-117954819D01*
X153361428Y-116954819D02*
X153170952Y-116954819D01*
X153170952Y-116954819D02*
X153075714Y-117002438D01*
X153075714Y-117002438D02*
X153028095Y-117050057D01*
X153028095Y-117050057D02*
X152932857Y-117192914D01*
X152932857Y-117192914D02*
X152885238Y-117383390D01*
X152885238Y-117383390D02*
X152885238Y-117764342D01*
X152885238Y-117764342D02*
X152932857Y-117859580D01*
X152932857Y-117859580D02*
X152980476Y-117907200D01*
X152980476Y-117907200D02*
X153075714Y-117954819D01*
X153075714Y-117954819D02*
X153266190Y-117954819D01*
X153266190Y-117954819D02*
X153361428Y-117907200D01*
X153361428Y-117907200D02*
X153409047Y-117859580D01*
X153409047Y-117859580D02*
X153456666Y-117764342D01*
X153456666Y-117764342D02*
X153456666Y-117526247D01*
X153456666Y-117526247D02*
X153409047Y-117431009D01*
X153409047Y-117431009D02*
X153361428Y-117383390D01*
X153361428Y-117383390D02*
X153266190Y-117335771D01*
X153266190Y-117335771D02*
X153075714Y-117335771D01*
X153075714Y-117335771D02*
X152980476Y-117383390D01*
X152980476Y-117383390D02*
X152932857Y-117431009D01*
X152932857Y-117431009D02*
X152885238Y-117526247D01*
X189838095Y-135054819D02*
X189838095Y-134054819D01*
X189838095Y-134531009D02*
X190409523Y-134531009D01*
X190409523Y-135054819D02*
X190409523Y-134054819D01*
X191314285Y-134388152D02*
X191314285Y-135054819D01*
X191076190Y-134007200D02*
X190838095Y-134721485D01*
X190838095Y-134721485D02*
X191457142Y-134721485D01*
X201583333Y-62954819D02*
X201250000Y-62478628D01*
X201011905Y-62954819D02*
X201011905Y-61954819D01*
X201011905Y-61954819D02*
X201392857Y-61954819D01*
X201392857Y-61954819D02*
X201488095Y-62002438D01*
X201488095Y-62002438D02*
X201535714Y-62050057D01*
X201535714Y-62050057D02*
X201583333Y-62145295D01*
X201583333Y-62145295D02*
X201583333Y-62288152D01*
X201583333Y-62288152D02*
X201535714Y-62383390D01*
X201535714Y-62383390D02*
X201488095Y-62431009D01*
X201488095Y-62431009D02*
X201392857Y-62478628D01*
X201392857Y-62478628D02*
X201011905Y-62478628D01*
X202440476Y-61954819D02*
X202250000Y-61954819D01*
X202250000Y-61954819D02*
X202154762Y-62002438D01*
X202154762Y-62002438D02*
X202107143Y-62050057D01*
X202107143Y-62050057D02*
X202011905Y-62192914D01*
X202011905Y-62192914D02*
X201964286Y-62383390D01*
X201964286Y-62383390D02*
X201964286Y-62764342D01*
X201964286Y-62764342D02*
X202011905Y-62859580D01*
X202011905Y-62859580D02*
X202059524Y-62907200D01*
X202059524Y-62907200D02*
X202154762Y-62954819D01*
X202154762Y-62954819D02*
X202345238Y-62954819D01*
X202345238Y-62954819D02*
X202440476Y-62907200D01*
X202440476Y-62907200D02*
X202488095Y-62859580D01*
X202488095Y-62859580D02*
X202535714Y-62764342D01*
X202535714Y-62764342D02*
X202535714Y-62526247D01*
X202535714Y-62526247D02*
X202488095Y-62431009D01*
X202488095Y-62431009D02*
X202440476Y-62383390D01*
X202440476Y-62383390D02*
X202345238Y-62335771D01*
X202345238Y-62335771D02*
X202154762Y-62335771D01*
X202154762Y-62335771D02*
X202059524Y-62383390D01*
X202059524Y-62383390D02*
X202011905Y-62431009D01*
X202011905Y-62431009D02*
X201964286Y-62526247D01*
X147602319Y-74059523D02*
X146602319Y-74059523D01*
X146602319Y-74059523D02*
X147316604Y-73726190D01*
X147316604Y-73726190D02*
X146602319Y-73392857D01*
X146602319Y-73392857D02*
X147602319Y-73392857D01*
X147602319Y-72392857D02*
X147602319Y-72964285D01*
X147602319Y-72678571D02*
X146602319Y-72678571D01*
X146602319Y-72678571D02*
X146745176Y-72773809D01*
X146745176Y-72773809D02*
X146840414Y-72869047D01*
X146840414Y-72869047D02*
X146888033Y-72964285D01*
D10*
X156488095Y-77820158D02*
X156488095Y-78629681D01*
X156488095Y-78629681D02*
X156535714Y-78724919D01*
X156535714Y-78724919D02*
X156583333Y-78772539D01*
X156583333Y-78772539D02*
X156678571Y-78820158D01*
X156678571Y-78820158D02*
X156869047Y-78820158D01*
X156869047Y-78820158D02*
X156964285Y-78772539D01*
X156964285Y-78772539D02*
X157011904Y-78724919D01*
X157011904Y-78724919D02*
X157059523Y-78629681D01*
X157059523Y-78629681D02*
X157059523Y-77820158D01*
X157488095Y-77915396D02*
X157535714Y-77867777D01*
X157535714Y-77867777D02*
X157630952Y-77820158D01*
X157630952Y-77820158D02*
X157869047Y-77820158D01*
X157869047Y-77820158D02*
X157964285Y-77867777D01*
X157964285Y-77867777D02*
X158011904Y-77915396D01*
X158011904Y-77915396D02*
X158059523Y-78010634D01*
X158059523Y-78010634D02*
X158059523Y-78105872D01*
X158059523Y-78105872D02*
X158011904Y-78248729D01*
X158011904Y-78248729D02*
X157440476Y-78820158D01*
X157440476Y-78820158D02*
X158059523Y-78820158D01*
D11*
X134654819Y-99833333D02*
X135369104Y-99833333D01*
X135369104Y-99833333D02*
X135511961Y-99880952D01*
X135511961Y-99880952D02*
X135607200Y-99976190D01*
X135607200Y-99976190D02*
X135654819Y-100119047D01*
X135654819Y-100119047D02*
X135654819Y-100214285D01*
X135654819Y-98833333D02*
X135654819Y-99404761D01*
X135654819Y-99119047D02*
X134654819Y-99119047D01*
X134654819Y-99119047D02*
X134797676Y-99214285D01*
X134797676Y-99214285D02*
X134892914Y-99309523D01*
X134892914Y-99309523D02*
X134940533Y-99404761D01*
%TO.C,J4*%
D10*
X182800000Y-133550000D02*
X182800000Y-125050000D01*
X182800000Y-133550000D02*
X166800000Y-133550000D01*
X180800000Y-123050000D02*
X168800000Y-123050000D01*
X166800000Y-133550000D02*
X166800000Y-125050000D01*
X180800000Y-123050000D02*
G75*
G02*
X182800000Y-125050000I1J-1999999D01*
G01*
X166800000Y-125050000D02*
G75*
G02*
X168800000Y-123050000I2000000J0D01*
G01*
%TO.C,F2*%
X152750000Y-89000000D02*
X163250000Y-89000000D01*
X163250000Y-95500000D01*
X152750000Y-95500000D01*
X152750000Y-89000000D01*
%TO.C,F1*%
X216000000Y-60250000D02*
X226500000Y-60250000D01*
X226500000Y-66750000D01*
X216000000Y-66750000D01*
X216000000Y-60250000D01*
%TO.C,R3*%
D12*
X146175000Y-98250000D02*
X147125000Y-98250000D01*
X151915000Y-98250000D02*
X150965000Y-98250000D01*
X147125000Y-97330000D02*
X150965000Y-97330000D01*
X150965000Y-99170000D01*
X147125000Y-99170000D01*
X147125000Y-97330000D01*
%TO.C,U1*%
D13*
X195250000Y-67617571D02*
X213250000Y-67617571D01*
X195250000Y-87617571D02*
X195250000Y-67617571D01*
X213250000Y-67617571D02*
X213250000Y-87617571D01*
X213250000Y-87617571D02*
X195250000Y-87617571D01*
%TO.C,J3*%
D12*
X209570000Y-89200000D02*
X209570000Y-94750000D01*
X209570000Y-100300000D02*
X209570000Y-94750000D01*
X212520000Y-88450000D02*
X212520000Y-89200000D01*
X212520000Y-89200000D02*
X209570000Y-89200000D01*
X212520000Y-100300000D02*
X209570000Y-100300000D01*
X212520000Y-101050000D02*
X212520000Y-100300000D01*
X215070000Y-88150000D02*
X213820000Y-88150000D01*
X215070000Y-89400000D02*
X215070000Y-88150000D01*
X214020000Y-88450000D02*
X214770000Y-88450000D01*
X214770000Y-90250000D01*
X214020000Y-90250000D01*
X214020000Y-88450000D01*
X214020000Y-91750000D02*
X214770000Y-91750000D01*
X214770000Y-97750000D01*
X214020000Y-97750000D01*
X214020000Y-91750000D01*
X214020000Y-99250000D02*
X214770000Y-99250000D01*
X214770000Y-101050000D01*
X214020000Y-101050000D01*
X214020000Y-99250000D01*
X208810000Y-88440000D02*
X214780000Y-88440000D01*
X214780000Y-101060000D01*
X208810000Y-101060000D01*
X208810000Y-88440000D01*
%TO.C,R2*%
X149750000Y-56880000D02*
X149750000Y-57830000D01*
X149750000Y-62620000D02*
X149750000Y-61670000D01*
X148830000Y-57830000D02*
X150670000Y-57830000D01*
X150670000Y-61670000D01*
X148830000Y-61670000D01*
X148830000Y-57830000D01*
%TO.C,M3*%
X136107500Y-81130000D02*
X146147500Y-81130000D01*
X136107500Y-83450000D02*
X136107500Y-81130000D01*
X136107500Y-91370000D02*
X136107500Y-84050000D01*
X136727500Y-81130000D02*
X136727500Y-91370000D01*
X138227500Y-81130000D02*
X138227500Y-91370000D01*
X143127500Y-81130000D02*
X143127500Y-91370000D01*
X146147500Y-81130000D02*
X146147500Y-91370000D01*
X146147500Y-91370000D02*
X136107500Y-91370000D01*
X136107500Y-83750000D02*
X135497500Y-84190000D01*
X135497500Y-83310000D01*
X136107500Y-83750000D01*
G36*
X136107500Y-83750000D02*
G01*
X135497500Y-84190000D01*
X135497500Y-83310000D01*
X136107500Y-83750000D01*
G37*
%TO.C,J5*%
X147130000Y-122852500D02*
X157370000Y-122852500D01*
X147130000Y-125872500D02*
X157370000Y-125872500D01*
X147130000Y-130772500D02*
X157370000Y-130772500D01*
X147130000Y-132272500D02*
X157370000Y-132272500D01*
X147130000Y-132892500D02*
X147130000Y-122852500D01*
X149450000Y-132892500D02*
X147130000Y-132892500D01*
X157370000Y-122852500D02*
X157370000Y-132892500D01*
X157370000Y-132892500D02*
X150050000Y-132892500D01*
X149750000Y-132892500D02*
X150190000Y-133502500D01*
X149310000Y-133502500D01*
X149750000Y-132892500D01*
G36*
X150190000Y-133502500D02*
G01*
X149310000Y-133502500D01*
X149750000Y-132892500D01*
X150190000Y-133502500D01*
G37*
%TO.C,R8*%
X199070000Y-93960000D02*
X199070000Y-94910000D01*
X199070000Y-99700000D02*
X199070000Y-98750000D01*
X198150000Y-94910000D02*
X199990000Y-94910000D01*
X199990000Y-98750000D01*
X198150000Y-98750000D01*
X198150000Y-94910000D01*
%TO.C,R7*%
X204320000Y-93960000D02*
X204320000Y-94910000D01*
X204320000Y-99700000D02*
X204320000Y-98750000D01*
X203400000Y-94910000D02*
X205240000Y-94910000D01*
X205240000Y-98750000D01*
X203400000Y-98750000D01*
X203400000Y-94910000D01*
%TO.C,U3*%
X168140000Y-117457280D02*
X193999999Y-117457280D01*
X168140001Y-53560000D02*
X168140000Y-117457280D01*
X172100120Y-47646880D02*
X190083320Y-47646880D01*
X172100120Y-53539680D02*
X172100120Y-47646880D01*
X190083320Y-47646880D02*
X190083320Y-53539680D01*
X193999999Y-117457280D02*
X194000000Y-53560000D01*
X194000000Y-53560000D02*
X168140001Y-53560000D01*
%TO.C,R5*%
X198880000Y-58750000D02*
X199830000Y-58750000D01*
X204620000Y-58750000D02*
X203670000Y-58750000D01*
X199830000Y-57830000D02*
X203670000Y-57830000D01*
X203670000Y-59670000D01*
X199830000Y-59670000D01*
X199830000Y-57830000D01*
%TO.C,SW1*%
X160290000Y-60500000D02*
X160290000Y-61500000D01*
X160290000Y-61500000D02*
X160790000Y-61000000D01*
X160790000Y-61000000D02*
X160290000Y-60500000D01*
X160990000Y-54590000D02*
X161300000Y-54590000D01*
X160990000Y-63410000D02*
X160990000Y-54590000D01*
X161300000Y-63410000D02*
X160990000Y-63410000D01*
X165510000Y-54590000D02*
X165200000Y-54590000D01*
X165510000Y-54590000D02*
X165510000Y-63410000D01*
X165510000Y-63410000D02*
X165200000Y-63410000D01*
%TO.C,R4*%
X146135000Y-103000000D02*
X147085000Y-103000000D01*
X151875000Y-103000000D02*
X150925000Y-103000000D01*
X147085000Y-102080000D02*
X150925000Y-102080000D01*
X150925000Y-103920000D01*
X147085000Y-103920000D01*
X147085000Y-102080000D01*
%TO.C,R1*%
X153330000Y-60080000D02*
X157170000Y-60080000D01*
X153330000Y-61920000D02*
X157170000Y-61920000D01*
%TO.C,M4*%
X216352500Y-81130000D02*
X226392500Y-81130000D01*
X216352500Y-91370000D02*
X216352500Y-81130000D01*
X219372500Y-91370000D02*
X219372500Y-81130000D01*
X224272500Y-91370000D02*
X224272500Y-81130000D01*
X225772500Y-91370000D02*
X225772500Y-81130000D01*
X226392500Y-81130000D02*
X226392500Y-88450000D01*
X226392500Y-89050000D02*
X226392500Y-91370000D01*
X226392500Y-91370000D02*
X216352500Y-91370000D01*
X226392500Y-88750000D02*
X227002500Y-88310000D01*
X227002500Y-89190000D01*
X226392500Y-88750000D01*
G36*
X227002500Y-89190000D02*
G01*
X226392500Y-88750000D01*
X227002500Y-88310000D01*
X227002500Y-89190000D01*
G37*
%TO.C,C1*%
X164830000Y-49705000D02*
X169370000Y-49705000D01*
X164830000Y-49761000D02*
X164830000Y-49705000D01*
X169370000Y-51789000D02*
X169370000Y-51845000D01*
X169370000Y-51845000D02*
X164830000Y-51845000D01*
%TO.C,M2*%
X216352500Y-68130000D02*
X226392500Y-68130000D01*
X216352500Y-78370000D02*
X216352500Y-68130000D01*
X219372500Y-78370000D02*
X219372500Y-68130000D01*
X224272500Y-78370000D02*
X224272500Y-68130000D01*
X225772500Y-78370000D02*
X225772500Y-68130000D01*
X226392500Y-68130000D02*
X226392500Y-75450000D01*
X226392500Y-76050000D02*
X226392500Y-78370000D01*
X226392500Y-78370000D02*
X216352500Y-78370000D01*
X226392500Y-75750000D02*
X227002500Y-75310000D01*
X227002500Y-76190000D01*
X226392500Y-75750000D01*
G36*
X227002500Y-76190000D02*
G01*
X226392500Y-75750000D01*
X227002500Y-75310000D01*
X227002500Y-76190000D01*
G37*
%TO.C,J2*%
X195400000Y-47500000D02*
X195400000Y-48750000D01*
X195700000Y-50050000D02*
X196450000Y-50050000D01*
X196450000Y-50050000D02*
X196450000Y-53000000D01*
X196450000Y-53000000D02*
X202000000Y-53000000D01*
X196650000Y-47500000D02*
X195400000Y-47500000D01*
X207550000Y-50050000D02*
X207550000Y-53000000D01*
X207550000Y-53000000D02*
X202000000Y-53000000D01*
X208300000Y-50050000D02*
X207550000Y-50050000D01*
X195690000Y-47790000D02*
X208310000Y-47790000D01*
X208310000Y-53760000D01*
X195690000Y-53760000D01*
X195690000Y-47790000D01*
X195700000Y-47800000D02*
X197500000Y-47800000D01*
X197500000Y-48550000D01*
X195700000Y-48550000D01*
X195700000Y-47800000D01*
X199000000Y-47800000D02*
X205000000Y-47800000D01*
X205000000Y-48550000D01*
X199000000Y-48550000D01*
X199000000Y-47800000D01*
X206500000Y-47800000D02*
X208300000Y-47800000D01*
X208300000Y-48550000D01*
X206500000Y-48550000D01*
X206500000Y-47800000D01*
%TO.C,U4*%
D10*
X201100000Y-102500000D02*
X223100000Y-102500000D01*
X223100000Y-134500000D01*
X201100000Y-134500000D01*
X201100000Y-102500000D01*
%TO.C,D1*%
D12*
X154940000Y-54514000D02*
X154940000Y-54670000D01*
X154940000Y-56830000D02*
X154940000Y-56986000D01*
X154940000Y-54514484D02*
G75*
G02*
X158171437Y-54670000I1560000J-1235516D01*
G01*
X155459039Y-54670000D02*
G75*
G02*
X157540961Y-54670000I1040961J-1080000D01*
G01*
X157540961Y-56830000D02*
G75*
G02*
X155459039Y-56830000I-1040961J1080000D01*
G01*
X158171437Y-56830000D02*
G75*
G02*
X154940000Y-56985516I-1671437J1080000D01*
G01*
%TO.C,J6*%
X142070000Y-118870000D02*
X143400000Y-118870000D01*
X142070000Y-120200000D02*
X142070000Y-118870000D01*
X144670000Y-118870000D02*
X162510000Y-118870000D01*
X144670000Y-121530000D02*
X144670000Y-118870000D01*
X144670000Y-121530000D02*
X162510000Y-121530000D01*
X162510000Y-121530000D02*
X162510000Y-118870000D01*
%TO.C,R6*%
X198880000Y-64250000D02*
X199830000Y-64250000D01*
X204620000Y-64250000D02*
X203670000Y-64250000D01*
X199830000Y-63330000D02*
X203670000Y-63330000D01*
X203670000Y-65170000D01*
X199830000Y-65170000D01*
X199830000Y-63330000D01*
%TO.C,M1*%
X136107500Y-68130000D02*
X146147500Y-68130000D01*
X136107500Y-70450000D02*
X136107500Y-68130000D01*
X136107500Y-78370000D02*
X136107500Y-71050000D01*
X136727500Y-68130000D02*
X136727500Y-78370000D01*
X138227500Y-68130000D02*
X138227500Y-78370000D01*
X143127500Y-68130000D02*
X143127500Y-78370000D01*
X146147500Y-68130000D02*
X146147500Y-78370000D01*
X146147500Y-78370000D02*
X136107500Y-78370000D01*
X136107500Y-70750000D02*
X135497500Y-71190000D01*
X135497500Y-70310000D01*
X136107500Y-70750000D01*
G36*
X136107500Y-70750000D02*
G01*
X135497500Y-71190000D01*
X135497500Y-70310000D01*
X136107500Y-70750000D01*
G37*
%TO.C,U2*%
D13*
X148750000Y-67862739D02*
X166750000Y-67862739D01*
X148750000Y-87862739D02*
X148750000Y-67862739D01*
X166750000Y-67862739D02*
X166750000Y-87862739D01*
X166750000Y-87862739D02*
X148750000Y-87862739D01*
%TO.C,J1*%
D12*
X136000000Y-104850000D02*
X136000000Y-106100000D01*
X136000000Y-106100000D02*
X137250000Y-106100000D01*
X138550000Y-93200000D02*
X138550000Y-93950000D01*
X138550000Y-93950000D02*
X141500000Y-93950000D01*
X138550000Y-105050000D02*
X141500000Y-105050000D01*
X138550000Y-105800000D02*
X138550000Y-105050000D01*
X141500000Y-93950000D02*
X141500000Y-99500000D01*
X141500000Y-105050000D02*
X141500000Y-99500000D01*
X136290000Y-93190000D02*
X142260000Y-93190000D01*
X142260000Y-105810000D01*
X136290000Y-105810000D01*
X136290000Y-93190000D01*
X136300000Y-93200000D02*
X137050000Y-93200000D01*
X137050000Y-95000000D01*
X136300000Y-95000000D01*
X136300000Y-93200000D01*
X136300000Y-96500000D02*
X137050000Y-96500000D01*
X137050000Y-102500000D01*
X136300000Y-102500000D01*
X136300000Y-96500000D01*
X136300000Y-104000000D02*
X137050000Y-104000000D01*
X137050000Y-105800000D01*
X136300000Y-105800000D01*
X136300000Y-104000000D01*
%TD*%
%LPC*%
D14*
%TO.C,J4*%
X181550000Y-132050000D03*
X168050000Y-132050000D03*
D15*
X178400000Y-126050000D03*
X171200000Y-126050000D03*
%TD*%
D16*
%TO.C,F2*%
X157940000Y-92167000D03*
D17*
X161750000Y-90500000D03*
X154130000Y-93929000D03*
%TD*%
D16*
%TO.C,F1*%
X221190000Y-63417000D03*
D17*
X225000000Y-61750000D03*
X217380000Y-65179000D03*
%TD*%
D18*
%TO.C,R3*%
X145235000Y-98250000D03*
X152855000Y-98250000D03*
%TD*%
D19*
%TO.C,U1*%
X196739690Y-68720000D03*
X196739690Y-71260000D03*
X196739690Y-73800000D03*
X196739690Y-76340000D03*
X196739690Y-78880000D03*
X196739690Y-81420000D03*
X196739690Y-83960000D03*
X196739690Y-86500000D03*
X211739690Y-68720000D03*
X211739690Y-71260000D03*
X211739690Y-73800000D03*
X211739690Y-76340000D03*
X211739690Y-78880000D03*
X211739690Y-81420000D03*
X211739690Y-83960000D03*
X211739690Y-86500000D03*
%TD*%
D20*
%TO.C,J3*%
X212320000Y-91000000D03*
D21*
X212320000Y-93500000D03*
X212320000Y-96000000D03*
X212320000Y-98500000D03*
%TD*%
D22*
%TO.C,H5*%
X152000000Y-111000000D03*
%TD*%
D18*
%TO.C,R2*%
X149750000Y-63560000D03*
X149750000Y-55940000D03*
%TD*%
D23*
%TO.C,M3*%
X140827500Y-83750000D03*
D24*
X140827500Y-88750000D03*
%TD*%
D25*
%TO.C,J5*%
X149750000Y-128172500D03*
D24*
X154750000Y-128172500D03*
%TD*%
D18*
%TO.C,R8*%
X199070000Y-93020000D03*
X199070000Y-100640000D03*
%TD*%
%TO.C,R7*%
X204320000Y-100640000D03*
X204320000Y-93020000D03*
%TD*%
D26*
%TO.C,U3*%
X169640000Y-54660000D03*
D27*
X169640000Y-57200000D03*
X169640000Y-59740000D03*
X169640000Y-62280000D03*
X169640000Y-64820000D03*
X169640000Y-67360000D03*
X169640000Y-69900000D03*
X169640000Y-72440000D03*
X169640000Y-74980000D03*
X169640000Y-77520000D03*
X169640000Y-80060000D03*
X169640000Y-82600000D03*
X169640000Y-85140000D03*
X169640000Y-87680000D03*
X169640000Y-90220000D03*
X169640000Y-92760000D03*
X169640000Y-95300000D03*
X169640000Y-97840000D03*
X169640000Y-100380000D03*
X169636320Y-102917280D03*
X169636320Y-105457280D03*
X169636320Y-107997280D03*
X192500000Y-108000000D03*
X192500000Y-105460000D03*
X192500000Y-102920000D03*
X192500000Y-100380000D03*
X192500000Y-97840000D03*
X192500000Y-95300000D03*
X192500000Y-92760000D03*
X192500000Y-90220000D03*
X192500000Y-87680000D03*
X192500000Y-85140000D03*
X192500000Y-82600000D03*
X192500000Y-80060000D03*
X192500000Y-77520000D03*
X192500000Y-74980000D03*
X192500000Y-72440000D03*
X192500000Y-69900000D03*
X192500000Y-67360000D03*
X192500000Y-64820000D03*
X192500000Y-62280000D03*
X192500000Y-59740000D03*
X192500000Y-57200000D03*
X192500000Y-54660000D03*
%TD*%
D18*
%TO.C,R5*%
X205560000Y-58750000D03*
X197940000Y-58750000D03*
%TD*%
D22*
%TO.C,H1*%
X139800000Y-52800000D03*
%TD*%
D28*
%TO.C,SW1*%
X163250000Y-63100000D03*
X163250000Y-54900000D03*
D29*
X163250000Y-61000000D03*
D30*
X163250000Y-59000000D03*
X163250000Y-57000000D03*
%TD*%
D22*
%TO.C,H3*%
X139800000Y-129000000D03*
%TD*%
D18*
%TO.C,R4*%
X152815000Y-103000000D03*
X145195000Y-103000000D03*
%TD*%
%TO.C,R1*%
X152710000Y-61000000D03*
X157790000Y-61000000D03*
%TD*%
D31*
%TO.C,M4*%
X221672500Y-88750000D03*
D24*
X221672500Y-83750000D03*
%TD*%
D32*
%TO.C,C1*%
X169600000Y-50775000D03*
X164600000Y-50775000D03*
%TD*%
D22*
%TO.C,H2*%
X216000000Y-52800000D03*
%TD*%
D31*
%TO.C,M2*%
X221672500Y-75750000D03*
D24*
X221672500Y-70750000D03*
%TD*%
D33*
%TO.C,J2*%
X198250000Y-50250000D03*
D34*
X200750000Y-50250000D03*
X203250000Y-50250000D03*
X205750000Y-50250000D03*
%TD*%
D35*
%TO.C,U4*%
X203100000Y-104500000D03*
D36*
X221100000Y-104500000D03*
D35*
X203100000Y-132500000D03*
D36*
X221100000Y-132500000D03*
%TD*%
D37*
%TO.C,D1*%
X155230000Y-55750000D03*
D38*
X157770000Y-55750000D03*
%TD*%
D39*
%TO.C,J6*%
X143400000Y-120200000D03*
D40*
X145940000Y-120200000D03*
X148480000Y-120200000D03*
X151020000Y-120200000D03*
X153560000Y-120200000D03*
X156100000Y-120200000D03*
X158640000Y-120200000D03*
X161180000Y-120200000D03*
%TD*%
D22*
%TO.C,H4*%
X190600000Y-129000000D03*
%TD*%
D18*
%TO.C,R6*%
X197940000Y-64250000D03*
X205560000Y-64250000D03*
%TD*%
D23*
%TO.C,M1*%
X140827500Y-70750000D03*
D24*
X140827500Y-75750000D03*
%TD*%
D19*
%TO.C,U2*%
X165260310Y-86760310D03*
X165260310Y-84220310D03*
X165260310Y-81680310D03*
X165260310Y-79140310D03*
X165260310Y-76600310D03*
X165260310Y-74060310D03*
X165260310Y-71520310D03*
X165260310Y-68980310D03*
X150260310Y-86760310D03*
X150260310Y-84220310D03*
X150260310Y-81680310D03*
X150260310Y-79140310D03*
X150260310Y-76600310D03*
X150260310Y-74060310D03*
X150260310Y-71520310D03*
X150260310Y-68980310D03*
%TD*%
D41*
%TO.C,J1*%
X138750000Y-103250000D03*
D21*
X138750000Y-100750000D03*
X138750000Y-98250000D03*
X138750000Y-95750000D03*
%TD*%
%LPD*%
M02*
