%TF.GenerationSoftware,KiCad,Pcbnew,10.0.4*%
%TF.CreationDate,2026-08-20T15:23:10-04:00*%
%TF.ProjectId,Training_Robot,54726169-6e69-46e6-975f-526f626f742e,rev?*%
%TF.SameCoordinates,Original*%
%TF.FileFunction,Legend,Bot*%
%TF.FilePolarity,Positive*%
%FSLAX46Y46*%
G04 Gerber Fmt 4.6, Leading zero omitted, Abs format (unit mm)*
G04 Created by KiCad (PCBNEW 10.0.4) date 2026-08-20 15:23:10*
%MOMM*%
%LPD*%
G01*
G04 APERTURE LIST*
G04 Aperture macros list*
%AMRoundRect*
0 Rectangle with rounded corners*
0 $1 Rounding radius*
0 $2 $3 $4 $5 $6 $7 $8 $9 X,Y pos of 4 corners*
0 Add a 4 corners polygon primitive as box body*
4,1,4,$2,$3,$4,$5,$6,$7,$8,$9,$2,$3,0*
0 Add four circle primitives for the rounded corners*
1,1,$1+$1,$2,$3*
1,1,$1+$1,$4,$5*
1,1,$1+$1,$6,$7*
1,1,$1+$1,$8,$9*
0 Add four rect primitives between the rounded corners*
20,1,$1+$1,$2,$3,$4,$5,0*
20,1,$1+$1,$4,$5,$6,$7,0*
20,1,$1+$1,$6,$7,$8,$9,0*
20,1,$1+$1,$8,$9,$2,$3,0*%
G04 Aperture macros list end*
%ADD10RoundRect,0.165000X0.385000X0.885000X-0.385000X0.885000X-0.385000X-0.885000X0.385000X-0.885000X0*%
%ADD11RoundRect,0.495000X1.155000X1.155000X-1.155000X1.155000X-1.155000X-1.155000X1.155000X-1.155000X0*%
%ADD12RoundRect,0.645000X1.505000X1.505000X-1.505000X1.505000X-1.505000X-1.505000X1.505000X-1.505000X0*%
%ADD13RoundRect,0.165000X0.835000X0.385000X-0.835000X0.385000X-0.835000X-0.385000X0.835000X-0.385000X0*%
%ADD14C,1.400000*%
%ADD15C,1.524000*%
%ADD16RoundRect,0.250000X-0.725000X0.600000X-0.725000X-0.600000X0.725000X-0.600000X0.725000X0.600000X0*%
%ADD17O,1.950000X1.700000*%
%ADD18C,4.500000*%
%ADD19RoundRect,0.250000X-1.050000X1.050000X-1.050000X-1.050000X1.050000X-1.050000X1.050000X1.050000X0*%
%ADD20C,2.600000*%
%ADD21RoundRect,0.250000X-1.050000X-1.050000X1.050000X-1.050000X1.050000X1.050000X-1.050000X1.050000X0*%
%ADD22R,2.000000X1.200000*%
%ADD23O,2.000000X1.200000*%
%ADD24O,3.500000X2.200000*%
%ADD25R,2.500000X1.500000*%
%ADD26O,2.500000X1.500000*%
%ADD27RoundRect,0.250000X1.050000X-1.050000X1.050000X1.050000X-1.050000X1.050000X-1.050000X-1.050000X0*%
%ADD28C,1.600000*%
%ADD29RoundRect,0.250000X-0.600000X-0.725000X0.600000X-0.725000X0.600000X0.725000X-0.600000X0.725000X0*%
%ADD30O,1.700000X1.950000*%
%ADD31C,3.500000*%
%ADD32R,3.500000X3.500000*%
%ADD33R,1.800000X1.800000*%
%ADD34C,1.800000*%
%ADD35R,1.700000X1.700000*%
%ADD36C,1.700000*%
%ADD37RoundRect,0.250000X0.725000X-0.600000X0.725000X0.600000X-0.725000X0.600000X-0.725000X-0.600000X0*%
G04 APERTURE END LIST*
%LPC*%
D10*
%TO.C,J4*%
X181550000Y-132050000D03*
X168050000Y-132050000D03*
D11*
X178400000Y-126050000D03*
X171200000Y-126050000D03*
%TD*%
D12*
%TO.C,F2*%
X157940000Y-92167000D03*
D13*
X161750000Y-90500000D03*
X154130000Y-93929000D03*
%TD*%
D12*
%TO.C,F1*%
X221190000Y-63417000D03*
D13*
X225000000Y-61750000D03*
X217380000Y-65179000D03*
%TD*%
D14*
%TO.C,R3*%
X145235000Y-98250000D03*
X152855000Y-98250000D03*
%TD*%
D15*
%TO.C,U1*%
X196739690Y-68720000D03*
X196739690Y-71260000D03*
X196739690Y-73800000D03*
X196739690Y-76340000D03*
X196739690Y-78880000D03*
X196739690Y-81420000D03*
X196739690Y-83960000D03*
X196739690Y-86500000D03*
X211739690Y-68720000D03*
X211739690Y-71260000D03*
X211739690Y-73800000D03*
X211739690Y-76340000D03*
X211739690Y-78880000D03*
X211739690Y-81420000D03*
X211739690Y-83960000D03*
X211739690Y-86500000D03*
%TD*%
D16*
%TO.C,J3*%
X212320000Y-91000000D03*
D17*
X212320000Y-93500000D03*
X212320000Y-96000000D03*
X212320000Y-98500000D03*
%TD*%
D18*
%TO.C,H5*%
X152000000Y-111000000D03*
%TD*%
D14*
%TO.C,R2*%
X149750000Y-63560000D03*
X149750000Y-55940000D03*
%TD*%
D19*
%TO.C,M3*%
X140827500Y-83750000D03*
D20*
X140827500Y-88750000D03*
%TD*%
D21*
%TO.C,J5*%
X149750000Y-128172500D03*
D20*
X154750000Y-128172500D03*
%TD*%
D14*
%TO.C,R8*%
X199070000Y-93020000D03*
X199070000Y-100640000D03*
%TD*%
%TO.C,R7*%
X204320000Y-100640000D03*
X204320000Y-93020000D03*
%TD*%
D22*
%TO.C,U3*%
X169640000Y-54660000D03*
D23*
X169640000Y-57200000D03*
X169640000Y-59740000D03*
X169640000Y-62280000D03*
X169640000Y-64820000D03*
X169640000Y-67360000D03*
X169640000Y-69900000D03*
X169640000Y-72440000D03*
X169640000Y-74980000D03*
X169640000Y-77520000D03*
X169640000Y-80060000D03*
X169640000Y-82600000D03*
X169640000Y-85140000D03*
X169640000Y-87680000D03*
X169640000Y-90220000D03*
X169640000Y-92760000D03*
X169640000Y-95300000D03*
X169640000Y-97840000D03*
X169640000Y-100380000D03*
X169636320Y-102917280D03*
X169636320Y-105457280D03*
X169636320Y-107997280D03*
X192500000Y-108000000D03*
X192500000Y-105460000D03*
X192500000Y-102920000D03*
X192500000Y-100380000D03*
X192500000Y-97840000D03*
X192500000Y-95300000D03*
X192500000Y-92760000D03*
X192500000Y-90220000D03*
X192500000Y-87680000D03*
X192500000Y-85140000D03*
X192500000Y-82600000D03*
X192500000Y-80060000D03*
X192500000Y-77520000D03*
X192500000Y-74980000D03*
X192500000Y-72440000D03*
X192500000Y-69900000D03*
X192500000Y-67360000D03*
X192500000Y-64820000D03*
X192500000Y-62280000D03*
X192500000Y-59740000D03*
X192500000Y-57200000D03*
X192500000Y-54660000D03*
%TD*%
D14*
%TO.C,R5*%
X205560000Y-58750000D03*
X197940000Y-58750000D03*
%TD*%
D18*
%TO.C,H1*%
X139800000Y-52800000D03*
%TD*%
D24*
%TO.C,SW1*%
X163250000Y-63100000D03*
X163250000Y-54900000D03*
D25*
X163250000Y-61000000D03*
D26*
X163250000Y-59000000D03*
X163250000Y-57000000D03*
%TD*%
D18*
%TO.C,H3*%
X139800000Y-129000000D03*
%TD*%
D14*
%TO.C,R4*%
X152815000Y-103000000D03*
X145195000Y-103000000D03*
%TD*%
%TO.C,R1*%
X152710000Y-61000000D03*
X157790000Y-61000000D03*
%TD*%
D27*
%TO.C,M4*%
X221672500Y-88750000D03*
D20*
X221672500Y-83750000D03*
%TD*%
D28*
%TO.C,C1*%
X169600000Y-50775000D03*
X164600000Y-50775000D03*
%TD*%
D18*
%TO.C,H2*%
X216000000Y-52800000D03*
%TD*%
D27*
%TO.C,M2*%
X221672500Y-75750000D03*
D20*
X221672500Y-70750000D03*
%TD*%
D29*
%TO.C,J2*%
X198250000Y-50250000D03*
D30*
X200750000Y-50250000D03*
X203250000Y-50250000D03*
X205750000Y-50250000D03*
%TD*%
D31*
%TO.C,U4*%
X203100000Y-104500000D03*
D32*
X221100000Y-104500000D03*
D31*
X203100000Y-132500000D03*
D32*
X221100000Y-132500000D03*
%TD*%
D33*
%TO.C,D1*%
X155230000Y-55750000D03*
D34*
X157770000Y-55750000D03*
%TD*%
D35*
%TO.C,J6*%
X143400000Y-120200000D03*
D36*
X145940000Y-120200000D03*
X148480000Y-120200000D03*
X151020000Y-120200000D03*
X153560000Y-120200000D03*
X156100000Y-120200000D03*
X158640000Y-120200000D03*
X161180000Y-120200000D03*
%TD*%
D18*
%TO.C,H4*%
X190600000Y-129000000D03*
%TD*%
D14*
%TO.C,R6*%
X197940000Y-64250000D03*
X205560000Y-64250000D03*
%TD*%
D19*
%TO.C,M1*%
X140827500Y-70750000D03*
D20*
X140827500Y-75750000D03*
%TD*%
D15*
%TO.C,U2*%
X165260310Y-86760310D03*
X165260310Y-84220310D03*
X165260310Y-81680310D03*
X165260310Y-79140310D03*
X165260310Y-76600310D03*
X165260310Y-74060310D03*
X165260310Y-71520310D03*
X165260310Y-68980310D03*
X150260310Y-86760310D03*
X150260310Y-84220310D03*
X150260310Y-81680310D03*
X150260310Y-79140310D03*
X150260310Y-76600310D03*
X150260310Y-74060310D03*
X150260310Y-71520310D03*
X150260310Y-68980310D03*
%TD*%
D37*
%TO.C,J1*%
X138750000Y-103250000D03*
D17*
X138750000Y-100750000D03*
X138750000Y-98250000D03*
X138750000Y-95750000D03*
%TD*%
%LPD*%
M02*
