%TF.GenerationSoftware,KiCad,Pcbnew,10.0.4*%
%TF.CreationDate,2026-08-20T15:23:10-04:00*%
%TF.ProjectId,Training_Robot,54726169-6e69-46e6-975f-526f626f742e,rev?*%
%TF.SameCoordinates,Original*%
%TF.FileFunction,Copper,L1,Top*%
%TF.FilePolarity,Positive*%
%FSLAX46Y46*%
G04 Gerber Fmt 4.6, Leading zero omitted, Abs format (unit mm)*
G04 Created by KiCad (PCBNEW 10.0.4) date 2026-08-20 15:23:10*
%MOMM*%
%LPD*%
G01*
G04 APERTURE LIST*
G04 Aperture macros list*
%AMRoundRect*
0 Rectangle with rounded corners*
0 $1 Rounding radius*
0 $2 $3 $4 $5 $6 $7 $8 $9 X,Y pos of 4 corners*
0 Add a 4 corners polygon primitive as box body*
4,1,4,$2,$3,$4,$5,$6,$7,$8,$9,$2,$3,0*
0 Add four circle primitives for the rounded corners*
1,1,$1+$1,$2,$3*
1,1,$1+$1,$4,$5*
1,1,$1+$1,$6,$7*
1,1,$1+$1,$8,$9*
0 Add four rect primitives between the rounded corners*
20,1,$1+$1,$2,$3,$4,$5,0*
20,1,$1+$1,$4,$5,$6,$7,0*
20,1,$1+$1,$6,$7,$8,$9,0*
20,1,$1+$1,$8,$9,$2,$3,0*%
G04 Aperture macros list end*
%TA.AperFunction,ComponentPad*%
%ADD10RoundRect,0.495000X1.155000X1.155000X-1.155000X1.155000X-1.155000X-1.155000X1.155000X-1.155000X0*%
%TD*%
%TA.AperFunction,ComponentPad*%
%ADD11RoundRect,0.165000X0.835000X0.385000X-0.835000X0.385000X-0.835000X-0.385000X0.835000X-0.385000X0*%
%TD*%
%TA.AperFunction,ComponentPad*%
%ADD12C,1.400000*%
%TD*%
%TA.AperFunction,ComponentPad*%
%ADD13C,1.524000*%
%TD*%
%TA.AperFunction,ComponentPad*%
%ADD14RoundRect,0.250000X-0.725000X0.600000X-0.725000X-0.600000X0.725000X-0.600000X0.725000X0.600000X0*%
%TD*%
%TA.AperFunction,ComponentPad*%
%ADD15O,1.950000X1.700000*%
%TD*%
%TA.AperFunction,ComponentPad*%
%ADD16RoundRect,0.250000X-1.050000X1.050000X-1.050000X-1.050000X1.050000X-1.050000X1.050000X1.050000X0*%
%TD*%
%TA.AperFunction,ComponentPad*%
%ADD17C,2.600000*%
%TD*%
%TA.AperFunction,ComponentPad*%
%ADD18RoundRect,0.250000X-1.050000X-1.050000X1.050000X-1.050000X1.050000X1.050000X-1.050000X1.050000X0*%
%TD*%
%TA.AperFunction,ComponentPad*%
%ADD19R,2.000000X1.200000*%
%TD*%
%TA.AperFunction,ComponentPad*%
%ADD20O,2.000000X1.200000*%
%TD*%
%TA.AperFunction,ComponentPad*%
%ADD21O,3.500000X2.200000*%
%TD*%
%TA.AperFunction,ComponentPad*%
%ADD22R,2.500000X1.500000*%
%TD*%
%TA.AperFunction,ComponentPad*%
%ADD23O,2.500000X1.500000*%
%TD*%
%TA.AperFunction,ComponentPad*%
%ADD24RoundRect,0.250000X1.050000X-1.050000X1.050000X1.050000X-1.050000X1.050000X-1.050000X-1.050000X0*%
%TD*%
%TA.AperFunction,ComponentPad*%
%ADD25C,1.600000*%
%TD*%
%TA.AperFunction,ComponentPad*%
%ADD26RoundRect,0.250000X-0.600000X-0.725000X0.600000X-0.725000X0.600000X0.725000X-0.600000X0.725000X0*%
%TD*%
%TA.AperFunction,ComponentPad*%
%ADD27O,1.700000X1.950000*%
%TD*%
%TA.AperFunction,ComponentPad*%
%ADD28C,3.500000*%
%TD*%
%TA.AperFunction,ComponentPad*%
%ADD29R,3.500000X3.500000*%
%TD*%
%TA.AperFunction,ComponentPad*%
%ADD30R,1.800000X1.800000*%
%TD*%
%TA.AperFunction,ComponentPad*%
%ADD31C,1.800000*%
%TD*%
%TA.AperFunction,ComponentPad*%
%ADD32R,1.700000X1.700000*%
%TD*%
%TA.AperFunction,ComponentPad*%
%ADD33C,1.700000*%
%TD*%
%TA.AperFunction,ComponentPad*%
%ADD34RoundRect,0.250000X0.725000X-0.600000X0.725000X0.600000X-0.725000X0.600000X-0.725000X-0.600000X0*%
%TD*%
%TA.AperFunction,ViaPad*%
%ADD35C,0.900000*%
%TD*%
%TA.AperFunction,Conductor*%
%ADD36C,0.500000*%
%TD*%
%TA.AperFunction,Conductor*%
%ADD37C,1.524000*%
%TD*%
%TA.AperFunction,Conductor*%
%ADD38C,0.200000*%
%TD*%
%TA.AperFunction,Conductor*%
%ADD39C,0.990600*%
%TD*%
G04 APERTURE END LIST*
D10*
%TO.P,J4,1,Pin_1_1*%
%TO.N,+12V*%
X178400000Y-126050000D03*
%TO.P,J4,2,Pin_2_2*%
%TO.N,GND*%
X171200000Y-126050000D03*
%TD*%
D11*
%TO.P,F2,1*%
%TO.N,+12V*%
X161750000Y-90500000D03*
%TO.P,F2,2*%
%TO.N,Net-(U2-VM)*%
X154130000Y-93929000D03*
%TD*%
%TO.P,F1,1*%
%TO.N,+12V*%
X225000000Y-61750000D03*
%TO.P,F1,2*%
%TO.N,Net-(U1-VM)*%
X217380000Y-65179000D03*
%TD*%
D12*
%TO.P,R3,1*%
%TO.N,Net-(J1-Pin_3)*%
X145235000Y-98250000D03*
%TO.P,R3,2*%
%TO.N,/L_US_ECHO*%
X152855000Y-98250000D03*
%TD*%
D13*
%TO.P,U1,1,PWMA_1*%
%TO.N,/RIGHT_EN*%
X196739690Y-68720000D03*
%TO.P,U1,2,AIN2_2*%
%TO.N,/RIGHT_BACKWARD*%
X196739690Y-71260000D03*
%TO.P,U1,3,AIN1_3*%
%TO.N,/RIGHT_FORWARD*%
X196739690Y-73800000D03*
%TO.P,U1,4,STBY_4*%
%TO.N,/STBY*%
X196739690Y-76340000D03*
%TO.P,U1,5,BIN1_5*%
%TO.N,/RIGHT_FORWARD*%
X196739690Y-78880000D03*
%TO.P,U1,6,BIN2_6*%
%TO.N,/RIGHT_BACKWARD*%
X196739690Y-81420000D03*
%TO.P,U1,7,PWMB_7*%
%TO.N,/RIGHT_EN*%
X196739690Y-83960000D03*
%TO.P,U1,8,GND_8*%
%TO.N,GND*%
X196739690Y-86500000D03*
%TO.P,U1,9,VM_9*%
%TO.N,Net-(U1-VM)*%
X211739690Y-68720000D03*
%TO.P,U1,10,VCC_10*%
%TO.N,+3V3*%
X211739690Y-71260000D03*
%TO.P,U1,11,GND_11*%
%TO.N,GND*%
X211739690Y-73800000D03*
%TO.P,U1,12,AO1_12*%
%TO.N,/FR+*%
X211739690Y-76340000D03*
%TO.P,U1,13,AO2_13*%
%TO.N,/FR-*%
X211739690Y-78880000D03*
%TO.P,U1,14,BO2_14*%
%TO.N,/BR-*%
X211739690Y-81420000D03*
%TO.P,U1,15,BO1_15*%
%TO.N,/BR+*%
X211739690Y-83960000D03*
%TO.P,U1,16,GND_16*%
%TO.N,GND*%
X211739690Y-86500000D03*
%TD*%
D14*
%TO.P,J3,1,Pin_1_1*%
%TO.N,+5V*%
X212320000Y-91000000D03*
D15*
%TO.P,J3,2,Pin_2_2*%
%TO.N,/R_US_TRIG*%
X212320000Y-93500000D03*
%TO.P,J3,3,Pin_3_3*%
%TO.N,Net-(J3-Pin_3)*%
X212320000Y-96000000D03*
%TO.P,J3,4,Pin_4_4*%
%TO.N,GND*%
X212320000Y-98500000D03*
%TD*%
D12*
%TO.P,R2,1*%
%TO.N,GND*%
X149750000Y-63560000D03*
%TO.P,R2,2*%
%TO.N,Net-(D1-K)*%
X149750000Y-55940000D03*
%TD*%
D16*
%TO.P,M3,1,+_1*%
%TO.N,/BL+*%
X140827500Y-83750000D03*
D17*
%TO.P,M3,2,-_2*%
%TO.N,/BL-*%
X140827500Y-88750000D03*
%TD*%
D18*
%TO.P,J5,1,Pin_1_1*%
%TO.N,+5V*%
X149750000Y-128172500D03*
D17*
%TO.P,J5,2,Pin_2_2*%
%TO.N,GND*%
X154750000Y-128172500D03*
%TD*%
D12*
%TO.P,R8,1*%
%TO.N,/R_US_ECHO*%
X199070000Y-93020000D03*
%TO.P,R8,2*%
%TO.N,GND*%
X199070000Y-100640000D03*
%TD*%
%TO.P,R7,1*%
%TO.N,Net-(J3-Pin_3)*%
X204320000Y-100640000D03*
%TO.P,R7,2*%
%TO.N,/R_US_ECHO*%
X204320000Y-93020000D03*
%TD*%
D19*
%TO.P,U3,1,3V3_1*%
%TO.N,+3V3*%
X169640000Y-54660000D03*
D20*
%TO.P,U3,2,3V3_2*%
X169640000Y-57200000D03*
%TO.P,U3,3,CHIP_PU_3*%
%TO.N,unconnected-(U3-CHIP_PU-Pad3)*%
X169640000Y-59740000D03*
%TO.P,U3,4,GPIO4/ADC1_CH3_4*%
%TO.N,/RIGHT_EN*%
X169640000Y-62280000D03*
%TO.P,U3,5,GPIO5/ADC1_CH4_5*%
%TO.N,/RIGHT_FORWARD*%
X169640000Y-64820000D03*
%TO.P,U3,6,GPIO6/ADC1_CH5_6*%
%TO.N,/RIGHT_BACKWARD*%
X169640000Y-67360000D03*
%TO.P,U3,7,GPIO7/ADC1_CH6_7*%
%TO.N,unconnected-(U3-GPIO7{slash}ADC1_CH6-Pad7)*%
X169640000Y-69900000D03*
%TO.P,U3,8,GPIO15/ADC2_CH4/32K_P_8*%
%TO.N,unconnected-(U3-GPIO15{slash}ADC2_CH4{slash}32K_P-Pad8)*%
X169640000Y-72440000D03*
%TO.P,U3,9,GPIO16/ADC2_CH5/32K_N_9*%
%TO.N,/LEFT_EN*%
X169640000Y-74980000D03*
%TO.P,U3,10,GPIO17/ADC2_CH6_10*%
%TO.N,/LEFT_FORWARD*%
X169640000Y-77520000D03*
%TO.P,U3,11,GPIO18/ADC2_CH7_11*%
%TO.N,/LEFT_BACKWARD*%
X169640000Y-80060000D03*
%TO.P,U3,12,GPIO8/ADC1_CH7_12*%
%TO.N,unconnected-(U3-GPIO8{slash}ADC1_CH7-Pad12)*%
X169640000Y-82600000D03*
%TO.P,U3,13,GPIO3/ADC1_CH2_13*%
%TO.N,unconnected-(U3-GPIO3{slash}ADC1_CH2-Pad13)*%
X169640000Y-85140000D03*
%TO.P,U3,14,GPIO46_14*%
%TO.N,unconnected-(U3-GPIO46-Pad14)*%
X169640000Y-87680000D03*
%TO.P,U3,15,GPIO9/ADC1_CH8_15*%
%TO.N,/L_US_TRIG*%
X169640000Y-90220000D03*
%TO.P,U3,16,GPIO10/ADC1_CH9_16*%
%TO.N,/L_US_ECHO*%
X169640000Y-92760000D03*
%TO.P,U3,17,GPIO11/ADC2_CH0_17*%
%TO.N,/F_US_TRIG*%
X169640000Y-95300000D03*
%TO.P,U3,18,GPIO12/ADC2_CH1_18*%
%TO.N,/F_US_ECHO*%
X169640000Y-97840000D03*
%TO.P,U3,19,GPIO13/ADC2_CH2_19*%
%TO.N,/R_US_TRIG*%
X169640000Y-100380000D03*
%TO.P,U3,20,GPIO14/ADC2_CH3_20*%
%TO.N,/R_US_ECHO*%
X169636320Y-102917280D03*
%TO.P,U3,21,5V_21*%
%TO.N,unconnected-(U3-5V-Pad21)*%
X169636320Y-105457280D03*
%TO.P,U3,22,GND_22*%
%TO.N,unconnected-(U3-GND-Pad22)_2*%
X169636320Y-107997280D03*
%TO.P,U3,23,GND_23*%
%TO.N,unconnected-(U3-GND-Pad22)_1*%
X192500000Y-108000000D03*
%TO.P,U3,24,GND_24*%
%TO.N,unconnected-(U3-GND-Pad22)*%
X192500000Y-105460000D03*
%TO.P,U3,25,GPIO19/USB_D-_25*%
%TO.N,unconnected-(U3-GPIO19{slash}USB_D--Pad25)*%
X192500000Y-102920000D03*
%TO.P,U3,26,GPIO20/USB_D+_26*%
%TO.N,unconnected-(U3-GPIO20{slash}USB_D+-Pad26)*%
X192500000Y-100380000D03*
%TO.P,U3,27,GPIO21_27*%
%TO.N,unconnected-(U3-GPIO21-Pad27)*%
X192500000Y-97840000D03*
%TO.P,U3,28,GPIO47_28*%
%TO.N,unconnected-(U3-GPIO47-Pad28)*%
X192500000Y-95300000D03*
%TO.P,U3,29,GPIO48_29*%
%TO.N,unconnected-(U3-GPIO48-Pad29)*%
X192500000Y-92760000D03*
%TO.P,U3,30,GPIO45_30*%
%TO.N,unconnected-(U3-GPIO45-Pad30)*%
X192500000Y-90220000D03*
%TO.P,U3,31,GPIO0_31*%
%TO.N,unconnected-(U3-GPIO0-Pad31)*%
X192500000Y-87680000D03*
%TO.P,U3,32,GPIO35_32*%
%TO.N,unconnected-(U3-GPIO35-Pad32)*%
X192500000Y-85140000D03*
%TO.P,U3,33,GPIO36_33*%
%TO.N,unconnected-(U3-GPIO36-Pad33)*%
X192500000Y-82600000D03*
%TO.P,U3,34,GPIO37_34*%
%TO.N,/IMU_SDA*%
X192500000Y-80060000D03*
%TO.P,U3,35,GPIO38_35*%
%TO.N,/IMU_SCL*%
X192500000Y-77520000D03*
%TO.P,U3,36,GPIO39/MTCK_36*%
%TO.N,unconnected-(U3-GPIO39{slash}MTCK-Pad36)*%
X192500000Y-74980000D03*
%TO.P,U3,37,GPIO40/MTDO_37*%
%TO.N,unconnected-(U3-GPIO40{slash}MTDO-Pad37)*%
X192500000Y-72440000D03*
%TO.P,U3,38,GPIO41/MTDI_38*%
%TO.N,unconnected-(U3-GPIO41{slash}MTDI-Pad38)*%
X192500000Y-69900000D03*
%TO.P,U3,39,GPIO42/MTMS_39*%
%TO.N,unconnected-(U3-GPIO42{slash}MTMS-Pad39)*%
X192500000Y-67360000D03*
%TO.P,U3,40,GPIO2/ADC1_CH1_40*%
%TO.N,unconnected-(U3-GPIO2{slash}ADC1_CH1-Pad40)*%
X192500000Y-64820000D03*
%TO.P,U3,41,GPIO1/ADC1_CH0_41*%
%TO.N,unconnected-(U3-GPIO1{slash}ADC1_CH0-Pad41)*%
X192500000Y-62280000D03*
%TO.P,U3,42,GPIO44/U0RXD_42*%
%TO.N,unconnected-(U3-GPIO44{slash}U0RXD-Pad42)*%
X192500000Y-59740000D03*
%TO.P,U3,43,GPIO43/U0TXD_43*%
%TO.N,unconnected-(U3-GPIO43{slash}U0TXD-Pad43)*%
X192500000Y-57200000D03*
%TO.P,U3,44,GND_44*%
%TO.N,unconnected-(U3-GND-Pad22)_3*%
X192500000Y-54660000D03*
%TD*%
D12*
%TO.P,R5,1*%
%TO.N,Net-(J2-Pin_3)*%
X205560000Y-58750000D03*
%TO.P,R5,2*%
%TO.N,/F_US_ECHO*%
X197940000Y-58750000D03*
%TD*%
D21*
%TO.P,SW1,*%
%TO.N,*%
X163250000Y-63100000D03*
X163250000Y-54900000D03*
D22*
%TO.P,SW1,1,B_1*%
%TO.N,/STBY*%
X163250000Y-61000000D03*
D23*
%TO.P,SW1,2,C_2*%
%TO.N,+3V3*%
X163250000Y-59000000D03*
%TO.P,SW1,3,A_3*%
%TO.N,GND*%
X163250000Y-57000000D03*
%TD*%
D12*
%TO.P,R4,1*%
%TO.N,/L_US_ECHO*%
X152815000Y-103000000D03*
%TO.P,R4,2*%
%TO.N,GND*%
X145195000Y-103000000D03*
%TD*%
%TO.P,R1,1*%
%TO.N,Net-(D1-A)*%
X152710000Y-61000000D03*
%TO.P,R1,2*%
%TO.N,/STBY*%
X157790000Y-61000000D03*
%TD*%
D24*
%TO.P,M4,1,+_1*%
%TO.N,/BR+*%
X221672500Y-88750000D03*
D17*
%TO.P,M4,2,-_2*%
%TO.N,/BR-*%
X221672500Y-83750000D03*
%TD*%
D25*
%TO.P,C1,1*%
%TO.N,+3V3*%
X169600000Y-50775000D03*
%TO.P,C1,2*%
%TO.N,GND*%
X164600000Y-50775000D03*
%TD*%
D24*
%TO.P,M2,1,+_1*%
%TO.N,/FR+*%
X221672500Y-75750000D03*
D17*
%TO.P,M2,2,-_2*%
%TO.N,/FR-*%
X221672500Y-70750000D03*
%TD*%
D26*
%TO.P,J2,1,Pin_1_1*%
%TO.N,+5V*%
X198250000Y-50250000D03*
D27*
%TO.P,J2,2,Pin_2_2*%
%TO.N,/F_US_TRIG*%
X200750000Y-50250000D03*
%TO.P,J2,3,Pin_3_3*%
%TO.N,Net-(J2-Pin_3)*%
X203250000Y-50250000D03*
%TO.P,J2,4,Pin_4_4*%
%TO.N,GND*%
X205750000Y-50250000D03*
%TD*%
D28*
%TO.P,U4,1,IN+_1*%
%TO.N,+12V*%
X203100000Y-104500000D03*
D29*
%TO.P,U4,2,IN-_2*%
%TO.N,GND*%
X221100000Y-104500000D03*
D28*
%TO.P,U4,3,OUT+_3*%
%TO.N,+5V*%
X203100000Y-132500000D03*
D29*
%TO.P,U4,4,OUT-_4*%
%TO.N,GND*%
X221100000Y-132500000D03*
%TD*%
D30*
%TO.P,D1,1,K_1*%
%TO.N,Net-(D1-K)*%
X155230000Y-55750000D03*
D31*
%TO.P,D1,2,A_2*%
%TO.N,/STBY*%
X157770000Y-55750000D03*
%TD*%
D32*
%TO.P,J6,1,Pin_1_1*%
%TO.N,+3V3*%
X143400000Y-120200000D03*
D33*
%TO.P,J6,2,Pin_2_2*%
%TO.N,GND*%
X145940000Y-120200000D03*
%TO.P,J6,3,Pin_3_3*%
%TO.N,/IMU_SCL*%
X148480000Y-120200000D03*
%TO.P,J6,4,Pin_4_4*%
%TO.N,/IMU_SDA*%
X151020000Y-120200000D03*
%TO.P,J6,5,Pin_5_5*%
%TO.N,GND*%
X153560000Y-120200000D03*
%TO.P,J6,6,Pin_6_6*%
%TO.N,unconnected-(J6-Pin_6-Pad6)*%
X156100000Y-120200000D03*
%TO.P,J6,7,Pin_7_7*%
%TO.N,unconnected-(J6-Pin_7-Pad7)*%
X158640000Y-120200000D03*
%TO.P,J6,8,Pin_8_8*%
%TO.N,unconnected-(J6-Pin_8-Pad8)*%
X161180000Y-120200000D03*
%TD*%
D12*
%TO.P,R6,1*%
%TO.N,/F_US_ECHO*%
X197940000Y-64250000D03*
%TO.P,R6,2*%
%TO.N,GND*%
X205560000Y-64250000D03*
%TD*%
D16*
%TO.P,M1,1,+_1*%
%TO.N,/FL+*%
X140827500Y-70750000D03*
D17*
%TO.P,M1,2,-_2*%
%TO.N,/FL-*%
X140827500Y-75750000D03*
%TD*%
D13*
%TO.P,U2,1,PWMA_1*%
%TO.N,/LEFT_EN*%
X165260310Y-86760310D03*
%TO.P,U2,2,AIN2_2*%
%TO.N,/LEFT_BACKWARD*%
X165260310Y-84220310D03*
%TO.P,U2,3,AIN1_3*%
%TO.N,/LEFT_FORWARD*%
X165260310Y-81680310D03*
%TO.P,U2,4,STBY_4*%
%TO.N,/STBY*%
X165260310Y-79140310D03*
%TO.P,U2,5,BIN1_5*%
%TO.N,/LEFT_FORWARD*%
X165260310Y-76600310D03*
%TO.P,U2,6,BIN2_6*%
%TO.N,/LEFT_BACKWARD*%
X165260310Y-74060310D03*
%TO.P,U2,7,PWMB_7*%
%TO.N,/LEFT_EN*%
X165260310Y-71520310D03*
%TO.P,U2,8,GND_8*%
%TO.N,GND*%
X165260310Y-68980310D03*
%TO.P,U2,9,VM_9*%
%TO.N,Net-(U2-VM)*%
X150260310Y-86760310D03*
%TO.P,U2,10,VCC_10*%
%TO.N,+3V3*%
X150260310Y-84220310D03*
%TO.P,U2,11,GND_11*%
%TO.N,GND*%
X150260310Y-81680310D03*
%TO.P,U2,12,AO1_12*%
%TO.N,/FL+*%
X150260310Y-79140310D03*
%TO.P,U2,13,AO2_13*%
%TO.N,/FL-*%
X150260310Y-76600310D03*
%TO.P,U2,14,BO2_14*%
%TO.N,/BL-*%
X150260310Y-74060310D03*
%TO.P,U2,15,BO1_15*%
%TO.N,/BL+*%
X150260310Y-71520310D03*
%TO.P,U2,16,GND_16*%
%TO.N,GND*%
X150260310Y-68980310D03*
%TD*%
D34*
%TO.P,J1,1,Pin_1_1*%
%TO.N,+5V*%
X138750000Y-103250000D03*
D15*
%TO.P,J1,2,Pin_2_2*%
%TO.N,/L_US_TRIG*%
X138750000Y-100750000D03*
%TO.P,J1,3,Pin_3_3*%
%TO.N,Net-(J1-Pin_3)*%
X138750000Y-98250000D03*
%TO.P,J1,4,Pin_4_4*%
%TO.N,GND*%
X138750000Y-95750000D03*
%TD*%
D35*
%TO.N,/IMU_SDA*%
X173100000Y-101200000D03*
%TO.N,/STBY*%
X161250000Y-79250000D03*
X183900000Y-79000000D03*
%TO.N,+3V3*%
X143200000Y-99600000D03*
X187600000Y-66000000D03*
%TO.N,/IMU_SDA*%
X188650000Y-83450000D03*
%TO.N,/IMU_SCL*%
X171700000Y-102800000D03*
X186550000Y-83350000D03*
%TD*%
%TO.N,/IMU_SDA*%
D36*
X188650000Y-83450000D02*
X173100000Y-99000000D01*
X173100000Y-99000000D02*
X173100000Y-101200000D01*
%TO.N,/IMU_SCL*%
X171800000Y-102700000D02*
X171700000Y-102800000D01*
X171800000Y-98100000D02*
X171800000Y-102700000D01*
X186550000Y-83350000D02*
X171800000Y-98100000D01*
%TO.N,+12V*%
D37*
X203900000Y-104500000D02*
X205300000Y-103100000D01*
X215600000Y-103100000D02*
X225000000Y-93700000D01*
X225000000Y-93700000D02*
X225000000Y-61750000D01*
X203100000Y-104500000D02*
X203900000Y-104500000D01*
X205300000Y-103100000D02*
X215600000Y-103100000D01*
%TO.N,/FR+*%
X221622500Y-75700000D02*
X221672500Y-75750000D01*
X212379690Y-75700000D02*
X221622500Y-75700000D01*
X211739690Y-76340000D02*
X212379690Y-75700000D01*
%TO.N,/BL-*%
X135500000Y-83422500D02*
X140827500Y-88750000D01*
X138000000Y-65600000D02*
X135500000Y-68100000D01*
X150400000Y-65600000D02*
X138000000Y-65600000D01*
X152800000Y-72800000D02*
X152800000Y-68000000D01*
X151539690Y-74060310D02*
X152800000Y-72800000D01*
X150260310Y-74060310D02*
X151539690Y-74060310D01*
X152800000Y-68000000D02*
X150400000Y-65600000D01*
X135500000Y-68100000D02*
X135500000Y-83422500D01*
%TO.N,Net-(J1-Pin_3)*%
D36*
X138750000Y-98250000D02*
X145235000Y-98250000D01*
%TO.N,/L_US_ECHO*%
X152815000Y-98250000D02*
X152815000Y-103000000D01*
%TO.N,/RIGHT_EN*%
D38*
X196739690Y-83960000D02*
X199439690Y-81260000D01*
D36*
X176080000Y-68720000D02*
X196739690Y-68720000D01*
X169640000Y-62280000D02*
X176080000Y-68720000D01*
D38*
X199439690Y-81260000D02*
X199439690Y-71420000D01*
X199439690Y-71420000D02*
X196739690Y-68720000D01*
%TO.N,/RIGHT_BACKWARD*%
X196739690Y-81420000D02*
X198739690Y-79420000D01*
D36*
X169640000Y-67360000D02*
X183700000Y-81420000D01*
D38*
X198739690Y-79420000D02*
X198739690Y-73260000D01*
D36*
X183700000Y-81420000D02*
X196739690Y-81420000D01*
D38*
X198739690Y-73260000D02*
X196739690Y-71260000D01*
%TO.N,/RIGHT_FORWARD*%
X198239690Y-77380000D02*
X198239690Y-75300000D01*
D36*
X169640000Y-64820000D02*
X178620000Y-73800000D01*
X178620000Y-73800000D02*
X196739690Y-73800000D01*
D38*
X196739690Y-78880000D02*
X198239690Y-77380000D01*
X198239690Y-75300000D02*
X196739690Y-73800000D01*
%TO.N,/STBY*%
D36*
X190960000Y-76340000D02*
X196739690Y-76340000D01*
X157790000Y-61000000D02*
X163250000Y-61000000D01*
X161250000Y-79250000D02*
X157790000Y-75790000D01*
X157790000Y-61000000D02*
X157790000Y-55980000D01*
X188300000Y-79000000D02*
X190960000Y-76340000D01*
X157790000Y-55980000D02*
X158020000Y-55750000D01*
X183900000Y-79000000D02*
X188300000Y-79000000D01*
X157790000Y-75790000D02*
X157790000Y-61000000D01*
%TO.N,Net-(U1-VM)*%
D37*
X215280690Y-65179000D02*
X211739690Y-68720000D01*
X217380000Y-65179000D02*
X215280690Y-65179000D01*
%TO.N,+3V3*%
D36*
X169600000Y-50775000D02*
X169600000Y-54620000D01*
X163250000Y-59000000D02*
X166250000Y-59000000D01*
X143200000Y-99600000D02*
X143200000Y-120000000D01*
X206479690Y-66000000D02*
X211739690Y-71260000D01*
X169600000Y-54620000D02*
X169640000Y-54660000D01*
X187600000Y-66000000D02*
X206479690Y-66000000D01*
X168050000Y-57200000D02*
X169640000Y-57200000D01*
X169640000Y-57200000D02*
X169640000Y-54660000D01*
X143200000Y-120000000D02*
X143400000Y-120200000D01*
X166250000Y-59000000D02*
X168050000Y-57200000D01*
%TO.N,/FR-*%
D39*
X221672500Y-71077500D02*
X221672500Y-70750000D01*
%TO.N,/BR-*%
D37*
X211739690Y-81420000D02*
X219342500Y-81420000D01*
X219342500Y-81420000D02*
X221672500Y-83750000D01*
%TO.N,/BR+*%
X221672500Y-87672500D02*
X221672500Y-88750000D01*
X217960000Y-83960000D02*
X221672500Y-87672500D01*
X211739690Y-83960000D02*
X217960000Y-83960000D01*
%TO.N,Net-(J3-Pin_3)*%
D36*
X204320000Y-100640000D02*
X207680000Y-100640000D01*
X207680000Y-100640000D02*
X212320000Y-96000000D01*
%TO.N,Net-(D1-K)*%
X155040000Y-55940000D02*
X155230000Y-55750000D01*
X149750000Y-55940000D02*
X155040000Y-55940000D01*
%TO.N,+12V*%
D37*
X187800000Y-111000000D02*
X196600000Y-111000000D01*
X161750000Y-90500000D02*
X161750000Y-103750000D01*
X196600000Y-111000000D02*
X203100000Y-104500000D01*
X178400000Y-120400000D02*
X187800000Y-111000000D01*
X178400000Y-120400000D02*
X178400000Y-126050000D01*
X161750000Y-103750000D02*
X178400000Y-120400000D01*
%TO.N,/BL+*%
X143200000Y-67600000D02*
X147120310Y-71520310D01*
X139400000Y-67600000D02*
X143200000Y-67600000D01*
X140827500Y-83750000D02*
X138000000Y-80922500D01*
X138000000Y-80922500D02*
X138000000Y-80800000D01*
X137800000Y-69200000D02*
X139400000Y-67600000D01*
X138000000Y-80800000D02*
X137800000Y-80600000D01*
X147120310Y-71520310D02*
X150260310Y-71520310D01*
X137800000Y-80600000D02*
X137800000Y-69200000D01*
%TO.N,/R_US_ECHO*%
D36*
X199070000Y-93020000D02*
X204320000Y-93020000D01*
%TO.N,Net-(U2-VM)*%
D37*
X154130000Y-93929000D02*
X154130000Y-90630000D01*
X154130000Y-90630000D02*
X150260310Y-86760310D01*
%TO.N,/LEFT_EN*%
D36*
X165260310Y-71520310D02*
X168720000Y-74980000D01*
D38*
X162600000Y-74180620D02*
X162600000Y-84100000D01*
X165260310Y-71520310D02*
X162600000Y-74180620D01*
D36*
X168720000Y-74980000D02*
X169640000Y-74980000D01*
D38*
X162600000Y-84100000D02*
X165260310Y-86760310D01*
%TO.N,/LEFT_FORWARD*%
D36*
X167069690Y-81680310D02*
X167500000Y-81250000D01*
X170270000Y-77520000D02*
X169640000Y-77520000D01*
D38*
X163750000Y-80170000D02*
X163750000Y-78110620D01*
D36*
X170375000Y-81250000D02*
X171250000Y-80375000D01*
X171250000Y-78500000D02*
X170270000Y-77520000D01*
X165260310Y-81680310D02*
X167069690Y-81680310D01*
D38*
X165260310Y-81680310D02*
X163750000Y-80170000D01*
X163750000Y-78110620D02*
X165260310Y-76600310D01*
D36*
X167500000Y-81250000D02*
X170375000Y-81250000D01*
X171250000Y-80375000D02*
X171250000Y-78500000D01*
%TO.N,/LEFT_BACKWARD*%
X168060000Y-80060000D02*
X169640000Y-80060000D01*
D38*
X163250000Y-76070620D02*
X165260310Y-74060310D01*
D36*
X167500000Y-76300000D02*
X167500000Y-79500000D01*
D38*
X163250000Y-82210000D02*
X163250000Y-76070620D01*
D36*
X167500000Y-79500000D02*
X168060000Y-80060000D01*
X165260310Y-74060310D02*
X167500000Y-76300000D01*
D38*
X165260310Y-84220310D02*
X163250000Y-82210000D01*
%TO.N,/F_US_ECHO*%
D36*
X197940000Y-58750000D02*
X197940000Y-64250000D01*
%TO.N,Net-(J2-Pin_3)*%
X203250000Y-56440000D02*
X205560000Y-58750000D01*
X203250000Y-50250000D02*
X203250000Y-56440000D01*
%TO.N,/FL+*%
D37*
X140827500Y-70750000D02*
X141870000Y-70750000D01*
X141870000Y-70750000D02*
X150260310Y-79140310D01*
%TD*%
M02*
