%TF.GenerationSoftware,KiCad,Pcbnew,9.0.7*%
%TF.CreationDate,2026-02-23T19:44:39-05:00*%
%TF.ProjectId,training-bot-pcb,74726169-6e69-46e6-972d-626f742d7063,rev?*%
%TF.SameCoordinates,Original*%
%TF.FileFunction,Soldermask,Bot*%
%TF.FilePolarity,Negative*%
%FSLAX46Y46*%
G04 Gerber Fmt 4.6, Leading zero omitted, Abs format (unit mm)*
G04 Created by KiCad (PCBNEW 9.0.7) date 2026-02-23 19:44:39*
%MOMM*%
%LPD*%
G01*
G04 APERTURE LIST*
G04 Aperture macros list*
%AMRoundRect*
0 Rectangle with rounded corners*
0 $1 Rounding radius*
0 $2 $3 $4 $5 $6 $7 $8 $9 X,Y pos of 4 corners*
0 Add a 4 corners polygon primitive as box body*
4,1,4,$2,$3,$4,$5,$6,$7,$8,$9,$2,$3,0*
0 Add four circle primitives for the rounded corners*
1,1,$1+$1,$2,$3*
1,1,$1+$1,$4,$5*
1,1,$1+$1,$6,$7*
1,1,$1+$1,$8,$9*
0 Add four rect primitives between the rounded corners*
20,1,$1+$1,$2,$3,$4,$5,0*
20,1,$1+$1,$4,$5,$6,$7,0*
20,1,$1+$1,$6,$7,$8,$9,0*
20,1,$1+$1,$8,$9,$2,$3,0*%
G04 Aperture macros list end*
%ADD10C,10.000000*%
%ADD11RoundRect,0.250000X0.750000X-0.750000X0.750000X0.750000X-0.750000X0.750000X-0.750000X-0.750000X0*%
%ADD12C,2.000000*%
%ADD13C,1.524000*%
%ADD14R,1.700000X1.700000*%
%ADD15C,1.700000*%
%ADD16O,3.500000X2.200000*%
%ADD17R,2.500000X1.500000*%
%ADD18O,2.500000X1.500000*%
%ADD19C,1.400000*%
%ADD20RoundRect,0.250000X-0.750000X-0.750000X0.750000X-0.750000X0.750000X0.750000X-0.750000X0.750000X0*%
%ADD21R,1.800000X1.800000*%
%ADD22C,1.800000*%
%ADD23R,1.524000X1.524000*%
G04 APERTURE END LIST*
D10*
%TO.C,*%
X214604600Y-129895600D03*
%TD*%
%TO.C,*%
X148031200Y-129794000D03*
%TD*%
%TO.C,*%
X193827400Y-77698600D03*
%TD*%
%TO.C,REF\u002A\u002A*%
X148183600Y-77881600D03*
%TD*%
D11*
%TO.C,M4*%
X159737500Y-101833600D03*
D12*
X159737500Y-99293600D03*
%TD*%
D13*
%TO.C,U1*%
X197198029Y-115755681D03*
X199738029Y-115755681D03*
X202278029Y-115755681D03*
X204818029Y-115755681D03*
X207358029Y-115755681D03*
X209898029Y-115755681D03*
X212438029Y-115755681D03*
X214978029Y-115755681D03*
X197198029Y-100755681D03*
X199738029Y-100755681D03*
X202278029Y-100755681D03*
X204818029Y-100755681D03*
X207358029Y-100755681D03*
X209898029Y-100755681D03*
X212438029Y-100755681D03*
X214978029Y-100755681D03*
%TD*%
D14*
%TO.C,J3*%
X169545000Y-88011000D03*
D15*
X172085000Y-88011000D03*
X174625000Y-88011000D03*
X177165000Y-88011000D03*
%TD*%
D16*
%TO.C,SW1*%
X162585400Y-84895000D03*
X162585400Y-93095000D03*
D17*
X162585400Y-86995000D03*
D18*
X162585400Y-88995000D03*
X162585400Y-90995000D03*
%TD*%
D19*
%TO.C,R1*%
X149123400Y-93116400D03*
X149123400Y-88036400D03*
%TD*%
D11*
%TO.C,M2*%
X150114000Y-101981000D03*
D12*
X150114000Y-99441000D03*
%TD*%
D19*
%TO.C,R2*%
X188417200Y-98196400D03*
X188417200Y-103276400D03*
%TD*%
D14*
%TO.C,J4*%
X191262400Y-128051800D03*
D15*
X191262400Y-125511800D03*
X191262400Y-122971800D03*
X191262400Y-120431800D03*
X191262400Y-117891800D03*
X191262400Y-115351800D03*
X191262400Y-112811800D03*
X191262400Y-110271800D03*
%TD*%
D20*
%TO.C,M3*%
X207416400Y-90347800D03*
D12*
X209956400Y-90347800D03*
%TD*%
D14*
%TO.C,J2*%
X162407600Y-109143800D03*
D15*
X159867600Y-109143800D03*
X157327600Y-109143800D03*
X154787600Y-109143800D03*
%TD*%
D21*
%TO.C,D1*%
X155651200Y-90322400D03*
D22*
X153111200Y-90322400D03*
%TD*%
D13*
%TO.C,U4*%
X184327800Y-111861600D03*
X184327800Y-109321600D03*
X184327800Y-106781600D03*
X184327800Y-104241600D03*
X184327800Y-101701600D03*
X184327800Y-99161600D03*
X184327800Y-96621600D03*
X184327800Y-94081600D03*
X169327800Y-111861600D03*
X169327800Y-109321600D03*
X169327800Y-106781600D03*
X169327800Y-104241600D03*
X169327800Y-101701600D03*
X169327800Y-99161600D03*
X169327800Y-96621600D03*
X169327800Y-94081600D03*
%TD*%
D23*
%TO.C,U2*%
X165627000Y-115977400D03*
D13*
X163087000Y-115977400D03*
X165653000Y-131977400D03*
X163113000Y-131977400D03*
%TD*%
D20*
%TO.C,M1*%
X207568800Y-79756000D03*
D12*
X210108800Y-79756000D03*
%TD*%
M02*
