M48
; DRILL file {KiCad 9.0.7} date 2026-02-23T19:44:23-0500
; FORMAT={-:-/ absolute / metric / decimal}
; #@! TF.CreationDate,2026-02-23T19:44:23-05:00
; #@! TF.GenerationSoftware,Kicad,Pcbnew,9.0.7
; #@! TF.FileFunction,Plated,1,2,PTH
FMAT,2
METRIC
; #@! TA.AperFunction,Plated,PTH,ComponentDrill
T1C0.700
; #@! TA.AperFunction,Plated,PTH,ComponentDrill
T2C0.762
; #@! TA.AperFunction,Plated,PTH,ComponentDrill
T3C0.800
; #@! TA.AperFunction,Plated,PTH,ComponentDrill
T4C0.900
; #@! TA.AperFunction,Plated,PTH,ComponentDrill
T5C1.000
; #@! TA.AperFunction,Plated,PTH,ComponentDrill
T6C1.200
; #@! TA.AperFunction,Plated,PTH,ComponentDrill
T7C1.500
%
G90
G05
T1
X149.123Y-88.036
X149.123Y-93.116
X188.417Y-98.196
X188.417Y-103.276
T2
X163.087Y-115.977
X163.113Y-131.977
X165.627Y-115.977
X165.653Y-131.977
X169.328Y-94.082
X169.328Y-96.622
X169.328Y-99.162
X169.328Y-101.702
X169.328Y-104.242
X169.328Y-106.782
X169.328Y-109.322
X169.328Y-111.862
X184.328Y-94.082
X184.328Y-96.622
X184.328Y-99.162
X184.328Y-101.702
X184.328Y-104.242
X184.328Y-106.782
X184.328Y-109.322
X184.328Y-111.862
X197.198Y-100.756
X197.198Y-115.756
X199.738Y-100.756
X199.738Y-115.756
X202.278Y-100.756
X202.278Y-115.756
X204.818Y-100.756
X204.818Y-115.756
X207.358Y-100.756
X207.358Y-115.756
X209.898Y-100.756
X209.898Y-115.756
X212.438Y-100.756
X212.438Y-115.756
X214.978Y-100.756
X214.978Y-115.756
T3
X162.585Y-86.995
X162.585Y-88.995
X162.585Y-90.995
T4
X153.111Y-90.322
X155.651Y-90.322
T5
X154.788Y-109.144
X157.328Y-109.144
X159.868Y-109.144
X162.408Y-109.144
X169.545Y-88.011
X172.085Y-88.011
X174.625Y-88.011
X177.165Y-88.011
X191.262Y-110.272
X191.262Y-112.812
X191.262Y-115.352
X191.262Y-117.892
X191.262Y-120.432
X191.262Y-122.972
X191.262Y-125.512
X191.262Y-128.052
T6
X150.114Y-99.441
X150.114Y-101.981
X159.737Y-99.294
X159.737Y-101.834
X207.416Y-90.348
X207.569Y-79.756
X209.956Y-90.348
X210.109Y-79.756
T7
X162.585Y-84.895
X162.585Y-93.095
M30
