%TF.GenerationSoftware,KiCad,Pcbnew,9.0.7*%
%TF.CreationDate,2026-02-20T18:16:06-05:00*%
%TF.ProjectId,Training_Robot,54726169-6e69-46e6-975f-526f626f742e,rev?*%
%TF.SameCoordinates,Original*%
%TF.FileFunction,Copper,L2,Bot*%
%TF.FilePolarity,Positive*%
%FSLAX46Y46*%
G04 Gerber Fmt 4.6, Leading zero omitted, Abs format (unit mm)*
G04 Created by KiCad (PCBNEW 9.0.7) date 2026-02-20 18:16:06*
%MOMM*%
%LPD*%
G01*
G04 APERTURE LIST*
G04 Aperture macros list*
%AMRoundRect*
0 Rectangle with rounded corners*
0 $1 Rounding radius*
0 $2 $3 $4 $5 $6 $7 $8 $9 X,Y pos of 4 corners*
0 Add a 4 corners polygon primitive as box body*
4,1,4,$2,$3,$4,$5,$6,$7,$8,$9,$2,$3,0*
0 Add four circle primitives for the rounded corners*
1,1,$1+$1,$2,$3*
1,1,$1+$1,$4,$5*
1,1,$1+$1,$6,$7*
1,1,$1+$1,$8,$9*
0 Add four rect primitives between the rounded corners*
20,1,$1+$1,$2,$3,$4,$5,0*
20,1,$1+$1,$4,$5,$6,$7,0*
20,1,$1+$1,$6,$7,$8,$9,0*
20,1,$1+$1,$8,$9,$2,$3,0*%
G04 Aperture macros list end*
%TA.AperFunction,ComponentPad*%
%ADD10R,1.700000X1.700000*%
%TD*%
%TA.AperFunction,ComponentPad*%
%ADD11C,1.700000*%
%TD*%
%TA.AperFunction,ComponentPad*%
%ADD12C,1.524000*%
%TD*%
%TA.AperFunction,ComponentPad*%
%ADD13R,1.524000X1.524000*%
%TD*%
%TA.AperFunction,ComponentPad*%
%ADD14O,2.200000X3.500000*%
%TD*%
%TA.AperFunction,ComponentPad*%
%ADD15R,1.500000X2.500000*%
%TD*%
%TA.AperFunction,ComponentPad*%
%ADD16O,1.500000X2.500000*%
%TD*%
%TA.AperFunction,ComponentPad*%
%ADD17RoundRect,0.250000X-0.750000X0.750000X-0.750000X-0.750000X0.750000X-0.750000X0.750000X0.750000X0*%
%TD*%
%TA.AperFunction,ComponentPad*%
%ADD18C,2.000000*%
%TD*%
%TA.AperFunction,ComponentPad*%
%ADD19C,1.400000*%
%TD*%
%TA.AperFunction,ComponentPad*%
%ADD20R,1.800000X1.800000*%
%TD*%
%TA.AperFunction,ComponentPad*%
%ADD21C,1.800000*%
%TD*%
%TA.AperFunction,ComponentPad*%
%ADD22RoundRect,0.250000X0.750000X-0.750000X0.750000X0.750000X-0.750000X0.750000X-0.750000X-0.750000X0*%
%TD*%
%TA.AperFunction,ViaPad*%
%ADD23C,0.600000*%
%TD*%
%TA.AperFunction,Conductor*%
%ADD24C,0.200000*%
%TD*%
G04 APERTURE END LIST*
D10*
%TO.P,J5,1,Pin_1*%
%TO.N,GND*%
X202960000Y-45500000D03*
D11*
%TO.P,J5,2,Pin_2*%
X205500000Y-45500000D03*
%TO.P,J5,3,Pin_3*%
X208040000Y-45500000D03*
%TO.P,J5,4,Pin_4*%
X210580000Y-45500000D03*
%TD*%
%TO.P,J4,4,Pin_4*%
%TO.N,+3V3*%
X198620000Y-45500000D03*
%TO.P,J4,3,Pin_3*%
X196080000Y-45500000D03*
%TO.P,J4,2,Pin_2*%
X193540000Y-45500000D03*
D10*
%TO.P,J4,1,Pin_1*%
X191000000Y-45500000D03*
%TD*%
D12*
%TO.P,U4,1,VCC*%
%TO.N,+12V motor pwr*%
X207434000Y-52500000D03*
D13*
%TO.P,U4,2,VCC*%
X209974000Y-52500000D03*
D12*
%TO.P,U4,3,GND*%
%TO.N,GND*%
X207460000Y-68500000D03*
%TO.P,U4,4,GND*%
X210000000Y-68500000D03*
%TD*%
%TO.P,U2,1,PWMA*%
%TO.N,Net-(J1-Pin_6)*%
X172500000Y-75500000D03*
%TO.P,U2,2,AIN2*%
%TO.N,Net-(J1-Pin_8)*%
X172500000Y-78040000D03*
%TO.P,U2,3,AIN1*%
%TO.N,Net-(J1-Pin_7)*%
X172500000Y-80580000D03*
%TO.P,U2,4,STBY*%
%TO.N,/STBY*%
X172500000Y-83120000D03*
%TO.P,U2,5,BIN1*%
%TO.N,Net-(J1-Pin_7)*%
X172500000Y-85660000D03*
%TO.P,U2,6,BIN2*%
%TO.N,Net-(J1-Pin_8)*%
X172500000Y-88200000D03*
%TO.P,U2,7,PWMB*%
%TO.N,Net-(J1-Pin_6)*%
X172500000Y-90740000D03*
%TO.P,U2,8,GND*%
%TO.N,GND*%
X172500000Y-93280000D03*
%TO.P,U2,9,VM*%
%TO.N,+12V motor pwr*%
X187500000Y-75500000D03*
%TO.P,U2,10,VCC*%
%TO.N,+3V3*%
X187500000Y-78040000D03*
%TO.P,U2,11,GND*%
%TO.N,GND*%
X187500000Y-80580000D03*
%TO.P,U2,12,AO1*%
%TO.N,/FL+*%
X187500000Y-83120000D03*
%TO.P,U2,13,AO2*%
%TO.N,/FL-*%
X187500000Y-85660000D03*
%TO.P,U2,14,BO2*%
%TO.N,/BL-*%
X187500000Y-88200000D03*
%TO.P,U2,15,BO1*%
%TO.N,/BL+*%
X187500000Y-90740000D03*
%TO.P,U2,16,GND*%
%TO.N,GND*%
X187500000Y-93280000D03*
%TD*%
D14*
%TO.P,SW1,*%
%TO.N,*%
X213000000Y-75500000D03*
X204800000Y-75500000D03*
D15*
%TO.P,SW1,1,B*%
%TO.N,Net-(D1-A)*%
X210900000Y-75500000D03*
D16*
%TO.P,SW1,2,C*%
%TO.N,+3V3*%
X208900000Y-75500000D03*
%TO.P,SW1,3,A*%
%TO.N,GND*%
X206900000Y-75500000D03*
%TD*%
D17*
%TO.P,M2,1,+*%
%TO.N,/FR+*%
X197800000Y-54460000D03*
D18*
%TO.P,M2,2,-*%
%TO.N,/FR-*%
X197800000Y-57000000D03*
%TD*%
D11*
%TO.P,J1,8,Pin_8*%
%TO.N,Net-(J1-Pin_8)*%
X156000000Y-80740000D03*
%TO.P,J1,7,Pin_7*%
%TO.N,Net-(J1-Pin_7)*%
X156000000Y-78200000D03*
%TO.P,J1,6,Pin_6*%
%TO.N,Net-(J1-Pin_6)*%
X156000000Y-75660000D03*
%TO.P,J1,5,Pin_5*%
%TO.N,Net-(J1-Pin_5)*%
X156000000Y-73120000D03*
%TO.P,J1,4,Pin_4*%
%TO.N,Net-(J1-Pin_4)*%
X156000000Y-70580000D03*
%TO.P,J1,3,Pin_3*%
%TO.N,Net-(J1-Pin_3)*%
X156000000Y-68040000D03*
%TO.P,J1,2,Pin_2*%
%TO.N,GND*%
X156000000Y-65500000D03*
D10*
%TO.P,J1,1,Pin_1*%
%TO.N,+3V3*%
X156000000Y-62960000D03*
%TD*%
D19*
%TO.P,R1,1*%
%TO.N,Net-(D1-A)*%
X217420000Y-75500000D03*
%TO.P,R1,2*%
%TO.N,/STBY*%
X222500000Y-75500000D03*
%TD*%
%TO.P,R2,1*%
%TO.N,GND*%
X213000000Y-91580000D03*
%TO.P,R2,2*%
%TO.N,Net-(D1-K)*%
X213000000Y-86500000D03*
%TD*%
D20*
%TO.P,D1,1,K*%
%TO.N,Net-(D1-K)*%
X213000000Y-83040000D03*
D21*
%TO.P,D1,2,A*%
%TO.N,Net-(D1-A)*%
X213000000Y-80500000D03*
%TD*%
D22*
%TO.P,M4,1,+*%
%TO.N,/BR+*%
X197500000Y-65040000D03*
D18*
%TO.P,M4,2,-*%
%TO.N,/BR-*%
X197500000Y-62500000D03*
%TD*%
D22*
%TO.P,M3,1,+*%
%TO.N,/BL+*%
X197500000Y-90040000D03*
D18*
%TO.P,M3,2,-*%
%TO.N,/BL-*%
X197500000Y-87500000D03*
%TD*%
D17*
%TO.P,M1,1,+*%
%TO.N,/FL+*%
X197800000Y-79500000D03*
D18*
%TO.P,M1,2,-*%
%TO.N,/FL-*%
X197800000Y-82040000D03*
%TD*%
D12*
%TO.P,U1,1,PWMA*%
%TO.N,Net-(J1-Pin_3)*%
X172380000Y-51720000D03*
%TO.P,U1,2,AIN2*%
%TO.N,Net-(J1-Pin_5)*%
X172380000Y-54260000D03*
%TO.P,U1,3,AIN1*%
%TO.N,Net-(J1-Pin_4)*%
X172380000Y-56800000D03*
%TO.P,U1,4,STBY*%
%TO.N,/STBY*%
X172380000Y-59340000D03*
%TO.P,U1,5,BIN1*%
%TO.N,Net-(J1-Pin_4)*%
X172380000Y-61880000D03*
%TO.P,U1,6,BIN2*%
%TO.N,Net-(J1-Pin_5)*%
X172380000Y-64420000D03*
%TO.P,U1,7,PWMB*%
%TO.N,Net-(J1-Pin_3)*%
X172380000Y-66960000D03*
%TO.P,U1,8,GND*%
%TO.N,GND*%
X172380000Y-69500000D03*
%TO.P,U1,9,VM*%
%TO.N,+12V motor pwr*%
X187380000Y-51720000D03*
%TO.P,U1,10,VCC*%
%TO.N,+3V3*%
X187380000Y-54260000D03*
%TO.P,U1,11,GND*%
%TO.N,GND*%
X187380000Y-56800000D03*
%TO.P,U1,12,AO1*%
%TO.N,/FR+*%
X187380000Y-59340000D03*
%TO.P,U1,13,AO2*%
%TO.N,/FR-*%
X187380000Y-61880000D03*
%TO.P,U1,14,BO2*%
%TO.N,/BR-*%
X187380000Y-64420000D03*
%TO.P,U1,15,BO1*%
%TO.N,/BR+*%
X187380000Y-66960000D03*
%TO.P,U1,16,GND*%
%TO.N,GND*%
X187380000Y-69500000D03*
%TD*%
D23*
%TO.N,Net-(J1-Pin_5)*%
X168500000Y-66360000D03*
X168500000Y-67560000D03*
%TO.N,/STBY*%
X169500000Y-59000000D03*
X169500000Y-52500000D03*
%TO.N,Net-(J1-Pin_8)*%
X165500000Y-78800000D03*
X166500000Y-77500000D03*
%TO.N,Net-(J1-Pin_5)*%
X166600000Y-63000000D03*
X165400000Y-63000000D03*
%TO.N,/STBY*%
X170000000Y-84000000D03*
X170000000Y-91500000D03*
%TO.N,Net-(J1-Pin_4)*%
X166000000Y-66360000D03*
X166000000Y-67560000D03*
%TO.N,+3V3*%
X191000000Y-51600000D03*
X191000000Y-50000000D03*
%TD*%
D24*
%TO.N,Net-(J1-Pin_5)*%
X168500000Y-67560000D02*
X168500000Y-66360000D01*
%TO.N,/STBY*%
X169500000Y-59000000D02*
X169500000Y-52500000D01*
%TO.N,+3V3*%
X191000000Y-50000000D02*
X191000000Y-51600000D01*
%TO.N,Net-(J1-Pin_8)*%
X165500000Y-78500000D02*
X166500000Y-77500000D01*
X165500000Y-78800000D02*
X165500000Y-78500000D01*
%TO.N,Net-(J1-Pin_4)*%
X166000000Y-67560000D02*
X166000000Y-66360000D01*
%TO.N,Net-(J1-Pin_5)*%
X166600000Y-63000000D02*
X165400000Y-63000000D01*
%TO.N,/STBY*%
X170000000Y-91500000D02*
X170000000Y-84000000D01*
%TD*%
%TA.AperFunction,Conductor*%
%TO.N,GND*%
G36*
X234914523Y-35520185D02*
G01*
X234960278Y-35572989D01*
X234970222Y-35642147D01*
X234941197Y-35705703D01*
X234916375Y-35727602D01*
X234686802Y-35880997D01*
X234686788Y-35881007D01*
X234392212Y-36122760D01*
X234122760Y-36392212D01*
X233881007Y-36686788D01*
X233880997Y-36686802D01*
X233669292Y-37003641D01*
X233669281Y-37003659D01*
X233489653Y-37339720D01*
X233489651Y-37339725D01*
X233343818Y-37691795D01*
X233233194Y-38056474D01*
X233233191Y-38056485D01*
X233158854Y-38430213D01*
X233158851Y-38430230D01*
X233121500Y-38809465D01*
X233121500Y-39190534D01*
X233158851Y-39569769D01*
X233158854Y-39569786D01*
X233233191Y-39943514D01*
X233233194Y-39943525D01*
X233343818Y-40308204D01*
X233489651Y-40660274D01*
X233489653Y-40660279D01*
X233669281Y-40996340D01*
X233669292Y-40996358D01*
X233880997Y-41313197D01*
X233881007Y-41313211D01*
X234122760Y-41607787D01*
X234392212Y-41877239D01*
X234392217Y-41877243D01*
X234392218Y-41877244D01*
X234686794Y-42118997D01*
X235003648Y-42330712D01*
X235003657Y-42330717D01*
X235003659Y-42330718D01*
X235339720Y-42510346D01*
X235339722Y-42510346D01*
X235339728Y-42510350D01*
X235691797Y-42656182D01*
X236056465Y-42766803D01*
X236056471Y-42766804D01*
X236056474Y-42766805D01*
X236056485Y-42766808D01*
X236290845Y-42813423D01*
X236430220Y-42841147D01*
X236809462Y-42878500D01*
X236809465Y-42878500D01*
X237190535Y-42878500D01*
X237190538Y-42878500D01*
X237569780Y-42841147D01*
X237754776Y-42804349D01*
X237943514Y-42766808D01*
X237943525Y-42766805D01*
X237943525Y-42766804D01*
X237943535Y-42766803D01*
X238308203Y-42656182D01*
X238660272Y-42510350D01*
X238996352Y-42330712D01*
X239313206Y-42118997D01*
X239607782Y-41877244D01*
X239877244Y-41607782D01*
X240118997Y-41313206D01*
X240272398Y-41083624D01*
X240326010Y-41038819D01*
X240395335Y-41030112D01*
X240458362Y-41060266D01*
X240495082Y-41119709D01*
X240499500Y-41152515D01*
X240499500Y-98847484D01*
X240479815Y-98914523D01*
X240427011Y-98960278D01*
X240357853Y-98970222D01*
X240294297Y-98941197D01*
X240272398Y-98916375D01*
X240230998Y-98854415D01*
X240118997Y-98686794D01*
X239877244Y-98392218D01*
X239877243Y-98392217D01*
X239877239Y-98392212D01*
X239607787Y-98122760D01*
X239313211Y-97881007D01*
X239313210Y-97881006D01*
X239313206Y-97881003D01*
X238996352Y-97669288D01*
X238996347Y-97669285D01*
X238996340Y-97669281D01*
X238660279Y-97489653D01*
X238660274Y-97489651D01*
X238308204Y-97343818D01*
X237943525Y-97233194D01*
X237943514Y-97233191D01*
X237569786Y-97158854D01*
X237569769Y-97158851D01*
X237282987Y-97130605D01*
X237190538Y-97121500D01*
X236809462Y-97121500D01*
X236723960Y-97129921D01*
X236430230Y-97158851D01*
X236430213Y-97158854D01*
X236056485Y-97233191D01*
X236056474Y-97233194D01*
X235691795Y-97343818D01*
X235339725Y-97489651D01*
X235339720Y-97489653D01*
X235003659Y-97669281D01*
X235003641Y-97669292D01*
X234686802Y-97880997D01*
X234686788Y-97881007D01*
X234392212Y-98122760D01*
X234122760Y-98392212D01*
X233881007Y-98686788D01*
X233880997Y-98686802D01*
X233669292Y-99003641D01*
X233669281Y-99003659D01*
X233489653Y-99339720D01*
X233489651Y-99339725D01*
X233343818Y-99691795D01*
X233233194Y-100056474D01*
X233233191Y-100056485D01*
X233158854Y-100430213D01*
X233158851Y-100430230D01*
X233121500Y-100809465D01*
X233121500Y-101190534D01*
X233158851Y-101569769D01*
X233158854Y-101569786D01*
X233233191Y-101943514D01*
X233233194Y-101943525D01*
X233343818Y-102308204D01*
X233489651Y-102660274D01*
X233489653Y-102660279D01*
X233669281Y-102996340D01*
X233669292Y-102996358D01*
X233880997Y-103313197D01*
X233881007Y-103313211D01*
X234122760Y-103607787D01*
X234392212Y-103877239D01*
X234392217Y-103877243D01*
X234392218Y-103877244D01*
X234686794Y-104118997D01*
X234892052Y-104256146D01*
X234916375Y-104272398D01*
X234961180Y-104326010D01*
X234969887Y-104395335D01*
X234939733Y-104458362D01*
X234880290Y-104495082D01*
X234847484Y-104499500D01*
X145652516Y-104499500D01*
X145585477Y-104479815D01*
X145539722Y-104427011D01*
X145529778Y-104357853D01*
X145558803Y-104294297D01*
X145583625Y-104272398D01*
X145607948Y-104256146D01*
X145813206Y-104118997D01*
X146107782Y-103877244D01*
X146377244Y-103607782D01*
X146618997Y-103313206D01*
X146830712Y-102996352D01*
X147010350Y-102660272D01*
X147156182Y-102308203D01*
X147266803Y-101943535D01*
X147266805Y-101943525D01*
X147266808Y-101943514D01*
X147304349Y-101754776D01*
X147341147Y-101569780D01*
X147378500Y-101190538D01*
X147378500Y-100809462D01*
X147341147Y-100430220D01*
X147313423Y-100290845D01*
X147266808Y-100056485D01*
X147266805Y-100056474D01*
X147266804Y-100056471D01*
X147266803Y-100056465D01*
X147156182Y-99691797D01*
X147010350Y-99339728D01*
X146830712Y-99003648D01*
X146618997Y-98686794D01*
X146377244Y-98392218D01*
X146377243Y-98392217D01*
X146377239Y-98392212D01*
X146107787Y-98122760D01*
X145813211Y-97881007D01*
X145813210Y-97881006D01*
X145813206Y-97881003D01*
X145496352Y-97669288D01*
X145496347Y-97669285D01*
X145496340Y-97669281D01*
X145160279Y-97489653D01*
X145160274Y-97489651D01*
X144808204Y-97343818D01*
X144443525Y-97233194D01*
X144443514Y-97233191D01*
X144069786Y-97158854D01*
X144069769Y-97158851D01*
X143782987Y-97130605D01*
X143690538Y-97121500D01*
X143309462Y-97121500D01*
X143223960Y-97129921D01*
X142930230Y-97158851D01*
X142930213Y-97158854D01*
X142556485Y-97233191D01*
X142556474Y-97233194D01*
X142191795Y-97343818D01*
X141839725Y-97489651D01*
X141839720Y-97489653D01*
X141503659Y-97669281D01*
X141503641Y-97669292D01*
X141186802Y-97880997D01*
X141186788Y-97881007D01*
X140892212Y-98122760D01*
X140622760Y-98392212D01*
X140381007Y-98686788D01*
X140380997Y-98686802D01*
X140227602Y-98916375D01*
X140173990Y-98961180D01*
X140104665Y-98969887D01*
X140041638Y-98939733D01*
X140004918Y-98880290D01*
X140000500Y-98847484D01*
X140000500Y-83921153D01*
X169199500Y-83921153D01*
X169199500Y-84078846D01*
X169230261Y-84233489D01*
X169230264Y-84233501D01*
X169290602Y-84379172D01*
X169290609Y-84379185D01*
X169378602Y-84510874D01*
X169399480Y-84577551D01*
X169399500Y-84579765D01*
X169399500Y-90920234D01*
X169379815Y-90987273D01*
X169378602Y-90989125D01*
X169290609Y-91120814D01*
X169290602Y-91120827D01*
X169230264Y-91266498D01*
X169230261Y-91266510D01*
X169199500Y-91421153D01*
X169199500Y-91578846D01*
X169230261Y-91733489D01*
X169230264Y-91733501D01*
X169290602Y-91879172D01*
X169290609Y-91879185D01*
X169378210Y-92010288D01*
X169378213Y-92010292D01*
X169489707Y-92121786D01*
X169489711Y-92121789D01*
X169620814Y-92209390D01*
X169620827Y-92209397D01*
X169681017Y-92234328D01*
X169766503Y-92269737D01*
X169921153Y-92300499D01*
X169921156Y-92300500D01*
X169921158Y-92300500D01*
X170078844Y-92300500D01*
X170078845Y-92300499D01*
X170233497Y-92269737D01*
X170379179Y-92209394D01*
X170510289Y-92121789D01*
X170621789Y-92010289D01*
X170709394Y-91879179D01*
X170769737Y-91733497D01*
X170800500Y-91578842D01*
X170800500Y-91421158D01*
X170800500Y-91421155D01*
X170800499Y-91421153D01*
X170796628Y-91401694D01*
X170769737Y-91266503D01*
X170752394Y-91224632D01*
X170709397Y-91120827D01*
X170709390Y-91120814D01*
X170621398Y-90989125D01*
X170600520Y-90922447D01*
X170600500Y-90920234D01*
X170600500Y-84579765D01*
X170620185Y-84512726D01*
X170621398Y-84510874D01*
X170709390Y-84379185D01*
X170709390Y-84379184D01*
X170709394Y-84379179D01*
X170769737Y-84233497D01*
X170800500Y-84078842D01*
X170800500Y-83921158D01*
X170800500Y-83921155D01*
X170800499Y-83921153D01*
X170769737Y-83766503D01*
X170769735Y-83766498D01*
X170709397Y-83620827D01*
X170709390Y-83620814D01*
X170621789Y-83489711D01*
X170621786Y-83489707D01*
X170510292Y-83378213D01*
X170510288Y-83378210D01*
X170379185Y-83290609D01*
X170379172Y-83290602D01*
X170233501Y-83230264D01*
X170233489Y-83230261D01*
X170078845Y-83199500D01*
X170078842Y-83199500D01*
X169921158Y-83199500D01*
X169921155Y-83199500D01*
X169766510Y-83230261D01*
X169766498Y-83230264D01*
X169620827Y-83290602D01*
X169620814Y-83290609D01*
X169489711Y-83378210D01*
X169489707Y-83378213D01*
X169378213Y-83489707D01*
X169378210Y-83489711D01*
X169290609Y-83620814D01*
X169290602Y-83620827D01*
X169230264Y-83766498D01*
X169230261Y-83766510D01*
X169199500Y-83921153D01*
X140000500Y-83921153D01*
X140000500Y-62062135D01*
X154649500Y-62062135D01*
X154649500Y-63857870D01*
X154649501Y-63857876D01*
X154655908Y-63917483D01*
X154706202Y-64052328D01*
X154706206Y-64052335D01*
X154792452Y-64167544D01*
X154792455Y-64167547D01*
X154907664Y-64253793D01*
X154907671Y-64253797D01*
X154952618Y-64270561D01*
X155042517Y-64304091D01*
X155102127Y-64310500D01*
X155112685Y-64310499D01*
X155179723Y-64330179D01*
X155200372Y-64346818D01*
X155870591Y-65017037D01*
X155807007Y-65034075D01*
X155692993Y-65099901D01*
X155599901Y-65192993D01*
X155534075Y-65307007D01*
X155517037Y-65370591D01*
X154884728Y-64738282D01*
X154884727Y-64738282D01*
X154845380Y-64792439D01*
X154748904Y-64981782D01*
X154683242Y-65183869D01*
X154683242Y-65183872D01*
X154650000Y-65393753D01*
X154650000Y-65606246D01*
X154683242Y-65816127D01*
X154683242Y-65816130D01*
X154748904Y-66018217D01*
X154845375Y-66207550D01*
X154884728Y-66261716D01*
X155517037Y-65629408D01*
X155534075Y-65692993D01*
X155599901Y-65807007D01*
X155692993Y-65900099D01*
X155807007Y-65965925D01*
X155870590Y-65982962D01*
X155238282Y-66615269D01*
X155238282Y-66615270D01*
X155292452Y-66654626D01*
X155292451Y-66654626D01*
X155301495Y-66659234D01*
X155352292Y-66707208D01*
X155369087Y-66775029D01*
X155346550Y-66841164D01*
X155301499Y-66880202D01*
X155292182Y-66884949D01*
X155120213Y-67009890D01*
X154969890Y-67160213D01*
X154844951Y-67332179D01*
X154748444Y-67521585D01*
X154682753Y-67723760D01*
X154670475Y-67801282D01*
X154649500Y-67933713D01*
X154649500Y-68146287D01*
X154655123Y-68181786D01*
X154682230Y-68352939D01*
X154682754Y-68356243D01*
X154729463Y-68499999D01*
X154748444Y-68558414D01*
X154844951Y-68747820D01*
X154969890Y-68919786D01*
X155120213Y-69070109D01*
X155292182Y-69195050D01*
X155300946Y-69199516D01*
X155351742Y-69247491D01*
X155368536Y-69315312D01*
X155345998Y-69381447D01*
X155300946Y-69420484D01*
X155292182Y-69424949D01*
X155120213Y-69549890D01*
X154969890Y-69700213D01*
X154844951Y-69872179D01*
X154748444Y-70061585D01*
X154682753Y-70263760D01*
X154649500Y-70473713D01*
X154649500Y-70686286D01*
X154682753Y-70896239D01*
X154748444Y-71098414D01*
X154844951Y-71287820D01*
X154969890Y-71459786D01*
X155120213Y-71610109D01*
X155292182Y-71735050D01*
X155300946Y-71739516D01*
X155351742Y-71787491D01*
X155368536Y-71855312D01*
X155345998Y-71921447D01*
X155300946Y-71960484D01*
X155292182Y-71964949D01*
X155120213Y-72089890D01*
X154969890Y-72240213D01*
X154844951Y-72412179D01*
X154748444Y-72601585D01*
X154682753Y-72803760D01*
X154649500Y-73013713D01*
X154649500Y-73226287D01*
X154682754Y-73436243D01*
X154745451Y-73629205D01*
X154748444Y-73638414D01*
X154844951Y-73827820D01*
X154969890Y-73999786D01*
X155120213Y-74150109D01*
X155292182Y-74275050D01*
X155300946Y-74279516D01*
X155351742Y-74327491D01*
X155368536Y-74395312D01*
X155345998Y-74461447D01*
X155300946Y-74500484D01*
X155292182Y-74504949D01*
X155120213Y-74629890D01*
X154969890Y-74780213D01*
X154844951Y-74952179D01*
X154748444Y-75141585D01*
X154682753Y-75343760D01*
X154671444Y-75415165D01*
X154649500Y-75553713D01*
X154649500Y-75766287D01*
X154654149Y-75795637D01*
X154682753Y-75976239D01*
X154748444Y-76178414D01*
X154844951Y-76367820D01*
X154969890Y-76539786D01*
X155120213Y-76690109D01*
X155292182Y-76815050D01*
X155300946Y-76819516D01*
X155351742Y-76867491D01*
X155368536Y-76935312D01*
X155345998Y-77001447D01*
X155300946Y-77040484D01*
X155292182Y-77044949D01*
X155120213Y-77169890D01*
X154969890Y-77320213D01*
X154844951Y-77492179D01*
X154748444Y-77681585D01*
X154748443Y-77681587D01*
X154748443Y-77681588D01*
X154738857Y-77711090D01*
X154682753Y-77883760D01*
X154661642Y-78017052D01*
X154649500Y-78093713D01*
X154649500Y-78306287D01*
X154654149Y-78335637D01*
X154667640Y-78420821D01*
X154682754Y-78516243D01*
X154742454Y-78699981D01*
X154748444Y-78718414D01*
X154844951Y-78907820D01*
X154969890Y-79079786D01*
X155120213Y-79230109D01*
X155292182Y-79355050D01*
X155300946Y-79359516D01*
X155351742Y-79407491D01*
X155368536Y-79475312D01*
X155345998Y-79541447D01*
X155300946Y-79580484D01*
X155292182Y-79584949D01*
X155120213Y-79709890D01*
X154969890Y-79860213D01*
X154844951Y-80032179D01*
X154748444Y-80221585D01*
X154682753Y-80423760D01*
X154658007Y-80580000D01*
X154649500Y-80633713D01*
X154649500Y-80846287D01*
X154654149Y-80875637D01*
X154679801Y-81037603D01*
X154682754Y-81056243D01*
X154746868Y-81253566D01*
X154748444Y-81258414D01*
X154844951Y-81447820D01*
X154969890Y-81619786D01*
X155120213Y-81770109D01*
X155292179Y-81895048D01*
X155292181Y-81895049D01*
X155292184Y-81895051D01*
X155481588Y-81991557D01*
X155683757Y-82057246D01*
X155893713Y-82090500D01*
X155893714Y-82090500D01*
X156106286Y-82090500D01*
X156106287Y-82090500D01*
X156316243Y-82057246D01*
X156518412Y-81991557D01*
X156707816Y-81895051D01*
X156822935Y-81811413D01*
X156879786Y-81770109D01*
X156879788Y-81770106D01*
X156879792Y-81770104D01*
X157030104Y-81619792D01*
X157030106Y-81619788D01*
X157030109Y-81619786D01*
X157155048Y-81447820D01*
X157155047Y-81447820D01*
X157155051Y-81447816D01*
X157251557Y-81258412D01*
X157317246Y-81056243D01*
X157350500Y-80846287D01*
X157350500Y-80633713D01*
X157317246Y-80423757D01*
X157251557Y-80221588D01*
X157155051Y-80032184D01*
X157155049Y-80032181D01*
X157155048Y-80032179D01*
X157030109Y-79860213D01*
X156879786Y-79709890D01*
X156707820Y-79584951D01*
X156707115Y-79584591D01*
X156699054Y-79580485D01*
X156648259Y-79532512D01*
X156631463Y-79464692D01*
X156653999Y-79398556D01*
X156699054Y-79359515D01*
X156707816Y-79355051D01*
X156769426Y-79310289D01*
X156879786Y-79230109D01*
X156879788Y-79230106D01*
X156879792Y-79230104D01*
X157030104Y-79079792D01*
X157030106Y-79079788D01*
X157030109Y-79079786D01*
X157155048Y-78907820D01*
X157155047Y-78907820D01*
X157155051Y-78907816D01*
X157250160Y-78721153D01*
X164699500Y-78721153D01*
X164699500Y-78878846D01*
X164730261Y-79033489D01*
X164730264Y-79033501D01*
X164790602Y-79179172D01*
X164790609Y-79179185D01*
X164878210Y-79310288D01*
X164878213Y-79310292D01*
X164989707Y-79421786D01*
X164989711Y-79421789D01*
X165120814Y-79509390D01*
X165120827Y-79509397D01*
X165198204Y-79541447D01*
X165266503Y-79569737D01*
X165421153Y-79600499D01*
X165421156Y-79600500D01*
X165421158Y-79600500D01*
X165578844Y-79600500D01*
X165578845Y-79600499D01*
X165733497Y-79569737D01*
X165879179Y-79509394D01*
X166010289Y-79421789D01*
X166121789Y-79310289D01*
X166209394Y-79179179D01*
X166269737Y-79033497D01*
X166300500Y-78878842D01*
X166300500Y-78721158D01*
X166299954Y-78718414D01*
X166291666Y-78676748D01*
X166284823Y-78642346D01*
X166291050Y-78572757D01*
X166318756Y-78530478D01*
X166514665Y-78334570D01*
X166575984Y-78301088D01*
X166578151Y-78300637D01*
X166578840Y-78300500D01*
X166578842Y-78300500D01*
X166733497Y-78269737D01*
X166879179Y-78209394D01*
X167010289Y-78121789D01*
X167121789Y-78010289D01*
X167209394Y-77879179D01*
X167269737Y-77733497D01*
X167300500Y-77578842D01*
X167300500Y-77421158D01*
X167300500Y-77421155D01*
X167300499Y-77421153D01*
X167290482Y-77370793D01*
X167269737Y-77266503D01*
X167265277Y-77255736D01*
X167209397Y-77120827D01*
X167209390Y-77120814D01*
X167121789Y-76989711D01*
X167121786Y-76989707D01*
X167010292Y-76878213D01*
X167010288Y-76878210D01*
X166879185Y-76790609D01*
X166879172Y-76790602D01*
X166733501Y-76730264D01*
X166733489Y-76730261D01*
X166578845Y-76699500D01*
X166578842Y-76699500D01*
X166421158Y-76699500D01*
X166421155Y-76699500D01*
X166266510Y-76730261D01*
X166266498Y-76730264D01*
X166120827Y-76790602D01*
X166120814Y-76790609D01*
X165989711Y-76878210D01*
X165989707Y-76878213D01*
X165878213Y-76989707D01*
X165878210Y-76989711D01*
X165790609Y-77120814D01*
X165790602Y-77120827D01*
X165730264Y-77266498D01*
X165730261Y-77266508D01*
X165699362Y-77421848D01*
X165666977Y-77483759D01*
X165665426Y-77485337D01*
X165133711Y-78017052D01*
X165133702Y-78017061D01*
X165131286Y-78019478D01*
X165131284Y-78019480D01*
X165019480Y-78131284D01*
X164997775Y-78168876D01*
X164989197Y-78178458D01*
X164987500Y-78179509D01*
X164984496Y-78183425D01*
X164878213Y-78289707D01*
X164878210Y-78289711D01*
X164790609Y-78420814D01*
X164790602Y-78420827D01*
X164730264Y-78566498D01*
X164730261Y-78566510D01*
X164699500Y-78721153D01*
X157250160Y-78721153D01*
X157251557Y-78718412D01*
X157317246Y-78516243D01*
X157350500Y-78306287D01*
X157350500Y-78093713D01*
X157317246Y-77883757D01*
X157251557Y-77681588D01*
X157155051Y-77492184D01*
X157155049Y-77492181D01*
X157155048Y-77492179D01*
X157030109Y-77320213D01*
X156879786Y-77169890D01*
X156707820Y-77044951D01*
X156707115Y-77044591D01*
X156699054Y-77040485D01*
X156648259Y-76992512D01*
X156631463Y-76924692D01*
X156653999Y-76858556D01*
X156699054Y-76819515D01*
X156707816Y-76815051D01*
X156822935Y-76731413D01*
X156879786Y-76690109D01*
X156879788Y-76690106D01*
X156879792Y-76690104D01*
X157030104Y-76539792D01*
X157030106Y-76539788D01*
X157030109Y-76539786D01*
X157155048Y-76367820D01*
X157155047Y-76367820D01*
X157155051Y-76367816D01*
X157251557Y-76178412D01*
X157317246Y-75976243D01*
X157350500Y-75766287D01*
X157350500Y-75553713D01*
X157326255Y-75400639D01*
X171237500Y-75400639D01*
X171237500Y-75599360D01*
X171268587Y-75795637D01*
X171329993Y-75984629D01*
X171329994Y-75984632D01*
X171403656Y-76129199D01*
X171420213Y-76161694D01*
X171537019Y-76322464D01*
X171677536Y-76462981D01*
X171838306Y-76579787D01*
X171902597Y-76612545D01*
X171994780Y-76659515D01*
X172045576Y-76707490D01*
X172062371Y-76775311D01*
X172039833Y-76841446D01*
X171994780Y-76880485D01*
X171838305Y-76960213D01*
X171677533Y-77077021D01*
X171537021Y-77217533D01*
X171420213Y-77378305D01*
X171329994Y-77555367D01*
X171329993Y-77555370D01*
X171268587Y-77744362D01*
X171237500Y-77940639D01*
X171237500Y-78139360D01*
X171268587Y-78335637D01*
X171329993Y-78524629D01*
X171329994Y-78524632D01*
X171389975Y-78642349D01*
X171420213Y-78701694D01*
X171537019Y-78862464D01*
X171677536Y-79002981D01*
X171838306Y-79119787D01*
X171954855Y-79179172D01*
X171994780Y-79199515D01*
X172045576Y-79247490D01*
X172062371Y-79315311D01*
X172039833Y-79381446D01*
X171994780Y-79420485D01*
X171838305Y-79500213D01*
X171677533Y-79617021D01*
X171537021Y-79757533D01*
X171420213Y-79918305D01*
X171329994Y-80095367D01*
X171329993Y-80095370D01*
X171268587Y-80284362D01*
X171237500Y-80480639D01*
X171237500Y-80679360D01*
X171268587Y-80875637D01*
X171329993Y-81064629D01*
X171329994Y-81064632D01*
X171416304Y-81234022D01*
X171420213Y-81241694D01*
X171537019Y-81402464D01*
X171677536Y-81542981D01*
X171838306Y-81659787D01*
X171909776Y-81696203D01*
X171994780Y-81739515D01*
X172045576Y-81787490D01*
X172062371Y-81855311D01*
X172039833Y-81921446D01*
X171994780Y-81960485D01*
X171838305Y-82040213D01*
X171677533Y-82157021D01*
X171537021Y-82297533D01*
X171420213Y-82458305D01*
X171329994Y-82635367D01*
X171329993Y-82635370D01*
X171268587Y-82824362D01*
X171268587Y-82824364D01*
X171237500Y-83020639D01*
X171237500Y-83219361D01*
X171239227Y-83230263D01*
X171268587Y-83415637D01*
X171329993Y-83604629D01*
X171329994Y-83604632D01*
X171412470Y-83766498D01*
X171420213Y-83781694D01*
X171537019Y-83942464D01*
X171677536Y-84082981D01*
X171838306Y-84199787D01*
X171956832Y-84260179D01*
X171994780Y-84279515D01*
X172045576Y-84327490D01*
X172062371Y-84395311D01*
X172039833Y-84461446D01*
X171994780Y-84500485D01*
X171838305Y-84580213D01*
X171677533Y-84697021D01*
X171537021Y-84837533D01*
X171420213Y-84998305D01*
X171329994Y-85175367D01*
X171329993Y-85175370D01*
X171268587Y-85364362D01*
X171237500Y-85560639D01*
X171237500Y-85759360D01*
X171268587Y-85955637D01*
X171329993Y-86144629D01*
X171329994Y-86144632D01*
X171367827Y-86218882D01*
X171420213Y-86321694D01*
X171537019Y-86482464D01*
X171677536Y-86622981D01*
X171838306Y-86739787D01*
X171956832Y-86800179D01*
X171994780Y-86819515D01*
X172045576Y-86867490D01*
X172062371Y-86935311D01*
X172039833Y-87001446D01*
X171994780Y-87040485D01*
X171838305Y-87120213D01*
X171677533Y-87237021D01*
X171537021Y-87377533D01*
X171420213Y-87538305D01*
X171329994Y-87715367D01*
X171329993Y-87715370D01*
X171268587Y-87904362D01*
X171237500Y-88100639D01*
X171237500Y-88299360D01*
X171268587Y-88495637D01*
X171329993Y-88684629D01*
X171329994Y-88684632D01*
X171420213Y-88861694D01*
X171537019Y-89022464D01*
X171677536Y-89162981D01*
X171838306Y-89279787D01*
X171956832Y-89340179D01*
X171994780Y-89359515D01*
X172045576Y-89407490D01*
X172062371Y-89475311D01*
X172039833Y-89541446D01*
X171994780Y-89580485D01*
X171838305Y-89660213D01*
X171677533Y-89777021D01*
X171537021Y-89917533D01*
X171420213Y-90078305D01*
X171329994Y-90255367D01*
X171329993Y-90255370D01*
X171268587Y-90444362D01*
X171268587Y-90444364D01*
X171237500Y-90640639D01*
X171237500Y-90839361D01*
X171237603Y-90840009D01*
X171268587Y-91035637D01*
X171329993Y-91224629D01*
X171329994Y-91224632D01*
X171368361Y-91299930D01*
X171420213Y-91401694D01*
X171537019Y-91562464D01*
X171677536Y-91702981D01*
X171838306Y-91819787D01*
X171995332Y-91899796D01*
X172046127Y-91947769D01*
X172062922Y-92015590D01*
X172040385Y-92081725D01*
X171995332Y-92120764D01*
X171838566Y-92200641D01*
X171801283Y-92227729D01*
X171801282Y-92227730D01*
X172472554Y-92899000D01*
X172449840Y-92899000D01*
X172352939Y-92924964D01*
X172266060Y-92975124D01*
X172195124Y-93046060D01*
X172144964Y-93132939D01*
X172119000Y-93229840D01*
X172119000Y-93252552D01*
X171447730Y-92581282D01*
X171447729Y-92581283D01*
X171420643Y-92618564D01*
X171330457Y-92795562D01*
X171269075Y-92984476D01*
X171269075Y-92984479D01*
X171238000Y-93180678D01*
X171238000Y-93379321D01*
X171269075Y-93575520D01*
X171269075Y-93575523D01*
X171330457Y-93764437D01*
X171420641Y-93941432D01*
X171447730Y-93978715D01*
X171447731Y-93978716D01*
X172119000Y-93307447D01*
X172119000Y-93330160D01*
X172144964Y-93427061D01*
X172195124Y-93513940D01*
X172266060Y-93584876D01*
X172352939Y-93635036D01*
X172449840Y-93661000D01*
X172472553Y-93661000D01*
X171801283Y-94332268D01*
X171801283Y-94332269D01*
X171838567Y-94359358D01*
X172015562Y-94449542D01*
X172204477Y-94510924D01*
X172400679Y-94542000D01*
X172599321Y-94542000D01*
X172795520Y-94510924D01*
X172795523Y-94510924D01*
X172984437Y-94449542D01*
X173161425Y-94359362D01*
X173198716Y-94332268D01*
X172527448Y-93661000D01*
X172550160Y-93661000D01*
X172647061Y-93635036D01*
X172733940Y-93584876D01*
X172804876Y-93513940D01*
X172855036Y-93427061D01*
X172881000Y-93330160D01*
X172881000Y-93307447D01*
X173552268Y-93978715D01*
X173579362Y-93941425D01*
X173669542Y-93764437D01*
X173730924Y-93575523D01*
X173730924Y-93575520D01*
X173762000Y-93379321D01*
X173762000Y-93180678D01*
X173730924Y-92984479D01*
X173730924Y-92984476D01*
X173669542Y-92795562D01*
X173579358Y-92618567D01*
X173552268Y-92581283D01*
X172881000Y-93252551D01*
X172881000Y-93229840D01*
X172855036Y-93132939D01*
X172804876Y-93046060D01*
X172733940Y-92975124D01*
X172647061Y-92924964D01*
X172550160Y-92899000D01*
X172527447Y-92899000D01*
X173198716Y-92227731D01*
X173198715Y-92227730D01*
X173161432Y-92200641D01*
X173004668Y-92120765D01*
X172953872Y-92072790D01*
X172937077Y-92004969D01*
X172959615Y-91938834D01*
X173004667Y-91899796D01*
X173161694Y-91819787D01*
X173322464Y-91702981D01*
X173462981Y-91562464D01*
X173579787Y-91401694D01*
X173670005Y-91224632D01*
X173731413Y-91035636D01*
X173762500Y-90839361D01*
X173762500Y-90640639D01*
X173731413Y-90444364D01*
X173670005Y-90255368D01*
X173670005Y-90255367D01*
X173579786Y-90078305D01*
X173462981Y-89917536D01*
X173322464Y-89777019D01*
X173161694Y-89660213D01*
X173005218Y-89580484D01*
X172954423Y-89532510D01*
X172937628Y-89464689D01*
X172960165Y-89398554D01*
X173005218Y-89359515D01*
X173161694Y-89279787D01*
X173322464Y-89162981D01*
X173462981Y-89022464D01*
X173579787Y-88861694D01*
X173670005Y-88684632D01*
X173731413Y-88495636D01*
X173762500Y-88299361D01*
X173762500Y-88100639D01*
X173731413Y-87904364D01*
X173670005Y-87715368D01*
X173670005Y-87715367D01*
X173579786Y-87538305D01*
X173571398Y-87526760D01*
X173462981Y-87377536D01*
X173322464Y-87237019D01*
X173161694Y-87120213D01*
X173005218Y-87040484D01*
X172954423Y-86992510D01*
X172937628Y-86924689D01*
X172960165Y-86858554D01*
X173005218Y-86819515D01*
X173161694Y-86739787D01*
X173322464Y-86622981D01*
X173462981Y-86482464D01*
X173579787Y-86321694D01*
X173670005Y-86144632D01*
X173731413Y-85955636D01*
X173762500Y-85759361D01*
X173762500Y-85560639D01*
X173731413Y-85364364D01*
X173670005Y-85175368D01*
X173670005Y-85175367D01*
X173579786Y-84998305D01*
X173462981Y-84837536D01*
X173322464Y-84697019D01*
X173161694Y-84580213D01*
X173005218Y-84500484D01*
X172954423Y-84452510D01*
X172937628Y-84384689D01*
X172960165Y-84318554D01*
X173005218Y-84279515D01*
X173161694Y-84199787D01*
X173322464Y-84082981D01*
X173462981Y-83942464D01*
X173579787Y-83781694D01*
X173670005Y-83604632D01*
X173731413Y-83415636D01*
X173762500Y-83219361D01*
X173762500Y-83020639D01*
X173731413Y-82824364D01*
X173670005Y-82635368D01*
X173670005Y-82635367D01*
X173579786Y-82458305D01*
X173462981Y-82297536D01*
X173322464Y-82157019D01*
X173161694Y-82040213D01*
X173005218Y-81960484D01*
X172954423Y-81912510D01*
X172937628Y-81844689D01*
X172960165Y-81778554D01*
X173005218Y-81739515D01*
X173161694Y-81659787D01*
X173322464Y-81542981D01*
X173462981Y-81402464D01*
X173579787Y-81241694D01*
X173670005Y-81064632D01*
X173731413Y-80875636D01*
X173762500Y-80679361D01*
X173762500Y-80480639D01*
X173731413Y-80284364D01*
X173670005Y-80095368D01*
X173670005Y-80095367D01*
X173602251Y-79962394D01*
X173579787Y-79918306D01*
X173462981Y-79757536D01*
X173322464Y-79617019D01*
X173161694Y-79500213D01*
X173005218Y-79420484D01*
X172954423Y-79372510D01*
X172937628Y-79304689D01*
X172960165Y-79238554D01*
X173005218Y-79199515D01*
X173161694Y-79119787D01*
X173322464Y-79002981D01*
X173462981Y-78862464D01*
X173579787Y-78701694D01*
X173670005Y-78524632D01*
X173731413Y-78335636D01*
X173762500Y-78139361D01*
X173762500Y-77940639D01*
X173731413Y-77744364D01*
X173695307Y-77633239D01*
X173670006Y-77555370D01*
X173670005Y-77555367D01*
X173601620Y-77421155D01*
X173579787Y-77378306D01*
X173462981Y-77217536D01*
X173322464Y-77077019D01*
X173161694Y-76960213D01*
X173005218Y-76880484D01*
X172954423Y-76832510D01*
X172937628Y-76764689D01*
X172960165Y-76698554D01*
X173005218Y-76659515D01*
X173161694Y-76579787D01*
X173322464Y-76462981D01*
X173462981Y-76322464D01*
X173579787Y-76161694D01*
X173670005Y-75984632D01*
X173731413Y-75795636D01*
X173762500Y-75599361D01*
X173762500Y-75400639D01*
X186237500Y-75400639D01*
X186237500Y-75599360D01*
X186268587Y-75795637D01*
X186329993Y-75984629D01*
X186329994Y-75984632D01*
X186403656Y-76129199D01*
X186420213Y-76161694D01*
X186537019Y-76322464D01*
X186677536Y-76462981D01*
X186838306Y-76579787D01*
X186902597Y-76612545D01*
X186994780Y-76659515D01*
X187045576Y-76707490D01*
X187062371Y-76775311D01*
X187039833Y-76841446D01*
X186994780Y-76880485D01*
X186838305Y-76960213D01*
X186677533Y-77077021D01*
X186537021Y-77217533D01*
X186420213Y-77378305D01*
X186329994Y-77555367D01*
X186329993Y-77555370D01*
X186268587Y-77744362D01*
X186237500Y-77940639D01*
X186237500Y-78139360D01*
X186268587Y-78335637D01*
X186329993Y-78524629D01*
X186329994Y-78524632D01*
X186389975Y-78642349D01*
X186420213Y-78701694D01*
X186537019Y-78862464D01*
X186677536Y-79002981D01*
X186838306Y-79119787D01*
X186995332Y-79199796D01*
X187046127Y-79247769D01*
X187062922Y-79315590D01*
X187040385Y-79381725D01*
X186995332Y-79420764D01*
X186838566Y-79500641D01*
X186801283Y-79527729D01*
X186801282Y-79527730D01*
X187472554Y-80199000D01*
X187449840Y-80199000D01*
X187352939Y-80224964D01*
X187266060Y-80275124D01*
X187195124Y-80346060D01*
X187144964Y-80432939D01*
X187119000Y-80529840D01*
X187119000Y-80552552D01*
X186447730Y-79881282D01*
X186447729Y-79881283D01*
X186420643Y-79918564D01*
X186330457Y-80095562D01*
X186269075Y-80284476D01*
X186269075Y-80284479D01*
X186238000Y-80480678D01*
X186238000Y-80679321D01*
X186269075Y-80875520D01*
X186269075Y-80875523D01*
X186330457Y-81064437D01*
X186420641Y-81241432D01*
X186447730Y-81278715D01*
X186447731Y-81278716D01*
X187119000Y-80607447D01*
X187119000Y-80630160D01*
X187144964Y-80727061D01*
X187195124Y-80813940D01*
X187266060Y-80884876D01*
X187352939Y-80935036D01*
X187449840Y-80961000D01*
X187472553Y-80961000D01*
X186801283Y-81632268D01*
X186801283Y-81632269D01*
X186838567Y-81659358D01*
X186995331Y-81739234D01*
X187046127Y-81787209D01*
X187062922Y-81855030D01*
X187040384Y-81921165D01*
X186995331Y-81960204D01*
X186838305Y-82040213D01*
X186677533Y-82157021D01*
X186537021Y-82297533D01*
X186420213Y-82458305D01*
X186329994Y-82635367D01*
X186329993Y-82635370D01*
X186268587Y-82824362D01*
X186268587Y-82824364D01*
X186237500Y-83020639D01*
X186237500Y-83219361D01*
X186239227Y-83230263D01*
X186268587Y-83415637D01*
X186329993Y-83604629D01*
X186329994Y-83604632D01*
X186412470Y-83766498D01*
X186420213Y-83781694D01*
X186537019Y-83942464D01*
X186677536Y-84082981D01*
X186838306Y-84199787D01*
X186956832Y-84260179D01*
X186994780Y-84279515D01*
X187045576Y-84327490D01*
X187062371Y-84395311D01*
X187039833Y-84461446D01*
X186994780Y-84500485D01*
X186838305Y-84580213D01*
X186677533Y-84697021D01*
X186537021Y-84837533D01*
X186420213Y-84998305D01*
X186329994Y-85175367D01*
X186329993Y-85175370D01*
X186268587Y-85364362D01*
X186237500Y-85560639D01*
X186237500Y-85759360D01*
X186268587Y-85955637D01*
X186329993Y-86144629D01*
X186329994Y-86144632D01*
X186367827Y-86218882D01*
X186420213Y-86321694D01*
X186537019Y-86482464D01*
X186677536Y-86622981D01*
X186838306Y-86739787D01*
X186956832Y-86800179D01*
X186994780Y-86819515D01*
X187045576Y-86867490D01*
X187062371Y-86935311D01*
X187039833Y-87001446D01*
X186994780Y-87040485D01*
X186838305Y-87120213D01*
X186677533Y-87237021D01*
X186537021Y-87377533D01*
X186420213Y-87538305D01*
X186329994Y-87715367D01*
X186329993Y-87715370D01*
X186268587Y-87904362D01*
X186237500Y-88100639D01*
X186237500Y-88299360D01*
X186268587Y-88495637D01*
X186329993Y-88684629D01*
X186329994Y-88684632D01*
X186420213Y-88861694D01*
X186537019Y-89022464D01*
X186677536Y-89162981D01*
X186838306Y-89279787D01*
X186956832Y-89340179D01*
X186994780Y-89359515D01*
X187045576Y-89407490D01*
X187062371Y-89475311D01*
X187039833Y-89541446D01*
X186994780Y-89580485D01*
X186838305Y-89660213D01*
X186677533Y-89777021D01*
X186537021Y-89917533D01*
X186420213Y-90078305D01*
X186329994Y-90255367D01*
X186329993Y-90255370D01*
X186268587Y-90444362D01*
X186268587Y-90444364D01*
X186237500Y-90640639D01*
X186237500Y-90839361D01*
X186237603Y-90840009D01*
X186268587Y-91035637D01*
X186329993Y-91224629D01*
X186329994Y-91224632D01*
X186368361Y-91299930D01*
X186420213Y-91401694D01*
X186537019Y-91562464D01*
X186677536Y-91702981D01*
X186838306Y-91819787D01*
X186995332Y-91899796D01*
X187046127Y-91947769D01*
X187062922Y-92015590D01*
X187040385Y-92081725D01*
X186995332Y-92120764D01*
X186838566Y-92200641D01*
X186801283Y-92227729D01*
X186801282Y-92227730D01*
X187472554Y-92899000D01*
X187449840Y-92899000D01*
X187352939Y-92924964D01*
X187266060Y-92975124D01*
X187195124Y-93046060D01*
X187144964Y-93132939D01*
X187119000Y-93229840D01*
X187119000Y-93252552D01*
X186447730Y-92581282D01*
X186447729Y-92581283D01*
X186420643Y-92618564D01*
X186330457Y-92795562D01*
X186269075Y-92984476D01*
X186269075Y-92984479D01*
X186238000Y-93180678D01*
X186238000Y-93379321D01*
X186269075Y-93575520D01*
X186269075Y-93575523D01*
X186330457Y-93764437D01*
X186420641Y-93941432D01*
X186447730Y-93978715D01*
X186447731Y-93978716D01*
X187119000Y-93307447D01*
X187119000Y-93330160D01*
X187144964Y-93427061D01*
X187195124Y-93513940D01*
X187266060Y-93584876D01*
X187352939Y-93635036D01*
X187449840Y-93661000D01*
X187472553Y-93661000D01*
X186801283Y-94332268D01*
X186801283Y-94332269D01*
X186838567Y-94359358D01*
X187015562Y-94449542D01*
X187204477Y-94510924D01*
X187400679Y-94542000D01*
X187599321Y-94542000D01*
X187795520Y-94510924D01*
X187795523Y-94510924D01*
X187984437Y-94449542D01*
X188161425Y-94359362D01*
X188198716Y-94332268D01*
X187527448Y-93661000D01*
X187550160Y-93661000D01*
X187647061Y-93635036D01*
X187733940Y-93584876D01*
X187804876Y-93513940D01*
X187855036Y-93427061D01*
X187881000Y-93330160D01*
X187881000Y-93307447D01*
X188552268Y-93978715D01*
X188579362Y-93941425D01*
X188669542Y-93764437D01*
X188730924Y-93575523D01*
X188730924Y-93575520D01*
X188762000Y-93379321D01*
X188762000Y-93180678D01*
X188730924Y-92984479D01*
X188730924Y-92984476D01*
X188669542Y-92795562D01*
X188579357Y-92618565D01*
X188579356Y-92618563D01*
X188575686Y-92613512D01*
X188575684Y-92613510D01*
X188557063Y-92587882D01*
X212345669Y-92587882D01*
X212345670Y-92587883D01*
X212371059Y-92606329D01*
X212539362Y-92692085D01*
X212718997Y-92750451D01*
X212905553Y-92780000D01*
X213094447Y-92780000D01*
X213281002Y-92750451D01*
X213460637Y-92692085D01*
X213628937Y-92606331D01*
X213654328Y-92587883D01*
X213654328Y-92587882D01*
X213000001Y-91933554D01*
X213000000Y-91933554D01*
X212345669Y-92587882D01*
X188557063Y-92587882D01*
X188552268Y-92581283D01*
X187881000Y-93252551D01*
X187881000Y-93229840D01*
X187855036Y-93132939D01*
X187804876Y-93046060D01*
X187733940Y-92975124D01*
X187647061Y-92924964D01*
X187550160Y-92899000D01*
X187527447Y-92899000D01*
X188198716Y-92227731D01*
X188198715Y-92227730D01*
X188161432Y-92200641D01*
X188004668Y-92120765D01*
X187953872Y-92072790D01*
X187937077Y-92004969D01*
X187959615Y-91938834D01*
X188004667Y-91899796D01*
X188161694Y-91819787D01*
X188322464Y-91702981D01*
X188462981Y-91562464D01*
X188579787Y-91401694D01*
X188670005Y-91224632D01*
X188731413Y-91035636D01*
X188762500Y-90839361D01*
X188762500Y-90640639D01*
X188731413Y-90444364D01*
X188670005Y-90255368D01*
X188670005Y-90255367D01*
X188579786Y-90078305D01*
X188462981Y-89917536D01*
X188322464Y-89777019D01*
X188161694Y-89660213D01*
X188005218Y-89580484D01*
X187954423Y-89532510D01*
X187937628Y-89464689D01*
X187960165Y-89398554D01*
X188005218Y-89359515D01*
X188161694Y-89279787D01*
X188322464Y-89162981D01*
X188462981Y-89022464D01*
X188579787Y-88861694D01*
X188670005Y-88684632D01*
X188731413Y-88495636D01*
X188762500Y-88299361D01*
X188762500Y-88100639D01*
X188731413Y-87904364D01*
X188670005Y-87715368D01*
X188670005Y-87715367D01*
X188579786Y-87538305D01*
X188571398Y-87526760D01*
X188466153Y-87381902D01*
X195999500Y-87381902D01*
X195999500Y-87618097D01*
X196036446Y-87851368D01*
X196109433Y-88075996D01*
X196216657Y-88286433D01*
X196355483Y-88477510D01*
X196355489Y-88477516D01*
X196358647Y-88481214D01*
X196356864Y-88482736D01*
X196385726Y-88535591D01*
X196380742Y-88605283D01*
X196338870Y-88661216D01*
X196329658Y-88667487D01*
X196281344Y-88697287D01*
X196157289Y-88821342D01*
X196065187Y-88970663D01*
X196065186Y-88970666D01*
X196010001Y-89137203D01*
X196010001Y-89137204D01*
X196010000Y-89137204D01*
X195999500Y-89239983D01*
X195999500Y-90840001D01*
X195999501Y-90840018D01*
X196010000Y-90942796D01*
X196010001Y-90942799D01*
X196040765Y-91035636D01*
X196065186Y-91109334D01*
X196157288Y-91258656D01*
X196281344Y-91382712D01*
X196430666Y-91474814D01*
X196597203Y-91529999D01*
X196699991Y-91540500D01*
X198300008Y-91540499D01*
X198402797Y-91529999D01*
X198536929Y-91485552D01*
X211800000Y-91485552D01*
X211800000Y-91674447D01*
X211829548Y-91861002D01*
X211887914Y-92040637D01*
X211973666Y-92208933D01*
X211992116Y-92234328D01*
X212646446Y-91580000D01*
X212646446Y-91579999D01*
X212600369Y-91533922D01*
X212650000Y-91533922D01*
X212650000Y-91626078D01*
X212673852Y-91715095D01*
X212719930Y-91794905D01*
X212785095Y-91860070D01*
X212864905Y-91906148D01*
X212953922Y-91930000D01*
X213046078Y-91930000D01*
X213135095Y-91906148D01*
X213214905Y-91860070D01*
X213280070Y-91794905D01*
X213326148Y-91715095D01*
X213350000Y-91626078D01*
X213350000Y-91579999D01*
X213353554Y-91579999D01*
X213353554Y-91580000D01*
X214007882Y-92234328D01*
X214007883Y-92234328D01*
X214026331Y-92208937D01*
X214112085Y-92040637D01*
X214170451Y-91861002D01*
X214200000Y-91674447D01*
X214200000Y-91485552D01*
X214170451Y-91298997D01*
X214112085Y-91119362D01*
X214026329Y-90951059D01*
X214007883Y-90925670D01*
X214007882Y-90925669D01*
X213353554Y-91579999D01*
X213350000Y-91579999D01*
X213350000Y-91533922D01*
X213326148Y-91444905D01*
X213280070Y-91365095D01*
X213214905Y-91299930D01*
X213135095Y-91253852D01*
X213046078Y-91230000D01*
X212953922Y-91230000D01*
X212864905Y-91253852D01*
X212785095Y-91299930D01*
X212719930Y-91365095D01*
X212673852Y-91444905D01*
X212650000Y-91533922D01*
X212600369Y-91533922D01*
X211992116Y-90925669D01*
X211992116Y-90925670D01*
X211973669Y-90951060D01*
X211887914Y-91119362D01*
X211829548Y-91298997D01*
X211800000Y-91485552D01*
X198536929Y-91485552D01*
X198569334Y-91474814D01*
X198718656Y-91382712D01*
X198842712Y-91258656D01*
X198934814Y-91109334D01*
X198989999Y-90942797D01*
X199000500Y-90840009D01*
X199000500Y-90572116D01*
X212345669Y-90572116D01*
X213000000Y-91226446D01*
X213000001Y-91226446D01*
X213654328Y-90572116D01*
X213628933Y-90553666D01*
X213460637Y-90467914D01*
X213281002Y-90409548D01*
X213094447Y-90380000D01*
X212905553Y-90380000D01*
X212718997Y-90409548D01*
X212539362Y-90467914D01*
X212371060Y-90553669D01*
X212345670Y-90572116D01*
X212345669Y-90572116D01*
X199000500Y-90572116D01*
X199000499Y-89239992D01*
X198989999Y-89137203D01*
X198934814Y-88970666D01*
X198842712Y-88821344D01*
X198718656Y-88697288D01*
X198718655Y-88697287D01*
X198670342Y-88667487D01*
X198623618Y-88615539D01*
X198612397Y-88546576D01*
X198640241Y-88482494D01*
X198641381Y-88481249D01*
X198641348Y-88481221D01*
X198644511Y-88477516D01*
X198644511Y-88477515D01*
X198644517Y-88477510D01*
X198783343Y-88286433D01*
X198890568Y-88075992D01*
X198963553Y-87851368D01*
X198985093Y-87715370D01*
X199000500Y-87618097D01*
X199000500Y-87381902D01*
X198963553Y-87148631D01*
X198912826Y-86992510D01*
X198890568Y-86924008D01*
X198890566Y-86924005D01*
X198890566Y-86924003D01*
X198817762Y-86781118D01*
X198783343Y-86713567D01*
X198644517Y-86522490D01*
X198527540Y-86405513D01*
X211799500Y-86405513D01*
X211799500Y-86594486D01*
X211829059Y-86781118D01*
X211887454Y-86960836D01*
X211922693Y-87029995D01*
X211973240Y-87129199D01*
X212084310Y-87282073D01*
X212217927Y-87415690D01*
X212370801Y-87526760D01*
X212450347Y-87567290D01*
X212539163Y-87612545D01*
X212539165Y-87612545D01*
X212539168Y-87612547D01*
X212635497Y-87643846D01*
X212718881Y-87670940D01*
X212905514Y-87700500D01*
X212905519Y-87700500D01*
X213094486Y-87700500D01*
X213281118Y-87670940D01*
X213460832Y-87612547D01*
X213629199Y-87526760D01*
X213782073Y-87415690D01*
X213915690Y-87282073D01*
X214026760Y-87129199D01*
X214112547Y-86960832D01*
X214170940Y-86781118D01*
X214181639Y-86713566D01*
X214200500Y-86594486D01*
X214200500Y-86405513D01*
X214170940Y-86218881D01*
X214112545Y-86039163D01*
X214026759Y-85870800D01*
X213915690Y-85717927D01*
X213782073Y-85584310D01*
X213629199Y-85473240D01*
X213460836Y-85387454D01*
X213281118Y-85329059D01*
X213094486Y-85299500D01*
X213094481Y-85299500D01*
X212905519Y-85299500D01*
X212905514Y-85299500D01*
X212718881Y-85329059D01*
X212539163Y-85387454D01*
X212370800Y-85473240D01*
X212283579Y-85536610D01*
X212217927Y-85584310D01*
X212217925Y-85584312D01*
X212217924Y-85584312D01*
X212084312Y-85717924D01*
X212084312Y-85717925D01*
X212084310Y-85717927D01*
X212054207Y-85759360D01*
X211973240Y-85870800D01*
X211887454Y-86039163D01*
X211829059Y-86218881D01*
X211799500Y-86405513D01*
X198527540Y-86405513D01*
X198477510Y-86355483D01*
X198286433Y-86216657D01*
X198075996Y-86109433D01*
X197851368Y-86036446D01*
X197618097Y-85999500D01*
X197618092Y-85999500D01*
X197381908Y-85999500D01*
X197381903Y-85999500D01*
X197148631Y-86036446D01*
X196924003Y-86109433D01*
X196713566Y-86216657D01*
X196604550Y-86295862D01*
X196522490Y-86355483D01*
X196522488Y-86355485D01*
X196522487Y-86355485D01*
X196355485Y-86522487D01*
X196355485Y-86522488D01*
X196355483Y-86522490D01*
X196303178Y-86594481D01*
X196216657Y-86713566D01*
X196109433Y-86924003D01*
X196036446Y-87148631D01*
X195999500Y-87381902D01*
X188466153Y-87381902D01*
X188462981Y-87377536D01*
X188322464Y-87237019D01*
X188161694Y-87120213D01*
X188005218Y-87040484D01*
X187954423Y-86992510D01*
X187937628Y-86924689D01*
X187960165Y-86858554D01*
X188005218Y-86819515D01*
X188161694Y-86739787D01*
X188322464Y-86622981D01*
X188462981Y-86482464D01*
X188579787Y-86321694D01*
X188670005Y-86144632D01*
X188731413Y-85955636D01*
X188762500Y-85759361D01*
X188762500Y-85560639D01*
X188731413Y-85364364D01*
X188670005Y-85175368D01*
X188670005Y-85175367D01*
X188579786Y-84998305D01*
X188462981Y-84837536D01*
X188322464Y-84697019D01*
X188161694Y-84580213D01*
X188005218Y-84500484D01*
X187954423Y-84452510D01*
X187937628Y-84384689D01*
X187960165Y-84318554D01*
X188005218Y-84279515D01*
X188161694Y-84199787D01*
X188322464Y-84082981D01*
X188462981Y-83942464D01*
X188579787Y-83781694D01*
X188670005Y-83604632D01*
X188731413Y-83415636D01*
X188762500Y-83219361D01*
X188762500Y-83020639D01*
X188731413Y-82824364D01*
X188670005Y-82635368D01*
X188670005Y-82635367D01*
X188579786Y-82458305D01*
X188462981Y-82297536D01*
X188322464Y-82157019D01*
X188161694Y-82040213D01*
X188004667Y-81960203D01*
X187953872Y-81912229D01*
X187937077Y-81844408D01*
X187959614Y-81778273D01*
X188004669Y-81739234D01*
X188161422Y-81659364D01*
X188198716Y-81632268D01*
X187527448Y-80961000D01*
X187550160Y-80961000D01*
X187647061Y-80935036D01*
X187733940Y-80884876D01*
X187804876Y-80813940D01*
X187855036Y-80727061D01*
X187881000Y-80630160D01*
X187881000Y-80607447D01*
X188552268Y-81278715D01*
X188579362Y-81241425D01*
X188669542Y-81064437D01*
X188730924Y-80875523D01*
X188730924Y-80875520D01*
X188762000Y-80679321D01*
X188762000Y-80480678D01*
X188730924Y-80284479D01*
X188730924Y-80284476D01*
X188669542Y-80095562D01*
X188579358Y-79918567D01*
X188552268Y-79881283D01*
X187881000Y-80552551D01*
X187881000Y-80529840D01*
X187855036Y-80432939D01*
X187804876Y-80346060D01*
X187733940Y-80275124D01*
X187647061Y-80224964D01*
X187550160Y-80199000D01*
X187527447Y-80199000D01*
X188198716Y-79527731D01*
X188198715Y-79527730D01*
X188161432Y-79500641D01*
X188004668Y-79420765D01*
X187953872Y-79372790D01*
X187937077Y-79304969D01*
X187959615Y-79238834D01*
X188004667Y-79199796D01*
X188161694Y-79119787D01*
X188322464Y-79002981D01*
X188462981Y-78862464D01*
X188579787Y-78701694D01*
X188580659Y-78699983D01*
X196299500Y-78699983D01*
X196299500Y-80300001D01*
X196299501Y-80300018D01*
X196310000Y-80402796D01*
X196310001Y-80402799D01*
X196316946Y-80423757D01*
X196365186Y-80569334D01*
X196457288Y-80718656D01*
X196581344Y-80842712D01*
X196623102Y-80868468D01*
X196629656Y-80872511D01*
X196676381Y-80924459D01*
X196687604Y-80993421D01*
X196659760Y-81057504D01*
X196658615Y-81058759D01*
X196658647Y-81058786D01*
X196655485Y-81062487D01*
X196655483Y-81062490D01*
X196653929Y-81064629D01*
X196516657Y-81253566D01*
X196409433Y-81464003D01*
X196336446Y-81688631D01*
X196299500Y-81921902D01*
X196299500Y-82158097D01*
X196336446Y-82391368D01*
X196409433Y-82615996D01*
X196515602Y-82824362D01*
X196516657Y-82826433D01*
X196655483Y-83017510D01*
X196822490Y-83184517D01*
X197013567Y-83323343D01*
X197112991Y-83374002D01*
X197224003Y-83430566D01*
X197224005Y-83430566D01*
X197224008Y-83430568D01*
X197344412Y-83469689D01*
X197448631Y-83503553D01*
X197681903Y-83540500D01*
X197681908Y-83540500D01*
X197918097Y-83540500D01*
X198151368Y-83503553D01*
X198193981Y-83489707D01*
X198375992Y-83430568D01*
X198586433Y-83323343D01*
X198777510Y-83184517D01*
X198944517Y-83017510D01*
X199083343Y-82826433D01*
X199190568Y-82615992D01*
X199263553Y-82391368D01*
X199300500Y-82158097D01*
X199300500Y-81921902D01*
X199263553Y-81688631D01*
X199216227Y-81542978D01*
X199190568Y-81464008D01*
X199190566Y-81464005D01*
X199190566Y-81464003D01*
X199096157Y-81278716D01*
X199083343Y-81253567D01*
X198944517Y-81062490D01*
X198944508Y-81062481D01*
X198941353Y-81058786D01*
X198943134Y-81057264D01*
X198914273Y-81004408D01*
X198919257Y-80934716D01*
X198961129Y-80878783D01*
X198970334Y-80872516D01*
X199018656Y-80842712D01*
X199142712Y-80718656D01*
X199234814Y-80569334D01*
X199289999Y-80402797D01*
X199291329Y-80389778D01*
X211599500Y-80389778D01*
X211599500Y-80610221D01*
X211633985Y-80827952D01*
X211702103Y-81037603D01*
X211702104Y-81037606D01*
X211802187Y-81234025D01*
X211931752Y-81412358D01*
X211931756Y-81412363D01*
X211981928Y-81462535D01*
X212015413Y-81523858D01*
X212010429Y-81593550D01*
X211968557Y-81649483D01*
X211937581Y-81666398D01*
X211857669Y-81696203D01*
X211857664Y-81696206D01*
X211742455Y-81782452D01*
X211742452Y-81782455D01*
X211656206Y-81897664D01*
X211656202Y-81897671D01*
X211605908Y-82032517D01*
X211603250Y-82057246D01*
X211599501Y-82092123D01*
X211599500Y-82092135D01*
X211599500Y-83987870D01*
X211599501Y-83987876D01*
X211605908Y-84047483D01*
X211656202Y-84182328D01*
X211656206Y-84182335D01*
X211742452Y-84297544D01*
X211742455Y-84297547D01*
X211857664Y-84383793D01*
X211857671Y-84383797D01*
X211992517Y-84434091D01*
X211992516Y-84434091D01*
X211999444Y-84434835D01*
X212052127Y-84440500D01*
X213947872Y-84440499D01*
X214007483Y-84434091D01*
X214142331Y-84383796D01*
X214257546Y-84297546D01*
X214343796Y-84182331D01*
X214394091Y-84047483D01*
X214400500Y-83987873D01*
X214400499Y-82092128D01*
X214394091Y-82032517D01*
X214378813Y-81991555D01*
X214343797Y-81897671D01*
X214343793Y-81897664D01*
X214257547Y-81782455D01*
X214257544Y-81782452D01*
X214142335Y-81696206D01*
X214142328Y-81696202D01*
X214062419Y-81666398D01*
X214006485Y-81624527D01*
X213982068Y-81559062D01*
X213996920Y-81490789D01*
X214018069Y-81462537D01*
X214068242Y-81412365D01*
X214197815Y-81234022D01*
X214297895Y-81037606D01*
X214366015Y-80827951D01*
X214400500Y-80610222D01*
X214400500Y-80389778D01*
X214366015Y-80172049D01*
X214297895Y-79962394D01*
X214297895Y-79962393D01*
X214256566Y-79881282D01*
X214197815Y-79765978D01*
X214157065Y-79709890D01*
X214068247Y-79587641D01*
X214068243Y-79587636D01*
X213912363Y-79431756D01*
X213912358Y-79431752D01*
X213734025Y-79302187D01*
X213734024Y-79302186D01*
X213734022Y-79302185D01*
X213627226Y-79247769D01*
X213537606Y-79202104D01*
X213537603Y-79202103D01*
X213327952Y-79133985D01*
X213219086Y-79116742D01*
X213110222Y-79099500D01*
X212889778Y-79099500D01*
X212817201Y-79110995D01*
X212672047Y-79133985D01*
X212462396Y-79202103D01*
X212462393Y-79202104D01*
X212265974Y-79302187D01*
X212087641Y-79431752D01*
X212087636Y-79431756D01*
X211931756Y-79587636D01*
X211931752Y-79587641D01*
X211802187Y-79765974D01*
X211702104Y-79962393D01*
X211702103Y-79962396D01*
X211633985Y-80172047D01*
X211599500Y-80389778D01*
X199291329Y-80389778D01*
X199300500Y-80300009D01*
X199300499Y-78699992D01*
X199289999Y-78597203D01*
X199234814Y-78430666D01*
X199142712Y-78281344D01*
X199018656Y-78157288D01*
X198869334Y-78065186D01*
X198702797Y-78010001D01*
X198702795Y-78010000D01*
X198600010Y-77999500D01*
X196999998Y-77999500D01*
X196999981Y-77999501D01*
X196897203Y-78010000D01*
X196897200Y-78010001D01*
X196730668Y-78065185D01*
X196730663Y-78065187D01*
X196581342Y-78157289D01*
X196457289Y-78281342D01*
X196365187Y-78430663D01*
X196365186Y-78430666D01*
X196310001Y-78597203D01*
X196310001Y-78597204D01*
X196310000Y-78597204D01*
X196299500Y-78699983D01*
X188580659Y-78699983D01*
X188670005Y-78524632D01*
X188731413Y-78335636D01*
X188762500Y-78139361D01*
X188762500Y-77940639D01*
X188731413Y-77744364D01*
X188695307Y-77633239D01*
X188670006Y-77555370D01*
X188670005Y-77555367D01*
X188601620Y-77421155D01*
X188579787Y-77378306D01*
X188462981Y-77217536D01*
X188322464Y-77077019D01*
X188161694Y-76960213D01*
X188005218Y-76880484D01*
X187954423Y-76832510D01*
X187937628Y-76764689D01*
X187960165Y-76698554D01*
X188005218Y-76659515D01*
X188161694Y-76579787D01*
X188322464Y-76462981D01*
X188462981Y-76322464D01*
X188579787Y-76161694D01*
X188670005Y-75984632D01*
X188731413Y-75795636D01*
X188762500Y-75599361D01*
X188762500Y-75400639D01*
X188731413Y-75204364D01*
X188677738Y-75039168D01*
X188670006Y-75015370D01*
X188670005Y-75015367D01*
X188596344Y-74870801D01*
X188579787Y-74838306D01*
X188496767Y-74724038D01*
X203199500Y-74724038D01*
X203199500Y-76275962D01*
X203221631Y-76415690D01*
X203238910Y-76524785D01*
X203316760Y-76764383D01*
X203374759Y-76878211D01*
X203416541Y-76960213D01*
X203431132Y-76988848D01*
X203579201Y-77192649D01*
X203579205Y-77192654D01*
X203757345Y-77370794D01*
X203757350Y-77370798D01*
X203827615Y-77421848D01*
X203961155Y-77518870D01*
X204078857Y-77578842D01*
X204185616Y-77633239D01*
X204185618Y-77633239D01*
X204185621Y-77633241D01*
X204425215Y-77711090D01*
X204674038Y-77750500D01*
X204674039Y-77750500D01*
X204925961Y-77750500D01*
X204925962Y-77750500D01*
X205174785Y-77711090D01*
X205414379Y-77633241D01*
X205638845Y-77518870D01*
X205842656Y-77370793D01*
X206020793Y-77192656D01*
X206084598Y-77104835D01*
X206139924Y-77062172D01*
X206209537Y-77056191D01*
X206241209Y-77067237D01*
X206420162Y-77158418D01*
X206607283Y-77219218D01*
X206650000Y-77225984D01*
X206650000Y-75815686D01*
X206654394Y-75820080D01*
X206745606Y-75872741D01*
X206847339Y-75900000D01*
X206952661Y-75900000D01*
X207054394Y-75872741D01*
X207145606Y-75820080D01*
X207150000Y-75815686D01*
X207150000Y-77225983D01*
X207192716Y-77219218D01*
X207379837Y-77158418D01*
X207555143Y-77069095D01*
X207714321Y-76953444D01*
X207714322Y-76953443D01*
X207811965Y-76855801D01*
X207873288Y-76822316D01*
X207942980Y-76827300D01*
X207987327Y-76855801D01*
X208085354Y-76953828D01*
X208244595Y-77069524D01*
X208313903Y-77104838D01*
X208419970Y-77158882D01*
X208419972Y-77158882D01*
X208419975Y-77158884D01*
X208520317Y-77191487D01*
X208607173Y-77219709D01*
X208801578Y-77250500D01*
X208801583Y-77250500D01*
X208998422Y-77250500D01*
X209192826Y-77219709D01*
X209272574Y-77193797D01*
X209380025Y-77158884D01*
X209555405Y-77069524D01*
X209591614Y-77043215D01*
X209657417Y-77019736D01*
X209725471Y-77035560D01*
X209763763Y-77069220D01*
X209792454Y-77107546D01*
X209792455Y-77107546D01*
X209792456Y-77107548D01*
X209907664Y-77193793D01*
X209907671Y-77193797D01*
X210042517Y-77244091D01*
X210042516Y-77244091D01*
X210049444Y-77244835D01*
X210102127Y-77250500D01*
X211697872Y-77250499D01*
X211757483Y-77244091D01*
X211757486Y-77244089D01*
X211764554Y-77243330D01*
X211833314Y-77255736D01*
X211865490Y-77278939D01*
X211957345Y-77370794D01*
X211957350Y-77370798D01*
X212027615Y-77421848D01*
X212161155Y-77518870D01*
X212278857Y-77578842D01*
X212385616Y-77633239D01*
X212385618Y-77633239D01*
X212385621Y-77633241D01*
X212625215Y-77711090D01*
X212874038Y-77750500D01*
X212874039Y-77750500D01*
X213125961Y-77750500D01*
X213125962Y-77750500D01*
X213374785Y-77711090D01*
X213614379Y-77633241D01*
X213838845Y-77518870D01*
X214042656Y-77370793D01*
X214220793Y-77192656D01*
X214368870Y-76988845D01*
X214483241Y-76764379D01*
X214561090Y-76524785D01*
X214600500Y-76275962D01*
X214600500Y-75405513D01*
X216219500Y-75405513D01*
X216219500Y-75594486D01*
X216249059Y-75781118D01*
X216307454Y-75960836D01*
X216377556Y-76098417D01*
X216393240Y-76129199D01*
X216504310Y-76282073D01*
X216637927Y-76415690D01*
X216790801Y-76526760D01*
X216816378Y-76539792D01*
X216959163Y-76612545D01*
X216959165Y-76612545D01*
X216959168Y-76612547D01*
X217055497Y-76643846D01*
X217138881Y-76670940D01*
X217325514Y-76700500D01*
X217325519Y-76700500D01*
X217514486Y-76700500D01*
X217701118Y-76670940D01*
X217736280Y-76659515D01*
X217880832Y-76612547D01*
X218049199Y-76526760D01*
X218202073Y-76415690D01*
X218335690Y-76282073D01*
X218446760Y-76129199D01*
X218532547Y-75960832D01*
X218590940Y-75781118D01*
X218593289Y-75766286D01*
X218620500Y-75594486D01*
X218620500Y-75405513D01*
X221299500Y-75405513D01*
X221299500Y-75594486D01*
X221329059Y-75781118D01*
X221387454Y-75960836D01*
X221457556Y-76098417D01*
X221473240Y-76129199D01*
X221584310Y-76282073D01*
X221717927Y-76415690D01*
X221870801Y-76526760D01*
X221896378Y-76539792D01*
X222039163Y-76612545D01*
X222039165Y-76612545D01*
X222039168Y-76612547D01*
X222135497Y-76643846D01*
X222218881Y-76670940D01*
X222405514Y-76700500D01*
X222405519Y-76700500D01*
X222594486Y-76700500D01*
X222781118Y-76670940D01*
X222816280Y-76659515D01*
X222960832Y-76612547D01*
X223129199Y-76526760D01*
X223282073Y-76415690D01*
X223415690Y-76282073D01*
X223526760Y-76129199D01*
X223612547Y-75960832D01*
X223670940Y-75781118D01*
X223673289Y-75766286D01*
X223700500Y-75594486D01*
X223700500Y-75405513D01*
X223670940Y-75218881D01*
X223612545Y-75039163D01*
X223526759Y-74870800D01*
X223415690Y-74717927D01*
X223282073Y-74584310D01*
X223129199Y-74473240D01*
X223088518Y-74452512D01*
X222960836Y-74387454D01*
X222781118Y-74329059D01*
X222594486Y-74299500D01*
X222594481Y-74299500D01*
X222405519Y-74299500D01*
X222405514Y-74299500D01*
X222218881Y-74329059D01*
X222039163Y-74387454D01*
X221870800Y-74473240D01*
X221806476Y-74519975D01*
X221717927Y-74584310D01*
X221717925Y-74584312D01*
X221717924Y-74584312D01*
X221584312Y-74717924D01*
X221584312Y-74717925D01*
X221584310Y-74717927D01*
X221539060Y-74780208D01*
X221473240Y-74870800D01*
X221387454Y-75039163D01*
X221329059Y-75218881D01*
X221299500Y-75405513D01*
X218620500Y-75405513D01*
X218590940Y-75218881D01*
X218532545Y-75039163D01*
X218446759Y-74870800D01*
X218335690Y-74717927D01*
X218202073Y-74584310D01*
X218049199Y-74473240D01*
X218008518Y-74452512D01*
X217880836Y-74387454D01*
X217701118Y-74329059D01*
X217514486Y-74299500D01*
X217514481Y-74299500D01*
X217325519Y-74299500D01*
X217325514Y-74299500D01*
X217138881Y-74329059D01*
X216959163Y-74387454D01*
X216790800Y-74473240D01*
X216726476Y-74519975D01*
X216637927Y-74584310D01*
X216637925Y-74584312D01*
X216637924Y-74584312D01*
X216504312Y-74717924D01*
X216504312Y-74717925D01*
X216504310Y-74717927D01*
X216459060Y-74780208D01*
X216393240Y-74870800D01*
X216307454Y-75039163D01*
X216249059Y-75218881D01*
X216219500Y-75405513D01*
X214600500Y-75405513D01*
X214600500Y-74724038D01*
X214561090Y-74475215D01*
X214483241Y-74235621D01*
X214483239Y-74235618D01*
X214483239Y-74235616D01*
X214441747Y-74154184D01*
X214368870Y-74011155D01*
X214311914Y-73932762D01*
X214220798Y-73807350D01*
X214220794Y-73807345D01*
X214042654Y-73629205D01*
X214042649Y-73629201D01*
X213838848Y-73481132D01*
X213838847Y-73481131D01*
X213838845Y-73481130D01*
X213750749Y-73436243D01*
X213614383Y-73366760D01*
X213374785Y-73288910D01*
X213125962Y-73249500D01*
X212874038Y-73249500D01*
X212749626Y-73269205D01*
X212625214Y-73288910D01*
X212385616Y-73366760D01*
X212161151Y-73481132D01*
X211957350Y-73629200D01*
X211865487Y-73721062D01*
X211804163Y-73754546D01*
X211764553Y-73756669D01*
X211755522Y-73755698D01*
X211697873Y-73749500D01*
X211697865Y-73749500D01*
X210102129Y-73749500D01*
X210102123Y-73749501D01*
X210042516Y-73755908D01*
X209907671Y-73806202D01*
X209907664Y-73806206D01*
X209792455Y-73892452D01*
X209763765Y-73930777D01*
X209707830Y-73972648D01*
X209638139Y-73977631D01*
X209591613Y-73956783D01*
X209555405Y-73930476D01*
X209380029Y-73841117D01*
X209192826Y-73780290D01*
X208998422Y-73749500D01*
X208998417Y-73749500D01*
X208801583Y-73749500D01*
X208801578Y-73749500D01*
X208607173Y-73780290D01*
X208419970Y-73841117D01*
X208244594Y-73930476D01*
X208179692Y-73977631D01*
X208085354Y-74046172D01*
X208085352Y-74046174D01*
X208085350Y-74046175D01*
X207987325Y-74144199D01*
X207926002Y-74177683D01*
X207856310Y-74172698D01*
X207811964Y-74144198D01*
X207714321Y-74046555D01*
X207555143Y-73930904D01*
X207379835Y-73841581D01*
X207192705Y-73780778D01*
X207150000Y-73774014D01*
X207150000Y-75184314D01*
X207145606Y-75179920D01*
X207054394Y-75127259D01*
X206952661Y-75100000D01*
X206847339Y-75100000D01*
X206745606Y-75127259D01*
X206654394Y-75179920D01*
X206650000Y-75184314D01*
X206650000Y-73774014D01*
X206649999Y-73774014D01*
X206607294Y-73780778D01*
X206420161Y-73841582D01*
X206241209Y-73932762D01*
X206172540Y-73945658D01*
X206107800Y-73919381D01*
X206084597Y-73895162D01*
X206020798Y-73807350D01*
X206020794Y-73807345D01*
X205842654Y-73629205D01*
X205842649Y-73629201D01*
X205638848Y-73481132D01*
X205638847Y-73481131D01*
X205638845Y-73481130D01*
X205550749Y-73436243D01*
X205414383Y-73366760D01*
X205174785Y-73288910D01*
X204925962Y-73249500D01*
X204674038Y-73249500D01*
X204549626Y-73269205D01*
X204425214Y-73288910D01*
X204185616Y-73366760D01*
X203961151Y-73481132D01*
X203757350Y-73629201D01*
X203757345Y-73629205D01*
X203579205Y-73807345D01*
X203579201Y-73807350D01*
X203431132Y-74011151D01*
X203316760Y-74235616D01*
X203238910Y-74475214D01*
X203234200Y-74504951D01*
X203199500Y-74724038D01*
X188496767Y-74724038D01*
X188462981Y-74677536D01*
X188322464Y-74537019D01*
X188161694Y-74420213D01*
X188138594Y-74408443D01*
X187984632Y-74329994D01*
X187984629Y-74329993D01*
X187795637Y-74268587D01*
X187697498Y-74253043D01*
X187599361Y-74237500D01*
X187400639Y-74237500D01*
X187335214Y-74247862D01*
X187204362Y-74268587D01*
X187015370Y-74329993D01*
X187015367Y-74329994D01*
X186838305Y-74420213D01*
X186677533Y-74537021D01*
X186537021Y-74677533D01*
X186420213Y-74838305D01*
X186329994Y-75015367D01*
X186329993Y-75015370D01*
X186268587Y-75204362D01*
X186237500Y-75400639D01*
X173762500Y-75400639D01*
X173731413Y-75204364D01*
X173677738Y-75039168D01*
X173670006Y-75015370D01*
X173670005Y-75015367D01*
X173596344Y-74870801D01*
X173579787Y-74838306D01*
X173462981Y-74677536D01*
X173322464Y-74537019D01*
X173161694Y-74420213D01*
X173138594Y-74408443D01*
X172984632Y-74329994D01*
X172984629Y-74329993D01*
X172795637Y-74268587D01*
X172697498Y-74253043D01*
X172599361Y-74237500D01*
X172400639Y-74237500D01*
X172335214Y-74247862D01*
X172204362Y-74268587D01*
X172015370Y-74329993D01*
X172015367Y-74329994D01*
X171838305Y-74420213D01*
X171677533Y-74537021D01*
X171537021Y-74677533D01*
X171420213Y-74838305D01*
X171329994Y-75015367D01*
X171329993Y-75015370D01*
X171268587Y-75204362D01*
X171237500Y-75400639D01*
X157326255Y-75400639D01*
X157317246Y-75343757D01*
X157251557Y-75141588D01*
X157155051Y-74952184D01*
X157155049Y-74952181D01*
X157155048Y-74952179D01*
X157030109Y-74780213D01*
X156879786Y-74629890D01*
X156707820Y-74504951D01*
X156707115Y-74504591D01*
X156699054Y-74500485D01*
X156648259Y-74452512D01*
X156631463Y-74384692D01*
X156653999Y-74318556D01*
X156699054Y-74279515D01*
X156707816Y-74275051D01*
X156762094Y-74235616D01*
X156879786Y-74150109D01*
X156879788Y-74150106D01*
X156879792Y-74150104D01*
X157030104Y-73999792D01*
X157030106Y-73999788D01*
X157030109Y-73999786D01*
X157155048Y-73827820D01*
X157155047Y-73827820D01*
X157155051Y-73827816D01*
X157251557Y-73638412D01*
X157317246Y-73436243D01*
X157350500Y-73226287D01*
X157350500Y-73013713D01*
X157317246Y-72803757D01*
X157251557Y-72601588D01*
X157155051Y-72412184D01*
X157155049Y-72412181D01*
X157155048Y-72412179D01*
X157030109Y-72240213D01*
X156879786Y-72089890D01*
X156707820Y-71964951D01*
X156707115Y-71964591D01*
X156699054Y-71960485D01*
X156648259Y-71912512D01*
X156631463Y-71844692D01*
X156653999Y-71778556D01*
X156699054Y-71739515D01*
X156707816Y-71735051D01*
X156729789Y-71719086D01*
X156879786Y-71610109D01*
X156879788Y-71610106D01*
X156879792Y-71610104D01*
X157030104Y-71459792D01*
X157030106Y-71459788D01*
X157030109Y-71459786D01*
X157155048Y-71287820D01*
X157155047Y-71287820D01*
X157155051Y-71287816D01*
X157251557Y-71098412D01*
X157317246Y-70896243D01*
X157350500Y-70686287D01*
X157350500Y-70473713D01*
X157317246Y-70263757D01*
X157251557Y-70061588D01*
X157155051Y-69872184D01*
X157155049Y-69872181D01*
X157155048Y-69872179D01*
X157030109Y-69700213D01*
X156879790Y-69549894D01*
X156879785Y-69549890D01*
X156806831Y-69496886D01*
X156806795Y-69496861D01*
X156707816Y-69424949D01*
X156691489Y-69416630D01*
X156684526Y-69411785D01*
X156667735Y-69390906D01*
X156648259Y-69372512D01*
X156646174Y-69364094D01*
X156640740Y-69357337D01*
X156637903Y-69330697D01*
X156631463Y-69304692D01*
X156634260Y-69296483D01*
X156633342Y-69287860D01*
X156645357Y-69263915D01*
X156653999Y-69238556D01*
X156661226Y-69232293D01*
X156664679Y-69225413D01*
X156678843Y-69217027D01*
X156699054Y-69199515D01*
X156707816Y-69195051D01*
X156774716Y-69146446D01*
X156879786Y-69070109D01*
X156879788Y-69070106D01*
X156879792Y-69070104D01*
X157030104Y-68919792D01*
X157030106Y-68919788D01*
X157030109Y-68919786D01*
X157155048Y-68747820D01*
X157155047Y-68747820D01*
X157155051Y-68747816D01*
X157251557Y-68558412D01*
X157317246Y-68356243D01*
X157350500Y-68146287D01*
X157350500Y-67933713D01*
X157317246Y-67723757D01*
X157251557Y-67521588D01*
X157155051Y-67332184D01*
X157155049Y-67332181D01*
X157155048Y-67332179D01*
X157030109Y-67160213D01*
X156879786Y-67009890D01*
X156707817Y-66884949D01*
X156698504Y-66880204D01*
X156647707Y-66832230D01*
X156630912Y-66764409D01*
X156653449Y-66698274D01*
X156698507Y-66659232D01*
X156707555Y-66654622D01*
X156761716Y-66615270D01*
X156761717Y-66615270D01*
X156427599Y-66281153D01*
X165199500Y-66281153D01*
X165199500Y-66438846D01*
X165230261Y-66593489D01*
X165230264Y-66593501D01*
X165290602Y-66739172D01*
X165290609Y-66739185D01*
X165378602Y-66870874D01*
X165384252Y-66888920D01*
X165394477Y-66904830D01*
X165398928Y-66935789D01*
X165399480Y-66937551D01*
X165399500Y-66939765D01*
X165399500Y-66980234D01*
X165379815Y-67047273D01*
X165378602Y-67049125D01*
X165290609Y-67180814D01*
X165290602Y-67180827D01*
X165230264Y-67326498D01*
X165230261Y-67326510D01*
X165199500Y-67481153D01*
X165199500Y-67638846D01*
X165230261Y-67793489D01*
X165230264Y-67793501D01*
X165290602Y-67939172D01*
X165290609Y-67939185D01*
X165378210Y-68070288D01*
X165378213Y-68070292D01*
X165489707Y-68181786D01*
X165489711Y-68181789D01*
X165620814Y-68269390D01*
X165620827Y-68269397D01*
X165766498Y-68329735D01*
X165766503Y-68329737D01*
X165883147Y-68352939D01*
X165921153Y-68360499D01*
X165921156Y-68360500D01*
X165921158Y-68360500D01*
X166078844Y-68360500D01*
X166078845Y-68360499D01*
X166233497Y-68329737D01*
X166379179Y-68269394D01*
X166510289Y-68181789D01*
X166621789Y-68070289D01*
X166709394Y-67939179D01*
X166769737Y-67793497D01*
X166800500Y-67638842D01*
X166800500Y-67481158D01*
X166800500Y-67481155D01*
X166800499Y-67481153D01*
X166793851Y-67447730D01*
X166769737Y-67326503D01*
X166733078Y-67238000D01*
X166709397Y-67180827D01*
X166709390Y-67180814D01*
X166621398Y-67049125D01*
X166615747Y-67031078D01*
X166605523Y-67015169D01*
X166601071Y-66984207D01*
X166600520Y-66982447D01*
X166600500Y-66980234D01*
X166600500Y-66939765D01*
X166620185Y-66872726D01*
X166621398Y-66870874D01*
X166709390Y-66739185D01*
X166709390Y-66739184D01*
X166709394Y-66739179D01*
X166769737Y-66593497D01*
X166800500Y-66438842D01*
X166800500Y-66281158D01*
X166800500Y-66281155D01*
X166800499Y-66281153D01*
X167699500Y-66281153D01*
X167699500Y-66438846D01*
X167730261Y-66593489D01*
X167730264Y-66593501D01*
X167790602Y-66739172D01*
X167790609Y-66739185D01*
X167878602Y-66870874D01*
X167884252Y-66888920D01*
X167894477Y-66904830D01*
X167898928Y-66935789D01*
X167899480Y-66937551D01*
X167899500Y-66939765D01*
X167899500Y-66980234D01*
X167879815Y-67047273D01*
X167878602Y-67049125D01*
X167790609Y-67180814D01*
X167790602Y-67180827D01*
X167730264Y-67326498D01*
X167730261Y-67326510D01*
X167699500Y-67481153D01*
X167699500Y-67638846D01*
X167730261Y-67793489D01*
X167730264Y-67793501D01*
X167790602Y-67939172D01*
X167790609Y-67939185D01*
X167878210Y-68070288D01*
X167878213Y-68070292D01*
X167989707Y-68181786D01*
X167989711Y-68181789D01*
X168120814Y-68269390D01*
X168120827Y-68269397D01*
X168266498Y-68329735D01*
X168266503Y-68329737D01*
X168383147Y-68352939D01*
X168421153Y-68360499D01*
X168421156Y-68360500D01*
X168421158Y-68360500D01*
X168578844Y-68360500D01*
X168578845Y-68360499D01*
X168733497Y-68329737D01*
X168879179Y-68269394D01*
X169010289Y-68181789D01*
X169121789Y-68070289D01*
X169209394Y-67939179D01*
X169269737Y-67793497D01*
X169300500Y-67638842D01*
X169300500Y-67481158D01*
X169300500Y-67481155D01*
X169300499Y-67481153D01*
X169293851Y-67447730D01*
X169269737Y-67326503D01*
X169233078Y-67238000D01*
X169209397Y-67180827D01*
X169209390Y-67180814D01*
X169121398Y-67049125D01*
X169115747Y-67031078D01*
X169105523Y-67015169D01*
X169101071Y-66984207D01*
X169100520Y-66982447D01*
X169100500Y-66980234D01*
X169100500Y-66939765D01*
X169120185Y-66872726D01*
X169121398Y-66870874D01*
X169209390Y-66739185D01*
X169209390Y-66739184D01*
X169209394Y-66739179D01*
X169269737Y-66593497D01*
X169300500Y-66438842D01*
X169300500Y-66281158D01*
X169300500Y-66281155D01*
X169300499Y-66281153D01*
X169285858Y-66207550D01*
X169269737Y-66126503D01*
X169262626Y-66109336D01*
X169209397Y-65980827D01*
X169209390Y-65980814D01*
X169121789Y-65849711D01*
X169121786Y-65849707D01*
X169010292Y-65738213D01*
X169010288Y-65738210D01*
X168879185Y-65650609D01*
X168879172Y-65650602D01*
X168733501Y-65590264D01*
X168733489Y-65590261D01*
X168578845Y-65559500D01*
X168578842Y-65559500D01*
X168421158Y-65559500D01*
X168421155Y-65559500D01*
X168266510Y-65590261D01*
X168266498Y-65590264D01*
X168120827Y-65650602D01*
X168120814Y-65650609D01*
X167989711Y-65738210D01*
X167989707Y-65738213D01*
X167878213Y-65849707D01*
X167878210Y-65849711D01*
X167790609Y-65980814D01*
X167790602Y-65980827D01*
X167730264Y-66126498D01*
X167730261Y-66126510D01*
X167699500Y-66281153D01*
X166800499Y-66281153D01*
X166785858Y-66207550D01*
X166769737Y-66126503D01*
X166762626Y-66109336D01*
X166709397Y-65980827D01*
X166709390Y-65980814D01*
X166621789Y-65849711D01*
X166621786Y-65849707D01*
X166510292Y-65738213D01*
X166510288Y-65738210D01*
X166379185Y-65650609D01*
X166379172Y-65650602D01*
X166233501Y-65590264D01*
X166233489Y-65590261D01*
X166078845Y-65559500D01*
X166078842Y-65559500D01*
X165921158Y-65559500D01*
X165921155Y-65559500D01*
X165766510Y-65590261D01*
X165766498Y-65590264D01*
X165620827Y-65650602D01*
X165620814Y-65650609D01*
X165489711Y-65738210D01*
X165489707Y-65738213D01*
X165378213Y-65849707D01*
X165378210Y-65849711D01*
X165290609Y-65980814D01*
X165290602Y-65980827D01*
X165230264Y-66126498D01*
X165230261Y-66126510D01*
X165199500Y-66281153D01*
X156427599Y-66281153D01*
X156129408Y-65982962D01*
X156192993Y-65965925D01*
X156307007Y-65900099D01*
X156400099Y-65807007D01*
X156465925Y-65692993D01*
X156482962Y-65629408D01*
X157115270Y-66261717D01*
X157115270Y-66261716D01*
X157154622Y-66207554D01*
X157251095Y-66018217D01*
X157316757Y-65816130D01*
X157316757Y-65816127D01*
X157350000Y-65606246D01*
X157350000Y-65393753D01*
X157316757Y-65183872D01*
X157316757Y-65183869D01*
X157251095Y-64981782D01*
X157154624Y-64792449D01*
X157115270Y-64738282D01*
X157115269Y-64738282D01*
X156482962Y-65370590D01*
X156465925Y-65307007D01*
X156400099Y-65192993D01*
X156307007Y-65099901D01*
X156192993Y-65034075D01*
X156129409Y-65017037D01*
X156799627Y-64346818D01*
X156860950Y-64313333D01*
X156887307Y-64310499D01*
X156897872Y-64310499D01*
X156957483Y-64304091D01*
X157092331Y-64253796D01*
X157207546Y-64167546D01*
X157293796Y-64052331D01*
X157344091Y-63917483D01*
X157350500Y-63857873D01*
X157350499Y-62921153D01*
X164599500Y-62921153D01*
X164599500Y-63078846D01*
X164630261Y-63233489D01*
X164630264Y-63233501D01*
X164690602Y-63379172D01*
X164690609Y-63379185D01*
X164778210Y-63510288D01*
X164778213Y-63510292D01*
X164889707Y-63621786D01*
X164889711Y-63621789D01*
X165020814Y-63709390D01*
X165020827Y-63709397D01*
X165138906Y-63758306D01*
X165166503Y-63769737D01*
X165321153Y-63800499D01*
X165321156Y-63800500D01*
X165321158Y-63800500D01*
X165478844Y-63800500D01*
X165478845Y-63800499D01*
X165633497Y-63769737D01*
X165779179Y-63709394D01*
X165797297Y-63697288D01*
X165910875Y-63621398D01*
X165928921Y-63615747D01*
X165944831Y-63605523D01*
X165975792Y-63601071D01*
X165977553Y-63600520D01*
X165979766Y-63600500D01*
X166020234Y-63600500D01*
X166087273Y-63620185D01*
X166089125Y-63621398D01*
X166220814Y-63709390D01*
X166220827Y-63709397D01*
X166338906Y-63758306D01*
X166366503Y-63769737D01*
X166521153Y-63800499D01*
X166521156Y-63800500D01*
X166521158Y-63800500D01*
X166678844Y-63800500D01*
X166678845Y-63800499D01*
X166833497Y-63769737D01*
X166979179Y-63709394D01*
X167110289Y-63621789D01*
X167221789Y-63510289D01*
X167309394Y-63379179D01*
X167369737Y-63233497D01*
X167400500Y-63078842D01*
X167400500Y-62921158D01*
X167400500Y-62921155D01*
X167400499Y-62921153D01*
X167386618Y-62851368D01*
X167369737Y-62766503D01*
X167343212Y-62702466D01*
X167309397Y-62620827D01*
X167309390Y-62620814D01*
X167221789Y-62489711D01*
X167221786Y-62489707D01*
X167110292Y-62378213D01*
X167110288Y-62378210D01*
X166979185Y-62290609D01*
X166979172Y-62290602D01*
X166833501Y-62230264D01*
X166833489Y-62230261D01*
X166678845Y-62199500D01*
X166678842Y-62199500D01*
X166521158Y-62199500D01*
X166521155Y-62199500D01*
X166366510Y-62230261D01*
X166366498Y-62230264D01*
X166220827Y-62290602D01*
X166220814Y-62290609D01*
X166089125Y-62378602D01*
X166071078Y-62384252D01*
X166055169Y-62394477D01*
X166024207Y-62398928D01*
X166022447Y-62399480D01*
X166020234Y-62399500D01*
X165979766Y-62399500D01*
X165912727Y-62379815D01*
X165910875Y-62378602D01*
X165779185Y-62290609D01*
X165779172Y-62290602D01*
X165633501Y-62230264D01*
X165633489Y-62230261D01*
X165478845Y-62199500D01*
X165478842Y-62199500D01*
X165321158Y-62199500D01*
X165321155Y-62199500D01*
X165166510Y-62230261D01*
X165166498Y-62230264D01*
X165020827Y-62290602D01*
X165020814Y-62290609D01*
X164889711Y-62378210D01*
X164889707Y-62378213D01*
X164778213Y-62489707D01*
X164778210Y-62489711D01*
X164690609Y-62620814D01*
X164690602Y-62620827D01*
X164630264Y-62766498D01*
X164630261Y-62766510D01*
X164599500Y-62921153D01*
X157350499Y-62921153D01*
X157350499Y-62062128D01*
X157344091Y-62002517D01*
X157335454Y-61979361D01*
X157293797Y-61867671D01*
X157293793Y-61867664D01*
X157207547Y-61752455D01*
X157207544Y-61752452D01*
X157092335Y-61666206D01*
X157092328Y-61666202D01*
X156957482Y-61615908D01*
X156957483Y-61615908D01*
X156897883Y-61609501D01*
X156897881Y-61609500D01*
X156897873Y-61609500D01*
X156897864Y-61609500D01*
X155102129Y-61609500D01*
X155102123Y-61609501D01*
X155042516Y-61615908D01*
X154907671Y-61666202D01*
X154907664Y-61666206D01*
X154792455Y-61752452D01*
X154792452Y-61752455D01*
X154706206Y-61867664D01*
X154706202Y-61867671D01*
X154655908Y-62002517D01*
X154649501Y-62062116D01*
X154649501Y-62062123D01*
X154649500Y-62062135D01*
X140000500Y-62062135D01*
X140000500Y-52421153D01*
X168699500Y-52421153D01*
X168699500Y-52578846D01*
X168730261Y-52733489D01*
X168730264Y-52733501D01*
X168790602Y-52879172D01*
X168790609Y-52879185D01*
X168878602Y-53010874D01*
X168899480Y-53077551D01*
X168899500Y-53079765D01*
X168899500Y-58420234D01*
X168879815Y-58487273D01*
X168878602Y-58489125D01*
X168790609Y-58620814D01*
X168790602Y-58620827D01*
X168730264Y-58766498D01*
X168730261Y-58766510D01*
X168699500Y-58921153D01*
X168699500Y-59078846D01*
X168730261Y-59233489D01*
X168730264Y-59233501D01*
X168790602Y-59379172D01*
X168790609Y-59379185D01*
X168878210Y-59510288D01*
X168878213Y-59510292D01*
X168989707Y-59621786D01*
X168989711Y-59621789D01*
X169120814Y-59709390D01*
X169120827Y-59709397D01*
X169266498Y-59769735D01*
X169266503Y-59769737D01*
X169421153Y-59800499D01*
X169421156Y-59800500D01*
X169421158Y-59800500D01*
X169578844Y-59800500D01*
X169578845Y-59800499D01*
X169733497Y-59769737D01*
X169879179Y-59709394D01*
X170010289Y-59621789D01*
X170121789Y-59510289D01*
X170209394Y-59379179D01*
X170269737Y-59233497D01*
X170300500Y-59078842D01*
X170300500Y-58921158D01*
X170300500Y-58921155D01*
X170300499Y-58921153D01*
X170269738Y-58766510D01*
X170269737Y-58766503D01*
X170233205Y-58678306D01*
X170209397Y-58620827D01*
X170209390Y-58620814D01*
X170121398Y-58489125D01*
X170100520Y-58422447D01*
X170100500Y-58420234D01*
X170100500Y-53079765D01*
X170120185Y-53012726D01*
X170121398Y-53010874D01*
X170209390Y-52879185D01*
X170209390Y-52879184D01*
X170209394Y-52879179D01*
X170269737Y-52733497D01*
X170300500Y-52578842D01*
X170300500Y-52421158D01*
X170300500Y-52421155D01*
X170300499Y-52421153D01*
X170278269Y-52309397D01*
X170269737Y-52266503D01*
X170251215Y-52221786D01*
X170209397Y-52120827D01*
X170209390Y-52120814D01*
X170121789Y-51989711D01*
X170121786Y-51989707D01*
X170010292Y-51878213D01*
X170010288Y-51878210D01*
X169879185Y-51790609D01*
X169879172Y-51790602D01*
X169733661Y-51730330D01*
X169733659Y-51730330D01*
X169733497Y-51730263D01*
X169733493Y-51730262D01*
X169733489Y-51730261D01*
X169578845Y-51699500D01*
X169578842Y-51699500D01*
X169421158Y-51699500D01*
X169421155Y-51699500D01*
X169266510Y-51730261D01*
X169266498Y-51730264D01*
X169120827Y-51790602D01*
X169120814Y-51790609D01*
X168989711Y-51878210D01*
X168989707Y-51878213D01*
X168878213Y-51989707D01*
X168878210Y-51989711D01*
X168790609Y-52120814D01*
X168790602Y-52120827D01*
X168730264Y-52266498D01*
X168730261Y-52266510D01*
X168699500Y-52421153D01*
X140000500Y-52421153D01*
X140000500Y-51620639D01*
X171117500Y-51620639D01*
X171117500Y-51819361D01*
X171120501Y-51838306D01*
X171148587Y-52015637D01*
X171209993Y-52204629D01*
X171209994Y-52204632D01*
X171294121Y-52369737D01*
X171300213Y-52381694D01*
X171417019Y-52542464D01*
X171557536Y-52682981D01*
X171718306Y-52799787D01*
X171836832Y-52860179D01*
X171874780Y-52879515D01*
X171925576Y-52927490D01*
X171942371Y-52995311D01*
X171919833Y-53061446D01*
X171874780Y-53100485D01*
X171718305Y-53180213D01*
X171557533Y-53297021D01*
X171417021Y-53437533D01*
X171300213Y-53598305D01*
X171209994Y-53775367D01*
X171209993Y-53775370D01*
X171148587Y-53964362D01*
X171117500Y-54160639D01*
X171117500Y-54359360D01*
X171148587Y-54555637D01*
X171209993Y-54744629D01*
X171209994Y-54744632D01*
X171300213Y-54921694D01*
X171417019Y-55082464D01*
X171557536Y-55222981D01*
X171718306Y-55339787D01*
X171836832Y-55400179D01*
X171874780Y-55419515D01*
X171925576Y-55467490D01*
X171942371Y-55535311D01*
X171919833Y-55601446D01*
X171874780Y-55640485D01*
X171718305Y-55720213D01*
X171557533Y-55837021D01*
X171417021Y-55977533D01*
X171300213Y-56138305D01*
X171209994Y-56315367D01*
X171209993Y-56315370D01*
X171148587Y-56504362D01*
X171117500Y-56700639D01*
X171117500Y-56899360D01*
X171148587Y-57095637D01*
X171209993Y-57284629D01*
X171209994Y-57284632D01*
X171300076Y-57461425D01*
X171300213Y-57461694D01*
X171417019Y-57622464D01*
X171557536Y-57762981D01*
X171718306Y-57879787D01*
X171836832Y-57940179D01*
X171874780Y-57959515D01*
X171925576Y-58007490D01*
X171942371Y-58075311D01*
X171919833Y-58141446D01*
X171874780Y-58180485D01*
X171718305Y-58260213D01*
X171557533Y-58377021D01*
X171417021Y-58517533D01*
X171300213Y-58678305D01*
X171209994Y-58855367D01*
X171209993Y-58855370D01*
X171148587Y-59044362D01*
X171117500Y-59240639D01*
X171117500Y-59439360D01*
X171148587Y-59635637D01*
X171209993Y-59824629D01*
X171209994Y-59824632D01*
X171300213Y-60001694D01*
X171417019Y-60162464D01*
X171557536Y-60302981D01*
X171718306Y-60419787D01*
X171836832Y-60480179D01*
X171874780Y-60499515D01*
X171925576Y-60547490D01*
X171942371Y-60615311D01*
X171919833Y-60681446D01*
X171874780Y-60720485D01*
X171718305Y-60800213D01*
X171557533Y-60917021D01*
X171417021Y-61057533D01*
X171300213Y-61218305D01*
X171209994Y-61395367D01*
X171209993Y-61395370D01*
X171148587Y-61584362D01*
X171135625Y-61666202D01*
X171117500Y-61780639D01*
X171117500Y-61979361D01*
X171121168Y-62002517D01*
X171148587Y-62175637D01*
X171209993Y-62364629D01*
X171209994Y-62364632D01*
X171273724Y-62489707D01*
X171300213Y-62541694D01*
X171417019Y-62702464D01*
X171557536Y-62842981D01*
X171718306Y-62959787D01*
X171836832Y-63020179D01*
X171874780Y-63039515D01*
X171925576Y-63087490D01*
X171942371Y-63155311D01*
X171919833Y-63221446D01*
X171874780Y-63260485D01*
X171718305Y-63340213D01*
X171557533Y-63457021D01*
X171417021Y-63597533D01*
X171300213Y-63758305D01*
X171209994Y-63935367D01*
X171209993Y-63935370D01*
X171148587Y-64124362D01*
X171117500Y-64320639D01*
X171117500Y-64519360D01*
X171148587Y-64715637D01*
X171209993Y-64904629D01*
X171209994Y-64904632D01*
X171275950Y-65034075D01*
X171300213Y-65081694D01*
X171417019Y-65242464D01*
X171557536Y-65382981D01*
X171718306Y-65499787D01*
X171835499Y-65559500D01*
X171874780Y-65579515D01*
X171925576Y-65627490D01*
X171942371Y-65695311D01*
X171919833Y-65761446D01*
X171874780Y-65800485D01*
X171718305Y-65880213D01*
X171557533Y-65997021D01*
X171417021Y-66137533D01*
X171300213Y-66298305D01*
X171209994Y-66475367D01*
X171209993Y-66475370D01*
X171148587Y-66664362D01*
X171117500Y-66860639D01*
X171117500Y-67059360D01*
X171148587Y-67255637D01*
X171209993Y-67444629D01*
X171209994Y-67444632D01*
X171249206Y-67521588D01*
X171300213Y-67621694D01*
X171417019Y-67782464D01*
X171557536Y-67922981D01*
X171718306Y-68039787D01*
X171875332Y-68119796D01*
X171926127Y-68167769D01*
X171942922Y-68235590D01*
X171920385Y-68301725D01*
X171875332Y-68340764D01*
X171718566Y-68420641D01*
X171681283Y-68447729D01*
X171681282Y-68447730D01*
X172352554Y-69119000D01*
X172329840Y-69119000D01*
X172232939Y-69144964D01*
X172146060Y-69195124D01*
X172075124Y-69266060D01*
X172024964Y-69352939D01*
X171999000Y-69449840D01*
X171999000Y-69472552D01*
X171327730Y-68801282D01*
X171327729Y-68801283D01*
X171300643Y-68838564D01*
X171210457Y-69015562D01*
X171149075Y-69204476D01*
X171149075Y-69204479D01*
X171118000Y-69400678D01*
X171118000Y-69599321D01*
X171149075Y-69795520D01*
X171149075Y-69795523D01*
X171210457Y-69984437D01*
X171300641Y-70161432D01*
X171327730Y-70198715D01*
X171327731Y-70198716D01*
X171999000Y-69527447D01*
X171999000Y-69550160D01*
X172024964Y-69647061D01*
X172075124Y-69733940D01*
X172146060Y-69804876D01*
X172232939Y-69855036D01*
X172329840Y-69881000D01*
X172352553Y-69881000D01*
X171681283Y-70552268D01*
X171681283Y-70552269D01*
X171718567Y-70579358D01*
X171895562Y-70669542D01*
X172084477Y-70730924D01*
X172280679Y-70762000D01*
X172479321Y-70762000D01*
X172675520Y-70730924D01*
X172675523Y-70730924D01*
X172864437Y-70669542D01*
X173041425Y-70579362D01*
X173078716Y-70552268D01*
X172407448Y-69881000D01*
X172430160Y-69881000D01*
X172527061Y-69855036D01*
X172613940Y-69804876D01*
X172684876Y-69733940D01*
X172735036Y-69647061D01*
X172761000Y-69550160D01*
X172761000Y-69527447D01*
X173432268Y-70198715D01*
X173459362Y-70161425D01*
X173549542Y-69984437D01*
X173610924Y-69795523D01*
X173610924Y-69795520D01*
X173642000Y-69599321D01*
X173642000Y-69400678D01*
X173610924Y-69204479D01*
X173610924Y-69204476D01*
X173549542Y-69015562D01*
X173459358Y-68838567D01*
X173432268Y-68801283D01*
X172761000Y-69472551D01*
X172761000Y-69449840D01*
X172735036Y-69352939D01*
X172684876Y-69266060D01*
X172613940Y-69195124D01*
X172527061Y-69144964D01*
X172430160Y-69119000D01*
X172407447Y-69119000D01*
X173078716Y-68447731D01*
X173078715Y-68447730D01*
X173041432Y-68420641D01*
X172884668Y-68340765D01*
X172833872Y-68292790D01*
X172817077Y-68224969D01*
X172839615Y-68158834D01*
X172884667Y-68119796D01*
X173041694Y-68039787D01*
X173202464Y-67922981D01*
X173342981Y-67782464D01*
X173459787Y-67621694D01*
X173550005Y-67444632D01*
X173611413Y-67255636D01*
X173642500Y-67059361D01*
X173642500Y-66860639D01*
X173611413Y-66664364D01*
X173580709Y-66569866D01*
X173550006Y-66475370D01*
X173550005Y-66475367D01*
X173459786Y-66298305D01*
X173447326Y-66281155D01*
X173342981Y-66137536D01*
X173202464Y-65997019D01*
X173041694Y-65880213D01*
X172885218Y-65800484D01*
X172834423Y-65752510D01*
X172817628Y-65684689D01*
X172840165Y-65618554D01*
X172885218Y-65579515D01*
X173041694Y-65499787D01*
X173202464Y-65382981D01*
X173342981Y-65242464D01*
X173459787Y-65081694D01*
X173550005Y-64904632D01*
X173611413Y-64715636D01*
X173642500Y-64519361D01*
X173642500Y-64320639D01*
X173611413Y-64124364D01*
X173550005Y-63935368D01*
X173550005Y-63935367D01*
X173504035Y-63845149D01*
X173459787Y-63758306D01*
X173342981Y-63597536D01*
X173202464Y-63457019D01*
X173041694Y-63340213D01*
X172885218Y-63260484D01*
X172834423Y-63212510D01*
X172817628Y-63144689D01*
X172840165Y-63078554D01*
X172885218Y-63039515D01*
X173041694Y-62959787D01*
X173202464Y-62842981D01*
X173342981Y-62702464D01*
X173459787Y-62541694D01*
X173550005Y-62364632D01*
X173611413Y-62175636D01*
X173642500Y-61979361D01*
X173642500Y-61780639D01*
X173611413Y-61584364D01*
X173550005Y-61395368D01*
X173550005Y-61395367D01*
X173459786Y-61218305D01*
X173380686Y-61109433D01*
X173342981Y-61057536D01*
X173202464Y-60917019D01*
X173041694Y-60800213D01*
X172885218Y-60720484D01*
X172834423Y-60672510D01*
X172817628Y-60604689D01*
X172840165Y-60538554D01*
X172885218Y-60499515D01*
X173041694Y-60419787D01*
X173202464Y-60302981D01*
X173342981Y-60162464D01*
X173459787Y-60001694D01*
X173550005Y-59824632D01*
X173611413Y-59635636D01*
X173642500Y-59439361D01*
X173642500Y-59240639D01*
X173611413Y-59044364D01*
X173550005Y-58855368D01*
X173550005Y-58855367D01*
X173459786Y-58678305D01*
X173418026Y-58620827D01*
X173342981Y-58517536D01*
X173202464Y-58377019D01*
X173041694Y-58260213D01*
X172885218Y-58180484D01*
X172834423Y-58132510D01*
X172817628Y-58064689D01*
X172840165Y-57998554D01*
X172885218Y-57959515D01*
X173041694Y-57879787D01*
X173202464Y-57762981D01*
X173342981Y-57622464D01*
X173459787Y-57461694D01*
X173550005Y-57284632D01*
X173611413Y-57095636D01*
X173642500Y-56899361D01*
X173642500Y-56700639D01*
X173611413Y-56504364D01*
X173550005Y-56315368D01*
X173550005Y-56315367D01*
X173498134Y-56213566D01*
X173459787Y-56138306D01*
X173342981Y-55977536D01*
X173202464Y-55837019D01*
X173041694Y-55720213D01*
X172885218Y-55640484D01*
X172834423Y-55592510D01*
X172817628Y-55524689D01*
X172840165Y-55458554D01*
X172885218Y-55419515D01*
X173041694Y-55339787D01*
X173202464Y-55222981D01*
X173342981Y-55082464D01*
X173459787Y-54921694D01*
X173550005Y-54744632D01*
X173611413Y-54555636D01*
X173642500Y-54359361D01*
X173642500Y-54160639D01*
X173611413Y-53964364D01*
X173550005Y-53775368D01*
X173550005Y-53775367D01*
X173459786Y-53598305D01*
X173446331Y-53579786D01*
X173342981Y-53437536D01*
X173202464Y-53297019D01*
X173041694Y-53180213D01*
X172885218Y-53100484D01*
X172834423Y-53052510D01*
X172817628Y-52984689D01*
X172840165Y-52918554D01*
X172885218Y-52879515D01*
X173041694Y-52799787D01*
X173202464Y-52682981D01*
X173342981Y-52542464D01*
X173459787Y-52381694D01*
X173550005Y-52204632D01*
X173611413Y-52015636D01*
X173642500Y-51819361D01*
X173642500Y-51620639D01*
X186117500Y-51620639D01*
X186117500Y-51819361D01*
X186120501Y-51838306D01*
X186148587Y-52015637D01*
X186209993Y-52204629D01*
X186209994Y-52204632D01*
X186294121Y-52369737D01*
X186300213Y-52381694D01*
X186417019Y-52542464D01*
X186557536Y-52682981D01*
X186718306Y-52799787D01*
X186836832Y-52860179D01*
X186874780Y-52879515D01*
X186925576Y-52927490D01*
X186942371Y-52995311D01*
X186919833Y-53061446D01*
X186874780Y-53100485D01*
X186718305Y-53180213D01*
X186557533Y-53297021D01*
X186417021Y-53437533D01*
X186300213Y-53598305D01*
X186209994Y-53775367D01*
X186209993Y-53775370D01*
X186148587Y-53964362D01*
X186117500Y-54160639D01*
X186117500Y-54359360D01*
X186148587Y-54555637D01*
X186209993Y-54744629D01*
X186209994Y-54744632D01*
X186300213Y-54921694D01*
X186417019Y-55082464D01*
X186557536Y-55222981D01*
X186718306Y-55339787D01*
X186875332Y-55419796D01*
X186926127Y-55467769D01*
X186942922Y-55535590D01*
X186920385Y-55601725D01*
X186875332Y-55640764D01*
X186718566Y-55720641D01*
X186681283Y-55747729D01*
X186681282Y-55747730D01*
X187352554Y-56419000D01*
X187329840Y-56419000D01*
X187232939Y-56444964D01*
X187146060Y-56495124D01*
X187075124Y-56566060D01*
X187024964Y-56652939D01*
X186999000Y-56749840D01*
X186999000Y-56772552D01*
X186327730Y-56101282D01*
X186327729Y-56101283D01*
X186300643Y-56138564D01*
X186210457Y-56315562D01*
X186149075Y-56504476D01*
X186149075Y-56504479D01*
X186118000Y-56700678D01*
X186118000Y-56899321D01*
X186149075Y-57095520D01*
X186149075Y-57095523D01*
X186210457Y-57284437D01*
X186300641Y-57461432D01*
X186327730Y-57498715D01*
X186327731Y-57498716D01*
X186999000Y-56827447D01*
X186999000Y-56850160D01*
X187024964Y-56947061D01*
X187075124Y-57033940D01*
X187146060Y-57104876D01*
X187232939Y-57155036D01*
X187329840Y-57181000D01*
X187352553Y-57181000D01*
X186681283Y-57852268D01*
X186681283Y-57852269D01*
X186718567Y-57879358D01*
X186875331Y-57959234D01*
X186926127Y-58007209D01*
X186942922Y-58075030D01*
X186920384Y-58141165D01*
X186875331Y-58180204D01*
X186718305Y-58260213D01*
X186557533Y-58377021D01*
X186417021Y-58517533D01*
X186300213Y-58678305D01*
X186209994Y-58855367D01*
X186209993Y-58855370D01*
X186148587Y-59044362D01*
X186117500Y-59240639D01*
X186117500Y-59439360D01*
X186148587Y-59635637D01*
X186209993Y-59824629D01*
X186209994Y-59824632D01*
X186300213Y-60001694D01*
X186417019Y-60162464D01*
X186557536Y-60302981D01*
X186718306Y-60419787D01*
X186836832Y-60480179D01*
X186874780Y-60499515D01*
X186925576Y-60547490D01*
X186942371Y-60615311D01*
X186919833Y-60681446D01*
X186874780Y-60720485D01*
X186718305Y-60800213D01*
X186557533Y-60917021D01*
X186417021Y-61057533D01*
X186300213Y-61218305D01*
X186209994Y-61395367D01*
X186209993Y-61395370D01*
X186148587Y-61584362D01*
X186135625Y-61666202D01*
X186117500Y-61780639D01*
X186117500Y-61979361D01*
X186121168Y-62002517D01*
X186148587Y-62175637D01*
X186209993Y-62364629D01*
X186209994Y-62364632D01*
X186273724Y-62489707D01*
X186300213Y-62541694D01*
X186417019Y-62702464D01*
X186557536Y-62842981D01*
X186718306Y-62959787D01*
X186836832Y-63020179D01*
X186874780Y-63039515D01*
X186925576Y-63087490D01*
X186942371Y-63155311D01*
X186919833Y-63221446D01*
X186874780Y-63260485D01*
X186718305Y-63340213D01*
X186557533Y-63457021D01*
X186417021Y-63597533D01*
X186300213Y-63758305D01*
X186209994Y-63935367D01*
X186209993Y-63935370D01*
X186148587Y-64124362D01*
X186117500Y-64320639D01*
X186117500Y-64519360D01*
X186148587Y-64715637D01*
X186209993Y-64904629D01*
X186209994Y-64904632D01*
X186275950Y-65034075D01*
X186300213Y-65081694D01*
X186417019Y-65242464D01*
X186557536Y-65382981D01*
X186718306Y-65499787D01*
X186835499Y-65559500D01*
X186874780Y-65579515D01*
X186925576Y-65627490D01*
X186942371Y-65695311D01*
X186919833Y-65761446D01*
X186874780Y-65800485D01*
X186718305Y-65880213D01*
X186557533Y-65997021D01*
X186417021Y-66137533D01*
X186300213Y-66298305D01*
X186209994Y-66475367D01*
X186209993Y-66475370D01*
X186148587Y-66664362D01*
X186117500Y-66860639D01*
X186117500Y-67059360D01*
X186148587Y-67255637D01*
X186209993Y-67444629D01*
X186209994Y-67444632D01*
X186249206Y-67521588D01*
X186300213Y-67621694D01*
X186417019Y-67782464D01*
X186557536Y-67922981D01*
X186718306Y-68039787D01*
X186875332Y-68119796D01*
X186926127Y-68167769D01*
X186942922Y-68235590D01*
X186920385Y-68301725D01*
X186875332Y-68340764D01*
X186718566Y-68420641D01*
X186681283Y-68447729D01*
X186681282Y-68447730D01*
X187352554Y-69119000D01*
X187329840Y-69119000D01*
X187232939Y-69144964D01*
X187146060Y-69195124D01*
X187075124Y-69266060D01*
X187024964Y-69352939D01*
X186999000Y-69449840D01*
X186999000Y-69472552D01*
X186327730Y-68801282D01*
X186327729Y-68801283D01*
X186300643Y-68838564D01*
X186210457Y-69015562D01*
X186149075Y-69204476D01*
X186149075Y-69204479D01*
X186118000Y-69400678D01*
X186118000Y-69599321D01*
X186149075Y-69795520D01*
X186149075Y-69795523D01*
X186210457Y-69984437D01*
X186300641Y-70161432D01*
X186327730Y-70198715D01*
X186327731Y-70198716D01*
X186999000Y-69527447D01*
X186999000Y-69550160D01*
X187024964Y-69647061D01*
X187075124Y-69733940D01*
X187146060Y-69804876D01*
X187232939Y-69855036D01*
X187329840Y-69881000D01*
X187352553Y-69881000D01*
X186681283Y-70552268D01*
X186681283Y-70552269D01*
X186718567Y-70579358D01*
X186895562Y-70669542D01*
X187084477Y-70730924D01*
X187280679Y-70762000D01*
X187479321Y-70762000D01*
X187675520Y-70730924D01*
X187675523Y-70730924D01*
X187864437Y-70669542D01*
X188041425Y-70579362D01*
X188078716Y-70552268D01*
X187407448Y-69881000D01*
X187430160Y-69881000D01*
X187527061Y-69855036D01*
X187613940Y-69804876D01*
X187684876Y-69733940D01*
X187735036Y-69647061D01*
X187761000Y-69550160D01*
X187761000Y-69527447D01*
X188432268Y-70198715D01*
X188459362Y-70161425D01*
X188549542Y-69984437D01*
X188610924Y-69795523D01*
X188610924Y-69795520D01*
X188642000Y-69599321D01*
X188642000Y-69400678D01*
X188610924Y-69204479D01*
X188610924Y-69204476D01*
X188549542Y-69015562D01*
X188459358Y-68838567D01*
X188432268Y-68801283D01*
X187761000Y-69472551D01*
X187761000Y-69449840D01*
X187735036Y-69352939D01*
X187684876Y-69266060D01*
X187613940Y-69195124D01*
X187527061Y-69144964D01*
X187430160Y-69119000D01*
X187407447Y-69119000D01*
X188078715Y-68447731D01*
X188078715Y-68447730D01*
X188041432Y-68420641D01*
X188002253Y-68400678D01*
X206198000Y-68400678D01*
X206198000Y-68599321D01*
X206229075Y-68795520D01*
X206229075Y-68795523D01*
X206290457Y-68984437D01*
X206380641Y-69161432D01*
X206407730Y-69198715D01*
X206407731Y-69198716D01*
X207079000Y-68527447D01*
X207079000Y-68550160D01*
X207104964Y-68647061D01*
X207155124Y-68733940D01*
X207226060Y-68804876D01*
X207312939Y-68855036D01*
X207409840Y-68881000D01*
X207432553Y-68881000D01*
X206761283Y-69552268D01*
X206761283Y-69552269D01*
X206798567Y-69579358D01*
X206975562Y-69669542D01*
X207164477Y-69730924D01*
X207360679Y-69762000D01*
X207559321Y-69762000D01*
X207755520Y-69730924D01*
X207755523Y-69730924D01*
X207944437Y-69669542D01*
X208121425Y-69579362D01*
X208158716Y-69552268D01*
X207487448Y-68881000D01*
X207510160Y-68881000D01*
X207607061Y-68855036D01*
X207693940Y-68804876D01*
X207764876Y-68733940D01*
X207815036Y-68647061D01*
X207841000Y-68550160D01*
X207841000Y-68527447D01*
X208512268Y-69198715D01*
X208539362Y-69161425D01*
X208619515Y-69004117D01*
X208667489Y-68953321D01*
X208735310Y-68936526D01*
X208801445Y-68959063D01*
X208840485Y-69004117D01*
X208920641Y-69161432D01*
X208947730Y-69198715D01*
X208947731Y-69198716D01*
X209619000Y-68527447D01*
X209619000Y-68550160D01*
X209644964Y-68647061D01*
X209695124Y-68733940D01*
X209766060Y-68804876D01*
X209852939Y-68855036D01*
X209949840Y-68881000D01*
X209972553Y-68881000D01*
X209301283Y-69552268D01*
X209301283Y-69552269D01*
X209338567Y-69579358D01*
X209515562Y-69669542D01*
X209704477Y-69730924D01*
X209900679Y-69762000D01*
X210099321Y-69762000D01*
X210295520Y-69730924D01*
X210295523Y-69730924D01*
X210484437Y-69669542D01*
X210661425Y-69579362D01*
X210698716Y-69552268D01*
X210027448Y-68881000D01*
X210050160Y-68881000D01*
X210147061Y-68855036D01*
X210233940Y-68804876D01*
X210304876Y-68733940D01*
X210355036Y-68647061D01*
X210381000Y-68550160D01*
X210381000Y-68527447D01*
X211052268Y-69198715D01*
X211079362Y-69161425D01*
X211169542Y-68984437D01*
X211230924Y-68795523D01*
X211230924Y-68795520D01*
X211262000Y-68599321D01*
X211262000Y-68400678D01*
X211230924Y-68204479D01*
X211230924Y-68204476D01*
X211169542Y-68015562D01*
X211079358Y-67838567D01*
X211052268Y-67801283D01*
X210381000Y-68472551D01*
X210381000Y-68449840D01*
X210355036Y-68352939D01*
X210304876Y-68266060D01*
X210233940Y-68195124D01*
X210147061Y-68144964D01*
X210050160Y-68119000D01*
X210027447Y-68119000D01*
X210698716Y-67447731D01*
X210698715Y-67447730D01*
X210661432Y-67420641D01*
X210484437Y-67330457D01*
X210295522Y-67269075D01*
X210099321Y-67238000D01*
X209900679Y-67238000D01*
X209704479Y-67269075D01*
X209704476Y-67269075D01*
X209515562Y-67330457D01*
X209338564Y-67420643D01*
X209301283Y-67447729D01*
X209301282Y-67447730D01*
X209972554Y-68119000D01*
X209949840Y-68119000D01*
X209852939Y-68144964D01*
X209766060Y-68195124D01*
X209695124Y-68266060D01*
X209644964Y-68352939D01*
X209619000Y-68449840D01*
X209619000Y-68472552D01*
X208947730Y-67801282D01*
X208947729Y-67801283D01*
X208920643Y-67838564D01*
X208840485Y-67995882D01*
X208792510Y-68046678D01*
X208724689Y-68063473D01*
X208658554Y-68040935D01*
X208619515Y-67995882D01*
X208539358Y-67838567D01*
X208512268Y-67801283D01*
X207841000Y-68472551D01*
X207841000Y-68449840D01*
X207815036Y-68352939D01*
X207764876Y-68266060D01*
X207693940Y-68195124D01*
X207607061Y-68144964D01*
X207510160Y-68119000D01*
X207487447Y-68119000D01*
X208158716Y-67447731D01*
X208158715Y-67447730D01*
X208121432Y-67420641D01*
X207944437Y-67330457D01*
X207755522Y-67269075D01*
X207559321Y-67238000D01*
X207360679Y-67238000D01*
X207164479Y-67269075D01*
X207164476Y-67269075D01*
X206975562Y-67330457D01*
X206798564Y-67420643D01*
X206761283Y-67447729D01*
X206761282Y-67447730D01*
X207432554Y-68119000D01*
X207409840Y-68119000D01*
X207312939Y-68144964D01*
X207226060Y-68195124D01*
X207155124Y-68266060D01*
X207104964Y-68352939D01*
X207079000Y-68449840D01*
X207079000Y-68472552D01*
X206407730Y-67801282D01*
X206407729Y-67801283D01*
X206380643Y-67838564D01*
X206290457Y-68015562D01*
X206229075Y-68204476D01*
X206229075Y-68204479D01*
X206198000Y-68400678D01*
X188002253Y-68400678D01*
X187884668Y-68340765D01*
X187833872Y-68292790D01*
X187817077Y-68224969D01*
X187839615Y-68158834D01*
X187884667Y-68119796D01*
X188041694Y-68039787D01*
X188202464Y-67922981D01*
X188342981Y-67782464D01*
X188459787Y-67621694D01*
X188550005Y-67444632D01*
X188611413Y-67255636D01*
X188642500Y-67059361D01*
X188642500Y-66860639D01*
X188611413Y-66664364D01*
X188580709Y-66569866D01*
X188550006Y-66475370D01*
X188550005Y-66475367D01*
X188459786Y-66298305D01*
X188447326Y-66281155D01*
X188342981Y-66137536D01*
X188202464Y-65997019D01*
X188041694Y-65880213D01*
X187885218Y-65800484D01*
X187834423Y-65752510D01*
X187817628Y-65684689D01*
X187840165Y-65618554D01*
X187885218Y-65579515D01*
X188041694Y-65499787D01*
X188202464Y-65382981D01*
X188342981Y-65242464D01*
X188459787Y-65081694D01*
X188550005Y-64904632D01*
X188611413Y-64715636D01*
X188642500Y-64519361D01*
X188642500Y-64320639D01*
X188611413Y-64124364D01*
X188550005Y-63935368D01*
X188550005Y-63935367D01*
X188504035Y-63845149D01*
X188459787Y-63758306D01*
X188342981Y-63597536D01*
X188202464Y-63457019D01*
X188041694Y-63340213D01*
X187885218Y-63260484D01*
X187834423Y-63212510D01*
X187817628Y-63144689D01*
X187840165Y-63078554D01*
X187885218Y-63039515D01*
X188041694Y-62959787D01*
X188202464Y-62842981D01*
X188342981Y-62702464D01*
X188459787Y-62541694D01*
X188541205Y-62381902D01*
X195999500Y-62381902D01*
X195999500Y-62618097D01*
X196036446Y-62851368D01*
X196109433Y-63075996D01*
X196189685Y-63233497D01*
X196216657Y-63286433D01*
X196355483Y-63477510D01*
X196355489Y-63477516D01*
X196358647Y-63481214D01*
X196356864Y-63482736D01*
X196385726Y-63535591D01*
X196380742Y-63605283D01*
X196338870Y-63661216D01*
X196329658Y-63667487D01*
X196281344Y-63697287D01*
X196157289Y-63821342D01*
X196065187Y-63970663D01*
X196065186Y-63970666D01*
X196010001Y-64137203D01*
X196010001Y-64137204D01*
X196010000Y-64137204D01*
X195999500Y-64239983D01*
X195999500Y-65840001D01*
X195999501Y-65840018D01*
X196010000Y-65942796D01*
X196010001Y-65942799D01*
X196065185Y-66109331D01*
X196065186Y-66109334D01*
X196157288Y-66258656D01*
X196281344Y-66382712D01*
X196430666Y-66474814D01*
X196597203Y-66529999D01*
X196699991Y-66540500D01*
X198300008Y-66540499D01*
X198402797Y-66529999D01*
X198569334Y-66474814D01*
X198718656Y-66382712D01*
X198842712Y-66258656D01*
X198934814Y-66109334D01*
X198989999Y-65942797D01*
X199000500Y-65840009D01*
X199000499Y-64239992D01*
X198989999Y-64137203D01*
X198934814Y-63970666D01*
X198842712Y-63821344D01*
X198718656Y-63697288D01*
X198718655Y-63697287D01*
X198670342Y-63667487D01*
X198623618Y-63615539D01*
X198612397Y-63546576D01*
X198640241Y-63482494D01*
X198641381Y-63481249D01*
X198641348Y-63481221D01*
X198644511Y-63477516D01*
X198644511Y-63477515D01*
X198644517Y-63477510D01*
X198783343Y-63286433D01*
X198890568Y-63075992D01*
X198963553Y-62851368D01*
X198987137Y-62702464D01*
X199000500Y-62618097D01*
X199000500Y-62381902D01*
X198963553Y-62148631D01*
X198890566Y-61924003D01*
X198783342Y-61713566D01*
X198748933Y-61666206D01*
X198644517Y-61522490D01*
X198477510Y-61355483D01*
X198286433Y-61216657D01*
X198075996Y-61109433D01*
X197851368Y-61036446D01*
X197618097Y-60999500D01*
X197618092Y-60999500D01*
X197381908Y-60999500D01*
X197381903Y-60999500D01*
X197148631Y-61036446D01*
X196924003Y-61109433D01*
X196713566Y-61216657D01*
X196604550Y-61295862D01*
X196522490Y-61355483D01*
X196522488Y-61355485D01*
X196522487Y-61355485D01*
X196355485Y-61522487D01*
X196355485Y-61522488D01*
X196355483Y-61522490D01*
X196310530Y-61584362D01*
X196216657Y-61713566D01*
X196109433Y-61924003D01*
X196036446Y-62148631D01*
X195999500Y-62381902D01*
X188541205Y-62381902D01*
X188550005Y-62364632D01*
X188611413Y-62175636D01*
X188642500Y-61979361D01*
X188642500Y-61780639D01*
X188611413Y-61584364D01*
X188550005Y-61395368D01*
X188550005Y-61395367D01*
X188459786Y-61218305D01*
X188380686Y-61109433D01*
X188342981Y-61057536D01*
X188202464Y-60917019D01*
X188041694Y-60800213D01*
X187885218Y-60720484D01*
X187834423Y-60672510D01*
X187817628Y-60604689D01*
X187840165Y-60538554D01*
X187885218Y-60499515D01*
X188041694Y-60419787D01*
X188202464Y-60302981D01*
X188342981Y-60162464D01*
X188459787Y-60001694D01*
X188550005Y-59824632D01*
X188611413Y-59635636D01*
X188642500Y-59439361D01*
X188642500Y-59240639D01*
X188611413Y-59044364D01*
X188550005Y-58855368D01*
X188550005Y-58855367D01*
X188459786Y-58678305D01*
X188418026Y-58620827D01*
X188342981Y-58517536D01*
X188202464Y-58377019D01*
X188041694Y-58260213D01*
X187884667Y-58180203D01*
X187833872Y-58132229D01*
X187817077Y-58064408D01*
X187839614Y-57998273D01*
X187884669Y-57959234D01*
X188041422Y-57879364D01*
X188078716Y-57852268D01*
X187407448Y-57181000D01*
X187430160Y-57181000D01*
X187527061Y-57155036D01*
X187613940Y-57104876D01*
X187684876Y-57033940D01*
X187735036Y-56947061D01*
X187761000Y-56850160D01*
X187761000Y-56827447D01*
X188432268Y-57498715D01*
X188459362Y-57461425D01*
X188549542Y-57284437D01*
X188610924Y-57095523D01*
X188610924Y-57095520D01*
X188642000Y-56899321D01*
X188642000Y-56700678D01*
X188610924Y-56504479D01*
X188610924Y-56504476D01*
X188549542Y-56315562D01*
X188459358Y-56138567D01*
X188432268Y-56101283D01*
X187761000Y-56772551D01*
X187761000Y-56749840D01*
X187735036Y-56652939D01*
X187684876Y-56566060D01*
X187613940Y-56495124D01*
X187527061Y-56444964D01*
X187430160Y-56419000D01*
X187407447Y-56419000D01*
X188078716Y-55747731D01*
X188078715Y-55747730D01*
X188041432Y-55720641D01*
X187884668Y-55640765D01*
X187833872Y-55592790D01*
X187817077Y-55524969D01*
X187839615Y-55458834D01*
X187884667Y-55419796D01*
X188041694Y-55339787D01*
X188202464Y-55222981D01*
X188342981Y-55082464D01*
X188459787Y-54921694D01*
X188550005Y-54744632D01*
X188611413Y-54555636D01*
X188642500Y-54359361D01*
X188642500Y-54160639D01*
X188611413Y-53964364D01*
X188550005Y-53775368D01*
X188518293Y-53713129D01*
X188518292Y-53713125D01*
X188491214Y-53659983D01*
X196299500Y-53659983D01*
X196299500Y-55260001D01*
X196299501Y-55260018D01*
X196310000Y-55362796D01*
X196310001Y-55362799D01*
X196365185Y-55529331D01*
X196365187Y-55529336D01*
X196369045Y-55535590D01*
X196457288Y-55678656D01*
X196581344Y-55802712D01*
X196623102Y-55828468D01*
X196629656Y-55832511D01*
X196676381Y-55884459D01*
X196687604Y-55953421D01*
X196659760Y-56017504D01*
X196658615Y-56018759D01*
X196658647Y-56018786D01*
X196655485Y-56022487D01*
X196655483Y-56022490D01*
X196598237Y-56101282D01*
X196516657Y-56213566D01*
X196409433Y-56424003D01*
X196336446Y-56648631D01*
X196299500Y-56881902D01*
X196299500Y-57118097D01*
X196336446Y-57351368D01*
X196409433Y-57575996D01*
X196516657Y-57786433D01*
X196655483Y-57977510D01*
X196822490Y-58144517D01*
X197013567Y-58283343D01*
X197112991Y-58334002D01*
X197224003Y-58390566D01*
X197224005Y-58390566D01*
X197224008Y-58390568D01*
X197322121Y-58422447D01*
X197448631Y-58463553D01*
X197681903Y-58500500D01*
X197681908Y-58500500D01*
X197918097Y-58500500D01*
X198151368Y-58463553D01*
X198375992Y-58390568D01*
X198586433Y-58283343D01*
X198777510Y-58144517D01*
X198944517Y-57977510D01*
X199083343Y-57786433D01*
X199190568Y-57575992D01*
X199263553Y-57351368D01*
X199274123Y-57284632D01*
X199300500Y-57118097D01*
X199300500Y-56881902D01*
X199263553Y-56648631D01*
X199213675Y-56495124D01*
X199190568Y-56424008D01*
X199190566Y-56424005D01*
X199190566Y-56424003D01*
X199083342Y-56213566D01*
X198944517Y-56022490D01*
X198944508Y-56022481D01*
X198941353Y-56018786D01*
X198943134Y-56017264D01*
X198914273Y-55964408D01*
X198919257Y-55894716D01*
X198961129Y-55838783D01*
X198970334Y-55832516D01*
X199018656Y-55802712D01*
X199142712Y-55678656D01*
X199234814Y-55529334D01*
X199289999Y-55362797D01*
X199300500Y-55260009D01*
X199300499Y-53659992D01*
X199289999Y-53557203D01*
X199234814Y-53390666D01*
X199142712Y-53241344D01*
X199018656Y-53117288D01*
X198869334Y-53025186D01*
X198702797Y-52970001D01*
X198702795Y-52970000D01*
X198600010Y-52959500D01*
X196999998Y-52959500D01*
X196999981Y-52959501D01*
X196897203Y-52970000D01*
X196897200Y-52970001D01*
X196730668Y-53025185D01*
X196730663Y-53025187D01*
X196581342Y-53117289D01*
X196457289Y-53241342D01*
X196365187Y-53390663D01*
X196365186Y-53390666D01*
X196310001Y-53557203D01*
X196310001Y-53557204D01*
X196310000Y-53557204D01*
X196299500Y-53659983D01*
X188491214Y-53659983D01*
X188459790Y-53598310D01*
X188391508Y-53504328D01*
X188342981Y-53437536D01*
X188202464Y-53297019D01*
X188041694Y-53180213D01*
X187885218Y-53100484D01*
X187834423Y-53052510D01*
X187817628Y-52984689D01*
X187840165Y-52918554D01*
X187885218Y-52879515D01*
X188041694Y-52799787D01*
X188202464Y-52682981D01*
X188342981Y-52542464D01*
X188446023Y-52400639D01*
X206171500Y-52400639D01*
X206171500Y-52599360D01*
X206202587Y-52795637D01*
X206263993Y-52984629D01*
X206263994Y-52984632D01*
X206317680Y-53089995D01*
X206354213Y-53161694D01*
X206471019Y-53322464D01*
X206611536Y-53462981D01*
X206772306Y-53579787D01*
X206850333Y-53619544D01*
X206949367Y-53670005D01*
X206949370Y-53670006D01*
X207043866Y-53700709D01*
X207138364Y-53731413D01*
X207334639Y-53762500D01*
X207334640Y-53762500D01*
X207533360Y-53762500D01*
X207533361Y-53762500D01*
X207729636Y-53731413D01*
X207918632Y-53670005D01*
X208095694Y-53579787D01*
X208256464Y-53462981D01*
X208396981Y-53322464D01*
X208487183Y-53198311D01*
X208542511Y-53155646D01*
X208612125Y-53149667D01*
X208673920Y-53182272D01*
X208708277Y-53243111D01*
X208711500Y-53271194D01*
X208711500Y-53309868D01*
X208711501Y-53309876D01*
X208717908Y-53369483D01*
X208768202Y-53504328D01*
X208768206Y-53504335D01*
X208854452Y-53619544D01*
X208854455Y-53619547D01*
X208969664Y-53705793D01*
X208969671Y-53705797D01*
X209104517Y-53756091D01*
X209104516Y-53756091D01*
X209111444Y-53756835D01*
X209164127Y-53762500D01*
X210783872Y-53762499D01*
X210843483Y-53756091D01*
X210978331Y-53705796D01*
X211093546Y-53619546D01*
X211179796Y-53504331D01*
X211230091Y-53369483D01*
X211236500Y-53309873D01*
X211236499Y-51690128D01*
X211230091Y-51630517D01*
X211195219Y-51537021D01*
X211179797Y-51495671D01*
X211179793Y-51495664D01*
X211093547Y-51380455D01*
X211093544Y-51380452D01*
X210978335Y-51294206D01*
X210978328Y-51294202D01*
X210843482Y-51243908D01*
X210843483Y-51243908D01*
X210783883Y-51237501D01*
X210783881Y-51237500D01*
X210783873Y-51237500D01*
X210783864Y-51237500D01*
X209164129Y-51237500D01*
X209164123Y-51237501D01*
X209104516Y-51243908D01*
X208969671Y-51294202D01*
X208969664Y-51294206D01*
X208854455Y-51380452D01*
X208854452Y-51380455D01*
X208768206Y-51495664D01*
X208768202Y-51495671D01*
X208717908Y-51630517D01*
X208712713Y-51678842D01*
X208711501Y-51690123D01*
X208711500Y-51690135D01*
X208711500Y-51728801D01*
X208691815Y-51795840D01*
X208639011Y-51841595D01*
X208569853Y-51851539D01*
X208506297Y-51822514D01*
X208487182Y-51801687D01*
X208476596Y-51787117D01*
X208396981Y-51677536D01*
X208256464Y-51537019D01*
X208095694Y-51420213D01*
X207918632Y-51329994D01*
X207918629Y-51329993D01*
X207729637Y-51268587D01*
X207631498Y-51253043D01*
X207533361Y-51237500D01*
X207334639Y-51237500D01*
X207269214Y-51247862D01*
X207138362Y-51268587D01*
X206949370Y-51329993D01*
X206949367Y-51329994D01*
X206772305Y-51420213D01*
X206611533Y-51537021D01*
X206471021Y-51677533D01*
X206354213Y-51838305D01*
X206263994Y-52015367D01*
X206263993Y-52015370D01*
X206202587Y-52204362D01*
X206171500Y-52400639D01*
X188446023Y-52400639D01*
X188459787Y-52381694D01*
X188550005Y-52204632D01*
X188611413Y-52015636D01*
X188642500Y-51819361D01*
X188642500Y-51620639D01*
X188611413Y-51424364D01*
X188580709Y-51329866D01*
X188550006Y-51235370D01*
X188550005Y-51235367D01*
X188504035Y-51145149D01*
X188459787Y-51058306D01*
X188342981Y-50897536D01*
X188202464Y-50757019D01*
X188041694Y-50640213D01*
X187864632Y-50549994D01*
X187864629Y-50549993D01*
X187675637Y-50488587D01*
X187577498Y-50473043D01*
X187479361Y-50457500D01*
X187280639Y-50457500D01*
X187215214Y-50467862D01*
X187084362Y-50488587D01*
X186895370Y-50549993D01*
X186895367Y-50549994D01*
X186718305Y-50640213D01*
X186557533Y-50757021D01*
X186417021Y-50897533D01*
X186300213Y-51058305D01*
X186209994Y-51235367D01*
X186209993Y-51235370D01*
X186148587Y-51424362D01*
X186148587Y-51424364D01*
X186117500Y-51620639D01*
X173642500Y-51620639D01*
X173611413Y-51424364D01*
X173580709Y-51329866D01*
X173550006Y-51235370D01*
X173550005Y-51235367D01*
X173504035Y-51145149D01*
X173459787Y-51058306D01*
X173342981Y-50897536D01*
X173202464Y-50757019D01*
X173041694Y-50640213D01*
X172864632Y-50549994D01*
X172864629Y-50549993D01*
X172675637Y-50488587D01*
X172577498Y-50473043D01*
X172479361Y-50457500D01*
X172280639Y-50457500D01*
X172215214Y-50467862D01*
X172084362Y-50488587D01*
X171895370Y-50549993D01*
X171895367Y-50549994D01*
X171718305Y-50640213D01*
X171557533Y-50757021D01*
X171417021Y-50897533D01*
X171300213Y-51058305D01*
X171209994Y-51235367D01*
X171209993Y-51235370D01*
X171148587Y-51424362D01*
X171148587Y-51424364D01*
X171117500Y-51620639D01*
X140000500Y-51620639D01*
X140000500Y-49921153D01*
X190199500Y-49921153D01*
X190199500Y-50078846D01*
X190230261Y-50233489D01*
X190230264Y-50233501D01*
X190290602Y-50379172D01*
X190290609Y-50379185D01*
X190378602Y-50510874D01*
X190399480Y-50577551D01*
X190399500Y-50579765D01*
X190399500Y-51020234D01*
X190379815Y-51087273D01*
X190378602Y-51089125D01*
X190290609Y-51220814D01*
X190290602Y-51220827D01*
X190230264Y-51366498D01*
X190230261Y-51366510D01*
X190199500Y-51521153D01*
X190199500Y-51678846D01*
X190230261Y-51833489D01*
X190230264Y-51833501D01*
X190290602Y-51979172D01*
X190290609Y-51979185D01*
X190378210Y-52110288D01*
X190378213Y-52110292D01*
X190489707Y-52221786D01*
X190489711Y-52221789D01*
X190620814Y-52309390D01*
X190620827Y-52309397D01*
X190766498Y-52369735D01*
X190766503Y-52369737D01*
X190921153Y-52400499D01*
X190921156Y-52400500D01*
X190921158Y-52400500D01*
X191078844Y-52400500D01*
X191078845Y-52400499D01*
X191233497Y-52369737D01*
X191379179Y-52309394D01*
X191388589Y-52303106D01*
X191404218Y-52292664D01*
X191404218Y-52292663D01*
X191510289Y-52221789D01*
X191621789Y-52110289D01*
X191709394Y-51979179D01*
X191769737Y-51833497D01*
X191800500Y-51678842D01*
X191800500Y-51521158D01*
X191800500Y-51521155D01*
X191800499Y-51521153D01*
X191781246Y-51424362D01*
X191769737Y-51366503D01*
X191739789Y-51294202D01*
X191709397Y-51220827D01*
X191709390Y-51220814D01*
X191621398Y-51089125D01*
X191600520Y-51022447D01*
X191600500Y-51020234D01*
X191600500Y-50579765D01*
X191620185Y-50512726D01*
X191621398Y-50510874D01*
X191657062Y-50457500D01*
X191709394Y-50379179D01*
X191769737Y-50233497D01*
X191800500Y-50078842D01*
X191800500Y-49921158D01*
X191800500Y-49921155D01*
X191800499Y-49921153D01*
X191769738Y-49766510D01*
X191769737Y-49766503D01*
X191769735Y-49766498D01*
X191709397Y-49620827D01*
X191709390Y-49620814D01*
X191621789Y-49489711D01*
X191621786Y-49489707D01*
X191510292Y-49378213D01*
X191510288Y-49378210D01*
X191379185Y-49290609D01*
X191379172Y-49290602D01*
X191233501Y-49230264D01*
X191233489Y-49230261D01*
X191078845Y-49199500D01*
X191078842Y-49199500D01*
X190921158Y-49199500D01*
X190921155Y-49199500D01*
X190766510Y-49230261D01*
X190766498Y-49230264D01*
X190620827Y-49290602D01*
X190620814Y-49290609D01*
X190489711Y-49378210D01*
X190489707Y-49378213D01*
X190378213Y-49489707D01*
X190378210Y-49489711D01*
X190290609Y-49620814D01*
X190290602Y-49620827D01*
X190230264Y-49766498D01*
X190230261Y-49766510D01*
X190199500Y-49921153D01*
X140000500Y-49921153D01*
X140000500Y-44602135D01*
X189649500Y-44602135D01*
X189649500Y-46397870D01*
X189649501Y-46397876D01*
X189655908Y-46457483D01*
X189706202Y-46592328D01*
X189706206Y-46592335D01*
X189792452Y-46707544D01*
X189792455Y-46707547D01*
X189907664Y-46793793D01*
X189907671Y-46793797D01*
X190042517Y-46844091D01*
X190042516Y-46844091D01*
X190049444Y-46844835D01*
X190102127Y-46850500D01*
X191897872Y-46850499D01*
X191957483Y-46844091D01*
X192092331Y-46793796D01*
X192207546Y-46707546D01*
X192293796Y-46592331D01*
X192342810Y-46460916D01*
X192384681Y-46404984D01*
X192450145Y-46380566D01*
X192518418Y-46395417D01*
X192546673Y-46416569D01*
X192660213Y-46530109D01*
X192832179Y-46655048D01*
X192832181Y-46655049D01*
X192832184Y-46655051D01*
X193021588Y-46751557D01*
X193223757Y-46817246D01*
X193433713Y-46850500D01*
X193433714Y-46850500D01*
X193646286Y-46850500D01*
X193646287Y-46850500D01*
X193856243Y-46817246D01*
X194058412Y-46751557D01*
X194247816Y-46655051D01*
X194334138Y-46592335D01*
X194419786Y-46530109D01*
X194419788Y-46530106D01*
X194419792Y-46530104D01*
X194570104Y-46379792D01*
X194570106Y-46379788D01*
X194570109Y-46379786D01*
X194695048Y-46207820D01*
X194695047Y-46207820D01*
X194695051Y-46207816D01*
X194699514Y-46199054D01*
X194747488Y-46148259D01*
X194815308Y-46131463D01*
X194881444Y-46153999D01*
X194920486Y-46199056D01*
X194924951Y-46207820D01*
X195049890Y-46379786D01*
X195200213Y-46530109D01*
X195372179Y-46655048D01*
X195372181Y-46655049D01*
X195372184Y-46655051D01*
X195561588Y-46751557D01*
X195763757Y-46817246D01*
X195973713Y-46850500D01*
X195973714Y-46850500D01*
X196186286Y-46850500D01*
X196186287Y-46850500D01*
X196396243Y-46817246D01*
X196598412Y-46751557D01*
X196787816Y-46655051D01*
X196874138Y-46592335D01*
X196959786Y-46530109D01*
X196959788Y-46530106D01*
X196959792Y-46530104D01*
X197110104Y-46379792D01*
X197110106Y-46379788D01*
X197110109Y-46379786D01*
X197235048Y-46207820D01*
X197235047Y-46207820D01*
X197235051Y-46207816D01*
X197239514Y-46199054D01*
X197287488Y-46148259D01*
X197355308Y-46131463D01*
X197421444Y-46153999D01*
X197460486Y-46199056D01*
X197464951Y-46207820D01*
X197589890Y-46379786D01*
X197740213Y-46530109D01*
X197912179Y-46655048D01*
X197912181Y-46655049D01*
X197912184Y-46655051D01*
X198101588Y-46751557D01*
X198303757Y-46817246D01*
X198513713Y-46850500D01*
X198513714Y-46850500D01*
X198726286Y-46850500D01*
X198726287Y-46850500D01*
X198936243Y-46817246D01*
X199138412Y-46751557D01*
X199327816Y-46655051D01*
X199414138Y-46592335D01*
X199499786Y-46530109D01*
X199499788Y-46530106D01*
X199499792Y-46530104D01*
X199650104Y-46379792D01*
X199650106Y-46379788D01*
X199650109Y-46379786D01*
X199775048Y-46207820D01*
X199775047Y-46207820D01*
X199775051Y-46207816D01*
X199871557Y-46018412D01*
X199937246Y-45816243D01*
X199970500Y-45606287D01*
X199970500Y-45393713D01*
X199937246Y-45183757D01*
X199871557Y-44981588D01*
X199775051Y-44792184D01*
X199775049Y-44792181D01*
X199775048Y-44792179D01*
X199687542Y-44671736D01*
X199650109Y-44620214D01*
X199650105Y-44620209D01*
X199632051Y-44602155D01*
X201610000Y-44602155D01*
X201610000Y-45250000D01*
X202526988Y-45250000D01*
X202494075Y-45307007D01*
X202460000Y-45434174D01*
X202460000Y-45565826D01*
X202494075Y-45692993D01*
X202526988Y-45750000D01*
X201610000Y-45750000D01*
X201610000Y-46397844D01*
X201616401Y-46457372D01*
X201616403Y-46457379D01*
X201666645Y-46592086D01*
X201666649Y-46592093D01*
X201752809Y-46707187D01*
X201752812Y-46707190D01*
X201867906Y-46793350D01*
X201867913Y-46793354D01*
X202002620Y-46843596D01*
X202002627Y-46843598D01*
X202062155Y-46849999D01*
X202062172Y-46850000D01*
X202710000Y-46850000D01*
X202710000Y-45933012D01*
X202767007Y-45965925D01*
X202894174Y-46000000D01*
X203025826Y-46000000D01*
X203152993Y-45965925D01*
X203210000Y-45933012D01*
X203210000Y-46850000D01*
X203857828Y-46850000D01*
X203857844Y-46849999D01*
X203917372Y-46843598D01*
X203917379Y-46843596D01*
X204052086Y-46793354D01*
X204052093Y-46793350D01*
X204167187Y-46707190D01*
X204167190Y-46707187D01*
X204253350Y-46592093D01*
X204253354Y-46592086D01*
X204275529Y-46532632D01*
X204314319Y-46359390D01*
X204314682Y-46358734D01*
X204314642Y-46357984D01*
X204347642Y-46298802D01*
X205017037Y-45629408D01*
X205034075Y-45692993D01*
X205099901Y-45807007D01*
X205192993Y-45900099D01*
X205307007Y-45965925D01*
X205370590Y-45982962D01*
X204738282Y-46615269D01*
X204738282Y-46615270D01*
X204792449Y-46654624D01*
X204981782Y-46751095D01*
X205183870Y-46816757D01*
X205393754Y-46850000D01*
X205606246Y-46850000D01*
X205816127Y-46816757D01*
X205816130Y-46816757D01*
X206018217Y-46751095D01*
X206207554Y-46654622D01*
X206261716Y-46615270D01*
X206261717Y-46615270D01*
X205629408Y-45982962D01*
X205692993Y-45965925D01*
X205807007Y-45900099D01*
X205900099Y-45807007D01*
X205965925Y-45692993D01*
X205982962Y-45629409D01*
X206615270Y-46261717D01*
X206615270Y-46261716D01*
X206654622Y-46207554D01*
X206659514Y-46197954D01*
X206707488Y-46147157D01*
X206775308Y-46130361D01*
X206841444Y-46152897D01*
X206880486Y-46197954D01*
X206885375Y-46207550D01*
X206924728Y-46261716D01*
X207557037Y-45629408D01*
X207574075Y-45692993D01*
X207639901Y-45807007D01*
X207732993Y-45900099D01*
X207847007Y-45965925D01*
X207910590Y-45982962D01*
X207278282Y-46615269D01*
X207278282Y-46615270D01*
X207332449Y-46654624D01*
X207521782Y-46751095D01*
X207723870Y-46816757D01*
X207933754Y-46850000D01*
X208146246Y-46850000D01*
X208356127Y-46816757D01*
X208356130Y-46816757D01*
X208558217Y-46751095D01*
X208747554Y-46654622D01*
X208801716Y-46615270D01*
X208801717Y-46615270D01*
X208169408Y-45982962D01*
X208232993Y-45965925D01*
X208347007Y-45900099D01*
X208440099Y-45807007D01*
X208505925Y-45692993D01*
X208522962Y-45629408D01*
X209155270Y-46261717D01*
X209155270Y-46261716D01*
X209194622Y-46207554D01*
X209199514Y-46197954D01*
X209247488Y-46147157D01*
X209315308Y-46130361D01*
X209381444Y-46152897D01*
X209420486Y-46197954D01*
X209425375Y-46207550D01*
X209464728Y-46261716D01*
X210097037Y-45629408D01*
X210114075Y-45692993D01*
X210179901Y-45807007D01*
X210272993Y-45900099D01*
X210387007Y-45965925D01*
X210450590Y-45982962D01*
X209818282Y-46615269D01*
X209818282Y-46615270D01*
X209872449Y-46654624D01*
X210061782Y-46751095D01*
X210263870Y-46816757D01*
X210473754Y-46850000D01*
X210686246Y-46850000D01*
X210896127Y-46816757D01*
X210896130Y-46816757D01*
X211098217Y-46751095D01*
X211287554Y-46654622D01*
X211341716Y-46615270D01*
X211341717Y-46615270D01*
X210709408Y-45982962D01*
X210772993Y-45965925D01*
X210887007Y-45900099D01*
X210980099Y-45807007D01*
X211045925Y-45692993D01*
X211062962Y-45629408D01*
X211695270Y-46261717D01*
X211695270Y-46261716D01*
X211734622Y-46207554D01*
X211831095Y-46018217D01*
X211896757Y-45816130D01*
X211896757Y-45816127D01*
X211930000Y-45606246D01*
X211930000Y-45393753D01*
X211896757Y-45183872D01*
X211896757Y-45183869D01*
X211831095Y-44981782D01*
X211734624Y-44792449D01*
X211695270Y-44738282D01*
X211695269Y-44738282D01*
X211062962Y-45370590D01*
X211045925Y-45307007D01*
X210980099Y-45192993D01*
X210887007Y-45099901D01*
X210772993Y-45034075D01*
X210709409Y-45017037D01*
X211341716Y-44384728D01*
X211287550Y-44345375D01*
X211098217Y-44248904D01*
X210896129Y-44183242D01*
X210686246Y-44150000D01*
X210473754Y-44150000D01*
X210263872Y-44183242D01*
X210263869Y-44183242D01*
X210061782Y-44248904D01*
X209872439Y-44345380D01*
X209818282Y-44384727D01*
X209818282Y-44384728D01*
X210450591Y-45017037D01*
X210387007Y-45034075D01*
X210272993Y-45099901D01*
X210179901Y-45192993D01*
X210114075Y-45307007D01*
X210097037Y-45370591D01*
X209464728Y-44738282D01*
X209464727Y-44738282D01*
X209425380Y-44792440D01*
X209420483Y-44802051D01*
X209372506Y-44852845D01*
X209304684Y-44869638D01*
X209238550Y-44847098D01*
X209199516Y-44802048D01*
X209194626Y-44792452D01*
X209155270Y-44738282D01*
X209155269Y-44738282D01*
X208522962Y-45370590D01*
X208505925Y-45307007D01*
X208440099Y-45192993D01*
X208347007Y-45099901D01*
X208232993Y-45034075D01*
X208169409Y-45017037D01*
X208801716Y-44384728D01*
X208747550Y-44345375D01*
X208558217Y-44248904D01*
X208356129Y-44183242D01*
X208146246Y-44150000D01*
X207933754Y-44150000D01*
X207723872Y-44183242D01*
X207723869Y-44183242D01*
X207521782Y-44248904D01*
X207332439Y-44345380D01*
X207278282Y-44384727D01*
X207278282Y-44384728D01*
X207910591Y-45017037D01*
X207847007Y-45034075D01*
X207732993Y-45099901D01*
X207639901Y-45192993D01*
X207574075Y-45307007D01*
X207557037Y-45370591D01*
X206924728Y-44738282D01*
X206924727Y-44738282D01*
X206885380Y-44792440D01*
X206880483Y-44802051D01*
X206832506Y-44852845D01*
X206764684Y-44869638D01*
X206698550Y-44847098D01*
X206659516Y-44802048D01*
X206654626Y-44792452D01*
X206615270Y-44738282D01*
X206615269Y-44738282D01*
X205982962Y-45370590D01*
X205965925Y-45307007D01*
X205900099Y-45192993D01*
X205807007Y-45099901D01*
X205692993Y-45034075D01*
X205629409Y-45017037D01*
X206261716Y-44384728D01*
X206207550Y-44345375D01*
X206018217Y-44248904D01*
X205816129Y-44183242D01*
X205606246Y-44150000D01*
X205393754Y-44150000D01*
X205183872Y-44183242D01*
X205183869Y-44183242D01*
X204981782Y-44248904D01*
X204792439Y-44345380D01*
X204738282Y-44384727D01*
X204738282Y-44384728D01*
X205370591Y-45017037D01*
X205307007Y-45034075D01*
X205192993Y-45099901D01*
X205099901Y-45192993D01*
X205034075Y-45307007D01*
X205017037Y-45370591D01*
X204347642Y-44701196D01*
X204314319Y-44640609D01*
X204275527Y-44467364D01*
X204253354Y-44407913D01*
X204253350Y-44407906D01*
X204167190Y-44292812D01*
X204167187Y-44292809D01*
X204052093Y-44206649D01*
X204052086Y-44206645D01*
X203917379Y-44156403D01*
X203917372Y-44156401D01*
X203857844Y-44150000D01*
X203210000Y-44150000D01*
X203210000Y-45066988D01*
X203152993Y-45034075D01*
X203025826Y-45000000D01*
X202894174Y-45000000D01*
X202767007Y-45034075D01*
X202710000Y-45066988D01*
X202710000Y-44150000D01*
X202062155Y-44150000D01*
X202002627Y-44156401D01*
X202002620Y-44156403D01*
X201867913Y-44206645D01*
X201867906Y-44206649D01*
X201752812Y-44292809D01*
X201752809Y-44292812D01*
X201666649Y-44407906D01*
X201666645Y-44407913D01*
X201616403Y-44542620D01*
X201616401Y-44542627D01*
X201610000Y-44602155D01*
X199632051Y-44602155D01*
X199499786Y-44469890D01*
X199327820Y-44344951D01*
X199138414Y-44248444D01*
X199138413Y-44248443D01*
X199138412Y-44248443D01*
X198936243Y-44182754D01*
X198936241Y-44182753D01*
X198936240Y-44182753D01*
X198774957Y-44157208D01*
X198726287Y-44149500D01*
X198513713Y-44149500D01*
X198465042Y-44157208D01*
X198303760Y-44182753D01*
X198101585Y-44248444D01*
X197912179Y-44344951D01*
X197740213Y-44469890D01*
X197589890Y-44620213D01*
X197464949Y-44792182D01*
X197460484Y-44800946D01*
X197412509Y-44851742D01*
X197344688Y-44868536D01*
X197278553Y-44845998D01*
X197239516Y-44800946D01*
X197235050Y-44792182D01*
X197110109Y-44620213D01*
X196959786Y-44469890D01*
X196787820Y-44344951D01*
X196598414Y-44248444D01*
X196598413Y-44248443D01*
X196598412Y-44248443D01*
X196396243Y-44182754D01*
X196396241Y-44182753D01*
X196396240Y-44182753D01*
X196234957Y-44157208D01*
X196186287Y-44149500D01*
X195973713Y-44149500D01*
X195925042Y-44157208D01*
X195763760Y-44182753D01*
X195561585Y-44248444D01*
X195372179Y-44344951D01*
X195200213Y-44469890D01*
X195049890Y-44620213D01*
X194924949Y-44792182D01*
X194920484Y-44800946D01*
X194872509Y-44851742D01*
X194804688Y-44868536D01*
X194738553Y-44845998D01*
X194699516Y-44800946D01*
X194695050Y-44792182D01*
X194570109Y-44620213D01*
X194419786Y-44469890D01*
X194247820Y-44344951D01*
X194058414Y-44248444D01*
X194058413Y-44248443D01*
X194058412Y-44248443D01*
X193856243Y-44182754D01*
X193856241Y-44182753D01*
X193856240Y-44182753D01*
X193694957Y-44157208D01*
X193646287Y-44149500D01*
X193433713Y-44149500D01*
X193385042Y-44157208D01*
X193223760Y-44182753D01*
X193021585Y-44248444D01*
X192832179Y-44344951D01*
X192660215Y-44469889D01*
X192546673Y-44583431D01*
X192485350Y-44616915D01*
X192415658Y-44611931D01*
X192359725Y-44570059D01*
X192342810Y-44539082D01*
X192293797Y-44407671D01*
X192293793Y-44407664D01*
X192207547Y-44292455D01*
X192207544Y-44292452D01*
X192092335Y-44206206D01*
X192092328Y-44206202D01*
X191957482Y-44155908D01*
X191957483Y-44155908D01*
X191897883Y-44149501D01*
X191897881Y-44149500D01*
X191897873Y-44149500D01*
X191897864Y-44149500D01*
X190102129Y-44149500D01*
X190102123Y-44149501D01*
X190042516Y-44155908D01*
X189907671Y-44206202D01*
X189907664Y-44206206D01*
X189792455Y-44292452D01*
X189792452Y-44292455D01*
X189706206Y-44407664D01*
X189706202Y-44407671D01*
X189655908Y-44542517D01*
X189649501Y-44602116D01*
X189649500Y-44602135D01*
X140000500Y-44602135D01*
X140000500Y-41152515D01*
X140020185Y-41085476D01*
X140072989Y-41039721D01*
X140142147Y-41029777D01*
X140205703Y-41058802D01*
X140227602Y-41083625D01*
X140380990Y-41313188D01*
X140381007Y-41313211D01*
X140622760Y-41607787D01*
X140892212Y-41877239D01*
X140892217Y-41877243D01*
X140892218Y-41877244D01*
X141186794Y-42118997D01*
X141503648Y-42330712D01*
X141503657Y-42330717D01*
X141503659Y-42330718D01*
X141839720Y-42510346D01*
X141839722Y-42510346D01*
X141839728Y-42510350D01*
X142191797Y-42656182D01*
X142556465Y-42766803D01*
X142556471Y-42766804D01*
X142556474Y-42766805D01*
X142556485Y-42766808D01*
X142790845Y-42813423D01*
X142930220Y-42841147D01*
X143309462Y-42878500D01*
X143309465Y-42878500D01*
X143690535Y-42878500D01*
X143690538Y-42878500D01*
X144069780Y-42841147D01*
X144254776Y-42804349D01*
X144443514Y-42766808D01*
X144443525Y-42766805D01*
X144443525Y-42766804D01*
X144443535Y-42766803D01*
X144808203Y-42656182D01*
X145160272Y-42510350D01*
X145496352Y-42330712D01*
X145813206Y-42118997D01*
X146107782Y-41877244D01*
X146377244Y-41607782D01*
X146618997Y-41313206D01*
X146830712Y-40996352D01*
X147010350Y-40660272D01*
X147156182Y-40308203D01*
X147266803Y-39943535D01*
X147266805Y-39943525D01*
X147266808Y-39943514D01*
X147304349Y-39754776D01*
X147341147Y-39569780D01*
X147378500Y-39190538D01*
X147378500Y-38809462D01*
X147341147Y-38430220D01*
X147313423Y-38290845D01*
X147266808Y-38056485D01*
X147266805Y-38056474D01*
X147266804Y-38056471D01*
X147266803Y-38056465D01*
X147156182Y-37691797D01*
X147010350Y-37339728D01*
X146830712Y-37003648D01*
X146618997Y-36686794D01*
X146377244Y-36392218D01*
X146377243Y-36392217D01*
X146377239Y-36392212D01*
X146107787Y-36122760D01*
X145813211Y-35881007D01*
X145813210Y-35881006D01*
X145813206Y-35881003D01*
X145583624Y-35727601D01*
X145538820Y-35673990D01*
X145530113Y-35604665D01*
X145560267Y-35541638D01*
X145619710Y-35504918D01*
X145652516Y-35500500D01*
X234847484Y-35500500D01*
X234914523Y-35520185D01*
G37*
%TD.AperFunction*%
%TD*%
M02*
