M48
; DRILL file {KiCad 9.0.7} date 2026-02-24T02:56:21-0500
; FORMAT={-:-/ absolute / metric / decimal}
; #@! TF.CreationDate,2026-02-24T02:56:21-05:00
; #@! TF.GenerationSoftware,Kicad,Pcbnew,9.0.7
; #@! TF.FileFunction,Plated,1,2,PTH
FMAT,2
METRIC
; #@! TA.AperFunction,Plated,PTH,ViaDrill
T1C0.300
; #@! TA.AperFunction,Plated,PTH,ComponentDrill
T2C0.700
; #@! TA.AperFunction,Plated,PTH,ComponentDrill
T3C0.762
; #@! TA.AperFunction,Plated,PTH,ComponentDrill
T4C0.800
; #@! TA.AperFunction,Plated,PTH,ComponentDrill
T5C0.900
; #@! TA.AperFunction,Plated,PTH,ComponentDrill
T6C1.000
; #@! TA.AperFunction,Plated,PTH,ComponentDrill
T7C1.400
; #@! TA.AperFunction,Plated,PTH,ComponentDrill
T8C1.500
%
G90
G05
T1
X165.4Y-63.0
X165.5Y-78.8
X166.0Y-66.36
X166.0Y-67.56
X166.5Y-77.5
X166.6Y-63.0
X168.5Y-66.36
X168.5Y-67.56
X169.47Y-51.97
X169.5Y-59.0
X170.0Y-84.0
X170.0Y-91.5
X191.0Y-49.5
X191.0Y-52.5
T2
X213.0Y-86.5
X213.0Y-91.58
X217.42Y-75.5
X222.5Y-75.5
T3
X172.38Y-51.72
X172.38Y-54.26
X172.38Y-56.8
X172.38Y-59.34
X172.38Y-61.88
X172.38Y-64.42
X172.38Y-66.96
X172.38Y-69.5
X172.5Y-75.5
X172.5Y-78.04
X172.5Y-80.58
X172.5Y-83.12
X172.5Y-85.66
X172.5Y-88.2
X172.5Y-90.74
X172.5Y-93.28
X187.38Y-51.72
X187.38Y-54.26
X187.38Y-56.8
X187.38Y-59.34
X187.38Y-61.88
X187.38Y-64.42
X187.38Y-66.96
X187.38Y-69.5
X187.5Y-75.5
X187.5Y-78.04
X187.5Y-80.58
X187.5Y-83.12
X187.5Y-85.66
X187.5Y-88.2
X187.5Y-90.74
X187.5Y-93.28
X207.434Y-52.5
X207.46Y-68.5
X209.974Y-52.5
X210.0Y-68.5
T4
X206.9Y-75.5
X208.9Y-75.5
X210.9Y-75.5
T5
X213.0Y-80.5
X213.0Y-83.04
T6
X156.0Y-62.96
X156.0Y-65.5
X156.0Y-68.04
X156.0Y-70.58
X156.0Y-73.12
X156.0Y-75.66
X156.0Y-78.2
X156.0Y-80.74
X191.0Y-45.5
X193.54Y-45.5
X196.08Y-45.5
X198.62Y-45.5
X202.96Y-45.5
X205.5Y-45.5
X208.04Y-45.5
X210.58Y-45.5
T7
X196.5Y-53.0
X196.5Y-56.5
X196.5Y-77.0
X196.5Y-80.5
X197.5Y-63.0
X197.5Y-66.5
X197.5Y-87.0
X197.5Y-90.5
T8
X204.8Y-75.5
X213.0Y-75.5
M30
