%TF.GenerationSoftware,KiCad,Pcbnew,9.0.7*%
%TF.CreationDate,2026-02-24T22:46:11-05:00*%
%TF.ProjectId,Training_Robot,54726169-6e69-46e6-975f-526f626f742e,rev?*%
%TF.SameCoordinates,Original*%
%TF.FileFunction,Copper,L2,Bot*%
%TF.FilePolarity,Positive*%
%FSLAX46Y46*%
G04 Gerber Fmt 4.6, Leading zero omitted, Abs format (unit mm)*
G04 Created by KiCad (PCBNEW 9.0.7) date 2026-02-24 22:46:11*
%MOMM*%
%LPD*%
G01*
G04 APERTURE LIST*
%TA.AperFunction,ComponentPad*%
%ADD10C,2.100000*%
%TD*%
%TA.AperFunction,ComponentPad*%
%ADD11R,2.100000X2.100000*%
%TD*%
%TA.AperFunction,ComponentPad*%
%ADD12O,1.500000X2.500000*%
%TD*%
%TA.AperFunction,ComponentPad*%
%ADD13R,1.500000X2.500000*%
%TD*%
%TA.AperFunction,ComponentPad*%
%ADD14O,2.200000X3.500000*%
%TD*%
%TA.AperFunction,ComponentPad*%
%ADD15C,1.700000*%
%TD*%
%TA.AperFunction,ComponentPad*%
%ADD16R,1.700000X1.700000*%
%TD*%
%TA.AperFunction,ComponentPad*%
%ADD17C,1.524000*%
%TD*%
%TA.AperFunction,ComponentPad*%
%ADD18R,1.524000X1.524000*%
%TD*%
%TA.AperFunction,ComponentPad*%
%ADD19C,1.400000*%
%TD*%
%TA.AperFunction,ComponentPad*%
%ADD20C,1.800000*%
%TD*%
%TA.AperFunction,ComponentPad*%
%ADD21R,1.800000X1.800000*%
%TD*%
%TA.AperFunction,ViaPad*%
%ADD22C,0.600000*%
%TD*%
%TA.AperFunction,Conductor*%
%ADD23C,0.500000*%
%TD*%
%TA.AperFunction,Conductor*%
%ADD24C,0.200000*%
%TD*%
G04 APERTURE END LIST*
D10*
%TO.P,M3,2,-*%
%TO.N,/BL-*%
X195500000Y-92000000D03*
D11*
%TO.P,M3,1,+*%
%TO.N,/BL+*%
X195500000Y-95500000D03*
%TD*%
D10*
%TO.P,M1,2,-*%
%TO.N,/FL-*%
X194500000Y-85500000D03*
D11*
%TO.P,M1,1,+*%
%TO.N,/FL+*%
X194500000Y-82000000D03*
%TD*%
%TO.P,M2,1,+*%
%TO.N,/FR+*%
X194500000Y-58000000D03*
D10*
%TO.P,M2,2,-*%
%TO.N,/FR-*%
X194500000Y-61500000D03*
%TD*%
%TO.P,M4,2,-*%
%TO.N,/BR-*%
X195500000Y-68000000D03*
D11*
%TO.P,M4,1,+*%
%TO.N,/BR+*%
X195500000Y-71500000D03*
%TD*%
D12*
%TO.P,SW1,3,A*%
%TO.N,GND*%
X204900000Y-80500000D03*
%TO.P,SW1,2,C*%
%TO.N,+3V3*%
X206900000Y-80500000D03*
D13*
%TO.P,SW1,1,B*%
%TO.N,Net-(D1-A)*%
X208900000Y-80500000D03*
D14*
%TO.P,SW1,*%
%TO.N,*%
X202800000Y-80500000D03*
X211000000Y-80500000D03*
%TD*%
D15*
%TO.P,J5,4,Pin_4*%
%TO.N,GND*%
X208580000Y-47500000D03*
%TO.P,J5,3,Pin_3*%
X206040000Y-47500000D03*
%TO.P,J5,2,Pin_2*%
X203500000Y-47500000D03*
D16*
%TO.P,J5,1,Pin_1*%
X200960000Y-47500000D03*
%TD*%
D17*
%TO.P,U4,4,GND*%
%TO.N,GND*%
X208000000Y-73500000D03*
%TO.P,U4,3,GND*%
X205460000Y-73500000D03*
D18*
%TO.P,U4,2,VCC*%
%TO.N,+12V motor pwr*%
X207974000Y-57500000D03*
D17*
%TO.P,U4,1,VCC*%
X205434000Y-57500000D03*
%TD*%
D19*
%TO.P,R1,2*%
%TO.N,/STBY*%
X220500000Y-80500000D03*
%TO.P,R1,1*%
%TO.N,Net-(D1-A)*%
X215420000Y-80500000D03*
%TD*%
%TO.P,R2,2*%
%TO.N,Net-(D1-K)*%
X211000000Y-91500000D03*
%TO.P,R2,1*%
%TO.N,GND*%
X211000000Y-96580000D03*
%TD*%
D20*
%TO.P,D1,2,A*%
%TO.N,Net-(D1-A)*%
X211000000Y-85500000D03*
D21*
%TO.P,D1,1,K*%
%TO.N,Net-(D1-K)*%
X211000000Y-88040000D03*
%TD*%
D15*
%TO.P,J4,4,Pin_4*%
%TO.N,+3V3*%
X196620000Y-47500000D03*
%TO.P,J4,3,Pin_3*%
X194080000Y-47500000D03*
%TO.P,J4,2,Pin_2*%
X191540000Y-47500000D03*
D16*
%TO.P,J4,1,Pin_1*%
X189000000Y-47500000D03*
%TD*%
D17*
%TO.P,U1,16,GND*%
%TO.N,GND*%
X185380000Y-74500000D03*
%TO.P,U1,15,BO1*%
%TO.N,/BR+*%
X185380000Y-71960000D03*
%TO.P,U1,14,BO2*%
%TO.N,/BR-*%
X185380000Y-69420000D03*
%TO.P,U1,13,AO2*%
%TO.N,/FR-*%
X185380000Y-66880000D03*
%TO.P,U1,12,AO1*%
%TO.N,/FR+*%
X185380000Y-64340000D03*
%TO.P,U1,11,GND*%
%TO.N,GND*%
X185380000Y-61800000D03*
%TO.P,U1,10,VCC*%
%TO.N,+3V3*%
X185380000Y-59260000D03*
%TO.P,U1,9,VM*%
%TO.N,+12V motor pwr*%
X185380000Y-56720000D03*
%TO.P,U1,8,GND*%
%TO.N,GND*%
X170380000Y-74500000D03*
%TO.P,U1,7,PWMB*%
%TO.N,Net-(J1-Pin_3)*%
X170380000Y-71960000D03*
%TO.P,U1,6,BIN2*%
%TO.N,Net-(J1-Pin_5)*%
X170380000Y-69420000D03*
%TO.P,U1,5,BIN1*%
%TO.N,Net-(J1-Pin_4)*%
X170380000Y-66880000D03*
%TO.P,U1,4,STBY*%
%TO.N,/STBY*%
X170380000Y-64340000D03*
%TO.P,U1,3,AIN1*%
%TO.N,Net-(J1-Pin_4)*%
X170380000Y-61800000D03*
%TO.P,U1,2,AIN2*%
%TO.N,Net-(J1-Pin_5)*%
X170380000Y-59260000D03*
%TO.P,U1,1,PWMA*%
%TO.N,Net-(J1-Pin_3)*%
X170380000Y-56720000D03*
%TD*%
D15*
%TO.P,J1,8,Pin_8*%
%TO.N,Net-(J1-Pin_8)*%
X154000000Y-85740000D03*
%TO.P,J1,7,Pin_7*%
%TO.N,Net-(J1-Pin_7)*%
X154000000Y-83200000D03*
%TO.P,J1,6,Pin_6*%
%TO.N,Net-(J1-Pin_6)*%
X154000000Y-80660000D03*
%TO.P,J1,5,Pin_5*%
%TO.N,Net-(J1-Pin_5)*%
X154000000Y-78120000D03*
%TO.P,J1,4,Pin_4*%
%TO.N,Net-(J1-Pin_4)*%
X154000000Y-75580000D03*
%TO.P,J1,3,Pin_3*%
%TO.N,Net-(J1-Pin_3)*%
X154000000Y-73040000D03*
%TO.P,J1,2,Pin_2*%
%TO.N,GND*%
X154000000Y-70500000D03*
D16*
%TO.P,J1,1,Pin_1*%
%TO.N,+3V3*%
X154000000Y-67960000D03*
%TD*%
D17*
%TO.P,U2,16,GND*%
%TO.N,GND*%
X185500000Y-98280000D03*
%TO.P,U2,15,BO1*%
%TO.N,/BL+*%
X185500000Y-95740000D03*
%TO.P,U2,14,BO2*%
%TO.N,/BL-*%
X185500000Y-93200000D03*
%TO.P,U2,13,AO2*%
%TO.N,/FL-*%
X185500000Y-90660000D03*
%TO.P,U2,12,AO1*%
%TO.N,/FL+*%
X185500000Y-88120000D03*
%TO.P,U2,11,GND*%
%TO.N,GND*%
X185500000Y-85580000D03*
%TO.P,U2,10,VCC*%
%TO.N,+3V3*%
X185500000Y-83040000D03*
%TO.P,U2,9,VM*%
%TO.N,+12V motor pwr*%
X185500000Y-80500000D03*
%TO.P,U2,8,GND*%
%TO.N,GND*%
X170500000Y-98280000D03*
%TO.P,U2,7,PWMB*%
%TO.N,Net-(J1-Pin_6)*%
X170500000Y-95740000D03*
%TO.P,U2,6,BIN2*%
%TO.N,Net-(J1-Pin_8)*%
X170500000Y-93200000D03*
%TO.P,U2,5,BIN1*%
%TO.N,Net-(J1-Pin_7)*%
X170500000Y-90660000D03*
%TO.P,U2,4,STBY*%
%TO.N,/STBY*%
X170500000Y-88120000D03*
%TO.P,U2,3,AIN1*%
%TO.N,Net-(J1-Pin_7)*%
X170500000Y-85580000D03*
%TO.P,U2,2,AIN2*%
%TO.N,Net-(J1-Pin_8)*%
X170500000Y-83040000D03*
%TO.P,U2,1,PWMA*%
%TO.N,Net-(J1-Pin_6)*%
X170500000Y-80500000D03*
%TD*%
D22*
%TO.N,Net-(J1-Pin_8)*%
X164500000Y-82500000D03*
%TO.N,Net-(J1-Pin_5)*%
X166500000Y-72560000D03*
%TO.N,/STBY*%
X167500000Y-64000000D03*
%TO.N,Net-(J1-Pin_5)*%
X166500000Y-71360000D03*
X163400000Y-68000000D03*
X164600000Y-68000000D03*
%TO.N,Net-(J1-Pin_8)*%
X163500000Y-83800000D03*
%TO.N,Net-(J1-Pin_4)*%
X164000000Y-72560000D03*
X164000000Y-71360000D03*
%TO.N,/STBY*%
X168000000Y-96500000D03*
X168000000Y-89000000D03*
X167234834Y-56734835D03*
%TO.N,+3V3*%
X189000000Y-54500000D03*
X189000000Y-57500000D03*
%TD*%
D23*
%TO.N,+3V3*%
X189000000Y-54500000D02*
X189000000Y-57500000D01*
D24*
%TO.N,/STBY*%
X167234834Y-56734835D02*
X167500000Y-57000000D01*
X167500000Y-57000000D02*
X167500000Y-64000000D01*
%TO.N,Net-(J1-Pin_4)*%
X164000000Y-72560000D02*
X164000000Y-71360000D01*
%TO.N,Net-(J1-Pin_8)*%
X163500000Y-83500000D02*
X164500000Y-82500000D01*
%TO.N,Net-(J1-Pin_5)*%
X164600000Y-68000000D02*
X163400000Y-68000000D01*
X166500000Y-72560000D02*
X166500000Y-71360000D01*
%TO.N,Net-(J1-Pin_8)*%
X163500000Y-83800000D02*
X163500000Y-83500000D01*
%TO.N,/STBY*%
X168000000Y-96500000D02*
X168000000Y-89000000D01*
%TD*%
%TA.AperFunction,Conductor*%
%TO.N,GND*%
G36*
X244003736Y-29500726D02*
G01*
X244293796Y-29518271D01*
X244308659Y-29520076D01*
X244590798Y-29571780D01*
X244605335Y-29575363D01*
X244879172Y-29660695D01*
X244893163Y-29666000D01*
X245154743Y-29783727D01*
X245167989Y-29790680D01*
X245413465Y-29939075D01*
X245425776Y-29947573D01*
X245651573Y-30124473D01*
X245662781Y-30134403D01*
X245865596Y-30337218D01*
X245875526Y-30348426D01*
X245995481Y-30501538D01*
X246052422Y-30574217D01*
X246060928Y-30586540D01*
X246209316Y-30832004D01*
X246216275Y-30845263D01*
X246333997Y-31106831D01*
X246339306Y-31120832D01*
X246424635Y-31394663D01*
X246428219Y-31409201D01*
X246479923Y-31691340D01*
X246481728Y-31706205D01*
X246499274Y-31996263D01*
X246499500Y-32003750D01*
X246499500Y-112996249D01*
X246499274Y-113003736D01*
X246481728Y-113293794D01*
X246479923Y-113308659D01*
X246428219Y-113590798D01*
X246424635Y-113605336D01*
X246339306Y-113879167D01*
X246333997Y-113893168D01*
X246216275Y-114154736D01*
X246209316Y-114167995D01*
X246060928Y-114413459D01*
X246052422Y-114425782D01*
X245875526Y-114651573D01*
X245865596Y-114662781D01*
X245662781Y-114865596D01*
X245651573Y-114875526D01*
X245425782Y-115052422D01*
X245413459Y-115060928D01*
X245167995Y-115209316D01*
X245154736Y-115216275D01*
X244893168Y-115333997D01*
X244879167Y-115339306D01*
X244605336Y-115424635D01*
X244590798Y-115428219D01*
X244308659Y-115479923D01*
X244293794Y-115481728D01*
X244003736Y-115499274D01*
X243996249Y-115499500D01*
X137503751Y-115499500D01*
X137496264Y-115499274D01*
X137206205Y-115481728D01*
X137191340Y-115479923D01*
X136909201Y-115428219D01*
X136894663Y-115424635D01*
X136620832Y-115339306D01*
X136606831Y-115333997D01*
X136345263Y-115216275D01*
X136332004Y-115209316D01*
X136086540Y-115060928D01*
X136074217Y-115052422D01*
X135848426Y-114875526D01*
X135837218Y-114865596D01*
X135634403Y-114662781D01*
X135624473Y-114651573D01*
X135542548Y-114547003D01*
X135447573Y-114425776D01*
X135439075Y-114413465D01*
X135290680Y-114167989D01*
X135283727Y-114154743D01*
X135166000Y-113893163D01*
X135160693Y-113879167D01*
X135141993Y-113819158D01*
X135075363Y-113605335D01*
X135071780Y-113590798D01*
X135020076Y-113308659D01*
X135018271Y-113293794D01*
X135013724Y-113218630D01*
X135000726Y-113003736D01*
X135000500Y-112996249D01*
X135000500Y-110589455D01*
X135821300Y-110589455D01*
X135821300Y-110970544D01*
X135858653Y-111349809D01*
X135932996Y-111723563D01*
X135932999Y-111723574D01*
X136043629Y-112088276D01*
X136189469Y-112440360D01*
X136189471Y-112440365D01*
X136369109Y-112776443D01*
X136369120Y-112776461D01*
X136580836Y-113093317D01*
X136580846Y-113093331D01*
X136822611Y-113387922D01*
X137092077Y-113657388D01*
X137092082Y-113657392D01*
X137092083Y-113657393D01*
X137386674Y-113899158D01*
X137703545Y-114110884D01*
X137703554Y-114110889D01*
X137703556Y-114110890D01*
X138039634Y-114290528D01*
X138039636Y-114290528D01*
X138039642Y-114290532D01*
X138198593Y-114356372D01*
X138391723Y-114436370D01*
X138391727Y-114436371D01*
X138391729Y-114436372D01*
X138756416Y-114546998D01*
X138756422Y-114546999D01*
X138756425Y-114547000D01*
X138756436Y-114547003D01*
X139130190Y-114621346D01*
X139509452Y-114658700D01*
X139509455Y-114658700D01*
X139890545Y-114658700D01*
X139890548Y-114658700D01*
X140269810Y-114621346D01*
X140342569Y-114606873D01*
X140643563Y-114547003D01*
X140643574Y-114547000D01*
X140643574Y-114546999D01*
X140643584Y-114546998D01*
X141008271Y-114436372D01*
X141360358Y-114290532D01*
X141696455Y-114110884D01*
X142013326Y-113899158D01*
X142307917Y-113657393D01*
X142577393Y-113387917D01*
X142819158Y-113093326D01*
X143030884Y-112776455D01*
X143210532Y-112440358D01*
X143356372Y-112088271D01*
X143466998Y-111723584D01*
X143467000Y-111723574D01*
X143467003Y-111723563D01*
X143541346Y-111349809D01*
X143549991Y-111262033D01*
X143578700Y-110970548D01*
X143578700Y-110589452D01*
X143570821Y-110509455D01*
X237421300Y-110509455D01*
X237421300Y-110890544D01*
X237458653Y-111269809D01*
X237532996Y-111643563D01*
X237532999Y-111643574D01*
X237643629Y-112008276D01*
X237789469Y-112360360D01*
X237789471Y-112360365D01*
X237969109Y-112696443D01*
X237969120Y-112696461D01*
X238180836Y-113013317D01*
X238180846Y-113013331D01*
X238422611Y-113307922D01*
X238692077Y-113577388D01*
X238692082Y-113577392D01*
X238692083Y-113577393D01*
X238986674Y-113819158D01*
X239303545Y-114030884D01*
X239303554Y-114030889D01*
X239303556Y-114030890D01*
X239639634Y-114210528D01*
X239639636Y-114210528D01*
X239639642Y-114210532D01*
X239832773Y-114290530D01*
X239991723Y-114356370D01*
X239991727Y-114356371D01*
X239991729Y-114356372D01*
X240356416Y-114466998D01*
X240356422Y-114466999D01*
X240356425Y-114467000D01*
X240356436Y-114467003D01*
X240730190Y-114541346D01*
X241109452Y-114578700D01*
X241109455Y-114578700D01*
X241490545Y-114578700D01*
X241490548Y-114578700D01*
X241869810Y-114541346D01*
X241942569Y-114526873D01*
X242243563Y-114467003D01*
X242243574Y-114467000D01*
X242243574Y-114466999D01*
X242243584Y-114466998D01*
X242608271Y-114356372D01*
X242960358Y-114210532D01*
X243296455Y-114030884D01*
X243613326Y-113819158D01*
X243907917Y-113577393D01*
X244177393Y-113307917D01*
X244419158Y-113013326D01*
X244630884Y-112696455D01*
X244810532Y-112360358D01*
X244956372Y-112008271D01*
X245066998Y-111643584D01*
X245067000Y-111643574D01*
X245067003Y-111643563D01*
X245141346Y-111269809D01*
X245149991Y-111182033D01*
X245178700Y-110890548D01*
X245178700Y-110509452D01*
X245141346Y-110130190D01*
X245112138Y-109983350D01*
X245067003Y-109756436D01*
X245067000Y-109756425D01*
X245066999Y-109756422D01*
X245066998Y-109756416D01*
X244956372Y-109391729D01*
X244954828Y-109388002D01*
X244843668Y-109119639D01*
X244810532Y-109039642D01*
X244807921Y-109034758D01*
X244630890Y-108703556D01*
X244630889Y-108703554D01*
X244630884Y-108703545D01*
X244419158Y-108386674D01*
X244177393Y-108092083D01*
X244177392Y-108092082D01*
X244177388Y-108092077D01*
X243907922Y-107822611D01*
X243613331Y-107580846D01*
X243613330Y-107580845D01*
X243613326Y-107580842D01*
X243296455Y-107369116D01*
X243296450Y-107369113D01*
X243296443Y-107369109D01*
X242960365Y-107189471D01*
X242960360Y-107189469D01*
X242608276Y-107043629D01*
X242243574Y-106932999D01*
X242243563Y-106932996D01*
X241869809Y-106858653D01*
X241584165Y-106830520D01*
X241490548Y-106821300D01*
X241109452Y-106821300D01*
X241022951Y-106829819D01*
X240730190Y-106858653D01*
X240356436Y-106932996D01*
X240356425Y-106932999D01*
X239991723Y-107043629D01*
X239639639Y-107189469D01*
X239639634Y-107189471D01*
X239303556Y-107369109D01*
X239303538Y-107369120D01*
X238986682Y-107580836D01*
X238986668Y-107580846D01*
X238692077Y-107822611D01*
X238422611Y-108092077D01*
X238180846Y-108386668D01*
X238180836Y-108386682D01*
X237969120Y-108703538D01*
X237969109Y-108703556D01*
X237789471Y-109039634D01*
X237789469Y-109039639D01*
X237643629Y-109391723D01*
X237532999Y-109756425D01*
X237532996Y-109756436D01*
X237458653Y-110130190D01*
X237421300Y-110509455D01*
X143570821Y-110509455D01*
X143541346Y-110210190D01*
X143525433Y-110130190D01*
X143467003Y-109836436D01*
X143467000Y-109836425D01*
X143466999Y-109836422D01*
X143466998Y-109836416D01*
X143356372Y-109471729D01*
X143210532Y-109119642D01*
X143207921Y-109114758D01*
X143030890Y-108783556D01*
X143030889Y-108783554D01*
X143030884Y-108783545D01*
X142819158Y-108466674D01*
X142577393Y-108172083D01*
X142577392Y-108172082D01*
X142577388Y-108172077D01*
X142307922Y-107902611D01*
X142013331Y-107660846D01*
X142013330Y-107660845D01*
X142013326Y-107660842D01*
X141696455Y-107449116D01*
X141696450Y-107449113D01*
X141696443Y-107449109D01*
X141360365Y-107269471D01*
X141360360Y-107269469D01*
X141008276Y-107123629D01*
X140643574Y-107012999D01*
X140643563Y-107012996D01*
X140269809Y-106938653D01*
X139984165Y-106910520D01*
X139890548Y-106901300D01*
X139509452Y-106901300D01*
X139422951Y-106909819D01*
X139130190Y-106938653D01*
X138756436Y-107012996D01*
X138756425Y-107012999D01*
X138391723Y-107123629D01*
X138039639Y-107269469D01*
X138039634Y-107269471D01*
X137703556Y-107449109D01*
X137703538Y-107449120D01*
X137386682Y-107660836D01*
X137386668Y-107660846D01*
X137092077Y-107902611D01*
X136822611Y-108172077D01*
X136580846Y-108466668D01*
X136580836Y-108466682D01*
X136369120Y-108783538D01*
X136369109Y-108783556D01*
X136189471Y-109119634D01*
X136189469Y-109119639D01*
X136043629Y-109471723D01*
X135932999Y-109836425D01*
X135932996Y-109836436D01*
X135858653Y-110210190D01*
X135821300Y-110589455D01*
X135000500Y-110589455D01*
X135000500Y-88921153D01*
X167199500Y-88921153D01*
X167199500Y-89078846D01*
X167230261Y-89233489D01*
X167230264Y-89233501D01*
X167290602Y-89379172D01*
X167290609Y-89379185D01*
X167378602Y-89510874D01*
X167399480Y-89577551D01*
X167399500Y-89579765D01*
X167399500Y-95920234D01*
X167379815Y-95987273D01*
X167378602Y-95989125D01*
X167290609Y-96120814D01*
X167290602Y-96120827D01*
X167230264Y-96266498D01*
X167230261Y-96266510D01*
X167199500Y-96421153D01*
X167199500Y-96578846D01*
X167230261Y-96733489D01*
X167230264Y-96733501D01*
X167290602Y-96879172D01*
X167290609Y-96879185D01*
X167378210Y-97010288D01*
X167378213Y-97010292D01*
X167489707Y-97121786D01*
X167489711Y-97121789D01*
X167620814Y-97209390D01*
X167620827Y-97209397D01*
X167681017Y-97234328D01*
X167766503Y-97269737D01*
X167921153Y-97300499D01*
X167921156Y-97300500D01*
X167921158Y-97300500D01*
X168078844Y-97300500D01*
X168078845Y-97300499D01*
X168233497Y-97269737D01*
X168379179Y-97209394D01*
X168510289Y-97121789D01*
X168621789Y-97010289D01*
X168709394Y-96879179D01*
X168769737Y-96733497D01*
X168800500Y-96578842D01*
X168800500Y-96421158D01*
X168800500Y-96421155D01*
X168800499Y-96421153D01*
X168776386Y-96299930D01*
X168769737Y-96266503D01*
X168752394Y-96224632D01*
X168709397Y-96120827D01*
X168709390Y-96120814D01*
X168621398Y-95989125D01*
X168600520Y-95922447D01*
X168600500Y-95920234D01*
X168600500Y-89579765D01*
X168620185Y-89512726D01*
X168621398Y-89510874D01*
X168709390Y-89379185D01*
X168709390Y-89379184D01*
X168709394Y-89379179D01*
X168769737Y-89233497D01*
X168800500Y-89078842D01*
X168800500Y-88921158D01*
X168800500Y-88921155D01*
X168800499Y-88921153D01*
X168769737Y-88766503D01*
X168769735Y-88766498D01*
X168709397Y-88620827D01*
X168709390Y-88620814D01*
X168621789Y-88489711D01*
X168621786Y-88489707D01*
X168510292Y-88378213D01*
X168510288Y-88378210D01*
X168379185Y-88290609D01*
X168379172Y-88290602D01*
X168233501Y-88230264D01*
X168233489Y-88230261D01*
X168078845Y-88199500D01*
X168078842Y-88199500D01*
X167921158Y-88199500D01*
X167921155Y-88199500D01*
X167766510Y-88230261D01*
X167766498Y-88230264D01*
X167620827Y-88290602D01*
X167620814Y-88290609D01*
X167489711Y-88378210D01*
X167489707Y-88378213D01*
X167378213Y-88489707D01*
X167378210Y-88489711D01*
X167290609Y-88620814D01*
X167290602Y-88620827D01*
X167230264Y-88766498D01*
X167230261Y-88766510D01*
X167199500Y-88921153D01*
X135000500Y-88921153D01*
X135000500Y-67062135D01*
X152649500Y-67062135D01*
X152649500Y-68857870D01*
X152649501Y-68857876D01*
X152655908Y-68917483D01*
X152706202Y-69052328D01*
X152706206Y-69052335D01*
X152792452Y-69167544D01*
X152792455Y-69167547D01*
X152907664Y-69253793D01*
X152907671Y-69253797D01*
X152952618Y-69270561D01*
X153042517Y-69304091D01*
X153102127Y-69310500D01*
X153112685Y-69310499D01*
X153179723Y-69330179D01*
X153200372Y-69346818D01*
X153870591Y-70017037D01*
X153807007Y-70034075D01*
X153692993Y-70099901D01*
X153599901Y-70192993D01*
X153534075Y-70307007D01*
X153517037Y-70370591D01*
X152884728Y-69738282D01*
X152884727Y-69738282D01*
X152845380Y-69792439D01*
X152748904Y-69981782D01*
X152683242Y-70183869D01*
X152683242Y-70183872D01*
X152650000Y-70393753D01*
X152650000Y-70606246D01*
X152683242Y-70816127D01*
X152683242Y-70816130D01*
X152748904Y-71018217D01*
X152845375Y-71207550D01*
X152884728Y-71261716D01*
X153517037Y-70629408D01*
X153534075Y-70692993D01*
X153599901Y-70807007D01*
X153692993Y-70900099D01*
X153807007Y-70965925D01*
X153870590Y-70982962D01*
X153238282Y-71615269D01*
X153238282Y-71615270D01*
X153292452Y-71654626D01*
X153292451Y-71654626D01*
X153301495Y-71659234D01*
X153352292Y-71707208D01*
X153369087Y-71775029D01*
X153346550Y-71841164D01*
X153301499Y-71880202D01*
X153292182Y-71884949D01*
X153120213Y-72009890D01*
X152969890Y-72160213D01*
X152844951Y-72332179D01*
X152748444Y-72521585D01*
X152682753Y-72723760D01*
X152670475Y-72801282D01*
X152649500Y-72933713D01*
X152649500Y-73146287D01*
X152655123Y-73181786D01*
X152682230Y-73352939D01*
X152682754Y-73356243D01*
X152729463Y-73499999D01*
X152748444Y-73558414D01*
X152844951Y-73747820D01*
X152969890Y-73919786D01*
X153120213Y-74070109D01*
X153292182Y-74195050D01*
X153300946Y-74199516D01*
X153351742Y-74247491D01*
X153368536Y-74315312D01*
X153345998Y-74381447D01*
X153300946Y-74420484D01*
X153292182Y-74424949D01*
X153120213Y-74549890D01*
X152969890Y-74700213D01*
X152844951Y-74872179D01*
X152748444Y-75061585D01*
X152682753Y-75263760D01*
X152649500Y-75473713D01*
X152649500Y-75686286D01*
X152682753Y-75896239D01*
X152748444Y-76098414D01*
X152844951Y-76287820D01*
X152969890Y-76459786D01*
X153120213Y-76610109D01*
X153292182Y-76735050D01*
X153300946Y-76739516D01*
X153351742Y-76787491D01*
X153368536Y-76855312D01*
X153345998Y-76921447D01*
X153300946Y-76960484D01*
X153292182Y-76964949D01*
X153120213Y-77089890D01*
X152969890Y-77240213D01*
X152844951Y-77412179D01*
X152748444Y-77601585D01*
X152682753Y-77803760D01*
X152649500Y-78013713D01*
X152649500Y-78226287D01*
X152682754Y-78436243D01*
X152745451Y-78629205D01*
X152748444Y-78638414D01*
X152844951Y-78827820D01*
X152969890Y-78999786D01*
X153120213Y-79150109D01*
X153292182Y-79275050D01*
X153300946Y-79279516D01*
X153351742Y-79327491D01*
X153368536Y-79395312D01*
X153345998Y-79461447D01*
X153300946Y-79500484D01*
X153292182Y-79504949D01*
X153120213Y-79629890D01*
X152969890Y-79780213D01*
X152844951Y-79952179D01*
X152748444Y-80141585D01*
X152682753Y-80343760D01*
X152657025Y-80506202D01*
X152649500Y-80553713D01*
X152649500Y-80766287D01*
X152654149Y-80795637D01*
X152682753Y-80976239D01*
X152748444Y-81178414D01*
X152844951Y-81367820D01*
X152969890Y-81539786D01*
X153120213Y-81690109D01*
X153292182Y-81815050D01*
X153300946Y-81819516D01*
X153351742Y-81867491D01*
X153368536Y-81935312D01*
X153345998Y-82001447D01*
X153300946Y-82040484D01*
X153292182Y-82044949D01*
X153120213Y-82169890D01*
X152969890Y-82320213D01*
X152844951Y-82492179D01*
X152748444Y-82681585D01*
X152748443Y-82681587D01*
X152748443Y-82681588D01*
X152738857Y-82711090D01*
X152682753Y-82883760D01*
X152661642Y-83017052D01*
X152649500Y-83093713D01*
X152649500Y-83306287D01*
X152654149Y-83335637D01*
X152679198Y-83493796D01*
X152682754Y-83516243D01*
X152734905Y-83676748D01*
X152748444Y-83718414D01*
X152844951Y-83907820D01*
X152969890Y-84079786D01*
X153120213Y-84230109D01*
X153292182Y-84355050D01*
X153300946Y-84359516D01*
X153351742Y-84407491D01*
X153368536Y-84475312D01*
X153345998Y-84541447D01*
X153300946Y-84580484D01*
X153292182Y-84584949D01*
X153120213Y-84709890D01*
X152969890Y-84860213D01*
X152844951Y-85032179D01*
X152748444Y-85221585D01*
X152682753Y-85423760D01*
X152658007Y-85580000D01*
X152649500Y-85633713D01*
X152649500Y-85846287D01*
X152654149Y-85875637D01*
X152679801Y-86037603D01*
X152682754Y-86056243D01*
X152740518Y-86234022D01*
X152748444Y-86258414D01*
X152844951Y-86447820D01*
X152969890Y-86619786D01*
X153120213Y-86770109D01*
X153292179Y-86895048D01*
X153292181Y-86895049D01*
X153292184Y-86895051D01*
X153481588Y-86991557D01*
X153683757Y-87057246D01*
X153893713Y-87090500D01*
X153893714Y-87090500D01*
X154106286Y-87090500D01*
X154106287Y-87090500D01*
X154316243Y-87057246D01*
X154518412Y-86991557D01*
X154707816Y-86895051D01*
X154780147Y-86842500D01*
X154879786Y-86770109D01*
X154879788Y-86770106D01*
X154879792Y-86770104D01*
X155030104Y-86619792D01*
X155030106Y-86619788D01*
X155030109Y-86619786D01*
X155155048Y-86447820D01*
X155155047Y-86447820D01*
X155155051Y-86447816D01*
X155251557Y-86258412D01*
X155317246Y-86056243D01*
X155350500Y-85846287D01*
X155350500Y-85633713D01*
X155317246Y-85423757D01*
X155251557Y-85221588D01*
X155155051Y-85032184D01*
X155155049Y-85032181D01*
X155155048Y-85032179D01*
X155030109Y-84860213D01*
X154879786Y-84709890D01*
X154707820Y-84584951D01*
X154707115Y-84584591D01*
X154699054Y-84580485D01*
X154648259Y-84532512D01*
X154631463Y-84464692D01*
X154653999Y-84398556D01*
X154699054Y-84359515D01*
X154707816Y-84355051D01*
X154759717Y-84317343D01*
X154879786Y-84230109D01*
X154879788Y-84230106D01*
X154879792Y-84230104D01*
X155030104Y-84079792D01*
X155030106Y-84079788D01*
X155030109Y-84079786D01*
X155155048Y-83907820D01*
X155155047Y-83907820D01*
X155155051Y-83907816D01*
X155250160Y-83721153D01*
X162699500Y-83721153D01*
X162699500Y-83878846D01*
X162730261Y-84033489D01*
X162730264Y-84033501D01*
X162790602Y-84179172D01*
X162790609Y-84179185D01*
X162878210Y-84310288D01*
X162878213Y-84310292D01*
X162989707Y-84421786D01*
X162989711Y-84421789D01*
X163120814Y-84509390D01*
X163120827Y-84509397D01*
X163198204Y-84541447D01*
X163266503Y-84569737D01*
X163421153Y-84600499D01*
X163421156Y-84600500D01*
X163421158Y-84600500D01*
X163578844Y-84600500D01*
X163578845Y-84600499D01*
X163733497Y-84569737D01*
X163879179Y-84509394D01*
X164010289Y-84421789D01*
X164121789Y-84310289D01*
X164209394Y-84179179D01*
X164269737Y-84033497D01*
X164300500Y-83878842D01*
X164300500Y-83721158D01*
X164299954Y-83718414D01*
X164291666Y-83676748D01*
X164284823Y-83642346D01*
X164291050Y-83572757D01*
X164318756Y-83530478D01*
X164514665Y-83334570D01*
X164575984Y-83301088D01*
X164578151Y-83300637D01*
X164578840Y-83300500D01*
X164578842Y-83300500D01*
X164733497Y-83269737D01*
X164879179Y-83209394D01*
X165010289Y-83121789D01*
X165121789Y-83010289D01*
X165209394Y-82879179D01*
X165269737Y-82733497D01*
X165300500Y-82578842D01*
X165300500Y-82421158D01*
X165300500Y-82421155D01*
X165300499Y-82421153D01*
X165290482Y-82370793D01*
X165269737Y-82266503D01*
X165265277Y-82255736D01*
X165209397Y-82120827D01*
X165209390Y-82120814D01*
X165121789Y-81989711D01*
X165121786Y-81989707D01*
X165010292Y-81878213D01*
X165010288Y-81878210D01*
X164879185Y-81790609D01*
X164879172Y-81790602D01*
X164733501Y-81730264D01*
X164733489Y-81730261D01*
X164578845Y-81699500D01*
X164578842Y-81699500D01*
X164421158Y-81699500D01*
X164421155Y-81699500D01*
X164266510Y-81730261D01*
X164266498Y-81730264D01*
X164120827Y-81790602D01*
X164120814Y-81790609D01*
X163989711Y-81878210D01*
X163989707Y-81878213D01*
X163878213Y-81989707D01*
X163878210Y-81989711D01*
X163790609Y-82120814D01*
X163790602Y-82120827D01*
X163730264Y-82266498D01*
X163730261Y-82266508D01*
X163699362Y-82421848D01*
X163666977Y-82483759D01*
X163665426Y-82485337D01*
X163133711Y-83017052D01*
X163133702Y-83017061D01*
X163131286Y-83019478D01*
X163131284Y-83019480D01*
X163019480Y-83131284D01*
X162997775Y-83168876D01*
X162989197Y-83178458D01*
X162987500Y-83179509D01*
X162984496Y-83183425D01*
X162878213Y-83289707D01*
X162878210Y-83289711D01*
X162790609Y-83420814D01*
X162790602Y-83420827D01*
X162730264Y-83566498D01*
X162730261Y-83566510D01*
X162699500Y-83721153D01*
X155250160Y-83721153D01*
X155251557Y-83718412D01*
X155317246Y-83516243D01*
X155350500Y-83306287D01*
X155350500Y-83093713D01*
X155317246Y-82883757D01*
X155251557Y-82681588D01*
X155155051Y-82492184D01*
X155155049Y-82492181D01*
X155155048Y-82492179D01*
X155030109Y-82320213D01*
X154879786Y-82169890D01*
X154707820Y-82044951D01*
X154707115Y-82044591D01*
X154699054Y-82040485D01*
X154648259Y-81992512D01*
X154631463Y-81924692D01*
X154653999Y-81858556D01*
X154699054Y-81819515D01*
X154707816Y-81815051D01*
X154822935Y-81731413D01*
X154879786Y-81690109D01*
X154879788Y-81690106D01*
X154879792Y-81690104D01*
X155030104Y-81539792D01*
X155030106Y-81539788D01*
X155030109Y-81539786D01*
X155155048Y-81367820D01*
X155155047Y-81367820D01*
X155155051Y-81367816D01*
X155251557Y-81178412D01*
X155317246Y-80976243D01*
X155350500Y-80766287D01*
X155350500Y-80553713D01*
X155326255Y-80400639D01*
X169237500Y-80400639D01*
X169237500Y-80599360D01*
X169268587Y-80795637D01*
X169329993Y-80984629D01*
X169329994Y-80984632D01*
X169403656Y-81129199D01*
X169420213Y-81161694D01*
X169537019Y-81322464D01*
X169677536Y-81462981D01*
X169838306Y-81579787D01*
X169902597Y-81612545D01*
X169994780Y-81659515D01*
X170045576Y-81707490D01*
X170062371Y-81775311D01*
X170039833Y-81841446D01*
X169994780Y-81880485D01*
X169838305Y-81960213D01*
X169677533Y-82077021D01*
X169537021Y-82217533D01*
X169420213Y-82378305D01*
X169329994Y-82555367D01*
X169329993Y-82555370D01*
X169268587Y-82744362D01*
X169237500Y-82940639D01*
X169237500Y-83139360D01*
X169268587Y-83335637D01*
X169329993Y-83524629D01*
X169329994Y-83524632D01*
X169356852Y-83577342D01*
X169420213Y-83701694D01*
X169537019Y-83862464D01*
X169677536Y-84002981D01*
X169838306Y-84119787D01*
X169954855Y-84179172D01*
X169994780Y-84199515D01*
X170045576Y-84247490D01*
X170062371Y-84315311D01*
X170039833Y-84381446D01*
X169994780Y-84420485D01*
X169838305Y-84500213D01*
X169677533Y-84617021D01*
X169537021Y-84757533D01*
X169420213Y-84918305D01*
X169329994Y-85095367D01*
X169329993Y-85095370D01*
X169268587Y-85284362D01*
X169237500Y-85480639D01*
X169237500Y-85679360D01*
X169268587Y-85875637D01*
X169329993Y-86064629D01*
X169329994Y-86064632D01*
X169416304Y-86234022D01*
X169420213Y-86241694D01*
X169537019Y-86402464D01*
X169677536Y-86542981D01*
X169838306Y-86659787D01*
X169909776Y-86696203D01*
X169994780Y-86739515D01*
X170045576Y-86787490D01*
X170062371Y-86855311D01*
X170039833Y-86921446D01*
X169994780Y-86960485D01*
X169838305Y-87040213D01*
X169677533Y-87157021D01*
X169537021Y-87297533D01*
X169420213Y-87458305D01*
X169329994Y-87635367D01*
X169329993Y-87635370D01*
X169268587Y-87824362D01*
X169268587Y-87824364D01*
X169237500Y-88020639D01*
X169237500Y-88219361D01*
X169239227Y-88230263D01*
X169268587Y-88415637D01*
X169329993Y-88604629D01*
X169329994Y-88604632D01*
X169412470Y-88766498D01*
X169420213Y-88781694D01*
X169537019Y-88942464D01*
X169677536Y-89082981D01*
X169838306Y-89199787D01*
X169956832Y-89260179D01*
X169994780Y-89279515D01*
X170045576Y-89327490D01*
X170062371Y-89395311D01*
X170039833Y-89461446D01*
X169994780Y-89500485D01*
X169838305Y-89580213D01*
X169677533Y-89697021D01*
X169537021Y-89837533D01*
X169420213Y-89998305D01*
X169329994Y-90175367D01*
X169329993Y-90175370D01*
X169268587Y-90364362D01*
X169268587Y-90364364D01*
X169237500Y-90560639D01*
X169237500Y-90759361D01*
X169246684Y-90817345D01*
X169268587Y-90955637D01*
X169329993Y-91144629D01*
X169329994Y-91144632D01*
X169367827Y-91218882D01*
X169420213Y-91321694D01*
X169537019Y-91482464D01*
X169677536Y-91622981D01*
X169838306Y-91739787D01*
X169956832Y-91800179D01*
X169994780Y-91819515D01*
X170045576Y-91867490D01*
X170062371Y-91935311D01*
X170039833Y-92001446D01*
X169994780Y-92040485D01*
X169838305Y-92120213D01*
X169677533Y-92237021D01*
X169537021Y-92377533D01*
X169420213Y-92538305D01*
X169329994Y-92715367D01*
X169329993Y-92715370D01*
X169268587Y-92904362D01*
X169237500Y-93100639D01*
X169237500Y-93299360D01*
X169268587Y-93495637D01*
X169329993Y-93684629D01*
X169329994Y-93684632D01*
X169420213Y-93861694D01*
X169537019Y-94022464D01*
X169677536Y-94162981D01*
X169838306Y-94279787D01*
X169956832Y-94340179D01*
X169994780Y-94359515D01*
X170045576Y-94407490D01*
X170062371Y-94475311D01*
X170039833Y-94541446D01*
X169994780Y-94580485D01*
X169838305Y-94660213D01*
X169677533Y-94777021D01*
X169537021Y-94917533D01*
X169420213Y-95078305D01*
X169329994Y-95255367D01*
X169329993Y-95255370D01*
X169268587Y-95444362D01*
X169237500Y-95640639D01*
X169237500Y-95839360D01*
X169268587Y-96035637D01*
X169329993Y-96224629D01*
X169329994Y-96224632D01*
X169368361Y-96299930D01*
X169420213Y-96401694D01*
X169537019Y-96562464D01*
X169677536Y-96702981D01*
X169838306Y-96819787D01*
X169995332Y-96899796D01*
X170046127Y-96947769D01*
X170062922Y-97015590D01*
X170040385Y-97081725D01*
X169995332Y-97120764D01*
X169838566Y-97200641D01*
X169801283Y-97227729D01*
X169801282Y-97227730D01*
X170472554Y-97899000D01*
X170449840Y-97899000D01*
X170352939Y-97924964D01*
X170266060Y-97975124D01*
X170195124Y-98046060D01*
X170144964Y-98132939D01*
X170119000Y-98229840D01*
X170119000Y-98252552D01*
X169447730Y-97581282D01*
X169447729Y-97581283D01*
X169420643Y-97618564D01*
X169330457Y-97795562D01*
X169269075Y-97984476D01*
X169269075Y-97984479D01*
X169238000Y-98180678D01*
X169238000Y-98379321D01*
X169269075Y-98575520D01*
X169269075Y-98575523D01*
X169330457Y-98764437D01*
X169420641Y-98941432D01*
X169447730Y-98978715D01*
X169447731Y-98978716D01*
X170119000Y-98307447D01*
X170119000Y-98330160D01*
X170144964Y-98427061D01*
X170195124Y-98513940D01*
X170266060Y-98584876D01*
X170352939Y-98635036D01*
X170449840Y-98661000D01*
X170472553Y-98661000D01*
X169801283Y-99332268D01*
X169801283Y-99332269D01*
X169838567Y-99359358D01*
X170015562Y-99449542D01*
X170204477Y-99510924D01*
X170400679Y-99542000D01*
X170599321Y-99542000D01*
X170795520Y-99510924D01*
X170795523Y-99510924D01*
X170984437Y-99449542D01*
X171161425Y-99359362D01*
X171198716Y-99332268D01*
X170527448Y-98661000D01*
X170550160Y-98661000D01*
X170647061Y-98635036D01*
X170733940Y-98584876D01*
X170804876Y-98513940D01*
X170855036Y-98427061D01*
X170881000Y-98330160D01*
X170881000Y-98307447D01*
X171552268Y-98978715D01*
X171579362Y-98941425D01*
X171669542Y-98764437D01*
X171730924Y-98575523D01*
X171730924Y-98575520D01*
X171762000Y-98379321D01*
X171762000Y-98180678D01*
X171730924Y-97984479D01*
X171730924Y-97984476D01*
X171669542Y-97795562D01*
X171579358Y-97618567D01*
X171552268Y-97581283D01*
X170881000Y-98252551D01*
X170881000Y-98229840D01*
X170855036Y-98132939D01*
X170804876Y-98046060D01*
X170733940Y-97975124D01*
X170647061Y-97924964D01*
X170550160Y-97899000D01*
X170527447Y-97899000D01*
X171198716Y-97227731D01*
X171198715Y-97227730D01*
X171161432Y-97200641D01*
X171004668Y-97120765D01*
X170953872Y-97072790D01*
X170937077Y-97004969D01*
X170959615Y-96938834D01*
X171004667Y-96899796D01*
X171161694Y-96819787D01*
X171322464Y-96702981D01*
X171462981Y-96562464D01*
X171579787Y-96401694D01*
X171670005Y-96224632D01*
X171731413Y-96035636D01*
X171762500Y-95839361D01*
X171762500Y-95640639D01*
X171731413Y-95444364D01*
X171670005Y-95255368D01*
X171670005Y-95255367D01*
X171579786Y-95078305D01*
X171462981Y-94917536D01*
X171322464Y-94777019D01*
X171161694Y-94660213D01*
X171005218Y-94580484D01*
X170954423Y-94532510D01*
X170937628Y-94464689D01*
X170960165Y-94398554D01*
X171005218Y-94359515D01*
X171161694Y-94279787D01*
X171322464Y-94162981D01*
X171462981Y-94022464D01*
X171579787Y-93861694D01*
X171670005Y-93684632D01*
X171731413Y-93495636D01*
X171762500Y-93299361D01*
X171762500Y-93100639D01*
X171731413Y-92904364D01*
X171670005Y-92715368D01*
X171670005Y-92715367D01*
X171579786Y-92538305D01*
X171571398Y-92526760D01*
X171462981Y-92377536D01*
X171322464Y-92237019D01*
X171161694Y-92120213D01*
X171005218Y-92040484D01*
X170954423Y-91992510D01*
X170937628Y-91924689D01*
X170960165Y-91858554D01*
X171005218Y-91819515D01*
X171161694Y-91739787D01*
X171322464Y-91622981D01*
X171462981Y-91482464D01*
X171579787Y-91321694D01*
X171670005Y-91144632D01*
X171731413Y-90955636D01*
X171762500Y-90759361D01*
X171762500Y-90560639D01*
X171731413Y-90364364D01*
X171670005Y-90175368D01*
X171670005Y-90175367D01*
X171579786Y-89998305D01*
X171462981Y-89837536D01*
X171322464Y-89697019D01*
X171161694Y-89580213D01*
X171005218Y-89500484D01*
X170954423Y-89452510D01*
X170937628Y-89384689D01*
X170960165Y-89318554D01*
X171005218Y-89279515D01*
X171161694Y-89199787D01*
X171322464Y-89082981D01*
X171462981Y-88942464D01*
X171579787Y-88781694D01*
X171670005Y-88604632D01*
X171731413Y-88415636D01*
X171762500Y-88219361D01*
X171762500Y-88020639D01*
X171731413Y-87824364D01*
X171670005Y-87635368D01*
X171670005Y-87635367D01*
X171579786Y-87458305D01*
X171462981Y-87297536D01*
X171322464Y-87157019D01*
X171161694Y-87040213D01*
X171005218Y-86960484D01*
X170954423Y-86912510D01*
X170937628Y-86844689D01*
X170960165Y-86778554D01*
X171005218Y-86739515D01*
X171161694Y-86659787D01*
X171322464Y-86542981D01*
X171462981Y-86402464D01*
X171579787Y-86241694D01*
X171670005Y-86064632D01*
X171731413Y-85875636D01*
X171762500Y-85679361D01*
X171762500Y-85480639D01*
X171731413Y-85284364D01*
X171670005Y-85095368D01*
X171670005Y-85095367D01*
X171602251Y-84962394D01*
X171579787Y-84918306D01*
X171462981Y-84757536D01*
X171322464Y-84617019D01*
X171161694Y-84500213D01*
X171005218Y-84420484D01*
X170954423Y-84372510D01*
X170937628Y-84304689D01*
X170960165Y-84238554D01*
X171005218Y-84199515D01*
X171161694Y-84119787D01*
X171322464Y-84002981D01*
X171462981Y-83862464D01*
X171579787Y-83701694D01*
X171670005Y-83524632D01*
X171731413Y-83335636D01*
X171762500Y-83139361D01*
X171762500Y-82940639D01*
X171731413Y-82744364D01*
X171695307Y-82633239D01*
X171670006Y-82555370D01*
X171670005Y-82555367D01*
X171601620Y-82421155D01*
X171579787Y-82378306D01*
X171462981Y-82217536D01*
X171322464Y-82077019D01*
X171161694Y-81960213D01*
X171005218Y-81880484D01*
X170954423Y-81832510D01*
X170937628Y-81764689D01*
X170960165Y-81698554D01*
X171005218Y-81659515D01*
X171161694Y-81579787D01*
X171322464Y-81462981D01*
X171462981Y-81322464D01*
X171579787Y-81161694D01*
X171670005Y-80984632D01*
X171731413Y-80795636D01*
X171762500Y-80599361D01*
X171762500Y-80400639D01*
X184237500Y-80400639D01*
X184237500Y-80599360D01*
X184268587Y-80795637D01*
X184329993Y-80984629D01*
X184329994Y-80984632D01*
X184403656Y-81129199D01*
X184420213Y-81161694D01*
X184537019Y-81322464D01*
X184677536Y-81462981D01*
X184838306Y-81579787D01*
X184902597Y-81612545D01*
X184994780Y-81659515D01*
X185045576Y-81707490D01*
X185062371Y-81775311D01*
X185039833Y-81841446D01*
X184994780Y-81880485D01*
X184838305Y-81960213D01*
X184677533Y-82077021D01*
X184537021Y-82217533D01*
X184420213Y-82378305D01*
X184329994Y-82555367D01*
X184329993Y-82555370D01*
X184268587Y-82744362D01*
X184237500Y-82940639D01*
X184237500Y-83139360D01*
X184268587Y-83335637D01*
X184329993Y-83524629D01*
X184329994Y-83524632D01*
X184356852Y-83577342D01*
X184420213Y-83701694D01*
X184537019Y-83862464D01*
X184677536Y-84002981D01*
X184838306Y-84119787D01*
X184995332Y-84199796D01*
X185046127Y-84247769D01*
X185062922Y-84315590D01*
X185040385Y-84381725D01*
X184995332Y-84420764D01*
X184838566Y-84500641D01*
X184801283Y-84527729D01*
X184801282Y-84527730D01*
X185472554Y-85199000D01*
X185449840Y-85199000D01*
X185352939Y-85224964D01*
X185266060Y-85275124D01*
X185195124Y-85346060D01*
X185144964Y-85432939D01*
X185119000Y-85529840D01*
X185119000Y-85552552D01*
X184447730Y-84881282D01*
X184447729Y-84881283D01*
X184420643Y-84918564D01*
X184330457Y-85095562D01*
X184269075Y-85284476D01*
X184269075Y-85284479D01*
X184238000Y-85480678D01*
X184238000Y-85679321D01*
X184269075Y-85875520D01*
X184269075Y-85875523D01*
X184330457Y-86064437D01*
X184420641Y-86241432D01*
X184447730Y-86278715D01*
X184447731Y-86278716D01*
X185119000Y-85607447D01*
X185119000Y-85630160D01*
X185144964Y-85727061D01*
X185195124Y-85813940D01*
X185266060Y-85884876D01*
X185352939Y-85935036D01*
X185449840Y-85961000D01*
X185472553Y-85961000D01*
X184801283Y-86632268D01*
X184801283Y-86632269D01*
X184838567Y-86659358D01*
X184995331Y-86739234D01*
X185046127Y-86787209D01*
X185062922Y-86855030D01*
X185040384Y-86921165D01*
X184995331Y-86960204D01*
X184838305Y-87040213D01*
X184677533Y-87157021D01*
X184537021Y-87297533D01*
X184420213Y-87458305D01*
X184329994Y-87635367D01*
X184329993Y-87635370D01*
X184268587Y-87824362D01*
X184268587Y-87824364D01*
X184237500Y-88020639D01*
X184237500Y-88219361D01*
X184239227Y-88230263D01*
X184268587Y-88415637D01*
X184329993Y-88604629D01*
X184329994Y-88604632D01*
X184412470Y-88766498D01*
X184420213Y-88781694D01*
X184537019Y-88942464D01*
X184677536Y-89082981D01*
X184838306Y-89199787D01*
X184956832Y-89260179D01*
X184994780Y-89279515D01*
X185045576Y-89327490D01*
X185062371Y-89395311D01*
X185039833Y-89461446D01*
X184994780Y-89500485D01*
X184838305Y-89580213D01*
X184677533Y-89697021D01*
X184537021Y-89837533D01*
X184420213Y-89998305D01*
X184329994Y-90175367D01*
X184329993Y-90175370D01*
X184268587Y-90364362D01*
X184268587Y-90364364D01*
X184237500Y-90560639D01*
X184237500Y-90759361D01*
X184246684Y-90817345D01*
X184268587Y-90955637D01*
X184329993Y-91144629D01*
X184329994Y-91144632D01*
X184367827Y-91218882D01*
X184420213Y-91321694D01*
X184537019Y-91482464D01*
X184677536Y-91622981D01*
X184838306Y-91739787D01*
X184956832Y-91800179D01*
X184994780Y-91819515D01*
X185045576Y-91867490D01*
X185062371Y-91935311D01*
X185039833Y-92001446D01*
X184994780Y-92040485D01*
X184838305Y-92120213D01*
X184677533Y-92237021D01*
X184537021Y-92377533D01*
X184420213Y-92538305D01*
X184329994Y-92715367D01*
X184329993Y-92715370D01*
X184268587Y-92904362D01*
X184237500Y-93100639D01*
X184237500Y-93299360D01*
X184268587Y-93495637D01*
X184329993Y-93684629D01*
X184329994Y-93684632D01*
X184420213Y-93861694D01*
X184537019Y-94022464D01*
X184677536Y-94162981D01*
X184838306Y-94279787D01*
X184956832Y-94340179D01*
X184994780Y-94359515D01*
X185045576Y-94407490D01*
X185062371Y-94475311D01*
X185039833Y-94541446D01*
X184994780Y-94580485D01*
X184838305Y-94660213D01*
X184677533Y-94777021D01*
X184537021Y-94917533D01*
X184420213Y-95078305D01*
X184329994Y-95255367D01*
X184329993Y-95255370D01*
X184268587Y-95444362D01*
X184237500Y-95640639D01*
X184237500Y-95839360D01*
X184268587Y-96035637D01*
X184329993Y-96224629D01*
X184329994Y-96224632D01*
X184368361Y-96299930D01*
X184420213Y-96401694D01*
X184537019Y-96562464D01*
X184677536Y-96702981D01*
X184838306Y-96819787D01*
X184995332Y-96899796D01*
X185046127Y-96947769D01*
X185062922Y-97015590D01*
X185040385Y-97081725D01*
X184995332Y-97120764D01*
X184838566Y-97200641D01*
X184801283Y-97227729D01*
X184801282Y-97227730D01*
X185472554Y-97899000D01*
X185449840Y-97899000D01*
X185352939Y-97924964D01*
X185266060Y-97975124D01*
X185195124Y-98046060D01*
X185144964Y-98132939D01*
X185119000Y-98229840D01*
X185119000Y-98252552D01*
X184447730Y-97581282D01*
X184447729Y-97581283D01*
X184420643Y-97618564D01*
X184330457Y-97795562D01*
X184269075Y-97984476D01*
X184269075Y-97984479D01*
X184238000Y-98180678D01*
X184238000Y-98379321D01*
X184269075Y-98575520D01*
X184269075Y-98575523D01*
X184330457Y-98764437D01*
X184420641Y-98941432D01*
X184447730Y-98978715D01*
X184447731Y-98978716D01*
X185119000Y-98307447D01*
X185119000Y-98330160D01*
X185144964Y-98427061D01*
X185195124Y-98513940D01*
X185266060Y-98584876D01*
X185352939Y-98635036D01*
X185449840Y-98661000D01*
X185472553Y-98661000D01*
X184801283Y-99332268D01*
X184801283Y-99332269D01*
X184838567Y-99359358D01*
X185015562Y-99449542D01*
X185204477Y-99510924D01*
X185400679Y-99542000D01*
X185599321Y-99542000D01*
X185795520Y-99510924D01*
X185795523Y-99510924D01*
X185984437Y-99449542D01*
X186161425Y-99359362D01*
X186198716Y-99332268D01*
X185527448Y-98661000D01*
X185550160Y-98661000D01*
X185647061Y-98635036D01*
X185733940Y-98584876D01*
X185804876Y-98513940D01*
X185855036Y-98427061D01*
X185881000Y-98330160D01*
X185881000Y-98307447D01*
X186552268Y-98978715D01*
X186579362Y-98941425D01*
X186669542Y-98764437D01*
X186730924Y-98575523D01*
X186730924Y-98575520D01*
X186762000Y-98379321D01*
X186762000Y-98180678D01*
X186730924Y-97984479D01*
X186730924Y-97984476D01*
X186669542Y-97795562D01*
X186579357Y-97618565D01*
X186579356Y-97618563D01*
X186575686Y-97613512D01*
X186575684Y-97613510D01*
X186557063Y-97587882D01*
X210345669Y-97587882D01*
X210345670Y-97587883D01*
X210371059Y-97606329D01*
X210539362Y-97692085D01*
X210718997Y-97750451D01*
X210905553Y-97780000D01*
X211094447Y-97780000D01*
X211281002Y-97750451D01*
X211460637Y-97692085D01*
X211628937Y-97606331D01*
X211654328Y-97587883D01*
X211654328Y-97587882D01*
X211000001Y-96933554D01*
X211000000Y-96933554D01*
X210345669Y-97587882D01*
X186557063Y-97587882D01*
X186552268Y-97581283D01*
X185881000Y-98252551D01*
X185881000Y-98229840D01*
X185855036Y-98132939D01*
X185804876Y-98046060D01*
X185733940Y-97975124D01*
X185647061Y-97924964D01*
X185550160Y-97899000D01*
X185527447Y-97899000D01*
X186198716Y-97227731D01*
X186198715Y-97227730D01*
X186161432Y-97200641D01*
X186004668Y-97120765D01*
X185953872Y-97072790D01*
X185937077Y-97004969D01*
X185959615Y-96938834D01*
X186004667Y-96899796D01*
X186161694Y-96819787D01*
X186322464Y-96702981D01*
X186462981Y-96562464D01*
X186579787Y-96401694D01*
X186670005Y-96224632D01*
X186731413Y-96035636D01*
X186762500Y-95839361D01*
X186762500Y-95640639D01*
X186731413Y-95444364D01*
X186670005Y-95255368D01*
X186670005Y-95255367D01*
X186579786Y-95078305D01*
X186462981Y-94917536D01*
X186322464Y-94777019D01*
X186161694Y-94660213D01*
X186005218Y-94580484D01*
X185996065Y-94571840D01*
X185984399Y-94567105D01*
X185971144Y-94548303D01*
X185954423Y-94532510D01*
X185951396Y-94520289D01*
X185944142Y-94509998D01*
X185943156Y-94487015D01*
X185937628Y-94464689D01*
X185941689Y-94452771D01*
X185941150Y-94440193D01*
X185952744Y-94420329D01*
X185958945Y-94402135D01*
X193949500Y-94402135D01*
X193949500Y-96597870D01*
X193949501Y-96597876D01*
X193955908Y-96657483D01*
X194006202Y-96792328D01*
X194006206Y-96792335D01*
X194092452Y-96907544D01*
X194092455Y-96907547D01*
X194207664Y-96993793D01*
X194207671Y-96993797D01*
X194342517Y-97044091D01*
X194342516Y-97044091D01*
X194349444Y-97044835D01*
X194402127Y-97050500D01*
X196597872Y-97050499D01*
X196657483Y-97044091D01*
X196792331Y-96993796D01*
X196907546Y-96907546D01*
X196993796Y-96792331D01*
X197044091Y-96657483D01*
X197050500Y-96597873D01*
X197050500Y-96485552D01*
X209800000Y-96485552D01*
X209800000Y-96674447D01*
X209829548Y-96861002D01*
X209887914Y-97040637D01*
X209973666Y-97208933D01*
X209992116Y-97234328D01*
X210646446Y-96580000D01*
X210646446Y-96579999D01*
X210600369Y-96533922D01*
X210650000Y-96533922D01*
X210650000Y-96626078D01*
X210673852Y-96715095D01*
X210719930Y-96794905D01*
X210785095Y-96860070D01*
X210864905Y-96906148D01*
X210953922Y-96930000D01*
X211046078Y-96930000D01*
X211135095Y-96906148D01*
X211214905Y-96860070D01*
X211280070Y-96794905D01*
X211326148Y-96715095D01*
X211350000Y-96626078D01*
X211350000Y-96579999D01*
X211353554Y-96579999D01*
X211353554Y-96580000D01*
X212007882Y-97234328D01*
X212007883Y-97234328D01*
X212026331Y-97208937D01*
X212112085Y-97040637D01*
X212170451Y-96861002D01*
X212200000Y-96674447D01*
X212200000Y-96485552D01*
X212170451Y-96298997D01*
X212112085Y-96119362D01*
X212026329Y-95951059D01*
X212007883Y-95925670D01*
X212007882Y-95925669D01*
X211353554Y-96579999D01*
X211350000Y-96579999D01*
X211350000Y-96533922D01*
X211326148Y-96444905D01*
X211280070Y-96365095D01*
X211214905Y-96299930D01*
X211135095Y-96253852D01*
X211046078Y-96230000D01*
X210953922Y-96230000D01*
X210864905Y-96253852D01*
X210785095Y-96299930D01*
X210719930Y-96365095D01*
X210673852Y-96444905D01*
X210650000Y-96533922D01*
X210600369Y-96533922D01*
X209992116Y-95925669D01*
X209992116Y-95925670D01*
X209973669Y-95951060D01*
X209887914Y-96119362D01*
X209829548Y-96298997D01*
X209800000Y-96485552D01*
X197050500Y-96485552D01*
X197050499Y-95572116D01*
X210345669Y-95572116D01*
X211000000Y-96226446D01*
X211000001Y-96226446D01*
X211654328Y-95572116D01*
X211628933Y-95553666D01*
X211460637Y-95467914D01*
X211281002Y-95409548D01*
X211094447Y-95380000D01*
X210905553Y-95380000D01*
X210718997Y-95409548D01*
X210539362Y-95467914D01*
X210371060Y-95553669D01*
X210345670Y-95572116D01*
X210345669Y-95572116D01*
X197050499Y-95572116D01*
X197050499Y-95467914D01*
X197050499Y-94402129D01*
X197050498Y-94402123D01*
X197050497Y-94402116D01*
X197044091Y-94342517D01*
X197023877Y-94288321D01*
X196993797Y-94207671D01*
X196993793Y-94207664D01*
X196907547Y-94092455D01*
X196907544Y-94092452D01*
X196792335Y-94006206D01*
X196792328Y-94006202D01*
X196657482Y-93955908D01*
X196657483Y-93955908D01*
X196597883Y-93949501D01*
X196597881Y-93949500D01*
X196597873Y-93949500D01*
X196597864Y-93949500D01*
X194402129Y-93949500D01*
X194402123Y-93949501D01*
X194342516Y-93955908D01*
X194207671Y-94006202D01*
X194207664Y-94006206D01*
X194092455Y-94092452D01*
X194092452Y-94092455D01*
X194006206Y-94207664D01*
X194006202Y-94207671D01*
X193955908Y-94342517D01*
X193951895Y-94379851D01*
X193949501Y-94402123D01*
X193949500Y-94402135D01*
X185958945Y-94402135D01*
X185960165Y-94398554D01*
X185970868Y-94389279D01*
X185976372Y-94379851D01*
X186005217Y-94359516D01*
X186161694Y-94279787D01*
X186322464Y-94162981D01*
X186462981Y-94022464D01*
X186579787Y-93861694D01*
X186670005Y-93684632D01*
X186731413Y-93495636D01*
X186762500Y-93299361D01*
X186762500Y-93100639D01*
X186731413Y-92904364D01*
X186670005Y-92715368D01*
X186670005Y-92715367D01*
X186579786Y-92538305D01*
X186571398Y-92526760D01*
X186462981Y-92377536D01*
X186322464Y-92237019D01*
X186161694Y-92120213D01*
X186005218Y-92040484D01*
X185996065Y-92031840D01*
X185984399Y-92027105D01*
X185971144Y-92008303D01*
X185954423Y-91992510D01*
X185951396Y-91980289D01*
X185944142Y-91969998D01*
X185943156Y-91947015D01*
X185937628Y-91924689D01*
X185941689Y-91912771D01*
X185941150Y-91900193D01*
X185952744Y-91880329D01*
X185953547Y-91877973D01*
X193949500Y-91877973D01*
X193949500Y-92122026D01*
X193974849Y-92282075D01*
X193987679Y-92363076D01*
X194040863Y-92526760D01*
X194063097Y-92595187D01*
X194173896Y-92812642D01*
X194317339Y-93010076D01*
X194317343Y-93010081D01*
X194489918Y-93182656D01*
X194489923Y-93182660D01*
X194662136Y-93307779D01*
X194687361Y-93326106D01*
X194904815Y-93436904D01*
X195136924Y-93512321D01*
X195377973Y-93550500D01*
X195377974Y-93550500D01*
X195622026Y-93550500D01*
X195622027Y-93550500D01*
X195863076Y-93512321D01*
X196095185Y-93436904D01*
X196312639Y-93326106D01*
X196510083Y-93182655D01*
X196682655Y-93010083D01*
X196826106Y-92812639D01*
X196936904Y-92595185D01*
X197012321Y-92363076D01*
X197050500Y-92122027D01*
X197050500Y-91877973D01*
X197012321Y-91636924D01*
X196937131Y-91405513D01*
X209799500Y-91405513D01*
X209799500Y-91594486D01*
X209829059Y-91781118D01*
X209887454Y-91960836D01*
X209922693Y-92029995D01*
X209973240Y-92129199D01*
X210084310Y-92282073D01*
X210217927Y-92415690D01*
X210370801Y-92526760D01*
X210450347Y-92567290D01*
X210539163Y-92612545D01*
X210539165Y-92612545D01*
X210539168Y-92612547D01*
X210635497Y-92643846D01*
X210718881Y-92670940D01*
X210905514Y-92700500D01*
X210905519Y-92700500D01*
X211094486Y-92700500D01*
X211281118Y-92670940D01*
X211460832Y-92612547D01*
X211629199Y-92526760D01*
X211782073Y-92415690D01*
X211915690Y-92282073D01*
X212026760Y-92129199D01*
X212112547Y-91960832D01*
X212170940Y-91781118D01*
X212177486Y-91739786D01*
X212200500Y-91594486D01*
X212200500Y-91405513D01*
X212170940Y-91218881D01*
X212112545Y-91039163D01*
X212026759Y-90870800D01*
X211915690Y-90717927D01*
X211782073Y-90584310D01*
X211629199Y-90473240D01*
X211460836Y-90387454D01*
X211281118Y-90329059D01*
X211094486Y-90299500D01*
X211094481Y-90299500D01*
X210905519Y-90299500D01*
X210905514Y-90299500D01*
X210718881Y-90329059D01*
X210539163Y-90387454D01*
X210370800Y-90473240D01*
X210283579Y-90536610D01*
X210217927Y-90584310D01*
X210217925Y-90584312D01*
X210217924Y-90584312D01*
X210084312Y-90717924D01*
X210084312Y-90717925D01*
X210084310Y-90717927D01*
X210054207Y-90759360D01*
X209973240Y-90870800D01*
X209887454Y-91039163D01*
X209829059Y-91218881D01*
X209799500Y-91405513D01*
X196937131Y-91405513D01*
X196936904Y-91404815D01*
X196936902Y-91404812D01*
X196936902Y-91404810D01*
X196894552Y-91321694D01*
X196826106Y-91187361D01*
X196795062Y-91144632D01*
X196682660Y-90989923D01*
X196682656Y-90989918D01*
X196510081Y-90817343D01*
X196510076Y-90817339D01*
X196312642Y-90673896D01*
X196312641Y-90673895D01*
X196312639Y-90673894D01*
X196095185Y-90563096D01*
X195863076Y-90487679D01*
X195863074Y-90487678D01*
X195863072Y-90487678D01*
X195694769Y-90461021D01*
X195622027Y-90449500D01*
X195377973Y-90449500D01*
X195322093Y-90458350D01*
X195136927Y-90487678D01*
X194904812Y-90563097D01*
X194687357Y-90673896D01*
X194489923Y-90817339D01*
X194489918Y-90817343D01*
X194317343Y-90989918D01*
X194317339Y-90989923D01*
X194173896Y-91187357D01*
X194063097Y-91404812D01*
X193987678Y-91636927D01*
X193949500Y-91877973D01*
X185953547Y-91877973D01*
X185960165Y-91858554D01*
X185970868Y-91849279D01*
X185976372Y-91839851D01*
X186005217Y-91819516D01*
X186161694Y-91739787D01*
X186322464Y-91622981D01*
X186462981Y-91482464D01*
X186579787Y-91321694D01*
X186670005Y-91144632D01*
X186731413Y-90955636D01*
X186762500Y-90759361D01*
X186762500Y-90560639D01*
X186731413Y-90364364D01*
X186670005Y-90175368D01*
X186670005Y-90175367D01*
X186579786Y-89998305D01*
X186462981Y-89837536D01*
X186322464Y-89697019D01*
X186161694Y-89580213D01*
X186005218Y-89500484D01*
X185954423Y-89452510D01*
X185937628Y-89384689D01*
X185960165Y-89318554D01*
X186005218Y-89279515D01*
X186161694Y-89199787D01*
X186322464Y-89082981D01*
X186462981Y-88942464D01*
X186579787Y-88781694D01*
X186670005Y-88604632D01*
X186731413Y-88415636D01*
X186762500Y-88219361D01*
X186762500Y-88020639D01*
X186731413Y-87824364D01*
X186670005Y-87635368D01*
X186670005Y-87635367D01*
X186579786Y-87458305D01*
X186462981Y-87297536D01*
X186322464Y-87157019D01*
X186161694Y-87040213D01*
X186004667Y-86960203D01*
X185953872Y-86912229D01*
X185937077Y-86844408D01*
X185959614Y-86778273D01*
X186004669Y-86739234D01*
X186161422Y-86659364D01*
X186198716Y-86632268D01*
X185527448Y-85961000D01*
X185550160Y-85961000D01*
X185647061Y-85935036D01*
X185733940Y-85884876D01*
X185804876Y-85813940D01*
X185855036Y-85727061D01*
X185881000Y-85630160D01*
X185881000Y-85607447D01*
X186552268Y-86278715D01*
X186579362Y-86241425D01*
X186669542Y-86064437D01*
X186730924Y-85875523D01*
X186730924Y-85875520D01*
X186762000Y-85679321D01*
X186762000Y-85480677D01*
X186748034Y-85392498D01*
X186745733Y-85377973D01*
X192949500Y-85377973D01*
X192949500Y-85622026D01*
X192985019Y-85846286D01*
X192987679Y-85863076D01*
X193063096Y-86095185D01*
X193156609Y-86278716D01*
X193173896Y-86312642D01*
X193317339Y-86510076D01*
X193317343Y-86510081D01*
X193489918Y-86682656D01*
X193489923Y-86682660D01*
X193610287Y-86770109D01*
X193687361Y-86826106D01*
X193904815Y-86936904D01*
X194136924Y-87012321D01*
X194377973Y-87050500D01*
X194377974Y-87050500D01*
X194622026Y-87050500D01*
X194622027Y-87050500D01*
X194863076Y-87012321D01*
X195095185Y-86936904D01*
X195312639Y-86826106D01*
X195510083Y-86682655D01*
X195682655Y-86510083D01*
X195826106Y-86312639D01*
X195936904Y-86095185D01*
X196012321Y-85863076D01*
X196050500Y-85622027D01*
X196050500Y-85389778D01*
X209599500Y-85389778D01*
X209599500Y-85610221D01*
X209633985Y-85827952D01*
X209702103Y-86037603D01*
X209702104Y-86037606D01*
X209802187Y-86234025D01*
X209931752Y-86412358D01*
X209931756Y-86412363D01*
X209981928Y-86462535D01*
X210015413Y-86523858D01*
X210010429Y-86593550D01*
X209968557Y-86649483D01*
X209937581Y-86666398D01*
X209857669Y-86696203D01*
X209857664Y-86696206D01*
X209742455Y-86782452D01*
X209742452Y-86782455D01*
X209656206Y-86897664D01*
X209656202Y-86897671D01*
X209605908Y-87032517D01*
X209603250Y-87057246D01*
X209599501Y-87092123D01*
X209599500Y-87092135D01*
X209599500Y-88987870D01*
X209599501Y-88987876D01*
X209605908Y-89047483D01*
X209656202Y-89182328D01*
X209656206Y-89182335D01*
X209742452Y-89297544D01*
X209742455Y-89297547D01*
X209857664Y-89383793D01*
X209857671Y-89383797D01*
X209992517Y-89434091D01*
X209992516Y-89434091D01*
X209999444Y-89434835D01*
X210052127Y-89440500D01*
X211947872Y-89440499D01*
X212007483Y-89434091D01*
X212142331Y-89383796D01*
X212257546Y-89297546D01*
X212343796Y-89182331D01*
X212394091Y-89047483D01*
X212400500Y-88987873D01*
X212400499Y-87092128D01*
X212394091Y-87032517D01*
X212386558Y-87012321D01*
X212343797Y-86897671D01*
X212343793Y-86897664D01*
X212257547Y-86782455D01*
X212257544Y-86782452D01*
X212142335Y-86696206D01*
X212142328Y-86696202D01*
X212062419Y-86666398D01*
X212006485Y-86624527D01*
X211982068Y-86559062D01*
X211996920Y-86490789D01*
X212018069Y-86462537D01*
X212068242Y-86412365D01*
X212197815Y-86234022D01*
X212297895Y-86037606D01*
X212366015Y-85827951D01*
X212400500Y-85610222D01*
X212400500Y-85389778D01*
X212366015Y-85172049D01*
X212297895Y-84962394D01*
X212297895Y-84962393D01*
X212256566Y-84881282D01*
X212197815Y-84765978D01*
X212140694Y-84687357D01*
X212068247Y-84587641D01*
X212068243Y-84587636D01*
X211912363Y-84431756D01*
X211912358Y-84431752D01*
X211734025Y-84302187D01*
X211734024Y-84302186D01*
X211734022Y-84302185D01*
X211627226Y-84247769D01*
X211537606Y-84202104D01*
X211537603Y-84202103D01*
X211327952Y-84133985D01*
X211219086Y-84116742D01*
X211110222Y-84099500D01*
X210889778Y-84099500D01*
X210817201Y-84110995D01*
X210672047Y-84133985D01*
X210462396Y-84202103D01*
X210462393Y-84202104D01*
X210265974Y-84302187D01*
X210087641Y-84431752D01*
X210087636Y-84431756D01*
X209931756Y-84587636D01*
X209931752Y-84587641D01*
X209802187Y-84765974D01*
X209702104Y-84962393D01*
X209702103Y-84962396D01*
X209633985Y-85172047D01*
X209599500Y-85389778D01*
X196050500Y-85389778D01*
X196050500Y-85377973D01*
X196012321Y-85136924D01*
X195936904Y-84904815D01*
X195826106Y-84687361D01*
X195762997Y-84600499D01*
X195682660Y-84489923D01*
X195682656Y-84489918D01*
X195510081Y-84317343D01*
X195510076Y-84317339D01*
X195312642Y-84173896D01*
X195312641Y-84173895D01*
X195312639Y-84173894D01*
X195095185Y-84063096D01*
X194863076Y-83987679D01*
X194863074Y-83987678D01*
X194863072Y-83987678D01*
X194694769Y-83961021D01*
X194622027Y-83949500D01*
X194377973Y-83949500D01*
X194322093Y-83958350D01*
X194136927Y-83987678D01*
X193904812Y-84063097D01*
X193687357Y-84173896D01*
X193489923Y-84317339D01*
X193489918Y-84317343D01*
X193317343Y-84489918D01*
X193317339Y-84489923D01*
X193173896Y-84687357D01*
X193063097Y-84904812D01*
X193063096Y-84904814D01*
X193063096Y-84904815D01*
X193058629Y-84918564D01*
X192987678Y-85136927D01*
X192949500Y-85377973D01*
X186745733Y-85377973D01*
X186730924Y-85284479D01*
X186730924Y-85284476D01*
X186669542Y-85095562D01*
X186579358Y-84918567D01*
X186552268Y-84881283D01*
X185881000Y-85552551D01*
X185881000Y-85529840D01*
X185855036Y-85432939D01*
X185804876Y-85346060D01*
X185733940Y-85275124D01*
X185647061Y-85224964D01*
X185550160Y-85199000D01*
X185527447Y-85199000D01*
X186198716Y-84527731D01*
X186198715Y-84527730D01*
X186161432Y-84500641D01*
X186004668Y-84420765D01*
X185953872Y-84372790D01*
X185937077Y-84304969D01*
X185959615Y-84238834D01*
X186004667Y-84199796D01*
X186161694Y-84119787D01*
X186322464Y-84002981D01*
X186462981Y-83862464D01*
X186579787Y-83701694D01*
X186670005Y-83524632D01*
X186731413Y-83335636D01*
X186762500Y-83139361D01*
X186762500Y-82940639D01*
X186731413Y-82744364D01*
X186695307Y-82633239D01*
X186670006Y-82555370D01*
X186670005Y-82555367D01*
X186601620Y-82421155D01*
X186579787Y-82378306D01*
X186462981Y-82217536D01*
X186322464Y-82077019D01*
X186161694Y-81960213D01*
X186005218Y-81880484D01*
X185954423Y-81832510D01*
X185937628Y-81764689D01*
X185960165Y-81698554D01*
X186005218Y-81659515D01*
X186161694Y-81579787D01*
X186322464Y-81462981D01*
X186462981Y-81322464D01*
X186579787Y-81161694D01*
X186670005Y-80984632D01*
X186696810Y-80902135D01*
X192949500Y-80902135D01*
X192949500Y-83097870D01*
X192949501Y-83097876D01*
X192955908Y-83157483D01*
X193006202Y-83292328D01*
X193006206Y-83292335D01*
X193092452Y-83407544D01*
X193092455Y-83407547D01*
X193207664Y-83493793D01*
X193207671Y-83493797D01*
X193342517Y-83544091D01*
X193342516Y-83544091D01*
X193349444Y-83544835D01*
X193402127Y-83550500D01*
X195597872Y-83550499D01*
X195657483Y-83544091D01*
X195792331Y-83493796D01*
X195907546Y-83407546D01*
X195993796Y-83292331D01*
X196044091Y-83157483D01*
X196050500Y-83097873D01*
X196050499Y-80902128D01*
X196044091Y-80842517D01*
X195993796Y-80707669D01*
X195993795Y-80707668D01*
X195993793Y-80707664D01*
X195907547Y-80592455D01*
X195907544Y-80592452D01*
X195792335Y-80506206D01*
X195792328Y-80506202D01*
X195657482Y-80455908D01*
X195657483Y-80455908D01*
X195597883Y-80449501D01*
X195597881Y-80449500D01*
X195597873Y-80449500D01*
X195597864Y-80449500D01*
X193402129Y-80449500D01*
X193402123Y-80449501D01*
X193342516Y-80455908D01*
X193207671Y-80506202D01*
X193207664Y-80506206D01*
X193092455Y-80592452D01*
X193092452Y-80592455D01*
X193006206Y-80707664D01*
X193006202Y-80707671D01*
X192955908Y-80842517D01*
X192949501Y-80902116D01*
X192949501Y-80902123D01*
X192949500Y-80902135D01*
X186696810Y-80902135D01*
X186696812Y-80902128D01*
X186710342Y-80860488D01*
X186723471Y-80820080D01*
X186731413Y-80795636D01*
X186762500Y-80599361D01*
X186762500Y-80400639D01*
X186731413Y-80204364D01*
X186677738Y-80039168D01*
X186670006Y-80015370D01*
X186670005Y-80015367D01*
X186596344Y-79870801D01*
X186579787Y-79838306D01*
X186496767Y-79724038D01*
X201199500Y-79724038D01*
X201199500Y-81275962D01*
X201221631Y-81415690D01*
X201238910Y-81524785D01*
X201316760Y-81764383D01*
X201374759Y-81878211D01*
X201416541Y-81960213D01*
X201431132Y-81988848D01*
X201579201Y-82192649D01*
X201579205Y-82192654D01*
X201757345Y-82370794D01*
X201757350Y-82370798D01*
X201827615Y-82421848D01*
X201961155Y-82518870D01*
X202078857Y-82578842D01*
X202185616Y-82633239D01*
X202185618Y-82633239D01*
X202185621Y-82633241D01*
X202425215Y-82711090D01*
X202674038Y-82750500D01*
X202674039Y-82750500D01*
X202925961Y-82750500D01*
X202925962Y-82750500D01*
X203174785Y-82711090D01*
X203414379Y-82633241D01*
X203638845Y-82518870D01*
X203842656Y-82370793D01*
X204020793Y-82192656D01*
X204084598Y-82104835D01*
X204139924Y-82062172D01*
X204209537Y-82056191D01*
X204241209Y-82067237D01*
X204420162Y-82158418D01*
X204607283Y-82219218D01*
X204650000Y-82225984D01*
X204650000Y-80815686D01*
X204654394Y-80820080D01*
X204745606Y-80872741D01*
X204847339Y-80900000D01*
X204952661Y-80900000D01*
X205054394Y-80872741D01*
X205145606Y-80820080D01*
X205150000Y-80815686D01*
X205150000Y-82225983D01*
X205192716Y-82219218D01*
X205379837Y-82158418D01*
X205555143Y-82069095D01*
X205714321Y-81953444D01*
X205714322Y-81953443D01*
X205811965Y-81855801D01*
X205873288Y-81822316D01*
X205942980Y-81827300D01*
X205987327Y-81855801D01*
X206085354Y-81953828D01*
X206244595Y-82069524D01*
X206313903Y-82104838D01*
X206419970Y-82158882D01*
X206419972Y-82158882D01*
X206419975Y-82158884D01*
X206520317Y-82191487D01*
X206607173Y-82219709D01*
X206801578Y-82250500D01*
X206801583Y-82250500D01*
X206998422Y-82250500D01*
X207192826Y-82219709D01*
X207272574Y-82193797D01*
X207380025Y-82158884D01*
X207555405Y-82069524D01*
X207591614Y-82043215D01*
X207657417Y-82019736D01*
X207725471Y-82035560D01*
X207763763Y-82069220D01*
X207792454Y-82107546D01*
X207792455Y-82107546D01*
X207792456Y-82107548D01*
X207907664Y-82193793D01*
X207907671Y-82193797D01*
X208042517Y-82244091D01*
X208042516Y-82244091D01*
X208049444Y-82244835D01*
X208102127Y-82250500D01*
X209697872Y-82250499D01*
X209757483Y-82244091D01*
X209757486Y-82244089D01*
X209764554Y-82243330D01*
X209833314Y-82255736D01*
X209865490Y-82278939D01*
X209957345Y-82370794D01*
X209957350Y-82370798D01*
X210027615Y-82421848D01*
X210161155Y-82518870D01*
X210278857Y-82578842D01*
X210385616Y-82633239D01*
X210385618Y-82633239D01*
X210385621Y-82633241D01*
X210625215Y-82711090D01*
X210874038Y-82750500D01*
X210874039Y-82750500D01*
X211125961Y-82750500D01*
X211125962Y-82750500D01*
X211374785Y-82711090D01*
X211614379Y-82633241D01*
X211838845Y-82518870D01*
X212042656Y-82370793D01*
X212220793Y-82192656D01*
X212368870Y-81988845D01*
X212483241Y-81764379D01*
X212561090Y-81524785D01*
X212600500Y-81275962D01*
X212600500Y-80405513D01*
X214219500Y-80405513D01*
X214219500Y-80594486D01*
X214249059Y-80781118D01*
X214307454Y-80960836D01*
X214377556Y-81098417D01*
X214393240Y-81129199D01*
X214504310Y-81282073D01*
X214637927Y-81415690D01*
X214790801Y-81526760D01*
X214816378Y-81539792D01*
X214959163Y-81612545D01*
X214959165Y-81612545D01*
X214959168Y-81612547D01*
X215055497Y-81643846D01*
X215138881Y-81670940D01*
X215325514Y-81700500D01*
X215325519Y-81700500D01*
X215514486Y-81700500D01*
X215701118Y-81670940D01*
X215736280Y-81659515D01*
X215880832Y-81612547D01*
X216049199Y-81526760D01*
X216202073Y-81415690D01*
X216335690Y-81282073D01*
X216446760Y-81129199D01*
X216532547Y-80960832D01*
X216590940Y-80781118D01*
X216593289Y-80766286D01*
X216620500Y-80594486D01*
X216620500Y-80405513D01*
X219299500Y-80405513D01*
X219299500Y-80594486D01*
X219329059Y-80781118D01*
X219387454Y-80960836D01*
X219457556Y-81098417D01*
X219473240Y-81129199D01*
X219584310Y-81282073D01*
X219717927Y-81415690D01*
X219870801Y-81526760D01*
X219896378Y-81539792D01*
X220039163Y-81612545D01*
X220039165Y-81612545D01*
X220039168Y-81612547D01*
X220135497Y-81643846D01*
X220218881Y-81670940D01*
X220405514Y-81700500D01*
X220405519Y-81700500D01*
X220594486Y-81700500D01*
X220781118Y-81670940D01*
X220816280Y-81659515D01*
X220960832Y-81612547D01*
X221129199Y-81526760D01*
X221282073Y-81415690D01*
X221415690Y-81282073D01*
X221526760Y-81129199D01*
X221612547Y-80960832D01*
X221670940Y-80781118D01*
X221673289Y-80766286D01*
X221700500Y-80594486D01*
X221700500Y-80405513D01*
X221670940Y-80218881D01*
X221612545Y-80039163D01*
X221526759Y-79870800D01*
X221415690Y-79717927D01*
X221282073Y-79584310D01*
X221129199Y-79473240D01*
X221088518Y-79452512D01*
X220960836Y-79387454D01*
X220781118Y-79329059D01*
X220594486Y-79299500D01*
X220594481Y-79299500D01*
X220405519Y-79299500D01*
X220405514Y-79299500D01*
X220218881Y-79329059D01*
X220039163Y-79387454D01*
X219870800Y-79473240D01*
X219806476Y-79519975D01*
X219717927Y-79584310D01*
X219717925Y-79584312D01*
X219717924Y-79584312D01*
X219584312Y-79717924D01*
X219584312Y-79717925D01*
X219584310Y-79717927D01*
X219539060Y-79780208D01*
X219473240Y-79870800D01*
X219387454Y-80039163D01*
X219329059Y-80218881D01*
X219299500Y-80405513D01*
X216620500Y-80405513D01*
X216590940Y-80218881D01*
X216532545Y-80039163D01*
X216446759Y-79870800D01*
X216335690Y-79717927D01*
X216202073Y-79584310D01*
X216049199Y-79473240D01*
X216008518Y-79452512D01*
X215880836Y-79387454D01*
X215701118Y-79329059D01*
X215514486Y-79299500D01*
X215514481Y-79299500D01*
X215325519Y-79299500D01*
X215325514Y-79299500D01*
X215138881Y-79329059D01*
X214959163Y-79387454D01*
X214790800Y-79473240D01*
X214726476Y-79519975D01*
X214637927Y-79584310D01*
X214637925Y-79584312D01*
X214637924Y-79584312D01*
X214504312Y-79717924D01*
X214504312Y-79717925D01*
X214504310Y-79717927D01*
X214459060Y-79780208D01*
X214393240Y-79870800D01*
X214307454Y-80039163D01*
X214249059Y-80218881D01*
X214219500Y-80405513D01*
X212600500Y-80405513D01*
X212600500Y-79724038D01*
X212561090Y-79475215D01*
X212483241Y-79235621D01*
X212483239Y-79235618D01*
X212483239Y-79235616D01*
X212441747Y-79154184D01*
X212368870Y-79011155D01*
X212311914Y-78932762D01*
X212220798Y-78807350D01*
X212220794Y-78807345D01*
X212042654Y-78629205D01*
X212042649Y-78629201D01*
X211838848Y-78481132D01*
X211838847Y-78481131D01*
X211838845Y-78481130D01*
X211750749Y-78436243D01*
X211614383Y-78366760D01*
X211374785Y-78288910D01*
X211125962Y-78249500D01*
X210874038Y-78249500D01*
X210749626Y-78269205D01*
X210625214Y-78288910D01*
X210385616Y-78366760D01*
X210161151Y-78481132D01*
X209957350Y-78629200D01*
X209865487Y-78721062D01*
X209804163Y-78754546D01*
X209764553Y-78756669D01*
X209755522Y-78755698D01*
X209697873Y-78749500D01*
X209697865Y-78749500D01*
X208102129Y-78749500D01*
X208102123Y-78749501D01*
X208042516Y-78755908D01*
X207907671Y-78806202D01*
X207907664Y-78806206D01*
X207792455Y-78892452D01*
X207763765Y-78930777D01*
X207707830Y-78972648D01*
X207638139Y-78977631D01*
X207591613Y-78956783D01*
X207555405Y-78930476D01*
X207380029Y-78841117D01*
X207192826Y-78780290D01*
X206998422Y-78749500D01*
X206998417Y-78749500D01*
X206801583Y-78749500D01*
X206801578Y-78749500D01*
X206607173Y-78780290D01*
X206419970Y-78841117D01*
X206244594Y-78930476D01*
X206179692Y-78977631D01*
X206085354Y-79046172D01*
X206085352Y-79046174D01*
X206085350Y-79046175D01*
X205987325Y-79144199D01*
X205926002Y-79177683D01*
X205856310Y-79172698D01*
X205811964Y-79144198D01*
X205714321Y-79046555D01*
X205555143Y-78930904D01*
X205379835Y-78841581D01*
X205192705Y-78780778D01*
X205150000Y-78774014D01*
X205150000Y-80184314D01*
X205145606Y-80179920D01*
X205054394Y-80127259D01*
X204952661Y-80100000D01*
X204847339Y-80100000D01*
X204745606Y-80127259D01*
X204654394Y-80179920D01*
X204650000Y-80184314D01*
X204650000Y-78774014D01*
X204649999Y-78774014D01*
X204607294Y-78780778D01*
X204420161Y-78841582D01*
X204241209Y-78932762D01*
X204172540Y-78945658D01*
X204107800Y-78919381D01*
X204084597Y-78895162D01*
X204020798Y-78807350D01*
X204020794Y-78807345D01*
X203842654Y-78629205D01*
X203842649Y-78629201D01*
X203638848Y-78481132D01*
X203638847Y-78481131D01*
X203638845Y-78481130D01*
X203550749Y-78436243D01*
X203414383Y-78366760D01*
X203174785Y-78288910D01*
X202925962Y-78249500D01*
X202674038Y-78249500D01*
X202549626Y-78269205D01*
X202425214Y-78288910D01*
X202185616Y-78366760D01*
X201961151Y-78481132D01*
X201757350Y-78629201D01*
X201757345Y-78629205D01*
X201579205Y-78807345D01*
X201579201Y-78807350D01*
X201431132Y-79011151D01*
X201316760Y-79235616D01*
X201238910Y-79475214D01*
X201234200Y-79504951D01*
X201199500Y-79724038D01*
X186496767Y-79724038D01*
X186462981Y-79677536D01*
X186322464Y-79537019D01*
X186161694Y-79420213D01*
X186138594Y-79408443D01*
X185984632Y-79329994D01*
X185984629Y-79329993D01*
X185795637Y-79268587D01*
X185697498Y-79253043D01*
X185599361Y-79237500D01*
X185400639Y-79237500D01*
X185335214Y-79247862D01*
X185204362Y-79268587D01*
X185015370Y-79329993D01*
X185015367Y-79329994D01*
X184838305Y-79420213D01*
X184677533Y-79537021D01*
X184537021Y-79677533D01*
X184420213Y-79838305D01*
X184329994Y-80015367D01*
X184329993Y-80015370D01*
X184268587Y-80204362D01*
X184237500Y-80400639D01*
X171762500Y-80400639D01*
X171731413Y-80204364D01*
X171677738Y-80039168D01*
X171670006Y-80015370D01*
X171670005Y-80015367D01*
X171596344Y-79870801D01*
X171579787Y-79838306D01*
X171462981Y-79677536D01*
X171322464Y-79537019D01*
X171161694Y-79420213D01*
X171138594Y-79408443D01*
X170984632Y-79329994D01*
X170984629Y-79329993D01*
X170795637Y-79268587D01*
X170697498Y-79253043D01*
X170599361Y-79237500D01*
X170400639Y-79237500D01*
X170335214Y-79247862D01*
X170204362Y-79268587D01*
X170015370Y-79329993D01*
X170015367Y-79329994D01*
X169838305Y-79420213D01*
X169677533Y-79537021D01*
X169537021Y-79677533D01*
X169420213Y-79838305D01*
X169329994Y-80015367D01*
X169329993Y-80015370D01*
X169268587Y-80204362D01*
X169237500Y-80400639D01*
X155326255Y-80400639D01*
X155317246Y-80343757D01*
X155251557Y-80141588D01*
X155155051Y-79952184D01*
X155155049Y-79952181D01*
X155155048Y-79952179D01*
X155030109Y-79780213D01*
X154879786Y-79629890D01*
X154707820Y-79504951D01*
X154707115Y-79504591D01*
X154699054Y-79500485D01*
X154648259Y-79452512D01*
X154631463Y-79384692D01*
X154653999Y-79318556D01*
X154699054Y-79279515D01*
X154707816Y-79275051D01*
X154762094Y-79235616D01*
X154879786Y-79150109D01*
X154879788Y-79150106D01*
X154879792Y-79150104D01*
X155030104Y-78999792D01*
X155030106Y-78999788D01*
X155030109Y-78999786D01*
X155155048Y-78827820D01*
X155155047Y-78827820D01*
X155155051Y-78827816D01*
X155251557Y-78638412D01*
X155317246Y-78436243D01*
X155350500Y-78226287D01*
X155350500Y-78013713D01*
X155317246Y-77803757D01*
X155251557Y-77601588D01*
X155155051Y-77412184D01*
X155155049Y-77412181D01*
X155155048Y-77412179D01*
X155030109Y-77240213D01*
X154879786Y-77089890D01*
X154707820Y-76964951D01*
X154707115Y-76964591D01*
X154699054Y-76960485D01*
X154648259Y-76912512D01*
X154631463Y-76844692D01*
X154653999Y-76778556D01*
X154699054Y-76739515D01*
X154707816Y-76735051D01*
X154729789Y-76719086D01*
X154879786Y-76610109D01*
X154879788Y-76610106D01*
X154879792Y-76610104D01*
X155030104Y-76459792D01*
X155030106Y-76459788D01*
X155030109Y-76459786D01*
X155155048Y-76287820D01*
X155155047Y-76287820D01*
X155155051Y-76287816D01*
X155251557Y-76098412D01*
X155317246Y-75896243D01*
X155350500Y-75686287D01*
X155350500Y-75473713D01*
X155317246Y-75263757D01*
X155251557Y-75061588D01*
X155155051Y-74872184D01*
X155155049Y-74872181D01*
X155155048Y-74872179D01*
X155030109Y-74700213D01*
X154879790Y-74549894D01*
X154879785Y-74549890D01*
X154806831Y-74496886D01*
X154806795Y-74496861D01*
X154707816Y-74424949D01*
X154691489Y-74416630D01*
X154684526Y-74411785D01*
X154667735Y-74390906D01*
X154648259Y-74372512D01*
X154646174Y-74364094D01*
X154640740Y-74357337D01*
X154637903Y-74330697D01*
X154631463Y-74304692D01*
X154634260Y-74296483D01*
X154633342Y-74287860D01*
X154645357Y-74263915D01*
X154653999Y-74238556D01*
X154661226Y-74232293D01*
X154664679Y-74225413D01*
X154678843Y-74217027D01*
X154699054Y-74199515D01*
X154707816Y-74195051D01*
X154774716Y-74146446D01*
X154879786Y-74070109D01*
X154879788Y-74070106D01*
X154879792Y-74070104D01*
X155030104Y-73919792D01*
X155030106Y-73919788D01*
X155030109Y-73919786D01*
X155155048Y-73747820D01*
X155155047Y-73747820D01*
X155155051Y-73747816D01*
X155251557Y-73558412D01*
X155317246Y-73356243D01*
X155350500Y-73146287D01*
X155350500Y-72933713D01*
X155317246Y-72723757D01*
X155251557Y-72521588D01*
X155155051Y-72332184D01*
X155155049Y-72332181D01*
X155155048Y-72332179D01*
X155030109Y-72160213D01*
X154879786Y-72009890D01*
X154707817Y-71884949D01*
X154698504Y-71880204D01*
X154647707Y-71832230D01*
X154630912Y-71764409D01*
X154653449Y-71698274D01*
X154698507Y-71659232D01*
X154707555Y-71654622D01*
X154761716Y-71615270D01*
X154761717Y-71615270D01*
X154427599Y-71281153D01*
X163199500Y-71281153D01*
X163199500Y-71438846D01*
X163230261Y-71593489D01*
X163230264Y-71593501D01*
X163290602Y-71739172D01*
X163290609Y-71739185D01*
X163378602Y-71870874D01*
X163384252Y-71888920D01*
X163394477Y-71904830D01*
X163398928Y-71935789D01*
X163399480Y-71937551D01*
X163399500Y-71939765D01*
X163399500Y-71980234D01*
X163379815Y-72047273D01*
X163378602Y-72049125D01*
X163290609Y-72180814D01*
X163290602Y-72180827D01*
X163230264Y-72326498D01*
X163230261Y-72326510D01*
X163199500Y-72481153D01*
X163199500Y-72638846D01*
X163230261Y-72793489D01*
X163230264Y-72793501D01*
X163290602Y-72939172D01*
X163290609Y-72939185D01*
X163378210Y-73070288D01*
X163378213Y-73070292D01*
X163489707Y-73181786D01*
X163489711Y-73181789D01*
X163620814Y-73269390D01*
X163620827Y-73269397D01*
X163766498Y-73329735D01*
X163766503Y-73329737D01*
X163883147Y-73352939D01*
X163921153Y-73360499D01*
X163921156Y-73360500D01*
X163921158Y-73360500D01*
X164078844Y-73360500D01*
X164078845Y-73360499D01*
X164233497Y-73329737D01*
X164379179Y-73269394D01*
X164510289Y-73181789D01*
X164621789Y-73070289D01*
X164709394Y-72939179D01*
X164769737Y-72793497D01*
X164800500Y-72638842D01*
X164800500Y-72481158D01*
X164800500Y-72481155D01*
X164800499Y-72481153D01*
X164793851Y-72447730D01*
X164769737Y-72326503D01*
X164733078Y-72238000D01*
X164709397Y-72180827D01*
X164709390Y-72180814D01*
X164621398Y-72049125D01*
X164615747Y-72031078D01*
X164605523Y-72015169D01*
X164601071Y-71984207D01*
X164600520Y-71982447D01*
X164600500Y-71980234D01*
X164600500Y-71939765D01*
X164620185Y-71872726D01*
X164621398Y-71870874D01*
X164709390Y-71739185D01*
X164709390Y-71739184D01*
X164709394Y-71739179D01*
X164769737Y-71593497D01*
X164800500Y-71438842D01*
X164800500Y-71281158D01*
X164800500Y-71281155D01*
X164800499Y-71281153D01*
X165699500Y-71281153D01*
X165699500Y-71438846D01*
X165730261Y-71593489D01*
X165730264Y-71593501D01*
X165790602Y-71739172D01*
X165790609Y-71739185D01*
X165878602Y-71870874D01*
X165884252Y-71888920D01*
X165894477Y-71904830D01*
X165898928Y-71935789D01*
X165899480Y-71937551D01*
X165899500Y-71939765D01*
X165899500Y-71980234D01*
X165879815Y-72047273D01*
X165878602Y-72049125D01*
X165790609Y-72180814D01*
X165790602Y-72180827D01*
X165730264Y-72326498D01*
X165730261Y-72326510D01*
X165699500Y-72481153D01*
X165699500Y-72638846D01*
X165730261Y-72793489D01*
X165730264Y-72793501D01*
X165790602Y-72939172D01*
X165790609Y-72939185D01*
X165878210Y-73070288D01*
X165878213Y-73070292D01*
X165989707Y-73181786D01*
X165989711Y-73181789D01*
X166120814Y-73269390D01*
X166120827Y-73269397D01*
X166266498Y-73329735D01*
X166266503Y-73329737D01*
X166383147Y-73352939D01*
X166421153Y-73360499D01*
X166421156Y-73360500D01*
X166421158Y-73360500D01*
X166578844Y-73360500D01*
X166578845Y-73360499D01*
X166733497Y-73329737D01*
X166879179Y-73269394D01*
X167010289Y-73181789D01*
X167121789Y-73070289D01*
X167209394Y-72939179D01*
X167269737Y-72793497D01*
X167300500Y-72638842D01*
X167300500Y-72481158D01*
X167300500Y-72481155D01*
X167300499Y-72481153D01*
X167293851Y-72447730D01*
X167269737Y-72326503D01*
X167233078Y-72238000D01*
X167209397Y-72180827D01*
X167209390Y-72180814D01*
X167121398Y-72049125D01*
X167115747Y-72031078D01*
X167105523Y-72015169D01*
X167101071Y-71984207D01*
X167100520Y-71982447D01*
X167100500Y-71980234D01*
X167100500Y-71939765D01*
X167120185Y-71872726D01*
X167121398Y-71870874D01*
X167209390Y-71739185D01*
X167209390Y-71739184D01*
X167209394Y-71739179D01*
X167269737Y-71593497D01*
X167300500Y-71438842D01*
X167300500Y-71281158D01*
X167300500Y-71281155D01*
X167300499Y-71281153D01*
X167285858Y-71207550D01*
X167269737Y-71126503D01*
X167224884Y-71018217D01*
X167209397Y-70980827D01*
X167209390Y-70980814D01*
X167121789Y-70849711D01*
X167121786Y-70849707D01*
X167010292Y-70738213D01*
X167010288Y-70738210D01*
X166879185Y-70650609D01*
X166879172Y-70650602D01*
X166733501Y-70590264D01*
X166733489Y-70590261D01*
X166578845Y-70559500D01*
X166578842Y-70559500D01*
X166421158Y-70559500D01*
X166421155Y-70559500D01*
X166266510Y-70590261D01*
X166266498Y-70590264D01*
X166120827Y-70650602D01*
X166120814Y-70650609D01*
X165989711Y-70738210D01*
X165989707Y-70738213D01*
X165878213Y-70849707D01*
X165878210Y-70849711D01*
X165790609Y-70980814D01*
X165790602Y-70980827D01*
X165730264Y-71126498D01*
X165730261Y-71126510D01*
X165699500Y-71281153D01*
X164800499Y-71281153D01*
X164785858Y-71207550D01*
X164769737Y-71126503D01*
X164724884Y-71018217D01*
X164709397Y-70980827D01*
X164709390Y-70980814D01*
X164621789Y-70849711D01*
X164621786Y-70849707D01*
X164510292Y-70738213D01*
X164510288Y-70738210D01*
X164379185Y-70650609D01*
X164379172Y-70650602D01*
X164233501Y-70590264D01*
X164233489Y-70590261D01*
X164078845Y-70559500D01*
X164078842Y-70559500D01*
X163921158Y-70559500D01*
X163921155Y-70559500D01*
X163766510Y-70590261D01*
X163766498Y-70590264D01*
X163620827Y-70650602D01*
X163620814Y-70650609D01*
X163489711Y-70738210D01*
X163489707Y-70738213D01*
X163378213Y-70849707D01*
X163378210Y-70849711D01*
X163290609Y-70980814D01*
X163290602Y-70980827D01*
X163230264Y-71126498D01*
X163230261Y-71126510D01*
X163199500Y-71281153D01*
X154427599Y-71281153D01*
X154129408Y-70982962D01*
X154192993Y-70965925D01*
X154307007Y-70900099D01*
X154400099Y-70807007D01*
X154465925Y-70692993D01*
X154482962Y-70629408D01*
X155115270Y-71261717D01*
X155115270Y-71261716D01*
X155154622Y-71207554D01*
X155251095Y-71018217D01*
X155316757Y-70816130D01*
X155316757Y-70816127D01*
X155350000Y-70606246D01*
X155350000Y-70393753D01*
X155316757Y-70183872D01*
X155316757Y-70183869D01*
X155251095Y-69981782D01*
X155154624Y-69792449D01*
X155115270Y-69738282D01*
X155115269Y-69738282D01*
X154482962Y-70370590D01*
X154465925Y-70307007D01*
X154400099Y-70192993D01*
X154307007Y-70099901D01*
X154192993Y-70034075D01*
X154129409Y-70017037D01*
X154799627Y-69346818D01*
X154860950Y-69313333D01*
X154887307Y-69310499D01*
X154897872Y-69310499D01*
X154957483Y-69304091D01*
X155092331Y-69253796D01*
X155207546Y-69167546D01*
X155293796Y-69052331D01*
X155344091Y-68917483D01*
X155350500Y-68857873D01*
X155350499Y-67921153D01*
X162599500Y-67921153D01*
X162599500Y-68078846D01*
X162630261Y-68233489D01*
X162630264Y-68233501D01*
X162690602Y-68379172D01*
X162690609Y-68379185D01*
X162778210Y-68510288D01*
X162778213Y-68510292D01*
X162889707Y-68621786D01*
X162889711Y-68621789D01*
X163020814Y-68709390D01*
X163020827Y-68709397D01*
X163138906Y-68758306D01*
X163166503Y-68769737D01*
X163321153Y-68800499D01*
X163321156Y-68800500D01*
X163321158Y-68800500D01*
X163478844Y-68800500D01*
X163478845Y-68800499D01*
X163633497Y-68769737D01*
X163779179Y-68709394D01*
X163779185Y-68709390D01*
X163910875Y-68621398D01*
X163928921Y-68615747D01*
X163944831Y-68605523D01*
X163975792Y-68601071D01*
X163977553Y-68600520D01*
X163979766Y-68600500D01*
X164020234Y-68600500D01*
X164087273Y-68620185D01*
X164089125Y-68621398D01*
X164220814Y-68709390D01*
X164220827Y-68709397D01*
X164338906Y-68758306D01*
X164366503Y-68769737D01*
X164521153Y-68800499D01*
X164521156Y-68800500D01*
X164521158Y-68800500D01*
X164678844Y-68800500D01*
X164678845Y-68800499D01*
X164833497Y-68769737D01*
X164979179Y-68709394D01*
X165110289Y-68621789D01*
X165221789Y-68510289D01*
X165309394Y-68379179D01*
X165369737Y-68233497D01*
X165400500Y-68078842D01*
X165400500Y-67921158D01*
X165400500Y-67921155D01*
X165400499Y-67921153D01*
X165391910Y-67877973D01*
X165369737Y-67766503D01*
X165343212Y-67702466D01*
X165309397Y-67620827D01*
X165309390Y-67620814D01*
X165221789Y-67489711D01*
X165221786Y-67489707D01*
X165110292Y-67378213D01*
X165110288Y-67378210D01*
X164979185Y-67290609D01*
X164979172Y-67290602D01*
X164833501Y-67230264D01*
X164833489Y-67230261D01*
X164678845Y-67199500D01*
X164678842Y-67199500D01*
X164521158Y-67199500D01*
X164521155Y-67199500D01*
X164366510Y-67230261D01*
X164366498Y-67230264D01*
X164220827Y-67290602D01*
X164220814Y-67290609D01*
X164089125Y-67378602D01*
X164071078Y-67384252D01*
X164055169Y-67394477D01*
X164024207Y-67398928D01*
X164022447Y-67399480D01*
X164020234Y-67399500D01*
X163979766Y-67399500D01*
X163912727Y-67379815D01*
X163910875Y-67378602D01*
X163779185Y-67290609D01*
X163779172Y-67290602D01*
X163633501Y-67230264D01*
X163633489Y-67230261D01*
X163478845Y-67199500D01*
X163478842Y-67199500D01*
X163321158Y-67199500D01*
X163321155Y-67199500D01*
X163166510Y-67230261D01*
X163166498Y-67230264D01*
X163020827Y-67290602D01*
X163020814Y-67290609D01*
X162889711Y-67378210D01*
X162889707Y-67378213D01*
X162778213Y-67489707D01*
X162778210Y-67489711D01*
X162690609Y-67620814D01*
X162690602Y-67620827D01*
X162630264Y-67766498D01*
X162630261Y-67766510D01*
X162599500Y-67921153D01*
X155350499Y-67921153D01*
X155350499Y-67062128D01*
X155344091Y-67002517D01*
X155335454Y-66979361D01*
X155293797Y-66867671D01*
X155293793Y-66867664D01*
X155207547Y-66752455D01*
X155207544Y-66752452D01*
X155092335Y-66666206D01*
X155092328Y-66666202D01*
X154957482Y-66615908D01*
X154957483Y-66615908D01*
X154897883Y-66609501D01*
X154897881Y-66609500D01*
X154897873Y-66609500D01*
X154897864Y-66609500D01*
X153102129Y-66609500D01*
X153102123Y-66609501D01*
X153042516Y-66615908D01*
X152907671Y-66666202D01*
X152907664Y-66666206D01*
X152792455Y-66752452D01*
X152792452Y-66752455D01*
X152706206Y-66867664D01*
X152706202Y-66867671D01*
X152655908Y-67002517D01*
X152649501Y-67062116D01*
X152649501Y-67062123D01*
X152649500Y-67062135D01*
X135000500Y-67062135D01*
X135000500Y-56655988D01*
X166434334Y-56655988D01*
X166434334Y-56813681D01*
X166465095Y-56968324D01*
X166465098Y-56968336D01*
X166525436Y-57114007D01*
X166525443Y-57114020D01*
X166613044Y-57245123D01*
X166613047Y-57245127D01*
X166724541Y-57356621D01*
X166724545Y-57356624D01*
X166844391Y-57436703D01*
X166889196Y-57490315D01*
X166899500Y-57539805D01*
X166899500Y-63420234D01*
X166879815Y-63487273D01*
X166878602Y-63489125D01*
X166790609Y-63620814D01*
X166790602Y-63620827D01*
X166730264Y-63766498D01*
X166730261Y-63766510D01*
X166699500Y-63921153D01*
X166699500Y-64078846D01*
X166730261Y-64233489D01*
X166730264Y-64233501D01*
X166790602Y-64379172D01*
X166790609Y-64379185D01*
X166878210Y-64510288D01*
X166878213Y-64510292D01*
X166989707Y-64621786D01*
X166989711Y-64621789D01*
X167120814Y-64709390D01*
X167120827Y-64709397D01*
X167266498Y-64769735D01*
X167266503Y-64769737D01*
X167421153Y-64800499D01*
X167421156Y-64800500D01*
X167421158Y-64800500D01*
X167578844Y-64800500D01*
X167578845Y-64800499D01*
X167733497Y-64769737D01*
X167879179Y-64709394D01*
X168010289Y-64621789D01*
X168121789Y-64510289D01*
X168209394Y-64379179D01*
X168269737Y-64233497D01*
X168300500Y-64078842D01*
X168300500Y-63921158D01*
X168300500Y-63921155D01*
X168300499Y-63921153D01*
X168269738Y-63766510D01*
X168269737Y-63766503D01*
X168233205Y-63678306D01*
X168209397Y-63620827D01*
X168209390Y-63620814D01*
X168121398Y-63489125D01*
X168100520Y-63422447D01*
X168100500Y-63420234D01*
X168100500Y-57089058D01*
X168100501Y-57089045D01*
X168100501Y-56920943D01*
X168100501Y-56920942D01*
X168059577Y-56768215D01*
X168051946Y-56754997D01*
X168048361Y-56743317D01*
X168043179Y-56736404D01*
X168038796Y-56712156D01*
X168035655Y-56701921D01*
X168035334Y-56697472D01*
X168035334Y-56655993D01*
X168028302Y-56620639D01*
X169117500Y-56620639D01*
X169117500Y-56819361D01*
X169121168Y-56842517D01*
X169148587Y-57015637D01*
X169209993Y-57204629D01*
X169209994Y-57204632D01*
X169287439Y-57356624D01*
X169300213Y-57381694D01*
X169417019Y-57542464D01*
X169557536Y-57682981D01*
X169718306Y-57799787D01*
X169836832Y-57860179D01*
X169874780Y-57879515D01*
X169925576Y-57927490D01*
X169942371Y-57995311D01*
X169919833Y-58061446D01*
X169874780Y-58100485D01*
X169718305Y-58180213D01*
X169557533Y-58297021D01*
X169417021Y-58437533D01*
X169300213Y-58598305D01*
X169209994Y-58775367D01*
X169209993Y-58775370D01*
X169148587Y-58964362D01*
X169148587Y-58964364D01*
X169117500Y-59160639D01*
X169117500Y-59359361D01*
X169125132Y-59407546D01*
X169148587Y-59555637D01*
X169209993Y-59744629D01*
X169209994Y-59744632D01*
X169300213Y-59921694D01*
X169417019Y-60082464D01*
X169557536Y-60222981D01*
X169718306Y-60339787D01*
X169836832Y-60400179D01*
X169874780Y-60419515D01*
X169925576Y-60467490D01*
X169942371Y-60535311D01*
X169919833Y-60601446D01*
X169874780Y-60640485D01*
X169718305Y-60720213D01*
X169557533Y-60837021D01*
X169417021Y-60977533D01*
X169300213Y-61138305D01*
X169209994Y-61315367D01*
X169209993Y-61315370D01*
X169148587Y-61504362D01*
X169117500Y-61700639D01*
X169117500Y-61899360D01*
X169148587Y-62095637D01*
X169209993Y-62284629D01*
X169209994Y-62284632D01*
X169300076Y-62461425D01*
X169300213Y-62461694D01*
X169417019Y-62622464D01*
X169557536Y-62762981D01*
X169718306Y-62879787D01*
X169830400Y-62936902D01*
X169874780Y-62959515D01*
X169925576Y-63007490D01*
X169942371Y-63075311D01*
X169919833Y-63141446D01*
X169874780Y-63180485D01*
X169718305Y-63260213D01*
X169557533Y-63377021D01*
X169417021Y-63517533D01*
X169300213Y-63678305D01*
X169209994Y-63855367D01*
X169209993Y-63855370D01*
X169148587Y-64044362D01*
X169117500Y-64240639D01*
X169117500Y-64439360D01*
X169148587Y-64635637D01*
X169209993Y-64824629D01*
X169209994Y-64824632D01*
X169300213Y-65001694D01*
X169417019Y-65162464D01*
X169557536Y-65302981D01*
X169718306Y-65419787D01*
X169836832Y-65480179D01*
X169874780Y-65499515D01*
X169925576Y-65547490D01*
X169942371Y-65615311D01*
X169919833Y-65681446D01*
X169874780Y-65720485D01*
X169718305Y-65800213D01*
X169557533Y-65917021D01*
X169417021Y-66057533D01*
X169300213Y-66218305D01*
X169209994Y-66395367D01*
X169209993Y-66395370D01*
X169148587Y-66584362D01*
X169135625Y-66666202D01*
X169117500Y-66780639D01*
X169117500Y-66979361D01*
X169121168Y-67002517D01*
X169148587Y-67175637D01*
X169209993Y-67364629D01*
X169209994Y-67364632D01*
X169230469Y-67404815D01*
X169300213Y-67541694D01*
X169417019Y-67702464D01*
X169557536Y-67842981D01*
X169718306Y-67959787D01*
X169836832Y-68020179D01*
X169874780Y-68039515D01*
X169925576Y-68087490D01*
X169942371Y-68155311D01*
X169919833Y-68221446D01*
X169874780Y-68260485D01*
X169718305Y-68340213D01*
X169557533Y-68457021D01*
X169417021Y-68597533D01*
X169300213Y-68758305D01*
X169209994Y-68935367D01*
X169209993Y-68935370D01*
X169148587Y-69124362D01*
X169117500Y-69320639D01*
X169117500Y-69519360D01*
X169148587Y-69715637D01*
X169209993Y-69904629D01*
X169209994Y-69904632D01*
X169275950Y-70034075D01*
X169300213Y-70081694D01*
X169417019Y-70242464D01*
X169557536Y-70382981D01*
X169718306Y-70499787D01*
X169835499Y-70559500D01*
X169874780Y-70579515D01*
X169925576Y-70627490D01*
X169942371Y-70695311D01*
X169919833Y-70761446D01*
X169874780Y-70800485D01*
X169718305Y-70880213D01*
X169557533Y-70997021D01*
X169417021Y-71137533D01*
X169300213Y-71298305D01*
X169209994Y-71475367D01*
X169209993Y-71475370D01*
X169148587Y-71664362D01*
X169117500Y-71860639D01*
X169117500Y-72059360D01*
X169148587Y-72255637D01*
X169209993Y-72444629D01*
X169209994Y-72444632D01*
X169288077Y-72597876D01*
X169300213Y-72621694D01*
X169417019Y-72782464D01*
X169557536Y-72922981D01*
X169718306Y-73039787D01*
X169875332Y-73119796D01*
X169926127Y-73167769D01*
X169942922Y-73235590D01*
X169920385Y-73301725D01*
X169875332Y-73340764D01*
X169718566Y-73420641D01*
X169681283Y-73447729D01*
X169681282Y-73447730D01*
X170352554Y-74119000D01*
X170329840Y-74119000D01*
X170232939Y-74144964D01*
X170146060Y-74195124D01*
X170075124Y-74266060D01*
X170024964Y-74352939D01*
X169999000Y-74449840D01*
X169999000Y-74472552D01*
X169327730Y-73801282D01*
X169327729Y-73801283D01*
X169300643Y-73838564D01*
X169210457Y-74015562D01*
X169149075Y-74204476D01*
X169149075Y-74204479D01*
X169118000Y-74400678D01*
X169118000Y-74599321D01*
X169149075Y-74795520D01*
X169149075Y-74795523D01*
X169210457Y-74984437D01*
X169300641Y-75161432D01*
X169327730Y-75198715D01*
X169327731Y-75198716D01*
X169999000Y-74527447D01*
X169999000Y-74550160D01*
X170024964Y-74647061D01*
X170075124Y-74733940D01*
X170146060Y-74804876D01*
X170232939Y-74855036D01*
X170329840Y-74881000D01*
X170352553Y-74881000D01*
X169681283Y-75552268D01*
X169681283Y-75552269D01*
X169718567Y-75579358D01*
X169895562Y-75669542D01*
X170084477Y-75730924D01*
X170280679Y-75762000D01*
X170479321Y-75762000D01*
X170675520Y-75730924D01*
X170675523Y-75730924D01*
X170864437Y-75669542D01*
X171041425Y-75579362D01*
X171078716Y-75552268D01*
X170407448Y-74881000D01*
X170430160Y-74881000D01*
X170527061Y-74855036D01*
X170613940Y-74804876D01*
X170684876Y-74733940D01*
X170735036Y-74647061D01*
X170761000Y-74550160D01*
X170761000Y-74527447D01*
X171432268Y-75198715D01*
X171459362Y-75161425D01*
X171549542Y-74984437D01*
X171610924Y-74795523D01*
X171610924Y-74795520D01*
X171642000Y-74599321D01*
X171642000Y-74400678D01*
X171610924Y-74204479D01*
X171610924Y-74204476D01*
X171549542Y-74015562D01*
X171459358Y-73838567D01*
X171432268Y-73801283D01*
X170761000Y-74472551D01*
X170761000Y-74449840D01*
X170735036Y-74352939D01*
X170684876Y-74266060D01*
X170613940Y-74195124D01*
X170527061Y-74144964D01*
X170430160Y-74119000D01*
X170407447Y-74119000D01*
X171078716Y-73447731D01*
X171078715Y-73447730D01*
X171041432Y-73420641D01*
X170884668Y-73340765D01*
X170833872Y-73292790D01*
X170817077Y-73224969D01*
X170839615Y-73158834D01*
X170884667Y-73119796D01*
X171041694Y-73039787D01*
X171202464Y-72922981D01*
X171342981Y-72782464D01*
X171459787Y-72621694D01*
X171550005Y-72444632D01*
X171611413Y-72255636D01*
X171642500Y-72059361D01*
X171642500Y-71860639D01*
X171611413Y-71664364D01*
X171550005Y-71475368D01*
X171550005Y-71475367D01*
X171459786Y-71298305D01*
X171447326Y-71281155D01*
X171342981Y-71137536D01*
X171202464Y-70997019D01*
X171041694Y-70880213D01*
X170885218Y-70800484D01*
X170834423Y-70752510D01*
X170817628Y-70684689D01*
X170840165Y-70618554D01*
X170885218Y-70579515D01*
X171041694Y-70499787D01*
X171202464Y-70382981D01*
X171342981Y-70242464D01*
X171459787Y-70081694D01*
X171550005Y-69904632D01*
X171611413Y-69715636D01*
X171642500Y-69519361D01*
X171642500Y-69320639D01*
X171611413Y-69124364D01*
X171550005Y-68935368D01*
X171550005Y-68935367D01*
X171481286Y-68800500D01*
X171459787Y-68758306D01*
X171342981Y-68597536D01*
X171202464Y-68457019D01*
X171041694Y-68340213D01*
X170885218Y-68260484D01*
X170834423Y-68212510D01*
X170817628Y-68144689D01*
X170840165Y-68078554D01*
X170885218Y-68039515D01*
X171041694Y-67959787D01*
X171202464Y-67842981D01*
X171342981Y-67702464D01*
X171459787Y-67541694D01*
X171550005Y-67364632D01*
X171611413Y-67175636D01*
X171642500Y-66979361D01*
X171642500Y-66780639D01*
X171611413Y-66584364D01*
X171579998Y-66487678D01*
X171550006Y-66395370D01*
X171550005Y-66395367D01*
X171459786Y-66218305D01*
X171342981Y-66057536D01*
X171202464Y-65917019D01*
X171041694Y-65800213D01*
X170885218Y-65720484D01*
X170834423Y-65672510D01*
X170817628Y-65604689D01*
X170840165Y-65538554D01*
X170885218Y-65499515D01*
X171041694Y-65419787D01*
X171202464Y-65302981D01*
X171342981Y-65162464D01*
X171459787Y-65001694D01*
X171550005Y-64824632D01*
X171611413Y-64635636D01*
X171642500Y-64439361D01*
X171642500Y-64240639D01*
X171611413Y-64044364D01*
X171550005Y-63855368D01*
X171550005Y-63855367D01*
X171459786Y-63678305D01*
X171418026Y-63620827D01*
X171342981Y-63517536D01*
X171202464Y-63377019D01*
X171041694Y-63260213D01*
X170885218Y-63180484D01*
X170834423Y-63132510D01*
X170817628Y-63064689D01*
X170840165Y-62998554D01*
X170885218Y-62959515D01*
X171041694Y-62879787D01*
X171202464Y-62762981D01*
X171342981Y-62622464D01*
X171459787Y-62461694D01*
X171550005Y-62284632D01*
X171611413Y-62095636D01*
X171642500Y-61899361D01*
X171642500Y-61700639D01*
X171611413Y-61504364D01*
X171580709Y-61409866D01*
X171550006Y-61315370D01*
X171550005Y-61315367D01*
X171504035Y-61225149D01*
X171459787Y-61138306D01*
X171342981Y-60977536D01*
X171202464Y-60837019D01*
X171041694Y-60720213D01*
X170885218Y-60640484D01*
X170834423Y-60592510D01*
X170817628Y-60524689D01*
X170840165Y-60458554D01*
X170885218Y-60419515D01*
X171041694Y-60339787D01*
X171202464Y-60222981D01*
X171342981Y-60082464D01*
X171459787Y-59921694D01*
X171550005Y-59744632D01*
X171611413Y-59555636D01*
X171642500Y-59359361D01*
X171642500Y-59160639D01*
X171611413Y-58964364D01*
X171550005Y-58775368D01*
X171550005Y-58775367D01*
X171459786Y-58598305D01*
X171391508Y-58504328D01*
X171342981Y-58437536D01*
X171202464Y-58297019D01*
X171041694Y-58180213D01*
X170885218Y-58100484D01*
X170834423Y-58052510D01*
X170817628Y-57984689D01*
X170840165Y-57918554D01*
X170885218Y-57879515D01*
X171041694Y-57799787D01*
X171202464Y-57682981D01*
X171342981Y-57542464D01*
X171459787Y-57381694D01*
X171550005Y-57204632D01*
X171611413Y-57015636D01*
X171642500Y-56819361D01*
X171642500Y-56620639D01*
X184117500Y-56620639D01*
X184117500Y-56819361D01*
X184121168Y-56842517D01*
X184148587Y-57015637D01*
X184209993Y-57204629D01*
X184209994Y-57204632D01*
X184287439Y-57356624D01*
X184300213Y-57381694D01*
X184417019Y-57542464D01*
X184557536Y-57682981D01*
X184718306Y-57799787D01*
X184836832Y-57860179D01*
X184874780Y-57879515D01*
X184925576Y-57927490D01*
X184942371Y-57995311D01*
X184919833Y-58061446D01*
X184874780Y-58100485D01*
X184718305Y-58180213D01*
X184557533Y-58297021D01*
X184417021Y-58437533D01*
X184300213Y-58598305D01*
X184209994Y-58775367D01*
X184209993Y-58775370D01*
X184148587Y-58964362D01*
X184148587Y-58964364D01*
X184117500Y-59160639D01*
X184117500Y-59359361D01*
X184125132Y-59407546D01*
X184148587Y-59555637D01*
X184209993Y-59744629D01*
X184209994Y-59744632D01*
X184300213Y-59921694D01*
X184417019Y-60082464D01*
X184557536Y-60222981D01*
X184718306Y-60339787D01*
X184875332Y-60419796D01*
X184926127Y-60467769D01*
X184942922Y-60535590D01*
X184920385Y-60601725D01*
X184875332Y-60640764D01*
X184718566Y-60720641D01*
X184681283Y-60747729D01*
X184681282Y-60747730D01*
X185352554Y-61419000D01*
X185329840Y-61419000D01*
X185232939Y-61444964D01*
X185146060Y-61495124D01*
X185075124Y-61566060D01*
X185024964Y-61652939D01*
X184999000Y-61749840D01*
X184999000Y-61772552D01*
X184327730Y-61101282D01*
X184327729Y-61101283D01*
X184300643Y-61138564D01*
X184210457Y-61315562D01*
X184149075Y-61504476D01*
X184149075Y-61504479D01*
X184118000Y-61700678D01*
X184118000Y-61899321D01*
X184149075Y-62095520D01*
X184149075Y-62095523D01*
X184210457Y-62284437D01*
X184300641Y-62461432D01*
X184327730Y-62498715D01*
X184327731Y-62498716D01*
X184999000Y-61827447D01*
X184999000Y-61850160D01*
X185024964Y-61947061D01*
X185075124Y-62033940D01*
X185146060Y-62104876D01*
X185232939Y-62155036D01*
X185329840Y-62181000D01*
X185352553Y-62181000D01*
X184681283Y-62852268D01*
X184681283Y-62852269D01*
X184718567Y-62879358D01*
X184875331Y-62959234D01*
X184926127Y-63007209D01*
X184942922Y-63075030D01*
X184920384Y-63141165D01*
X184875331Y-63180204D01*
X184718305Y-63260213D01*
X184557533Y-63377021D01*
X184417021Y-63517533D01*
X184300213Y-63678305D01*
X184209994Y-63855367D01*
X184209993Y-63855370D01*
X184148587Y-64044362D01*
X184117500Y-64240639D01*
X184117500Y-64439360D01*
X184148587Y-64635637D01*
X184209993Y-64824629D01*
X184209994Y-64824632D01*
X184300213Y-65001694D01*
X184417019Y-65162464D01*
X184557536Y-65302981D01*
X184718306Y-65419787D01*
X184836832Y-65480179D01*
X184874780Y-65499515D01*
X184925576Y-65547490D01*
X184942371Y-65615311D01*
X184919833Y-65681446D01*
X184874780Y-65720485D01*
X184718305Y-65800213D01*
X184557533Y-65917021D01*
X184417021Y-66057533D01*
X184300213Y-66218305D01*
X184209994Y-66395367D01*
X184209993Y-66395370D01*
X184148587Y-66584362D01*
X184135625Y-66666202D01*
X184117500Y-66780639D01*
X184117500Y-66979361D01*
X184121168Y-67002517D01*
X184148587Y-67175637D01*
X184209993Y-67364629D01*
X184209994Y-67364632D01*
X184230469Y-67404815D01*
X184300213Y-67541694D01*
X184417019Y-67702464D01*
X184557536Y-67842981D01*
X184718306Y-67959787D01*
X184836832Y-68020179D01*
X184874780Y-68039515D01*
X184925576Y-68087490D01*
X184942371Y-68155311D01*
X184919833Y-68221446D01*
X184874780Y-68260485D01*
X184718305Y-68340213D01*
X184557533Y-68457021D01*
X184417021Y-68597533D01*
X184300213Y-68758305D01*
X184209994Y-68935367D01*
X184209993Y-68935370D01*
X184148587Y-69124362D01*
X184117500Y-69320639D01*
X184117500Y-69519360D01*
X184148587Y-69715637D01*
X184209993Y-69904629D01*
X184209994Y-69904632D01*
X184275950Y-70034075D01*
X184300213Y-70081694D01*
X184417019Y-70242464D01*
X184557536Y-70382981D01*
X184718306Y-70499787D01*
X184835499Y-70559500D01*
X184874780Y-70579515D01*
X184925576Y-70627490D01*
X184942371Y-70695311D01*
X184919833Y-70761446D01*
X184874780Y-70800485D01*
X184718305Y-70880213D01*
X184557533Y-70997021D01*
X184417021Y-71137533D01*
X184300213Y-71298305D01*
X184209994Y-71475367D01*
X184209993Y-71475370D01*
X184148587Y-71664362D01*
X184117500Y-71860639D01*
X184117500Y-72059360D01*
X184148587Y-72255637D01*
X184209993Y-72444629D01*
X184209994Y-72444632D01*
X184288077Y-72597876D01*
X184300213Y-72621694D01*
X184417019Y-72782464D01*
X184557536Y-72922981D01*
X184718306Y-73039787D01*
X184875332Y-73119796D01*
X184926127Y-73167769D01*
X184942922Y-73235590D01*
X184920385Y-73301725D01*
X184875332Y-73340764D01*
X184718566Y-73420641D01*
X184681283Y-73447729D01*
X184681282Y-73447730D01*
X185352554Y-74119000D01*
X185329840Y-74119000D01*
X185232939Y-74144964D01*
X185146060Y-74195124D01*
X185075124Y-74266060D01*
X185024964Y-74352939D01*
X184999000Y-74449840D01*
X184999000Y-74472552D01*
X184327730Y-73801282D01*
X184327729Y-73801283D01*
X184300643Y-73838564D01*
X184210457Y-74015562D01*
X184149075Y-74204476D01*
X184149075Y-74204479D01*
X184118000Y-74400678D01*
X184118000Y-74599321D01*
X184149075Y-74795520D01*
X184149075Y-74795523D01*
X184210457Y-74984437D01*
X184300641Y-75161432D01*
X184327730Y-75198715D01*
X184327731Y-75198716D01*
X184999000Y-74527447D01*
X184999000Y-74550160D01*
X185024964Y-74647061D01*
X185075124Y-74733940D01*
X185146060Y-74804876D01*
X185232939Y-74855036D01*
X185329840Y-74881000D01*
X185352553Y-74881000D01*
X184681283Y-75552268D01*
X184681283Y-75552269D01*
X184718567Y-75579358D01*
X184895562Y-75669542D01*
X185084477Y-75730924D01*
X185280679Y-75762000D01*
X185479321Y-75762000D01*
X185675520Y-75730924D01*
X185675523Y-75730924D01*
X185864437Y-75669542D01*
X186041425Y-75579362D01*
X186078716Y-75552268D01*
X185407448Y-74881000D01*
X185430160Y-74881000D01*
X185527061Y-74855036D01*
X185613940Y-74804876D01*
X185684876Y-74733940D01*
X185735036Y-74647061D01*
X185761000Y-74550160D01*
X185761000Y-74527447D01*
X186432268Y-75198715D01*
X186459362Y-75161425D01*
X186549542Y-74984437D01*
X186610924Y-74795523D01*
X186610924Y-74795520D01*
X186642000Y-74599321D01*
X186642000Y-74400678D01*
X186610924Y-74204479D01*
X186610924Y-74204476D01*
X186549542Y-74015562D01*
X186459358Y-73838567D01*
X186432268Y-73801283D01*
X185761000Y-74472551D01*
X185761000Y-74449840D01*
X185735036Y-74352939D01*
X185684876Y-74266060D01*
X185613940Y-74195124D01*
X185527061Y-74144964D01*
X185430160Y-74119000D01*
X185407447Y-74119000D01*
X186078715Y-73447731D01*
X186078715Y-73447730D01*
X186041432Y-73420641D01*
X186002253Y-73400678D01*
X204198000Y-73400678D01*
X204198000Y-73599321D01*
X204229075Y-73795520D01*
X204229075Y-73795523D01*
X204290457Y-73984437D01*
X204380641Y-74161432D01*
X204407730Y-74198715D01*
X204407731Y-74198716D01*
X205079000Y-73527447D01*
X205079000Y-73550160D01*
X205104964Y-73647061D01*
X205155124Y-73733940D01*
X205226060Y-73804876D01*
X205312939Y-73855036D01*
X205409840Y-73881000D01*
X205432553Y-73881000D01*
X204761283Y-74552268D01*
X204761283Y-74552269D01*
X204798567Y-74579358D01*
X204975562Y-74669542D01*
X205164477Y-74730924D01*
X205360679Y-74762000D01*
X205559321Y-74762000D01*
X205755520Y-74730924D01*
X205755523Y-74730924D01*
X205944437Y-74669542D01*
X206121425Y-74579362D01*
X206158716Y-74552268D01*
X205487448Y-73881000D01*
X205510160Y-73881000D01*
X205607061Y-73855036D01*
X205693940Y-73804876D01*
X205764876Y-73733940D01*
X205815036Y-73647061D01*
X205841000Y-73550160D01*
X205841000Y-73527447D01*
X206512268Y-74198715D01*
X206539362Y-74161425D01*
X206619515Y-74004117D01*
X206667489Y-73953321D01*
X206735310Y-73936526D01*
X206801445Y-73959063D01*
X206840485Y-74004117D01*
X206920641Y-74161432D01*
X206947730Y-74198715D01*
X206947731Y-74198716D01*
X207619000Y-73527447D01*
X207619000Y-73550160D01*
X207644964Y-73647061D01*
X207695124Y-73733940D01*
X207766060Y-73804876D01*
X207852939Y-73855036D01*
X207949840Y-73881000D01*
X207972553Y-73881000D01*
X207301283Y-74552268D01*
X207301283Y-74552269D01*
X207338567Y-74579358D01*
X207515562Y-74669542D01*
X207704477Y-74730924D01*
X207900679Y-74762000D01*
X208099321Y-74762000D01*
X208295520Y-74730924D01*
X208295523Y-74730924D01*
X208484437Y-74669542D01*
X208661425Y-74579362D01*
X208698716Y-74552268D01*
X208027448Y-73881000D01*
X208050160Y-73881000D01*
X208147061Y-73855036D01*
X208233940Y-73804876D01*
X208304876Y-73733940D01*
X208355036Y-73647061D01*
X208381000Y-73550160D01*
X208381000Y-73527447D01*
X209052268Y-74198715D01*
X209079362Y-74161425D01*
X209169542Y-73984437D01*
X209230924Y-73795523D01*
X209230924Y-73795520D01*
X209262000Y-73599321D01*
X209262000Y-73400678D01*
X209230924Y-73204479D01*
X209230924Y-73204476D01*
X209169542Y-73015562D01*
X209079358Y-72838567D01*
X209052268Y-72801283D01*
X208381000Y-73472551D01*
X208381000Y-73449840D01*
X208355036Y-73352939D01*
X208304876Y-73266060D01*
X208233940Y-73195124D01*
X208147061Y-73144964D01*
X208050160Y-73119000D01*
X208027447Y-73119000D01*
X208698716Y-72447731D01*
X208698715Y-72447730D01*
X208661432Y-72420641D01*
X208484437Y-72330457D01*
X208295522Y-72269075D01*
X208099321Y-72238000D01*
X207900679Y-72238000D01*
X207704479Y-72269075D01*
X207704476Y-72269075D01*
X207515562Y-72330457D01*
X207338564Y-72420643D01*
X207301283Y-72447729D01*
X207301282Y-72447730D01*
X207972554Y-73119000D01*
X207949840Y-73119000D01*
X207852939Y-73144964D01*
X207766060Y-73195124D01*
X207695124Y-73266060D01*
X207644964Y-73352939D01*
X207619000Y-73449840D01*
X207619000Y-73472552D01*
X206947730Y-72801282D01*
X206947729Y-72801283D01*
X206920643Y-72838564D01*
X206840485Y-72995882D01*
X206792510Y-73046678D01*
X206724689Y-73063473D01*
X206658554Y-73040935D01*
X206619515Y-72995882D01*
X206539358Y-72838567D01*
X206512268Y-72801283D01*
X205841000Y-73472551D01*
X205841000Y-73449840D01*
X205815036Y-73352939D01*
X205764876Y-73266060D01*
X205693940Y-73195124D01*
X205607061Y-73144964D01*
X205510160Y-73119000D01*
X205487447Y-73119000D01*
X206158716Y-72447731D01*
X206158715Y-72447730D01*
X206121432Y-72420641D01*
X205944437Y-72330457D01*
X205755522Y-72269075D01*
X205559321Y-72238000D01*
X205360679Y-72238000D01*
X205164479Y-72269075D01*
X205164476Y-72269075D01*
X204975562Y-72330457D01*
X204798564Y-72420643D01*
X204761283Y-72447729D01*
X204761282Y-72447730D01*
X205432554Y-73119000D01*
X205409840Y-73119000D01*
X205312939Y-73144964D01*
X205226060Y-73195124D01*
X205155124Y-73266060D01*
X205104964Y-73352939D01*
X205079000Y-73449840D01*
X205079000Y-73472552D01*
X204407730Y-72801282D01*
X204407729Y-72801283D01*
X204380643Y-72838564D01*
X204290457Y-73015562D01*
X204229075Y-73204476D01*
X204229075Y-73204479D01*
X204198000Y-73400678D01*
X186002253Y-73400678D01*
X185884668Y-73340765D01*
X185833872Y-73292790D01*
X185817077Y-73224969D01*
X185839615Y-73158834D01*
X185884667Y-73119796D01*
X186041694Y-73039787D01*
X186202464Y-72922981D01*
X186342981Y-72782464D01*
X186459787Y-72621694D01*
X186550005Y-72444632D01*
X186611413Y-72255636D01*
X186642500Y-72059361D01*
X186642500Y-71860639D01*
X186611413Y-71664364D01*
X186550005Y-71475368D01*
X186550005Y-71475367D01*
X186459786Y-71298305D01*
X186447326Y-71281155D01*
X186342981Y-71137536D01*
X186202464Y-70997019D01*
X186041694Y-70880213D01*
X185885218Y-70800484D01*
X185834423Y-70752510D01*
X185817628Y-70684689D01*
X185840165Y-70618554D01*
X185885218Y-70579515D01*
X186041694Y-70499787D01*
X186176101Y-70402135D01*
X193949500Y-70402135D01*
X193949500Y-72597870D01*
X193949501Y-72597876D01*
X193955908Y-72657483D01*
X194006202Y-72792328D01*
X194006206Y-72792335D01*
X194092452Y-72907544D01*
X194092455Y-72907547D01*
X194207664Y-72993793D01*
X194207671Y-72993797D01*
X194342517Y-73044091D01*
X194342516Y-73044091D01*
X194349444Y-73044835D01*
X194402127Y-73050500D01*
X196597872Y-73050499D01*
X196657483Y-73044091D01*
X196792331Y-72993796D01*
X196907546Y-72907546D01*
X196993796Y-72792331D01*
X197044091Y-72657483D01*
X197050500Y-72597873D01*
X197050499Y-71475370D01*
X197050499Y-70402129D01*
X197050498Y-70402123D01*
X197050497Y-70402116D01*
X197044091Y-70342517D01*
X197006774Y-70242466D01*
X196993797Y-70207671D01*
X196993793Y-70207664D01*
X196907547Y-70092455D01*
X196907544Y-70092452D01*
X196792335Y-70006206D01*
X196792328Y-70006202D01*
X196657482Y-69955908D01*
X196657483Y-69955908D01*
X196597883Y-69949501D01*
X196597881Y-69949500D01*
X196597873Y-69949500D01*
X196597864Y-69949500D01*
X194402129Y-69949500D01*
X194402123Y-69949501D01*
X194342516Y-69955908D01*
X194207671Y-70006202D01*
X194207664Y-70006206D01*
X194092455Y-70092452D01*
X194092452Y-70092455D01*
X194006206Y-70207664D01*
X194006202Y-70207671D01*
X193955908Y-70342517D01*
X193951558Y-70382981D01*
X193949501Y-70402123D01*
X193949500Y-70402135D01*
X186176101Y-70402135D01*
X186202464Y-70382981D01*
X186342981Y-70242464D01*
X186459787Y-70081694D01*
X186550005Y-69904632D01*
X186611413Y-69715636D01*
X186642500Y-69519361D01*
X186642500Y-69320639D01*
X186611413Y-69124364D01*
X186550005Y-68935368D01*
X186550005Y-68935367D01*
X186481286Y-68800500D01*
X186459787Y-68758306D01*
X186342981Y-68597536D01*
X186202464Y-68457019D01*
X186041694Y-68340213D01*
X185885218Y-68260484D01*
X185834423Y-68212510D01*
X185817628Y-68144689D01*
X185840165Y-68078554D01*
X185885218Y-68039515D01*
X186041694Y-67959787D01*
X186154302Y-67877973D01*
X193949500Y-67877973D01*
X193949500Y-68122027D01*
X193960042Y-68188587D01*
X193984057Y-68340213D01*
X193987679Y-68363076D01*
X194063096Y-68595185D01*
X194167708Y-68800499D01*
X194173896Y-68812642D01*
X194317339Y-69010076D01*
X194317343Y-69010081D01*
X194489918Y-69182656D01*
X194489923Y-69182660D01*
X194657057Y-69304089D01*
X194687361Y-69326106D01*
X194904815Y-69436904D01*
X195136924Y-69512321D01*
X195377973Y-69550500D01*
X195377974Y-69550500D01*
X195622026Y-69550500D01*
X195622027Y-69550500D01*
X195863076Y-69512321D01*
X196095185Y-69436904D01*
X196312639Y-69326106D01*
X196510083Y-69182655D01*
X196682655Y-69010083D01*
X196826106Y-68812639D01*
X196936904Y-68595185D01*
X197012321Y-68363076D01*
X197050500Y-68122027D01*
X197050500Y-67877973D01*
X197012321Y-67636924D01*
X196936904Y-67404815D01*
X196826106Y-67187361D01*
X196807779Y-67162136D01*
X196682660Y-66989923D01*
X196682656Y-66989918D01*
X196510081Y-66817343D01*
X196510076Y-66817339D01*
X196312642Y-66673896D01*
X196312641Y-66673895D01*
X196312639Y-66673894D01*
X196095185Y-66563096D01*
X195863076Y-66487679D01*
X195863074Y-66487678D01*
X195863072Y-66487678D01*
X195694769Y-66461021D01*
X195622027Y-66449500D01*
X195377973Y-66449500D01*
X195322093Y-66458350D01*
X195136927Y-66487678D01*
X194904812Y-66563097D01*
X194687357Y-66673896D01*
X194489923Y-66817339D01*
X194489918Y-66817343D01*
X194317343Y-66989918D01*
X194317339Y-66989923D01*
X194173896Y-67187357D01*
X194063097Y-67404812D01*
X193987678Y-67636927D01*
X193977298Y-67702464D01*
X193949500Y-67877973D01*
X186154302Y-67877973D01*
X186202464Y-67842981D01*
X186342981Y-67702464D01*
X186459787Y-67541694D01*
X186550005Y-67364632D01*
X186611413Y-67175636D01*
X186642500Y-66979361D01*
X186642500Y-66780639D01*
X186611413Y-66584364D01*
X186579998Y-66487678D01*
X186550006Y-66395370D01*
X186550005Y-66395367D01*
X186459786Y-66218305D01*
X186342981Y-66057536D01*
X186202464Y-65917019D01*
X186041694Y-65800213D01*
X185885218Y-65720484D01*
X185834423Y-65672510D01*
X185817628Y-65604689D01*
X185840165Y-65538554D01*
X185885218Y-65499515D01*
X186041694Y-65419787D01*
X186202464Y-65302981D01*
X186342981Y-65162464D01*
X186459787Y-65001694D01*
X186550005Y-64824632D01*
X186611413Y-64635636D01*
X186642500Y-64439361D01*
X186642500Y-64240639D01*
X186611413Y-64044364D01*
X186550005Y-63855368D01*
X186550005Y-63855367D01*
X186459786Y-63678305D01*
X186418026Y-63620827D01*
X186342981Y-63517536D01*
X186202464Y-63377019D01*
X186041694Y-63260213D01*
X185884667Y-63180203D01*
X185833872Y-63132229D01*
X185817077Y-63064408D01*
X185839614Y-62998273D01*
X185884669Y-62959234D01*
X186041422Y-62879364D01*
X186078716Y-62852268D01*
X185407448Y-62181000D01*
X185430160Y-62181000D01*
X185527061Y-62155036D01*
X185613940Y-62104876D01*
X185684876Y-62033940D01*
X185735036Y-61947061D01*
X185761000Y-61850160D01*
X185761000Y-61827447D01*
X186432268Y-62498715D01*
X186459362Y-62461425D01*
X186549542Y-62284437D01*
X186610924Y-62095523D01*
X186610924Y-62095520D01*
X186642000Y-61899321D01*
X186642000Y-61700678D01*
X186610924Y-61504479D01*
X186610924Y-61504476D01*
X186580688Y-61411419D01*
X186569821Y-61377973D01*
X192949500Y-61377973D01*
X192949500Y-61622026D01*
X192977688Y-61800000D01*
X192987679Y-61863076D01*
X193063096Y-62095185D01*
X193159622Y-62284629D01*
X193173896Y-62312642D01*
X193317339Y-62510076D01*
X193317343Y-62510081D01*
X193489918Y-62682656D01*
X193489923Y-62682660D01*
X193662136Y-62807779D01*
X193687361Y-62826106D01*
X193904815Y-62936904D01*
X194136924Y-63012321D01*
X194377973Y-63050500D01*
X194377974Y-63050500D01*
X194622026Y-63050500D01*
X194622027Y-63050500D01*
X194863076Y-63012321D01*
X195095185Y-62936904D01*
X195312639Y-62826106D01*
X195510083Y-62682655D01*
X195682655Y-62510083D01*
X195826106Y-62312639D01*
X195936904Y-62095185D01*
X196012321Y-61863076D01*
X196050500Y-61622027D01*
X196050500Y-61377973D01*
X196012321Y-61136924D01*
X195936904Y-60904815D01*
X195826106Y-60687361D01*
X195763888Y-60601725D01*
X195682660Y-60489923D01*
X195682656Y-60489918D01*
X195510081Y-60317343D01*
X195510076Y-60317339D01*
X195312642Y-60173896D01*
X195312641Y-60173895D01*
X195312639Y-60173894D01*
X195095185Y-60063096D01*
X194863076Y-59987679D01*
X194863074Y-59987678D01*
X194863072Y-59987678D01*
X194694769Y-59961021D01*
X194622027Y-59949500D01*
X194377973Y-59949500D01*
X194322093Y-59958350D01*
X194136927Y-59987678D01*
X193904812Y-60063097D01*
X193687357Y-60173896D01*
X193489923Y-60317339D01*
X193489918Y-60317343D01*
X193317343Y-60489918D01*
X193317339Y-60489923D01*
X193173896Y-60687357D01*
X193063097Y-60904812D01*
X192987678Y-61136927D01*
X192949500Y-61377973D01*
X186569821Y-61377973D01*
X186549542Y-61315562D01*
X186459358Y-61138567D01*
X186432268Y-61101283D01*
X185761000Y-61772551D01*
X185761000Y-61749840D01*
X185735036Y-61652939D01*
X185684876Y-61566060D01*
X185613940Y-61495124D01*
X185527061Y-61444964D01*
X185430160Y-61419000D01*
X185407447Y-61419000D01*
X186078716Y-60747731D01*
X186078715Y-60747730D01*
X186041432Y-60720641D01*
X185884668Y-60640765D01*
X185833872Y-60592790D01*
X185817077Y-60524969D01*
X185839615Y-60458834D01*
X185884667Y-60419796D01*
X186041694Y-60339787D01*
X186202464Y-60222981D01*
X186342981Y-60082464D01*
X186459787Y-59921694D01*
X186550005Y-59744632D01*
X186611413Y-59555636D01*
X186642500Y-59359361D01*
X186642500Y-59160639D01*
X186611413Y-58964364D01*
X186550005Y-58775368D01*
X186550005Y-58775367D01*
X186459786Y-58598305D01*
X186391508Y-58504328D01*
X186342981Y-58437536D01*
X186202464Y-58297019D01*
X186041694Y-58180213D01*
X185885218Y-58100484D01*
X185834423Y-58052510D01*
X185817628Y-57984689D01*
X185840165Y-57918554D01*
X185885218Y-57879515D01*
X186041694Y-57799787D01*
X186202464Y-57682981D01*
X186342981Y-57542464D01*
X186459787Y-57381694D01*
X186550005Y-57204632D01*
X186611413Y-57015636D01*
X186642500Y-56819361D01*
X186642500Y-56620639D01*
X186611413Y-56424364D01*
X186580709Y-56329866D01*
X186550006Y-56235370D01*
X186550005Y-56235367D01*
X186504035Y-56145149D01*
X186459787Y-56058306D01*
X186342981Y-55897536D01*
X186202464Y-55757019D01*
X186041694Y-55640213D01*
X185864632Y-55549994D01*
X185864629Y-55549993D01*
X185675637Y-55488587D01*
X185577498Y-55473043D01*
X185479361Y-55457500D01*
X185280639Y-55457500D01*
X185215214Y-55467862D01*
X185084362Y-55488587D01*
X184895370Y-55549993D01*
X184895367Y-55549994D01*
X184718305Y-55640213D01*
X184557533Y-55757021D01*
X184417021Y-55897533D01*
X184300213Y-56058305D01*
X184209994Y-56235367D01*
X184209993Y-56235370D01*
X184148587Y-56424362D01*
X184137294Y-56495664D01*
X184117500Y-56620639D01*
X171642500Y-56620639D01*
X171611413Y-56424364D01*
X171580709Y-56329866D01*
X171550006Y-56235370D01*
X171550005Y-56235367D01*
X171504035Y-56145149D01*
X171459787Y-56058306D01*
X171342981Y-55897536D01*
X171202464Y-55757019D01*
X171041694Y-55640213D01*
X170864632Y-55549994D01*
X170864629Y-55549993D01*
X170675637Y-55488587D01*
X170577498Y-55473043D01*
X170479361Y-55457500D01*
X170280639Y-55457500D01*
X170215214Y-55467862D01*
X170084362Y-55488587D01*
X169895370Y-55549993D01*
X169895367Y-55549994D01*
X169718305Y-55640213D01*
X169557533Y-55757021D01*
X169417021Y-55897533D01*
X169300213Y-56058305D01*
X169209994Y-56235367D01*
X169209993Y-56235370D01*
X169148587Y-56424362D01*
X169137294Y-56495664D01*
X169117500Y-56620639D01*
X168028302Y-56620639D01*
X168004571Y-56501338D01*
X167985754Y-56455909D01*
X167944231Y-56355662D01*
X167944224Y-56355649D01*
X167856623Y-56224546D01*
X167856620Y-56224542D01*
X167745126Y-56113048D01*
X167745122Y-56113045D01*
X167614019Y-56025444D01*
X167614006Y-56025437D01*
X167468335Y-55965099D01*
X167468323Y-55965096D01*
X167313679Y-55934335D01*
X167313676Y-55934335D01*
X167155992Y-55934335D01*
X167155989Y-55934335D01*
X167001344Y-55965096D01*
X167001332Y-55965099D01*
X166855661Y-56025437D01*
X166855648Y-56025444D01*
X166724545Y-56113045D01*
X166724541Y-56113048D01*
X166613047Y-56224542D01*
X166613044Y-56224546D01*
X166525443Y-56355649D01*
X166525436Y-56355662D01*
X166465098Y-56501333D01*
X166465095Y-56501345D01*
X166434334Y-56655988D01*
X135000500Y-56655988D01*
X135000500Y-54421153D01*
X188199500Y-54421153D01*
X188199500Y-54578846D01*
X188230261Y-54733489D01*
X188230263Y-54733497D01*
X188240061Y-54757151D01*
X188249500Y-54804604D01*
X188249500Y-57195396D01*
X188240062Y-57242844D01*
X188230263Y-57266503D01*
X188230262Y-57266506D01*
X188230260Y-57266511D01*
X188199500Y-57421153D01*
X188199500Y-57578846D01*
X188230261Y-57733489D01*
X188230264Y-57733501D01*
X188290602Y-57879172D01*
X188290609Y-57879185D01*
X188378210Y-58010288D01*
X188378213Y-58010292D01*
X188489707Y-58121786D01*
X188489711Y-58121789D01*
X188620814Y-58209390D01*
X188620827Y-58209397D01*
X188766498Y-58269735D01*
X188766503Y-58269737D01*
X188903658Y-58297019D01*
X188921153Y-58300499D01*
X188921156Y-58300500D01*
X188921158Y-58300500D01*
X189078844Y-58300500D01*
X189078845Y-58300499D01*
X189233497Y-58269737D01*
X189379179Y-58209394D01*
X189510289Y-58121789D01*
X189621789Y-58010289D01*
X189709394Y-57879179D01*
X189769737Y-57733497D01*
X189800500Y-57578842D01*
X189800500Y-57421158D01*
X189800500Y-57421155D01*
X189800499Y-57421153D01*
X189769739Y-57266511D01*
X189769738Y-57266508D01*
X189769737Y-57266503D01*
X189759937Y-57242844D01*
X189750500Y-57195396D01*
X189750500Y-56902135D01*
X192949500Y-56902135D01*
X192949500Y-59097870D01*
X192949501Y-59097876D01*
X192955908Y-59157483D01*
X193006202Y-59292328D01*
X193006206Y-59292335D01*
X193092452Y-59407544D01*
X193092455Y-59407547D01*
X193207664Y-59493793D01*
X193207671Y-59493797D01*
X193342517Y-59544091D01*
X193342516Y-59544091D01*
X193349444Y-59544835D01*
X193402127Y-59550500D01*
X195597872Y-59550499D01*
X195657483Y-59544091D01*
X195792331Y-59493796D01*
X195907546Y-59407546D01*
X195993796Y-59292331D01*
X196044091Y-59157483D01*
X196050500Y-59097873D01*
X196050499Y-57400639D01*
X204171500Y-57400639D01*
X204171500Y-57599360D01*
X204202587Y-57795637D01*
X204263993Y-57984629D01*
X204263994Y-57984632D01*
X204317680Y-58089995D01*
X204354213Y-58161694D01*
X204471019Y-58322464D01*
X204611536Y-58462981D01*
X204772306Y-58579787D01*
X204850333Y-58619544D01*
X204949367Y-58670005D01*
X204949370Y-58670006D01*
X205043866Y-58700709D01*
X205138364Y-58731413D01*
X205334639Y-58762500D01*
X205334640Y-58762500D01*
X205533360Y-58762500D01*
X205533361Y-58762500D01*
X205729636Y-58731413D01*
X205918632Y-58670005D01*
X206095694Y-58579787D01*
X206256464Y-58462981D01*
X206396981Y-58322464D01*
X206487183Y-58198311D01*
X206542511Y-58155646D01*
X206612125Y-58149667D01*
X206673920Y-58182272D01*
X206708277Y-58243111D01*
X206711500Y-58271194D01*
X206711500Y-58309868D01*
X206711501Y-58309876D01*
X206717908Y-58369483D01*
X206768202Y-58504328D01*
X206768206Y-58504335D01*
X206854452Y-58619544D01*
X206854455Y-58619547D01*
X206969664Y-58705793D01*
X206969671Y-58705797D01*
X207104517Y-58756091D01*
X207104516Y-58756091D01*
X207111444Y-58756835D01*
X207164127Y-58762500D01*
X208783872Y-58762499D01*
X208843483Y-58756091D01*
X208978331Y-58705796D01*
X209093546Y-58619546D01*
X209179796Y-58504331D01*
X209230091Y-58369483D01*
X209236500Y-58309873D01*
X209236499Y-56690128D01*
X209230091Y-56630517D01*
X209215894Y-56592454D01*
X209179797Y-56495671D01*
X209179793Y-56495664D01*
X209093547Y-56380455D01*
X209093544Y-56380452D01*
X208978335Y-56294206D01*
X208978328Y-56294202D01*
X208843482Y-56243908D01*
X208843483Y-56243908D01*
X208783883Y-56237501D01*
X208783881Y-56237500D01*
X208783873Y-56237500D01*
X208783864Y-56237500D01*
X207164129Y-56237500D01*
X207164123Y-56237501D01*
X207104516Y-56243908D01*
X206969671Y-56294202D01*
X206969664Y-56294206D01*
X206854455Y-56380452D01*
X206854452Y-56380455D01*
X206768206Y-56495664D01*
X206768202Y-56495671D01*
X206717908Y-56630517D01*
X206711501Y-56690116D01*
X206711501Y-56690123D01*
X206711500Y-56690135D01*
X206711500Y-56728801D01*
X206691815Y-56795840D01*
X206639011Y-56841595D01*
X206569853Y-56851539D01*
X206506297Y-56822514D01*
X206487182Y-56801687D01*
X206462863Y-56768215D01*
X206396981Y-56677536D01*
X206256464Y-56537019D01*
X206095694Y-56420213D01*
X205918632Y-56329994D01*
X205918629Y-56329993D01*
X205729637Y-56268587D01*
X205631498Y-56253043D01*
X205533361Y-56237500D01*
X205334639Y-56237500D01*
X205269214Y-56247862D01*
X205138362Y-56268587D01*
X204949370Y-56329993D01*
X204949367Y-56329994D01*
X204772305Y-56420213D01*
X204611533Y-56537021D01*
X204471021Y-56677533D01*
X204354213Y-56838305D01*
X204263994Y-57015367D01*
X204263993Y-57015370D01*
X204202587Y-57204362D01*
X204171500Y-57400639D01*
X196050499Y-57400639D01*
X196050499Y-56902128D01*
X196044091Y-56842517D01*
X196042520Y-56838306D01*
X195993797Y-56707671D01*
X195993793Y-56707664D01*
X195907547Y-56592455D01*
X195907544Y-56592452D01*
X195792335Y-56506206D01*
X195792328Y-56506202D01*
X195657482Y-56455908D01*
X195657483Y-56455908D01*
X195597883Y-56449501D01*
X195597881Y-56449500D01*
X195597873Y-56449500D01*
X195597864Y-56449500D01*
X193402129Y-56449500D01*
X193402123Y-56449501D01*
X193342516Y-56455908D01*
X193207671Y-56506202D01*
X193207664Y-56506206D01*
X193092455Y-56592452D01*
X193092452Y-56592455D01*
X193006206Y-56707664D01*
X193006202Y-56707671D01*
X192955908Y-56842517D01*
X192949501Y-56902116D01*
X192949501Y-56902123D01*
X192949500Y-56902135D01*
X189750500Y-56902135D01*
X189750500Y-54804604D01*
X189759939Y-54757151D01*
X189769737Y-54733497D01*
X189800500Y-54578842D01*
X189800500Y-54421158D01*
X189800500Y-54421155D01*
X189800499Y-54421153D01*
X189769738Y-54266510D01*
X189769737Y-54266503D01*
X189769735Y-54266498D01*
X189709397Y-54120827D01*
X189709390Y-54120814D01*
X189621789Y-53989711D01*
X189621786Y-53989707D01*
X189510292Y-53878213D01*
X189510288Y-53878210D01*
X189379185Y-53790609D01*
X189379172Y-53790602D01*
X189233501Y-53730264D01*
X189233489Y-53730261D01*
X189078845Y-53699500D01*
X189078842Y-53699500D01*
X188921158Y-53699500D01*
X188921155Y-53699500D01*
X188766510Y-53730261D01*
X188766498Y-53730264D01*
X188620827Y-53790602D01*
X188620814Y-53790609D01*
X188489711Y-53878210D01*
X188489707Y-53878213D01*
X188378213Y-53989707D01*
X188378210Y-53989711D01*
X188290609Y-54120814D01*
X188290602Y-54120827D01*
X188230264Y-54266498D01*
X188230261Y-54266510D01*
X188199500Y-54421153D01*
X135000500Y-54421153D01*
X135000500Y-46602135D01*
X187649500Y-46602135D01*
X187649500Y-48397870D01*
X187649501Y-48397876D01*
X187655908Y-48457483D01*
X187706202Y-48592328D01*
X187706206Y-48592335D01*
X187792452Y-48707544D01*
X187792455Y-48707547D01*
X187907664Y-48793793D01*
X187907671Y-48793797D01*
X188042517Y-48844091D01*
X188042516Y-48844091D01*
X188049444Y-48844835D01*
X188102127Y-48850500D01*
X189897872Y-48850499D01*
X189957483Y-48844091D01*
X190092331Y-48793796D01*
X190207546Y-48707546D01*
X190293796Y-48592331D01*
X190342810Y-48460916D01*
X190384681Y-48404984D01*
X190450145Y-48380566D01*
X190518418Y-48395417D01*
X190546673Y-48416569D01*
X190660213Y-48530109D01*
X190832179Y-48655048D01*
X190832181Y-48655049D01*
X190832184Y-48655051D01*
X191021588Y-48751557D01*
X191223757Y-48817246D01*
X191433713Y-48850500D01*
X191433714Y-48850500D01*
X191646286Y-48850500D01*
X191646287Y-48850500D01*
X191856243Y-48817246D01*
X192058412Y-48751557D01*
X192247816Y-48655051D01*
X192334138Y-48592335D01*
X192419786Y-48530109D01*
X192419788Y-48530106D01*
X192419792Y-48530104D01*
X192570104Y-48379792D01*
X192570106Y-48379788D01*
X192570109Y-48379786D01*
X192695048Y-48207820D01*
X192695047Y-48207820D01*
X192695051Y-48207816D01*
X192699514Y-48199054D01*
X192747488Y-48148259D01*
X192815308Y-48131463D01*
X192881444Y-48153999D01*
X192920486Y-48199056D01*
X192924951Y-48207820D01*
X193049890Y-48379786D01*
X193200213Y-48530109D01*
X193372179Y-48655048D01*
X193372181Y-48655049D01*
X193372184Y-48655051D01*
X193561588Y-48751557D01*
X193763757Y-48817246D01*
X193973713Y-48850500D01*
X193973714Y-48850500D01*
X194186286Y-48850500D01*
X194186287Y-48850500D01*
X194396243Y-48817246D01*
X194598412Y-48751557D01*
X194787816Y-48655051D01*
X194874138Y-48592335D01*
X194959786Y-48530109D01*
X194959788Y-48530106D01*
X194959792Y-48530104D01*
X195110104Y-48379792D01*
X195110106Y-48379788D01*
X195110109Y-48379786D01*
X195235048Y-48207820D01*
X195235047Y-48207820D01*
X195235051Y-48207816D01*
X195239514Y-48199054D01*
X195287488Y-48148259D01*
X195355308Y-48131463D01*
X195421444Y-48153999D01*
X195460486Y-48199056D01*
X195464951Y-48207820D01*
X195589890Y-48379786D01*
X195740213Y-48530109D01*
X195912179Y-48655048D01*
X195912181Y-48655049D01*
X195912184Y-48655051D01*
X196101588Y-48751557D01*
X196303757Y-48817246D01*
X196513713Y-48850500D01*
X196513714Y-48850500D01*
X196726286Y-48850500D01*
X196726287Y-48850500D01*
X196936243Y-48817246D01*
X197138412Y-48751557D01*
X197327816Y-48655051D01*
X197414138Y-48592335D01*
X197499786Y-48530109D01*
X197499788Y-48530106D01*
X197499792Y-48530104D01*
X197650104Y-48379792D01*
X197650106Y-48379788D01*
X197650109Y-48379786D01*
X197775048Y-48207820D01*
X197775047Y-48207820D01*
X197775051Y-48207816D01*
X197871557Y-48018412D01*
X197937246Y-47816243D01*
X197970500Y-47606287D01*
X197970500Y-47393713D01*
X197937246Y-47183757D01*
X197871557Y-46981588D01*
X197775051Y-46792184D01*
X197775049Y-46792181D01*
X197775048Y-46792179D01*
X197687542Y-46671736D01*
X197650109Y-46620214D01*
X197650105Y-46620209D01*
X197632051Y-46602155D01*
X199610000Y-46602155D01*
X199610000Y-47250000D01*
X200526988Y-47250000D01*
X200494075Y-47307007D01*
X200460000Y-47434174D01*
X200460000Y-47565826D01*
X200494075Y-47692993D01*
X200526988Y-47750000D01*
X199610000Y-47750000D01*
X199610000Y-48397844D01*
X199616401Y-48457372D01*
X199616403Y-48457379D01*
X199666645Y-48592086D01*
X199666649Y-48592093D01*
X199752809Y-48707187D01*
X199752812Y-48707190D01*
X199867906Y-48793350D01*
X199867913Y-48793354D01*
X200002620Y-48843596D01*
X200002627Y-48843598D01*
X200062155Y-48849999D01*
X200062172Y-48850000D01*
X200710000Y-48850000D01*
X200710000Y-47933012D01*
X200767007Y-47965925D01*
X200894174Y-48000000D01*
X201025826Y-48000000D01*
X201152993Y-47965925D01*
X201210000Y-47933012D01*
X201210000Y-48850000D01*
X201857828Y-48850000D01*
X201857844Y-48849999D01*
X201917372Y-48843598D01*
X201917379Y-48843596D01*
X202052086Y-48793354D01*
X202052093Y-48793350D01*
X202167187Y-48707190D01*
X202167190Y-48707187D01*
X202253350Y-48592093D01*
X202253354Y-48592086D01*
X202275529Y-48532632D01*
X202314319Y-48359390D01*
X202314682Y-48358734D01*
X202314642Y-48357984D01*
X202347642Y-48298802D01*
X203017037Y-47629408D01*
X203034075Y-47692993D01*
X203099901Y-47807007D01*
X203192993Y-47900099D01*
X203307007Y-47965925D01*
X203370590Y-47982962D01*
X202738282Y-48615269D01*
X202738282Y-48615270D01*
X202792449Y-48654624D01*
X202981782Y-48751095D01*
X203183870Y-48816757D01*
X203393754Y-48850000D01*
X203606246Y-48850000D01*
X203816127Y-48816757D01*
X203816130Y-48816757D01*
X204018217Y-48751095D01*
X204207554Y-48654622D01*
X204261716Y-48615270D01*
X204261717Y-48615270D01*
X203629408Y-47982962D01*
X203692993Y-47965925D01*
X203807007Y-47900099D01*
X203900099Y-47807007D01*
X203965925Y-47692993D01*
X203982962Y-47629408D01*
X204615270Y-48261717D01*
X204615270Y-48261716D01*
X204654622Y-48207554D01*
X204659514Y-48197954D01*
X204707488Y-48147157D01*
X204775308Y-48130361D01*
X204841444Y-48152897D01*
X204880486Y-48197954D01*
X204885375Y-48207550D01*
X204924728Y-48261716D01*
X205557037Y-47629408D01*
X205574075Y-47692993D01*
X205639901Y-47807007D01*
X205732993Y-47900099D01*
X205847007Y-47965925D01*
X205910590Y-47982962D01*
X205278282Y-48615269D01*
X205278282Y-48615270D01*
X205332449Y-48654624D01*
X205521782Y-48751095D01*
X205723870Y-48816757D01*
X205933754Y-48850000D01*
X206146246Y-48850000D01*
X206356127Y-48816757D01*
X206356130Y-48816757D01*
X206558217Y-48751095D01*
X206747554Y-48654622D01*
X206801716Y-48615270D01*
X206801717Y-48615270D01*
X206169408Y-47982962D01*
X206232993Y-47965925D01*
X206347007Y-47900099D01*
X206440099Y-47807007D01*
X206505925Y-47692993D01*
X206522962Y-47629408D01*
X207155270Y-48261717D01*
X207155270Y-48261716D01*
X207194622Y-48207554D01*
X207199514Y-48197954D01*
X207247488Y-48147157D01*
X207315308Y-48130361D01*
X207381444Y-48152897D01*
X207420486Y-48197954D01*
X207425375Y-48207550D01*
X207464728Y-48261716D01*
X208097037Y-47629408D01*
X208114075Y-47692993D01*
X208179901Y-47807007D01*
X208272993Y-47900099D01*
X208387007Y-47965925D01*
X208450590Y-47982962D01*
X207818282Y-48615269D01*
X207818282Y-48615270D01*
X207872449Y-48654624D01*
X208061782Y-48751095D01*
X208263870Y-48816757D01*
X208473754Y-48850000D01*
X208686246Y-48850000D01*
X208896127Y-48816757D01*
X208896130Y-48816757D01*
X209098217Y-48751095D01*
X209287554Y-48654622D01*
X209341716Y-48615270D01*
X209341717Y-48615270D01*
X208709408Y-47982962D01*
X208772993Y-47965925D01*
X208887007Y-47900099D01*
X208980099Y-47807007D01*
X209045925Y-47692993D01*
X209062962Y-47629408D01*
X209695270Y-48261717D01*
X209695270Y-48261716D01*
X209734622Y-48207554D01*
X209831095Y-48018217D01*
X209896757Y-47816130D01*
X209896757Y-47816127D01*
X209930000Y-47606246D01*
X209930000Y-47393753D01*
X209896757Y-47183872D01*
X209896757Y-47183869D01*
X209831095Y-46981782D01*
X209734624Y-46792449D01*
X209695270Y-46738282D01*
X209695269Y-46738282D01*
X209062962Y-47370590D01*
X209045925Y-47307007D01*
X208980099Y-47192993D01*
X208887007Y-47099901D01*
X208772993Y-47034075D01*
X208709409Y-47017037D01*
X209341716Y-46384728D01*
X209287550Y-46345375D01*
X209098217Y-46248904D01*
X208896129Y-46183242D01*
X208686246Y-46150000D01*
X208473754Y-46150000D01*
X208263872Y-46183242D01*
X208263869Y-46183242D01*
X208061782Y-46248904D01*
X207872439Y-46345380D01*
X207818282Y-46384727D01*
X207818282Y-46384728D01*
X208450591Y-47017037D01*
X208387007Y-47034075D01*
X208272993Y-47099901D01*
X208179901Y-47192993D01*
X208114075Y-47307007D01*
X208097037Y-47370591D01*
X207464728Y-46738282D01*
X207464727Y-46738282D01*
X207425380Y-46792440D01*
X207420483Y-46802051D01*
X207372506Y-46852845D01*
X207304684Y-46869638D01*
X207238550Y-46847098D01*
X207199516Y-46802048D01*
X207194626Y-46792452D01*
X207155270Y-46738282D01*
X207155269Y-46738282D01*
X206522962Y-47370590D01*
X206505925Y-47307007D01*
X206440099Y-47192993D01*
X206347007Y-47099901D01*
X206232993Y-47034075D01*
X206169409Y-47017037D01*
X206801716Y-46384728D01*
X206747550Y-46345375D01*
X206558217Y-46248904D01*
X206356129Y-46183242D01*
X206146246Y-46150000D01*
X205933754Y-46150000D01*
X205723872Y-46183242D01*
X205723869Y-46183242D01*
X205521782Y-46248904D01*
X205332439Y-46345380D01*
X205278282Y-46384727D01*
X205278282Y-46384728D01*
X205910591Y-47017037D01*
X205847007Y-47034075D01*
X205732993Y-47099901D01*
X205639901Y-47192993D01*
X205574075Y-47307007D01*
X205557037Y-47370591D01*
X204924728Y-46738282D01*
X204924727Y-46738282D01*
X204885380Y-46792440D01*
X204880483Y-46802051D01*
X204832506Y-46852845D01*
X204764684Y-46869638D01*
X204698550Y-46847098D01*
X204659516Y-46802048D01*
X204654626Y-46792452D01*
X204615270Y-46738282D01*
X204615269Y-46738282D01*
X203982962Y-47370590D01*
X203965925Y-47307007D01*
X203900099Y-47192993D01*
X203807007Y-47099901D01*
X203692993Y-47034075D01*
X203629409Y-47017037D01*
X204261716Y-46384728D01*
X204207550Y-46345375D01*
X204018217Y-46248904D01*
X203816129Y-46183242D01*
X203606246Y-46150000D01*
X203393754Y-46150000D01*
X203183872Y-46183242D01*
X203183869Y-46183242D01*
X202981782Y-46248904D01*
X202792439Y-46345380D01*
X202738282Y-46384727D01*
X202738282Y-46384728D01*
X203370591Y-47017037D01*
X203307007Y-47034075D01*
X203192993Y-47099901D01*
X203099901Y-47192993D01*
X203034075Y-47307007D01*
X203017037Y-47370591D01*
X202347642Y-46701196D01*
X202314319Y-46640609D01*
X202275527Y-46467364D01*
X202253354Y-46407913D01*
X202253350Y-46407906D01*
X202167190Y-46292812D01*
X202167187Y-46292809D01*
X202052093Y-46206649D01*
X202052086Y-46206645D01*
X201917379Y-46156403D01*
X201917372Y-46156401D01*
X201857844Y-46150000D01*
X201210000Y-46150000D01*
X201210000Y-47066988D01*
X201152993Y-47034075D01*
X201025826Y-47000000D01*
X200894174Y-47000000D01*
X200767007Y-47034075D01*
X200710000Y-47066988D01*
X200710000Y-46150000D01*
X200062155Y-46150000D01*
X200002627Y-46156401D01*
X200002620Y-46156403D01*
X199867913Y-46206645D01*
X199867906Y-46206649D01*
X199752812Y-46292809D01*
X199752809Y-46292812D01*
X199666649Y-46407906D01*
X199666645Y-46407913D01*
X199616403Y-46542620D01*
X199616401Y-46542627D01*
X199610000Y-46602155D01*
X197632051Y-46602155D01*
X197499786Y-46469890D01*
X197327820Y-46344951D01*
X197138414Y-46248444D01*
X197138413Y-46248443D01*
X197138412Y-46248443D01*
X196936243Y-46182754D01*
X196936241Y-46182753D01*
X196936240Y-46182753D01*
X196774957Y-46157208D01*
X196726287Y-46149500D01*
X196513713Y-46149500D01*
X196465042Y-46157208D01*
X196303760Y-46182753D01*
X196101585Y-46248444D01*
X195912179Y-46344951D01*
X195740213Y-46469890D01*
X195589890Y-46620213D01*
X195464949Y-46792182D01*
X195460484Y-46800946D01*
X195412509Y-46851742D01*
X195344688Y-46868536D01*
X195278553Y-46845998D01*
X195239516Y-46800946D01*
X195235050Y-46792182D01*
X195110109Y-46620213D01*
X194959786Y-46469890D01*
X194787820Y-46344951D01*
X194598414Y-46248444D01*
X194598413Y-46248443D01*
X194598412Y-46248443D01*
X194396243Y-46182754D01*
X194396241Y-46182753D01*
X194396240Y-46182753D01*
X194234957Y-46157208D01*
X194186287Y-46149500D01*
X193973713Y-46149500D01*
X193925042Y-46157208D01*
X193763760Y-46182753D01*
X193561585Y-46248444D01*
X193372179Y-46344951D01*
X193200213Y-46469890D01*
X193049890Y-46620213D01*
X192924949Y-46792182D01*
X192920484Y-46800946D01*
X192872509Y-46851742D01*
X192804688Y-46868536D01*
X192738553Y-46845998D01*
X192699516Y-46800946D01*
X192695050Y-46792182D01*
X192570109Y-46620213D01*
X192419786Y-46469890D01*
X192247820Y-46344951D01*
X192058414Y-46248444D01*
X192058413Y-46248443D01*
X192058412Y-46248443D01*
X191856243Y-46182754D01*
X191856241Y-46182753D01*
X191856240Y-46182753D01*
X191694957Y-46157208D01*
X191646287Y-46149500D01*
X191433713Y-46149500D01*
X191385042Y-46157208D01*
X191223760Y-46182753D01*
X191021585Y-46248444D01*
X190832179Y-46344951D01*
X190660215Y-46469889D01*
X190546673Y-46583431D01*
X190485350Y-46616915D01*
X190415658Y-46611931D01*
X190359725Y-46570059D01*
X190342810Y-46539082D01*
X190293797Y-46407671D01*
X190293793Y-46407664D01*
X190207547Y-46292455D01*
X190207544Y-46292452D01*
X190092335Y-46206206D01*
X190092328Y-46206202D01*
X189957482Y-46155908D01*
X189957483Y-46155908D01*
X189897883Y-46149501D01*
X189897881Y-46149500D01*
X189897873Y-46149500D01*
X189897864Y-46149500D01*
X188102129Y-46149500D01*
X188102123Y-46149501D01*
X188042516Y-46155908D01*
X187907671Y-46206202D01*
X187907664Y-46206206D01*
X187792455Y-46292452D01*
X187792452Y-46292455D01*
X187706206Y-46407664D01*
X187706202Y-46407671D01*
X187655908Y-46542517D01*
X187649501Y-46602116D01*
X187649500Y-46602135D01*
X135000500Y-46602135D01*
X135000500Y-34309455D01*
X135821300Y-34309455D01*
X135821300Y-34690544D01*
X135858653Y-35069809D01*
X135932996Y-35443563D01*
X135932999Y-35443574D01*
X136043629Y-35808276D01*
X136189469Y-36160360D01*
X136189471Y-36160365D01*
X136369109Y-36496443D01*
X136369120Y-36496461D01*
X136580836Y-36813317D01*
X136580846Y-36813331D01*
X136822611Y-37107922D01*
X137092077Y-37377388D01*
X137092082Y-37377392D01*
X137092083Y-37377393D01*
X137386674Y-37619158D01*
X137703545Y-37830884D01*
X137703554Y-37830889D01*
X137703556Y-37830890D01*
X138039634Y-38010528D01*
X138039636Y-38010528D01*
X138039642Y-38010532D01*
X138254222Y-38099414D01*
X138391723Y-38156370D01*
X138391727Y-38156371D01*
X138391729Y-38156372D01*
X138756416Y-38266998D01*
X138756422Y-38266999D01*
X138756425Y-38267000D01*
X138756436Y-38267003D01*
X139130190Y-38341346D01*
X139509452Y-38378700D01*
X139509455Y-38378700D01*
X139890545Y-38378700D01*
X139890548Y-38378700D01*
X140269810Y-38341346D01*
X140342569Y-38326873D01*
X140643563Y-38267003D01*
X140643574Y-38267000D01*
X140643574Y-38266999D01*
X140643584Y-38266998D01*
X141008271Y-38156372D01*
X141360358Y-38010532D01*
X141696455Y-37830884D01*
X142013326Y-37619158D01*
X142307917Y-37377393D01*
X142577393Y-37107917D01*
X142819158Y-36813326D01*
X143030884Y-36496455D01*
X143210532Y-36160358D01*
X143356372Y-35808271D01*
X143466998Y-35443584D01*
X143467000Y-35443574D01*
X143467003Y-35443563D01*
X143541346Y-35069809D01*
X143578700Y-34690544D01*
X143578700Y-34309455D01*
X237421300Y-34309455D01*
X237421300Y-34690544D01*
X237458653Y-35069809D01*
X237532996Y-35443563D01*
X237532999Y-35443574D01*
X237643629Y-35808276D01*
X237789469Y-36160360D01*
X237789471Y-36160365D01*
X237969109Y-36496443D01*
X237969120Y-36496461D01*
X238180836Y-36813317D01*
X238180846Y-36813331D01*
X238422611Y-37107922D01*
X238692077Y-37377388D01*
X238692082Y-37377392D01*
X238692083Y-37377393D01*
X238986674Y-37619158D01*
X239303545Y-37830884D01*
X239303554Y-37830889D01*
X239303556Y-37830890D01*
X239639634Y-38010528D01*
X239639636Y-38010528D01*
X239639642Y-38010532D01*
X239854222Y-38099414D01*
X239991723Y-38156370D01*
X239991727Y-38156371D01*
X239991729Y-38156372D01*
X240356416Y-38266998D01*
X240356422Y-38266999D01*
X240356425Y-38267000D01*
X240356436Y-38267003D01*
X240730190Y-38341346D01*
X241109452Y-38378700D01*
X241109455Y-38378700D01*
X241490545Y-38378700D01*
X241490548Y-38378700D01*
X241869810Y-38341346D01*
X241942569Y-38326873D01*
X242243563Y-38267003D01*
X242243574Y-38267000D01*
X242243574Y-38266999D01*
X242243584Y-38266998D01*
X242608271Y-38156372D01*
X242960358Y-38010532D01*
X243296455Y-37830884D01*
X243613326Y-37619158D01*
X243907917Y-37377393D01*
X244177393Y-37107917D01*
X244419158Y-36813326D01*
X244630884Y-36496455D01*
X244810532Y-36160358D01*
X244956372Y-35808271D01*
X245066998Y-35443584D01*
X245067000Y-35443574D01*
X245067003Y-35443563D01*
X245141346Y-35069809D01*
X245178700Y-34690544D01*
X245178700Y-34309455D01*
X245141346Y-33930190D01*
X245067003Y-33556436D01*
X245067000Y-33556425D01*
X245066999Y-33556422D01*
X245066998Y-33556416D01*
X244956372Y-33191729D01*
X244810532Y-32839642D01*
X244807921Y-32834758D01*
X244630890Y-32503556D01*
X244630889Y-32503554D01*
X244630884Y-32503545D01*
X244419158Y-32186674D01*
X244177393Y-31892083D01*
X244177392Y-31892082D01*
X244177388Y-31892077D01*
X243907922Y-31622611D01*
X243613331Y-31380846D01*
X243613330Y-31380845D01*
X243613326Y-31380842D01*
X243296455Y-31169116D01*
X243296450Y-31169113D01*
X243296443Y-31169109D01*
X242960365Y-30989471D01*
X242960360Y-30989469D01*
X242608276Y-30843629D01*
X242243574Y-30732999D01*
X242243563Y-30732996D01*
X241869809Y-30658653D01*
X241584165Y-30630520D01*
X241490548Y-30621300D01*
X241109452Y-30621300D01*
X241022951Y-30629819D01*
X240730190Y-30658653D01*
X240356436Y-30732996D01*
X240356425Y-30732999D01*
X239991723Y-30843629D01*
X239639639Y-30989469D01*
X239639634Y-30989471D01*
X239303556Y-31169109D01*
X239303538Y-31169120D01*
X238986682Y-31380836D01*
X238986668Y-31380846D01*
X238692077Y-31622611D01*
X238422611Y-31892077D01*
X238180846Y-32186668D01*
X238180836Y-32186682D01*
X237969120Y-32503538D01*
X237969109Y-32503556D01*
X237789471Y-32839634D01*
X237789469Y-32839639D01*
X237643629Y-33191723D01*
X237532999Y-33556425D01*
X237532996Y-33556436D01*
X237458653Y-33930190D01*
X237421300Y-34309455D01*
X143578700Y-34309455D01*
X143541346Y-33930190D01*
X143467003Y-33556436D01*
X143467000Y-33556425D01*
X143466999Y-33556422D01*
X143466998Y-33556416D01*
X143356372Y-33191729D01*
X143210532Y-32839642D01*
X143207921Y-32834758D01*
X143030890Y-32503556D01*
X143030889Y-32503554D01*
X143030884Y-32503545D01*
X142819158Y-32186674D01*
X142577393Y-31892083D01*
X142577392Y-31892082D01*
X142577388Y-31892077D01*
X142307922Y-31622611D01*
X142013331Y-31380846D01*
X142013330Y-31380845D01*
X142013326Y-31380842D01*
X141696455Y-31169116D01*
X141696450Y-31169113D01*
X141696443Y-31169109D01*
X141360365Y-30989471D01*
X141360360Y-30989469D01*
X141008276Y-30843629D01*
X140643574Y-30732999D01*
X140643563Y-30732996D01*
X140269809Y-30658653D01*
X139984165Y-30630520D01*
X139890548Y-30621300D01*
X139509452Y-30621300D01*
X139422951Y-30629819D01*
X139130190Y-30658653D01*
X138756436Y-30732996D01*
X138756425Y-30732999D01*
X138391723Y-30843629D01*
X138039639Y-30989469D01*
X138039634Y-30989471D01*
X137703556Y-31169109D01*
X137703538Y-31169120D01*
X137386682Y-31380836D01*
X137386668Y-31380846D01*
X137092077Y-31622611D01*
X136822611Y-31892077D01*
X136580846Y-32186668D01*
X136580836Y-32186682D01*
X136369120Y-32503538D01*
X136369109Y-32503556D01*
X136189471Y-32839634D01*
X136189469Y-32839639D01*
X136043629Y-33191723D01*
X135932999Y-33556425D01*
X135932996Y-33556436D01*
X135858653Y-33930190D01*
X135821300Y-34309455D01*
X135000500Y-34309455D01*
X135000500Y-32003750D01*
X135000726Y-31996263D01*
X135018271Y-31706205D01*
X135020076Y-31691340D01*
X135031899Y-31626827D01*
X135071780Y-31409197D01*
X135075364Y-31394663D01*
X135145646Y-31169120D01*
X135160696Y-31120822D01*
X135165998Y-31106841D01*
X135283731Y-30845249D01*
X135290676Y-30832016D01*
X135439080Y-30586526D01*
X135447567Y-30574230D01*
X135624480Y-30348417D01*
X135634395Y-30337226D01*
X135837226Y-30134395D01*
X135848417Y-30124480D01*
X136074230Y-29947567D01*
X136086526Y-29939080D01*
X136332016Y-29790676D01*
X136345249Y-29783731D01*
X136606841Y-29665998D01*
X136620822Y-29660696D01*
X136894668Y-29575362D01*
X136909197Y-29571780D01*
X137191344Y-29520075D01*
X137206201Y-29518271D01*
X137496264Y-29500726D01*
X137503751Y-29500500D01*
X137565892Y-29500500D01*
X243934108Y-29500500D01*
X243996249Y-29500500D01*
X244003736Y-29500726D01*
G37*
%TD.AperFunction*%
%TD*%
M02*
