%TF.GenerationSoftware,KiCad,Pcbnew,9.0.7*%
%TF.CreationDate,2026-02-24T22:46:11-05:00*%
%TF.ProjectId,Training_Robot,54726169-6e69-46e6-975f-526f626f742e,rev?*%
%TF.SameCoordinates,Original*%
%TF.FileFunction,Copper,L1,Top*%
%TF.FilePolarity,Positive*%
%FSLAX46Y46*%
G04 Gerber Fmt 4.6, Leading zero omitted, Abs format (unit mm)*
G04 Created by KiCad (PCBNEW 9.0.7) date 2026-02-24 22:46:11*
%MOMM*%
%LPD*%
G01*
G04 APERTURE LIST*
%TA.AperFunction,ComponentPad*%
%ADD10C,2.100000*%
%TD*%
%TA.AperFunction,ComponentPad*%
%ADD11R,2.100000X2.100000*%
%TD*%
%TA.AperFunction,ComponentPad*%
%ADD12O,1.500000X2.500000*%
%TD*%
%TA.AperFunction,ComponentPad*%
%ADD13R,1.500000X2.500000*%
%TD*%
%TA.AperFunction,ComponentPad*%
%ADD14O,2.200000X3.500000*%
%TD*%
%TA.AperFunction,ComponentPad*%
%ADD15C,1.700000*%
%TD*%
%TA.AperFunction,ComponentPad*%
%ADD16R,1.700000X1.700000*%
%TD*%
%TA.AperFunction,ComponentPad*%
%ADD17C,1.524000*%
%TD*%
%TA.AperFunction,ComponentPad*%
%ADD18R,1.524000X1.524000*%
%TD*%
%TA.AperFunction,ComponentPad*%
%ADD19C,1.400000*%
%TD*%
%TA.AperFunction,ComponentPad*%
%ADD20C,1.800000*%
%TD*%
%TA.AperFunction,ComponentPad*%
%ADD21R,1.800000X1.800000*%
%TD*%
%TA.AperFunction,ViaPad*%
%ADD22C,0.600000*%
%TD*%
%TA.AperFunction,Conductor*%
%ADD23C,0.500000*%
%TD*%
%TA.AperFunction,Conductor*%
%ADD24C,0.200000*%
%TD*%
G04 APERTURE END LIST*
D10*
%TO.P,M3,2,-*%
%TO.N,/BL-*%
X195500000Y-92000000D03*
D11*
%TO.P,M3,1,+*%
%TO.N,/BL+*%
X195500000Y-95500000D03*
%TD*%
D10*
%TO.P,M1,2,-*%
%TO.N,/FL-*%
X194500000Y-85500000D03*
D11*
%TO.P,M1,1,+*%
%TO.N,/FL+*%
X194500000Y-82000000D03*
%TD*%
%TO.P,M2,1,+*%
%TO.N,/FR+*%
X194500000Y-58000000D03*
D10*
%TO.P,M2,2,-*%
%TO.N,/FR-*%
X194500000Y-61500000D03*
%TD*%
%TO.P,M4,2,-*%
%TO.N,/BR-*%
X195500000Y-68000000D03*
D11*
%TO.P,M4,1,+*%
%TO.N,/BR+*%
X195500000Y-71500000D03*
%TD*%
D12*
%TO.P,SW1,3,A*%
%TO.N,GND*%
X204900000Y-80500000D03*
%TO.P,SW1,2,C*%
%TO.N,+3V3*%
X206900000Y-80500000D03*
D13*
%TO.P,SW1,1,B*%
%TO.N,Net-(D1-A)*%
X208900000Y-80500000D03*
D14*
%TO.P,SW1,*%
%TO.N,*%
X202800000Y-80500000D03*
X211000000Y-80500000D03*
%TD*%
D15*
%TO.P,J5,4,Pin_4*%
%TO.N,GND*%
X208580000Y-47500000D03*
%TO.P,J5,3,Pin_3*%
X206040000Y-47500000D03*
%TO.P,J5,2,Pin_2*%
X203500000Y-47500000D03*
D16*
%TO.P,J5,1,Pin_1*%
X200960000Y-47500000D03*
%TD*%
D17*
%TO.P,U4,4,GND*%
%TO.N,GND*%
X208000000Y-73500000D03*
%TO.P,U4,3,GND*%
X205460000Y-73500000D03*
D18*
%TO.P,U4,2,VCC*%
%TO.N,+12V motor pwr*%
X207974000Y-57500000D03*
D17*
%TO.P,U4,1,VCC*%
X205434000Y-57500000D03*
%TD*%
D19*
%TO.P,R1,2*%
%TO.N,/STBY*%
X220500000Y-80500000D03*
%TO.P,R1,1*%
%TO.N,Net-(D1-A)*%
X215420000Y-80500000D03*
%TD*%
%TO.P,R2,2*%
%TO.N,Net-(D1-K)*%
X211000000Y-91500000D03*
%TO.P,R2,1*%
%TO.N,GND*%
X211000000Y-96580000D03*
%TD*%
D20*
%TO.P,D1,2,A*%
%TO.N,Net-(D1-A)*%
X211000000Y-85500000D03*
D21*
%TO.P,D1,1,K*%
%TO.N,Net-(D1-K)*%
X211000000Y-88040000D03*
%TD*%
D15*
%TO.P,J4,4,Pin_4*%
%TO.N,+3V3*%
X196620000Y-47500000D03*
%TO.P,J4,3,Pin_3*%
X194080000Y-47500000D03*
%TO.P,J4,2,Pin_2*%
X191540000Y-47500000D03*
D16*
%TO.P,J4,1,Pin_1*%
X189000000Y-47500000D03*
%TD*%
D17*
%TO.P,U1,16,GND*%
%TO.N,GND*%
X185380000Y-74500000D03*
%TO.P,U1,15,BO1*%
%TO.N,/BR+*%
X185380000Y-71960000D03*
%TO.P,U1,14,BO2*%
%TO.N,/BR-*%
X185380000Y-69420000D03*
%TO.P,U1,13,AO2*%
%TO.N,/FR-*%
X185380000Y-66880000D03*
%TO.P,U1,12,AO1*%
%TO.N,/FR+*%
X185380000Y-64340000D03*
%TO.P,U1,11,GND*%
%TO.N,GND*%
X185380000Y-61800000D03*
%TO.P,U1,10,VCC*%
%TO.N,+3V3*%
X185380000Y-59260000D03*
%TO.P,U1,9,VM*%
%TO.N,+12V motor pwr*%
X185380000Y-56720000D03*
%TO.P,U1,8,GND*%
%TO.N,GND*%
X170380000Y-74500000D03*
%TO.P,U1,7,PWMB*%
%TO.N,Net-(J1-Pin_3)*%
X170380000Y-71960000D03*
%TO.P,U1,6,BIN2*%
%TO.N,Net-(J1-Pin_5)*%
X170380000Y-69420000D03*
%TO.P,U1,5,BIN1*%
%TO.N,Net-(J1-Pin_4)*%
X170380000Y-66880000D03*
%TO.P,U1,4,STBY*%
%TO.N,/STBY*%
X170380000Y-64340000D03*
%TO.P,U1,3,AIN1*%
%TO.N,Net-(J1-Pin_4)*%
X170380000Y-61800000D03*
%TO.P,U1,2,AIN2*%
%TO.N,Net-(J1-Pin_5)*%
X170380000Y-59260000D03*
%TO.P,U1,1,PWMA*%
%TO.N,Net-(J1-Pin_3)*%
X170380000Y-56720000D03*
%TD*%
D15*
%TO.P,J1,8,Pin_8*%
%TO.N,Net-(J1-Pin_8)*%
X154000000Y-85740000D03*
%TO.P,J1,7,Pin_7*%
%TO.N,Net-(J1-Pin_7)*%
X154000000Y-83200000D03*
%TO.P,J1,6,Pin_6*%
%TO.N,Net-(J1-Pin_6)*%
X154000000Y-80660000D03*
%TO.P,J1,5,Pin_5*%
%TO.N,Net-(J1-Pin_5)*%
X154000000Y-78120000D03*
%TO.P,J1,4,Pin_4*%
%TO.N,Net-(J1-Pin_4)*%
X154000000Y-75580000D03*
%TO.P,J1,3,Pin_3*%
%TO.N,Net-(J1-Pin_3)*%
X154000000Y-73040000D03*
%TO.P,J1,2,Pin_2*%
%TO.N,GND*%
X154000000Y-70500000D03*
D16*
%TO.P,J1,1,Pin_1*%
%TO.N,+3V3*%
X154000000Y-67960000D03*
%TD*%
D17*
%TO.P,U2,16,GND*%
%TO.N,GND*%
X185500000Y-98280000D03*
%TO.P,U2,15,BO1*%
%TO.N,/BL+*%
X185500000Y-95740000D03*
%TO.P,U2,14,BO2*%
%TO.N,/BL-*%
X185500000Y-93200000D03*
%TO.P,U2,13,AO2*%
%TO.N,/FL-*%
X185500000Y-90660000D03*
%TO.P,U2,12,AO1*%
%TO.N,/FL+*%
X185500000Y-88120000D03*
%TO.P,U2,11,GND*%
%TO.N,GND*%
X185500000Y-85580000D03*
%TO.P,U2,10,VCC*%
%TO.N,+3V3*%
X185500000Y-83040000D03*
%TO.P,U2,9,VM*%
%TO.N,+12V motor pwr*%
X185500000Y-80500000D03*
%TO.P,U2,8,GND*%
%TO.N,GND*%
X170500000Y-98280000D03*
%TO.P,U2,7,PWMB*%
%TO.N,Net-(J1-Pin_6)*%
X170500000Y-95740000D03*
%TO.P,U2,6,BIN2*%
%TO.N,Net-(J1-Pin_8)*%
X170500000Y-93200000D03*
%TO.P,U2,5,BIN1*%
%TO.N,Net-(J1-Pin_7)*%
X170500000Y-90660000D03*
%TO.P,U2,4,STBY*%
%TO.N,/STBY*%
X170500000Y-88120000D03*
%TO.P,U2,3,AIN1*%
%TO.N,Net-(J1-Pin_7)*%
X170500000Y-85580000D03*
%TO.P,U2,2,AIN2*%
%TO.N,Net-(J1-Pin_8)*%
X170500000Y-83040000D03*
%TO.P,U2,1,PWMA*%
%TO.N,Net-(J1-Pin_6)*%
X170500000Y-80500000D03*
%TD*%
D22*
%TO.N,Net-(J1-Pin_8)*%
X164500000Y-82500000D03*
%TO.N,Net-(J1-Pin_5)*%
X166500000Y-72560000D03*
%TO.N,/STBY*%
X167500000Y-64000000D03*
%TO.N,Net-(J1-Pin_5)*%
X166500000Y-71360000D03*
X163400000Y-68000000D03*
X164600000Y-68000000D03*
%TO.N,Net-(J1-Pin_8)*%
X163500000Y-83800000D03*
%TO.N,Net-(J1-Pin_4)*%
X164000000Y-72560000D03*
X164000000Y-71360000D03*
%TO.N,/STBY*%
X168000000Y-96500000D03*
X168000000Y-89000000D03*
X167234834Y-56734835D03*
%TO.N,+3V3*%
X189000000Y-54500000D03*
X189000000Y-57500000D03*
%TD*%
D23*
%TO.N,GND*%
X200960000Y-47500000D02*
X208580000Y-47500000D01*
%TO.N,+3V3*%
X189000000Y-47500000D02*
X196620000Y-47500000D01*
X189000000Y-47500000D02*
X189000000Y-53500000D01*
D24*
X206900000Y-80500000D02*
X207000000Y-80400000D01*
X185960000Y-83040000D02*
X185500000Y-83040000D01*
D23*
X207000000Y-76500000D02*
X206500000Y-76000000D01*
X189000000Y-57500000D02*
X188500000Y-57500000D01*
X186740000Y-59260000D02*
X185380000Y-59260000D01*
X206500000Y-76000000D02*
X193000000Y-76000000D01*
X193000000Y-76000000D02*
X185960000Y-83040000D01*
X188500000Y-57500000D02*
X186740000Y-59260000D01*
X207000000Y-80400000D02*
X207000000Y-76500000D01*
X203000000Y-53500000D02*
X204500000Y-55000000D01*
X206500000Y-76000000D02*
X229500000Y-76000000D01*
X231000000Y-74500000D02*
X231000000Y-56216450D01*
X189000000Y-53500000D02*
X203000000Y-53500000D01*
X229500000Y-76000000D02*
X231000000Y-74500000D01*
X204500000Y-55000000D02*
X229783550Y-55000000D01*
X231000000Y-56216450D02*
X229783550Y-55000000D01*
%TO.N,+12V motor pwr*%
X185380000Y-56720000D02*
X188280000Y-56720000D01*
X202434000Y-54500000D02*
X205434000Y-57500000D01*
X190500000Y-54500000D02*
X202434000Y-54500000D01*
X188280000Y-56720000D02*
X190500000Y-54500000D01*
%TO.N,+3V3*%
X168500000Y-57000000D02*
X168500000Y-55500000D01*
X188000000Y-53500000D02*
X189000000Y-53500000D01*
X168500000Y-55500000D02*
X169000000Y-55000000D01*
X154000000Y-67960000D02*
X157540000Y-67960000D01*
X186500000Y-55000000D02*
X188000000Y-53500000D01*
X169000000Y-55000000D02*
X186500000Y-55000000D01*
X157540000Y-67960000D02*
X168500000Y-57000000D01*
X189000000Y-54500000D02*
X189000000Y-53500000D01*
D24*
%TO.N,/FR+*%
X194500000Y-58000000D02*
X191720000Y-58000000D01*
X191720000Y-58000000D02*
X185380000Y-64340000D01*
%TO.N,/FR-*%
X194500000Y-61500000D02*
X190760000Y-61500000D01*
X190760000Y-61500000D02*
X185380000Y-66880000D01*
%TO.N,/FL+*%
X191620000Y-82000000D02*
X185500000Y-88120000D01*
X194500000Y-82000000D02*
X191620000Y-82000000D01*
%TO.N,/BR-*%
X186800000Y-68000000D02*
X185380000Y-69420000D01*
X195500000Y-68000000D02*
X186800000Y-68000000D01*
%TO.N,/STBY*%
X167432900Y-97500000D02*
X168000000Y-97500000D01*
X167234834Y-56734835D02*
X167000000Y-56500000D01*
X166000000Y-56500000D02*
X157000000Y-65500000D01*
X158432900Y-88500000D02*
X167432900Y-97500000D01*
X157000000Y-65500000D02*
X152000000Y-65500000D01*
X151599000Y-87666100D02*
X152432900Y-88500000D01*
X152000000Y-65500000D02*
X151599000Y-65901000D01*
X151599000Y-65901000D02*
X151599000Y-87666100D01*
X152432900Y-88500000D02*
X158432900Y-88500000D01*
X167000000Y-56500000D02*
X166000000Y-56500000D01*
%TO.N,/BR+*%
X195500000Y-71500000D02*
X185840000Y-71500000D01*
X185840000Y-71500000D02*
X185380000Y-71960000D01*
%TO.N,/BL-*%
X195500000Y-92000000D02*
X186700000Y-92000000D01*
%TO.N,/FL-*%
X190660000Y-85500000D02*
X185500000Y-90660000D01*
X194500000Y-85500000D02*
X190660000Y-85500000D01*
%TO.N,/BL-*%
X186700000Y-92000000D02*
X185500000Y-93200000D01*
%TO.N,/BL+*%
X185740000Y-95500000D02*
X185500000Y-95740000D01*
X195500000Y-95500000D02*
X185740000Y-95500000D01*
%TO.N,Net-(J1-Pin_7)*%
X170500000Y-85500000D02*
X170500000Y-85580000D01*
%TO.N,Net-(J1-Pin_5)*%
X163000000Y-77000000D02*
X155120000Y-77000000D01*
%TO.N,Net-(J1-Pin_4)*%
X164000000Y-66500000D02*
X164000000Y-71360000D01*
%TO.N,Net-(J1-Pin_7)*%
X170160000Y-91000000D02*
X170500000Y-90660000D01*
%TO.N,Net-(J1-Pin_8)*%
X157740000Y-85740000D02*
X165200000Y-93200000D01*
%TO.N,Net-(J1-Pin_5)*%
X166500000Y-73500000D02*
X163000000Y-77000000D01*
%TO.N,Net-(J1-Pin_3)*%
X161000000Y-71960000D02*
X162000000Y-71960000D01*
%TO.N,Net-(J1-Pin_7)*%
X167000000Y-89500000D02*
X168500000Y-91000000D01*
%TO.N,Net-(J1-Pin_8)*%
X161560000Y-85740000D02*
X163500000Y-83800000D01*
%TO.N,Net-(J1-Pin_7)*%
X165700000Y-83200000D02*
X166500000Y-84000000D01*
%TO.N,Net-(J1-Pin_8)*%
X164500000Y-82500000D02*
X169960000Y-82500000D01*
%TO.N,Net-(J1-Pin_7)*%
X169500000Y-84500000D02*
X170500000Y-85500000D01*
X166500000Y-84000000D02*
X167000000Y-84500000D01*
%TO.N,Net-(J1-Pin_4)*%
X164000000Y-66500000D02*
X168700000Y-61800000D01*
%TO.N,Net-(J1-Pin_5)*%
X166500000Y-73500000D02*
X166500000Y-72560000D01*
%TO.N,Net-(J1-Pin_4)*%
X164000000Y-66500000D02*
X164380000Y-66880000D01*
X160920000Y-75580000D02*
X154000000Y-75580000D01*
%TO.N,Net-(J1-Pin_5)*%
X166580000Y-69420000D02*
X167000000Y-69420000D01*
X166580000Y-69420000D02*
X166020000Y-69420000D01*
X163400000Y-68000000D02*
X163400000Y-67900000D01*
%TO.N,Net-(J1-Pin_8)*%
X157740000Y-85740000D02*
X161560000Y-85740000D01*
X154000000Y-85740000D02*
X156000000Y-85740000D01*
X170340000Y-83200000D02*
X170500000Y-83040000D01*
X156000000Y-85740000D02*
X157740000Y-85740000D01*
%TO.N,Net-(J1-Pin_4)*%
X168700000Y-61800000D02*
X170380000Y-61800000D01*
%TO.N,Net-(J1-Pin_5)*%
X155120000Y-77000000D02*
X154000000Y-78120000D01*
%TO.N,Net-(J1-Pin_4)*%
X164000000Y-72560000D02*
X163940000Y-72560000D01*
X164380000Y-66880000D02*
X170380000Y-66880000D01*
%TO.N,Net-(J1-Pin_5)*%
X166020000Y-69420000D02*
X164600000Y-68000000D01*
%TO.N,Net-(J1-Pin_8)*%
X169960000Y-82500000D02*
X170500000Y-83040000D01*
%TO.N,Net-(J1-Pin_4)*%
X163940000Y-72560000D02*
X160920000Y-75580000D01*
%TO.N,Net-(J1-Pin_7)*%
X154000000Y-83200000D02*
X165700000Y-83200000D01*
X167000000Y-84500000D02*
X167000000Y-89500000D01*
X168500000Y-91000000D02*
X170160000Y-91000000D01*
X167000000Y-84500000D02*
X169500000Y-84500000D01*
%TO.N,Net-(J1-Pin_5)*%
X166500000Y-71360000D02*
X166500000Y-69920000D01*
%TO.N,Net-(J1-Pin_8)*%
X165200000Y-93200000D02*
X170500000Y-93200000D01*
%TO.N,/STBY*%
X169000000Y-100000000D02*
X168000000Y-99000000D01*
%TO.N,Net-(J1-Pin_3)*%
X162000000Y-70960000D02*
X161000000Y-71960000D01*
%TO.N,/STBY*%
X168000000Y-99000000D02*
X168000000Y-97500000D01*
X220500000Y-92000000D02*
X212500000Y-100000000D01*
%TO.N,Net-(J1-Pin_6)*%
X152000000Y-82660000D02*
X152000000Y-87500000D01*
%TO.N,/STBY*%
X168880000Y-88120000D02*
X170500000Y-88120000D01*
%TO.N,Net-(J1-Pin_6)*%
X152000000Y-87500000D02*
X152500000Y-88000000D01*
%TO.N,Net-(J1-Pin_3)*%
X162000000Y-71960000D02*
X170380000Y-71960000D01*
%TO.N,Net-(J1-Pin_6)*%
X152500000Y-88000000D02*
X158500000Y-88000000D01*
%TO.N,Net-(J1-Pin_3)*%
X170380000Y-56720000D02*
X162000000Y-65100000D01*
X154000000Y-73040000D02*
X155080000Y-71960000D01*
%TO.N,Net-(J1-Pin_6)*%
X166240000Y-95740000D02*
X170500000Y-95740000D01*
X154000000Y-80660000D02*
X156000000Y-80660000D01*
%TO.N,Net-(J1-Pin_3)*%
X155080000Y-71960000D02*
X161000000Y-71960000D01*
%TO.N,Net-(J1-Pin_6)*%
X156000000Y-80660000D02*
X170340000Y-80660000D01*
X170340000Y-80660000D02*
X170500000Y-80500000D01*
%TO.N,Net-(J1-Pin_3)*%
X162000000Y-65100000D02*
X162000000Y-70960000D01*
%TO.N,Net-(J1-Pin_6)*%
X158500000Y-88000000D02*
X166240000Y-95740000D01*
%TO.N,/STBY*%
X168000000Y-97500000D02*
X168000000Y-96500000D01*
%TO.N,Net-(J1-Pin_6)*%
X154000000Y-80660000D02*
X152000000Y-82660000D01*
%TO.N,/STBY*%
X168000000Y-89000000D02*
X168880000Y-88120000D01*
D23*
%TO.N,+12V motor pwr*%
X187000000Y-80500000D02*
X185500000Y-80500000D01*
X192500000Y-75000000D02*
X187000000Y-80500000D01*
X205434000Y-57500000D02*
X207974000Y-57500000D01*
D24*
X207974000Y-57500000D02*
X208000000Y-57500000D01*
D23*
X230000000Y-56500000D02*
X230000000Y-74000000D01*
X229000000Y-75000000D02*
X192500000Y-75000000D01*
D24*
%TO.N,/STBY*%
X169720000Y-65000000D02*
X170380000Y-64340000D01*
D23*
%TO.N,+12V motor pwr*%
X230000000Y-74000000D02*
X229000000Y-75000000D01*
X229500000Y-56000000D02*
X230000000Y-56500000D01*
D24*
%TO.N,/STBY*%
X168500000Y-65000000D02*
X169720000Y-65000000D01*
X167500000Y-64000000D02*
X168500000Y-65000000D01*
D23*
%TO.N,+12V motor pwr*%
X209500000Y-56000000D02*
X229500000Y-56000000D01*
D24*
%TO.N,/STBY*%
X220500000Y-80500000D02*
X220500000Y-92000000D01*
D23*
%TO.N,+12V motor pwr*%
X208000000Y-57500000D02*
X209500000Y-56000000D01*
D24*
%TO.N,Net-(J1-Pin_5)*%
X166500000Y-69920000D02*
X167000000Y-69420000D01*
X167000000Y-69420000D02*
X170380000Y-69420000D01*
X162901000Y-66739000D02*
X170380000Y-59260000D01*
X163400000Y-67900000D02*
X162901000Y-67401000D01*
%TO.N,Net-(D1-A)*%
X215420000Y-80500000D02*
X211000000Y-84920000D01*
%TO.N,Net-(J1-Pin_5)*%
X162901000Y-67401000D02*
X162901000Y-66739000D01*
%TO.N,Net-(D1-A)*%
X208900000Y-78600000D02*
X210000000Y-77500000D01*
X210000000Y-77500000D02*
X212420000Y-77500000D01*
X208900000Y-80500000D02*
X208900000Y-78600000D01*
X212420000Y-77500000D02*
X215420000Y-80500000D01*
X211000000Y-84920000D02*
X211000000Y-85500000D01*
%TO.N,Net-(D1-K)*%
X211000000Y-88040000D02*
X211000000Y-91500000D01*
%TO.N,/STBY*%
X212500000Y-100000000D02*
X202500000Y-100000000D01*
X202500000Y-100000000D02*
X201500000Y-100000000D01*
X201500000Y-100000000D02*
X169000000Y-100000000D01*
%TD*%
M02*
