%TF.GenerationSoftware,KiCad,Pcbnew,9.0.7*%
%TF.CreationDate,2026-02-22T23:32:30-05:00*%
%TF.ProjectId,Training_Robot,54726169-6e69-46e6-975f-526f626f742e,rev?*%
%TF.SameCoordinates,Original*%
%TF.FileFunction,Copper,L1,Top*%
%TF.FilePolarity,Positive*%
%FSLAX46Y46*%
G04 Gerber Fmt 4.6, Leading zero omitted, Abs format (unit mm)*
G04 Created by KiCad (PCBNEW 9.0.7) date 2026-02-22 23:32:30*
%MOMM*%
%LPD*%
G01*
G04 APERTURE LIST*
%TA.AperFunction,ComponentPad*%
%ADD10R,2.100000X2.100000*%
%TD*%
%TA.AperFunction,ComponentPad*%
%ADD11C,2.100000*%
%TD*%
%TA.AperFunction,ComponentPad*%
%ADD12C,1.400000*%
%TD*%
%TA.AperFunction,ComponentPad*%
%ADD13R,1.800000X1.800000*%
%TD*%
%TA.AperFunction,ComponentPad*%
%ADD14C,1.800000*%
%TD*%
%TA.AperFunction,ComponentPad*%
%ADD15O,2.200000X3.500000*%
%TD*%
%TA.AperFunction,ComponentPad*%
%ADD16R,1.500000X2.500000*%
%TD*%
%TA.AperFunction,ComponentPad*%
%ADD17O,1.500000X2.500000*%
%TD*%
%TA.AperFunction,ComponentPad*%
%ADD18C,1.524000*%
%TD*%
%TA.AperFunction,ComponentPad*%
%ADD19R,1.524000X1.524000*%
%TD*%
%TA.AperFunction,ComponentPad*%
%ADD20R,1.700000X1.700000*%
%TD*%
%TA.AperFunction,ComponentPad*%
%ADD21C,1.700000*%
%TD*%
%TA.AperFunction,ViaPad*%
%ADD22C,0.600000*%
%TD*%
%TA.AperFunction,Conductor*%
%ADD23C,0.200000*%
%TD*%
%TA.AperFunction,Conductor*%
%ADD24C,0.500000*%
%TD*%
G04 APERTURE END LIST*
D10*
%TO.P,M4,1,+*%
%TO.N,/BR+*%
X197500000Y-66500000D03*
D11*
%TO.P,M4,2,-*%
%TO.N,/BR-*%
X197500000Y-63000000D03*
%TD*%
D10*
%TO.P,M3,1,+*%
%TO.N,/BL+*%
X197500000Y-90500000D03*
D11*
%TO.P,M3,2,-*%
%TO.N,/BL-*%
X197500000Y-87000000D03*
%TD*%
%TO.P,M2,2,-*%
%TO.N,/FR-*%
X196500000Y-56500000D03*
D10*
%TO.P,M2,1,+*%
%TO.N,/FR+*%
X196500000Y-53000000D03*
%TD*%
%TO.P,M1,1,+*%
%TO.N,/FL+*%
X196500000Y-77000000D03*
D11*
%TO.P,M1,2,-*%
%TO.N,/FL-*%
X196500000Y-80500000D03*
%TD*%
D12*
%TO.P,R1,1*%
%TO.N,Net-(D1-A)*%
X217420000Y-75500000D03*
%TO.P,R1,2*%
%TO.N,/STBY*%
X222500000Y-75500000D03*
%TD*%
%TO.P,R2,1*%
%TO.N,GND*%
X213000000Y-91580000D03*
%TO.P,R2,2*%
%TO.N,Net-(D1-K)*%
X213000000Y-86500000D03*
%TD*%
D13*
%TO.P,D1,1,K*%
%TO.N,Net-(D1-K)*%
X213000000Y-83040000D03*
D14*
%TO.P,D1,2,A*%
%TO.N,Net-(D1-A)*%
X213000000Y-80500000D03*
%TD*%
D15*
%TO.P,SW1,*%
%TO.N,*%
X213000000Y-75500000D03*
X204800000Y-75500000D03*
D16*
%TO.P,SW1,1,B*%
%TO.N,Net-(D1-A)*%
X210900000Y-75500000D03*
D17*
%TO.P,SW1,2,C*%
%TO.N,+3V3*%
X208900000Y-75500000D03*
%TO.P,SW1,3,A*%
%TO.N,GND*%
X206900000Y-75500000D03*
%TD*%
D18*
%TO.P,U4,1,VCC*%
%TO.N,+12V motor pwr*%
X207434000Y-52500000D03*
D19*
%TO.P,U4,2,VCC*%
X209974000Y-52500000D03*
D18*
%TO.P,U4,3,GND*%
%TO.N,GND*%
X207460000Y-68500000D03*
%TO.P,U4,4,GND*%
X210000000Y-68500000D03*
%TD*%
D20*
%TO.P,J5,1,Pin_1*%
%TO.N,GND*%
X202960000Y-45500000D03*
D21*
%TO.P,J5,2,Pin_2*%
X205500000Y-45500000D03*
%TO.P,J5,3,Pin_3*%
X208040000Y-45500000D03*
%TO.P,J5,4,Pin_4*%
X210580000Y-45500000D03*
%TD*%
D20*
%TO.P,J1,1,Pin_1*%
%TO.N,+3V3*%
X156000000Y-62960000D03*
D21*
%TO.P,J1,2,Pin_2*%
%TO.N,GND*%
X156000000Y-65500000D03*
%TO.P,J1,3,Pin_3*%
%TO.N,Net-(J1-Pin_3)*%
X156000000Y-68040000D03*
%TO.P,J1,4,Pin_4*%
%TO.N,Net-(J1-Pin_4)*%
X156000000Y-70580000D03*
%TO.P,J1,5,Pin_5*%
%TO.N,Net-(J1-Pin_5)*%
X156000000Y-73120000D03*
%TO.P,J1,6,Pin_6*%
%TO.N,Net-(J1-Pin_6)*%
X156000000Y-75660000D03*
%TO.P,J1,7,Pin_7*%
%TO.N,Net-(J1-Pin_7)*%
X156000000Y-78200000D03*
%TO.P,J1,8,Pin_8*%
%TO.N,Net-(J1-Pin_8)*%
X156000000Y-80740000D03*
%TD*%
D20*
%TO.P,J4,1,Pin_1*%
%TO.N,+3V3*%
X191000000Y-45500000D03*
D21*
%TO.P,J4,2,Pin_2*%
X193540000Y-45500000D03*
%TO.P,J4,3,Pin_3*%
X196080000Y-45500000D03*
%TO.P,J4,4,Pin_4*%
X198620000Y-45500000D03*
%TD*%
D18*
%TO.P,U1,1,PWMA*%
%TO.N,Net-(J1-Pin_3)*%
X172380000Y-51720000D03*
%TO.P,U1,2,AIN2*%
%TO.N,Net-(J1-Pin_5)*%
X172380000Y-54260000D03*
%TO.P,U1,3,AIN1*%
%TO.N,Net-(J1-Pin_4)*%
X172380000Y-56800000D03*
%TO.P,U1,4,STBY*%
%TO.N,/STBY*%
X172380000Y-59340000D03*
%TO.P,U1,5,BIN1*%
%TO.N,Net-(J1-Pin_4)*%
X172380000Y-61880000D03*
%TO.P,U1,6,BIN2*%
%TO.N,Net-(J1-Pin_5)*%
X172380000Y-64420000D03*
%TO.P,U1,7,PWMB*%
%TO.N,Net-(J1-Pin_3)*%
X172380000Y-66960000D03*
%TO.P,U1,8,GND*%
%TO.N,GND*%
X172380000Y-69500000D03*
%TO.P,U1,9,VM*%
%TO.N,+12V motor pwr*%
X187380000Y-51720000D03*
%TO.P,U1,10,VCC*%
%TO.N,+3V3*%
X187380000Y-54260000D03*
%TO.P,U1,11,GND*%
%TO.N,GND*%
X187380000Y-56800000D03*
%TO.P,U1,12,AO1*%
%TO.N,/FR+*%
X187380000Y-59340000D03*
%TO.P,U1,13,AO2*%
%TO.N,/FR-*%
X187380000Y-61880000D03*
%TO.P,U1,14,BO2*%
%TO.N,/BR-*%
X187380000Y-64420000D03*
%TO.P,U1,15,BO1*%
%TO.N,/BR+*%
X187380000Y-66960000D03*
%TO.P,U1,16,GND*%
%TO.N,GND*%
X187380000Y-69500000D03*
%TD*%
%TO.P,U2,1,PWMA*%
%TO.N,Net-(J1-Pin_6)*%
X172500000Y-75500000D03*
%TO.P,U2,2,AIN2*%
%TO.N,Net-(J1-Pin_8)*%
X172500000Y-78040000D03*
%TO.P,U2,3,AIN1*%
%TO.N,Net-(J1-Pin_7)*%
X172500000Y-80580000D03*
%TO.P,U2,4,STBY*%
%TO.N,/STBY*%
X172500000Y-83120000D03*
%TO.P,U2,5,BIN1*%
%TO.N,Net-(J1-Pin_7)*%
X172500000Y-85660000D03*
%TO.P,U2,6,BIN2*%
%TO.N,Net-(J1-Pin_8)*%
X172500000Y-88200000D03*
%TO.P,U2,7,PWMB*%
%TO.N,Net-(J1-Pin_6)*%
X172500000Y-90740000D03*
%TO.P,U2,8,GND*%
%TO.N,GND*%
X172500000Y-93280000D03*
%TO.P,U2,9,VM*%
%TO.N,+12V motor pwr*%
X187500000Y-75500000D03*
%TO.P,U2,10,VCC*%
%TO.N,+3V3*%
X187500000Y-78040000D03*
%TO.P,U2,11,GND*%
%TO.N,GND*%
X187500000Y-80580000D03*
%TO.P,U2,12,AO1*%
%TO.N,/FL+*%
X187500000Y-83120000D03*
%TO.P,U2,13,AO2*%
%TO.N,/FL-*%
X187500000Y-85660000D03*
%TO.P,U2,14,BO2*%
%TO.N,/BL-*%
X187500000Y-88200000D03*
%TO.P,U2,15,BO1*%
%TO.N,/BL+*%
X187500000Y-90740000D03*
%TO.P,U2,16,GND*%
%TO.N,GND*%
X187500000Y-93280000D03*
%TD*%
D22*
%TO.N,+3V3*%
X191000000Y-52500000D03*
X191000000Y-49500000D03*
%TO.N,Net-(J1-Pin_5)*%
X168500000Y-66360000D03*
X165400000Y-63000000D03*
X166600000Y-63000000D03*
X168500000Y-67560000D03*
%TO.N,Net-(J1-Pin_8)*%
X166500000Y-77500000D03*
X165500000Y-78800000D03*
%TO.N,Net-(J1-Pin_4)*%
X166000000Y-67560000D03*
X166000000Y-66360000D03*
%TO.N,/STBY*%
X170000000Y-91500000D03*
X170000000Y-84000000D03*
X169500000Y-59000000D03*
X169234834Y-51734835D03*
%TD*%
D23*
%TO.N,/STBY*%
X169432900Y-92500000D02*
X170000000Y-92500000D01*
X160432900Y-83500000D02*
X169432900Y-92500000D01*
X154432900Y-83500000D02*
X160432900Y-83500000D01*
X153599000Y-82666100D02*
X154432900Y-83500000D01*
X153599000Y-60901000D02*
X153599000Y-82666100D01*
X154000000Y-60500000D02*
X153599000Y-60901000D01*
X169000000Y-51500000D02*
X168000000Y-51500000D01*
X169234834Y-51734835D02*
X169000000Y-51500000D01*
X159000000Y-60500000D02*
X154000000Y-60500000D01*
X168000000Y-51500000D02*
X159000000Y-60500000D01*
%TO.N,/BR-*%
X188800000Y-63000000D02*
X187380000Y-64420000D01*
X197500000Y-63000000D02*
X188800000Y-63000000D01*
%TO.N,/BR+*%
X197500000Y-66500000D02*
X187840000Y-66500000D01*
X187840000Y-66500000D02*
X187380000Y-66960000D01*
D24*
%TO.N,+3V3*%
X206500000Y-50000000D02*
X231783550Y-50000000D01*
X205000000Y-48500000D02*
X206500000Y-50000000D01*
X191000000Y-48500000D02*
X205000000Y-48500000D01*
X233000000Y-51216450D02*
X231783550Y-50000000D01*
X233000000Y-69500000D02*
X233000000Y-51216450D01*
X231500000Y-71000000D02*
X233000000Y-69500000D01*
X208500000Y-71000000D02*
X231500000Y-71000000D01*
X191000000Y-49500000D02*
X191000000Y-48500000D01*
X190000000Y-48500000D02*
X191000000Y-48500000D01*
X188500000Y-50000000D02*
X190000000Y-48500000D01*
X171000000Y-50000000D02*
X188500000Y-50000000D01*
X170500000Y-50500000D02*
X171000000Y-50000000D01*
X159540000Y-62960000D02*
X170500000Y-52000000D01*
X156000000Y-62960000D02*
X159540000Y-62960000D01*
X170500000Y-52000000D02*
X170500000Y-50500000D01*
D23*
%TO.N,/FR-*%
X192760000Y-56500000D02*
X187380000Y-61880000D01*
X196500000Y-56500000D02*
X192760000Y-56500000D01*
%TO.N,/FR+*%
X193720000Y-53000000D02*
X187380000Y-59340000D01*
X196500000Y-53000000D02*
X193720000Y-53000000D01*
%TO.N,/BL+*%
X197500000Y-90500000D02*
X187740000Y-90500000D01*
X187740000Y-90500000D02*
X187500000Y-90740000D01*
%TO.N,/BL-*%
X188700000Y-87000000D02*
X187500000Y-88200000D01*
X197500000Y-87000000D02*
X188700000Y-87000000D01*
%TO.N,/FL-*%
X196500000Y-80500000D02*
X192660000Y-80500000D01*
X192660000Y-80500000D02*
X187500000Y-85660000D01*
%TO.N,/FL+*%
X193620000Y-77000000D02*
X187500000Y-83120000D01*
X196500000Y-77000000D02*
X193620000Y-77000000D01*
D24*
%TO.N,+12V motor pwr*%
X204434000Y-49500000D02*
X207434000Y-52500000D01*
X192500000Y-49500000D02*
X204434000Y-49500000D01*
X190280000Y-51720000D02*
X192500000Y-49500000D01*
X187380000Y-51720000D02*
X190280000Y-51720000D01*
%TO.N,+3V3*%
X188740000Y-54260000D02*
X187380000Y-54260000D01*
X190500000Y-52500000D02*
X188740000Y-54260000D01*
X191000000Y-52500000D02*
X190500000Y-52500000D01*
X191000000Y-45500000D02*
X191000000Y-48500000D01*
D23*
X187960000Y-78040000D02*
X187500000Y-78040000D01*
D24*
X195000000Y-71000000D02*
X187960000Y-78040000D01*
X208500000Y-71000000D02*
X195000000Y-71000000D01*
X209000000Y-71500000D02*
X208500000Y-71000000D01*
X209000000Y-75400000D02*
X209000000Y-71500000D01*
D23*
X208900000Y-75500000D02*
X209000000Y-75400000D01*
D24*
%TO.N,+12V motor pwr*%
X210000000Y-52500000D02*
X211500000Y-51000000D01*
D23*
%TO.N,Net-(D1-A)*%
X210900000Y-73600000D02*
X212000000Y-72500000D01*
X217420000Y-75500000D02*
X213000000Y-79920000D01*
X212000000Y-72500000D02*
X214420000Y-72500000D01*
X210900000Y-75500000D02*
X210900000Y-73600000D01*
X214420000Y-72500000D02*
X217420000Y-75500000D01*
X213000000Y-79920000D02*
X213000000Y-80500000D01*
%TO.N,Net-(D1-K)*%
X213000000Y-83040000D02*
X213000000Y-86500000D01*
%TO.N,Net-(J1-Pin_5)*%
X168500000Y-64920000D02*
X169000000Y-64420000D01*
X169000000Y-64420000D02*
X172380000Y-64420000D01*
X165400000Y-62900000D02*
X164901000Y-62401000D01*
X164901000Y-61739000D02*
X172380000Y-54260000D01*
X164901000Y-62401000D02*
X164901000Y-61739000D01*
X168500000Y-68500000D02*
X168500000Y-67560000D01*
X168500000Y-66360000D02*
X168500000Y-64920000D01*
X168580000Y-64420000D02*
X169000000Y-64420000D01*
X168580000Y-64420000D02*
X168020000Y-64420000D01*
X165000000Y-72000000D02*
X157120000Y-72000000D01*
X157120000Y-72000000D02*
X156000000Y-73120000D01*
X165400000Y-63000000D02*
X165400000Y-62900000D01*
X168020000Y-64420000D02*
X166600000Y-63000000D01*
X168500000Y-68500000D02*
X165000000Y-72000000D01*
%TO.N,Net-(J1-Pin_8)*%
X156000000Y-80740000D02*
X158000000Y-80740000D01*
X159740000Y-80740000D02*
X163560000Y-80740000D01*
X167200000Y-88200000D02*
X172500000Y-88200000D01*
X172340000Y-78200000D02*
X172500000Y-78040000D01*
X159740000Y-80740000D02*
X167200000Y-88200000D01*
X163560000Y-80740000D02*
X165500000Y-78800000D01*
X166500000Y-77500000D02*
X171960000Y-77500000D01*
X158000000Y-80740000D02*
X159740000Y-80740000D01*
X171960000Y-77500000D02*
X172500000Y-78040000D01*
%TO.N,Net-(J1-Pin_4)*%
X166000000Y-61500000D02*
X166380000Y-61880000D01*
X165940000Y-67560000D02*
X162920000Y-70580000D01*
X170700000Y-56800000D02*
X172380000Y-56800000D01*
X162920000Y-70580000D02*
X156000000Y-70580000D01*
X166000000Y-61500000D02*
X170700000Y-56800000D01*
X166000000Y-67560000D02*
X165940000Y-67560000D01*
X166000000Y-61500000D02*
X166000000Y-66360000D01*
X166380000Y-61880000D02*
X172380000Y-61880000D01*
%TO.N,Net-(J1-Pin_7)*%
X171500000Y-79500000D02*
X172500000Y-80500000D01*
X167700000Y-78200000D02*
X168500000Y-79000000D01*
X156000000Y-78200000D02*
X167700000Y-78200000D01*
X169000000Y-84500000D02*
X170500000Y-86000000D01*
X169000000Y-79500000D02*
X169000000Y-84500000D01*
X172160000Y-86000000D02*
X172500000Y-85660000D01*
X168500000Y-79000000D02*
X169000000Y-79500000D01*
X170500000Y-86000000D02*
X172160000Y-86000000D01*
X169000000Y-79500000D02*
X171500000Y-79500000D01*
X172500000Y-80500000D02*
X172500000Y-80580000D01*
%TO.N,Net-(J1-Pin_3)*%
X163000000Y-66960000D02*
X164000000Y-66960000D01*
X156000000Y-68040000D02*
X157080000Y-66960000D01*
X157080000Y-66960000D02*
X163000000Y-66960000D01*
X164000000Y-66960000D02*
X172380000Y-66960000D01*
X172380000Y-51720000D02*
X164000000Y-60100000D01*
X164000000Y-60100000D02*
X164000000Y-65960000D01*
X164000000Y-65960000D02*
X163000000Y-66960000D01*
%TO.N,Net-(J1-Pin_6)*%
X156000000Y-75660000D02*
X154000000Y-77660000D01*
X160500000Y-83000000D02*
X168240000Y-90740000D01*
X158000000Y-75660000D02*
X172340000Y-75660000D01*
X154000000Y-77660000D02*
X154000000Y-82500000D01*
X154500000Y-83000000D02*
X160500000Y-83000000D01*
X156000000Y-75660000D02*
X158000000Y-75660000D01*
X168240000Y-90740000D02*
X172500000Y-90740000D01*
X172340000Y-75660000D02*
X172500000Y-75500000D01*
X154000000Y-82500000D02*
X154500000Y-83000000D01*
%TO.N,+3V3*%
X198620000Y-45500000D02*
X196080000Y-45500000D01*
X193540000Y-45500000D02*
X191000000Y-45500000D01*
X196080000Y-45500000D02*
X193540000Y-45500000D01*
%TO.N,GND*%
X210580000Y-45500000D02*
X202960000Y-45500000D01*
%TO.N,/STBY*%
X170000000Y-92500000D02*
X170000000Y-91500000D01*
X170880000Y-83120000D02*
X172500000Y-83120000D01*
X170000000Y-94000000D02*
X170000000Y-92500000D01*
X171000000Y-95000000D02*
X170000000Y-94000000D01*
X222500000Y-87000000D02*
X214500000Y-95000000D01*
X169500000Y-59000000D02*
X170500000Y-60000000D01*
X214500000Y-95000000D02*
X204500000Y-95000000D01*
X171720000Y-60000000D02*
X172380000Y-59340000D01*
X170500000Y-60000000D02*
X171720000Y-60000000D01*
X204500000Y-95000000D02*
X203500000Y-95000000D01*
X170000000Y-84000000D02*
X170880000Y-83120000D01*
X203500000Y-95000000D02*
X171000000Y-95000000D01*
X222500000Y-75500000D02*
X222500000Y-87000000D01*
D24*
%TO.N,+12V motor pwr*%
X207434000Y-52500000D02*
X209974000Y-52500000D01*
X232000000Y-51500000D02*
X232000000Y-69000000D01*
X232000000Y-69000000D02*
X231000000Y-70000000D01*
D23*
X209974000Y-52500000D02*
X210000000Y-52500000D01*
D24*
X231500000Y-51000000D02*
X232000000Y-51500000D01*
X189000000Y-75500000D02*
X187500000Y-75500000D01*
X211500000Y-51000000D02*
X231500000Y-51000000D01*
X231000000Y-70000000D02*
X194500000Y-70000000D01*
X194500000Y-70000000D02*
X189000000Y-75500000D01*
%TD*%
M02*
