%TF.GenerationSoftware,KiCad,Pcbnew,9.0.7*%
%TF.CreationDate,2026-02-24T22:46:11-05:00*%
%TF.ProjectId,Training_Robot,54726169-6e69-46e6-975f-526f626f742e,rev?*%
%TF.SameCoordinates,Original*%
%TF.FileFunction,Soldermask,Bot*%
%TF.FilePolarity,Negative*%
%FSLAX46Y46*%
G04 Gerber Fmt 4.6, Leading zero omitted, Abs format (unit mm)*
G04 Created by KiCad (PCBNEW 9.0.7) date 2026-02-24 22:46:11*
%MOMM*%
%LPD*%
G01*
G04 APERTURE LIST*
G04 Aperture macros list*
%AMRoundRect*
0 Rectangle with rounded corners*
0 $1 Rounding radius*
0 $2 $3 $4 $5 $6 $7 $8 $9 X,Y pos of 4 corners*
0 Add a 4 corners polygon primitive as box body*
4,1,4,$2,$3,$4,$5,$6,$7,$8,$9,$2,$3,0*
0 Add four circle primitives for the rounded corners*
1,1,$1+$1,$2,$3*
1,1,$1+$1,$4,$5*
1,1,$1+$1,$6,$7*
1,1,$1+$1,$8,$9*
0 Add four rect primitives between the rounded corners*
20,1,$1+$1,$2,$3,$4,$5,0*
20,1,$1+$1,$4,$5,$6,$7,0*
20,1,$1+$1,$6,$7,$8,$9,0*
20,1,$1+$1,$8,$9,$2,$3,0*%
G04 Aperture macros list end*
%ADD10C,2.304000*%
%ADD11RoundRect,0.102000X1.050000X-1.050000X1.050000X1.050000X-1.050000X1.050000X-1.050000X-1.050000X0*%
%ADD12RoundRect,0.102000X-1.050000X1.050000X-1.050000X-1.050000X1.050000X-1.050000X1.050000X1.050000X0*%
%ADD13O,1.500000X2.500000*%
%ADD14R,1.500000X2.500000*%
%ADD15O,2.200000X3.500000*%
%ADD16C,1.700000*%
%ADD17R,1.700000X1.700000*%
%ADD18C,1.524000*%
%ADD19R,1.524000X1.524000*%
%ADD20C,1.400000*%
%ADD21C,1.800000*%
%ADD22R,1.800000X1.800000*%
G04 APERTURE END LIST*
D10*
%TO.C,M3*%
X195500000Y-92000000D03*
D11*
X195500000Y-95500000D03*
%TD*%
D10*
%TO.C,M1*%
X194500000Y-85500000D03*
D12*
X194500000Y-82000000D03*
%TD*%
%TO.C,M2*%
X194500000Y-58000000D03*
D10*
X194500000Y-61500000D03*
%TD*%
%TO.C,M4*%
X195500000Y-68000000D03*
D11*
X195500000Y-71500000D03*
%TD*%
D13*
%TO.C,SW1*%
X204900000Y-80500000D03*
X206900000Y-80500000D03*
D14*
X208900000Y-80500000D03*
D15*
X202800000Y-80500000D03*
X211000000Y-80500000D03*
%TD*%
D16*
%TO.C,J5*%
X208580000Y-47500000D03*
X206040000Y-47500000D03*
X203500000Y-47500000D03*
D17*
X200960000Y-47500000D03*
%TD*%
D18*
%TO.C,U4*%
X208000000Y-73500000D03*
X205460000Y-73500000D03*
D19*
X207974000Y-57500000D03*
D18*
X205434000Y-57500000D03*
%TD*%
D20*
%TO.C,R1*%
X220500000Y-80500000D03*
X215420000Y-80500000D03*
%TD*%
%TO.C,R2*%
X211000000Y-91500000D03*
X211000000Y-96580000D03*
%TD*%
D21*
%TO.C,D1*%
X211000000Y-85500000D03*
D22*
X211000000Y-88040000D03*
%TD*%
D16*
%TO.C,J4*%
X196620000Y-47500000D03*
X194080000Y-47500000D03*
X191540000Y-47500000D03*
D17*
X189000000Y-47500000D03*
%TD*%
D18*
%TO.C,U1*%
X185380000Y-74500000D03*
X185380000Y-71960000D03*
X185380000Y-69420000D03*
X185380000Y-66880000D03*
X185380000Y-64340000D03*
X185380000Y-61800000D03*
X185380000Y-59260000D03*
X185380000Y-56720000D03*
X170380000Y-74500000D03*
X170380000Y-71960000D03*
X170380000Y-69420000D03*
X170380000Y-66880000D03*
X170380000Y-64340000D03*
X170380000Y-61800000D03*
X170380000Y-59260000D03*
X170380000Y-56720000D03*
%TD*%
D16*
%TO.C,J1*%
X154000000Y-85740000D03*
X154000000Y-83200000D03*
X154000000Y-80660000D03*
X154000000Y-78120000D03*
X154000000Y-75580000D03*
X154000000Y-73040000D03*
X154000000Y-70500000D03*
D17*
X154000000Y-67960000D03*
%TD*%
D18*
%TO.C,U2*%
X185500000Y-98280000D03*
X185500000Y-95740000D03*
X185500000Y-93200000D03*
X185500000Y-90660000D03*
X185500000Y-88120000D03*
X185500000Y-85580000D03*
X185500000Y-83040000D03*
X185500000Y-80500000D03*
X170500000Y-98280000D03*
X170500000Y-95740000D03*
X170500000Y-93200000D03*
X170500000Y-90660000D03*
X170500000Y-88120000D03*
X170500000Y-85580000D03*
X170500000Y-83040000D03*
X170500000Y-80500000D03*
%TD*%
M02*
