%TF.GenerationSoftware,KiCad,Pcbnew,9.0.7*%
%TF.CreationDate,2026-03-08T18:26:09-04:00*%
%TF.ProjectId,Training_Robot,54726169-6e69-46e6-975f-526f626f742e,rev?*%
%TF.SameCoordinates,Original*%
%TF.FileFunction,Copper,L2,Bot*%
%TF.FilePolarity,Positive*%
%FSLAX46Y46*%
G04 Gerber Fmt 4.6, Leading zero omitted, Abs format (unit mm)*
G04 Created by KiCad (PCBNEW 9.0.7) date 2026-03-08 18:26:09*
%MOMM*%
%LPD*%
G01*
G04 APERTURE LIST*
G04 Aperture macros list*
%AMRoundRect*
0 Rectangle with rounded corners*
0 $1 Rounding radius*
0 $2 $3 $4 $5 $6 $7 $8 $9 X,Y pos of 4 corners*
0 Add a 4 corners polygon primitive as box body*
4,1,4,$2,$3,$4,$5,$6,$7,$8,$9,$2,$3,0*
0 Add four circle primitives for the rounded corners*
1,1,$1+$1,$2,$3*
1,1,$1+$1,$4,$5*
1,1,$1+$1,$6,$7*
1,1,$1+$1,$8,$9*
0 Add four rect primitives between the rounded corners*
20,1,$1+$1,$2,$3,$4,$5,0*
20,1,$1+$1,$4,$5,$6,$7,0*
20,1,$1+$1,$6,$7,$8,$9,0*
20,1,$1+$1,$8,$9,$2,$3,0*%
G04 Aperture macros list end*
%TA.AperFunction,ComponentPad*%
%ADD10R,1.800000X1.800000*%
%TD*%
%TA.AperFunction,ComponentPad*%
%ADD11C,1.800000*%
%TD*%
%TA.AperFunction,ComponentPad*%
%ADD12C,1.524000*%
%TD*%
%TA.AperFunction,ComponentPad*%
%ADD13R,1.524000X1.524000*%
%TD*%
%TA.AperFunction,ComponentPad*%
%ADD14C,1.400000*%
%TD*%
%TA.AperFunction,ComponentPad*%
%ADD15RoundRect,0.250000X1.050000X1.050000X-1.050000X1.050000X-1.050000X-1.050000X1.050000X-1.050000X0*%
%TD*%
%TA.AperFunction,ComponentPad*%
%ADD16C,2.600000*%
%TD*%
%TA.AperFunction,ComponentPad*%
%ADD17RoundRect,0.250000X-1.050000X-1.050000X1.050000X-1.050000X1.050000X1.050000X-1.050000X1.050000X0*%
%TD*%
%TA.AperFunction,ComponentPad*%
%ADD18O,2.200000X3.500000*%
%TD*%
%TA.AperFunction,ComponentPad*%
%ADD19R,1.500000X2.500000*%
%TD*%
%TA.AperFunction,ComponentPad*%
%ADD20O,1.500000X2.500000*%
%TD*%
%TA.AperFunction,ComponentPad*%
%ADD21R,1.700000X1.700000*%
%TD*%
%TA.AperFunction,ComponentPad*%
%ADD22C,1.700000*%
%TD*%
%TA.AperFunction,ViaPad*%
%ADD23C,0.600000*%
%TD*%
%TA.AperFunction,ViaPad*%
%ADD24C,0.900000*%
%TD*%
%TA.AperFunction,Conductor*%
%ADD25C,0.200000*%
%TD*%
%TA.AperFunction,Conductor*%
%ADD26C,0.500000*%
%TD*%
G04 APERTURE END LIST*
D10*
%TO.P,D1,1,K*%
%TO.N,Net-(D1-K)*%
X198740000Y-85850000D03*
D11*
%TO.P,D1,2,A*%
%TO.N,Net-(D1-A)*%
X198740000Y-83310000D03*
%TD*%
D12*
%TO.P,U4,1,VCC*%
%TO.N,+12V motor pwr*%
X194401000Y-55031000D03*
D13*
%TO.P,U4,2,VCC*%
X196941000Y-55031000D03*
D12*
%TO.P,U4,3,GND*%
%TO.N,GND*%
X194427000Y-71031000D03*
%TO.P,U4,4,GND*%
X196967000Y-71031000D03*
%TD*%
%TO.P,U1,1,PWMA*%
%TO.N,Net-(J1-Pin_3)*%
X163470000Y-53820000D03*
%TO.P,U1,2,AIN2*%
%TO.N,Net-(J1-Pin_5)*%
X163470000Y-56360000D03*
%TO.P,U1,3,AIN1*%
%TO.N,Net-(J1-Pin_4)*%
X163470000Y-58900000D03*
%TO.P,U1,4,STBY*%
%TO.N,/STBY*%
X163470000Y-61440000D03*
%TO.P,U1,5,BIN1*%
%TO.N,Net-(J1-Pin_4)*%
X163470000Y-63980000D03*
%TO.P,U1,6,BIN2*%
%TO.N,Net-(J1-Pin_5)*%
X163470000Y-66520000D03*
%TO.P,U1,7,PWMB*%
%TO.N,Net-(J1-Pin_3)*%
X163470000Y-69060000D03*
%TO.P,U1,8,GND*%
%TO.N,GND*%
X163470000Y-71600000D03*
%TO.P,U1,9,VM*%
%TO.N,+12V motor pwr*%
X178470000Y-53820000D03*
%TO.P,U1,10,VCC*%
%TO.N,+3V3*%
X178470000Y-56360000D03*
%TO.P,U1,11,GND*%
%TO.N,GND*%
X178470000Y-58900000D03*
%TO.P,U1,12,AO1*%
%TO.N,/FR+*%
X178470000Y-61440000D03*
%TO.P,U1,13,AO2*%
%TO.N,/FR-*%
X178470000Y-63980000D03*
%TO.P,U1,14,BO2*%
%TO.N,/BR-*%
X178470000Y-66520000D03*
%TO.P,U1,15,BO1*%
%TO.N,/BR+*%
X178470000Y-69060000D03*
%TO.P,U1,16,GND*%
%TO.N,GND*%
X178470000Y-71600000D03*
%TD*%
%TO.P,U2,1,PWMA*%
%TO.N,Net-(J1-Pin_6)*%
X163590000Y-77600000D03*
%TO.P,U2,2,AIN2*%
%TO.N,Net-(J1-Pin_8)*%
X163590000Y-80140000D03*
%TO.P,U2,3,AIN1*%
%TO.N,Net-(J1-Pin_7)*%
X163590000Y-82680000D03*
%TO.P,U2,4,STBY*%
%TO.N,/STBY*%
X163590000Y-85220000D03*
%TO.P,U2,5,BIN1*%
%TO.N,Net-(J1-Pin_7)*%
X163590000Y-87760000D03*
%TO.P,U2,6,BIN2*%
%TO.N,Net-(J1-Pin_8)*%
X163590000Y-90300000D03*
%TO.P,U2,7,PWMB*%
%TO.N,Net-(J1-Pin_6)*%
X163590000Y-92840000D03*
%TO.P,U2,8,GND*%
%TO.N,GND*%
X163590000Y-95380000D03*
%TO.P,U2,9,VM*%
%TO.N,+12V motor pwr*%
X178590000Y-77600000D03*
%TO.P,U2,10,VCC*%
%TO.N,+3V3*%
X178590000Y-80140000D03*
%TO.P,U2,11,GND*%
%TO.N,GND*%
X178590000Y-82680000D03*
%TO.P,U2,12,AO1*%
%TO.N,/FL+*%
X178590000Y-85220000D03*
%TO.P,U2,13,AO2*%
%TO.N,/FL-*%
X178590000Y-87760000D03*
%TO.P,U2,14,BO2*%
%TO.N,/BL-*%
X178590000Y-90300000D03*
%TO.P,U2,15,BO1*%
%TO.N,/BL+*%
X178590000Y-92840000D03*
%TO.P,U2,16,GND*%
%TO.N,GND*%
X178590000Y-95380000D03*
%TD*%
D14*
%TO.P,R1,1*%
%TO.N,Net-(D1-A)*%
X206530000Y-82910000D03*
%TO.P,R1,2*%
%TO.N,/STBY*%
X206530000Y-87990000D03*
%TD*%
%TO.P,R2,1*%
%TO.N,GND*%
X198740000Y-94390000D03*
%TO.P,R2,2*%
%TO.N,Net-(D1-K)*%
X198740000Y-89310000D03*
%TD*%
D15*
%TO.P,M2,1,+*%
%TO.N,/FR+*%
X193470000Y-41631500D03*
D16*
%TO.P,M2,2,-*%
%TO.N,/FR-*%
X188470000Y-41631500D03*
%TD*%
D17*
%TO.P,M4,1,+*%
%TO.N,/BR+*%
X188487000Y-105050000D03*
D16*
%TO.P,M4,2,-*%
%TO.N,/BR-*%
X193487000Y-105050000D03*
%TD*%
D18*
%TO.P,SW1,*%
%TO.N,*%
X204090000Y-77600000D03*
X195890000Y-77600000D03*
D19*
%TO.P,SW1,1,B*%
%TO.N,Net-(D1-A)*%
X201990000Y-77600000D03*
D20*
%TO.P,SW1,2,C*%
%TO.N,+3V3*%
X199990000Y-77600000D03*
%TO.P,SW1,3,A*%
%TO.N,GND*%
X197990000Y-77600000D03*
%TD*%
D21*
%TO.P,J5,1,Pin_1*%
%TO.N,GND*%
X147141000Y-101262000D03*
D22*
%TO.P,J5,2,Pin_2*%
X147141000Y-103802000D03*
%TO.P,J5,3,Pin_3*%
X147141000Y-106342000D03*
%TO.P,J5,4,Pin_4*%
X147141000Y-108882000D03*
%TD*%
D21*
%TO.P,J1,1,Pin_1*%
%TO.N,+3V3*%
X147090000Y-65060000D03*
D22*
%TO.P,J1,2,Pin_2*%
%TO.N,GND*%
X147090000Y-67600000D03*
%TO.P,J1,3,Pin_3*%
%TO.N,Net-(J1-Pin_3)*%
X147090000Y-70140000D03*
%TO.P,J1,4,Pin_4*%
%TO.N,Net-(J1-Pin_4)*%
X147090000Y-72680000D03*
%TO.P,J1,5,Pin_5*%
%TO.N,Net-(J1-Pin_5)*%
X147090000Y-75220000D03*
%TO.P,J1,6,Pin_6*%
%TO.N,Net-(J1-Pin_6)*%
X147090000Y-77760000D03*
%TO.P,J1,7,Pin_7*%
%TO.N,Net-(J1-Pin_7)*%
X147090000Y-80300000D03*
%TO.P,J1,8,Pin_8*%
%TO.N,Net-(J1-Pin_8)*%
X147090000Y-82840000D03*
%TD*%
D17*
%TO.P,M3,1,+*%
%TO.N,/BL+*%
X158190000Y-105050000D03*
D16*
%TO.P,M3,2,-*%
%TO.N,/BL-*%
X163190000Y-105050000D03*
%TD*%
D21*
%TO.P,J4,1,Pin_1*%
%TO.N,+3V3*%
X147141000Y-89302000D03*
D22*
%TO.P,J4,2,Pin_2*%
X147141000Y-91842000D03*
%TO.P,J4,3,Pin_3*%
X147141000Y-94382000D03*
%TO.P,J4,4,Pin_4*%
X147141000Y-96922000D03*
%TD*%
D15*
%TO.P,M1,1,+*%
%TO.N,/FL+*%
X163190000Y-41631500D03*
D16*
%TO.P,M1,2,-*%
%TO.N,/FL-*%
X158190000Y-41631500D03*
%TD*%
D23*
%TO.N,Net-(J1-Pin_5)*%
X159590000Y-68460000D03*
X156490000Y-65100000D03*
X157690000Y-65100000D03*
X159590000Y-69660000D03*
%TO.N,Net-(J1-Pin_8)*%
X157590000Y-79600000D03*
X156590000Y-80900000D03*
%TO.N,Net-(J1-Pin_4)*%
X157090000Y-69660000D03*
X157090000Y-68460000D03*
D24*
%TO.N,+3V3*%
X174446000Y-51202000D03*
X185876000Y-74316000D03*
X167715000Y-51202000D03*
X190321000Y-74316000D03*
D23*
%TO.N,/STBY*%
X161090000Y-93600000D03*
X194893000Y-97176000D03*
D24*
X179233997Y-97176000D03*
D23*
X190550000Y-97140000D03*
X185920000Y-97140000D03*
X161090000Y-86100000D03*
D24*
%TO.N,+12V motor pwr*%
X186384000Y-51583000D03*
X190321000Y-71522000D03*
X191670000Y-51583000D03*
X186130000Y-71522000D03*
%TD*%
D25*
%TO.N,Net-(J1-Pin_5)*%
X157690000Y-65100000D02*
X156490000Y-65100000D01*
X159590000Y-69660000D02*
X159590000Y-68460000D01*
%TO.N,Net-(J1-Pin_8)*%
X156590000Y-80600000D02*
X157590000Y-79600000D01*
X156590000Y-80900000D02*
X156590000Y-80600000D01*
%TO.N,Net-(J1-Pin_4)*%
X157090000Y-69660000D02*
X157090000Y-68460000D01*
D26*
%TO.N,+3V3*%
X146948000Y-64918000D02*
X147090000Y-65060000D01*
X185876000Y-74316000D02*
X190321000Y-74316000D01*
X167715000Y-51202000D02*
X174446000Y-51202000D01*
D25*
%TO.N,/STBY*%
X161090000Y-93600000D02*
X161090000Y-86100000D01*
X190586000Y-97176000D02*
X190550000Y-97140000D01*
X179329997Y-97080000D02*
X179233997Y-97176000D01*
X185920000Y-97140000D02*
X179329997Y-97080000D01*
X194893000Y-97176000D02*
X190586000Y-97176000D01*
D26*
%TO.N,+12V motor pwr*%
X186130000Y-71522000D02*
X190321000Y-71522000D01*
X191670000Y-51583000D02*
X186384000Y-51583000D01*
%TD*%
%TA.AperFunction,Conductor*%
%TO.N,GND*%
G36*
X218603472Y-29200695D02*
G01*
X218906503Y-29217713D01*
X218920301Y-29219267D01*
X219216080Y-29269522D01*
X219229636Y-29272616D01*
X219517927Y-29355672D01*
X219531051Y-29360265D01*
X219808222Y-29475072D01*
X219820744Y-29481101D01*
X220023184Y-29592986D01*
X220083328Y-29626227D01*
X220095102Y-29633625D01*
X220339789Y-29807239D01*
X220350657Y-29815907D01*
X220574352Y-30015815D01*
X220584184Y-30025647D01*
X220784092Y-30249342D01*
X220792763Y-30260214D01*
X220966374Y-30504897D01*
X220973772Y-30516671D01*
X221118894Y-30779248D01*
X221124927Y-30791777D01*
X221239734Y-31068948D01*
X221244327Y-31082072D01*
X221327383Y-31370363D01*
X221330477Y-31383920D01*
X221380730Y-31679688D01*
X221382287Y-31693506D01*
X221399305Y-31996527D01*
X221399500Y-32003480D01*
X221399500Y-112996519D01*
X221399305Y-113003472D01*
X221382287Y-113306493D01*
X221380730Y-113320311D01*
X221330477Y-113616079D01*
X221327383Y-113629636D01*
X221244327Y-113917927D01*
X221239734Y-113931051D01*
X221124927Y-114208222D01*
X221118894Y-114220751D01*
X220973772Y-114483328D01*
X220966374Y-114495102D01*
X220792763Y-114739785D01*
X220784092Y-114750657D01*
X220584184Y-114974352D01*
X220574352Y-114984184D01*
X220350657Y-115184092D01*
X220339785Y-115192763D01*
X220095102Y-115366374D01*
X220083328Y-115373772D01*
X219820751Y-115518894D01*
X219808222Y-115524927D01*
X219531051Y-115639734D01*
X219517927Y-115644327D01*
X219229636Y-115727383D01*
X219216079Y-115730477D01*
X218920311Y-115780730D01*
X218906493Y-115782287D01*
X218603472Y-115799305D01*
X218596519Y-115799500D01*
X137503481Y-115799500D01*
X137496528Y-115799305D01*
X137193506Y-115782287D01*
X137179688Y-115780730D01*
X136883920Y-115730477D01*
X136870363Y-115727383D01*
X136582072Y-115644327D01*
X136568948Y-115639734D01*
X136291777Y-115524927D01*
X136279248Y-115518894D01*
X136016671Y-115373772D01*
X136004897Y-115366374D01*
X135760214Y-115192763D01*
X135749342Y-115184092D01*
X135525647Y-114984184D01*
X135515815Y-114974352D01*
X135315907Y-114750657D01*
X135307236Y-114739785D01*
X135133625Y-114495102D01*
X135126227Y-114483328D01*
X135057104Y-114358260D01*
X134981101Y-114220744D01*
X134975072Y-114208222D01*
X134860265Y-113931051D01*
X134855672Y-113917927D01*
X134780635Y-113657470D01*
X134772615Y-113629634D01*
X134769522Y-113616079D01*
X134760197Y-113561197D01*
X134719267Y-113320301D01*
X134717713Y-113306503D01*
X134700695Y-113003472D01*
X134700500Y-112996519D01*
X134700500Y-110604188D01*
X136121300Y-110604188D01*
X136121300Y-110955806D01*
X136155763Y-111305726D01*
X136155766Y-111305743D01*
X136224357Y-111650583D01*
X136224358Y-111650589D01*
X136326434Y-111987086D01*
X136460993Y-112311939D01*
X136460995Y-112311944D01*
X136626738Y-112622026D01*
X136626749Y-112622044D01*
X136822089Y-112914391D01*
X136822099Y-112914405D01*
X137045164Y-113186211D01*
X137293788Y-113434835D01*
X137293793Y-113434839D01*
X137293794Y-113434840D01*
X137565600Y-113657905D01*
X137857962Y-113853255D01*
X137857971Y-113853260D01*
X137857973Y-113853261D01*
X138168055Y-114019004D01*
X138168057Y-114019004D01*
X138168063Y-114019008D01*
X138492918Y-114153567D01*
X138829398Y-114255638D01*
X138829404Y-114255639D01*
X138829410Y-114255641D01*
X138829416Y-114255642D01*
X138947427Y-114279115D01*
X139174262Y-114324235D01*
X139524190Y-114358700D01*
X139524193Y-114358700D01*
X139875807Y-114358700D01*
X139875810Y-114358700D01*
X140225738Y-114324235D01*
X140508512Y-114267988D01*
X140570583Y-114255642D01*
X140570589Y-114255641D01*
X140570592Y-114255639D01*
X140570602Y-114255638D01*
X140907082Y-114153567D01*
X141231937Y-114019008D01*
X141542038Y-113853255D01*
X141834400Y-113657905D01*
X142106206Y-113434840D01*
X142354840Y-113186206D01*
X142577905Y-112914400D01*
X142773255Y-112622038D01*
X142939008Y-112311937D01*
X143073567Y-111987082D01*
X143175638Y-111650602D01*
X143175730Y-111650143D01*
X143187988Y-111588512D01*
X143244235Y-111305738D01*
X143278700Y-110955810D01*
X143278700Y-110604190D01*
X143278656Y-110603748D01*
X212321300Y-110603748D01*
X212321300Y-110603750D01*
X212321300Y-110955370D01*
X212332501Y-111069103D01*
X212355763Y-111305286D01*
X212355766Y-111305303D01*
X212424357Y-111650143D01*
X212424358Y-111650149D01*
X212526434Y-111986646D01*
X212660993Y-112311499D01*
X212660995Y-112311504D01*
X212826738Y-112621586D01*
X212826749Y-112621604D01*
X213022089Y-112913951D01*
X213022099Y-112913965D01*
X213245164Y-113185771D01*
X213493788Y-113434395D01*
X213493793Y-113434399D01*
X213493794Y-113434400D01*
X213765600Y-113657465D01*
X214057962Y-113852815D01*
X214057971Y-113852820D01*
X214057973Y-113852821D01*
X214368055Y-114018564D01*
X214368057Y-114018564D01*
X214368063Y-114018568D01*
X214692918Y-114153127D01*
X215029398Y-114255198D01*
X215029404Y-114255199D01*
X215029410Y-114255201D01*
X215029416Y-114255202D01*
X215147427Y-114278675D01*
X215374262Y-114323795D01*
X215724190Y-114358260D01*
X215724193Y-114358260D01*
X216075807Y-114358260D01*
X216075810Y-114358260D01*
X216425738Y-114323795D01*
X216708512Y-114267548D01*
X216770583Y-114255202D01*
X216770589Y-114255201D01*
X216770592Y-114255199D01*
X216770602Y-114255198D01*
X217107082Y-114153127D01*
X217431937Y-114018568D01*
X217742038Y-113852815D01*
X218034400Y-113657465D01*
X218306206Y-113434400D01*
X218554840Y-113185766D01*
X218777905Y-112913960D01*
X218973255Y-112621598D01*
X219139008Y-112311497D01*
X219273567Y-111986642D01*
X219375638Y-111650162D01*
X219444235Y-111305298D01*
X219478700Y-110955370D01*
X219478700Y-110603750D01*
X219444235Y-110253822D01*
X219388616Y-109974202D01*
X219375642Y-109908976D01*
X219375641Y-109908970D01*
X219375639Y-109908964D01*
X219375638Y-109908958D01*
X219273567Y-109572478D01*
X219139008Y-109247623D01*
X219112553Y-109198130D01*
X218973261Y-108937533D01*
X218973260Y-108937531D01*
X218973255Y-108937522D01*
X218777905Y-108645160D01*
X218554840Y-108373354D01*
X218554839Y-108373353D01*
X218554835Y-108373348D01*
X218306211Y-108124724D01*
X218034405Y-107901659D01*
X218034404Y-107901658D01*
X218034400Y-107901655D01*
X217773579Y-107727380D01*
X217742044Y-107706309D01*
X217742043Y-107706308D01*
X217742038Y-107706305D01*
X217742033Y-107706302D01*
X217742026Y-107706298D01*
X217431944Y-107540555D01*
X217431939Y-107540553D01*
X217107086Y-107405994D01*
X216770589Y-107303918D01*
X216770583Y-107303917D01*
X216425743Y-107235326D01*
X216425738Y-107235325D01*
X216425736Y-107235324D01*
X216425726Y-107235323D01*
X216168654Y-107210004D01*
X216075810Y-107200860D01*
X215724190Y-107200860D01*
X215638890Y-107209261D01*
X215374273Y-107235323D01*
X215374256Y-107235326D01*
X215029416Y-107303917D01*
X215029410Y-107303918D01*
X214692913Y-107405994D01*
X214368060Y-107540553D01*
X214368055Y-107540555D01*
X214057973Y-107706298D01*
X214057955Y-107706309D01*
X213765608Y-107901649D01*
X213765594Y-107901659D01*
X213493788Y-108124724D01*
X213245164Y-108373348D01*
X213022099Y-108645154D01*
X213022089Y-108645168D01*
X212826749Y-108937515D01*
X212826738Y-108937533D01*
X212660995Y-109247615D01*
X212660993Y-109247620D01*
X212526434Y-109572473D01*
X212424358Y-109908970D01*
X212424357Y-109908976D01*
X212355766Y-110253816D01*
X212355763Y-110253833D01*
X212321533Y-110601370D01*
X212321534Y-110601371D01*
X212321300Y-110603748D01*
X143278656Y-110603748D01*
X143244235Y-110254262D01*
X143200945Y-110036624D01*
X143188529Y-109974202D01*
X143175642Y-109909416D01*
X143175641Y-109909410D01*
X143175639Y-109909404D01*
X143175638Y-109909398D01*
X143073567Y-109572918D01*
X142939008Y-109248063D01*
X142800132Y-108988246D01*
X142773261Y-108937973D01*
X142773260Y-108937971D01*
X142773255Y-108937962D01*
X142577905Y-108645600D01*
X142354840Y-108373794D01*
X142354839Y-108373793D01*
X142354835Y-108373788D01*
X142106211Y-108125164D01*
X141834405Y-107902099D01*
X141834404Y-107902098D01*
X141834400Y-107902095D01*
X141542038Y-107706745D01*
X141542033Y-107706742D01*
X141542026Y-107706738D01*
X141231944Y-107540995D01*
X141231939Y-107540993D01*
X141230877Y-107540553D01*
X141029814Y-107457270D01*
X140907086Y-107406434D01*
X140570589Y-107304358D01*
X140570583Y-107304357D01*
X140225743Y-107235766D01*
X140225738Y-107235765D01*
X140225736Y-107235764D01*
X140225726Y-107235763D01*
X139968654Y-107210444D01*
X139875810Y-107201300D01*
X139524190Y-107201300D01*
X139438890Y-107209701D01*
X139174273Y-107235763D01*
X139174256Y-107235766D01*
X138829416Y-107304357D01*
X138829410Y-107304358D01*
X138492913Y-107406434D01*
X138168060Y-107540993D01*
X138168055Y-107540995D01*
X137857973Y-107706738D01*
X137857955Y-107706749D01*
X137565608Y-107902089D01*
X137565594Y-107902099D01*
X137293788Y-108125164D01*
X137045164Y-108373788D01*
X136822099Y-108645594D01*
X136822089Y-108645608D01*
X136626749Y-108937955D01*
X136626738Y-108937973D01*
X136460995Y-109248055D01*
X136460993Y-109248060D01*
X136326434Y-109572913D01*
X136224358Y-109909410D01*
X136224357Y-109909416D01*
X136155766Y-110254256D01*
X136155763Y-110254273D01*
X136121533Y-110601810D01*
X136121534Y-110601811D01*
X136121300Y-110604188D01*
X134700500Y-110604188D01*
X134700500Y-100364155D01*
X145791000Y-100364155D01*
X145791000Y-101012000D01*
X146707988Y-101012000D01*
X146675075Y-101069007D01*
X146641000Y-101196174D01*
X146641000Y-101327826D01*
X146675075Y-101454993D01*
X146707988Y-101512000D01*
X145791000Y-101512000D01*
X145791000Y-102159844D01*
X145797401Y-102219372D01*
X145797403Y-102219379D01*
X145847645Y-102354086D01*
X145847649Y-102354093D01*
X145933809Y-102469187D01*
X145933812Y-102469190D01*
X146048906Y-102555350D01*
X146048913Y-102555354D01*
X146183620Y-102605596D01*
X146183619Y-102605596D01*
X146266444Y-102614501D01*
X146266116Y-102617550D01*
X146283014Y-102616642D01*
X146342196Y-102649642D01*
X147011591Y-103319037D01*
X146948007Y-103336075D01*
X146833993Y-103401901D01*
X146740901Y-103494993D01*
X146675075Y-103609007D01*
X146658037Y-103672591D01*
X146025728Y-103040282D01*
X146025727Y-103040282D01*
X145986380Y-103094439D01*
X145889904Y-103283782D01*
X145824242Y-103485869D01*
X145824242Y-103485872D01*
X145791000Y-103695753D01*
X145791000Y-103908246D01*
X145824242Y-104118127D01*
X145824242Y-104118130D01*
X145889904Y-104320217D01*
X145986375Y-104509550D01*
X146025728Y-104563716D01*
X146658037Y-103931408D01*
X146675075Y-103994993D01*
X146740901Y-104109007D01*
X146833993Y-104202099D01*
X146948007Y-104267925D01*
X147011591Y-104284962D01*
X146410971Y-104885581D01*
X146489711Y-105002895D01*
X146490920Y-105006729D01*
X146493844Y-105009491D01*
X146501343Y-105039778D01*
X146510727Y-105069529D01*
X146509671Y-105073408D01*
X146510638Y-105077312D01*
X146500573Y-105106844D01*
X146492383Y-105136947D01*
X146489397Y-105139640D01*
X146488100Y-105143447D01*
X146443051Y-105182483D01*
X146433440Y-105187380D01*
X146379282Y-105226727D01*
X146379282Y-105226728D01*
X147011591Y-105859037D01*
X146948007Y-105876075D01*
X146833993Y-105941901D01*
X146740901Y-106034993D01*
X146675075Y-106149007D01*
X146658037Y-106212591D01*
X146025728Y-105580282D01*
X146025727Y-105580282D01*
X145986380Y-105634439D01*
X145889904Y-105823782D01*
X145824242Y-106025869D01*
X145824242Y-106025872D01*
X145791000Y-106235753D01*
X145791000Y-106448246D01*
X145824242Y-106658127D01*
X145824242Y-106658130D01*
X145889904Y-106860217D01*
X145986375Y-107049550D01*
X146025728Y-107103716D01*
X146658037Y-106471408D01*
X146675075Y-106534993D01*
X146740901Y-106649007D01*
X146833993Y-106742099D01*
X146948007Y-106807925D01*
X147011591Y-106824962D01*
X146410971Y-107425581D01*
X146489711Y-107542895D01*
X146490920Y-107546729D01*
X146493844Y-107549491D01*
X146501343Y-107579778D01*
X146510727Y-107609529D01*
X146509671Y-107613408D01*
X146510638Y-107617312D01*
X146500573Y-107646844D01*
X146492383Y-107676947D01*
X146489397Y-107679640D01*
X146488100Y-107683447D01*
X146443051Y-107722483D01*
X146433440Y-107727380D01*
X146379282Y-107766727D01*
X146379282Y-107766728D01*
X147011591Y-108399037D01*
X146948007Y-108416075D01*
X146833993Y-108481901D01*
X146740901Y-108574993D01*
X146675075Y-108689007D01*
X146658037Y-108752591D01*
X146025728Y-108120282D01*
X146025727Y-108120282D01*
X145986380Y-108174439D01*
X145889904Y-108363782D01*
X145824242Y-108565869D01*
X145824242Y-108565872D01*
X145791000Y-108775753D01*
X145791000Y-108988246D01*
X145824242Y-109198127D01*
X145824242Y-109198130D01*
X145889904Y-109400217D01*
X145986375Y-109589550D01*
X146025728Y-109643716D01*
X146658037Y-109011408D01*
X146675075Y-109074993D01*
X146740901Y-109189007D01*
X146833993Y-109282099D01*
X146948007Y-109347925D01*
X147011590Y-109364962D01*
X146379282Y-109997269D01*
X146379282Y-109997270D01*
X146433449Y-110036624D01*
X146622782Y-110133095D01*
X146824870Y-110198757D01*
X147034754Y-110232000D01*
X147247246Y-110232000D01*
X147457127Y-110198757D01*
X147457130Y-110198757D01*
X147659217Y-110133095D01*
X147848554Y-110036622D01*
X147902716Y-109997270D01*
X147902717Y-109997270D01*
X147270408Y-109364962D01*
X147333993Y-109347925D01*
X147448007Y-109282099D01*
X147541099Y-109189007D01*
X147606925Y-109074993D01*
X147623962Y-109011408D01*
X148256270Y-109643717D01*
X148256270Y-109643716D01*
X148295622Y-109589554D01*
X148392095Y-109400217D01*
X148457757Y-109198130D01*
X148457757Y-109198127D01*
X148491000Y-108988246D01*
X148491000Y-108775753D01*
X148457757Y-108565872D01*
X148457757Y-108565869D01*
X148392095Y-108363782D01*
X148295624Y-108174449D01*
X148256270Y-108120282D01*
X148256269Y-108120282D01*
X147623962Y-108752590D01*
X147606925Y-108689007D01*
X147541099Y-108574993D01*
X147448007Y-108481901D01*
X147333993Y-108416075D01*
X147270409Y-108399037D01*
X147902716Y-107766728D01*
X147848550Y-107727375D01*
X147838954Y-107722486D01*
X147788157Y-107674512D01*
X147771361Y-107606692D01*
X147793897Y-107540556D01*
X147838954Y-107501514D01*
X147848554Y-107496622D01*
X147902716Y-107457270D01*
X147902717Y-107457270D01*
X147270408Y-106824962D01*
X147333993Y-106807925D01*
X147448007Y-106742099D01*
X147541099Y-106649007D01*
X147606925Y-106534993D01*
X147623962Y-106471408D01*
X148256270Y-107103717D01*
X148256270Y-107103716D01*
X148295622Y-107049554D01*
X148392095Y-106860217D01*
X148457757Y-106658130D01*
X148457757Y-106658127D01*
X148491000Y-106448246D01*
X148491000Y-106235753D01*
X148457757Y-106025872D01*
X148457757Y-106025869D01*
X148392095Y-105823782D01*
X148295624Y-105634449D01*
X148256270Y-105580282D01*
X148256269Y-105580282D01*
X147623962Y-106212590D01*
X147606925Y-106149007D01*
X147541099Y-106034993D01*
X147448007Y-105941901D01*
X147333993Y-105876075D01*
X147270409Y-105859037D01*
X147902716Y-105226728D01*
X147848550Y-105187375D01*
X147838954Y-105182486D01*
X147788157Y-105134512D01*
X147771361Y-105066692D01*
X147793897Y-105000556D01*
X147838954Y-104961514D01*
X147848554Y-104956622D01*
X147902716Y-104917270D01*
X147902717Y-104917270D01*
X147270408Y-104284962D01*
X147333993Y-104267925D01*
X147448007Y-104202099D01*
X147541099Y-104109007D01*
X147606925Y-103994993D01*
X147623962Y-103931408D01*
X148256270Y-104563717D01*
X148256270Y-104563716D01*
X148295622Y-104509554D01*
X148392095Y-104320217D01*
X148457757Y-104118130D01*
X148457757Y-104118127D01*
X148484389Y-103949983D01*
X156389500Y-103949983D01*
X156389500Y-106150001D01*
X156389501Y-106150018D01*
X156400000Y-106252796D01*
X156400001Y-106252799D01*
X156429560Y-106342000D01*
X156455186Y-106419334D01*
X156547288Y-106568656D01*
X156671344Y-106692712D01*
X156820666Y-106784814D01*
X156987203Y-106839999D01*
X157089991Y-106850500D01*
X159290008Y-106850499D01*
X159392797Y-106839999D01*
X159559334Y-106784814D01*
X159708656Y-106692712D01*
X159832712Y-106568656D01*
X159924814Y-106419334D01*
X159979999Y-106252797D01*
X159990500Y-106150009D01*
X159990499Y-104931995D01*
X161389500Y-104931995D01*
X161389500Y-105168004D01*
X161389501Y-105168020D01*
X161420306Y-105402010D01*
X161481394Y-105629993D01*
X161571714Y-105848045D01*
X161571719Y-105848056D01*
X161625901Y-105941901D01*
X161689727Y-106052450D01*
X161689729Y-106052453D01*
X161689730Y-106052454D01*
X161833406Y-106239697D01*
X161833412Y-106239704D01*
X162000295Y-106406587D01*
X162000302Y-106406593D01*
X162110306Y-106491001D01*
X162187550Y-106550273D01*
X162318918Y-106626118D01*
X162391943Y-106668280D01*
X162391948Y-106668282D01*
X162391951Y-106668284D01*
X162610007Y-106758606D01*
X162837986Y-106819693D01*
X163071989Y-106850500D01*
X163071996Y-106850500D01*
X163308004Y-106850500D01*
X163308011Y-106850500D01*
X163542014Y-106819693D01*
X163769993Y-106758606D01*
X163988049Y-106668284D01*
X164192450Y-106550273D01*
X164379699Y-106406592D01*
X164546592Y-106239699D01*
X164690273Y-106052450D01*
X164808284Y-105848049D01*
X164898606Y-105629993D01*
X164959693Y-105402014D01*
X164990500Y-105168011D01*
X164990500Y-104931989D01*
X164959693Y-104697986D01*
X164898606Y-104470007D01*
X164808284Y-104251951D01*
X164808282Y-104251948D01*
X164808280Y-104251943D01*
X164731022Y-104118130D01*
X164690273Y-104047550D01*
X164615414Y-103949992D01*
X164615407Y-103949983D01*
X186686500Y-103949983D01*
X186686500Y-106150001D01*
X186686501Y-106150018D01*
X186697000Y-106252796D01*
X186697001Y-106252799D01*
X186726560Y-106342000D01*
X186752186Y-106419334D01*
X186844288Y-106568656D01*
X186968344Y-106692712D01*
X187117666Y-106784814D01*
X187284203Y-106839999D01*
X187386991Y-106850500D01*
X189587008Y-106850499D01*
X189689797Y-106839999D01*
X189856334Y-106784814D01*
X190005656Y-106692712D01*
X190129712Y-106568656D01*
X190221814Y-106419334D01*
X190276999Y-106252797D01*
X190287500Y-106150009D01*
X190287499Y-104931995D01*
X191686500Y-104931995D01*
X191686500Y-105168004D01*
X191686501Y-105168020D01*
X191717306Y-105402010D01*
X191778394Y-105629993D01*
X191868714Y-105848045D01*
X191868719Y-105848056D01*
X191922901Y-105941901D01*
X191986727Y-106052450D01*
X191986729Y-106052453D01*
X191986730Y-106052454D01*
X192130406Y-106239697D01*
X192130412Y-106239704D01*
X192297295Y-106406587D01*
X192297302Y-106406593D01*
X192407306Y-106491001D01*
X192484550Y-106550273D01*
X192615918Y-106626118D01*
X192688943Y-106668280D01*
X192688948Y-106668282D01*
X192688951Y-106668284D01*
X192907007Y-106758606D01*
X193134986Y-106819693D01*
X193368989Y-106850500D01*
X193368996Y-106850500D01*
X193605004Y-106850500D01*
X193605011Y-106850500D01*
X193839014Y-106819693D01*
X194066993Y-106758606D01*
X194285049Y-106668284D01*
X194489450Y-106550273D01*
X194676699Y-106406592D01*
X194843592Y-106239699D01*
X194987273Y-106052450D01*
X195105284Y-105848049D01*
X195195606Y-105629993D01*
X195256693Y-105402014D01*
X195287500Y-105168011D01*
X195287500Y-104931989D01*
X195256693Y-104697986D01*
X195195606Y-104470007D01*
X195105284Y-104251951D01*
X195105282Y-104251948D01*
X195105280Y-104251943D01*
X195028022Y-104118130D01*
X194987273Y-104047550D01*
X194895108Y-103927438D01*
X194843593Y-103860302D01*
X194843587Y-103860295D01*
X194676704Y-103693412D01*
X194676697Y-103693406D01*
X194489454Y-103549730D01*
X194489453Y-103549729D01*
X194489450Y-103549727D01*
X194378845Y-103485869D01*
X194285056Y-103431719D01*
X194285045Y-103431714D01*
X194066993Y-103341394D01*
X193839010Y-103280306D01*
X193605020Y-103249501D01*
X193605017Y-103249500D01*
X193605011Y-103249500D01*
X193368989Y-103249500D01*
X193368983Y-103249500D01*
X193368979Y-103249501D01*
X193134989Y-103280306D01*
X192907006Y-103341394D01*
X192688954Y-103431714D01*
X192688943Y-103431719D01*
X192484545Y-103549730D01*
X192297302Y-103693406D01*
X192297295Y-103693412D01*
X192130412Y-103860295D01*
X192130406Y-103860302D01*
X191986730Y-104047545D01*
X191868719Y-104251943D01*
X191868714Y-104251954D01*
X191778394Y-104470006D01*
X191717306Y-104697989D01*
X191686501Y-104931979D01*
X191686500Y-104931995D01*
X190287499Y-104931995D01*
X190287499Y-103949992D01*
X190276999Y-103847203D01*
X190221814Y-103680666D01*
X190129712Y-103531344D01*
X190005656Y-103407288D01*
X189856334Y-103315186D01*
X189689797Y-103260001D01*
X189689795Y-103260000D01*
X189587010Y-103249500D01*
X187386998Y-103249500D01*
X187386981Y-103249501D01*
X187284203Y-103260000D01*
X187284200Y-103260001D01*
X187117668Y-103315185D01*
X187117663Y-103315187D01*
X186968342Y-103407289D01*
X186844289Y-103531342D01*
X186752187Y-103680663D01*
X186752185Y-103680668D01*
X186733792Y-103736174D01*
X186697001Y-103847203D01*
X186697001Y-103847204D01*
X186697000Y-103847204D01*
X186686500Y-103949983D01*
X164615407Y-103949983D01*
X164546593Y-103860302D01*
X164546587Y-103860295D01*
X164379704Y-103693412D01*
X164379697Y-103693406D01*
X164192454Y-103549730D01*
X164192453Y-103549729D01*
X164192450Y-103549727D01*
X164081845Y-103485869D01*
X163988056Y-103431719D01*
X163988045Y-103431714D01*
X163769993Y-103341394D01*
X163542010Y-103280306D01*
X163308020Y-103249501D01*
X163308017Y-103249500D01*
X163308011Y-103249500D01*
X163071989Y-103249500D01*
X163071983Y-103249500D01*
X163071979Y-103249501D01*
X162837989Y-103280306D01*
X162610006Y-103341394D01*
X162391954Y-103431714D01*
X162391943Y-103431719D01*
X162187545Y-103549730D01*
X162000302Y-103693406D01*
X162000295Y-103693412D01*
X161833412Y-103860295D01*
X161833406Y-103860302D01*
X161689730Y-104047545D01*
X161571719Y-104251943D01*
X161571714Y-104251954D01*
X161481394Y-104470006D01*
X161420306Y-104697989D01*
X161389501Y-104931979D01*
X161389500Y-104931995D01*
X159990499Y-104931995D01*
X159990499Y-103949992D01*
X159979999Y-103847203D01*
X159924814Y-103680666D01*
X159832712Y-103531344D01*
X159708656Y-103407288D01*
X159559334Y-103315186D01*
X159392797Y-103260001D01*
X159392795Y-103260000D01*
X159290010Y-103249500D01*
X157089998Y-103249500D01*
X157089981Y-103249501D01*
X156987203Y-103260000D01*
X156987200Y-103260001D01*
X156820668Y-103315185D01*
X156820663Y-103315187D01*
X156671342Y-103407289D01*
X156547289Y-103531342D01*
X156455187Y-103680663D01*
X156455185Y-103680668D01*
X156436792Y-103736174D01*
X156400001Y-103847203D01*
X156400001Y-103847204D01*
X156400000Y-103847204D01*
X156389500Y-103949983D01*
X148484389Y-103949983D01*
X148487946Y-103927529D01*
X148487960Y-103927438D01*
X148491000Y-103908242D01*
X148491000Y-103695753D01*
X148457757Y-103485872D01*
X148457757Y-103485869D01*
X148392095Y-103283782D01*
X148295624Y-103094449D01*
X148256270Y-103040282D01*
X148256269Y-103040282D01*
X147623962Y-103672590D01*
X147606925Y-103609007D01*
X147541099Y-103494993D01*
X147448007Y-103401901D01*
X147333993Y-103336075D01*
X147270409Y-103319037D01*
X147939802Y-102649642D01*
X148001125Y-102616157D01*
X148015833Y-102617078D01*
X148015556Y-102614501D01*
X148098375Y-102605598D01*
X148233086Y-102555354D01*
X148233093Y-102555350D01*
X148348187Y-102469190D01*
X148348190Y-102469187D01*
X148434350Y-102354093D01*
X148434354Y-102354086D01*
X148484596Y-102219379D01*
X148484598Y-102219372D01*
X148490999Y-102159844D01*
X148491000Y-102159827D01*
X148491000Y-101512000D01*
X147574012Y-101512000D01*
X147606925Y-101454993D01*
X147641000Y-101327826D01*
X147641000Y-101196174D01*
X147606925Y-101069007D01*
X147574012Y-101012000D01*
X148491000Y-101012000D01*
X148491000Y-100364172D01*
X148490999Y-100364155D01*
X148484598Y-100304627D01*
X148484596Y-100304620D01*
X148434354Y-100169913D01*
X148434350Y-100169906D01*
X148348190Y-100054812D01*
X148348187Y-100054809D01*
X148233093Y-99968649D01*
X148233086Y-99968645D01*
X148098379Y-99918403D01*
X148098372Y-99918401D01*
X148038844Y-99912000D01*
X147391000Y-99912000D01*
X147391000Y-100828988D01*
X147333993Y-100796075D01*
X147206826Y-100762000D01*
X147075174Y-100762000D01*
X146948007Y-100796075D01*
X146891000Y-100828988D01*
X146891000Y-99912000D01*
X146243155Y-99912000D01*
X146183627Y-99918401D01*
X146183620Y-99918403D01*
X146048913Y-99968645D01*
X146048906Y-99968649D01*
X145933812Y-100054809D01*
X145933809Y-100054812D01*
X145847649Y-100169906D01*
X145847645Y-100169913D01*
X145797403Y-100304620D01*
X145797401Y-100304627D01*
X145791000Y-100364155D01*
X134700500Y-100364155D01*
X134700500Y-88404135D01*
X145790500Y-88404135D01*
X145790500Y-90199870D01*
X145790501Y-90199876D01*
X145796908Y-90259483D01*
X145847202Y-90394328D01*
X145847206Y-90394335D01*
X145933452Y-90509544D01*
X145933455Y-90509547D01*
X146048664Y-90595793D01*
X146048671Y-90595797D01*
X146180082Y-90644810D01*
X146236016Y-90686681D01*
X146260433Y-90752145D01*
X146245582Y-90820418D01*
X146224431Y-90848673D01*
X146110889Y-90962215D01*
X145985951Y-91134179D01*
X145889444Y-91323585D01*
X145823753Y-91525760D01*
X145790500Y-91735713D01*
X145790500Y-91948286D01*
X145823753Y-92158239D01*
X145889444Y-92360414D01*
X145985951Y-92549820D01*
X146110890Y-92721786D01*
X146261213Y-92872109D01*
X146433182Y-92997050D01*
X146441946Y-93001516D01*
X146492742Y-93049491D01*
X146509536Y-93117312D01*
X146486998Y-93183447D01*
X146441946Y-93222484D01*
X146433182Y-93226949D01*
X146261213Y-93351890D01*
X146110890Y-93502213D01*
X145985951Y-93674179D01*
X145889444Y-93863585D01*
X145823753Y-94065760D01*
X145790500Y-94275713D01*
X145790500Y-94488286D01*
X145823753Y-94698239D01*
X145889444Y-94900414D01*
X145985951Y-95089820D01*
X146110890Y-95261786D01*
X146261213Y-95412109D01*
X146433182Y-95537050D01*
X146441946Y-95541516D01*
X146492742Y-95589491D01*
X146509536Y-95657312D01*
X146486998Y-95723447D01*
X146441946Y-95762484D01*
X146433182Y-95766949D01*
X146261213Y-95891890D01*
X146110890Y-96042213D01*
X145985951Y-96214179D01*
X145889444Y-96403585D01*
X145889444Y-96403586D01*
X145889443Y-96403588D01*
X145888574Y-96406263D01*
X145823753Y-96605760D01*
X145790500Y-96815713D01*
X145790500Y-97028286D01*
X145820681Y-97218846D01*
X145823754Y-97238243D01*
X145879399Y-97409501D01*
X145889444Y-97440414D01*
X145985951Y-97629820D01*
X146110890Y-97801786D01*
X146261213Y-97952109D01*
X146433179Y-98077048D01*
X146433181Y-98077049D01*
X146433184Y-98077051D01*
X146622588Y-98173557D01*
X146824757Y-98239246D01*
X147034713Y-98272500D01*
X147034714Y-98272500D01*
X147247286Y-98272500D01*
X147247287Y-98272500D01*
X147457243Y-98239246D01*
X147659412Y-98173557D01*
X147848816Y-98077051D01*
X147987214Y-97976500D01*
X148020786Y-97952109D01*
X148020788Y-97952106D01*
X148020792Y-97952104D01*
X148171104Y-97801792D01*
X148171106Y-97801788D01*
X148171109Y-97801786D01*
X148296048Y-97629820D01*
X148296047Y-97629820D01*
X148296051Y-97629816D01*
X148392557Y-97440412D01*
X148458246Y-97238243D01*
X148491500Y-97028287D01*
X148491500Y-96815713D01*
X148458246Y-96605757D01*
X148392557Y-96403588D01*
X148296051Y-96214184D01*
X148296049Y-96214181D01*
X148296048Y-96214179D01*
X148171109Y-96042213D01*
X148020786Y-95891890D01*
X147848820Y-95766951D01*
X147848115Y-95766591D01*
X147840054Y-95762485D01*
X147789259Y-95714512D01*
X147772463Y-95646692D01*
X147794999Y-95580556D01*
X147840054Y-95541515D01*
X147848816Y-95537051D01*
X147928275Y-95479321D01*
X148020786Y-95412109D01*
X148020788Y-95412106D01*
X148020792Y-95412104D01*
X148171104Y-95261792D01*
X148192067Y-95232939D01*
X148213877Y-95202921D01*
X148296048Y-95089820D01*
X148296047Y-95089820D01*
X148296051Y-95089816D01*
X148392557Y-94900412D01*
X148458246Y-94698243D01*
X148491500Y-94488287D01*
X148491500Y-94275713D01*
X148458246Y-94065757D01*
X148392557Y-93863588D01*
X148296051Y-93674184D01*
X148296049Y-93674181D01*
X148296048Y-93674179D01*
X148171109Y-93502213D01*
X148020786Y-93351890D01*
X147848820Y-93226951D01*
X147848115Y-93226591D01*
X147840054Y-93222485D01*
X147789259Y-93174512D01*
X147772463Y-93106692D01*
X147794999Y-93040556D01*
X147840054Y-93001515D01*
X147848816Y-92997051D01*
X147928220Y-92939361D01*
X148020786Y-92872109D01*
X148020788Y-92872106D01*
X148020792Y-92872104D01*
X148171104Y-92721792D01*
X148171106Y-92721788D01*
X148171109Y-92721786D01*
X148296048Y-92549820D01*
X148296047Y-92549820D01*
X148296051Y-92549816D01*
X148392557Y-92360412D01*
X148458246Y-92158243D01*
X148491500Y-91948287D01*
X148491500Y-91735713D01*
X148458246Y-91525757D01*
X148392557Y-91323588D01*
X148296051Y-91134184D01*
X148296049Y-91134181D01*
X148296048Y-91134179D01*
X148171109Y-90962213D01*
X148057569Y-90848673D01*
X148024084Y-90787350D01*
X148029068Y-90717658D01*
X148070940Y-90661725D01*
X148101915Y-90644810D01*
X148233331Y-90595796D01*
X148348546Y-90509546D01*
X148434796Y-90394331D01*
X148485091Y-90259483D01*
X148491500Y-90199873D01*
X148491499Y-88404128D01*
X148485091Y-88344517D01*
X148447836Y-88244632D01*
X148434797Y-88209671D01*
X148434793Y-88209664D01*
X148348547Y-88094455D01*
X148348544Y-88094452D01*
X148233335Y-88008206D01*
X148233328Y-88008202D01*
X148098482Y-87957908D01*
X148098483Y-87957908D01*
X148038883Y-87951501D01*
X148038881Y-87951500D01*
X148038873Y-87951500D01*
X148038864Y-87951500D01*
X146243129Y-87951500D01*
X146243123Y-87951501D01*
X146183516Y-87957908D01*
X146048671Y-88008202D01*
X146048664Y-88008206D01*
X145933455Y-88094452D01*
X145933452Y-88094455D01*
X145847206Y-88209664D01*
X145847202Y-88209671D01*
X145796908Y-88344517D01*
X145791555Y-88394310D01*
X145790501Y-88404123D01*
X145790500Y-88404135D01*
X134700500Y-88404135D01*
X134700500Y-86021153D01*
X160289500Y-86021153D01*
X160289500Y-86178846D01*
X160320261Y-86333489D01*
X160320264Y-86333501D01*
X160380602Y-86479172D01*
X160380609Y-86479185D01*
X160468602Y-86610874D01*
X160489480Y-86677551D01*
X160489500Y-86679765D01*
X160489500Y-93020234D01*
X160469815Y-93087273D01*
X160468602Y-93089125D01*
X160380609Y-93220814D01*
X160380602Y-93220827D01*
X160320264Y-93366498D01*
X160320261Y-93366510D01*
X160289500Y-93521153D01*
X160289500Y-93678846D01*
X160320261Y-93833489D01*
X160320264Y-93833501D01*
X160380602Y-93979172D01*
X160380609Y-93979185D01*
X160468210Y-94110288D01*
X160468213Y-94110292D01*
X160579707Y-94221786D01*
X160579711Y-94221789D01*
X160710814Y-94309390D01*
X160710827Y-94309397D01*
X160856498Y-94369735D01*
X160856503Y-94369737D01*
X161011153Y-94400499D01*
X161011156Y-94400500D01*
X161011158Y-94400500D01*
X161168844Y-94400500D01*
X161168845Y-94400499D01*
X161323497Y-94369737D01*
X161469179Y-94309394D01*
X161600289Y-94221789D01*
X161711789Y-94110289D01*
X161799394Y-93979179D01*
X161859737Y-93833497D01*
X161890500Y-93678842D01*
X161890500Y-93521158D01*
X161890500Y-93521155D01*
X161890499Y-93521153D01*
X161886628Y-93501694D01*
X161859737Y-93366503D01*
X161842394Y-93324632D01*
X161799397Y-93220827D01*
X161799390Y-93220814D01*
X161711398Y-93089125D01*
X161690520Y-93022447D01*
X161690500Y-93020234D01*
X161690500Y-86679765D01*
X161710185Y-86612726D01*
X161711398Y-86610874D01*
X161799390Y-86479185D01*
X161799390Y-86479184D01*
X161799394Y-86479179D01*
X161859737Y-86333497D01*
X161890500Y-86178842D01*
X161890500Y-86021158D01*
X161890500Y-86021155D01*
X161890499Y-86021153D01*
X161859737Y-85866503D01*
X161859735Y-85866498D01*
X161799397Y-85720827D01*
X161799390Y-85720814D01*
X161711789Y-85589711D01*
X161711786Y-85589707D01*
X161600292Y-85478213D01*
X161600288Y-85478210D01*
X161469185Y-85390609D01*
X161469172Y-85390602D01*
X161323501Y-85330264D01*
X161323489Y-85330261D01*
X161168845Y-85299500D01*
X161168842Y-85299500D01*
X161011158Y-85299500D01*
X161011155Y-85299500D01*
X160856510Y-85330261D01*
X160856498Y-85330264D01*
X160710827Y-85390602D01*
X160710814Y-85390609D01*
X160579711Y-85478210D01*
X160579707Y-85478213D01*
X160468213Y-85589707D01*
X160468210Y-85589711D01*
X160380609Y-85720814D01*
X160380602Y-85720827D01*
X160320264Y-85866498D01*
X160320261Y-85866510D01*
X160289500Y-86021153D01*
X134700500Y-86021153D01*
X134700500Y-64162135D01*
X145739500Y-64162135D01*
X145739500Y-65957870D01*
X145739501Y-65957876D01*
X145745908Y-66017483D01*
X145796202Y-66152328D01*
X145796206Y-66152335D01*
X145882452Y-66267544D01*
X145882455Y-66267547D01*
X145997664Y-66353793D01*
X145997671Y-66353797D01*
X146042618Y-66370561D01*
X146132517Y-66404091D01*
X146192127Y-66410500D01*
X146202685Y-66410499D01*
X146269723Y-66430179D01*
X146290372Y-66446818D01*
X146960591Y-67117037D01*
X146897007Y-67134075D01*
X146782993Y-67199901D01*
X146689901Y-67292993D01*
X146624075Y-67407007D01*
X146607037Y-67470591D01*
X145974728Y-66838282D01*
X145974727Y-66838282D01*
X145935380Y-66892439D01*
X145838904Y-67081782D01*
X145773242Y-67283869D01*
X145773242Y-67283872D01*
X145740000Y-67493753D01*
X145740000Y-67706246D01*
X145773242Y-67916127D01*
X145773242Y-67916130D01*
X145838904Y-68118217D01*
X145935375Y-68307550D01*
X145974728Y-68361716D01*
X146607037Y-67729408D01*
X146624075Y-67792993D01*
X146689901Y-67907007D01*
X146782993Y-68000099D01*
X146897007Y-68065925D01*
X146960590Y-68082962D01*
X146328282Y-68715269D01*
X146328282Y-68715270D01*
X146382452Y-68754626D01*
X146382451Y-68754626D01*
X146391495Y-68759234D01*
X146442292Y-68807208D01*
X146459087Y-68875029D01*
X146436550Y-68941164D01*
X146391499Y-68980202D01*
X146382182Y-68984949D01*
X146210213Y-69109890D01*
X146059890Y-69260213D01*
X145934951Y-69432179D01*
X145838444Y-69621585D01*
X145772753Y-69823760D01*
X145748208Y-69978731D01*
X145739500Y-70033713D01*
X145739500Y-70246287D01*
X145745123Y-70281786D01*
X145770302Y-70440765D01*
X145772754Y-70456243D01*
X145822071Y-70608025D01*
X145838444Y-70658414D01*
X145934951Y-70847820D01*
X146059890Y-71019786D01*
X146210213Y-71170109D01*
X146382182Y-71295050D01*
X146390946Y-71299516D01*
X146441742Y-71347491D01*
X146458536Y-71415312D01*
X146435998Y-71481447D01*
X146390946Y-71520484D01*
X146382182Y-71524949D01*
X146210213Y-71649890D01*
X146059890Y-71800213D01*
X145934951Y-71972179D01*
X145838444Y-72161585D01*
X145772753Y-72363760D01*
X145739500Y-72573713D01*
X145739500Y-72786286D01*
X145772753Y-72996239D01*
X145838444Y-73198414D01*
X145934951Y-73387820D01*
X146059890Y-73559786D01*
X146210213Y-73710109D01*
X146382182Y-73835050D01*
X146390946Y-73839516D01*
X146441742Y-73887491D01*
X146458536Y-73955312D01*
X146435998Y-74021447D01*
X146390946Y-74060484D01*
X146382182Y-74064949D01*
X146210213Y-74189890D01*
X146059890Y-74340213D01*
X145934951Y-74512179D01*
X145838444Y-74701585D01*
X145772753Y-74903760D01*
X145748910Y-75054299D01*
X145739500Y-75113713D01*
X145739500Y-75326287D01*
X145772754Y-75536243D01*
X145835451Y-75729205D01*
X145838444Y-75738414D01*
X145934951Y-75927820D01*
X146059890Y-76099786D01*
X146210213Y-76250109D01*
X146382182Y-76375050D01*
X146390946Y-76379516D01*
X146441742Y-76427491D01*
X146458536Y-76495312D01*
X146435998Y-76561447D01*
X146390946Y-76600484D01*
X146382182Y-76604949D01*
X146210213Y-76729890D01*
X146059890Y-76880213D01*
X145934951Y-77052179D01*
X145838444Y-77241585D01*
X145772753Y-77443760D01*
X145761444Y-77515165D01*
X145739500Y-77653713D01*
X145739500Y-77866287D01*
X145744149Y-77895637D01*
X145772753Y-78076239D01*
X145838444Y-78278414D01*
X145934951Y-78467820D01*
X146059890Y-78639786D01*
X146210213Y-78790109D01*
X146382182Y-78915050D01*
X146390946Y-78919516D01*
X146441742Y-78967491D01*
X146458536Y-79035312D01*
X146435998Y-79101447D01*
X146390946Y-79140484D01*
X146382182Y-79144949D01*
X146210213Y-79269890D01*
X146059890Y-79420213D01*
X145934951Y-79592179D01*
X145838444Y-79781585D01*
X145838443Y-79781587D01*
X145838443Y-79781588D01*
X145828857Y-79811090D01*
X145772753Y-79983760D01*
X145751642Y-80117052D01*
X145739500Y-80193713D01*
X145739500Y-80406287D01*
X145744149Y-80435637D01*
X145757640Y-80520821D01*
X145772754Y-80616243D01*
X145824905Y-80776748D01*
X145838444Y-80818414D01*
X145934951Y-81007820D01*
X146059890Y-81179786D01*
X146210213Y-81330109D01*
X146382182Y-81455050D01*
X146390946Y-81459516D01*
X146441742Y-81507491D01*
X146458536Y-81575312D01*
X146435998Y-81641447D01*
X146390946Y-81680484D01*
X146382182Y-81684949D01*
X146210213Y-81809890D01*
X146059890Y-81960213D01*
X145934951Y-82132179D01*
X145838444Y-82321585D01*
X145772753Y-82523760D01*
X145748007Y-82680000D01*
X145739500Y-82733713D01*
X145739500Y-82946287D01*
X145744149Y-82975637D01*
X145753556Y-83035036D01*
X145772754Y-83156243D01*
X145786899Y-83199778D01*
X145838444Y-83358414D01*
X145934951Y-83547820D01*
X146059890Y-83719786D01*
X146210213Y-83870109D01*
X146382179Y-83995048D01*
X146382181Y-83995049D01*
X146382184Y-83995051D01*
X146571588Y-84091557D01*
X146773757Y-84157246D01*
X146983713Y-84190500D01*
X146983714Y-84190500D01*
X147196286Y-84190500D01*
X147196287Y-84190500D01*
X147406243Y-84157246D01*
X147608412Y-84091557D01*
X147797816Y-83995051D01*
X147870147Y-83942500D01*
X147969786Y-83870109D01*
X147969788Y-83870106D01*
X147969792Y-83870104D01*
X148120104Y-83719792D01*
X148120106Y-83719788D01*
X148120109Y-83719786D01*
X148245048Y-83547820D01*
X148245047Y-83547820D01*
X148245051Y-83547816D01*
X148341557Y-83358412D01*
X148407246Y-83156243D01*
X148440500Y-82946287D01*
X148440500Y-82733713D01*
X148407246Y-82523757D01*
X148341557Y-82321588D01*
X148245051Y-82132184D01*
X148245049Y-82132181D01*
X148245048Y-82132179D01*
X148120109Y-81960213D01*
X147969786Y-81809890D01*
X147797820Y-81684951D01*
X147797115Y-81684591D01*
X147789054Y-81680485D01*
X147738259Y-81632512D01*
X147721463Y-81564692D01*
X147743999Y-81498556D01*
X147789054Y-81459515D01*
X147797816Y-81455051D01*
X147859426Y-81410289D01*
X147969786Y-81330109D01*
X147969788Y-81330106D01*
X147969792Y-81330104D01*
X148120104Y-81179792D01*
X148120106Y-81179788D01*
X148120109Y-81179786D01*
X148245048Y-81007820D01*
X148245047Y-81007820D01*
X148245051Y-81007816D01*
X148340160Y-80821153D01*
X155789500Y-80821153D01*
X155789500Y-80978846D01*
X155820261Y-81133489D01*
X155820264Y-81133501D01*
X155880602Y-81279172D01*
X155880609Y-81279185D01*
X155968210Y-81410288D01*
X155968213Y-81410292D01*
X156079707Y-81521786D01*
X156079711Y-81521789D01*
X156210814Y-81609390D01*
X156210827Y-81609397D01*
X156288204Y-81641447D01*
X156356503Y-81669737D01*
X156511153Y-81700499D01*
X156511156Y-81700500D01*
X156511158Y-81700500D01*
X156668844Y-81700500D01*
X156668845Y-81700499D01*
X156823497Y-81669737D01*
X156969179Y-81609394D01*
X157100289Y-81521789D01*
X157211789Y-81410289D01*
X157299394Y-81279179D01*
X157359737Y-81133497D01*
X157390500Y-80978842D01*
X157390500Y-80821158D01*
X157389954Y-80818414D01*
X157381666Y-80776748D01*
X157374823Y-80742346D01*
X157381050Y-80672757D01*
X157408756Y-80630478D01*
X157604665Y-80434570D01*
X157665984Y-80401088D01*
X157668151Y-80400637D01*
X157668840Y-80400500D01*
X157668842Y-80400500D01*
X157823497Y-80369737D01*
X157969179Y-80309394D01*
X158100289Y-80221789D01*
X158211789Y-80110289D01*
X158299394Y-79979179D01*
X158359737Y-79833497D01*
X158390500Y-79678842D01*
X158390500Y-79521158D01*
X158390500Y-79521155D01*
X158390499Y-79521153D01*
X158380482Y-79470793D01*
X158359737Y-79366503D01*
X158355277Y-79355736D01*
X158299397Y-79220827D01*
X158299390Y-79220814D01*
X158211789Y-79089711D01*
X158211786Y-79089707D01*
X158100292Y-78978213D01*
X158100288Y-78978210D01*
X157969185Y-78890609D01*
X157969172Y-78890602D01*
X157823501Y-78830264D01*
X157823489Y-78830261D01*
X157668845Y-78799500D01*
X157668842Y-78799500D01*
X157511158Y-78799500D01*
X157511155Y-78799500D01*
X157356510Y-78830261D01*
X157356498Y-78830264D01*
X157210827Y-78890602D01*
X157210814Y-78890609D01*
X157079711Y-78978210D01*
X157079707Y-78978213D01*
X156968213Y-79089707D01*
X156968210Y-79089711D01*
X156880609Y-79220814D01*
X156880602Y-79220827D01*
X156820264Y-79366498D01*
X156820261Y-79366508D01*
X156789362Y-79521848D01*
X156756977Y-79583759D01*
X156755426Y-79585337D01*
X156223711Y-80117052D01*
X156223702Y-80117061D01*
X156221286Y-80119478D01*
X156221284Y-80119480D01*
X156109480Y-80231284D01*
X156087775Y-80268876D01*
X156079197Y-80278458D01*
X156077500Y-80279509D01*
X156074496Y-80283425D01*
X155968213Y-80389707D01*
X155968210Y-80389711D01*
X155880609Y-80520814D01*
X155880602Y-80520827D01*
X155820264Y-80666498D01*
X155820261Y-80666510D01*
X155789500Y-80821153D01*
X148340160Y-80821153D01*
X148341557Y-80818412D01*
X148407246Y-80616243D01*
X148440500Y-80406287D01*
X148440500Y-80193713D01*
X148407246Y-79983757D01*
X148341557Y-79781588D01*
X148245051Y-79592184D01*
X148245049Y-79592181D01*
X148245048Y-79592179D01*
X148120109Y-79420213D01*
X147969786Y-79269890D01*
X147797820Y-79144951D01*
X147797115Y-79144591D01*
X147789054Y-79140485D01*
X147738259Y-79092512D01*
X147721463Y-79024692D01*
X147743999Y-78958556D01*
X147789054Y-78919515D01*
X147797816Y-78915051D01*
X147912935Y-78831413D01*
X147969786Y-78790109D01*
X147969788Y-78790106D01*
X147969792Y-78790104D01*
X148120104Y-78639792D01*
X148120106Y-78639788D01*
X148120109Y-78639786D01*
X148245048Y-78467820D01*
X148245047Y-78467820D01*
X148245051Y-78467816D01*
X148341557Y-78278412D01*
X148407246Y-78076243D01*
X148440500Y-77866287D01*
X148440500Y-77653713D01*
X148416255Y-77500639D01*
X162327500Y-77500639D01*
X162327500Y-77699360D01*
X162358587Y-77895637D01*
X162419993Y-78084629D01*
X162419994Y-78084632D01*
X162510213Y-78261694D01*
X162627019Y-78422464D01*
X162767536Y-78562981D01*
X162928306Y-78679787D01*
X163046832Y-78740179D01*
X163084780Y-78759515D01*
X163135576Y-78807490D01*
X163152371Y-78875311D01*
X163129833Y-78941446D01*
X163084780Y-78980485D01*
X162928305Y-79060213D01*
X162767533Y-79177021D01*
X162627021Y-79317533D01*
X162510213Y-79478305D01*
X162419994Y-79655367D01*
X162419993Y-79655370D01*
X162358587Y-79844362D01*
X162327500Y-80040639D01*
X162327500Y-80239360D01*
X162358587Y-80435637D01*
X162419993Y-80624629D01*
X162419994Y-80624632D01*
X162446852Y-80677342D01*
X162510213Y-80801694D01*
X162627019Y-80962464D01*
X162767536Y-81102981D01*
X162928306Y-81219787D01*
X163044855Y-81279172D01*
X163084780Y-81299515D01*
X163135576Y-81347490D01*
X163152371Y-81415311D01*
X163129833Y-81481446D01*
X163084780Y-81520485D01*
X162928305Y-81600213D01*
X162767533Y-81717021D01*
X162627021Y-81857533D01*
X162510213Y-82018305D01*
X162419994Y-82195367D01*
X162419993Y-82195370D01*
X162358587Y-82384362D01*
X162327500Y-82580639D01*
X162327500Y-82779360D01*
X162358587Y-82975637D01*
X162419993Y-83164629D01*
X162419994Y-83164632D01*
X162510076Y-83341425D01*
X162510213Y-83341694D01*
X162627019Y-83502464D01*
X162767536Y-83642981D01*
X162928306Y-83759787D01*
X163046832Y-83820179D01*
X163084780Y-83839515D01*
X163135576Y-83887490D01*
X163152371Y-83955311D01*
X163129833Y-84021446D01*
X163084780Y-84060485D01*
X162928305Y-84140213D01*
X162767533Y-84257021D01*
X162627021Y-84397533D01*
X162510213Y-84558305D01*
X162419994Y-84735367D01*
X162419993Y-84735370D01*
X162358587Y-84924362D01*
X162358587Y-84924364D01*
X162327500Y-85120639D01*
X162327500Y-85319361D01*
X162329227Y-85330263D01*
X162358587Y-85515637D01*
X162419993Y-85704629D01*
X162419994Y-85704632D01*
X162502470Y-85866498D01*
X162510213Y-85881694D01*
X162627019Y-86042464D01*
X162767536Y-86182981D01*
X162928306Y-86299787D01*
X163046832Y-86360179D01*
X163084780Y-86379515D01*
X163135576Y-86427490D01*
X163152371Y-86495311D01*
X163129833Y-86561446D01*
X163084780Y-86600485D01*
X162928305Y-86680213D01*
X162767533Y-86797021D01*
X162627021Y-86937533D01*
X162510213Y-87098305D01*
X162419994Y-87275367D01*
X162419993Y-87275370D01*
X162358587Y-87464362D01*
X162327500Y-87660639D01*
X162327500Y-87859360D01*
X162358587Y-88055637D01*
X162419993Y-88244629D01*
X162419994Y-88244632D01*
X162501260Y-88404123D01*
X162510213Y-88421694D01*
X162627019Y-88582464D01*
X162767536Y-88722981D01*
X162928306Y-88839787D01*
X163046832Y-88900179D01*
X163084780Y-88919515D01*
X163135576Y-88967490D01*
X163152371Y-89035311D01*
X163129833Y-89101446D01*
X163084780Y-89140485D01*
X162928305Y-89220213D01*
X162767533Y-89337021D01*
X162627021Y-89477533D01*
X162510213Y-89638305D01*
X162419994Y-89815367D01*
X162419993Y-89815370D01*
X162358587Y-90004362D01*
X162327500Y-90200639D01*
X162327500Y-90399360D01*
X162358587Y-90595637D01*
X162419993Y-90784629D01*
X162419994Y-90784632D01*
X162510213Y-90961694D01*
X162627019Y-91122464D01*
X162767536Y-91262981D01*
X162928306Y-91379787D01*
X163046832Y-91440179D01*
X163084780Y-91459515D01*
X163135576Y-91507490D01*
X163152371Y-91575311D01*
X163129833Y-91641446D01*
X163084780Y-91680485D01*
X162928305Y-91760213D01*
X162767533Y-91877021D01*
X162627021Y-92017533D01*
X162510213Y-92178305D01*
X162419994Y-92355367D01*
X162419993Y-92355370D01*
X162358587Y-92544362D01*
X162327500Y-92740639D01*
X162327500Y-92939360D01*
X162358587Y-93135637D01*
X162419993Y-93324629D01*
X162419994Y-93324632D01*
X162510213Y-93501694D01*
X162627019Y-93662464D01*
X162767536Y-93802981D01*
X162928306Y-93919787D01*
X163085332Y-93999796D01*
X163136127Y-94047769D01*
X163152922Y-94115590D01*
X163130385Y-94181725D01*
X163085332Y-94220764D01*
X162928566Y-94300641D01*
X162891283Y-94327729D01*
X162891282Y-94327730D01*
X163562554Y-94999000D01*
X163539840Y-94999000D01*
X163442939Y-95024964D01*
X163356060Y-95075124D01*
X163285124Y-95146060D01*
X163234964Y-95232939D01*
X163209000Y-95329840D01*
X163209000Y-95352552D01*
X162537730Y-94681282D01*
X162537729Y-94681283D01*
X162510643Y-94718564D01*
X162420457Y-94895562D01*
X162359075Y-95084476D01*
X162359075Y-95084479D01*
X162328000Y-95280678D01*
X162328000Y-95479321D01*
X162359075Y-95675520D01*
X162359075Y-95675523D01*
X162420457Y-95864437D01*
X162510641Y-96041432D01*
X162537730Y-96078715D01*
X163209000Y-95407445D01*
X163209000Y-95430160D01*
X163234964Y-95527061D01*
X163285124Y-95613940D01*
X163356060Y-95684876D01*
X163442939Y-95735036D01*
X163539840Y-95761000D01*
X163562553Y-95761000D01*
X162891283Y-96432268D01*
X162891283Y-96432269D01*
X162928567Y-96459358D01*
X163105562Y-96549542D01*
X163294477Y-96610924D01*
X163490679Y-96642000D01*
X163689321Y-96642000D01*
X163885520Y-96610924D01*
X163885523Y-96610924D01*
X164074437Y-96549542D01*
X164251425Y-96459362D01*
X164288716Y-96432268D01*
X163617448Y-95761000D01*
X163640160Y-95761000D01*
X163737061Y-95735036D01*
X163823940Y-95684876D01*
X163894876Y-95613940D01*
X163945036Y-95527061D01*
X163971000Y-95430160D01*
X163971000Y-95407447D01*
X164642268Y-96078715D01*
X164669362Y-96041425D01*
X164759542Y-95864437D01*
X164820924Y-95675523D01*
X164820924Y-95675520D01*
X164852000Y-95479321D01*
X164852000Y-95280678D01*
X164820924Y-95084479D01*
X164820924Y-95084476D01*
X164759542Y-94895562D01*
X164669358Y-94718567D01*
X164642268Y-94681283D01*
X163971000Y-95352551D01*
X163971000Y-95329840D01*
X163945036Y-95232939D01*
X163894876Y-95146060D01*
X163823940Y-95075124D01*
X163737061Y-95024964D01*
X163640160Y-94999000D01*
X163617447Y-94999000D01*
X164288716Y-94327731D01*
X164288715Y-94327730D01*
X164251432Y-94300641D01*
X164094668Y-94220765D01*
X164043872Y-94172790D01*
X164027077Y-94104969D01*
X164049615Y-94038834D01*
X164094667Y-93999796D01*
X164251694Y-93919787D01*
X164412464Y-93802981D01*
X164552981Y-93662464D01*
X164669787Y-93501694D01*
X164760005Y-93324632D01*
X164821413Y-93135636D01*
X164852500Y-92939361D01*
X164852500Y-92740639D01*
X164821413Y-92544364D01*
X164760005Y-92355368D01*
X164760005Y-92355367D01*
X164669786Y-92178305D01*
X164655210Y-92158243D01*
X164552981Y-92017536D01*
X164412464Y-91877019D01*
X164251694Y-91760213D01*
X164095218Y-91680484D01*
X164044423Y-91632510D01*
X164027628Y-91564689D01*
X164050165Y-91498554D01*
X164095218Y-91459515D01*
X164251694Y-91379787D01*
X164412464Y-91262981D01*
X164552981Y-91122464D01*
X164669787Y-90961694D01*
X164760005Y-90784632D01*
X164821413Y-90595636D01*
X164852500Y-90399361D01*
X164852500Y-90200639D01*
X164821413Y-90004364D01*
X164760005Y-89815368D01*
X164760005Y-89815367D01*
X164669786Y-89638305D01*
X164635503Y-89591118D01*
X164552981Y-89477536D01*
X164412464Y-89337019D01*
X164251694Y-89220213D01*
X164095218Y-89140484D01*
X164044423Y-89092510D01*
X164027628Y-89024689D01*
X164050165Y-88958554D01*
X164095218Y-88919515D01*
X164251694Y-88839787D01*
X164412464Y-88722981D01*
X164552981Y-88582464D01*
X164669787Y-88421694D01*
X164760005Y-88244632D01*
X164821413Y-88055636D01*
X164852500Y-87859361D01*
X164852500Y-87660639D01*
X164821413Y-87464364D01*
X164760005Y-87275368D01*
X164760005Y-87275367D01*
X164714035Y-87185149D01*
X164669787Y-87098306D01*
X164552981Y-86937536D01*
X164412464Y-86797019D01*
X164251694Y-86680213D01*
X164095218Y-86600484D01*
X164044423Y-86552510D01*
X164027628Y-86484689D01*
X164050165Y-86418554D01*
X164095218Y-86379515D01*
X164251694Y-86299787D01*
X164412464Y-86182981D01*
X164552981Y-86042464D01*
X164669787Y-85881694D01*
X164760005Y-85704632D01*
X164821413Y-85515636D01*
X164852500Y-85319361D01*
X164852500Y-85120639D01*
X164821413Y-84924364D01*
X164760005Y-84735368D01*
X164760005Y-84735367D01*
X164669786Y-84558305D01*
X164631934Y-84506206D01*
X164552981Y-84397536D01*
X164412464Y-84257019D01*
X164251694Y-84140213D01*
X164095218Y-84060484D01*
X164044423Y-84012510D01*
X164027628Y-83944689D01*
X164050165Y-83878554D01*
X164095218Y-83839515D01*
X164251694Y-83759787D01*
X164412464Y-83642981D01*
X164552981Y-83502464D01*
X164669787Y-83341694D01*
X164760005Y-83164632D01*
X164821413Y-82975636D01*
X164852500Y-82779361D01*
X164852500Y-82580639D01*
X164821413Y-82384364D01*
X164760005Y-82195368D01*
X164760005Y-82195367D01*
X164714035Y-82105149D01*
X164669787Y-82018306D01*
X164552981Y-81857536D01*
X164412464Y-81717019D01*
X164251694Y-81600213D01*
X164095218Y-81520484D01*
X164044423Y-81472510D01*
X164027628Y-81404689D01*
X164050165Y-81338554D01*
X164095218Y-81299515D01*
X164251694Y-81219787D01*
X164412464Y-81102981D01*
X164552981Y-80962464D01*
X164669787Y-80801694D01*
X164760005Y-80624632D01*
X164821413Y-80435636D01*
X164852500Y-80239361D01*
X164852500Y-80040639D01*
X164821413Y-79844364D01*
X164785307Y-79733239D01*
X164760006Y-79655370D01*
X164760005Y-79655367D01*
X164691620Y-79521155D01*
X164669787Y-79478306D01*
X164552981Y-79317536D01*
X164412464Y-79177019D01*
X164251694Y-79060213D01*
X164095218Y-78980484D01*
X164044423Y-78932510D01*
X164027628Y-78864689D01*
X164050165Y-78798554D01*
X164095218Y-78759515D01*
X164251694Y-78679787D01*
X164412464Y-78562981D01*
X164552981Y-78422464D01*
X164669787Y-78261694D01*
X164760005Y-78084632D01*
X164821413Y-77895636D01*
X164852500Y-77699361D01*
X164852500Y-77500639D01*
X177327500Y-77500639D01*
X177327500Y-77699360D01*
X177358587Y-77895637D01*
X177419993Y-78084629D01*
X177419994Y-78084632D01*
X177510213Y-78261694D01*
X177627019Y-78422464D01*
X177767536Y-78562981D01*
X177928306Y-78679787D01*
X178046832Y-78740179D01*
X178084780Y-78759515D01*
X178135576Y-78807490D01*
X178152371Y-78875311D01*
X178129833Y-78941446D01*
X178084780Y-78980485D01*
X177928305Y-79060213D01*
X177767533Y-79177021D01*
X177627021Y-79317533D01*
X177510213Y-79478305D01*
X177419994Y-79655367D01*
X177419993Y-79655370D01*
X177358587Y-79844362D01*
X177327500Y-80040639D01*
X177327500Y-80239360D01*
X177358587Y-80435637D01*
X177419993Y-80624629D01*
X177419994Y-80624632D01*
X177446852Y-80677342D01*
X177510213Y-80801694D01*
X177627019Y-80962464D01*
X177767536Y-81102981D01*
X177928306Y-81219787D01*
X178085332Y-81299796D01*
X178136127Y-81347769D01*
X178152922Y-81415590D01*
X178130385Y-81481725D01*
X178085332Y-81520764D01*
X177928566Y-81600641D01*
X177891283Y-81627729D01*
X177891282Y-81627730D01*
X178562554Y-82299000D01*
X178539840Y-82299000D01*
X178442939Y-82324964D01*
X178356060Y-82375124D01*
X178285124Y-82446060D01*
X178234964Y-82532939D01*
X178209000Y-82629840D01*
X178209000Y-82652552D01*
X177537730Y-81981282D01*
X177537729Y-81981283D01*
X177510643Y-82018564D01*
X177420457Y-82195562D01*
X177359075Y-82384476D01*
X177359075Y-82384479D01*
X177328000Y-82580678D01*
X177328000Y-82779321D01*
X177359075Y-82975520D01*
X177359075Y-82975523D01*
X177420457Y-83164437D01*
X177510641Y-83341432D01*
X177537730Y-83378715D01*
X177537731Y-83378716D01*
X178209000Y-82707447D01*
X178209000Y-82730160D01*
X178234964Y-82827061D01*
X178285124Y-82913940D01*
X178356060Y-82984876D01*
X178442939Y-83035036D01*
X178539840Y-83061000D01*
X178562553Y-83061000D01*
X177891283Y-83732268D01*
X177891283Y-83732269D01*
X177928567Y-83759358D01*
X178085331Y-83839234D01*
X178136127Y-83887209D01*
X178152922Y-83955030D01*
X178130384Y-84021165D01*
X178085331Y-84060204D01*
X177928305Y-84140213D01*
X177767533Y-84257021D01*
X177627021Y-84397533D01*
X177510213Y-84558305D01*
X177419994Y-84735367D01*
X177419993Y-84735370D01*
X177358587Y-84924362D01*
X177358587Y-84924364D01*
X177327500Y-85120639D01*
X177327500Y-85319361D01*
X177329227Y-85330263D01*
X177358587Y-85515637D01*
X177419993Y-85704629D01*
X177419994Y-85704632D01*
X177502470Y-85866498D01*
X177510213Y-85881694D01*
X177627019Y-86042464D01*
X177767536Y-86182981D01*
X177928306Y-86299787D01*
X178046832Y-86360179D01*
X178084780Y-86379515D01*
X178135576Y-86427490D01*
X178152371Y-86495311D01*
X178129833Y-86561446D01*
X178084780Y-86600485D01*
X177928305Y-86680213D01*
X177767533Y-86797021D01*
X177627021Y-86937533D01*
X177510213Y-87098305D01*
X177419994Y-87275367D01*
X177419993Y-87275370D01*
X177358587Y-87464362D01*
X177327500Y-87660639D01*
X177327500Y-87859360D01*
X177358587Y-88055637D01*
X177419993Y-88244629D01*
X177419994Y-88244632D01*
X177501260Y-88404123D01*
X177510213Y-88421694D01*
X177627019Y-88582464D01*
X177767536Y-88722981D01*
X177928306Y-88839787D01*
X178046832Y-88900179D01*
X178084780Y-88919515D01*
X178135576Y-88967490D01*
X178152371Y-89035311D01*
X178129833Y-89101446D01*
X178084780Y-89140485D01*
X177928305Y-89220213D01*
X177767533Y-89337021D01*
X177627021Y-89477533D01*
X177510213Y-89638305D01*
X177419994Y-89815367D01*
X177419993Y-89815370D01*
X177358587Y-90004362D01*
X177327500Y-90200639D01*
X177327500Y-90399360D01*
X177358587Y-90595637D01*
X177419993Y-90784629D01*
X177419994Y-90784632D01*
X177510213Y-90961694D01*
X177627019Y-91122464D01*
X177767536Y-91262981D01*
X177928306Y-91379787D01*
X178046832Y-91440179D01*
X178084780Y-91459515D01*
X178135576Y-91507490D01*
X178152371Y-91575311D01*
X178129833Y-91641446D01*
X178084780Y-91680485D01*
X177928305Y-91760213D01*
X177767533Y-91877021D01*
X177627021Y-92017533D01*
X177510213Y-92178305D01*
X177419994Y-92355367D01*
X177419993Y-92355370D01*
X177358587Y-92544362D01*
X177327500Y-92740639D01*
X177327500Y-92939360D01*
X177358587Y-93135637D01*
X177419993Y-93324629D01*
X177419994Y-93324632D01*
X177510213Y-93501694D01*
X177627019Y-93662464D01*
X177767536Y-93802981D01*
X177928306Y-93919787D01*
X178085332Y-93999796D01*
X178136127Y-94047769D01*
X178152922Y-94115590D01*
X178130385Y-94181725D01*
X178085332Y-94220764D01*
X177928566Y-94300641D01*
X177891283Y-94327729D01*
X177891282Y-94327730D01*
X178562554Y-94999000D01*
X178539840Y-94999000D01*
X178442939Y-95024964D01*
X178356060Y-95075124D01*
X178285124Y-95146060D01*
X178234964Y-95232939D01*
X178209000Y-95329840D01*
X178209000Y-95352552D01*
X177537730Y-94681282D01*
X177537729Y-94681283D01*
X177510643Y-94718564D01*
X177420457Y-94895562D01*
X177359075Y-95084476D01*
X177359075Y-95084479D01*
X177328000Y-95280678D01*
X177328000Y-95479321D01*
X177359075Y-95675520D01*
X177359075Y-95675523D01*
X177420457Y-95864437D01*
X177510641Y-96041432D01*
X177537730Y-96078715D01*
X177537731Y-96078716D01*
X178209000Y-95407447D01*
X178209000Y-95430160D01*
X178234964Y-95527061D01*
X178285124Y-95613940D01*
X178356060Y-95684876D01*
X178442939Y-95735036D01*
X178539840Y-95761000D01*
X178562553Y-95761000D01*
X177891283Y-96432268D01*
X177891283Y-96432269D01*
X177928567Y-96459358D01*
X178105562Y-96549542D01*
X178294495Y-96610930D01*
X178352170Y-96650367D01*
X178379369Y-96714726D01*
X178370738Y-96776313D01*
X178320025Y-96898744D01*
X178320022Y-96898756D01*
X178283497Y-97082379D01*
X178283497Y-97269620D01*
X178320022Y-97453243D01*
X178320024Y-97453251D01*
X178391673Y-97626228D01*
X178391678Y-97626237D01*
X178495694Y-97781907D01*
X178495697Y-97781911D01*
X178628085Y-97914299D01*
X178628089Y-97914302D01*
X178783759Y-98018318D01*
X178783765Y-98018321D01*
X178783766Y-98018322D01*
X178956746Y-98089973D01*
X179140376Y-98126499D01*
X179140380Y-98126500D01*
X179140381Y-98126500D01*
X179327614Y-98126500D01*
X179327615Y-98126499D01*
X179511248Y-98089973D01*
X179684228Y-98018322D01*
X179839905Y-97914302D01*
X179972299Y-97781908D01*
X179998521Y-97742663D01*
X180052131Y-97697860D01*
X180102750Y-97687560D01*
X185334053Y-97735189D01*
X185400910Y-97755483D01*
X185407297Y-97760176D01*
X185540814Y-97849390D01*
X185540827Y-97849397D01*
X185686498Y-97909735D01*
X185686503Y-97909737D01*
X185841153Y-97940499D01*
X185841156Y-97940500D01*
X185841158Y-97940500D01*
X185998844Y-97940500D01*
X185998845Y-97940499D01*
X186153497Y-97909737D01*
X186299179Y-97849394D01*
X186430289Y-97761789D01*
X186541789Y-97650289D01*
X186629394Y-97519179D01*
X186689737Y-97373497D01*
X186720500Y-97218842D01*
X186720500Y-97061158D01*
X186720500Y-97061155D01*
X186720499Y-97061153D01*
X189749500Y-97061153D01*
X189749500Y-97218846D01*
X189780261Y-97373489D01*
X189780264Y-97373501D01*
X189840602Y-97519172D01*
X189840609Y-97519185D01*
X189928210Y-97650288D01*
X189928213Y-97650292D01*
X190039707Y-97761786D01*
X190039711Y-97761789D01*
X190170814Y-97849390D01*
X190170827Y-97849397D01*
X190316498Y-97909735D01*
X190316503Y-97909737D01*
X190471153Y-97940499D01*
X190471156Y-97940500D01*
X190471158Y-97940500D01*
X190628844Y-97940500D01*
X190628845Y-97940499D01*
X190783497Y-97909737D01*
X190929179Y-97849394D01*
X191006997Y-97797397D01*
X191073673Y-97776520D01*
X191075887Y-97776500D01*
X194313234Y-97776500D01*
X194380273Y-97796185D01*
X194382125Y-97797398D01*
X194513814Y-97885390D01*
X194513827Y-97885397D01*
X194659498Y-97945735D01*
X194659503Y-97945737D01*
X194814153Y-97976499D01*
X194814156Y-97976500D01*
X194814158Y-97976500D01*
X194971844Y-97976500D01*
X194971845Y-97976499D01*
X195126497Y-97945737D01*
X195272179Y-97885394D01*
X195403289Y-97797789D01*
X195514789Y-97686289D01*
X195602394Y-97555179D01*
X195662737Y-97409497D01*
X195693500Y-97254842D01*
X195693500Y-97097158D01*
X195693500Y-97097155D01*
X195693499Y-97097153D01*
X195686339Y-97061158D01*
X195662737Y-96942503D01*
X195662735Y-96942498D01*
X195602397Y-96796827D01*
X195602390Y-96796814D01*
X195514789Y-96665711D01*
X195514786Y-96665707D01*
X195403292Y-96554213D01*
X195403288Y-96554210D01*
X195272185Y-96466609D01*
X195272172Y-96466602D01*
X195126501Y-96406264D01*
X195126489Y-96406261D01*
X194971845Y-96375500D01*
X194971842Y-96375500D01*
X194814158Y-96375500D01*
X194814155Y-96375500D01*
X194659510Y-96406261D01*
X194659498Y-96406264D01*
X194513827Y-96466602D01*
X194513814Y-96466609D01*
X194382125Y-96554602D01*
X194315447Y-96575480D01*
X194313234Y-96575500D01*
X191168941Y-96575500D01*
X191101902Y-96555815D01*
X191081260Y-96539181D01*
X191060292Y-96518213D01*
X191060288Y-96518210D01*
X190929185Y-96430609D01*
X190929172Y-96430602D01*
X190783501Y-96370264D01*
X190783489Y-96370261D01*
X190628845Y-96339500D01*
X190628842Y-96339500D01*
X190471158Y-96339500D01*
X190471155Y-96339500D01*
X190316510Y-96370261D01*
X190316498Y-96370264D01*
X190170827Y-96430602D01*
X190170814Y-96430609D01*
X190039711Y-96518210D01*
X190039707Y-96518213D01*
X189928213Y-96629707D01*
X189928210Y-96629711D01*
X189840609Y-96760814D01*
X189840602Y-96760827D01*
X189780264Y-96906498D01*
X189780261Y-96906510D01*
X189749500Y-97061153D01*
X186720499Y-97061153D01*
X186689737Y-96906503D01*
X186635811Y-96776313D01*
X186629397Y-96760827D01*
X186629390Y-96760814D01*
X186541789Y-96629711D01*
X186541786Y-96629707D01*
X186430292Y-96518213D01*
X186430288Y-96518210D01*
X186299185Y-96430609D01*
X186299172Y-96430602D01*
X186153501Y-96370264D01*
X186153489Y-96370261D01*
X185998845Y-96339500D01*
X185998842Y-96339500D01*
X185841158Y-96339500D01*
X185841155Y-96339500D01*
X185686510Y-96370261D01*
X185686498Y-96370264D01*
X185540827Y-96430602D01*
X185540814Y-96430609D01*
X185416964Y-96513364D01*
X185350286Y-96534242D01*
X185346944Y-96534257D01*
X179937451Y-96485005D01*
X179870594Y-96464711D01*
X179850899Y-96448691D01*
X179839908Y-96437700D01*
X179839904Y-96437697D01*
X179684234Y-96333681D01*
X179684224Y-96333676D01*
X179654906Y-96321532D01*
X179600502Y-96277690D01*
X179578438Y-96211396D01*
X179595718Y-96143697D01*
X179602042Y-96134085D01*
X179669356Y-96041436D01*
X179759542Y-95864437D01*
X179820924Y-95675523D01*
X179820924Y-95675520D01*
X179852000Y-95479321D01*
X179852000Y-95397882D01*
X198085669Y-95397882D01*
X198085670Y-95397883D01*
X198111059Y-95416329D01*
X198279362Y-95502085D01*
X198458997Y-95560451D01*
X198645553Y-95590000D01*
X198834447Y-95590000D01*
X199021002Y-95560451D01*
X199200637Y-95502085D01*
X199368937Y-95416331D01*
X199394328Y-95397883D01*
X199394328Y-95397882D01*
X198740001Y-94743554D01*
X198740000Y-94743554D01*
X198085669Y-95397882D01*
X179852000Y-95397882D01*
X179852000Y-95280678D01*
X179820924Y-95084479D01*
X179820924Y-95084476D01*
X179759542Y-94895562D01*
X179669358Y-94718567D01*
X179642268Y-94681283D01*
X178971000Y-95352553D01*
X178971000Y-95329840D01*
X178945036Y-95232939D01*
X178894876Y-95146060D01*
X178823940Y-95075124D01*
X178737061Y-95024964D01*
X178640160Y-94999000D01*
X178617447Y-94999000D01*
X179288715Y-94327731D01*
X179288715Y-94327730D01*
X179251432Y-94300641D01*
X179241444Y-94295552D01*
X197540000Y-94295552D01*
X197540000Y-94484447D01*
X197569548Y-94671002D01*
X197627914Y-94850637D01*
X197713666Y-95018933D01*
X197732116Y-95044328D01*
X198386446Y-94390000D01*
X198386446Y-94389999D01*
X198340369Y-94343922D01*
X198390000Y-94343922D01*
X198390000Y-94436078D01*
X198413852Y-94525095D01*
X198459930Y-94604905D01*
X198525095Y-94670070D01*
X198604905Y-94716148D01*
X198693922Y-94740000D01*
X198786078Y-94740000D01*
X198875095Y-94716148D01*
X198954905Y-94670070D01*
X199020070Y-94604905D01*
X199066148Y-94525095D01*
X199090000Y-94436078D01*
X199090000Y-94389999D01*
X199093554Y-94389999D01*
X199093554Y-94390000D01*
X199747882Y-95044328D01*
X199747883Y-95044328D01*
X199766331Y-95018937D01*
X199852085Y-94850637D01*
X199910451Y-94671002D01*
X199940000Y-94484447D01*
X199940000Y-94295552D01*
X199910451Y-94108997D01*
X199852085Y-93929362D01*
X199766329Y-93761059D01*
X199747883Y-93735670D01*
X199747882Y-93735669D01*
X199093554Y-94389999D01*
X199090000Y-94389999D01*
X199090000Y-94343922D01*
X199066148Y-94254905D01*
X199020070Y-94175095D01*
X198954905Y-94109930D01*
X198875095Y-94063852D01*
X198786078Y-94040000D01*
X198693922Y-94040000D01*
X198604905Y-94063852D01*
X198525095Y-94109930D01*
X198459930Y-94175095D01*
X198413852Y-94254905D01*
X198390000Y-94343922D01*
X198340369Y-94343922D01*
X197732116Y-93735669D01*
X197732116Y-93735670D01*
X197713669Y-93761060D01*
X197627914Y-93929362D01*
X197569548Y-94108997D01*
X197540000Y-94295552D01*
X179241444Y-94295552D01*
X179094668Y-94220765D01*
X179043872Y-94172790D01*
X179027077Y-94104969D01*
X179049615Y-94038834D01*
X179094667Y-93999796D01*
X179251694Y-93919787D01*
X179412464Y-93802981D01*
X179552981Y-93662464D01*
X179669787Y-93501694D01*
X179730715Y-93382116D01*
X198085669Y-93382116D01*
X198740000Y-94036446D01*
X198740001Y-94036446D01*
X199394328Y-93382116D01*
X199368933Y-93363666D01*
X199200637Y-93277914D01*
X199021002Y-93219548D01*
X198834447Y-93190000D01*
X198645553Y-93190000D01*
X198458997Y-93219548D01*
X198279362Y-93277914D01*
X198111060Y-93363669D01*
X198085670Y-93382116D01*
X198085669Y-93382116D01*
X179730715Y-93382116D01*
X179760005Y-93324632D01*
X179821413Y-93135636D01*
X179852500Y-92939361D01*
X179852500Y-92740639D01*
X179821413Y-92544364D01*
X179760005Y-92355368D01*
X179760005Y-92355367D01*
X179669786Y-92178305D01*
X179655210Y-92158243D01*
X179552981Y-92017536D01*
X179412464Y-91877019D01*
X179251694Y-91760213D01*
X179095218Y-91680484D01*
X179044423Y-91632510D01*
X179027628Y-91564689D01*
X179050165Y-91498554D01*
X179095218Y-91459515D01*
X179251694Y-91379787D01*
X179412464Y-91262981D01*
X179552981Y-91122464D01*
X179669787Y-90961694D01*
X179760005Y-90784632D01*
X179821413Y-90595636D01*
X179852500Y-90399361D01*
X179852500Y-90200639D01*
X179821413Y-90004364D01*
X179760005Y-89815368D01*
X179760005Y-89815367D01*
X179669786Y-89638305D01*
X179635503Y-89591118D01*
X179552981Y-89477536D01*
X179412464Y-89337019D01*
X179251694Y-89220213D01*
X179242470Y-89215513D01*
X197539500Y-89215513D01*
X197539500Y-89404486D01*
X197569059Y-89591118D01*
X197627454Y-89770836D01*
X197713240Y-89939199D01*
X197824310Y-90092073D01*
X197957927Y-90225690D01*
X198110801Y-90336760D01*
X198190347Y-90377290D01*
X198279163Y-90422545D01*
X198279165Y-90422545D01*
X198279168Y-90422547D01*
X198375497Y-90453846D01*
X198458881Y-90480940D01*
X198645514Y-90510500D01*
X198645519Y-90510500D01*
X198834486Y-90510500D01*
X199021118Y-90480940D01*
X199200832Y-90422547D01*
X199369199Y-90336760D01*
X199522073Y-90225690D01*
X199655690Y-90092073D01*
X199766760Y-89939199D01*
X199852547Y-89770832D01*
X199910940Y-89591118D01*
X199940500Y-89404486D01*
X199940500Y-89215513D01*
X199910940Y-89028881D01*
X199852545Y-88849163D01*
X199807290Y-88760347D01*
X199766760Y-88680801D01*
X199655690Y-88527927D01*
X199522073Y-88394310D01*
X199369199Y-88283240D01*
X199345408Y-88271118D01*
X199200836Y-88197454D01*
X199021118Y-88139059D01*
X198834486Y-88109500D01*
X198834481Y-88109500D01*
X198645519Y-88109500D01*
X198645514Y-88109500D01*
X198458881Y-88139059D01*
X198279163Y-88197454D01*
X198110800Y-88283240D01*
X198026462Y-88344516D01*
X197957927Y-88394310D01*
X197957925Y-88394312D01*
X197957924Y-88394312D01*
X197824312Y-88527924D01*
X197824312Y-88527925D01*
X197824310Y-88527927D01*
X197784686Y-88582464D01*
X197713240Y-88680800D01*
X197627454Y-88849163D01*
X197569059Y-89028881D01*
X197539500Y-89215513D01*
X179242470Y-89215513D01*
X179095218Y-89140484D01*
X179044423Y-89092510D01*
X179027628Y-89024689D01*
X179050165Y-88958554D01*
X179095218Y-88919515D01*
X179251694Y-88839787D01*
X179412464Y-88722981D01*
X179552981Y-88582464D01*
X179669787Y-88421694D01*
X179760005Y-88244632D01*
X179821413Y-88055636D01*
X179846774Y-87895513D01*
X205329500Y-87895513D01*
X205329500Y-88084486D01*
X205359059Y-88271118D01*
X205417454Y-88450836D01*
X205503240Y-88619199D01*
X205614310Y-88772073D01*
X205747927Y-88905690D01*
X205900801Y-89016760D01*
X205937210Y-89035311D01*
X206069163Y-89102545D01*
X206069165Y-89102545D01*
X206069168Y-89102547D01*
X206153644Y-89129995D01*
X206248881Y-89160940D01*
X206435514Y-89190500D01*
X206435519Y-89190500D01*
X206624486Y-89190500D01*
X206811118Y-89160940D01*
X206990832Y-89102547D01*
X207159199Y-89016760D01*
X207312073Y-88905690D01*
X207445690Y-88772073D01*
X207556760Y-88619199D01*
X207642547Y-88450832D01*
X207700940Y-88271118D01*
X207705135Y-88244632D01*
X207730500Y-88084486D01*
X207730500Y-87895513D01*
X207700940Y-87708881D01*
X207642545Y-87529163D01*
X207556759Y-87360800D01*
X207445690Y-87207927D01*
X207312073Y-87074310D01*
X207159199Y-86963240D01*
X206990836Y-86877454D01*
X206811118Y-86819059D01*
X206624486Y-86789500D01*
X206624481Y-86789500D01*
X206435519Y-86789500D01*
X206435514Y-86789500D01*
X206248881Y-86819059D01*
X206069163Y-86877454D01*
X205900800Y-86963240D01*
X205860755Y-86992335D01*
X205747927Y-87074310D01*
X205747925Y-87074312D01*
X205747924Y-87074312D01*
X205614312Y-87207924D01*
X205614312Y-87207925D01*
X205614310Y-87207927D01*
X205583379Y-87250500D01*
X205503240Y-87360800D01*
X205417454Y-87529163D01*
X205359059Y-87708881D01*
X205329500Y-87895513D01*
X179846774Y-87895513D01*
X179852500Y-87859361D01*
X179852500Y-87660639D01*
X179821413Y-87464364D01*
X179760005Y-87275368D01*
X179760005Y-87275367D01*
X179714035Y-87185149D01*
X179669787Y-87098306D01*
X179552981Y-86937536D01*
X179412464Y-86797019D01*
X179251694Y-86680213D01*
X179095218Y-86600484D01*
X179044423Y-86552510D01*
X179027628Y-86484689D01*
X179050165Y-86418554D01*
X179095218Y-86379515D01*
X179251694Y-86299787D01*
X179412464Y-86182981D01*
X179552981Y-86042464D01*
X179669787Y-85881694D01*
X179760005Y-85704632D01*
X179821413Y-85515636D01*
X179852500Y-85319361D01*
X179852500Y-85120639D01*
X179821413Y-84924364D01*
X179760005Y-84735368D01*
X179760005Y-84735367D01*
X179669786Y-84558305D01*
X179631934Y-84506206D01*
X179552981Y-84397536D01*
X179412464Y-84257019D01*
X179251694Y-84140213D01*
X179094667Y-84060203D01*
X179043872Y-84012229D01*
X179027077Y-83944408D01*
X179049614Y-83878273D01*
X179094669Y-83839234D01*
X179251422Y-83759364D01*
X179288716Y-83732268D01*
X178617448Y-83061000D01*
X178640160Y-83061000D01*
X178737061Y-83035036D01*
X178823940Y-82984876D01*
X178894876Y-82913940D01*
X178945036Y-82827061D01*
X178971000Y-82730160D01*
X178971000Y-82707447D01*
X179642268Y-83378715D01*
X179669362Y-83341425D01*
X179741534Y-83199778D01*
X197339500Y-83199778D01*
X197339500Y-83420221D01*
X197373985Y-83637952D01*
X197442103Y-83847603D01*
X197442104Y-83847606D01*
X197491572Y-83944689D01*
X197525985Y-84012229D01*
X197542187Y-84044025D01*
X197671752Y-84222358D01*
X197671756Y-84222363D01*
X197721928Y-84272535D01*
X197755413Y-84333858D01*
X197750429Y-84403550D01*
X197708557Y-84459483D01*
X197677581Y-84476398D01*
X197597669Y-84506203D01*
X197597664Y-84506206D01*
X197482455Y-84592452D01*
X197482452Y-84592455D01*
X197396206Y-84707664D01*
X197396202Y-84707671D01*
X197345908Y-84842517D01*
X197339501Y-84902116D01*
X197339501Y-84902123D01*
X197339500Y-84902135D01*
X197339500Y-86797870D01*
X197339501Y-86797876D01*
X197345908Y-86857483D01*
X197396202Y-86992328D01*
X197396206Y-86992335D01*
X197482452Y-87107544D01*
X197482455Y-87107547D01*
X197597664Y-87193793D01*
X197597671Y-87193797D01*
X197732517Y-87244091D01*
X197732516Y-87244091D01*
X197739444Y-87244835D01*
X197792127Y-87250500D01*
X199687872Y-87250499D01*
X199747483Y-87244091D01*
X199882331Y-87193796D01*
X199997546Y-87107546D01*
X200083796Y-86992331D01*
X200134091Y-86857483D01*
X200140500Y-86797873D01*
X200140499Y-84902128D01*
X200134091Y-84842517D01*
X200083796Y-84707669D01*
X200083795Y-84707668D01*
X200083793Y-84707664D01*
X199997547Y-84592455D01*
X199997544Y-84592452D01*
X199882335Y-84506206D01*
X199882328Y-84506202D01*
X199802419Y-84476398D01*
X199746485Y-84434527D01*
X199722068Y-84369062D01*
X199736920Y-84300789D01*
X199758069Y-84272537D01*
X199808242Y-84222365D01*
X199937815Y-84044022D01*
X200037895Y-83847606D01*
X200106015Y-83637951D01*
X200140500Y-83420222D01*
X200140500Y-83199778D01*
X200106015Y-82982049D01*
X200051905Y-82815513D01*
X205329500Y-82815513D01*
X205329500Y-83004486D01*
X205359059Y-83191118D01*
X205417454Y-83370836D01*
X205503240Y-83539199D01*
X205614310Y-83692073D01*
X205747927Y-83825690D01*
X205900801Y-83936760D01*
X205937210Y-83955311D01*
X206069163Y-84022545D01*
X206069165Y-84022545D01*
X206069168Y-84022547D01*
X206135261Y-84044022D01*
X206248881Y-84080940D01*
X206435514Y-84110500D01*
X206435519Y-84110500D01*
X206624486Y-84110500D01*
X206811118Y-84080940D01*
X206990832Y-84022547D01*
X207159199Y-83936760D01*
X207312073Y-83825690D01*
X207445690Y-83692073D01*
X207556760Y-83539199D01*
X207642547Y-83370832D01*
X207700940Y-83191118D01*
X207705135Y-83164632D01*
X207730500Y-83004486D01*
X207730500Y-82815513D01*
X207700940Y-82628881D01*
X207669766Y-82532939D01*
X207642547Y-82449168D01*
X207642545Y-82449165D01*
X207642545Y-82449163D01*
X207577540Y-82321585D01*
X207556760Y-82280801D01*
X207445690Y-82127927D01*
X207312073Y-81994310D01*
X207159199Y-81883240D01*
X206990836Y-81797454D01*
X206811118Y-81739059D01*
X206624486Y-81709500D01*
X206624481Y-81709500D01*
X206435519Y-81709500D01*
X206435514Y-81709500D01*
X206248881Y-81739059D01*
X206069163Y-81797454D01*
X205900800Y-81883240D01*
X205864657Y-81909500D01*
X205747927Y-81994310D01*
X205747925Y-81994312D01*
X205747924Y-81994312D01*
X205614312Y-82127924D01*
X205614312Y-82127925D01*
X205614310Y-82127927D01*
X205566610Y-82193579D01*
X205503240Y-82280800D01*
X205417454Y-82449163D01*
X205359059Y-82628881D01*
X205329500Y-82815513D01*
X200051905Y-82815513D01*
X200040159Y-82779361D01*
X200037897Y-82772399D01*
X200037895Y-82772393D01*
X199964771Y-82628882D01*
X199937815Y-82575978D01*
X199899877Y-82523760D01*
X199808247Y-82397641D01*
X199808243Y-82397636D01*
X199652363Y-82241756D01*
X199652358Y-82241752D01*
X199474025Y-82112187D01*
X199474024Y-82112186D01*
X199474022Y-82112185D01*
X199411096Y-82080122D01*
X199277606Y-82012104D01*
X199277603Y-82012103D01*
X199067952Y-81943985D01*
X198959086Y-81926742D01*
X198850222Y-81909500D01*
X198629778Y-81909500D01*
X198557201Y-81920995D01*
X198412047Y-81943985D01*
X198202396Y-82012103D01*
X198202393Y-82012104D01*
X198005974Y-82112187D01*
X197827641Y-82241752D01*
X197827636Y-82241756D01*
X197671756Y-82397636D01*
X197671752Y-82397641D01*
X197542187Y-82575974D01*
X197442104Y-82772393D01*
X197442103Y-82772396D01*
X197373985Y-82982047D01*
X197339500Y-83199778D01*
X179741534Y-83199778D01*
X179759541Y-83164438D01*
X179762093Y-83156587D01*
X179762093Y-83156586D01*
X179820924Y-82975523D01*
X179820924Y-82975520D01*
X179852000Y-82779321D01*
X179852000Y-82580678D01*
X179820924Y-82384479D01*
X179820924Y-82384476D01*
X179759542Y-82195562D01*
X179669358Y-82018567D01*
X179642268Y-81981283D01*
X178971000Y-82652551D01*
X178971000Y-82629840D01*
X178945036Y-82532939D01*
X178894876Y-82446060D01*
X178823940Y-82375124D01*
X178737061Y-82324964D01*
X178640160Y-82299000D01*
X178617447Y-82299000D01*
X179288716Y-81627731D01*
X179288715Y-81627730D01*
X179251432Y-81600641D01*
X179094668Y-81520765D01*
X179043872Y-81472790D01*
X179027077Y-81404969D01*
X179049615Y-81338834D01*
X179094667Y-81299796D01*
X179251694Y-81219787D01*
X179412464Y-81102981D01*
X179552981Y-80962464D01*
X179669787Y-80801694D01*
X179760005Y-80624632D01*
X179821413Y-80435636D01*
X179852500Y-80239361D01*
X179852500Y-80040639D01*
X179821413Y-79844364D01*
X179785307Y-79733239D01*
X179760006Y-79655370D01*
X179760005Y-79655367D01*
X179691620Y-79521155D01*
X179669787Y-79478306D01*
X179552981Y-79317536D01*
X179412464Y-79177019D01*
X179251694Y-79060213D01*
X179095218Y-78980484D01*
X179044423Y-78932510D01*
X179027628Y-78864689D01*
X179050165Y-78798554D01*
X179095218Y-78759515D01*
X179251694Y-78679787D01*
X179412464Y-78562981D01*
X179552981Y-78422464D01*
X179669787Y-78261694D01*
X179760005Y-78084632D01*
X179821413Y-77895636D01*
X179852500Y-77699361D01*
X179852500Y-77500639D01*
X179821413Y-77304364D01*
X179760005Y-77115368D01*
X179760005Y-77115367D01*
X179669786Y-76938305D01*
X179586767Y-76824038D01*
X194289500Y-76824038D01*
X194289500Y-78375961D01*
X194328910Y-78624785D01*
X194406760Y-78864383D01*
X194464759Y-78978211D01*
X194506541Y-79060213D01*
X194521132Y-79088848D01*
X194669201Y-79292649D01*
X194669205Y-79292654D01*
X194847345Y-79470794D01*
X194847350Y-79470798D01*
X194917615Y-79521848D01*
X195051155Y-79618870D01*
X195168857Y-79678842D01*
X195275616Y-79733239D01*
X195275618Y-79733239D01*
X195275621Y-79733241D01*
X195515215Y-79811090D01*
X195764038Y-79850500D01*
X195764039Y-79850500D01*
X196015961Y-79850500D01*
X196015962Y-79850500D01*
X196264785Y-79811090D01*
X196504379Y-79733241D01*
X196728845Y-79618870D01*
X196932656Y-79470793D01*
X197110793Y-79292656D01*
X197174598Y-79204835D01*
X197229924Y-79162172D01*
X197299537Y-79156191D01*
X197331209Y-79167237D01*
X197510162Y-79258418D01*
X197697283Y-79319218D01*
X197740000Y-79325984D01*
X197740000Y-77915686D01*
X197744394Y-77920080D01*
X197835606Y-77972741D01*
X197937339Y-78000000D01*
X198042661Y-78000000D01*
X198144394Y-77972741D01*
X198235606Y-77920080D01*
X198240000Y-77915686D01*
X198240000Y-79325983D01*
X198282716Y-79319218D01*
X198469837Y-79258418D01*
X198645143Y-79169095D01*
X198804321Y-79053444D01*
X198804322Y-79053443D01*
X198901965Y-78955801D01*
X198963288Y-78922316D01*
X199032980Y-78927300D01*
X199077327Y-78955801D01*
X199175354Y-79053828D01*
X199334595Y-79169524D01*
X199403903Y-79204838D01*
X199509970Y-79258882D01*
X199509972Y-79258882D01*
X199509975Y-79258884D01*
X199610317Y-79291487D01*
X199697173Y-79319709D01*
X199891578Y-79350500D01*
X199891583Y-79350500D01*
X200088422Y-79350500D01*
X200282826Y-79319709D01*
X200362574Y-79293797D01*
X200470025Y-79258884D01*
X200645405Y-79169524D01*
X200681614Y-79143215D01*
X200747417Y-79119736D01*
X200815471Y-79135560D01*
X200853763Y-79169220D01*
X200882454Y-79207546D01*
X200882455Y-79207546D01*
X200882456Y-79207548D01*
X200997664Y-79293793D01*
X200997671Y-79293797D01*
X201132517Y-79344091D01*
X201132516Y-79344091D01*
X201139444Y-79344835D01*
X201192127Y-79350500D01*
X202787872Y-79350499D01*
X202847483Y-79344091D01*
X202847486Y-79344089D01*
X202854554Y-79343330D01*
X202923314Y-79355736D01*
X202955490Y-79378939D01*
X203047345Y-79470794D01*
X203047350Y-79470798D01*
X203117615Y-79521848D01*
X203251155Y-79618870D01*
X203368857Y-79678842D01*
X203475616Y-79733239D01*
X203475618Y-79733239D01*
X203475621Y-79733241D01*
X203715215Y-79811090D01*
X203964038Y-79850500D01*
X203964039Y-79850500D01*
X204215961Y-79850500D01*
X204215962Y-79850500D01*
X204464785Y-79811090D01*
X204704379Y-79733241D01*
X204928845Y-79618870D01*
X205132656Y-79470793D01*
X205310793Y-79292656D01*
X205458870Y-79088845D01*
X205573241Y-78864379D01*
X205651090Y-78624785D01*
X205690500Y-78375962D01*
X205690500Y-76824038D01*
X205651090Y-76575215D01*
X205573241Y-76335621D01*
X205573239Y-76335618D01*
X205573239Y-76335616D01*
X205531747Y-76254184D01*
X205458870Y-76111155D01*
X205401914Y-76032762D01*
X205310798Y-75907350D01*
X205310794Y-75907345D01*
X205132654Y-75729205D01*
X205132649Y-75729201D01*
X204928848Y-75581132D01*
X204928847Y-75581131D01*
X204928845Y-75581130D01*
X204840749Y-75536243D01*
X204704383Y-75466760D01*
X204464785Y-75388910D01*
X204215962Y-75349500D01*
X203964038Y-75349500D01*
X203839626Y-75369205D01*
X203715214Y-75388910D01*
X203475616Y-75466760D01*
X203251151Y-75581132D01*
X203047350Y-75729200D01*
X202955487Y-75821062D01*
X202894163Y-75854546D01*
X202854553Y-75856669D01*
X202845522Y-75855698D01*
X202787873Y-75849500D01*
X202787865Y-75849500D01*
X201192129Y-75849500D01*
X201192123Y-75849501D01*
X201132516Y-75855908D01*
X200997671Y-75906202D01*
X200997664Y-75906206D01*
X200882455Y-75992452D01*
X200853765Y-76030777D01*
X200797830Y-76072648D01*
X200728139Y-76077631D01*
X200681613Y-76056783D01*
X200645405Y-76030476D01*
X200470029Y-75941117D01*
X200282826Y-75880290D01*
X200088422Y-75849500D01*
X200088417Y-75849500D01*
X199891583Y-75849500D01*
X199891578Y-75849500D01*
X199697173Y-75880290D01*
X199509970Y-75941117D01*
X199334594Y-76030476D01*
X199269692Y-76077631D01*
X199175354Y-76146172D01*
X199175352Y-76146174D01*
X199175350Y-76146175D01*
X199077325Y-76244199D01*
X199016002Y-76277683D01*
X198946310Y-76272698D01*
X198901964Y-76244198D01*
X198804321Y-76146555D01*
X198645143Y-76030904D01*
X198469835Y-75941581D01*
X198282705Y-75880778D01*
X198240000Y-75874014D01*
X198240000Y-77284314D01*
X198235606Y-77279920D01*
X198144394Y-77227259D01*
X198042661Y-77200000D01*
X197937339Y-77200000D01*
X197835606Y-77227259D01*
X197744394Y-77279920D01*
X197740000Y-77284314D01*
X197740000Y-75874014D01*
X197739999Y-75874014D01*
X197697294Y-75880778D01*
X197510161Y-75941582D01*
X197331209Y-76032762D01*
X197262540Y-76045658D01*
X197197800Y-76019381D01*
X197174597Y-75995162D01*
X197110798Y-75907350D01*
X197110794Y-75907345D01*
X196932654Y-75729205D01*
X196932649Y-75729201D01*
X196728848Y-75581132D01*
X196728847Y-75581131D01*
X196728845Y-75581130D01*
X196640749Y-75536243D01*
X196504383Y-75466760D01*
X196264785Y-75388910D01*
X196015962Y-75349500D01*
X195764038Y-75349500D01*
X195639626Y-75369205D01*
X195515214Y-75388910D01*
X195275616Y-75466760D01*
X195051151Y-75581132D01*
X194847350Y-75729201D01*
X194847345Y-75729205D01*
X194669205Y-75907345D01*
X194669201Y-75907350D01*
X194521132Y-76111151D01*
X194406760Y-76335616D01*
X194328910Y-76575214D01*
X194289500Y-76824038D01*
X179586767Y-76824038D01*
X179552981Y-76777536D01*
X179412464Y-76637019D01*
X179251694Y-76520213D01*
X179228594Y-76508443D01*
X179074632Y-76429994D01*
X179074629Y-76429993D01*
X178885637Y-76368587D01*
X178787498Y-76353043D01*
X178689361Y-76337500D01*
X178490639Y-76337500D01*
X178425214Y-76347862D01*
X178294362Y-76368587D01*
X178105370Y-76429993D01*
X178105367Y-76429994D01*
X177928305Y-76520213D01*
X177767533Y-76637021D01*
X177627021Y-76777533D01*
X177510213Y-76938305D01*
X177419994Y-77115367D01*
X177419993Y-77115370D01*
X177358587Y-77304362D01*
X177327500Y-77500639D01*
X164852500Y-77500639D01*
X164821413Y-77304364D01*
X164760005Y-77115368D01*
X164760005Y-77115367D01*
X164669786Y-76938305D01*
X164552981Y-76777536D01*
X164412464Y-76637019D01*
X164251694Y-76520213D01*
X164228594Y-76508443D01*
X164074632Y-76429994D01*
X164074629Y-76429993D01*
X163885637Y-76368587D01*
X163787498Y-76353043D01*
X163689361Y-76337500D01*
X163490639Y-76337500D01*
X163425214Y-76347862D01*
X163294362Y-76368587D01*
X163105370Y-76429993D01*
X163105367Y-76429994D01*
X162928305Y-76520213D01*
X162767533Y-76637021D01*
X162627021Y-76777533D01*
X162510213Y-76938305D01*
X162419994Y-77115367D01*
X162419993Y-77115370D01*
X162358587Y-77304362D01*
X162327500Y-77500639D01*
X148416255Y-77500639D01*
X148407246Y-77443757D01*
X148341557Y-77241588D01*
X148245051Y-77052184D01*
X148245049Y-77052181D01*
X148245048Y-77052179D01*
X148120109Y-76880213D01*
X147969786Y-76729890D01*
X147797820Y-76604951D01*
X147797115Y-76604591D01*
X147789054Y-76600485D01*
X147738259Y-76552512D01*
X147721463Y-76484692D01*
X147743999Y-76418556D01*
X147789054Y-76379515D01*
X147797816Y-76375051D01*
X147852094Y-76335616D01*
X147969786Y-76250109D01*
X147969788Y-76250106D01*
X147969792Y-76250104D01*
X148120104Y-76099792D01*
X148120106Y-76099788D01*
X148120109Y-76099786D01*
X148245048Y-75927820D01*
X148245047Y-75927820D01*
X148245051Y-75927816D01*
X148341557Y-75738412D01*
X148407246Y-75536243D01*
X148440500Y-75326287D01*
X148440500Y-75113713D01*
X148407246Y-74903757D01*
X148341557Y-74701588D01*
X148245051Y-74512184D01*
X148245049Y-74512181D01*
X148245048Y-74512179D01*
X148120109Y-74340213D01*
X148002275Y-74222379D01*
X184925500Y-74222379D01*
X184925500Y-74409620D01*
X184962025Y-74593243D01*
X184962027Y-74593251D01*
X185033676Y-74766228D01*
X185033681Y-74766237D01*
X185137697Y-74921907D01*
X185137700Y-74921911D01*
X185270088Y-75054299D01*
X185270092Y-75054302D01*
X185425762Y-75158318D01*
X185425768Y-75158321D01*
X185425769Y-75158322D01*
X185598749Y-75229973D01*
X185782379Y-75266499D01*
X185782383Y-75266500D01*
X185782384Y-75266500D01*
X185969617Y-75266500D01*
X185969618Y-75266499D01*
X186153251Y-75229973D01*
X186326231Y-75158322D01*
X186432376Y-75087397D01*
X186499053Y-75066520D01*
X186501267Y-75066500D01*
X189695733Y-75066500D01*
X189762772Y-75086185D01*
X189764623Y-75087397D01*
X189870769Y-75158322D01*
X190043749Y-75229973D01*
X190227379Y-75266499D01*
X190227383Y-75266500D01*
X190227384Y-75266500D01*
X190414617Y-75266500D01*
X190414618Y-75266499D01*
X190598251Y-75229973D01*
X190771231Y-75158322D01*
X190926908Y-75054302D01*
X191059302Y-74921908D01*
X191163322Y-74766231D01*
X191234973Y-74593251D01*
X191271500Y-74409616D01*
X191271500Y-74222384D01*
X191234973Y-74038749D01*
X191163322Y-73865769D01*
X191163321Y-73865768D01*
X191163318Y-73865762D01*
X191059302Y-73710092D01*
X191059299Y-73710088D01*
X190926911Y-73577700D01*
X190926907Y-73577697D01*
X190771237Y-73473681D01*
X190771228Y-73473676D01*
X190598251Y-73402027D01*
X190598243Y-73402025D01*
X190414620Y-73365500D01*
X190414616Y-73365500D01*
X190227384Y-73365500D01*
X190227379Y-73365500D01*
X190043756Y-73402025D01*
X190043748Y-73402027D01*
X189870771Y-73473676D01*
X189870763Y-73473681D01*
X189764624Y-73544602D01*
X189697947Y-73565480D01*
X189695733Y-73565500D01*
X186501267Y-73565500D01*
X186434228Y-73545815D01*
X186432376Y-73544602D01*
X186326236Y-73473681D01*
X186326228Y-73473676D01*
X186153251Y-73402027D01*
X186153243Y-73402025D01*
X185969620Y-73365500D01*
X185969616Y-73365500D01*
X185782384Y-73365500D01*
X185782379Y-73365500D01*
X185598756Y-73402025D01*
X185598748Y-73402027D01*
X185425771Y-73473676D01*
X185425762Y-73473681D01*
X185270092Y-73577697D01*
X185270088Y-73577700D01*
X185137700Y-73710088D01*
X185137697Y-73710092D01*
X185033681Y-73865762D01*
X185033676Y-73865771D01*
X184962027Y-74038748D01*
X184962025Y-74038756D01*
X184925500Y-74222379D01*
X148002275Y-74222379D01*
X147969786Y-74189890D01*
X147797820Y-74064951D01*
X147797115Y-74064591D01*
X147789054Y-74060485D01*
X147738259Y-74012512D01*
X147721463Y-73944692D01*
X147743999Y-73878556D01*
X147789054Y-73839515D01*
X147797816Y-73835051D01*
X147819789Y-73819086D01*
X147969786Y-73710109D01*
X147969788Y-73710106D01*
X147969792Y-73710104D01*
X148120104Y-73559792D01*
X148120106Y-73559788D01*
X148120109Y-73559786D01*
X148245048Y-73387820D01*
X148245047Y-73387820D01*
X148245051Y-73387816D01*
X148341557Y-73198412D01*
X148407246Y-72996243D01*
X148440500Y-72786287D01*
X148440500Y-72573713D01*
X148407246Y-72363757D01*
X148341557Y-72161588D01*
X148245051Y-71972184D01*
X148245049Y-71972181D01*
X148245048Y-71972179D01*
X148120109Y-71800213D01*
X147969790Y-71649894D01*
X147969785Y-71649890D01*
X147896831Y-71596886D01*
X147896795Y-71596861D01*
X147797816Y-71524949D01*
X147781489Y-71516630D01*
X147774526Y-71511785D01*
X147757735Y-71490906D01*
X147738259Y-71472512D01*
X147736174Y-71464094D01*
X147730740Y-71457337D01*
X147727903Y-71430697D01*
X147721463Y-71404692D01*
X147724260Y-71396483D01*
X147723342Y-71387860D01*
X147735357Y-71363915D01*
X147743999Y-71338556D01*
X147751226Y-71332293D01*
X147754679Y-71325413D01*
X147768843Y-71317027D01*
X147789054Y-71299515D01*
X147797816Y-71295051D01*
X147864716Y-71246446D01*
X147969786Y-71170109D01*
X147969788Y-71170106D01*
X147969792Y-71170104D01*
X148120104Y-71019792D01*
X148120106Y-71019788D01*
X148120109Y-71019786D01*
X148245048Y-70847820D01*
X148245047Y-70847820D01*
X148245051Y-70847816D01*
X148341557Y-70658412D01*
X148407246Y-70456243D01*
X148440500Y-70246287D01*
X148440500Y-70033713D01*
X148407246Y-69823757D01*
X148341557Y-69621588D01*
X148245051Y-69432184D01*
X148245049Y-69432181D01*
X148245048Y-69432179D01*
X148120109Y-69260213D01*
X147969786Y-69109890D01*
X147797817Y-68984949D01*
X147788504Y-68980204D01*
X147737707Y-68932230D01*
X147720912Y-68864409D01*
X147743449Y-68798274D01*
X147788507Y-68759232D01*
X147797555Y-68754622D01*
X147851716Y-68715270D01*
X147851717Y-68715270D01*
X147517599Y-68381153D01*
X156289500Y-68381153D01*
X156289500Y-68538846D01*
X156320261Y-68693489D01*
X156320264Y-68693501D01*
X156380602Y-68839172D01*
X156380609Y-68839185D01*
X156468602Y-68970874D01*
X156474252Y-68988920D01*
X156484477Y-69004830D01*
X156488928Y-69035789D01*
X156489480Y-69037551D01*
X156489500Y-69039765D01*
X156489500Y-69080234D01*
X156469815Y-69147273D01*
X156468602Y-69149125D01*
X156380609Y-69280814D01*
X156380602Y-69280827D01*
X156320264Y-69426498D01*
X156320261Y-69426510D01*
X156289500Y-69581153D01*
X156289500Y-69738846D01*
X156320261Y-69893489D01*
X156320264Y-69893501D01*
X156380602Y-70039172D01*
X156380609Y-70039185D01*
X156468210Y-70170288D01*
X156468213Y-70170292D01*
X156579707Y-70281786D01*
X156579711Y-70281789D01*
X156710814Y-70369390D01*
X156710827Y-70369397D01*
X156856498Y-70429735D01*
X156856503Y-70429737D01*
X156989737Y-70456239D01*
X157011153Y-70460499D01*
X157011156Y-70460500D01*
X157011158Y-70460500D01*
X157168844Y-70460500D01*
X157168845Y-70460499D01*
X157323497Y-70429737D01*
X157436166Y-70383067D01*
X157469172Y-70369397D01*
X157469172Y-70369396D01*
X157469179Y-70369394D01*
X157600289Y-70281789D01*
X157711789Y-70170289D01*
X157799394Y-70039179D01*
X157859737Y-69893497D01*
X157890500Y-69738842D01*
X157890500Y-69581158D01*
X157890500Y-69581155D01*
X157890499Y-69581153D01*
X157859738Y-69426510D01*
X157859737Y-69426503D01*
X157830383Y-69355636D01*
X157799397Y-69280827D01*
X157799390Y-69280814D01*
X157711398Y-69149125D01*
X157705747Y-69131078D01*
X157695523Y-69115169D01*
X157691071Y-69084207D01*
X157690520Y-69082447D01*
X157690500Y-69080234D01*
X157690500Y-69039765D01*
X157710185Y-68972726D01*
X157711398Y-68970874D01*
X157799390Y-68839185D01*
X157799390Y-68839184D01*
X157799394Y-68839179D01*
X157859737Y-68693497D01*
X157890500Y-68538842D01*
X157890500Y-68381158D01*
X157890500Y-68381155D01*
X157890499Y-68381153D01*
X158789500Y-68381153D01*
X158789500Y-68538846D01*
X158820261Y-68693489D01*
X158820264Y-68693501D01*
X158880602Y-68839172D01*
X158880609Y-68839185D01*
X158968602Y-68970874D01*
X158974252Y-68988920D01*
X158984477Y-69004830D01*
X158988928Y-69035789D01*
X158989480Y-69037551D01*
X158989500Y-69039765D01*
X158989500Y-69080234D01*
X158969815Y-69147273D01*
X158968602Y-69149125D01*
X158880609Y-69280814D01*
X158880602Y-69280827D01*
X158820264Y-69426498D01*
X158820261Y-69426510D01*
X158789500Y-69581153D01*
X158789500Y-69738846D01*
X158820261Y-69893489D01*
X158820264Y-69893501D01*
X158880602Y-70039172D01*
X158880609Y-70039185D01*
X158968210Y-70170288D01*
X158968213Y-70170292D01*
X159079707Y-70281786D01*
X159079711Y-70281789D01*
X159210814Y-70369390D01*
X159210827Y-70369397D01*
X159356498Y-70429735D01*
X159356503Y-70429737D01*
X159489737Y-70456239D01*
X159511153Y-70460499D01*
X159511156Y-70460500D01*
X159511158Y-70460500D01*
X159668844Y-70460500D01*
X159668845Y-70460499D01*
X159823497Y-70429737D01*
X159936166Y-70383067D01*
X159969172Y-70369397D01*
X159969172Y-70369396D01*
X159969179Y-70369394D01*
X160100289Y-70281789D01*
X160211789Y-70170289D01*
X160299394Y-70039179D01*
X160359737Y-69893497D01*
X160390500Y-69738842D01*
X160390500Y-69581158D01*
X160390500Y-69581155D01*
X160390499Y-69581153D01*
X160359738Y-69426510D01*
X160359737Y-69426503D01*
X160330383Y-69355636D01*
X160299397Y-69280827D01*
X160299390Y-69280814D01*
X160211398Y-69149125D01*
X160205747Y-69131078D01*
X160195523Y-69115169D01*
X160191071Y-69084207D01*
X160190520Y-69082447D01*
X160190500Y-69080234D01*
X160190500Y-69039765D01*
X160210185Y-68972726D01*
X160211398Y-68970874D01*
X160299390Y-68839185D01*
X160299390Y-68839184D01*
X160299394Y-68839179D01*
X160359737Y-68693497D01*
X160390500Y-68538842D01*
X160390500Y-68381158D01*
X160390500Y-68381155D01*
X160390499Y-68381153D01*
X160375858Y-68307550D01*
X160359737Y-68226503D01*
X160314884Y-68118217D01*
X160299397Y-68080827D01*
X160299390Y-68080814D01*
X160211789Y-67949711D01*
X160211786Y-67949707D01*
X160100292Y-67838213D01*
X160100288Y-67838210D01*
X159969185Y-67750609D01*
X159969172Y-67750602D01*
X159823501Y-67690264D01*
X159823489Y-67690261D01*
X159668845Y-67659500D01*
X159668842Y-67659500D01*
X159511158Y-67659500D01*
X159511155Y-67659500D01*
X159356510Y-67690261D01*
X159356498Y-67690264D01*
X159210827Y-67750602D01*
X159210814Y-67750609D01*
X159079711Y-67838210D01*
X159079707Y-67838213D01*
X158968213Y-67949707D01*
X158968210Y-67949711D01*
X158880609Y-68080814D01*
X158880602Y-68080827D01*
X158820264Y-68226498D01*
X158820261Y-68226510D01*
X158789500Y-68381153D01*
X157890499Y-68381153D01*
X157875858Y-68307550D01*
X157859737Y-68226503D01*
X157814884Y-68118217D01*
X157799397Y-68080827D01*
X157799390Y-68080814D01*
X157711789Y-67949711D01*
X157711786Y-67949707D01*
X157600292Y-67838213D01*
X157600288Y-67838210D01*
X157469185Y-67750609D01*
X157469172Y-67750602D01*
X157323501Y-67690264D01*
X157323489Y-67690261D01*
X157168845Y-67659500D01*
X157168842Y-67659500D01*
X157011158Y-67659500D01*
X157011155Y-67659500D01*
X156856510Y-67690261D01*
X156856498Y-67690264D01*
X156710827Y-67750602D01*
X156710814Y-67750609D01*
X156579711Y-67838210D01*
X156579707Y-67838213D01*
X156468213Y-67949707D01*
X156468210Y-67949711D01*
X156380609Y-68080814D01*
X156380602Y-68080827D01*
X156320264Y-68226498D01*
X156320261Y-68226510D01*
X156289500Y-68381153D01*
X147517599Y-68381153D01*
X147219408Y-68082962D01*
X147282993Y-68065925D01*
X147397007Y-68000099D01*
X147490099Y-67907007D01*
X147555925Y-67792993D01*
X147572962Y-67729408D01*
X148205270Y-68361717D01*
X148205270Y-68361716D01*
X148244622Y-68307554D01*
X148341095Y-68118217D01*
X148406757Y-67916130D01*
X148406757Y-67916127D01*
X148440000Y-67706246D01*
X148440000Y-67493753D01*
X148406757Y-67283872D01*
X148406757Y-67283869D01*
X148341095Y-67081782D01*
X148244624Y-66892449D01*
X148205270Y-66838282D01*
X148205269Y-66838282D01*
X147572962Y-67470590D01*
X147555925Y-67407007D01*
X147490099Y-67292993D01*
X147397007Y-67199901D01*
X147282993Y-67134075D01*
X147219409Y-67117037D01*
X147889627Y-66446818D01*
X147950950Y-66413333D01*
X147977307Y-66410499D01*
X147987872Y-66410499D01*
X148047483Y-66404091D01*
X148182331Y-66353796D01*
X148297546Y-66267546D01*
X148383796Y-66152331D01*
X148434091Y-66017483D01*
X148440500Y-65957873D01*
X148440499Y-65021153D01*
X155689500Y-65021153D01*
X155689500Y-65178846D01*
X155720261Y-65333489D01*
X155720264Y-65333501D01*
X155780602Y-65479172D01*
X155780609Y-65479185D01*
X155868210Y-65610288D01*
X155868213Y-65610292D01*
X155979707Y-65721786D01*
X155979711Y-65721789D01*
X156110814Y-65809390D01*
X156110827Y-65809397D01*
X156228906Y-65858306D01*
X156256503Y-65869737D01*
X156411153Y-65900499D01*
X156411156Y-65900500D01*
X156411158Y-65900500D01*
X156568844Y-65900500D01*
X156568845Y-65900499D01*
X156723497Y-65869737D01*
X156869179Y-65809394D01*
X156869185Y-65809390D01*
X157000875Y-65721398D01*
X157018921Y-65715747D01*
X157034831Y-65705523D01*
X157065792Y-65701071D01*
X157067553Y-65700520D01*
X157069766Y-65700500D01*
X157110234Y-65700500D01*
X157177273Y-65720185D01*
X157179125Y-65721398D01*
X157310814Y-65809390D01*
X157310827Y-65809397D01*
X157428906Y-65858306D01*
X157456503Y-65869737D01*
X157611153Y-65900499D01*
X157611156Y-65900500D01*
X157611158Y-65900500D01*
X157768844Y-65900500D01*
X157768845Y-65900499D01*
X157923497Y-65869737D01*
X158069179Y-65809394D01*
X158200289Y-65721789D01*
X158311789Y-65610289D01*
X158399394Y-65479179D01*
X158459737Y-65333497D01*
X158490500Y-65178842D01*
X158490500Y-65021158D01*
X158490500Y-65021155D01*
X158490499Y-65021153D01*
X158459737Y-64866503D01*
X158433212Y-64802466D01*
X158399397Y-64720827D01*
X158399390Y-64720814D01*
X158311789Y-64589711D01*
X158311786Y-64589707D01*
X158200292Y-64478213D01*
X158200288Y-64478210D01*
X158069185Y-64390609D01*
X158069172Y-64390602D01*
X157923501Y-64330264D01*
X157923489Y-64330261D01*
X157768845Y-64299500D01*
X157768842Y-64299500D01*
X157611158Y-64299500D01*
X157611155Y-64299500D01*
X157456510Y-64330261D01*
X157456498Y-64330264D01*
X157310827Y-64390602D01*
X157310814Y-64390609D01*
X157179125Y-64478602D01*
X157161078Y-64484252D01*
X157145169Y-64494477D01*
X157114207Y-64498928D01*
X157112447Y-64499480D01*
X157110234Y-64499500D01*
X157069766Y-64499500D01*
X157002727Y-64479815D01*
X157000875Y-64478602D01*
X156869185Y-64390609D01*
X156869172Y-64390602D01*
X156723501Y-64330264D01*
X156723489Y-64330261D01*
X156568845Y-64299500D01*
X156568842Y-64299500D01*
X156411158Y-64299500D01*
X156411155Y-64299500D01*
X156256510Y-64330261D01*
X156256498Y-64330264D01*
X156110827Y-64390602D01*
X156110814Y-64390609D01*
X155979711Y-64478210D01*
X155979707Y-64478213D01*
X155868213Y-64589707D01*
X155868210Y-64589711D01*
X155780609Y-64720814D01*
X155780602Y-64720827D01*
X155720264Y-64866498D01*
X155720261Y-64866510D01*
X155689500Y-65021153D01*
X148440499Y-65021153D01*
X148440499Y-64162128D01*
X148434091Y-64102517D01*
X148425454Y-64079361D01*
X148383797Y-63967671D01*
X148383793Y-63967664D01*
X148297547Y-63852455D01*
X148297544Y-63852452D01*
X148182335Y-63766206D01*
X148182328Y-63766202D01*
X148047482Y-63715908D01*
X148047483Y-63715908D01*
X147987883Y-63709501D01*
X147987881Y-63709500D01*
X147987873Y-63709500D01*
X147987864Y-63709500D01*
X146192129Y-63709500D01*
X146192123Y-63709501D01*
X146132516Y-63715908D01*
X145997671Y-63766202D01*
X145997664Y-63766206D01*
X145882455Y-63852452D01*
X145882452Y-63852455D01*
X145796206Y-63967664D01*
X145796202Y-63967671D01*
X145745908Y-64102517D01*
X145739501Y-64162116D01*
X145739501Y-64162123D01*
X145739500Y-64162135D01*
X134700500Y-64162135D01*
X134700500Y-53720639D01*
X162207500Y-53720639D01*
X162207500Y-53919360D01*
X162238587Y-54115637D01*
X162299993Y-54304629D01*
X162299994Y-54304632D01*
X162390213Y-54481694D01*
X162507019Y-54642464D01*
X162647536Y-54782981D01*
X162808306Y-54899787D01*
X162870819Y-54931639D01*
X162964780Y-54979515D01*
X163015576Y-55027490D01*
X163032371Y-55095311D01*
X163009833Y-55161446D01*
X162964780Y-55200485D01*
X162808305Y-55280213D01*
X162647533Y-55397021D01*
X162507021Y-55537533D01*
X162390213Y-55698305D01*
X162299994Y-55875367D01*
X162299993Y-55875370D01*
X162238587Y-56064362D01*
X162207500Y-56260639D01*
X162207500Y-56459360D01*
X162238587Y-56655637D01*
X162299993Y-56844629D01*
X162299994Y-56844632D01*
X162390213Y-57021694D01*
X162507019Y-57182464D01*
X162647536Y-57322981D01*
X162808306Y-57439787D01*
X162926832Y-57500179D01*
X162964780Y-57519515D01*
X163015576Y-57567490D01*
X163032371Y-57635311D01*
X163009833Y-57701446D01*
X162964780Y-57740485D01*
X162808305Y-57820213D01*
X162647533Y-57937021D01*
X162507021Y-58077533D01*
X162390213Y-58238305D01*
X162299994Y-58415367D01*
X162299993Y-58415370D01*
X162238587Y-58604362D01*
X162207500Y-58800639D01*
X162207500Y-58999360D01*
X162238587Y-59195637D01*
X162299993Y-59384629D01*
X162299994Y-59384632D01*
X162390076Y-59561425D01*
X162390213Y-59561694D01*
X162507019Y-59722464D01*
X162647536Y-59862981D01*
X162808306Y-59979787D01*
X162926832Y-60040179D01*
X162964780Y-60059515D01*
X163015576Y-60107490D01*
X163032371Y-60175311D01*
X163009833Y-60241446D01*
X162964780Y-60280485D01*
X162808305Y-60360213D01*
X162647533Y-60477021D01*
X162507021Y-60617533D01*
X162390213Y-60778305D01*
X162299994Y-60955367D01*
X162299993Y-60955370D01*
X162238587Y-61144362D01*
X162207500Y-61340639D01*
X162207500Y-61539360D01*
X162238587Y-61735637D01*
X162299993Y-61924629D01*
X162299994Y-61924632D01*
X162390213Y-62101694D01*
X162507019Y-62262464D01*
X162647536Y-62402981D01*
X162808306Y-62519787D01*
X162926832Y-62580179D01*
X162964780Y-62599515D01*
X163015576Y-62647490D01*
X163032371Y-62715311D01*
X163009833Y-62781446D01*
X162964780Y-62820485D01*
X162808305Y-62900213D01*
X162647533Y-63017021D01*
X162507021Y-63157533D01*
X162390213Y-63318305D01*
X162299994Y-63495367D01*
X162299993Y-63495370D01*
X162238587Y-63684362D01*
X162225625Y-63766202D01*
X162207500Y-63880639D01*
X162207500Y-64079361D01*
X162211168Y-64102517D01*
X162238587Y-64275637D01*
X162299993Y-64464629D01*
X162299994Y-64464632D01*
X162363724Y-64589707D01*
X162390213Y-64641694D01*
X162507019Y-64802464D01*
X162647536Y-64942981D01*
X162808306Y-65059787D01*
X162926832Y-65120179D01*
X162964780Y-65139515D01*
X163015576Y-65187490D01*
X163032371Y-65255311D01*
X163009833Y-65321446D01*
X162964780Y-65360485D01*
X162808305Y-65440213D01*
X162647533Y-65557021D01*
X162507021Y-65697533D01*
X162390213Y-65858305D01*
X162299994Y-66035367D01*
X162299993Y-66035370D01*
X162238587Y-66224362D01*
X162207500Y-66420639D01*
X162207500Y-66619360D01*
X162238587Y-66815637D01*
X162299993Y-67004629D01*
X162299994Y-67004632D01*
X162365950Y-67134075D01*
X162390213Y-67181694D01*
X162507019Y-67342464D01*
X162647536Y-67482981D01*
X162808306Y-67599787D01*
X162925499Y-67659500D01*
X162964780Y-67679515D01*
X163015576Y-67727490D01*
X163032371Y-67795311D01*
X163009833Y-67861446D01*
X162964780Y-67900485D01*
X162808305Y-67980213D01*
X162647533Y-68097021D01*
X162507021Y-68237533D01*
X162390213Y-68398305D01*
X162299994Y-68575367D01*
X162299993Y-68575370D01*
X162238587Y-68764362D01*
X162207500Y-68960639D01*
X162207500Y-69159360D01*
X162238587Y-69355637D01*
X162299993Y-69544629D01*
X162299994Y-69544632D01*
X162339206Y-69621588D01*
X162390213Y-69721694D01*
X162507019Y-69882464D01*
X162647536Y-70022981D01*
X162808306Y-70139787D01*
X162965332Y-70219796D01*
X163016127Y-70267769D01*
X163032922Y-70335590D01*
X163010385Y-70401725D01*
X162965332Y-70440764D01*
X162808566Y-70520641D01*
X162771283Y-70547729D01*
X162771282Y-70547730D01*
X163442554Y-71219000D01*
X163419840Y-71219000D01*
X163322939Y-71244964D01*
X163236060Y-71295124D01*
X163165124Y-71366060D01*
X163114964Y-71452939D01*
X163089000Y-71549840D01*
X163089000Y-71572552D01*
X162417730Y-70901282D01*
X162417729Y-70901283D01*
X162390643Y-70938564D01*
X162300457Y-71115562D01*
X162239075Y-71304476D01*
X162239075Y-71304479D01*
X162208000Y-71500678D01*
X162208000Y-71699321D01*
X162239075Y-71895520D01*
X162239075Y-71895523D01*
X162300457Y-72084437D01*
X162390641Y-72261432D01*
X162417730Y-72298715D01*
X162417731Y-72298716D01*
X163089000Y-71627447D01*
X163089000Y-71650160D01*
X163114964Y-71747061D01*
X163165124Y-71833940D01*
X163236060Y-71904876D01*
X163322939Y-71955036D01*
X163419840Y-71981000D01*
X163442553Y-71981000D01*
X162771283Y-72652268D01*
X162771283Y-72652269D01*
X162808567Y-72679358D01*
X162985562Y-72769542D01*
X163174477Y-72830924D01*
X163370679Y-72862000D01*
X163569321Y-72862000D01*
X163765520Y-72830924D01*
X163765523Y-72830924D01*
X163954437Y-72769542D01*
X164131425Y-72679362D01*
X164168716Y-72652268D01*
X163497448Y-71981000D01*
X163520160Y-71981000D01*
X163617061Y-71955036D01*
X163703940Y-71904876D01*
X163774876Y-71833940D01*
X163825036Y-71747061D01*
X163851000Y-71650160D01*
X163851000Y-71627447D01*
X164522268Y-72298715D01*
X164549362Y-72261425D01*
X164639542Y-72084437D01*
X164700924Y-71895523D01*
X164700924Y-71895520D01*
X164732000Y-71699321D01*
X164732000Y-71500678D01*
X164700924Y-71304479D01*
X164700924Y-71304476D01*
X164639542Y-71115562D01*
X164549358Y-70938567D01*
X164522268Y-70901283D01*
X163851000Y-71572551D01*
X163851000Y-71549840D01*
X163825036Y-71452939D01*
X163774876Y-71366060D01*
X163703940Y-71295124D01*
X163617061Y-71244964D01*
X163520160Y-71219000D01*
X163497447Y-71219000D01*
X164168716Y-70547731D01*
X164168715Y-70547730D01*
X164131432Y-70520641D01*
X163974668Y-70440765D01*
X163923872Y-70392790D01*
X163907077Y-70324969D01*
X163929615Y-70258834D01*
X163974667Y-70219796D01*
X164131694Y-70139787D01*
X164292464Y-70022981D01*
X164432981Y-69882464D01*
X164549787Y-69721694D01*
X164640005Y-69544632D01*
X164701413Y-69355636D01*
X164732500Y-69159361D01*
X164732500Y-68960639D01*
X164701413Y-68764364D01*
X164640005Y-68575368D01*
X164640005Y-68575367D01*
X164549786Y-68398305D01*
X164537326Y-68381155D01*
X164432981Y-68237536D01*
X164292464Y-68097019D01*
X164131694Y-67980213D01*
X163975218Y-67900484D01*
X163924423Y-67852510D01*
X163907628Y-67784689D01*
X163930165Y-67718554D01*
X163975218Y-67679515D01*
X164131694Y-67599787D01*
X164292464Y-67482981D01*
X164432981Y-67342464D01*
X164549787Y-67181694D01*
X164640005Y-67004632D01*
X164701413Y-66815636D01*
X164732500Y-66619361D01*
X164732500Y-66420639D01*
X164701413Y-66224364D01*
X164640005Y-66035368D01*
X164640005Y-66035367D01*
X164571286Y-65900500D01*
X164549787Y-65858306D01*
X164432981Y-65697536D01*
X164292464Y-65557019D01*
X164131694Y-65440213D01*
X163975218Y-65360484D01*
X163924423Y-65312510D01*
X163907628Y-65244689D01*
X163930165Y-65178554D01*
X163975218Y-65139515D01*
X164131694Y-65059787D01*
X164292464Y-64942981D01*
X164432981Y-64802464D01*
X164549787Y-64641694D01*
X164640005Y-64464632D01*
X164701413Y-64275636D01*
X164732500Y-64079361D01*
X164732500Y-63880639D01*
X164701413Y-63684364D01*
X164640005Y-63495368D01*
X164640005Y-63495367D01*
X164549786Y-63318305D01*
X164432981Y-63157536D01*
X164292464Y-63017019D01*
X164131694Y-62900213D01*
X163975218Y-62820484D01*
X163924423Y-62772510D01*
X163907628Y-62704689D01*
X163930165Y-62638554D01*
X163975218Y-62599515D01*
X164131694Y-62519787D01*
X164292464Y-62402981D01*
X164432981Y-62262464D01*
X164549787Y-62101694D01*
X164640005Y-61924632D01*
X164701413Y-61735636D01*
X164732500Y-61539361D01*
X164732500Y-61340639D01*
X164701413Y-61144364D01*
X164640005Y-60955368D01*
X164640005Y-60955367D01*
X164549786Y-60778305D01*
X164432981Y-60617536D01*
X164292464Y-60477019D01*
X164131694Y-60360213D01*
X163975218Y-60280484D01*
X163924423Y-60232510D01*
X163907628Y-60164689D01*
X163930165Y-60098554D01*
X163975218Y-60059515D01*
X164131694Y-59979787D01*
X164292464Y-59862981D01*
X164432981Y-59722464D01*
X164549787Y-59561694D01*
X164640005Y-59384632D01*
X164701413Y-59195636D01*
X164732500Y-58999361D01*
X164732500Y-58800639D01*
X164701413Y-58604364D01*
X164640005Y-58415368D01*
X164640005Y-58415367D01*
X164594035Y-58325149D01*
X164549787Y-58238306D01*
X164432981Y-58077536D01*
X164292464Y-57937019D01*
X164131694Y-57820213D01*
X163975218Y-57740484D01*
X163924423Y-57692510D01*
X163907628Y-57624689D01*
X163930165Y-57558554D01*
X163975218Y-57519515D01*
X164131694Y-57439787D01*
X164292464Y-57322981D01*
X164432981Y-57182464D01*
X164549787Y-57021694D01*
X164640005Y-56844632D01*
X164701413Y-56655636D01*
X164732500Y-56459361D01*
X164732500Y-56260639D01*
X164701413Y-56064364D01*
X164670709Y-55969866D01*
X164640006Y-55875370D01*
X164640005Y-55875367D01*
X164565585Y-55729312D01*
X164549787Y-55698306D01*
X164432981Y-55537536D01*
X164292464Y-55397019D01*
X164131694Y-55280213D01*
X163975218Y-55200484D01*
X163924423Y-55152510D01*
X163907628Y-55084689D01*
X163930165Y-55018554D01*
X163975218Y-54979515D01*
X164131694Y-54899787D01*
X164292464Y-54782981D01*
X164432981Y-54642464D01*
X164549787Y-54481694D01*
X164640005Y-54304632D01*
X164701413Y-54115636D01*
X164732500Y-53919361D01*
X164732500Y-53720639D01*
X177207500Y-53720639D01*
X177207500Y-53919360D01*
X177238587Y-54115637D01*
X177299993Y-54304629D01*
X177299994Y-54304632D01*
X177390213Y-54481694D01*
X177507019Y-54642464D01*
X177647536Y-54782981D01*
X177808306Y-54899787D01*
X177870819Y-54931639D01*
X177964780Y-54979515D01*
X178015576Y-55027490D01*
X178032371Y-55095311D01*
X178009833Y-55161446D01*
X177964780Y-55200485D01*
X177808305Y-55280213D01*
X177647533Y-55397021D01*
X177507021Y-55537533D01*
X177390213Y-55698305D01*
X177299994Y-55875367D01*
X177299993Y-55875370D01*
X177238587Y-56064362D01*
X177207500Y-56260639D01*
X177207500Y-56459360D01*
X177238587Y-56655637D01*
X177299993Y-56844629D01*
X177299994Y-56844632D01*
X177390213Y-57021694D01*
X177507019Y-57182464D01*
X177647536Y-57322981D01*
X177808306Y-57439787D01*
X177965332Y-57519796D01*
X178016127Y-57567769D01*
X178032922Y-57635590D01*
X178010385Y-57701725D01*
X177965332Y-57740764D01*
X177808566Y-57820641D01*
X177771283Y-57847729D01*
X177771282Y-57847730D01*
X178442554Y-58519000D01*
X178419840Y-58519000D01*
X178322939Y-58544964D01*
X178236060Y-58595124D01*
X178165124Y-58666060D01*
X178114964Y-58752939D01*
X178089000Y-58849840D01*
X178089000Y-58872552D01*
X177417730Y-58201282D01*
X177417729Y-58201283D01*
X177390643Y-58238564D01*
X177300457Y-58415562D01*
X177239075Y-58604476D01*
X177239075Y-58604479D01*
X177208000Y-58800678D01*
X177208000Y-58999321D01*
X177239075Y-59195520D01*
X177239075Y-59195523D01*
X177300457Y-59384437D01*
X177390641Y-59561432D01*
X177417730Y-59598715D01*
X178089000Y-58927445D01*
X178089000Y-58950160D01*
X178114964Y-59047061D01*
X178165124Y-59133940D01*
X178236060Y-59204876D01*
X178322939Y-59255036D01*
X178419840Y-59281000D01*
X178442553Y-59281000D01*
X177771283Y-59952268D01*
X177771283Y-59952269D01*
X177808567Y-59979358D01*
X177965331Y-60059234D01*
X178016127Y-60107209D01*
X178032922Y-60175030D01*
X178010384Y-60241165D01*
X177965331Y-60280204D01*
X177808305Y-60360213D01*
X177647533Y-60477021D01*
X177507021Y-60617533D01*
X177390213Y-60778305D01*
X177299994Y-60955367D01*
X177299993Y-60955370D01*
X177238587Y-61144362D01*
X177207500Y-61340639D01*
X177207500Y-61539360D01*
X177238587Y-61735637D01*
X177299993Y-61924629D01*
X177299994Y-61924632D01*
X177390213Y-62101694D01*
X177507019Y-62262464D01*
X177647536Y-62402981D01*
X177808306Y-62519787D01*
X177926832Y-62580179D01*
X177964780Y-62599515D01*
X178015576Y-62647490D01*
X178032371Y-62715311D01*
X178009833Y-62781446D01*
X177964780Y-62820485D01*
X177808305Y-62900213D01*
X177647533Y-63017021D01*
X177507021Y-63157533D01*
X177390213Y-63318305D01*
X177299994Y-63495367D01*
X177299993Y-63495370D01*
X177238587Y-63684362D01*
X177225625Y-63766202D01*
X177207500Y-63880639D01*
X177207500Y-64079361D01*
X177211168Y-64102517D01*
X177238587Y-64275637D01*
X177299993Y-64464629D01*
X177299994Y-64464632D01*
X177363724Y-64589707D01*
X177390213Y-64641694D01*
X177507019Y-64802464D01*
X177647536Y-64942981D01*
X177808306Y-65059787D01*
X177926832Y-65120179D01*
X177964780Y-65139515D01*
X178015576Y-65187490D01*
X178032371Y-65255311D01*
X178009833Y-65321446D01*
X177964780Y-65360485D01*
X177808305Y-65440213D01*
X177647533Y-65557021D01*
X177507021Y-65697533D01*
X177390213Y-65858305D01*
X177299994Y-66035367D01*
X177299993Y-66035370D01*
X177238587Y-66224362D01*
X177207500Y-66420639D01*
X177207500Y-66619360D01*
X177238587Y-66815637D01*
X177299993Y-67004629D01*
X177299994Y-67004632D01*
X177365950Y-67134075D01*
X177390213Y-67181694D01*
X177507019Y-67342464D01*
X177647536Y-67482981D01*
X177808306Y-67599787D01*
X177925499Y-67659500D01*
X177964780Y-67679515D01*
X178015576Y-67727490D01*
X178032371Y-67795311D01*
X178009833Y-67861446D01*
X177964780Y-67900485D01*
X177808305Y-67980213D01*
X177647533Y-68097021D01*
X177507021Y-68237533D01*
X177390213Y-68398305D01*
X177299994Y-68575367D01*
X177299993Y-68575370D01*
X177238587Y-68764362D01*
X177207500Y-68960639D01*
X177207500Y-69159360D01*
X177238587Y-69355637D01*
X177299993Y-69544629D01*
X177299994Y-69544632D01*
X177339206Y-69621588D01*
X177390213Y-69721694D01*
X177507019Y-69882464D01*
X177647536Y-70022981D01*
X177808306Y-70139787D01*
X177965332Y-70219796D01*
X178016127Y-70267769D01*
X178032922Y-70335590D01*
X178010385Y-70401725D01*
X177965332Y-70440764D01*
X177808566Y-70520641D01*
X177771283Y-70547729D01*
X177771282Y-70547730D01*
X178442554Y-71219000D01*
X178419840Y-71219000D01*
X178322939Y-71244964D01*
X178236060Y-71295124D01*
X178165124Y-71366060D01*
X178114964Y-71452939D01*
X178089000Y-71549840D01*
X178089000Y-71572552D01*
X177417730Y-70901282D01*
X177417729Y-70901283D01*
X177390643Y-70938564D01*
X177300457Y-71115562D01*
X177239075Y-71304476D01*
X177239075Y-71304479D01*
X177208000Y-71500678D01*
X177208000Y-71699321D01*
X177239075Y-71895520D01*
X177239075Y-71895523D01*
X177300457Y-72084437D01*
X177390641Y-72261432D01*
X177417730Y-72298715D01*
X177417731Y-72298716D01*
X178089000Y-71627447D01*
X178089000Y-71650160D01*
X178114964Y-71747061D01*
X178165124Y-71833940D01*
X178236060Y-71904876D01*
X178322939Y-71955036D01*
X178419840Y-71981000D01*
X178442553Y-71981000D01*
X177771283Y-72652268D01*
X177771283Y-72652269D01*
X177808567Y-72679358D01*
X177985562Y-72769542D01*
X178174477Y-72830924D01*
X178370679Y-72862000D01*
X178569321Y-72862000D01*
X178765520Y-72830924D01*
X178765523Y-72830924D01*
X178954437Y-72769542D01*
X179131425Y-72679362D01*
X179168716Y-72652268D01*
X178497448Y-71981000D01*
X178520160Y-71981000D01*
X178617061Y-71955036D01*
X178703940Y-71904876D01*
X178774876Y-71833940D01*
X178825036Y-71747061D01*
X178851000Y-71650160D01*
X178851000Y-71627447D01*
X179522268Y-72298715D01*
X179549362Y-72261425D01*
X179639542Y-72084437D01*
X179700924Y-71895523D01*
X179700924Y-71895520D01*
X179732000Y-71699321D01*
X179732000Y-71500678D01*
X179722657Y-71441690D01*
X179720549Y-71428379D01*
X185179500Y-71428379D01*
X185179500Y-71615620D01*
X185216025Y-71799243D01*
X185216027Y-71799251D01*
X185287676Y-71972228D01*
X185287681Y-71972237D01*
X185391697Y-72127907D01*
X185391700Y-72127911D01*
X185524088Y-72260299D01*
X185524092Y-72260302D01*
X185679762Y-72364318D01*
X185679768Y-72364321D01*
X185679769Y-72364322D01*
X185852749Y-72435973D01*
X186036379Y-72472499D01*
X186036383Y-72472500D01*
X186036384Y-72472500D01*
X186223617Y-72472500D01*
X186223618Y-72472499D01*
X186407251Y-72435973D01*
X186580231Y-72364322D01*
X186686376Y-72293397D01*
X186753053Y-72272520D01*
X186755267Y-72272500D01*
X189695733Y-72272500D01*
X189762772Y-72292185D01*
X189764623Y-72293397D01*
X189870769Y-72364322D01*
X190043749Y-72435973D01*
X190227379Y-72472499D01*
X190227383Y-72472500D01*
X190227384Y-72472500D01*
X190414617Y-72472500D01*
X190414618Y-72472499D01*
X190598251Y-72435973D01*
X190771231Y-72364322D01*
X190926908Y-72260302D01*
X191059302Y-72127908D01*
X191163322Y-71972231D01*
X191234973Y-71799251D01*
X191271500Y-71615616D01*
X191271500Y-71428384D01*
X191234973Y-71244749D01*
X191163322Y-71071769D01*
X191163321Y-71071768D01*
X191163318Y-71071762D01*
X191112493Y-70995697D01*
X191069716Y-70931678D01*
X193165000Y-70931678D01*
X193165000Y-71130321D01*
X193196075Y-71326520D01*
X193196075Y-71326523D01*
X193257457Y-71515437D01*
X193347641Y-71692432D01*
X193374730Y-71729715D01*
X194046000Y-71058445D01*
X194046000Y-71081160D01*
X194071964Y-71178061D01*
X194122124Y-71264940D01*
X194193060Y-71335876D01*
X194279939Y-71386036D01*
X194376840Y-71412000D01*
X194399553Y-71412000D01*
X193728283Y-72083268D01*
X193728283Y-72083269D01*
X193765567Y-72110358D01*
X193942562Y-72200542D01*
X194131477Y-72261924D01*
X194327679Y-72293000D01*
X194526321Y-72293000D01*
X194722520Y-72261924D01*
X194722523Y-72261924D01*
X194911437Y-72200542D01*
X195088425Y-72110362D01*
X195125716Y-72083268D01*
X194454448Y-71412000D01*
X194477160Y-71412000D01*
X194574061Y-71386036D01*
X194660940Y-71335876D01*
X194731876Y-71264940D01*
X194782036Y-71178061D01*
X194808000Y-71081160D01*
X194808000Y-71058447D01*
X195479268Y-71729715D01*
X195506362Y-71692425D01*
X195586515Y-71535117D01*
X195634489Y-71484321D01*
X195702310Y-71467526D01*
X195768445Y-71490063D01*
X195807485Y-71535117D01*
X195887641Y-71692432D01*
X195914730Y-71729715D01*
X196586000Y-71058445D01*
X196586000Y-71081160D01*
X196611964Y-71178061D01*
X196662124Y-71264940D01*
X196733060Y-71335876D01*
X196819939Y-71386036D01*
X196916840Y-71412000D01*
X196939553Y-71412000D01*
X196268283Y-72083268D01*
X196268283Y-72083269D01*
X196305567Y-72110358D01*
X196482562Y-72200542D01*
X196671477Y-72261924D01*
X196867679Y-72293000D01*
X197066321Y-72293000D01*
X197262520Y-72261924D01*
X197262523Y-72261924D01*
X197451437Y-72200542D01*
X197628425Y-72110362D01*
X197665716Y-72083268D01*
X196994448Y-71412000D01*
X197017160Y-71412000D01*
X197114061Y-71386036D01*
X197200940Y-71335876D01*
X197271876Y-71264940D01*
X197322036Y-71178061D01*
X197348000Y-71081160D01*
X197348000Y-71058447D01*
X198019268Y-71729715D01*
X198046362Y-71692425D01*
X198136542Y-71515437D01*
X198197924Y-71326523D01*
X198197924Y-71326520D01*
X198229000Y-71130321D01*
X198229000Y-70931678D01*
X198197924Y-70735479D01*
X198197924Y-70735476D01*
X198136542Y-70546562D01*
X198046358Y-70369567D01*
X198019268Y-70332283D01*
X197348000Y-71003551D01*
X197348000Y-70980840D01*
X197322036Y-70883939D01*
X197271876Y-70797060D01*
X197200940Y-70726124D01*
X197114061Y-70675964D01*
X197017160Y-70650000D01*
X196994447Y-70650000D01*
X197665716Y-69978731D01*
X197665715Y-69978730D01*
X197628432Y-69951641D01*
X197451437Y-69861457D01*
X197262522Y-69800075D01*
X197066321Y-69769000D01*
X196867679Y-69769000D01*
X196671479Y-69800075D01*
X196671476Y-69800075D01*
X196482562Y-69861457D01*
X196305564Y-69951643D01*
X196268283Y-69978729D01*
X196268282Y-69978730D01*
X196939554Y-70650000D01*
X196916840Y-70650000D01*
X196819939Y-70675964D01*
X196733060Y-70726124D01*
X196662124Y-70797060D01*
X196611964Y-70883939D01*
X196586000Y-70980840D01*
X196586000Y-71003552D01*
X195914730Y-70332282D01*
X195914729Y-70332283D01*
X195887643Y-70369564D01*
X195807485Y-70526882D01*
X195759510Y-70577678D01*
X195691689Y-70594473D01*
X195625554Y-70571935D01*
X195586515Y-70526882D01*
X195506358Y-70369567D01*
X195479268Y-70332283D01*
X194808000Y-71003551D01*
X194808000Y-70980840D01*
X194782036Y-70883939D01*
X194731876Y-70797060D01*
X194660940Y-70726124D01*
X194574061Y-70675964D01*
X194477160Y-70650000D01*
X194454447Y-70650000D01*
X195125716Y-69978731D01*
X195125715Y-69978730D01*
X195088432Y-69951641D01*
X194911437Y-69861457D01*
X194722522Y-69800075D01*
X194526321Y-69769000D01*
X194327679Y-69769000D01*
X194131479Y-69800075D01*
X194131476Y-69800075D01*
X193942562Y-69861457D01*
X193765564Y-69951643D01*
X193728283Y-69978729D01*
X193728282Y-69978730D01*
X194399554Y-70650000D01*
X194376840Y-70650000D01*
X194279939Y-70675964D01*
X194193060Y-70726124D01*
X194122124Y-70797060D01*
X194071964Y-70883939D01*
X194046000Y-70980840D01*
X194046000Y-71003552D01*
X193374730Y-70332282D01*
X193374729Y-70332283D01*
X193347643Y-70369564D01*
X193257457Y-70546562D01*
X193196075Y-70735476D01*
X193196075Y-70735479D01*
X193165000Y-70931678D01*
X191069716Y-70931678D01*
X191059302Y-70916092D01*
X191059299Y-70916088D01*
X190926911Y-70783700D01*
X190926907Y-70783697D01*
X190771237Y-70679681D01*
X190771228Y-70679676D01*
X190598251Y-70608027D01*
X190598243Y-70608025D01*
X190414620Y-70571500D01*
X190414616Y-70571500D01*
X190227384Y-70571500D01*
X190227379Y-70571500D01*
X190043756Y-70608025D01*
X190043748Y-70608027D01*
X189870771Y-70679676D01*
X189870763Y-70679681D01*
X189764624Y-70750602D01*
X189697947Y-70771480D01*
X189695733Y-70771500D01*
X186755267Y-70771500D01*
X186688228Y-70751815D01*
X186686376Y-70750602D01*
X186580236Y-70679681D01*
X186580228Y-70679676D01*
X186407251Y-70608027D01*
X186407243Y-70608025D01*
X186223620Y-70571500D01*
X186223616Y-70571500D01*
X186036384Y-70571500D01*
X186036379Y-70571500D01*
X185852756Y-70608025D01*
X185852748Y-70608027D01*
X185679771Y-70679676D01*
X185679762Y-70679681D01*
X185524092Y-70783697D01*
X185524088Y-70783700D01*
X185391700Y-70916088D01*
X185391697Y-70916092D01*
X185287681Y-71071762D01*
X185287676Y-71071771D01*
X185216027Y-71244748D01*
X185216025Y-71244756D01*
X185179500Y-71428379D01*
X179720549Y-71428379D01*
X179700924Y-71304479D01*
X179700924Y-71304476D01*
X179639542Y-71115562D01*
X179549358Y-70938567D01*
X179522268Y-70901283D01*
X178851000Y-71572551D01*
X178851000Y-71549840D01*
X178825036Y-71452939D01*
X178774876Y-71366060D01*
X178703940Y-71295124D01*
X178617061Y-71244964D01*
X178520160Y-71219000D01*
X178497447Y-71219000D01*
X179168716Y-70547731D01*
X179168715Y-70547730D01*
X179131432Y-70520641D01*
X178974668Y-70440765D01*
X178923872Y-70392790D01*
X178907077Y-70324969D01*
X178929615Y-70258834D01*
X178974667Y-70219796D01*
X179131694Y-70139787D01*
X179292464Y-70022981D01*
X179432981Y-69882464D01*
X179549787Y-69721694D01*
X179640005Y-69544632D01*
X179701413Y-69355636D01*
X179732500Y-69159361D01*
X179732500Y-68960639D01*
X179701413Y-68764364D01*
X179640005Y-68575368D01*
X179640005Y-68575367D01*
X179549786Y-68398305D01*
X179537326Y-68381155D01*
X179432981Y-68237536D01*
X179292464Y-68097019D01*
X179131694Y-67980213D01*
X178975218Y-67900484D01*
X178924423Y-67852510D01*
X178907628Y-67784689D01*
X178930165Y-67718554D01*
X178975218Y-67679515D01*
X179131694Y-67599787D01*
X179292464Y-67482981D01*
X179432981Y-67342464D01*
X179549787Y-67181694D01*
X179640005Y-67004632D01*
X179701413Y-66815636D01*
X179732500Y-66619361D01*
X179732500Y-66420639D01*
X179701413Y-66224364D01*
X179640005Y-66035368D01*
X179640005Y-66035367D01*
X179571286Y-65900500D01*
X179549787Y-65858306D01*
X179432981Y-65697536D01*
X179292464Y-65557019D01*
X179131694Y-65440213D01*
X178975218Y-65360484D01*
X178924423Y-65312510D01*
X178907628Y-65244689D01*
X178930165Y-65178554D01*
X178975218Y-65139515D01*
X179131694Y-65059787D01*
X179292464Y-64942981D01*
X179432981Y-64802464D01*
X179549787Y-64641694D01*
X179640005Y-64464632D01*
X179701413Y-64275636D01*
X179732500Y-64079361D01*
X179732500Y-63880639D01*
X179701413Y-63684364D01*
X179640005Y-63495368D01*
X179640005Y-63495367D01*
X179549786Y-63318305D01*
X179432981Y-63157536D01*
X179292464Y-63017019D01*
X179131694Y-62900213D01*
X178975218Y-62820484D01*
X178924423Y-62772510D01*
X178907628Y-62704689D01*
X178930165Y-62638554D01*
X178975218Y-62599515D01*
X179131694Y-62519787D01*
X179292464Y-62402981D01*
X179432981Y-62262464D01*
X179549787Y-62101694D01*
X179640005Y-61924632D01*
X179701413Y-61735636D01*
X179732500Y-61539361D01*
X179732500Y-61340639D01*
X179701413Y-61144364D01*
X179640005Y-60955368D01*
X179640005Y-60955367D01*
X179549786Y-60778305D01*
X179432981Y-60617536D01*
X179292464Y-60477019D01*
X179131694Y-60360213D01*
X178974667Y-60280203D01*
X178923872Y-60232229D01*
X178907077Y-60164408D01*
X178929614Y-60098273D01*
X178974669Y-60059234D01*
X179131422Y-59979364D01*
X179168716Y-59952268D01*
X178497448Y-59281000D01*
X178520160Y-59281000D01*
X178617061Y-59255036D01*
X178703940Y-59204876D01*
X178774876Y-59133940D01*
X178825036Y-59047061D01*
X178851000Y-58950160D01*
X178851000Y-58927447D01*
X179522268Y-59598715D01*
X179549362Y-59561425D01*
X179639542Y-59384437D01*
X179700924Y-59195523D01*
X179700924Y-59195520D01*
X179732000Y-58999321D01*
X179732000Y-58800678D01*
X179700924Y-58604479D01*
X179700924Y-58604476D01*
X179639542Y-58415562D01*
X179549358Y-58238567D01*
X179522268Y-58201283D01*
X178851000Y-58872551D01*
X178851000Y-58849840D01*
X178825036Y-58752939D01*
X178774876Y-58666060D01*
X178703940Y-58595124D01*
X178617061Y-58544964D01*
X178520160Y-58519000D01*
X178497447Y-58519000D01*
X179168716Y-57847731D01*
X179168715Y-57847730D01*
X179131432Y-57820641D01*
X178974668Y-57740765D01*
X178923872Y-57692790D01*
X178907077Y-57624969D01*
X178929615Y-57558834D01*
X178974667Y-57519796D01*
X179131694Y-57439787D01*
X179292464Y-57322981D01*
X179432981Y-57182464D01*
X179549787Y-57021694D01*
X179640005Y-56844632D01*
X179701413Y-56655636D01*
X179732500Y-56459361D01*
X179732500Y-56260639D01*
X179701413Y-56064364D01*
X179670709Y-55969866D01*
X179640006Y-55875370D01*
X179640005Y-55875367D01*
X179565585Y-55729312D01*
X179549787Y-55698306D01*
X179432981Y-55537536D01*
X179292464Y-55397019D01*
X179131694Y-55280213D01*
X178975218Y-55200484D01*
X178924423Y-55152510D01*
X178907628Y-55084689D01*
X178930165Y-55018554D01*
X178975218Y-54979515D01*
X179069181Y-54931639D01*
X193138500Y-54931639D01*
X193138500Y-55130361D01*
X193147945Y-55189995D01*
X193169587Y-55326637D01*
X193230993Y-55515629D01*
X193230994Y-55515632D01*
X193315085Y-55680667D01*
X193321213Y-55692694D01*
X193438019Y-55853464D01*
X193578536Y-55993981D01*
X193739306Y-56110787D01*
X193817333Y-56150544D01*
X193916367Y-56201005D01*
X193916370Y-56201006D01*
X194010866Y-56231709D01*
X194105364Y-56262413D01*
X194301639Y-56293500D01*
X194301640Y-56293500D01*
X194500360Y-56293500D01*
X194500361Y-56293500D01*
X194696636Y-56262413D01*
X194885632Y-56201005D01*
X195062694Y-56110787D01*
X195223464Y-55993981D01*
X195363981Y-55853464D01*
X195454183Y-55729311D01*
X195509511Y-55686646D01*
X195579125Y-55680667D01*
X195640920Y-55713272D01*
X195675277Y-55774111D01*
X195678500Y-55802194D01*
X195678500Y-55840868D01*
X195678501Y-55840876D01*
X195684908Y-55900483D01*
X195735202Y-56035328D01*
X195735206Y-56035335D01*
X195821452Y-56150544D01*
X195821455Y-56150547D01*
X195936664Y-56236793D01*
X195936671Y-56236797D01*
X196071517Y-56287091D01*
X196071516Y-56287091D01*
X196078444Y-56287835D01*
X196131127Y-56293500D01*
X197750872Y-56293499D01*
X197810483Y-56287091D01*
X197945331Y-56236796D01*
X198060546Y-56150546D01*
X198146796Y-56035331D01*
X198197091Y-55900483D01*
X198203500Y-55840873D01*
X198203499Y-54221128D01*
X198197091Y-54161517D01*
X198162219Y-54068021D01*
X198146797Y-54026671D01*
X198146793Y-54026664D01*
X198060547Y-53911455D01*
X198060544Y-53911452D01*
X197945335Y-53825206D01*
X197945328Y-53825202D01*
X197810482Y-53774908D01*
X197810483Y-53774908D01*
X197750883Y-53768501D01*
X197750881Y-53768500D01*
X197750873Y-53768500D01*
X197750864Y-53768500D01*
X196131129Y-53768500D01*
X196131123Y-53768501D01*
X196071516Y-53774908D01*
X195936671Y-53825202D01*
X195936664Y-53825206D01*
X195821455Y-53911452D01*
X195821452Y-53911455D01*
X195735206Y-54026664D01*
X195735202Y-54026671D01*
X195684908Y-54161517D01*
X195678501Y-54221116D01*
X195678501Y-54221123D01*
X195678500Y-54221135D01*
X195678500Y-54259801D01*
X195658815Y-54326840D01*
X195606011Y-54372595D01*
X195536853Y-54382539D01*
X195473297Y-54353514D01*
X195454182Y-54332687D01*
X195443596Y-54318117D01*
X195363981Y-54208536D01*
X195223464Y-54068019D01*
X195062694Y-53951213D01*
X194885632Y-53860994D01*
X194885629Y-53860993D01*
X194696637Y-53799587D01*
X194598498Y-53784043D01*
X194500361Y-53768500D01*
X194301639Y-53768500D01*
X194236214Y-53778862D01*
X194105362Y-53799587D01*
X193916370Y-53860993D01*
X193916367Y-53860994D01*
X193739305Y-53951213D01*
X193578533Y-54068021D01*
X193438021Y-54208533D01*
X193321213Y-54369305D01*
X193230994Y-54546367D01*
X193230993Y-54546370D01*
X193169587Y-54735362D01*
X193155160Y-54826452D01*
X193138500Y-54931639D01*
X179069181Y-54931639D01*
X179131694Y-54899787D01*
X179292464Y-54782981D01*
X179432981Y-54642464D01*
X179549787Y-54481694D01*
X179640005Y-54304632D01*
X179701413Y-54115636D01*
X179732500Y-53919361D01*
X179732500Y-53720639D01*
X179701413Y-53524364D01*
X179640005Y-53335368D01*
X179640005Y-53335367D01*
X179549786Y-53158305D01*
X179432981Y-52997536D01*
X179292464Y-52857019D01*
X179131694Y-52740213D01*
X178954632Y-52649994D01*
X178954629Y-52649993D01*
X178765637Y-52588587D01*
X178667498Y-52573043D01*
X178569361Y-52557500D01*
X178370639Y-52557500D01*
X178305214Y-52567862D01*
X178174362Y-52588587D01*
X177985370Y-52649993D01*
X177985367Y-52649994D01*
X177808305Y-52740213D01*
X177647533Y-52857021D01*
X177507021Y-52997533D01*
X177390213Y-53158305D01*
X177299994Y-53335367D01*
X177299993Y-53335370D01*
X177238587Y-53524362D01*
X177207500Y-53720639D01*
X164732500Y-53720639D01*
X164701413Y-53524364D01*
X164640005Y-53335368D01*
X164640005Y-53335367D01*
X164549786Y-53158305D01*
X164432981Y-52997536D01*
X164292464Y-52857019D01*
X164131694Y-52740213D01*
X163954632Y-52649994D01*
X163954629Y-52649993D01*
X163765637Y-52588587D01*
X163667498Y-52573043D01*
X163569361Y-52557500D01*
X163370639Y-52557500D01*
X163305214Y-52567862D01*
X163174362Y-52588587D01*
X162985370Y-52649993D01*
X162985367Y-52649994D01*
X162808305Y-52740213D01*
X162647533Y-52857021D01*
X162507021Y-52997533D01*
X162390213Y-53158305D01*
X162299994Y-53335367D01*
X162299993Y-53335370D01*
X162238587Y-53524362D01*
X162207500Y-53720639D01*
X134700500Y-53720639D01*
X134700500Y-51108379D01*
X166764500Y-51108379D01*
X166764500Y-51295620D01*
X166801025Y-51479243D01*
X166801027Y-51479251D01*
X166872676Y-51652228D01*
X166872681Y-51652237D01*
X166976697Y-51807907D01*
X166976700Y-51807911D01*
X167109088Y-51940299D01*
X167109092Y-51940302D01*
X167264762Y-52044318D01*
X167264768Y-52044321D01*
X167264769Y-52044322D01*
X167437749Y-52115973D01*
X167621379Y-52152499D01*
X167621383Y-52152500D01*
X167621384Y-52152500D01*
X167808617Y-52152500D01*
X167808618Y-52152499D01*
X167992251Y-52115973D01*
X168165231Y-52044322D01*
X168271376Y-51973397D01*
X168338053Y-51952520D01*
X168340267Y-51952500D01*
X173820733Y-51952500D01*
X173887772Y-51972185D01*
X173889623Y-51973397D01*
X173995769Y-52044322D01*
X174168749Y-52115973D01*
X174352379Y-52152499D01*
X174352383Y-52152500D01*
X174352384Y-52152500D01*
X174539617Y-52152500D01*
X174539618Y-52152499D01*
X174723251Y-52115973D01*
X174896231Y-52044322D01*
X175051908Y-51940302D01*
X175184302Y-51807908D01*
X175288322Y-51652231D01*
X175355778Y-51489379D01*
X185433500Y-51489379D01*
X185433500Y-51676620D01*
X185470025Y-51860243D01*
X185470027Y-51860251D01*
X185541676Y-52033228D01*
X185541681Y-52033237D01*
X185645697Y-52188907D01*
X185645700Y-52188911D01*
X185778088Y-52321299D01*
X185778092Y-52321302D01*
X185933762Y-52425318D01*
X185933768Y-52425321D01*
X185933769Y-52425322D01*
X186106749Y-52496973D01*
X186290379Y-52533499D01*
X186290383Y-52533500D01*
X186290384Y-52533500D01*
X186477617Y-52533500D01*
X186477618Y-52533499D01*
X186661251Y-52496973D01*
X186834231Y-52425322D01*
X186940376Y-52354397D01*
X187007053Y-52333520D01*
X187009267Y-52333500D01*
X191044733Y-52333500D01*
X191111772Y-52353185D01*
X191113623Y-52354397D01*
X191219769Y-52425322D01*
X191392749Y-52496973D01*
X191576379Y-52533499D01*
X191576383Y-52533500D01*
X191576384Y-52533500D01*
X191763617Y-52533500D01*
X191763618Y-52533499D01*
X191947251Y-52496973D01*
X192120231Y-52425322D01*
X192275908Y-52321302D01*
X192408302Y-52188908D01*
X192512322Y-52033231D01*
X192583973Y-51860251D01*
X192620500Y-51676616D01*
X192620500Y-51489384D01*
X192583973Y-51305749D01*
X192512322Y-51132769D01*
X192512321Y-51132768D01*
X192512318Y-51132762D01*
X192408302Y-50977092D01*
X192408299Y-50977088D01*
X192275911Y-50844700D01*
X192275907Y-50844697D01*
X192120237Y-50740681D01*
X192120228Y-50740676D01*
X191947251Y-50669027D01*
X191947243Y-50669025D01*
X191763620Y-50632500D01*
X191763616Y-50632500D01*
X191576384Y-50632500D01*
X191576379Y-50632500D01*
X191392756Y-50669025D01*
X191392748Y-50669027D01*
X191219771Y-50740676D01*
X191219763Y-50740681D01*
X191113624Y-50811602D01*
X191046947Y-50832480D01*
X191044733Y-50832500D01*
X187009267Y-50832500D01*
X186942228Y-50812815D01*
X186940376Y-50811602D01*
X186834236Y-50740681D01*
X186834228Y-50740676D01*
X186661251Y-50669027D01*
X186661243Y-50669025D01*
X186477620Y-50632500D01*
X186477616Y-50632500D01*
X186290384Y-50632500D01*
X186290379Y-50632500D01*
X186106756Y-50669025D01*
X186106748Y-50669027D01*
X185933771Y-50740676D01*
X185933762Y-50740681D01*
X185778092Y-50844697D01*
X185778088Y-50844700D01*
X185645700Y-50977088D01*
X185645697Y-50977092D01*
X185541681Y-51132762D01*
X185541676Y-51132771D01*
X185470027Y-51305748D01*
X185470025Y-51305756D01*
X185433500Y-51489379D01*
X175355778Y-51489379D01*
X175359973Y-51479251D01*
X175359975Y-51479243D01*
X175363982Y-51459099D01*
X175363982Y-51459097D01*
X175394484Y-51305749D01*
X175396500Y-51295616D01*
X175396500Y-51108384D01*
X175359973Y-50924749D01*
X175288322Y-50751769D01*
X175288321Y-50751768D01*
X175288318Y-50751762D01*
X175184302Y-50596092D01*
X175184299Y-50596088D01*
X175051911Y-50463700D01*
X175051907Y-50463697D01*
X174896237Y-50359681D01*
X174896228Y-50359676D01*
X174723251Y-50288027D01*
X174723243Y-50288025D01*
X174539620Y-50251500D01*
X174539616Y-50251500D01*
X174352384Y-50251500D01*
X174352379Y-50251500D01*
X174168756Y-50288025D01*
X174168748Y-50288027D01*
X173995771Y-50359676D01*
X173995763Y-50359681D01*
X173889624Y-50430602D01*
X173822947Y-50451480D01*
X173820733Y-50451500D01*
X168340267Y-50451500D01*
X168273228Y-50431815D01*
X168271376Y-50430602D01*
X168165236Y-50359681D01*
X168165228Y-50359676D01*
X167992251Y-50288027D01*
X167992243Y-50288025D01*
X167808620Y-50251500D01*
X167808616Y-50251500D01*
X167621384Y-50251500D01*
X167621379Y-50251500D01*
X167437756Y-50288025D01*
X167437748Y-50288027D01*
X167264771Y-50359676D01*
X167264762Y-50359681D01*
X167109092Y-50463697D01*
X167109088Y-50463700D01*
X166976700Y-50596088D01*
X166976697Y-50596092D01*
X166872681Y-50751762D01*
X166872676Y-50751771D01*
X166801027Y-50924748D01*
X166801025Y-50924756D01*
X166764500Y-51108379D01*
X134700500Y-51108379D01*
X134700500Y-41513495D01*
X156389500Y-41513495D01*
X156389500Y-41749504D01*
X156389501Y-41749520D01*
X156420306Y-41983510D01*
X156481394Y-42211493D01*
X156571714Y-42429545D01*
X156571719Y-42429556D01*
X156642677Y-42552457D01*
X156689727Y-42633950D01*
X156689729Y-42633953D01*
X156689730Y-42633954D01*
X156833406Y-42821197D01*
X156833412Y-42821204D01*
X157000295Y-42988087D01*
X157000302Y-42988093D01*
X157016909Y-43000836D01*
X157187550Y-43131773D01*
X157318918Y-43207618D01*
X157391943Y-43249780D01*
X157391948Y-43249782D01*
X157391951Y-43249784D01*
X157610007Y-43340106D01*
X157837986Y-43401193D01*
X158071989Y-43432000D01*
X158071996Y-43432000D01*
X158308004Y-43432000D01*
X158308011Y-43432000D01*
X158542014Y-43401193D01*
X158769993Y-43340106D01*
X158988049Y-43249784D01*
X159192450Y-43131773D01*
X159379699Y-42988092D01*
X159546592Y-42821199D01*
X159690273Y-42633950D01*
X159808284Y-42429549D01*
X159898606Y-42211493D01*
X159959693Y-41983514D01*
X159990500Y-41749511D01*
X159990500Y-41513489D01*
X159959693Y-41279486D01*
X159898606Y-41051507D01*
X159808284Y-40833451D01*
X159808282Y-40833448D01*
X159808280Y-40833443D01*
X159752510Y-40736848D01*
X159690273Y-40629050D01*
X159615414Y-40531492D01*
X159615407Y-40531483D01*
X161389500Y-40531483D01*
X161389500Y-42731501D01*
X161389501Y-42731518D01*
X161400000Y-42834296D01*
X161400001Y-42834299D01*
X161450962Y-42988087D01*
X161455186Y-43000834D01*
X161547288Y-43150156D01*
X161671344Y-43274212D01*
X161820666Y-43366314D01*
X161987203Y-43421499D01*
X162089991Y-43432000D01*
X164290008Y-43431999D01*
X164392797Y-43421499D01*
X164559334Y-43366314D01*
X164708656Y-43274212D01*
X164832712Y-43150156D01*
X164924814Y-43000834D01*
X164979999Y-42834297D01*
X164990500Y-42731509D01*
X164990499Y-41513495D01*
X186669500Y-41513495D01*
X186669500Y-41749504D01*
X186669501Y-41749520D01*
X186700306Y-41983510D01*
X186761394Y-42211493D01*
X186851714Y-42429545D01*
X186851719Y-42429556D01*
X186922677Y-42552457D01*
X186969727Y-42633950D01*
X186969729Y-42633953D01*
X186969730Y-42633954D01*
X187113406Y-42821197D01*
X187113412Y-42821204D01*
X187280295Y-42988087D01*
X187280302Y-42988093D01*
X187296909Y-43000836D01*
X187467550Y-43131773D01*
X187598918Y-43207618D01*
X187671943Y-43249780D01*
X187671948Y-43249782D01*
X187671951Y-43249784D01*
X187890007Y-43340106D01*
X188117986Y-43401193D01*
X188351989Y-43432000D01*
X188351996Y-43432000D01*
X188588004Y-43432000D01*
X188588011Y-43432000D01*
X188822014Y-43401193D01*
X189049993Y-43340106D01*
X189268049Y-43249784D01*
X189472450Y-43131773D01*
X189659699Y-42988092D01*
X189826592Y-42821199D01*
X189970273Y-42633950D01*
X190088284Y-42429549D01*
X190178606Y-42211493D01*
X190239693Y-41983514D01*
X190270500Y-41749511D01*
X190270500Y-41513489D01*
X190239693Y-41279486D01*
X190178606Y-41051507D01*
X190088284Y-40833451D01*
X190088282Y-40833448D01*
X190088280Y-40833443D01*
X190032510Y-40736848D01*
X189970273Y-40629050D01*
X189895414Y-40531492D01*
X189895407Y-40531483D01*
X191669500Y-40531483D01*
X191669500Y-42731501D01*
X191669501Y-42731518D01*
X191680000Y-42834296D01*
X191680001Y-42834299D01*
X191730962Y-42988087D01*
X191735186Y-43000834D01*
X191827288Y-43150156D01*
X191951344Y-43274212D01*
X192100666Y-43366314D01*
X192267203Y-43421499D01*
X192369991Y-43432000D01*
X194570008Y-43431999D01*
X194672797Y-43421499D01*
X194839334Y-43366314D01*
X194988656Y-43274212D01*
X195112712Y-43150156D01*
X195204814Y-43000834D01*
X195259999Y-42834297D01*
X195270500Y-42731509D01*
X195270499Y-40531492D01*
X195259999Y-40428703D01*
X195204814Y-40262166D01*
X195112712Y-40112844D01*
X194988656Y-39988788D01*
X194839334Y-39896686D01*
X194672797Y-39841501D01*
X194672795Y-39841500D01*
X194570010Y-39831000D01*
X192369998Y-39831000D01*
X192369981Y-39831001D01*
X192267203Y-39841500D01*
X192267200Y-39841501D01*
X192100668Y-39896685D01*
X192100663Y-39896687D01*
X191951342Y-39988789D01*
X191827289Y-40112842D01*
X191735187Y-40262163D01*
X191735185Y-40262168D01*
X191730962Y-40274912D01*
X191680001Y-40428703D01*
X191680001Y-40428704D01*
X191680000Y-40428704D01*
X191669500Y-40531483D01*
X189895407Y-40531483D01*
X189826593Y-40441802D01*
X189826587Y-40441795D01*
X189659704Y-40274912D01*
X189659697Y-40274906D01*
X189472454Y-40131230D01*
X189472453Y-40131229D01*
X189472450Y-40131227D01*
X189390957Y-40084177D01*
X189268056Y-40013219D01*
X189268045Y-40013214D01*
X189049993Y-39922894D01*
X188822010Y-39861806D01*
X188588020Y-39831001D01*
X188588017Y-39831000D01*
X188588011Y-39831000D01*
X188351989Y-39831000D01*
X188351983Y-39831000D01*
X188351979Y-39831001D01*
X188117989Y-39861806D01*
X187890006Y-39922894D01*
X187671954Y-40013214D01*
X187671943Y-40013219D01*
X187467545Y-40131230D01*
X187280302Y-40274906D01*
X187280295Y-40274912D01*
X187113412Y-40441795D01*
X187113406Y-40441802D01*
X186969730Y-40629045D01*
X186851719Y-40833443D01*
X186851714Y-40833454D01*
X186761394Y-41051506D01*
X186700306Y-41279489D01*
X186669501Y-41513479D01*
X186669500Y-41513495D01*
X164990499Y-41513495D01*
X164990499Y-40531492D01*
X164979999Y-40428703D01*
X164924814Y-40262166D01*
X164832712Y-40112844D01*
X164708656Y-39988788D01*
X164559334Y-39896686D01*
X164392797Y-39841501D01*
X164392795Y-39841500D01*
X164290010Y-39831000D01*
X162089998Y-39831000D01*
X162089981Y-39831001D01*
X161987203Y-39841500D01*
X161987200Y-39841501D01*
X161820668Y-39896685D01*
X161820663Y-39896687D01*
X161671342Y-39988789D01*
X161547289Y-40112842D01*
X161455187Y-40262163D01*
X161455185Y-40262168D01*
X161450962Y-40274912D01*
X161400001Y-40428703D01*
X161400001Y-40428704D01*
X161400000Y-40428704D01*
X161389500Y-40531483D01*
X159615407Y-40531483D01*
X159546593Y-40441802D01*
X159546587Y-40441795D01*
X159379704Y-40274912D01*
X159379697Y-40274906D01*
X159192454Y-40131230D01*
X159192453Y-40131229D01*
X159192450Y-40131227D01*
X159110957Y-40084177D01*
X158988056Y-40013219D01*
X158988045Y-40013214D01*
X158769993Y-39922894D01*
X158542010Y-39861806D01*
X158308020Y-39831001D01*
X158308017Y-39831000D01*
X158308011Y-39831000D01*
X158071989Y-39831000D01*
X158071983Y-39831000D01*
X158071979Y-39831001D01*
X157837989Y-39861806D01*
X157610006Y-39922894D01*
X157391954Y-40013214D01*
X157391943Y-40013219D01*
X157187545Y-40131230D01*
X157000302Y-40274906D01*
X157000295Y-40274912D01*
X156833412Y-40441795D01*
X156833406Y-40441802D01*
X156689730Y-40629045D01*
X156571719Y-40833443D01*
X156571714Y-40833454D01*
X156481394Y-41051506D01*
X156420306Y-41279489D01*
X156389501Y-41513479D01*
X156389500Y-41513495D01*
X134700500Y-41513495D01*
X134700500Y-34324188D01*
X136121300Y-34324188D01*
X136121300Y-34675806D01*
X136155763Y-35025726D01*
X136155766Y-35025743D01*
X136224357Y-35370583D01*
X136224358Y-35370589D01*
X136326434Y-35707086D01*
X136460993Y-36031939D01*
X136460995Y-36031944D01*
X136626738Y-36342026D01*
X136626749Y-36342044D01*
X136822089Y-36634391D01*
X136822099Y-36634405D01*
X137045164Y-36906211D01*
X137293788Y-37154835D01*
X137293793Y-37154839D01*
X137293794Y-37154840D01*
X137565600Y-37377905D01*
X137857962Y-37573255D01*
X137857971Y-37573260D01*
X137857973Y-37573261D01*
X138168055Y-37739004D01*
X138168057Y-37739004D01*
X138168063Y-37739008D01*
X138492918Y-37873567D01*
X138829398Y-37975638D01*
X138829404Y-37975639D01*
X138829410Y-37975641D01*
X138829416Y-37975642D01*
X138947427Y-37999115D01*
X139174262Y-38044235D01*
X139524190Y-38078700D01*
X139524193Y-38078700D01*
X139875807Y-38078700D01*
X139875810Y-38078700D01*
X140225738Y-38044235D01*
X140508512Y-37987988D01*
X140570583Y-37975642D01*
X140570589Y-37975641D01*
X140570592Y-37975639D01*
X140570602Y-37975638D01*
X140907082Y-37873567D01*
X141231937Y-37739008D01*
X141542038Y-37573255D01*
X141834400Y-37377905D01*
X142106206Y-37154840D01*
X142354840Y-36906206D01*
X142577905Y-36634400D01*
X142773255Y-36342038D01*
X142939008Y-36031937D01*
X143073567Y-35707082D01*
X143175638Y-35370602D01*
X143244235Y-35025738D01*
X143278700Y-34675810D01*
X143278700Y-34324190D01*
X143278700Y-34324188D01*
X212321300Y-34324188D01*
X212321300Y-34675806D01*
X212355763Y-35025726D01*
X212355766Y-35025743D01*
X212424357Y-35370583D01*
X212424358Y-35370589D01*
X212526434Y-35707086D01*
X212660993Y-36031939D01*
X212660995Y-36031944D01*
X212826738Y-36342026D01*
X212826749Y-36342044D01*
X213022089Y-36634391D01*
X213022099Y-36634405D01*
X213245164Y-36906211D01*
X213493788Y-37154835D01*
X213493793Y-37154839D01*
X213493794Y-37154840D01*
X213765600Y-37377905D01*
X214057962Y-37573255D01*
X214057971Y-37573260D01*
X214057973Y-37573261D01*
X214368055Y-37739004D01*
X214368057Y-37739004D01*
X214368063Y-37739008D01*
X214692918Y-37873567D01*
X215029398Y-37975638D01*
X215029404Y-37975639D01*
X215029410Y-37975641D01*
X215029416Y-37975642D01*
X215147427Y-37999115D01*
X215374262Y-38044235D01*
X215724190Y-38078700D01*
X215724193Y-38078700D01*
X216075807Y-38078700D01*
X216075810Y-38078700D01*
X216425738Y-38044235D01*
X216708512Y-37987988D01*
X216770583Y-37975642D01*
X216770589Y-37975641D01*
X216770592Y-37975639D01*
X216770602Y-37975638D01*
X217107082Y-37873567D01*
X217431937Y-37739008D01*
X217742038Y-37573255D01*
X218034400Y-37377905D01*
X218306206Y-37154840D01*
X218554840Y-36906206D01*
X218777905Y-36634400D01*
X218973255Y-36342038D01*
X219139008Y-36031937D01*
X219273567Y-35707082D01*
X219375638Y-35370602D01*
X219444235Y-35025738D01*
X219478700Y-34675810D01*
X219478700Y-34324190D01*
X219444235Y-33974262D01*
X219375642Y-33629416D01*
X219375641Y-33629410D01*
X219375639Y-33629404D01*
X219375638Y-33629398D01*
X219273567Y-33292918D01*
X219139008Y-32968063D01*
X218973255Y-32657962D01*
X218777905Y-32365600D01*
X218554840Y-32093794D01*
X218554839Y-32093793D01*
X218554835Y-32093788D01*
X218306211Y-31845164D01*
X218034405Y-31622099D01*
X218034404Y-31622098D01*
X218034400Y-31622095D01*
X217742038Y-31426745D01*
X217742033Y-31426742D01*
X217742026Y-31426738D01*
X217431944Y-31260995D01*
X217431939Y-31260993D01*
X217107086Y-31126434D01*
X216770589Y-31024358D01*
X216770583Y-31024357D01*
X216425743Y-30955766D01*
X216425738Y-30955765D01*
X216425736Y-30955764D01*
X216425726Y-30955763D01*
X216168654Y-30930444D01*
X216075810Y-30921300D01*
X215724190Y-30921300D01*
X215638890Y-30929701D01*
X215374273Y-30955763D01*
X215374256Y-30955766D01*
X215029416Y-31024357D01*
X215029410Y-31024358D01*
X214692913Y-31126434D01*
X214368060Y-31260993D01*
X214368055Y-31260995D01*
X214057973Y-31426738D01*
X214057955Y-31426749D01*
X213765608Y-31622089D01*
X213765594Y-31622099D01*
X213493788Y-31845164D01*
X213245164Y-32093788D01*
X213022099Y-32365594D01*
X213022089Y-32365608D01*
X212826749Y-32657955D01*
X212826738Y-32657973D01*
X212660995Y-32968055D01*
X212660993Y-32968060D01*
X212526434Y-33292913D01*
X212424358Y-33629410D01*
X212424357Y-33629416D01*
X212355766Y-33974256D01*
X212355763Y-33974273D01*
X212321533Y-34321810D01*
X212321534Y-34321811D01*
X212321300Y-34324188D01*
X143278700Y-34324188D01*
X143244235Y-33974262D01*
X143175642Y-33629416D01*
X143175641Y-33629410D01*
X143175639Y-33629404D01*
X143175638Y-33629398D01*
X143073567Y-33292918D01*
X142939008Y-32968063D01*
X142773255Y-32657962D01*
X142577905Y-32365600D01*
X142354840Y-32093794D01*
X142354839Y-32093793D01*
X142354835Y-32093788D01*
X142106211Y-31845164D01*
X141834405Y-31622099D01*
X141834404Y-31622098D01*
X141834400Y-31622095D01*
X141542038Y-31426745D01*
X141542033Y-31426742D01*
X141542026Y-31426738D01*
X141231944Y-31260995D01*
X141231939Y-31260993D01*
X140907086Y-31126434D01*
X140570589Y-31024358D01*
X140570583Y-31024357D01*
X140225743Y-30955766D01*
X140225738Y-30955765D01*
X140225736Y-30955764D01*
X140225726Y-30955763D01*
X139968654Y-30930444D01*
X139875810Y-30921300D01*
X139524190Y-30921300D01*
X139438890Y-30929701D01*
X139174273Y-30955763D01*
X139174256Y-30955766D01*
X138829416Y-31024357D01*
X138829410Y-31024358D01*
X138492913Y-31126434D01*
X138168060Y-31260993D01*
X138168055Y-31260995D01*
X137857973Y-31426738D01*
X137857955Y-31426749D01*
X137565608Y-31622089D01*
X137565594Y-31622099D01*
X137293788Y-31845164D01*
X137045164Y-32093788D01*
X136822099Y-32365594D01*
X136822089Y-32365608D01*
X136626749Y-32657955D01*
X136626738Y-32657973D01*
X136460995Y-32968055D01*
X136460993Y-32968060D01*
X136326434Y-33292913D01*
X136224358Y-33629410D01*
X136224357Y-33629416D01*
X136155766Y-33974256D01*
X136155763Y-33974273D01*
X136121533Y-34321810D01*
X136121534Y-34321811D01*
X136121300Y-34324188D01*
X134700500Y-34324188D01*
X134700500Y-32003480D01*
X134700695Y-31996527D01*
X134702740Y-31960118D01*
X134717713Y-31693494D01*
X134719267Y-31679700D01*
X134769523Y-31383915D01*
X134772616Y-31370363D01*
X134804126Y-31260993D01*
X134855673Y-31082068D01*
X134860265Y-31068948D01*
X134907147Y-30955765D01*
X134975075Y-30791768D01*
X134981097Y-30779262D01*
X135126230Y-30516665D01*
X135133625Y-30504897D01*
X135307245Y-30260201D01*
X135315896Y-30249354D01*
X135515816Y-30025645D01*
X135525647Y-30015815D01*
X135749354Y-29815896D01*
X135760201Y-29807245D01*
X136004902Y-29633621D01*
X136016665Y-29626230D01*
X136279262Y-29481097D01*
X136291768Y-29475075D01*
X136568948Y-29360265D01*
X136582068Y-29355673D01*
X136870369Y-29272614D01*
X136883915Y-29269523D01*
X137179700Y-29219267D01*
X137193494Y-29217713D01*
X137496528Y-29200695D01*
X137503481Y-29200500D01*
X137539882Y-29200500D01*
X218560118Y-29200500D01*
X218596519Y-29200500D01*
X218603472Y-29200695D01*
G37*
%TD.AperFunction*%
%TD*%
M02*
