M48
; DRILL file {KiCad 9.0.7} date 2026-03-08T18:36:08-0400
; FORMAT={-:-/ absolute / inch / decimal}
; #@! TF.CreationDate,2026-03-08T18:36:08-04:00
; #@! TF.GenerationSoftware,Kicad,Pcbnew,9.0.7
; #@! TF.FileFunction,Plated,1,2,PTH
FMAT,2
INCH
; #@! TA.AperFunction,Plated,PTH,ViaDrill
T1C0.0118
; #@! TA.AperFunction,Plated,PTH,ViaDrill
T2C0.0197
; #@! TA.AperFunction,Plated,PTH,ComponentDrill
T3C0.0276
; #@! TA.AperFunction,Plated,PTH,ComponentDrill
T4C0.0300
; #@! TA.AperFunction,Plated,PTH,ComponentDrill
T5C0.0315
; #@! TA.AperFunction,Plated,PTH,ComponentDrill
T6C0.0354
; #@! TA.AperFunction,Plated,PTH,ComponentDrill
T7C0.0394
; #@! TA.AperFunction,Plated,PTH,ComponentDrill
T8C0.0512
; #@! TA.AperFunction,Plated,PTH,ComponentDrill
T9C0.0591
%
G90
G05
T1
X6.161Y-2.563
X6.165Y-3.185
X6.1846Y-2.6953
X6.1846Y-2.7425
X6.2043Y-3.1339
X6.2083Y-2.563
X6.2831Y-2.6953
X6.2831Y-2.7425
X6.3421Y-3.3898
X6.3421Y-3.685
X7.3197Y-3.8244
X7.502Y-3.8244
X7.673Y-3.8258
T2
X6.603Y-2.0158
X6.868Y-2.0158
X7.0565Y-3.8258
X7.318Y-2.9258
X7.328Y-2.8158
X7.338Y-2.0308
X7.493Y-2.8158
X7.493Y-2.9258
X7.5461Y-2.0308
T3
X7.8244Y-3.5161
X7.8244Y-3.7161
X8.1311Y-3.2642
X8.1311Y-3.4642
T4
X6.4358Y-2.1189
X6.4358Y-2.2189
X6.4358Y-2.3189
X6.4358Y-2.4189
X6.4358Y-2.5189
X6.4358Y-2.6189
X6.4358Y-2.7189
X6.4358Y-2.8189
X6.4406Y-3.0551
X6.4406Y-3.1551
X6.4406Y-3.2551
X6.4406Y-3.3551
X6.4406Y-3.4551
X6.4406Y-3.5551
X6.4406Y-3.6551
X6.4406Y-3.7551
X7.0264Y-2.1189
X7.0264Y-2.2189
X7.0264Y-2.3189
X7.0264Y-2.4189
X7.0264Y-2.5189
X7.0264Y-2.6189
X7.0264Y-2.7189
X7.0264Y-2.8189
X7.0311Y-3.0551
X7.0311Y-3.1551
X7.0311Y-3.2551
X7.0311Y-3.3551
X7.0311Y-3.4551
X7.0311Y-3.5551
X7.0311Y-3.6551
X7.0311Y-3.7551
X7.6536Y-2.1666
X7.6546Y-2.7965
X7.7536Y-2.1666
X7.7546Y-2.7965
T5
X7.7949Y-3.0551
X7.8736Y-3.0551
X7.9524Y-3.0551
T6
X7.8244Y-3.2799
X7.8244Y-3.3799
T7
X5.7909Y-2.5614
X5.7909Y-2.6614
X5.7909Y-2.7614
X5.7909Y-2.8614
X5.7909Y-2.9614
X5.7909Y-3.0614
X5.7909Y-3.1614
X5.7909Y-3.2614
X5.793Y-3.5158
X5.793Y-3.6158
X5.793Y-3.7158
X5.793Y-3.8158
X5.793Y-3.9867
X5.793Y-4.0867
X5.793Y-4.1867
X5.793Y-4.2867
T8
X6.228Y-1.639
X6.228Y-4.1358
X6.4248Y-1.639
X6.4248Y-4.1358
X7.4201Y-1.639
X7.4207Y-4.1358
X7.6169Y-1.639
X7.6176Y-4.1358
T9
X7.7122Y-3.0551
X8.035Y-3.0551
M30
