%TF.GenerationSoftware,KiCad,Pcbnew,9.0.7*%
%TF.CreationDate,2026-03-08T18:26:09-04:00*%
%TF.ProjectId,Training_Robot,54726169-6e69-46e6-975f-526f626f742e,rev?*%
%TF.SameCoordinates,Original*%
%TF.FileFunction,Soldermask,Top*%
%TF.FilePolarity,Negative*%
%FSLAX46Y46*%
G04 Gerber Fmt 4.6, Leading zero omitted, Abs format (unit mm)*
G04 Created by KiCad (PCBNEW 9.0.7) date 2026-03-08 18:26:09*
%MOMM*%
%LPD*%
G01*
G04 APERTURE LIST*
G04 Aperture macros list*
%AMRoundRect*
0 Rectangle with rounded corners*
0 $1 Rounding radius*
0 $2 $3 $4 $5 $6 $7 $8 $9 X,Y pos of 4 corners*
0 Add a 4 corners polygon primitive as box body*
4,1,4,$2,$3,$4,$5,$6,$7,$8,$9,$2,$3,0*
0 Add four circle primitives for the rounded corners*
1,1,$1+$1,$2,$3*
1,1,$1+$1,$4,$5*
1,1,$1+$1,$6,$7*
1,1,$1+$1,$8,$9*
0 Add four rect primitives between the rounded corners*
20,1,$1+$1,$2,$3,$4,$5,0*
20,1,$1+$1,$4,$5,$6,$7,0*
20,1,$1+$1,$6,$7,$8,$9,0*
20,1,$1+$1,$8,$9,$2,$3,0*%
G04 Aperture macros list end*
%ADD10R,1.800000X1.800000*%
%ADD11C,1.800000*%
%ADD12C,1.524000*%
%ADD13R,1.524000X1.524000*%
%ADD14C,1.400000*%
%ADD15RoundRect,0.250000X1.050000X1.050000X-1.050000X1.050000X-1.050000X-1.050000X1.050000X-1.050000X0*%
%ADD16C,2.600000*%
%ADD17RoundRect,0.250000X-1.050000X-1.050000X1.050000X-1.050000X1.050000X1.050000X-1.050000X1.050000X0*%
%ADD18O,2.200000X3.500000*%
%ADD19R,1.500000X2.500000*%
%ADD20O,1.500000X2.500000*%
%ADD21R,1.700000X1.700000*%
%ADD22C,1.700000*%
G04 APERTURE END LIST*
D10*
%TO.C,D1*%
X198740000Y-85850000D03*
D11*
X198740000Y-83310000D03*
%TD*%
D12*
%TO.C,U4*%
X194401000Y-55031000D03*
D13*
X196941000Y-55031000D03*
D12*
X194427000Y-71031000D03*
X196967000Y-71031000D03*
%TD*%
%TO.C,U1*%
X163470000Y-53820000D03*
X163470000Y-56360000D03*
X163470000Y-58900000D03*
X163470000Y-61440000D03*
X163470000Y-63980000D03*
X163470000Y-66520000D03*
X163470000Y-69060000D03*
X163470000Y-71600000D03*
X178470000Y-53820000D03*
X178470000Y-56360000D03*
X178470000Y-58900000D03*
X178470000Y-61440000D03*
X178470000Y-63980000D03*
X178470000Y-66520000D03*
X178470000Y-69060000D03*
X178470000Y-71600000D03*
%TD*%
%TO.C,U2*%
X163590000Y-77600000D03*
X163590000Y-80140000D03*
X163590000Y-82680000D03*
X163590000Y-85220000D03*
X163590000Y-87760000D03*
X163590000Y-90300000D03*
X163590000Y-92840000D03*
X163590000Y-95380000D03*
X178590000Y-77600000D03*
X178590000Y-80140000D03*
X178590000Y-82680000D03*
X178590000Y-85220000D03*
X178590000Y-87760000D03*
X178590000Y-90300000D03*
X178590000Y-92840000D03*
X178590000Y-95380000D03*
%TD*%
D14*
%TO.C,R1*%
X206530000Y-82910000D03*
X206530000Y-87990000D03*
%TD*%
%TO.C,R2*%
X198740000Y-94390000D03*
X198740000Y-89310000D03*
%TD*%
D15*
%TO.C,M2*%
X193470000Y-41631500D03*
D16*
X188470000Y-41631500D03*
%TD*%
D17*
%TO.C,M4*%
X188487000Y-105050000D03*
D16*
X193487000Y-105050000D03*
%TD*%
D18*
%TO.C,SW1*%
X204090000Y-77600000D03*
X195890000Y-77600000D03*
D19*
X201990000Y-77600000D03*
D20*
X199990000Y-77600000D03*
X197990000Y-77600000D03*
%TD*%
D21*
%TO.C,J5*%
X147141000Y-101262000D03*
D22*
X147141000Y-103802000D03*
X147141000Y-106342000D03*
X147141000Y-108882000D03*
%TD*%
D21*
%TO.C,J1*%
X147090000Y-65060000D03*
D22*
X147090000Y-67600000D03*
X147090000Y-70140000D03*
X147090000Y-72680000D03*
X147090000Y-75220000D03*
X147090000Y-77760000D03*
X147090000Y-80300000D03*
X147090000Y-82840000D03*
%TD*%
D17*
%TO.C,M3*%
X158190000Y-105050000D03*
D16*
X163190000Y-105050000D03*
%TD*%
D21*
%TO.C,J4*%
X147141000Y-89302000D03*
D22*
X147141000Y-91842000D03*
X147141000Y-94382000D03*
X147141000Y-96922000D03*
%TD*%
D15*
%TO.C,M1*%
X163190000Y-41631500D03*
D16*
X158190000Y-41631500D03*
%TD*%
M02*
