%TF.GenerationSoftware,KiCad,Pcbnew,9.0.7*%
%TF.CreationDate,2026-03-08T18:26:09-04:00*%
%TF.ProjectId,Training_Robot,54726169-6e69-46e6-975f-526f626f742e,rev?*%
%TF.SameCoordinates,Original*%
%TF.FileFunction,Copper,L1,Top*%
%TF.FilePolarity,Positive*%
%FSLAX46Y46*%
G04 Gerber Fmt 4.6, Leading zero omitted, Abs format (unit mm)*
G04 Created by KiCad (PCBNEW 9.0.7) date 2026-03-08 18:26:09*
%MOMM*%
%LPD*%
G01*
G04 APERTURE LIST*
G04 Aperture macros list*
%AMRoundRect*
0 Rectangle with rounded corners*
0 $1 Rounding radius*
0 $2 $3 $4 $5 $6 $7 $8 $9 X,Y pos of 4 corners*
0 Add a 4 corners polygon primitive as box body*
4,1,4,$2,$3,$4,$5,$6,$7,$8,$9,$2,$3,0*
0 Add four circle primitives for the rounded corners*
1,1,$1+$1,$2,$3*
1,1,$1+$1,$4,$5*
1,1,$1+$1,$6,$7*
1,1,$1+$1,$8,$9*
0 Add four rect primitives between the rounded corners*
20,1,$1+$1,$2,$3,$4,$5,0*
20,1,$1+$1,$4,$5,$6,$7,0*
20,1,$1+$1,$6,$7,$8,$9,0*
20,1,$1+$1,$8,$9,$2,$3,0*%
G04 Aperture macros list end*
%TA.AperFunction,ComponentPad*%
%ADD10R,1.800000X1.800000*%
%TD*%
%TA.AperFunction,ComponentPad*%
%ADD11C,1.800000*%
%TD*%
%TA.AperFunction,ComponentPad*%
%ADD12C,1.524000*%
%TD*%
%TA.AperFunction,ComponentPad*%
%ADD13R,1.524000X1.524000*%
%TD*%
%TA.AperFunction,ComponentPad*%
%ADD14C,1.400000*%
%TD*%
%TA.AperFunction,ComponentPad*%
%ADD15RoundRect,0.250000X1.050000X1.050000X-1.050000X1.050000X-1.050000X-1.050000X1.050000X-1.050000X0*%
%TD*%
%TA.AperFunction,ComponentPad*%
%ADD16C,2.600000*%
%TD*%
%TA.AperFunction,ComponentPad*%
%ADD17RoundRect,0.250000X-1.050000X-1.050000X1.050000X-1.050000X1.050000X1.050000X-1.050000X1.050000X0*%
%TD*%
%TA.AperFunction,ComponentPad*%
%ADD18O,2.200000X3.500000*%
%TD*%
%TA.AperFunction,ComponentPad*%
%ADD19R,1.500000X2.500000*%
%TD*%
%TA.AperFunction,ComponentPad*%
%ADD20O,1.500000X2.500000*%
%TD*%
%TA.AperFunction,ComponentPad*%
%ADD21R,1.700000X1.700000*%
%TD*%
%TA.AperFunction,ComponentPad*%
%ADD22C,1.700000*%
%TD*%
%TA.AperFunction,ViaPad*%
%ADD23C,0.600000*%
%TD*%
%TA.AperFunction,ViaPad*%
%ADD24C,0.900000*%
%TD*%
%TA.AperFunction,Conductor*%
%ADD25C,0.500000*%
%TD*%
%TA.AperFunction,Conductor*%
%ADD26C,0.200000*%
%TD*%
G04 APERTURE END LIST*
D10*
%TO.P,D1,1,K*%
%TO.N,Net-(D1-K)*%
X198740000Y-85850000D03*
D11*
%TO.P,D1,2,A*%
%TO.N,Net-(D1-A)*%
X198740000Y-83310000D03*
%TD*%
D12*
%TO.P,U4,1,VCC*%
%TO.N,+12V motor pwr*%
X194401000Y-55031000D03*
D13*
%TO.P,U4,2,VCC*%
X196941000Y-55031000D03*
D12*
%TO.P,U4,3,GND*%
%TO.N,GND*%
X194427000Y-71031000D03*
%TO.P,U4,4,GND*%
X196967000Y-71031000D03*
%TD*%
%TO.P,U1,1,PWMA*%
%TO.N,Net-(J1-Pin_3)*%
X163470000Y-53820000D03*
%TO.P,U1,2,AIN2*%
%TO.N,Net-(J1-Pin_5)*%
X163470000Y-56360000D03*
%TO.P,U1,3,AIN1*%
%TO.N,Net-(J1-Pin_4)*%
X163470000Y-58900000D03*
%TO.P,U1,4,STBY*%
%TO.N,/STBY*%
X163470000Y-61440000D03*
%TO.P,U1,5,BIN1*%
%TO.N,Net-(J1-Pin_4)*%
X163470000Y-63980000D03*
%TO.P,U1,6,BIN2*%
%TO.N,Net-(J1-Pin_5)*%
X163470000Y-66520000D03*
%TO.P,U1,7,PWMB*%
%TO.N,Net-(J1-Pin_3)*%
X163470000Y-69060000D03*
%TO.P,U1,8,GND*%
%TO.N,GND*%
X163470000Y-71600000D03*
%TO.P,U1,9,VM*%
%TO.N,+12V motor pwr*%
X178470000Y-53820000D03*
%TO.P,U1,10,VCC*%
%TO.N,+3V3*%
X178470000Y-56360000D03*
%TO.P,U1,11,GND*%
%TO.N,GND*%
X178470000Y-58900000D03*
%TO.P,U1,12,AO1*%
%TO.N,/FR+*%
X178470000Y-61440000D03*
%TO.P,U1,13,AO2*%
%TO.N,/FR-*%
X178470000Y-63980000D03*
%TO.P,U1,14,BO2*%
%TO.N,/BR-*%
X178470000Y-66520000D03*
%TO.P,U1,15,BO1*%
%TO.N,/BR+*%
X178470000Y-69060000D03*
%TO.P,U1,16,GND*%
%TO.N,GND*%
X178470000Y-71600000D03*
%TD*%
%TO.P,U2,1,PWMA*%
%TO.N,Net-(J1-Pin_6)*%
X163590000Y-77600000D03*
%TO.P,U2,2,AIN2*%
%TO.N,Net-(J1-Pin_8)*%
X163590000Y-80140000D03*
%TO.P,U2,3,AIN1*%
%TO.N,Net-(J1-Pin_7)*%
X163590000Y-82680000D03*
%TO.P,U2,4,STBY*%
%TO.N,/STBY*%
X163590000Y-85220000D03*
%TO.P,U2,5,BIN1*%
%TO.N,Net-(J1-Pin_7)*%
X163590000Y-87760000D03*
%TO.P,U2,6,BIN2*%
%TO.N,Net-(J1-Pin_8)*%
X163590000Y-90300000D03*
%TO.P,U2,7,PWMB*%
%TO.N,Net-(J1-Pin_6)*%
X163590000Y-92840000D03*
%TO.P,U2,8,GND*%
%TO.N,GND*%
X163590000Y-95380000D03*
%TO.P,U2,9,VM*%
%TO.N,+12V motor pwr*%
X178590000Y-77600000D03*
%TO.P,U2,10,VCC*%
%TO.N,+3V3*%
X178590000Y-80140000D03*
%TO.P,U2,11,GND*%
%TO.N,GND*%
X178590000Y-82680000D03*
%TO.P,U2,12,AO1*%
%TO.N,/FL+*%
X178590000Y-85220000D03*
%TO.P,U2,13,AO2*%
%TO.N,/FL-*%
X178590000Y-87760000D03*
%TO.P,U2,14,BO2*%
%TO.N,/BL-*%
X178590000Y-90300000D03*
%TO.P,U2,15,BO1*%
%TO.N,/BL+*%
X178590000Y-92840000D03*
%TO.P,U2,16,GND*%
%TO.N,GND*%
X178590000Y-95380000D03*
%TD*%
D14*
%TO.P,R1,1*%
%TO.N,Net-(D1-A)*%
X206530000Y-82910000D03*
%TO.P,R1,2*%
%TO.N,/STBY*%
X206530000Y-87990000D03*
%TD*%
%TO.P,R2,1*%
%TO.N,GND*%
X198740000Y-94390000D03*
%TO.P,R2,2*%
%TO.N,Net-(D1-K)*%
X198740000Y-89310000D03*
%TD*%
D15*
%TO.P,M2,1,+*%
%TO.N,/FR+*%
X193470000Y-41631500D03*
D16*
%TO.P,M2,2,-*%
%TO.N,/FR-*%
X188470000Y-41631500D03*
%TD*%
D17*
%TO.P,M4,1,+*%
%TO.N,/BR+*%
X188487000Y-105050000D03*
D16*
%TO.P,M4,2,-*%
%TO.N,/BR-*%
X193487000Y-105050000D03*
%TD*%
D18*
%TO.P,SW1,*%
%TO.N,*%
X204090000Y-77600000D03*
X195890000Y-77600000D03*
D19*
%TO.P,SW1,1,B*%
%TO.N,Net-(D1-A)*%
X201990000Y-77600000D03*
D20*
%TO.P,SW1,2,C*%
%TO.N,+3V3*%
X199990000Y-77600000D03*
%TO.P,SW1,3,A*%
%TO.N,GND*%
X197990000Y-77600000D03*
%TD*%
D21*
%TO.P,J5,1,Pin_1*%
%TO.N,GND*%
X147141000Y-101262000D03*
D22*
%TO.P,J5,2,Pin_2*%
X147141000Y-103802000D03*
%TO.P,J5,3,Pin_3*%
X147141000Y-106342000D03*
%TO.P,J5,4,Pin_4*%
X147141000Y-108882000D03*
%TD*%
D21*
%TO.P,J1,1,Pin_1*%
%TO.N,+3V3*%
X147090000Y-65060000D03*
D22*
%TO.P,J1,2,Pin_2*%
%TO.N,GND*%
X147090000Y-67600000D03*
%TO.P,J1,3,Pin_3*%
%TO.N,Net-(J1-Pin_3)*%
X147090000Y-70140000D03*
%TO.P,J1,4,Pin_4*%
%TO.N,Net-(J1-Pin_4)*%
X147090000Y-72680000D03*
%TO.P,J1,5,Pin_5*%
%TO.N,Net-(J1-Pin_5)*%
X147090000Y-75220000D03*
%TO.P,J1,6,Pin_6*%
%TO.N,Net-(J1-Pin_6)*%
X147090000Y-77760000D03*
%TO.P,J1,7,Pin_7*%
%TO.N,Net-(J1-Pin_7)*%
X147090000Y-80300000D03*
%TO.P,J1,8,Pin_8*%
%TO.N,Net-(J1-Pin_8)*%
X147090000Y-82840000D03*
%TD*%
D17*
%TO.P,M3,1,+*%
%TO.N,/BL+*%
X158190000Y-105050000D03*
D16*
%TO.P,M3,2,-*%
%TO.N,/BL-*%
X163190000Y-105050000D03*
%TD*%
D21*
%TO.P,J4,1,Pin_1*%
%TO.N,+3V3*%
X147141000Y-89302000D03*
D22*
%TO.P,J4,2,Pin_2*%
X147141000Y-91842000D03*
%TO.P,J4,3,Pin_3*%
X147141000Y-94382000D03*
%TO.P,J4,4,Pin_4*%
X147141000Y-96922000D03*
%TD*%
D15*
%TO.P,M1,1,+*%
%TO.N,/FL+*%
X163190000Y-41631500D03*
D16*
%TO.P,M1,2,-*%
%TO.N,/FL-*%
X158190000Y-41631500D03*
%TD*%
D23*
%TO.N,Net-(J1-Pin_5)*%
X159590000Y-68460000D03*
X156490000Y-65100000D03*
X157690000Y-65100000D03*
X159590000Y-69660000D03*
%TO.N,Net-(J1-Pin_8)*%
X157590000Y-79600000D03*
X156590000Y-80900000D03*
%TO.N,Net-(J1-Pin_4)*%
X157090000Y-69660000D03*
X157090000Y-68460000D03*
D24*
%TO.N,+3V3*%
X174446000Y-51202000D03*
X185876000Y-74316000D03*
X167715000Y-51202000D03*
X190321000Y-74316000D03*
D23*
%TO.N,/STBY*%
X161090000Y-93600000D03*
X194893000Y-97176000D03*
D24*
X179233997Y-97176000D03*
D23*
X190550000Y-97140000D03*
X185920000Y-97140000D03*
X161090000Y-86100000D03*
D24*
%TO.N,+12V motor pwr*%
X186384000Y-51583000D03*
X190321000Y-71522000D03*
X191670000Y-51583000D03*
X186130000Y-71522000D03*
%TD*%
D25*
%TO.N,Net-(D1-A)*%
X201990000Y-80060000D02*
X198740000Y-83310000D01*
X201990000Y-77600000D02*
X201990000Y-80060000D01*
X206530000Y-82910000D02*
X204840000Y-82910000D01*
X204840000Y-82910000D02*
X201990000Y-80060000D01*
D26*
%TO.N,Net-(D1-K)*%
X198740000Y-85850000D02*
X198740000Y-89310000D01*
D25*
%TO.N,/FL+*%
X173049000Y-83206000D02*
X173049000Y-51490500D01*
X178590000Y-85220000D02*
X177719000Y-84349000D01*
X174192000Y-84349000D02*
X173049000Y-83206000D01*
X177719000Y-84349000D02*
X174192000Y-84349000D01*
X173049000Y-51490500D02*
X163190000Y-41631500D01*
D26*
%TO.N,Net-(J1-Pin_5)*%
X159590000Y-67020000D02*
X160090000Y-66520000D01*
X160090000Y-66520000D02*
X163470000Y-66520000D01*
X156490000Y-65000000D02*
X155991000Y-64501000D01*
X155990000Y-62550000D02*
X162180000Y-56360000D01*
X155991000Y-64501000D02*
X155991000Y-63839000D01*
X159590000Y-70600000D02*
X159590000Y-69660000D01*
X155990000Y-63838000D02*
X155990000Y-62550000D01*
X159590000Y-68460000D02*
X159590000Y-67020000D01*
X159670000Y-66520000D02*
X160090000Y-66520000D01*
X159670000Y-66520000D02*
X159110000Y-66520000D01*
X156090000Y-74100000D02*
X148210000Y-74100000D01*
X148210000Y-74100000D02*
X147090000Y-75220000D01*
X155991000Y-63839000D02*
X155990000Y-63838000D01*
X156490000Y-65100000D02*
X156490000Y-65000000D01*
X159110000Y-66520000D02*
X157690000Y-65100000D01*
X162180000Y-56360000D02*
X163470000Y-56360000D01*
X159590000Y-70600000D02*
X156090000Y-74100000D01*
%TO.N,Net-(J1-Pin_8)*%
X147090000Y-82840000D02*
X149090000Y-82840000D01*
X150830000Y-82840000D02*
X154650000Y-82840000D01*
X158290000Y-90300000D02*
X163590000Y-90300000D01*
X163430000Y-80300000D02*
X163590000Y-80140000D01*
X150830000Y-82840000D02*
X158290000Y-90300000D01*
X154650000Y-82840000D02*
X156590000Y-80900000D01*
X157590000Y-79600000D02*
X163050000Y-79600000D01*
X149090000Y-82840000D02*
X150830000Y-82840000D01*
X163050000Y-79600000D02*
X163590000Y-80140000D01*
%TO.N,Net-(J1-Pin_4)*%
X157090000Y-63600000D02*
X157470000Y-63980000D01*
X157030000Y-69660000D02*
X154010000Y-72680000D01*
X161790000Y-58900000D02*
X163470000Y-58900000D01*
X154010000Y-72680000D02*
X147090000Y-72680000D01*
X157090000Y-63600000D02*
X161790000Y-58900000D01*
X157090000Y-69660000D02*
X157030000Y-69660000D01*
X157090000Y-63600000D02*
X157090000Y-68460000D01*
X157470000Y-63980000D02*
X163470000Y-63980000D01*
%TO.N,Net-(J1-Pin_7)*%
X162590000Y-81600000D02*
X163590000Y-82600000D01*
X158790000Y-80300000D02*
X159590000Y-81100000D01*
X147090000Y-80300000D02*
X158790000Y-80300000D01*
X160090000Y-86600000D02*
X161590000Y-88100000D01*
X160090000Y-81600000D02*
X160090000Y-86600000D01*
X163250000Y-88100000D02*
X163590000Y-87760000D01*
X159590000Y-81100000D02*
X160090000Y-81600000D01*
X161590000Y-88100000D02*
X163250000Y-88100000D01*
X160090000Y-81600000D02*
X162590000Y-81600000D01*
X163590000Y-82600000D02*
X163590000Y-82680000D01*
D25*
%TO.N,/FL-*%
X169493000Y-85619000D02*
X169493000Y-51705793D01*
X159418707Y-41631500D02*
X158190000Y-41631500D01*
X171652000Y-87778000D02*
X169493000Y-85619000D01*
X169493000Y-51705793D02*
X159418707Y-41631500D01*
X178590000Y-87760000D02*
X171670000Y-87760000D01*
X171670000Y-87760000D02*
X171652000Y-87778000D01*
D26*
%TO.N,Net-(J1-Pin_3)*%
X154090000Y-69060000D02*
X155090000Y-69060000D01*
X147090000Y-70140000D02*
X148170000Y-69060000D01*
X148170000Y-69060000D02*
X154090000Y-69060000D01*
X155090000Y-69060000D02*
X163470000Y-69060000D01*
X163470000Y-53820000D02*
X155090000Y-62200000D01*
X155090000Y-62200000D02*
X155090000Y-68060000D01*
X155090000Y-68060000D02*
X154090000Y-69060000D01*
%TO.N,Net-(J1-Pin_6)*%
X147090000Y-77760000D02*
X145090000Y-79760000D01*
X151590000Y-85100000D02*
X159330000Y-92840000D01*
X149090000Y-77760000D02*
X163430000Y-77760000D01*
X145090000Y-79760000D02*
X145090000Y-84600000D01*
X145590000Y-85100000D02*
X151590000Y-85100000D01*
X147090000Y-77760000D02*
X149090000Y-77760000D01*
X159330000Y-92840000D02*
X163590000Y-92840000D01*
X163430000Y-77760000D02*
X163590000Y-77600000D01*
X145090000Y-84600000D02*
X145590000Y-85100000D01*
D25*
%TO.N,+3V3*%
X176302000Y-79601000D02*
X176859000Y-80158000D01*
X144270000Y-86530000D02*
X144270000Y-67880000D01*
X144270000Y-67880000D02*
X147090000Y-65060000D01*
X178470000Y-56360000D02*
X176302000Y-56360000D01*
X150630000Y-65060000D02*
X161590000Y-54100000D01*
X163016000Y-51202000D02*
X167715000Y-51202000D01*
X199990000Y-74587000D02*
X199990000Y-77600000D01*
X175335000Y-55393000D02*
X175335000Y-52091000D01*
X174446000Y-51202000D02*
X175335000Y-52091000D01*
X161590000Y-52600000D02*
X162090000Y-52100000D01*
X176302000Y-56360000D02*
X176302000Y-79601000D01*
X180052000Y-80140000D02*
X185876000Y-74316000D01*
X176302000Y-56360000D02*
X175335000Y-55393000D01*
X176877000Y-80140000D02*
X178590000Y-80140000D01*
X147042000Y-89302000D02*
X144270000Y-86530000D01*
X178590000Y-80140000D02*
X180052000Y-80140000D01*
X147141000Y-89302000D02*
X147141000Y-96922000D01*
X161590000Y-54100000D02*
X161590000Y-52600000D01*
X147141000Y-89302000D02*
X147042000Y-89302000D01*
X199719000Y-74316000D02*
X199990000Y-74587000D01*
D26*
X179050000Y-80140000D02*
X178590000Y-80140000D01*
D25*
X162118000Y-52100000D02*
X163016000Y-51202000D01*
X147090000Y-65060000D02*
X150630000Y-65060000D01*
X162090000Y-52100000D02*
X162118000Y-52100000D01*
D26*
X199990000Y-77600000D02*
X200090000Y-77500000D01*
D25*
X190321000Y-74316000D02*
X199719000Y-74316000D01*
X176859000Y-80158000D02*
X176877000Y-80140000D01*
%TO.N,GND*%
X147141000Y-101262000D02*
X147141000Y-108882000D01*
%TO.N,/FR+*%
X188487000Y-46614500D02*
X193470000Y-41631500D01*
X184910000Y-61460000D02*
X188487000Y-57883000D01*
X178490000Y-61460000D02*
X184910000Y-61460000D01*
X178470000Y-61440000D02*
X178490000Y-61460000D01*
X188487000Y-57883000D02*
X188487000Y-46614500D01*
%TO.N,/FR-*%
X189770000Y-59520000D02*
X189770000Y-48429792D01*
X178470000Y-63980000D02*
X185310000Y-63980000D01*
X199280000Y-40460000D02*
X199280000Y-42830000D01*
X189770000Y-48429792D02*
X193639792Y-44560000D01*
X197550000Y-44560000D02*
X194800000Y-44560000D01*
X191251500Y-38850000D02*
X197670000Y-38850000D01*
X199280000Y-42830000D02*
X197550000Y-44560000D01*
X197670000Y-38850000D02*
X199280000Y-40460000D01*
X188470000Y-41631500D02*
X191251500Y-38850000D01*
X185310000Y-63980000D02*
X189770000Y-59520000D01*
X193639792Y-44560000D02*
X194800000Y-44560000D01*
%TO.N,/BL-*%
X183760000Y-101733973D02*
X183760000Y-101680000D01*
X178590000Y-90300000D02*
X177940000Y-90300000D01*
X183760000Y-95470000D02*
X183760000Y-101680000D01*
X180443973Y-105050000D02*
X183760000Y-101733973D01*
X178590000Y-90300000D02*
X183760000Y-95470000D01*
X163190000Y-105050000D02*
X180443973Y-105050000D01*
%TO.N,/BL+*%
X180124260Y-101094343D02*
X162145657Y-101094343D01*
D26*
X178830000Y-92600000D02*
X178590000Y-92840000D01*
D25*
X181440486Y-95690486D02*
X181440486Y-99778117D01*
X162145657Y-101094343D02*
X158190000Y-105050000D01*
X178590000Y-92840000D02*
X181440486Y-95690486D01*
X181440486Y-99778117D02*
X180124260Y-101094343D01*
D26*
%TO.N,/STBY*%
X161090000Y-94600000D02*
X161090000Y-93600000D01*
X168210000Y-81700000D02*
X164690000Y-85220000D01*
X167030000Y-61440000D02*
X168210000Y-62620000D01*
X179157997Y-97100000D02*
X179233997Y-97176000D01*
X161090000Y-96100000D02*
X162090000Y-97100000D01*
X206530000Y-95276000D02*
X206530000Y-87990000D01*
X161970000Y-85220000D02*
X163590000Y-85220000D01*
X162090000Y-97100000D02*
X179157997Y-97100000D01*
X163470000Y-61440000D02*
X167030000Y-61440000D01*
X164690000Y-85220000D02*
X163590000Y-85220000D01*
X185920000Y-97140000D02*
X190550000Y-97140000D01*
X168210000Y-62620000D02*
X168210000Y-81700000D01*
X194893000Y-97176000D02*
X204630000Y-97176000D01*
X161090000Y-86100000D02*
X161970000Y-85220000D01*
X161090000Y-94600000D02*
X161090000Y-96100000D01*
X204630000Y-97176000D02*
X206530000Y-95276000D01*
D25*
%TO.N,+12V motor pwr*%
X194401000Y-55031000D02*
X191467000Y-57965000D01*
X185590000Y-72062000D02*
X186130000Y-71522000D01*
X191670000Y-51583000D02*
X194355000Y-51583000D01*
X186384000Y-51583000D02*
X180707000Y-51583000D01*
D26*
X196941000Y-55031000D02*
X197372000Y-54600000D01*
D25*
X194355000Y-51583000D02*
X197372000Y-54600000D01*
X185590000Y-72100000D02*
X185590000Y-72062000D01*
X180090000Y-77600000D02*
X178590000Y-77600000D01*
X191467000Y-70376000D02*
X190321000Y-71522000D01*
X191467000Y-57965000D02*
X191467000Y-70376000D01*
X194401000Y-55031000D02*
X196941000Y-55031000D01*
X185590000Y-72100000D02*
X180090000Y-77600000D01*
X178470000Y-53820000D02*
X180707000Y-51583000D01*
%TO.N,/BR-*%
X179027000Y-67077000D02*
X187654000Y-67077000D01*
X178470000Y-66520000D02*
X179027000Y-67077000D01*
X187654000Y-67077000D02*
X188797000Y-68220000D01*
X188797000Y-77491000D02*
X193487000Y-82181000D01*
X193487000Y-82181000D02*
X193487000Y-104441000D01*
X188797000Y-68220000D02*
X188797000Y-77491000D01*
%TO.N,/BR+*%
X187400000Y-69490000D02*
X187400000Y-77745000D01*
X178470000Y-69060000D02*
X186970000Y-69060000D01*
X186970000Y-69060000D02*
X187400000Y-69490000D01*
X188487000Y-103133000D02*
X188487000Y-104441000D01*
D26*
X178930000Y-68600000D02*
X178470000Y-69060000D01*
D25*
X191990000Y-82335000D02*
X191990000Y-99630000D01*
X187400000Y-77745000D02*
X191990000Y-82335000D01*
X191990000Y-99630000D02*
X188487000Y-103133000D01*
%TD*%
M02*
