%TF.GenerationSoftware,KiCad,Pcbnew,10.0.4*%
%TF.CreationDate,2026-09-02T23:01:29-04:00*%
%TF.ProjectId,Training_Robot,54726169-6e69-46e6-975f-526f626f742e,rev?*%
%TF.SameCoordinates,Original*%
%TF.FileFunction,Soldermask,Bot*%
%TF.FilePolarity,Negative*%
%FSLAX46Y46*%
G04 Gerber Fmt 4.6, Leading zero omitted, Abs format (unit mm)*
G04 Created by KiCad (PCBNEW 10.0.4) date 2026-09-02 23:01:29*
%MOMM*%
%LPD*%
G01*
G04 APERTURE LIST*
G04 Aperture macros list*
%AMRoundRect*
0 Rectangle with rounded corners*
0 $1 Rounding radius*
0 $2 $3 $4 $5 $6 $7 $8 $9 X,Y pos of 4 corners*
0 Add a 4 corners polygon primitive as box body*
4,1,4,$2,$3,$4,$5,$6,$7,$8,$9,$2,$3,0*
0 Add four circle primitives for the rounded corners*
1,1,$1+$1,$2,$3*
1,1,$1+$1,$4,$5*
1,1,$1+$1,$6,$7*
1,1,$1+$1,$8,$9*
0 Add four rect primitives between the rounded corners*
20,1,$1+$1,$2,$3,$4,$5,0*
20,1,$1+$1,$4,$5,$6,$7,0*
20,1,$1+$1,$6,$7,$8,$9,0*
20,1,$1+$1,$8,$9,$2,$3,0*%
G04 Aperture macros list end*
%ADD10C,1.400000*%
%ADD11C,1.524000*%
%ADD12RoundRect,0.250000X-0.725000X0.600000X-0.725000X-0.600000X0.725000X-0.600000X0.725000X0.600000X0*%
%ADD13O,1.950000X1.700000*%
%ADD14C,4.500000*%
%ADD15RoundRect,0.165000X0.385000X0.885000X-0.385000X0.885000X-0.385000X-0.885000X0.385000X-0.885000X0*%
%ADD16RoundRect,0.495000X1.155000X1.155000X-1.155000X1.155000X-1.155000X-1.155000X1.155000X-1.155000X0*%
%ADD17RoundRect,0.250000X-1.050000X1.050000X-1.050000X-1.050000X1.050000X-1.050000X1.050000X1.050000X0*%
%ADD18C,2.600000*%
%ADD19RoundRect,0.250000X-1.050000X-1.050000X1.050000X-1.050000X1.050000X1.050000X-1.050000X1.050000X0*%
%ADD20R,2.000000X1.200000*%
%ADD21O,2.000000X1.200000*%
%ADD22C,6.500000*%
%ADD23RoundRect,0.250000X1.050000X-1.050000X1.050000X1.050000X-1.050000X1.050000X-1.050000X-1.050000X0*%
%ADD24C,1.600000*%
%ADD25RoundRect,0.250000X-0.600000X-0.725000X0.600000X-0.725000X0.600000X0.725000X-0.600000X0.725000X0*%
%ADD26O,1.700000X1.950000*%
%ADD27R,1.800000X1.800000*%
%ADD28C,1.800000*%
%ADD29R,1.700000X1.700000*%
%ADD30C,1.700000*%
%ADD31RoundRect,0.250000X0.725000X-0.600000X0.725000X0.600000X-0.725000X0.600000X-0.725000X-0.600000X0*%
%ADD32RoundRect,0.645000X1.505000X1.505000X-1.505000X1.505000X-1.505000X-1.505000X1.505000X-1.505000X0*%
%ADD33RoundRect,0.165000X0.835000X0.385000X-0.835000X0.385000X-0.835000X-0.385000X0.835000X-0.385000X0*%
G04 APERTURE END LIST*
D10*
%TO.C,R3*%
X145235000Y-98250000D03*
X152855000Y-98250000D03*
%TD*%
D11*
%TO.C,U1*%
X196739690Y-68720000D03*
X196739690Y-71260000D03*
X196739690Y-73800000D03*
X196739690Y-76340000D03*
X196739690Y-78880000D03*
X196739690Y-81420000D03*
X196739690Y-83960000D03*
X196739690Y-86500000D03*
X211739690Y-68720000D03*
X211739690Y-71260000D03*
X211739690Y-73800000D03*
X211739690Y-76340000D03*
X211739690Y-78880000D03*
X211739690Y-81420000D03*
X211739690Y-83960000D03*
X211739690Y-86500000D03*
%TD*%
D12*
%TO.C,J3*%
X215400000Y-95500000D03*
D13*
X215400000Y-98000000D03*
X215400000Y-100500000D03*
X215400000Y-103000000D03*
%TD*%
D14*
%TO.C,H5*%
X152000000Y-111300000D03*
%TD*%
D10*
%TO.C,R2*%
X152440000Y-61000000D03*
X160060000Y-61000000D03*
%TD*%
D15*
%TO.C,J4*%
X181550000Y-132050000D03*
X168050000Y-132050000D03*
D16*
X171200000Y-126050000D03*
X178400000Y-126050000D03*
%TD*%
D17*
%TO.C,M3*%
X140827500Y-83750000D03*
D18*
X140827500Y-88750000D03*
%TD*%
D19*
%TO.C,J5*%
X204750000Y-129000000D03*
D18*
X209750000Y-129000000D03*
%TD*%
D10*
%TO.C,R8*%
X199070000Y-93020000D03*
X199070000Y-100640000D03*
%TD*%
%TO.C,R7*%
X204320000Y-100640000D03*
X204320000Y-93020000D03*
%TD*%
D20*
%TO.C,U3*%
X169640000Y-54660000D03*
D21*
X169640000Y-57200000D03*
X169640000Y-59740000D03*
X169640000Y-62280000D03*
X169640000Y-64820000D03*
X169640000Y-67360000D03*
X169640000Y-69900000D03*
X169640000Y-72440000D03*
X169640000Y-74980000D03*
X169640000Y-77520000D03*
X169640000Y-80060000D03*
X169640000Y-82600000D03*
X169640000Y-85140000D03*
X169640000Y-87680000D03*
X169640000Y-90220000D03*
X169640000Y-92760000D03*
X169640000Y-95300000D03*
X169640000Y-97840000D03*
X169640000Y-100380000D03*
X169636320Y-102917280D03*
X169636320Y-105457280D03*
X169636320Y-107997280D03*
X192500000Y-108000000D03*
X192500000Y-105460000D03*
X192500000Y-102920000D03*
X192500000Y-100380000D03*
X192500000Y-97840000D03*
X192500000Y-95300000D03*
X192500000Y-92760000D03*
X192500000Y-90220000D03*
X192500000Y-87680000D03*
X192500000Y-85140000D03*
X192500000Y-82600000D03*
X192500000Y-80060000D03*
X192500000Y-77520000D03*
X192500000Y-74980000D03*
X192500000Y-72440000D03*
X192500000Y-69900000D03*
X192500000Y-67360000D03*
X192500000Y-64820000D03*
X192500000Y-62280000D03*
X192500000Y-59740000D03*
X192500000Y-57200000D03*
X192500000Y-54660000D03*
%TD*%
D10*
%TO.C,R5*%
X205560000Y-58750000D03*
X197940000Y-58750000D03*
%TD*%
D22*
%TO.C,H1*%
X139800000Y-52800000D03*
%TD*%
D10*
%TO.C,R4*%
X152815000Y-103000000D03*
X145195000Y-103000000D03*
%TD*%
D23*
%TO.C,M4*%
X221672500Y-88750000D03*
D18*
X221672500Y-83750000D03*
%TD*%
D24*
%TO.C,C1*%
X165800000Y-54600000D03*
X160800000Y-54600000D03*
%TD*%
D22*
%TO.C,H2*%
X216000000Y-52800000D03*
%TD*%
D23*
%TO.C,M2*%
X221672500Y-75750000D03*
D18*
X221672500Y-70750000D03*
%TD*%
D25*
%TO.C,J2*%
X198250000Y-50250000D03*
D26*
X200750000Y-50250000D03*
X203250000Y-50250000D03*
X205750000Y-50250000D03*
%TD*%
D27*
%TO.C,D1*%
X163480000Y-61000000D03*
D28*
X166020000Y-61000000D03*
%TD*%
D29*
%TO.C,J6*%
X143400000Y-120200000D03*
D30*
X145940000Y-120200000D03*
X148480000Y-120200000D03*
X151020000Y-120200000D03*
X153560000Y-120200000D03*
X156100000Y-120200000D03*
X158640000Y-120200000D03*
X161180000Y-120200000D03*
%TD*%
D10*
%TO.C,R6*%
X197940000Y-64250000D03*
X205560000Y-64250000D03*
%TD*%
D17*
%TO.C,M1*%
X140827500Y-70750000D03*
D18*
X140827500Y-75750000D03*
%TD*%
D11*
%TO.C,U2*%
X165260310Y-86760310D03*
X165260310Y-84220310D03*
X165260310Y-81680310D03*
X165260310Y-79140310D03*
X165260310Y-76600310D03*
X165260310Y-74060310D03*
X165260310Y-71520310D03*
X165260310Y-68980310D03*
X150260310Y-86760310D03*
X150260310Y-84220310D03*
X150260310Y-81680310D03*
X150260310Y-79140310D03*
X150260310Y-76600310D03*
X150260310Y-74060310D03*
X150260310Y-71520310D03*
X150260310Y-68980310D03*
%TD*%
D31*
%TO.C,J1*%
X138750000Y-103250000D03*
D13*
X138750000Y-100750000D03*
X138750000Y-98250000D03*
X138750000Y-95750000D03*
%TD*%
D32*
%TO.C,F2*%
X157940000Y-92583000D03*
D33*
X161750000Y-94250000D03*
X154130000Y-90821000D03*
%TD*%
D22*
%TO.C,H3*%
X190600000Y-129000000D03*
%TD*%
D32*
%TO.C,F1*%
X218990000Y-63133000D03*
D33*
X222800000Y-64800000D03*
X215180000Y-61371000D03*
%TD*%
D22*
%TO.C,H4*%
X139800000Y-129000000D03*
%TD*%
M02*
